<?xml version="1.0" encoding="UTF-8"?>
<svg width="697px" height="805px" viewBox="0 0 697 805" version="1.1" xmlns="http://www.w3.org/2000/svg" xmlns:xlink="http://www.w3.org/1999/xlink">
    <!-- Generator: Sketch 47 (45396) - http://www.bohemiancoding.com/sketch -->
    <title>Page 1</title>
    <desc>Created with Sketch.</desc>
    <defs>
        <polygon id="path-1" points="773.9646 1.00207397 3351.03557 1.00207397 3351.03557 2693.55145 0 2693.55145 0 1.00207397 773.9646 1.00207397 773.9646 2231.01823 2735.13123 2231.01823 2735.13123 1.00179866 773.9646 1.00179866"></polygon>
        <path d="M26.1872418,0.507964567 C23.1570276,0.50797052 18.684508,4.69118394 11.6424248,11.7309877 C-3.00609256,26.3830216 -2.22410404,55.0346031 12.0058842,53.5947283 L32.3816414,16.8462599 C31.0529202,5.3956409 29.4626839,0.508012489 26.1872964,0.507964567 L26.1872418,0.507964567 L26.1872418,0.507964567 Z" id="path-3"></path>
    </defs>
    <g id="Design" stroke="none" stroke-width="1" fill="none" fill-rule="evenodd">
        <g id="Homepage-remplacer-vehicule" transform="translate(-43.000000, -2935.000000)">
            <g id="MISSION" transform="translate(0.000000, 2880.000000)">
                <g id="pexels-photo-63705">
                    <g id="Page-1" transform="translate(-1283.000000, -937.000000)">
                        <g id="Group-161">
                            <g id="Group-9">
                                <mask id="mask-2" fill="white">
                                    <use xlink:href="#path-1"></use>
                                </mask>
                                <g id="Clip-8"></g>
                                <path d="M2735.13123,2045.40102 C2735.13123,2170.83807 2253.36297,2231.01823 1671.9077,2231.01823 C1090.45243,2231.01823 773.9646,2170.83807 773.9646,2045.40102 C773.9646,1919.96398 1100.86058,1.00179866 1682.31586,1.00179866 C2263.77113,1.00179866 2735.13123,1919.96398 2735.13123,2045.40102" id="Fill-7" fill="#5EB299" mask="url(#mask-2)"></path>
                            </g>
                            <path d="M1450.64597,1436.37831 L1447.30325,1429.90025 L1443.54475,1422.00158 L1441.24559,1409.68143 C1441.24559,1409.68143 1435.3972,1413.0237 1437.48709,1419.70549 C1439.57423,1426.38728 1436.8593,1430.07369 1434.77216,1429.90025 C1432.68502,1429.72955 1412.63142,1420.92512 1407.82935,1423.02849 C1403.02453,1425.13462 1405.73946,1426.77822 1409.28869,1427.94003 C1412.84068,1429.10184 1425.58104,1433.30033 1424.53747,1434.75122 C1423.4939,1436.20486 1410.13952,1429.91676 1405.24108,1431.38968 C1400.34264,1432.86259 1412.84068,1437.24553 1416.39267,1441.00628 C1412.84068,1439.96285 1408.24788,1441.46329 1409.28869,1444.36507 C1410.33502,1447.2696 1423.28464,1444.61835 1425.37177,1446.98878 C1423.70317,1448.7315 1425.58104,1451.6195 1428.92377,1449.65103 C1432.26649,1447.68807 1444.37905,1455.02785 1444.79758,1457.20556 C1448.55608,1457.08717 1454.19521,1450.96427 1450.64597,1436.37831" id="Fill-10" fill="#EA956F"></path>
                            <path d="M1934.67759,1511.83325 C1934.67759,1511.83325 1936.35997,1506.23343 1938.8794,1502.87189 C1941.39884,1499.5131 1953.44256,1482.71089 1952.3219,1477.6727 C1951.20398,1472.62901 1957.08267,1475.15086 1956.52371,1482.98895 C1955.962,1490.8298 1948.40094,1499.23228 1950.64503,1500.91168 C1952.88085,1502.59107 1961.00362,1505.39098 1964.08477,1504.27322 C1967.16591,1503.15546 1979.76859,1497.83095 1984.81022,1496.99125 C1989.84909,1496.15431 1993.77004,1500.63361 1984.81022,1503.9924 L1975.84764,1507.35395 L1966.048,1511.83325 C1966.048,1511.83325 1988.24105,1503.4115 1987.61326,1511.83325 C1987.4095,1514.46798 1978.36707,1514.3551 1976.6902,1515.75368 C1975.00507,1517.15225 1981.17011,1518.8344 1976.12849,1519.95216 C1971.08687,1521.06992 1962.40239,1520.79186 1958.76504,1522.19595 C1955.12494,1523.59177 1934.67759,1531.71344 1934.67759,1531.71344 C1934.67759,1531.71344 1927.67824,1518.8344 1934.67759,1511.83325" id="Fill-12" fill="#EA956F"></path>
                            <path d="M1644.89936,1359.02372 C1645.84105,1363.22771 1645.15268,1366.94991 1643.39045,1367.3381 C1641.6117,1367.73455 1639.41167,1364.65382 1638.48099,1360.43606 C1637.55307,1356.23207 1638.23043,1352.49885 1640.00642,1352.11067 C1641.7714,1351.71422 1643.96868,1354.80596 1644.89936,1359.02372" id="Fill-14" fill="#F5AB82"></path>
                            <path d="M1693.17118,1360.61804 C1692.01196,1364.76147 1689.64122,1367.72381 1687.90102,1367.23926 C1686.14429,1366.75471 1685.67345,1362.98571 1686.83817,1358.83127 C1688.00014,1354.69886 1690.36813,1351.72551 1692.10833,1352.2073 C1693.87056,1352.70286 1694.33039,1356.46085 1693.17118,1360.61804" id="Fill-16" fill="#F5AB82"></path>
                            <path d="M1726.62046,1465.08688 L1715.60103,1488.52958 C1715.60103,1488.52958 1723.35759,1460.75073 1726.62046,1465.08688 C1791.12901,1551.10494 1795.33357,1929.70116 1865.59414,1975.01179 C1762.6828,1975.01179 1819.64681,1980.95575 1750.64733,2012.3687 C1681.66163,2043.7844 1556.68114,1974.8411 1547.99391,1957.05328 C1567.70332,1951.47273 1663.38953,1503.06323 1627.06286,1478.28252" id="Fill-18" fill="#E5332A"></path>
                            <path d="M1653.14245,1382.86342 C1646.69931,1431.66499 1639.70271,1455.02234 1639.70271,1455.02234 C1639.70271,1455.02234 1684.93689,1497.00722 1718.33386,1468.13264 C1687.53893,1452.93274 1682.69831,1391.34574 1690.00605,1351.9185" id="Fill-20" fill="#F5AB82"></path>
                            <path d="M1614.80877,1694.95257 C1604.71726,1778.75989 1625.44271,1980.83517 1614.80877,2060.62846 C1621.76681,2073.15234 1610.9594,2094.26316 1611.95341,2091.87622 L1621.69247,2091.87622 C1621.69247,2091.87622 1678.63996,1706.74412 1673.32023,1681.56421 L1614.80877,1694.95257 Z" id="Fill-22" fill="#F5AB82"></path>
                            <path d="M1613.00854,1694.95257 C1602.91704,1778.75989 1620.05195,1990.85372 1609.418,2070.64977 C1609.418,2070.64977 1616.06215,2054.68725 1609.418,2070.64977 L1631.27789,2074.50136 C1631.27789,2074.50136 1676.83973,1706.74412 1671.52001,1681.56421 L1613.00854,1694.95257 Z" id="Fill-24" fill="#192229"></path>
                            <path d="M1661.96488,1788.69255 C1688.36801,1873.36985 1717.54664,1994.94704 1722.79202,2053.31841 C1723.27663,2058.47773 1730.11353,2074.59717 1729.43892,2088.55267 L1736.3061,2088.55267 C1736.3061,2088.55267 1697.19842,1714.88726 1701.18546,1697.61152 C1701.18546,1697.61152 1643.9819,1658.31918 1630.79823,1658.26962 C1617.63659,1658.19804 1624.7213,1730.18627 1624.7213,1730.18627 C1624.7213,1730.18627 1647.9827,1743.87747 1661.96488,1788.69255" id="Fill-28" fill="#F5AB82"></path>
                            <path d="M1658.22978,1788.69255 C1684.63291,1873.36985 1712.36046,2012.50911 1717.60584,2070.88048 C1718.09045,2076.0398 1718.2832,2056.92498 1717.60584,2070.88048 L1738.62041,2068.19069 C1738.62041,2068.19069 1698.81609,1729.79258 1702.80588,1712.51684 C1702.80588,1712.51684 1640.2468,1658.31918 1627.06313,1658.26962 C1613.9015,1658.19804 1620.9862,1730.18627 1620.9862,1730.18627 C1620.9862,1730.18627 1644.24761,1743.87747 1658.22978,1788.69255" id="Fill-32" fill="#22323C"></path>
                            <polygon id="Fill-34" fill="#FEFEFE" points="1639.70299 1455.02345 1643.55786 1434.32284 1650.90415 1444.71581 1694.18611 1423.10943 1702.79074 1440.39068 1718.8628 1456.89556 1712.09475 1500.90122 1713.42468 1506.21746 1626.96539 1615.2515 1613.00799 1504.88771 1620.98483 1483.62272"></polygon>
                            <polyline id="Fill-36" fill="#E5332A" points="1624.25899 1474.31667 1619.08795 1488.69614 1618.36103 1479.86693"></polyline>
                            <path d="M1702.79101,1440.38958 C1716.73464,1455.02234 1767.27478,1506.21636 1785.23023,1519.50836 C1785.23023,1519.50836 1688.14525,1630.54942 1690.14978,1649.83493 C1692.13229,1669.12044 1696.74437,1682.75383 1700.05405,1691.40684 C1703.39127,1700.0571 1708.10798,1715.66171 1708.10798,1715.66171 C1708.10798,1715.66171 1679.13586,1719.57663 1656.22415,1722.86659 C1643.54437,1724.68915 1637.23614,1675.64255 1632.95999,1666.46094 C1632.95999,1666.46094 1631.20878,1716.32796 1626.96566,1725.63071 C1622.73632,1734.94722 1607.6913,1720.30345 1603.03791,1720.97796 C1598.37352,1721.64421 1616.92372,1661.79718 1615.96826,1647.85269 C1615.00179,1633.88343 1594.99224,1536.30507 1586.40964,1512.86236 C1583.72775,1505.56388 1632.28539,1473.23139 1639.70326,1455.02234 C1636.28344,1474.97136 1620.33253,1525.50188 1630.30288,1604.62066 C1630.30288,1604.62066 1673.51601,1528.71475 1702.79101,1440.38958" id="Fill-38" fill="#22323C"></path>
                            <path d="M1715.21389,1453.53401 L1715.21389,1488.52875 C1715.21389,1488.52875 1721.45053,1463.46722 1726.62156,1465.08605" id="Fill-40" fill="#E5332A"></path>
                            <path d="M1588.57003,1507.73856 C1579.23848,1529.87353 1529.69235,1540.62992 1523.43369,1543.38303 C1517.15024,1546.12512 1525.55111,1594.61559 1525.55111,1594.61559 C1525.55111,1594.61559 1599.49859,1548.45976 1611.78737,1541.08694 C1624.07891,1533.72788 1588.57003,1507.73856 1588.57003,1507.73856" id="Fill-42" fill="#22323C"></path>
                            <polygon id="Fill-44" fill="#FEFEFE" points="1445.06907 1459.95426 1442.40095 1456.05861 1454.02339 1448.81244 1463.90013 1464.31243 1459.1311 1471.43747"></polygon>
                            <polygon id="Fill-46" fill="#22323C" points="1456.74851 1451.53911 1523.43231 1543.38275 1525.64611 1592.69365 1444.28901 1459.99666 1450.95519 1455.48707 1459.79111 1464.04648 1453.01479 1454.76025"></polygon>
                            <path d="M1783.53739,1519.18102 C1783.05553,1543.1826 1823.78226,1573.00701 1828.36405,1578.0507 C1832.97062,1583.09164 1805.66711,1624.02758 1805.66711,1624.02758 C1805.66711,1624.02758 1757.08194,1551.99805 1748.88483,1540.29735 C1740.68497,1528.61316 1783.53739,1519.18102 1783.53739,1519.18102" id="Fill-48" fill="#22323C"></path>
                            <polygon id="Fill-50" fill="#FEFEFE" points="1933.50791 1533.40109 1937.51423 1530.91779 1929.87607 1519.60252 1914.60252 1529.78901 1916.05085 1538.22453"></polygon>
                            <polygon id="Fill-52" fill="#22323C" points="1926.29077 1520.99587 1828.36598 1578.05125 1806.35741 1622.23035 1934.19876 1533.75652 1929.96116 1526.94258 1918.4461 1531.20163 1928.38066 1525.44764"></polygon>
                            <path d="M1666.18101,1331.76411 C1652.65867,1331.76411 1641.69706,1342.71046 1641.69706,1356.24473 C1641.69706,1377.19587 1652.65867,1394.21007 1666.18101,1394.21007 C1679.71437,1394.21007 1690.68148,1377.19587 1690.68148,1356.24473 C1690.68148,1342.71046 1679.71437,1331.76411 1666.18101,1331.76411" id="Fill-54" fill="#F5AB82"></path>
                            <path d="M1678.83243,1340.68087 C1679.71354,1339.13362 1681.5033,1338.21684 1683.67855,1338.43433 C1683.67855,1338.43433 1687.87761,1336.28416 1690.68341,1338.77296 C1697.11279,1344.54898 1690.90093,1348.07571 1690.60906,1359.03583 C1690.31995,1369.99319 1688.33744,1342.47039 1685.91438,1341.74632 C1679.06097,1339.64295 1678.83243,1340.68087 1678.83243,1340.68087" id="Fill-56" fill="#432918"></path>
                            <path d="M1660.31912,1332.4645 C1660.31912,1332.4645 1661.72065,1330.99158 1660.31912,1332.4645 C1660.31912,1332.4645 1646.78577,1329.34798 1640.92361,1335.08821 C1634.6264,1341.26067 1641.54039,1348.07461 1641.84327,1359.03473 C1642.1434,1369.99485 1644.24706,1342.46929 1646.82156,1341.74522 C1654.09626,1339.64184 1660.31912,1332.4645 1660.31912,1332.4645" id="Fill-58" fill="#432918"></path>
                            <path d="M1678.83243,1339.59477 C1672.36725,1346.43348 1652.36872,1317.82045 1651.68035,1339.59477 C1651.68035,1339.59477 1648.95991,1324.53803 1654.4476,1316.87888 C1659.92152,1309.21699 1673.68617,1324.53803 1682.69831,1338.16866 C1682.69831,1338.16866 1680.45147,1337.87683 1678.83243,1339.59477" id="Fill-60" fill="#432918"></path>
                            <g id="Group-65" transform="translate(1659.334872, 1339.022946)">
                                <path d="M7.52239159,0.993871522 C4.05575939,9.01642447 -1.66046654,29.0617944 1.59965461,30.5594845 C10.0363195,34.4523773 11.4736364,23.9878187 11.4736364,23.9878187" id="Fill-62" fill="#F5AB82"></path>
                                <path d="M7.52239159,0.993871522 C4.05575939,9.01642447 -1.66046654,29.0617944 1.59965461,30.5594845 C10.0363195,34.4523773 11.4736364,23.9878187 11.4736364,23.9878187" id="Stroke-64" stroke="#211204" stroke-width="0.05"></path>
                            </g>
                            <path d="M1673.20596,1346.61464 C1674.99848,1341.03409 1686.57411,1342.45469 1686.19964,1351.17103 C1685.82517,1359.89012 1670.91231,1353.75895 1673.20596,1346.61464" id="Fill-66" fill="#FEFEFE"></path>
                            <path d="M1647.40943,1353.0079 C1643.87396,1348.33313 1651.6966,1339.68011 1658.61059,1345.00187 C1665.52733,1350.32362 1651.93615,1358.99316 1647.40943,1353.0079" id="Fill-68" fill="#FEFEFE"></path>
                            <path d="M1652.44197,1345.63316 C1653.07527,1343.64817 1657.18897,1344.15474 1657.05405,1347.25198 C1656.92463,1350.34923 1651.62418,1348.16877 1652.44197,1345.63316" id="Fill-70" fill="#432918"></path>
                            <path d="M1678.91861,1345.63316 C1679.55191,1343.64817 1683.66561,1344.15474 1683.53069,1347.25198 C1683.40128,1350.34923 1678.10083,1348.16877 1678.91861,1345.63316" id="Fill-72" fill="#432918"></path>
                            <path d="M1660.94306,1383.74937 C1656.92023,1380.32726 1656.45764,1372.27717 1663.79842,1373.42522 C1671.14196,1374.57326 1675.72925,1367.919 1676.64892,1374.80177 C1677.56583,1381.68454 1667.95342,1389.71535 1660.94306,1383.74937" id="Fill-74" fill="#432918"></path>
                            <polygon id="Fill-76" fill="#E5332A" points="1651.77755 1446.62427 1640.2625 1442.6185 1641.86502 1455.00748 1653.11024 1448.81299 1666.42056 1452.48288 1666.42056 1442.6185"></polygon>
                            <path d="M1490.70168,1351.98375 C1488.77149,1340.685 1490.14823,1319.81369 1496.94382,1310.22462 L1472.63334,1287.05173 C1465.84051,1296.6408 1464.46377,1317.5121 1466.39396,1328.81085 L1490.70168,1351.98375 Z" id="Fill-78" fill="#E20714"></path>
                            <path d="M1490.70168,1351.98375 C1488.77149,1340.685 1490.14823,1319.81369 1496.94382,1310.22462 L1472.63334,1287.05173 C1465.84051,1296.6408 1464.46377,1317.5121 1466.39396,1328.81085 L1490.70168,1351.98375 Z" id="Stroke-80" stroke="#FEFEFE" stroke-width="3"></path>
                            <path d="M1810.39731,1398.25136 C1821.6976,1396.32143 1842.57449,1397.69798 1852.16211,1404.4899 L1862.06638,1382.45128 C1852.47325,1375.65936 1831.59636,1374.28281 1820.29883,1376.21274 L1810.39731,1398.25136 Z" id="Fill-82" fill="#E20714"></path>
                            <path d="M1810.39731,1398.25136 C1821.6976,1396.32143 1842.57449,1397.69798 1852.16211,1404.4899 L1862.06638,1382.45128 C1852.47325,1375.65936 1831.59636,1374.28281 1820.29883,1376.21274 L1810.39731,1398.25136 Z" id="Stroke-84" stroke="#FEFEFE" stroke-width="3"></path>
                            <path d="M1565.07926,1314.28298 C1565.07926,1314.28298 1573.51317,1266.6267 1570.07958,1256.74855 C1566.64599,1246.87041 1617.34858,1273.091 1617.34858,1273.091 C1617.34858,1273.091 1614.90074,1320.0177 1608.21253,1331.91663 L1565.07926,1314.28298 Z" id="Fill-86" fill="#E20714"></path>
                            <path d="M1565.07926,1314.28298 C1565.07926,1314.28298 1573.51317,1266.6267 1570.07958,1256.74855 C1566.64599,1246.87041 1617.34858,1273.091 1617.34858,1273.091 C1617.34858,1273.091 1614.90074,1320.0177 1608.21253,1331.91663 L1565.07926,1314.28298 Z" id="Stroke-88" stroke="#FEFEFE" stroke-width="3"></path>
                            <path d="M1547.70617,1141.10211 C1556.24471,1155.33842 1580.32665,1168.66896 1593.20193,1172.57287 L1597.66808,1157.85751 C1579.82827,1150.44064 1569.61561,1141.72155 1558.82748,1129.61064 L1547.70617,1141.10211 Z" id="Fill-90" fill="#E20714"></path>
                            <path d="M1547.70617,1141.10211 C1556.24471,1155.33842 1580.32665,1168.66896 1593.20193,1172.57287 L1597.66808,1157.85751 C1579.82827,1150.44064 1569.61561,1141.72155 1558.82748,1129.61064 L1547.70617,1141.10211 Z" id="Stroke-92" stroke="#FEFEFE" stroke-width="3"></path>
                            <path d="M1620.42064,1158.33187 L1623.89553,1178.66907 C1612.92291,1191.00574 1611.47733,1218.28628 1609.53613,1227.33574 L1606.06124,1207.00129 C1607.67202,1185.79687 1610.85229,1168.68631 1620.42064,1158.33187" id="Fill-94" fill="#E20714"></path>
                            <path d="M1620.42064,1158.33187 L1623.89553,1178.66907 C1612.92291,1191.00574 1611.47733,1218.28628 1609.53613,1227.33574 L1606.06124,1207.00129 C1607.67202,1185.79687 1610.85229,1168.68631 1620.42064,1158.33187 Z" id="Stroke-96" stroke="#FEFEFE" stroke-width="3"></path>
                            <path d="M1705.0362,1088.6535 C1713.76198,1102.27862 1723.88928,1113.91876 1724.66301,1118.43936 L1743.1251,1093.77703 C1743.1251,1093.77703 1731.0621,1070.83539 1720.22165,1068.62189 L1705.0362,1088.6535 Z" id="Fill-98" fill="#E20714"></path>
                            <path d="M1705.0362,1088.6535 C1713.76198,1102.27862 1723.88928,1113.91876 1724.66301,1118.43936 L1743.1251,1093.77703 C1743.1251,1093.77703 1731.0621,1070.83539 1720.22165,1068.62189 L1705.0362,1088.6535 Z" id="Stroke-100" stroke="#FEFEFE" stroke-width="3"></path>
                            <path d="M1650.7304,1138.33165 C1657.77931,1145.55856 1666.76117,1153.90598 1670.03781,1159.45074 L1676.68471,1160.93191 C1676.68471,1160.93191 1656.87893,1133.5027 1649.52438,1131.26994 L1650.7304,1138.33165 Z" id="Fill-102" fill="#FEFEFE"></path>
                            <path d="M1650.7304,1138.33165 C1657.77931,1145.55856 1666.76117,1153.90598 1670.03781,1159.45074 L1676.68471,1160.93191 C1676.68471,1160.93191 1656.87893,1133.5027 1649.52438,1131.26994 L1650.7304,1138.33165 Z" id="Stroke-104" stroke="#FEFEFE" stroke-width="3"></path>
                            <path d="M1733.12501,1161.17666 C1735.31403,1167.1977 1736.78163,1168.98172 1741.80673,1171.17319 L1739.39468,1197.89209 C1731.66566,1196.88721 1729.01957,1195.01509 1727.87687,1191.72238 C1726.73143,1188.42966 1733.12501,1161.17666 1733.12501,1161.17666" id="Fill-106" fill="#E20714"></path>
                            <path d="M1733.12501,1161.17666 C1735.31403,1167.1977 1736.78163,1168.98172 1741.80673,1171.17319 L1739.39468,1197.89209 C1731.66566,1196.88721 1729.01957,1195.01509 1727.87687,1191.72238 C1726.73143,1188.42966 1733.12501,1161.17666 1733.12501,1161.17666 Z" id="Stroke-108" stroke="#FEFEFE" stroke-width="3"></path>
                            <path d="M1738.96542,1324.70129 L1744.79178,1321.38104 C1744.79178,1321.38104 1739.25178,1326.3972 1747.05514,1320.9956 C1754.853,1315.59401 1767.23816,1303.01506 1765.87243,1291.61996 L1756.66204,1295.55965 C1756.11685,1302.58558 1745.81332,1317.13575 1738.96542,1324.70129" id="Fill-110" fill="#FEFEFE"></path>
                            <path d="M1738.96542,1324.70129 L1744.79178,1321.38104 C1744.79178,1321.38104 1739.25178,1326.3972 1747.05514,1320.9956 C1754.853,1315.59401 1767.23816,1303.01506 1765.87243,1291.61996 L1756.66204,1295.55965 C1756.11685,1302.58558 1745.81332,1317.13575 1738.96542,1324.70129 Z" id="Stroke-112" stroke="#FEFEFE" stroke-width="3"></path>
                            <path d="M1777.87182,1276.77878 C1774.07202,1291.96492 1757.61447,1304.65674 1756.2212,1306.64173 C1754.82244,1308.62121 1769.05793,1310.25931 1769.05793,1310.25931 C1769.05793,1310.25931 1791.01969,1289.06865 1788.81691,1279.56217 L1777.87182,1276.77878 Z" id="Fill-114" fill="#E20714"></path>
                            <path d="M1777.87182,1276.77878 C1774.07202,1291.96492 1757.61447,1304.65674 1756.2212,1306.64173 C1754.82244,1308.62121 1769.05793,1310.25931 1769.05793,1310.25931 C1769.05793,1310.25931 1791.01969,1289.06865 1788.81691,1279.56217 L1777.87182,1276.77878 Z" id="Stroke-116" stroke="#FEFEFE" stroke-width="3"></path>
                            <path d="M1775.41407,1201.04412 L1771.6831,1213.30921 C1777.99408,1212.8109 1794.81784,1202.37938 1800.57813,1181.63197 C1800.57813,1181.63197 1792.75824,1200.40815 1775.41407,1201.04412" id="Fill-118" fill="#FEFEFE"></path>
                            <path d="M1775.41407,1201.04412 L1771.6831,1213.30921 C1777.99408,1212.8109 1794.81784,1202.37938 1800.57813,1181.63197 C1800.57813,1181.63197 1792.75824,1200.40815 1775.41407,1201.04412 Z" id="Stroke-120" stroke="#FEFEFE" stroke-width="3"></path>
                            <path d="M1988.4404,1353.89248 C1988.37432,1360.29896 1991.19113,1369.99264 1993.27276,1371.96112 L2000.17299,1350.09319 C1998.09135,1348.12196 1995.26904,1338.43103 1995.34338,1332.02455 L1988.4404,1353.89248 Z" id="Fill-122" fill="#FEFEFE"></path>
                            <path d="M1988.4404,1353.89248 C1988.37432,1360.29896 1991.19113,1369.99264 1993.27276,1371.96112 L2000.17299,1350.09319 C1998.09135,1348.12196 1995.26904,1338.43103 1995.34338,1332.02455 L1988.4404,1353.89248 Z" id="Stroke-124" stroke="#FEFEFE" stroke-width="3"></path>
                            <path d="M1962.65626,1237.37632 C1969.18752,1244.9804 1982.84753,1243.22667 1985.20176,1243.40838 L1983.85531,1209.62776 C1981.50108,1209.44881 1967.84657,1211.19978 1961.31256,1203.5957 L1962.65626,1237.37632 Z" id="Fill-126" fill="#E20714"></path>
                            <path d="M1962.65626,1237.37632 C1969.18752,1244.9804 1982.84753,1243.22667 1985.20176,1243.40838 L1983.85531,1209.62776 C1981.50108,1209.44881 1967.84657,1211.19978 1961.31256,1203.5957 L1962.65626,1237.37632 Z" id="Stroke-128" stroke="#FEFEFE" stroke-width="3"></path>
                            <polygon id="Fill-130" fill="#E20714" points="1881.50375 1487.66015 1838.91016 1469.82828 1844.00134 1435.8219 1886.59769 1453.65102"></polygon>
                            <polygon id="Stroke-132" stroke="#FEFEFE" stroke-width="3" points="1881.50375 1487.66015 1838.91016 1469.82828 1844.00134 1435.8219 1886.59769 1453.65102"></polygon>
                            <path d="M1878.44381,1478.3362 C1870.79464,1473.54029 1866.62036,1455.93968 1863.61356,1445.98995 L1905.00388,1418.67638 C1908.01619,1428.63161 1912.18771,1446.23223 1919.83688,1451.02814 L1878.44381,1478.3362 Z" id="Fill-134" fill="#FEFEFE"></path>
                            <path d="M1878.44381,1478.3362 C1870.79464,1473.54029 1866.62036,1455.93968 1863.61356,1445.98995 L1905.00388,1418.67638 C1908.01619,1428.63161 1912.18771,1446.23223 1919.83688,1451.02814 L1878.44381,1478.3362 Z" id="Stroke-136" stroke="#FEFEFE" stroke-width="3"></path>
                            <path d="M1938.22435,1077.88417 C1947.87805,1080.58772 1977.84419,1098.97021 1983.05652,1107.36443 C1994.63766,1109.97163 2035.69481,1090.51817 2017.40895,1038.077 C2017.40895,1038.077 1961.34258,1031.22727 1955.83837,1023.9921" id="Fill-138" fill="#192229"></path>
                            <path d="M1928.50649,1103.86 C1945.04665,1102.19162 1976.54096,1073.05825 1971.18544,1026.88865 C1965.82992,980.710789 1958.44509,985.490182 1927.75755,1016.17631 C1897.0645,1046.86244 1898.71383,1106.8719 1928.50649,1103.86" id="Fill-140" fill="#22323C"></path>
                            <path d="M1927.75617,1016.17603 C1897.06587,1046.86216 1898.71245,1106.87163 1928.50512,1103.85973 C1945.04527,1102.19135 1976.54234,1073.06072 1971.18407,1026.88837" id="Fill-142" fill="#22323C"></path>
                            <path d="M1935.67518,1076.01178 C1943.56665,1075.21613 1958.60341,1061.30468 1956.04818,1039.26056 C1953.49295,1017.21643 1949.96299,1019.49601 1935.31172,1034.14804 C1920.6632,1048.79732 1921.44519,1077.4489 1935.67518,1076.01178" id="Fill-144" fill="#192229"></path>
                            <g id="Group-148" transform="translate(1923.669019, 1022.415675)">
                                <mask id="mask-4" fill="white">
                                    <use xlink:href="#path-3"></use>
                                </mask>
                                <g id="Clip-147"></g>
                                <path d="M12.0058842,53.5947283 C19.8973599,52.7990804 34.934118,38.8903854 32.3816414,16.8462599 C29.8236578,-5.19786546 26.296449,-2.91829311 11.6424248,11.7309877 C-3.00609256,26.3830216 -2.22410404,55.0346031 12.0058842,53.5947283" id="Fill-146" mask="url(#mask-4)"></path>
                            </g>
                            <polygon id="Fill-151" fill="#FEFEFE" points="1326.58401 1218.14912 1335.61543 1213.50738 1345.94924 1233.60781 1336.91783 1238.24955"></polygon>
                            <path d="M1326.58401,1218.14912 C1325.3477,1215.74565 1326.372,1212.76404 1328.86665,1211.48385 C1331.35855,1210.20365 1334.38187,1211.10116 1335.61543,1213.50738 C1336.84899,1215.90533 1335.82745,1218.89246 1333.3328,1220.17265 C1330.8409,1221.4556 1327.81757,1220.54983 1326.58401,1218.14912" id="Fill-153" fill="#FEFEFE"></path>
                            <polygon id="Fill-155" fill="#192229" points="1336.91755 1238.249 1345.94897 1233.60726 1414.35644 1366.66215 1405.32503 1371.30389"></polygon>
                            <path d="M1405.32448,1371.30279 C1404.36626,1369.44169 1405.61084,1366.89231 1408.10825,1365.60937 C1410.60015,1364.32917 1413.40043,1364.7972 1414.35589,1366.66105 C1415.3141,1368.52491 1414.06953,1371.07428 1411.57488,1372.35448 C1409.07747,1373.63743 1406.28269,1373.16389 1405.32448,1371.30279" id="Fill-157" fill="#22323C"></path>
                            <path d="M1336.91755,1238.249 C1335.95934,1236.38514 1337.20667,1233.83852 1339.70132,1232.55557 C1342.19322,1231.27263 1344.99351,1231.74341 1345.94897,1233.60726 C1346.90993,1235.46836 1345.66261,1238.01774 1343.16795,1239.30068 C1340.6733,1240.58088 1337.87576,1240.1101 1336.91755,1238.249" id="Fill-159" fill="#192229"></path>
                        </g>
                        <path d="M1710.71214,1522.63134 C1710.87465,1522.66384 1711.00135,1522.69044 1711.09327,1522.71035 C1711.18439,1522.73038 1711.26677,1522.75269 1711.33918,1522.77762 C1711.41158,1522.80255 1711.43909,1522.82375 1711.42184,1522.8409 C1711.33002,1522.97125 1711.24452,1523.10416 1711.16354,1523.23825 C1711.08198,1523.37289 1710.99592,1523.50523 1710.90479,1523.63582 C1710.69409,1523.94549 1710.48305,1524.25505 1710.27235,1524.56472 C1710.06132,1524.87428 1709.85569,1525.18569 1709.65514,1525.49886 C1709.37056,1525.92198 1709.08773,1526.34002 1708.80677,1526.75266 C1708.52569,1527.16562 1708.24759,1527.5853 1707.97316,1528.01191 L1706.15436,1530.72119 C1705.87328,1531.13416 1705.59562,1531.5449 1705.32135,1531.95454 C1705.04743,1532.3643 1704.76988,1532.7747 1704.48834,1533.18789 C1704.29175,1533.49069 1704.09222,1533.7921 1703.88997,1534.0937 C1703.68796,1534.39464 1703.48358,1534.69475 1703.27615,1534.99382 C1703.19855,1535.11809 1703.12292,1535.23661 1703.04892,1535.3504 C1702.97505,1535.46385 1702.89457,1535.58108 1702.80625,1535.70128 C1702.71253,1535.77233 1702.59794,1535.80288 1702.46294,1535.79159 C1702.40385,1535.79395 1702.34227,1535.79584 1702.27833,1535.7969 C1702.21439,1535.79797 1702.14807,1535.79822 1702.07826,1535.79764 C1701.78741,1535.80157 1701.49911,1535.79804 1701.2135,1535.78674 C1700.92801,1535.7751 1700.63651,1535.76441 1700.33888,1535.75503 C1700.04442,1535.73425 1699.7532,1535.70625 1699.46421,1535.6707 C1699.17533,1535.63481 1698.88739,1535.59621 1698.6006,1535.55536 C1698.42049,1535.53989 1698.2167,1535.49319 1697.98867,1535.41467 C1697.95754,1535.40395 1697.92495,1535.381 1697.89045,1535.34603 C1697.90997,1535.19041 1697.92612,1535.03362 1697.93978,1534.87635 C1697.95321,1534.71863 1697.9698,1534.56275 1697.98865,1534.40689 C1698.02703,1534.02615 1698.0605,1533.64978 1698.09042,1533.27824 C1698.11989,1532.90579 1698.1523,1532.53472 1698.1874,1532.16459 C1698.23346,1531.65934 1698.28163,1531.15785 1698.33181,1530.65932 C1698.38164,1530.1618 1698.4296,1529.65986 1698.47633,1529.15484 C1698.46991,1529.10646 1698.47149,1529.06008 1698.48029,1529.01694 C1698.48955,1528.97358 1698.49598,1528.92962 1698.50016,1528.88452 C1698.2925,1529.18426 1698.08685,1529.48697 1697.88354,1529.79275 C1697.67899,1530.09886 1697.47193,1530.40676 1697.26123,1530.71643 C1697.06384,1531.01933 1696.86513,1531.31837 1696.66542,1531.6148 C1696.46482,1531.91054 1696.26611,1532.20958 1696.06951,1532.51237 C1695.98175,1532.63315 1695.90071,1532.74981 1695.82705,1532.86371 C1695.75317,1532.97716 1695.67743,1533.09602 1695.60028,1533.22007 C1695.48559,1533.28389 1695.37032,1533.31421 1695.2563,1533.31015 C1695.18706,1533.30901 1695.1204,1533.30915 1695.05646,1533.31021 C1694.99218,1533.31116 1694.93094,1533.31316 1694.87195,1533.31631 C1694.5811,1533.32023 1694.2901,1533.31578 1693.99941,1533.30273 C1693.7085,1533.28922 1693.4143,1533.27761 1693.11667,1533.26822 C1692.82255,1533.24756 1692.5337,1533.22038 1692.24944,1533.18646 C1691.96632,1533.15255 1691.68108,1533.11488 1691.39395,1533.07392 C1691.20369,1533.05495 1690.99449,1533.00638 1690.7668,1532.92798 C1690.74582,1532.92076 1690.71865,1532.89967 1690.68414,1532.8647 C1690.70299,1532.70884 1690.71645,1532.55983 1690.72509,1532.41825 C1690.73305,1532.27643 1690.74719,1532.12765 1690.76593,1531.97213 C1690.80036,1531.60176 1690.83465,1531.234 1690.86756,1530.86916 C1690.90058,1530.50399 1690.9343,1530.13679 1690.96907,1529.76654 C1691.0157,1529.26073 1691.06046,1528.76147 1691.10382,1528.26626 C1691.14672,1527.77128 1691.19159,1527.27168 1691.23799,1526.76655 C1691.28507,1526.22646 1691.33429,1525.68786 1691.38644,1525.14952 C1691.43837,1524.61185 1691.48979,1524.06796 1691.54036,1523.51772 C1691.58293,1523.02262 1691.62524,1522.53046 1691.66627,1522.04089 C1691.70709,1521.55087 1691.75115,1521.05364 1691.79788,1520.54862 C1691.82904,1520.18886 1691.86418,1519.82744 1691.90194,1519.4639 C1691.94071,1519.10071 1691.97471,1518.73928 1692.00633,1518.37929 C1692.02145,1518.23426 1692.0354,1518.09374 1692.04702,1517.95886 C1692.05865,1517.82398 1692.07203,1517.68402 1692.08727,1517.53865 C1692.18167,1517.46671 1692.29603,1517.43683 1692.43125,1517.44858 L1692.80551,1517.42115 C1693.10663,1517.42038 1693.40021,1517.42611 1693.68583,1517.43741 C1693.97132,1517.44905 1694.26108,1517.46481 1694.55497,1517.48502 C1694.84921,1517.50535 1695.13945,1517.5296 1695.42477,1517.55821 C1695.71032,1517.58728 1695.99649,1517.62224 1696.28362,1517.66321 C1696.3937,1517.67765 1696.5001,1517.69725 1696.6025,1517.72078 C1696.70411,1517.74442 1696.80713,1517.77383 1696.91066,1517.80948 C1696.94471,1517.84467 1696.972,1517.86542 1696.99298,1517.87264 C1696.9844,1518.03166 1696.97237,1518.18419 1696.95725,1518.32922 C1696.94201,1518.47459 1696.92502,1518.62504 1696.90651,1518.78101 C1696.8749,1519.141 1696.84436,1519.50665 1696.81466,1519.87864 C1696.78497,1520.25064 1696.75257,1520.6217 1696.71813,1520.99207 C1696.6714,1521.49708 1696.62497,1521.9935 1696.57886,1522.48132 C1696.53229,1522.96936 1696.48553,1523.46566 1696.43947,1523.97091 C1696.44183,1524.03 1696.43813,1524.0836 1696.42759,1524.13182 C1696.41658,1524.18026 1696.41243,1524.23408 1696.41536,1524.29261 C1696.6123,1523.98993 1696.81652,1523.6837 1697.02721,1523.37403 C1697.23825,1523.06448 1697.44342,1522.75328 1697.64397,1522.44011 C1697.85106,1522.14093 1698.05577,1521.84093 1698.25824,1521.53978 C1698.46003,1521.23839 1698.65934,1520.93653 1698.85661,1520.63397 C1698.93061,1520.52018 1699.00767,1520.40518 1699.08883,1520.28818 C1699.16931,1520.17095 1699.24671,1520.05607 1699.32071,1519.94228 C1699.41477,1519.87023 1699.52947,1519.84046 1699.66435,1519.85209 C1699.72322,1519.84928 1699.78843,1519.84562 1699.85932,1519.84089 C1699.93031,1519.83695 1699.99484,1519.83306 1700.05417,1519.83002 C1700.34502,1519.8261 1700.63298,1519.82951 1700.91881,1519.84127 C1701.20476,1519.85269 1701.49451,1519.86844 1701.78863,1519.88911 C1702.08253,1519.90932 1702.37525,1519.93405 1702.66588,1519.96486 C1702.95616,1519.99556 1703.2447,1520.03134 1703.53217,1520.07242 C1703.64292,1520.08709 1703.7491,1520.10624 1703.85116,1520.12966 C1703.95299,1520.15375 1704.0558,1520.18271 1704.15932,1520.21836 C1704.19338,1520.25354 1704.22101,1520.27441 1704.24198,1520.28163 L1704.23662,1520.2972 C1704.21777,1520.45306 1704.20141,1520.60939 1704.18763,1520.767 C1704.17386,1520.9246 1704.16291,1521.0828 1704.15466,1521.24194 C1704.11955,1521.61207 1704.08478,1521.98232 1704.05001,1522.35256 C1704.0149,1522.7227 1703.97839,1523.09802 1703.94001,1523.47876 C1703.89361,1523.98389 1703.84862,1524.48383 1703.80617,1524.97859 C1703.76293,1525.47345 1703.71794,1525.97339 1703.67154,1526.47852 C1703.66409,1526.53424 1703.65735,1526.58679 1703.65188,1526.63675 C1703.64629,1526.68705 1703.63943,1526.73994 1703.63221,1526.79498 C1703.82915,1526.4923 1704.02752,1526.19314 1704.22824,1525.89706 C1704.42817,1525.60109 1704.6323,1525.30392 1704.8395,1525.00439 C1705.0361,1524.7016 1705.23574,1524.39985 1705.43821,1524.0987 C1705.63988,1523.79765 1705.83964,1523.49557 1706.03658,1523.19289 C1706.12061,1523.08294 1706.2005,1522.96853 1706.27612,1522.85001 C1706.35187,1522.73115 1706.43175,1522.61674 1706.51612,1522.5069 C1706.61019,1522.43485 1706.72454,1522.40497 1706.85943,1522.4166 C1706.91841,1522.41344 1706.9808,1522.40919 1707.04695,1522.40283 C1707.11253,1522.39703 1707.18023,1522.39385 1707.24958,1522.39464 C1707.54056,1522.39038 1707.82873,1522.39424 1708.11434,1522.40555 C1708.39984,1522.41719 1708.68993,1522.43306 1708.98383,1522.45328 C1709.27806,1522.4736 1709.56796,1522.49774 1709.85363,1522.52647 C1710.13884,1522.55542 1710.42501,1522.59038 1710.71214,1522.63134 Z" id="Fill-1" fill="#E30613"></path>
                    </g>
                </g>
            </g>
        </g>
    </g>
</svg>