<svg width="697" height="805" viewBox="0 0 697 805" xmlns="http://www.w3.org/2000/svg" xmlns:xlink="http://www.w3.org/1999/xlink"><defs><path id="a" d="M773.965 1.002h2577.07v2692.55H0V1h773.965v2230.016H2735.13V1.002H773.966z"/><path d="M26.187.508c-3.03 0-7.502 4.183-14.545 11.223-14.648 14.66-13.866 43.31.364 41.87l20.376-36.75C31.052 5.4 29.462.51 26.187.51z" id="c"/></defs><g fill="none" fill-rule="evenodd"><g transform="translate(-1326 -992)"><mask id="b" fill="#fff"><use xlink:href="#a"/></mask><path d="M2735.13 2045.4c0 125.438-481.767 185.618-1063.222 185.618-581.456 0-897.943-60.18-897.943-185.617 0-125.43 326.896-2044.39 908.35-2044.39 581.456 0 1052.816 1918.96 1052.816 2044.4" fill="#5EB299" mask="url(#b)"/></g><path d="M124.646 444.378l-3.343-6.478-3.758-7.898-2.3-12.32s-5.848 3.342-3.758 10.023c2.087 6.682-.628 10.37-2.715 10.195-2.087-.17-22.14-8.975-26.943-6.872-4.81 2.107-2.09 3.75 1.46 4.912s16.29 5.36 15.24 6.81c-1.05 1.455-14.4-4.833-19.3-3.36-4.9 1.473 7.6 5.856 11.15 9.616-3.56-1.043-8.15.457-7.11 3.36 1.04 2.904 13.99.252 16.08 2.623-1.67 1.74.21 4.63 3.55 2.66 3.34-1.97 15.45 5.37 15.87 7.55 3.75-.12 9.39-6.24 5.84-20.83m484.034 75.46s1.68-5.6 4.2-8.96c2.52-3.36 14.564-20.16 13.443-25.2-1.12-5.05 4.76-2.52 4.2 5.31-.56 7.84-8.12 16.24-5.88 17.92 2.24 1.68 10.36 4.48 13.44 3.36 3.083-1.12 15.686-6.44 20.73-7.28 5.04-.84 8.96 3.64 0 7l-8.96 3.36-9.8 4.48s22.19-8.43 21.56 0c-.204 2.63-9.246 2.52-10.923 3.92-1.682 1.4 4.48 3.08-.56 4.2-5.04 1.12-13.72.84-17.36 2.24-3.64 1.39-24.085 9.52-24.085 9.52s-7-12.88 0-19.88" fill="#EA956F"/><path d="M318.9 367.024c.94 4.204.253 7.926-1.51 8.314-1.778.397-3.978-2.684-4.91-6.902-.927-4.204-.25-7.937 1.526-8.325 1.765-.39 3.963 2.7 4.893 6.92m48.27 1.6c-1.16 4.15-3.53 7.11-5.27 6.62-1.76-.48-2.23-4.25-1.07-8.4 1.16-4.13 3.53-7.1 5.27-6.62 1.76.5 2.22 4.26 1.06 8.41" fill="#F5AB82"/><path d="M400.62 473.087L389.6 496.53s7.758-27.78 11.02-23.443c64.51 86.018 68.714 464.614 138.974 509.925-102.91 0-45.947 5.944-114.947 37.357-68.985 31.41-193.966-37.53-202.653-55.32 19.71-5.58 115.396-453.99 79.07-478.77" fill="#E5332A"/><path d="M327.142 390.863c-6.443 48.802-13.44 72.16-13.44 72.16s45.235 41.984 78.632 13.11c-30.795-15.2-35.636-76.787-28.328-116.214M288.81 702.95c-10.093 83.807 10.633 285.882 0 365.675 6.957 12.524-3.85 33.635-2.857 31.248h9.74S352.64 714.74 347.32 689.56l-58.51 13.39z" fill="#F5AB82"/><path d="M287.01 702.953c-10.093 83.807 7.042 295.9-3.592 375.697 0 0 6.644-15.963 0 0l21.86 3.85s45.562-367.756 40.242-392.936l-58.51 13.39z" fill="#192229"/><path d="M335.965 796.693c26.403 84.677 55.582 206.254 60.827 264.625.485 5.16 7.322 21.28 6.647 35.235h6.86s-39.11-373.666-35.12-390.94c0 0-57.21-39.294-70.39-39.343-13.16-.072-6.08 71.916-6.08 71.916s23.26 13.69 37.24 58.507" fill="#F5AB82"/><path d="M332.23 796.693c26.403 84.677 54.13 223.816 59.376 282.187.484 5.16.677-13.955 0 0l21.014-2.69s-39.804-338.397-35.814-355.673c0 0-62.56-54.198-75.743-54.247-13.162-.072-6.077 71.916-6.077 71.916s23.262 13.69 37.244 58.507" fill="#22323C"/><path fill="#FEFEFE" d="M313.703 463.023l3.855-20.7 7.346 10.393 43.282-21.607 8.605 17.28 16.08 16.5-6.77 44 1.33 5.31-86.46 109.03-13.95-110.37L295 491.6"/><path fill="#E5332A" d="M298.26 482.317l-5.172 14.38-.727-8.83"/><path d="M376.79 448.39c13.945 14.632 64.485 65.826 82.44 79.118 0 0-97.085 111.04-95.08 130.327 1.982 19.285 6.594 32.92 9.904 41.572 3.337 8.65 8.054 24.255 8.054 24.255s-28.972 3.915-51.884 7.205c-12.68 1.822-18.988-47.224-23.264-56.406 0 0-1.75 49.87-5.994 59.17-4.23 9.32-19.275-5.32-23.928-4.65-4.664.67 13.886-59.18 12.93-73.12-.966-13.97-20.976-111.55-29.558-134.99-2.682-7.3 45.875-39.63 53.293-57.84-3.42 19.95-19.37 70.48-9.4 149.6 0 0 43.213-75.9 72.488-164.23" fill="#22323C"/><path d="M389.214 461.534v34.995s6.237-25.07 11.408-23.45" fill="#E5332A"/><path d="M262.57 515.74c-9.332 22.134-58.878 32.89-65.136 35.643-6.284 2.742 2.117 51.233 2.117 51.233s73.95-46.156 86.24-53.53c12.29-7.358-23.21-33.347-23.21-33.347" fill="#22323C"/><path fill="#FEFEFE" d="M119.07 467.954l-2.67-3.895 11.623-7.25 9.877 15.5-4.77 7.12"/><path fill="#22323C" d="M130.75 459.54l66.682 91.843 2.214 49.31-81.357-132.696 6.66-4.51 8.83 8.56-6.78-9.287m330.52 64.42c-.48 24.003 40.24 53.827 44.82 58.87 4.61 5.042-22.7 45.978-22.7 45.978s-48.59-72.03-56.79-83.73c-8.2-11.685 34.654-21.117 34.654-21.117"/><path fill="#FEFEFE" d="M607.508 541.4l4.006-2.482-7.638-11.315-15.273 10.186 1.448 8.43"/><path fill="#22323C" d="M600.29 528.996l-97.924 57.055-22.01 44.18L608.2 541.76l-4.24-6.814-11.514 4.26 9.935-5.755"/><path d="M340.18 339.764c-13.52 0-24.483 10.946-24.483 24.48 0 20.952 10.962 37.966 24.484 37.966 13.54 0 24.5-17.014 24.5-37.965 0-13.535-10.96-24.48-24.5-24.48" fill="#F5AB82"/><path d="M352.832 348.68c.882-1.546 2.67-2.463 4.847-2.246 0 0 4.19-2.15 7 .34 6.43 5.775.22 9.302-.08 20.262-.29 10.957-2.28-16.566-4.7-17.29-6.86-2.103-7.08-1.065-7.08-1.065m-18.51-8.21s1.4-1.47 0 0c0 0-13.54-3.11-19.4 2.63-6.3 6.18.61 12.99.92 23.95.3 10.96 2.4-16.56 4.97-17.29 7.27-2.1 13.5-9.28 13.5-9.28" fill="#432918"/><path d="M352.832 347.595c-6.465 6.838-26.463-21.775-27.152 0 0 0-2.72-15.057 2.768-22.716 5.474-7.67 19.238 7.65 28.25 21.29 0 0-2.247-.3-3.866 1.42" fill="#432918"/><path d="M340.857 348.017c-3.466 8.022-9.183 28.068-5.922 29.565 8.436 3.893 9.874-6.57 9.874-6.57" fill="#F5AB82"/><path d="M340.857 348.017c-3.466 8.022-9.183 28.068-5.922 29.565 8.436 3.893 9.874-6.57 9.874-6.57" stroke="#211204" stroke-width=".05"/><path d="M347.206 354.615c1.792-5.58 13.368-4.16 12.994 4.556-.375 8.72-15.288 2.59-12.994-4.55m-25.796 6.39c-3.536-4.67 4.287-13.33 11.2-8 6.917 5.32-6.674 13.99-11.2 8.01" fill="#FEFEFE"/><path d="M326.442 353.633c.633-1.985 4.747-1.478 4.612 1.62-.13 3.096-5.43.916-4.612-1.62m26.478 0c.632-1.985 4.746-1.478 4.61 1.62-.13 3.096-5.43.916-4.61-1.62m-17.977 38.117c-4.023-3.423-4.485-11.473 2.855-10.325 7.344 1.148 11.93-5.506 12.85 1.377.918 6.883-8.695 14.913-15.705 8.947" fill="#432918"/><path fill="#E5332A" d="M325.778 454.624l-11.515-4.005 1.602 12.38 11.245-6.2 13.31 3.67v-9.87"/><path d="M164.702 359.984c-1.93-11.3-.554-32.17 6.242-41.76l-24.31-23.172c-6.793 9.59-8.17 30.46-6.24 41.76l24.308 23.172z" fill="#E20714"/><path d="M164.702 359.984c-1.93-11.3-.554-32.17 6.242-41.76l-24.31-23.172c-6.793 9.59-8.17 30.46-6.24 41.76l24.308 23.172z" stroke="#FEFEFE" stroke-width="3"/><path d="M484.397 406.25c11.3-1.93 32.177-.552 41.765 6.24l9.904-22.04c-9.593-6.79-30.47-8.167-41.767-6.237l-9.91 22.038z" fill="#E20714"/><path d="M484.397 406.25c11.3-1.93 32.177-.552 41.765 6.24l9.904-22.04c-9.593-6.79-30.47-8.167-41.767-6.237l-9.91 22.038z" stroke="#FEFEFE" stroke-width="3"/><path d="M239.08 322.283s8.433-47.656 5-57.534c-3.434-9.88 47.27 16.34 47.27 16.34s-2.45 46.92-9.137 58.82l-43.133-17.63z" fill="#E20714"/><path d="M239.08 322.283s8.433-47.656 5-57.534c-3.434-9.88 47.27 16.34 47.27 16.34s-2.45 46.92-9.137 58.82l-43.133-17.63z" stroke="#FEFEFE" stroke-width="3"/><path d="M221.706 149.102c8.54 14.236 32.62 27.567 45.496 31.47l4.466-14.714c-17.84-7.417-28.052-16.136-38.84-28.247l-11.122 11.5z" fill="#E20714"/><path d="M221.706 149.102c8.54 14.236 32.62 27.567 45.496 31.47l4.466-14.714c-17.84-7.417-28.052-16.136-38.84-28.247l-11.122 11.5z" stroke="#FEFEFE" stroke-width="3"/><path d="M294.42 166.332l3.476 20.337c-10.973 12.33-12.42 39.61-14.36 48.66L280.06 215c1.612-21.203 4.792-38.314 14.36-48.668" fill="#E20714"/><path d="M294.42 166.332l3.476 20.337c-10.973 12.33-12.42 39.61-14.36 48.66L280.06 215c1.612-21.203 4.792-38.314 14.36-48.668z" stroke="#FEFEFE" stroke-width="3"/><path d="M379.036 96.653c8.726 13.626 18.853 25.266 19.627 29.786l18.462-24.67s-12.063-22.94-22.903-25.16l-15.186 20.03z" fill="#E20714"/><path d="M379.036 96.653c8.726 13.626 18.853 25.266 19.627 29.786l18.462-24.67s-12.063-22.94-22.903-25.16l-15.186 20.03z" stroke="#FEFEFE" stroke-width="3"/><path d="M324.73 146.332c7.05 7.227 16.03 15.574 19.308 21.12l6.647 1.48s-19.806-27.43-27.16-29.662l1.205 7.062z" fill="#FEFEFE"/><path d="M324.73 146.332c7.05 7.227 16.03 15.574 19.308 21.12l6.647 1.48s-19.806-27.43-27.16-29.662l1.205 7.062z" stroke="#FEFEFE" stroke-width="3"/><path d="M407.125 169.177c2.19 6.02 3.657 7.805 8.682 9.996l-2.412 26.72c-7.73-1.006-10.375-2.878-11.518-6.17-1.146-3.293 5.248-30.546 5.248-30.546" fill="#E20714"/><path d="M407.125 169.177c2.19 6.02 3.657 7.805 8.682 9.996l-2.412 26.72c-7.73-1.006-10.375-2.878-11.518-6.17-1.146-3.293 5.248-30.546 5.248-30.546z" stroke="#FEFEFE" stroke-width="3"/><path d="M412.965 332.7l5.827-3.32s-5.54 5.017 2.263-.384c7.798-5.402 20.183-17.98 18.817-29.376l-9.21 3.94c-.545 7.026-10.85 21.576-17.697 29.14" fill="#FEFEFE"/><path d="M412.965 332.7l5.827-3.32s-5.54 5.017 2.263-.384c7.798-5.402 20.183-17.98 18.817-29.376l-9.21 3.94c-.545 7.026-10.85 21.576-17.697 29.14z" stroke="#FEFEFE" stroke-width="3"/><path d="M451.872 284.78c-3.8 15.185-20.258 27.877-21.65 29.862-1.4 1.98 12.836 3.617 12.836 3.617s21.962-21.19 19.76-30.7l-10.946-2.79z" fill="#E20714"/><path d="M451.872 284.78c-3.8 15.185-20.258 27.877-21.65 29.862-1.4 1.98 12.836 3.617 12.836 3.617s21.962-21.19 19.76-30.7l-10.946-2.79z" stroke="#FEFEFE" stroke-width="3"/><path d="M449.414 209.044l-3.73 12.265c6.31-.5 23.134-10.93 28.894-31.68 0 0-7.82 18.77-25.164 19.41" fill="#FEFEFE"/><path d="M449.414 209.044l-3.73 12.265c6.31-.5 23.134-10.93 28.894-31.68 0 0-7.82 18.77-25.164 19.41z" stroke="#FEFEFE" stroke-width="3"/><path d="M662.44 361.892c-.066 6.407 2.75 16.1 4.833 18.07l6.9-21.87c-2.082-1.97-4.904-11.66-4.83-18.067l-6.903 21.867z" fill="#FEFEFE"/><path d="M662.44 361.892c-.066 6.407 2.75 16.1 4.833 18.07l6.9-21.87c-2.082-1.97-4.904-11.66-4.83-18.067l-6.903 21.867z" stroke="#FEFEFE" stroke-width="3"/><path d="M636.656 245.376c6.532 7.604 20.192 5.85 22.546 6.032l-1.347-33.78c-2.354-.18-16.008 1.572-22.542-6.032l1.343 33.78z" fill="#E20714"/><path d="M636.656 245.376c6.532 7.604 20.192 5.85 22.546 6.032l-1.347-33.78c-2.354-.18-16.008 1.572-22.542-6.032l1.343 33.78z" stroke="#FEFEFE" stroke-width="3"/><path fill="#E20714" d="M555.504 495.66l-42.594-17.832 5.09-34.006 42.598 17.83"/><path stroke="#FEFEFE" stroke-width="3" d="M555.504 495.66l-42.594-17.832 5.09-34.006 42.598 17.83z"/><path d="M552.444 486.336c-7.65-4.796-11.824-22.396-14.83-32.346l41.39-27.314c3.012 9.956 7.184 27.556 14.833 32.352l-41.393 27.308z" fill="#FEFEFE"/><path d="M552.444 486.336c-7.65-4.796-11.824-22.396-14.83-32.346l41.39-27.314c3.012 9.956 7.184 27.556 14.833 32.352l-41.393 27.308z" stroke="#FEFEFE" stroke-width="3"/><path d="M612.224 85.884c9.654 2.704 39.62 21.086 44.833 29.48 11.58 2.608 52.638-16.846 34.352-69.287 0 0-56.07-6.85-61.58-14.085" fill="#192229"/><path d="M602.506 111.86c16.54-1.668 48.035-30.802 42.68-76.97-5.356-46.18-12.74-41.4-43.428-10.714-30.694 30.686-29.044 90.696.748 87.684" fill="#22323C"/><path d="M601.756 24.176c-30.69 30.686-29.044 90.696.75 87.684 16.54-1.67 48.036-30.8 42.678-76.972" fill="#22323C"/><path d="M609.675 84.012c7.892-.796 22.928-14.707 20.373-36.75-2.555-22.046-6.085-19.766-20.736-5.114-14.65 14.65-13.867 43.3.363 41.864" fill="#192229"/><g transform="translate(597.67 30.416)"><mask id="d" fill="#fff"><use xlink:href="#c"/></mask><path d="M12.006 53.595c7.89-.796 22.928-14.705 20.376-36.75-2.558-22.043-6.086-19.763-20.74-5.114-14.648 14.66-13.866 43.31.364 41.87" mask="url(#d)"/></g><path fill="#FEFEFE" d="M.584 226.15l9.03-4.643 10.335 20.1-9.04 4.643"/><path d="M.584 226.15c-1.236-2.404-.212-5.386 2.283-6.666 2.492-1.28 5.515-.383 6.748 2.023 1.234 2.398.212 5.385-2.282 6.666-2.492 1.283-5.515.377-6.75-2.024" fill="#FEFEFE"/><path fill="#192229" d="M10.918 246.25l9.03-4.643 68.408 133.055-9.03 4.642"/><path d="M79.324 379.303c-.958-1.86.287-4.41 2.784-5.694 2.492-1.28 5.292-.82 6.248 1.05.958 1.86-.286 4.41-2.78 5.69-2.5 1.28-5.293.81-6.252-1.05" fill="#22323C"/><path d="M10.918 246.25c-.96-1.865.29-4.41 2.783-5.694 2.5-1.283 5.3-.813 6.25 1.05.96 1.862-.28 4.412-2.78 5.695-2.49 1.28-5.29.81-6.25-1.05" fill="#192229"/><path d="M384.712 530.63c.163.034.29.06.38.08.092.02.175.043.247.068.07.025.1.046.08.063-.09.13-.18.27-.26.4-.08.14-.17.27-.26.4l-.63.93c-.21.31-.42.62-.62.94l-.85 1.26c-.28.42-.56.83-.84 1.26l-1.82 2.71-.83 1.24c-.28.41-.55.82-.84 1.24l-.6.91c-.21.3-.41.6-.62.9l-.23.358c-.08.115-.16.23-.25.35-.09.073-.21.104-.34.093l-.19.006h-.2c-.29.005-.58 0-.868-.01-.283-.012-.574-.023-.87-.032-.297-.02-.588-.05-.877-.082-.29-.035-.575-.074-.86-.115-.18-.014-.385-.06-.61-.14-.034-.01-.067-.033-.1-.07.02-.154.034-.31.05-.47.01-.155.03-.31.05-.47.035-.38.07-.755.1-1.13.03-.37.06-.74.095-1.11.043-.505.09-1.006.14-1.505.05-.497.1-1 .144-1.504-.01-.05-.008-.096 0-.14.01-.042.016-.086.02-.13-.21.3-.413.6-.616.91-.207.304-.41.61-.625.92-.193.303-.392.6-.592.9-.2.295-.4.594-.594.896-.084.12-.17.237-.24.35-.073.11-.15.23-.226.355-.11.063-.23.093-.34.09h-.2c-.066 0-.127.002-.186.005-.29.005-.58 0-.87-.012l-.885-.03c-.294-.02-.58-.05-.868-.08-.286-.034-.57-.07-.858-.113-.19-.02-.4-.07-.63-.144-.02-.003-.048-.03-.083-.06.02-.155.03-.304.04-.446.01-.146.023-.29.04-.45l.104-1.1.1-1.103c.05-.507.093-1.007.137-1.5l.136-1.5.15-1.62c.053-.535.105-1.08.155-1.63l.13-1.48c.04-.49.083-.98.13-1.49.03-.36.065-.72.103-1.08.04-.364.07-.726.102-1.086.015-.147.03-.287.04-.42l.04-.42c.096-.074.21-.104.345-.09l.376-.03c.3 0 .595.005.88.016.286.01.576.03.87.05.294.02.584.04.87.07.285.03.57.06.86.103.11.01.215.03.32.052.1.02.203.05.31.09.03.032.06.052.08.06-.01.16-.02.31-.037.455-.01.144-.03.294-.05.45l-.09 1.1-.09 1.11-.14 1.49-.14 1.49c0 .057 0 .11-.01.16s-.02.1-.017.16c.2-.303.403-.61.613-.92.21-.31.417-.62.618-.933.21-.3.412-.6.614-.9.203-.3.4-.6.6-.905.074-.114.15-.23.23-.346.08-.114.16-.23.234-.343.095-.07.21-.1.344-.09l.194-.01c.07 0 .13-.01.19-.01.29-.002.58 0 .865.01.283.015.573.03.87.05.29.02.583.046.874.077.29.03.58.065.87.106.11.013.22.032.32.056.1.027.206.056.31.09.03.037.06.057.08.065l-.008.01c-.02.16-.034.31-.05.47-.01.16-.022.32-.03.48l-.11 1.11c-.034.37-.07.745-.11 1.126l-.133 1.5-.136 1.5c-.01.054-.016.107-.02.157l-.02.156c.2-.302.395-.6.595-.897.2-.3.405-.596.61-.896l.6-.903.6-.9c.084-.11.16-.223.24-.34.074-.12.154-.236.24-.346.092-.07.21-.1.34-.09l.19-.01c.067-.003.134-.01.204-.005.29-.006.58 0 .864.01.29.01.58.03.87.05.297.02.587.043.87.07.29.03.57.063.86.104z" fill="#E30613"/></g></svg>