<?xml version="1.0" encoding="UTF-8" standalone="no"?>
<!-- Generator: Adobe Illustrator 16.0.0, SVG Export Plug-In . SVG Version: 6.00 Build 0)  -->

<svg
   xmlns:dc="http://purl.org/dc/elements/1.1/"
   xmlns:cc="http://creativecommons.org/ns#"
   xmlns:rdf="http://www.w3.org/1999/02/22-rdf-syntax-ns#"
   xmlns:svg="http://www.w3.org/2000/svg"
   xmlns="http://www.w3.org/2000/svg"
   xmlns:sodipodi="http://sodipodi.sourceforge.net/DTD/sodipodi-0.dtd"
   xmlns:inkscape="http://www.inkscape.org/namespaces/inkscape"
   version="1.1"
   id="Calque_1"
   x="0px"
   y="0px"
   width="900"
   height="720"
   viewBox="0 0 899.99998 720.00001"
   enable-background="new 0 0 1415.811 863.563"
   xml:space="preserve"
   inkscape:version="0.91 r13725"
   sodipodi:docname="reprise-et-achat-auto-par-affinites.svg"><metadata
     id="metadata401"><rdf:RDF><cc:Work
         rdf:about=""><dc:format>image/svg+xml</dc:format><dc:type
           rdf:resource="http://purl.org/dc/dcmitype/StillImage" /><dc:title></dc:title></cc:Work></rdf:RDF></metadata><defs
     id="defs399" /><sodipodi:namedview
     pagecolor="#ffffff"
     bordercolor="#666666"
     borderopacity="1"
     objecttolerance="10"
     gridtolerance="10"
     guidetolerance="10"
     inkscape:pageopacity="0"
     inkscape:pageshadow="2"
     inkscape:window-width="1633"
     inkscape:window-height="1026"
     id="namedview397"
     showgrid="false"
     inkscape:zoom="0.62729142"
     inkscape:cx="376.7383"
     inkscape:cy="465.21768"
     inkscape:window-x="1967"
     inkscape:window-y="38"
     inkscape:window-maximized="1"
     inkscape:current-layer="Calque_1" /><path
     d="m 98.029109,618.0305 c 26.220001,-15.35 136.772001,1.011 237.122001,-38.598 100.352,-39.604 411.737,-121.757 486.826,-29.972 75.092,91.787 -449.235,118.693 -553.426,131.11 -104.191,12.42 -261.6920011,-9.175 -170.522001,-62.54 z"
     id="path3"
     inkscape:connector-curvature="0"
     style="fill:#ededed" /><path
     d="m 523.57911,538.2265 0,12.201 -9.604,2.759 0,-3.58 c 0,0 -12.232,9.356 -47.167,5.18 25.667,-6.438 33.361,-9.133 46.511,-19.333 l 10.26,2.773 z"
     id="path5"
     inkscape:connector-curvature="0"
     style="fill:#2e1c18" /><path
     d="m 567.85711,533.4245 c -0.959,5.609 -2.959,10.502 -5.096,12.688 l -4.941,31.017 c 4.944,3.249 21.685,-25.144 21.692,-29.67 0.014,-4.343 -0.946,-9.364 -0.716,-13.182 l -10.939,-0.853 z"
     id="path7"
     inkscape:connector-curvature="0"
     style="fill:#2e1c18" /><path
     d="m 464.07011,248.7925 68.292,10.46 -1.13,-11.714 -68.313,-5.227 c -7.463,0.045 -12.075,-4.092 -16.951,-3.97 -4.875,0.121 -13.222,6.24 -1.847,5.337 4.424,-0.35 -3.443,4.89 -11.946,3.675 -8.503,-1.213 -14.895,-2.39 -11.018,1.595 3.876,3.982 3.017,9.555 9.348,10.04 6.332,0.484 17.568,-9.372 33.565,-10.196 z"
     id="path9"
     inkscape:connector-curvature="0"
     style="fill:#a37158" /><path
     d="m 519.45711,125.3115 c 0.056,2.084 0,3.474 0,3.474 0,0 12.533,0.44 15.015,-4.697 l -7.814,0.88 -7.201,0.343 z"
     id="path11"
     inkscape:connector-curvature="0"
     style="fill:#ffffff" /><path
     d="m 519.45711,131.0995 c 0.056,2.085 0,3.476 0,3.476 0,0 14.396,-2.998 16.876,-8.135 l -9.676,4.317 -7.2,0.342 z"
     id="path13"
     inkscape:connector-curvature="0"
     style="fill:#ffffff" /><path
     d="m 511.57411,192.2375 c 2.067,13.603 3.621,50.186 1.386,53.404 -2.238,3.216 11.929,1.604 11.929,1.604 0,0 1.017,-66.574 4.811,-73.84 3.796,-7.271 -22.053,21.346 -22.053,21.346"
     id="path15"
     inkscape:connector-curvature="0"
     style="fill:#f6ac83" /><path
     d="m 514.05511,198.7045 c 2.165,13.593 -0.404,51.462 -2.617,54.692 -2.216,3.232 17.614,-2.654 17.614,-2.654 0,0 3.16,-66.241 6.906,-73.54 3.748,-7.299 -21.903,21.502 -21.903,21.502"
     id="path17"
     inkscape:connector-curvature="0"
     style="fill:#22323c" /><g
     id="XMLID_1_"
     transform="translate(-7.1528911,-158.0945)"><g
       id="g20"><path
         d="m 524.688,284.526 c 0.137,-8.119 -8.275,-22.637 -8.275,-23.513 0,-0.951 2.75,-5.524 3.752,-10.789 4.278,-22.168 40.941,-13.32 46.399,-1.269 5.458,12.057 -8.181,28.548 -8.181,28.548 0,0 1.358,3.165 -4.113,11.411 -5.444,8.252 -19.144,18.99 -27.283,19.028 -4.7,0.032 -2.142,-12.495 -2.142,-14.125 0,-1.599 15.705,-1.84 16.783,-11.633 -6.208,1.638 -13.651,4.106 -16.94,2.342 z"
         id="path22"
         inkscape:connector-curvature="0"
         style="fill:#a37158" /></g><g
       id="g24" /></g><path
     d="m 519.28811,103.0365 c -0.683,8.031 -5.027,18.474 -4.001,20.374 1.02,1.906 7.277,-0.51 11.371,-3.367 l -1.363,-1.624"
     id="path26"
     inkscape:connector-curvature="0"
     style="fill:#a37158" /><path
     d="m 550.85611,114.2065 -5.094,0 c 0,0 0,-4.909 0,-14.243 0,-1.906 -6.142,-3.6 -7.057,-9.731 0,0 -11.591,4.019 -10.456,-1.694 0,0 -17.742,7.407 -13.075,-1.053 0,0 -7.619,0 -7.165,-3.594998 0.454,-3.594 10.542,-3.35 13.821,-3.252 2.78,0.082 -12,0.31 -10.865,-6.255 1.141,-6.561 32.976,0.841 34.112,5.067 5.687,-1.478 20.037,6.748998 14.71,25.155998 0,-10e-4 -7.47,-8.292 -8.931,9.6 z"
     id="path28"
     inkscape:connector-curvature="0"
     style="fill:#010102" /><path
     d="m 540.07511,103.6565 c -1.591,-7.825 -9.102,-8.249 -13.417,-8.038 -4.322,0.213 -2.954,3.638 0,3.379 4.773,-0.419 11.141,-0.419 13.417,4.659 z"
     id="path30"
     inkscape:connector-curvature="0"
     style="fill:#010102" /><path
     d="m 508.33411,103.9985 c 0.92,-7.825 5.264,-8.25 7.768,-8.038 2.498,0.212 1.711,3.639 0,3.383 -2.769,-0.417 -6.456,-0.417 -7.768,4.655 z"
     id="path32"
     inkscape:connector-curvature="0"
     style="fill:#010102" /><path
     stroke-miterlimit="10"
     d="m 526.65811,105.8765 c 0.457,2.324 6.371,4.225 6.82,5.708"
     id="path34"
     inkscape:connector-curvature="0"
     style="fill:none;stroke:#432918;stroke-width:0.01;stroke-miterlimit:10" /><path
     stroke-miterlimit="10"
     d="m 518.32311,105.8765 c -0.271,2.324 -3.818,4.225 -4.094,5.708"
     id="path36"
     inkscape:connector-curvature="0"
     style="fill:none;stroke:#432918;stroke-width:0.01;stroke-miterlimit:10" /><path
     d="m 512.10011,95.5815 c 0.912,-3.443 4.549,-6.614 6.596,-7.038 2.047,-0.423 -1.858,-4.293998 -1.858,-4.293998 0,0 -5.652,2.937998 -4.738,11.331998 z"
     id="path38"
     inkscape:connector-curvature="0"
     style="fill:#714032" /><path
     d="m 531.99111,104.8245 c 0,0.987 -0.859,1.785 -1.922,1.785 -1.058,0 -1.923,-0.798 -1.923,-1.785 0,-0.989 0.865,-1.788 1.923,-1.788 1.062,0 1.922,0.799 1.922,1.788 z"
     id="path40"
     inkscape:connector-curvature="0" /><ellipse
     cx="530.40112"
     cy="103.99849"
     rx="0.33199999"
     ry="0.30399999"
     id="ellipse42"
     style="fill:#010102" /><path
     d="m 517.53711,104.8245 c 0,0.987 -0.862,1.785 -1.917,1.785 -1.066,0 -1.925,-0.798 -1.925,-1.785 0,-0.989 0.859,-1.788 1.925,-1.788 1.056,0 1.917,0.799 1.917,1.788 z"
     id="path44"
     inkscape:connector-curvature="0"
     style="fill:#010102" /><path
     d="m 516.27511,103.9985 c 0,0.168 -0.147,0.304 -0.331,0.304 -0.181,0 -0.323,-0.136 -0.323,-0.304 0,-0.168 0.143,-0.309 0.323,-0.309 0.184,0 0.331,0.14 0.331,0.309 z"
     id="path46"
     inkscape:connector-curvature="0"
     style="fill:#ffffff" /><path
     d="m 554.85111,114.2065 c -7.726,16.622 -1.324,36.034 -1.324,36.034 4.477,5.56 33.863,25.646 33.863,25.646 l -33.863,36.975 -25.266,-12.646 c 0,0 8.338,-33.38 8.338,-35.53 0,-10.246 -0.282,-16.866 -3.381,-21.677"
     id="path48"
     inkscape:connector-curvature="0"
     style="fill:#a37158" /><path
     stroke-miterlimit="10"
     d="M 585.02611,294.5995"
     id="path50"
     inkscape:connector-curvature="0"
     style="fill:none;stroke:#e6332a;stroke-miterlimit:10" /><path
     d="m 509.74611,270.9795 c -4.048,29.414 -1.698,80.307 0.37,130.065 1.931,46.411 3.612,91.841 -0.37,117.954 0,0 5.16,8.12 0,18.943 l 14.187,0 c 0,0 4.6,-58.369 7.548,-136.888 0.026,-0.692 -0.097,0.683 0,0 9.257,-66.529 13.514,-119.536 11.486,-127.951 l -33.221,-2.123 z"
     id="path52"
     inkscape:connector-curvature="0"
     style="fill:#706f6f" /><path
     d="m 548.43911,327.0565 c 5.354,28.453 4.946,55.257 9.037,90.248 4.716,40.351 8.555,77.811 10.962,101.229 0.365,3.508 -0.697,14.432 -1.213,23.9 l 13.864,0 c 0,0 -1.494,-61.992 -3.567,-126.628 -2.145,-66.655 -3.846,-137.117 -2.286,-143.024 0,0 -44.37,-26.646 -54.579,-26.685 -10.211,-0.042 0.241,49.123 0.241,49.123 0,0 21.623,0.422 27.541,31.837 z"
     id="path54"
     inkscape:connector-curvature="0"
     style="fill:#575756" /><path
     d="m 570.56211,252.5225 c -1.146,-11.045 23.181,-82.13 23.181,-82.13 -10.28,-7.614 -24.431,-9.884 -32.424,-18.263 l -3.514,-7.715 -18.345,12.926 0,0 0,0 -5.438,-7.014 -0.065,10.969 0,0 c -10.154,4.957 -26.422,12.597 -26.422,12.597 3.886,16.883 4.858,65.667 3.729,76.816 -1.129,11.15 -7.389,42.657 -4.714,42.93 24.353,2.443 56.278,2.596 71.741,-3.426 0,0 -0.729,-10.574 -2.636,-15.526 -1.903,-4.943 -3.953,-11.124 -5.093,-22.164 z"
     id="path56"
     inkscape:connector-curvature="0"
     style="fill:#dadada" /><path
     d="m 578.93911,192.9345 c 3.856,13.204 10.268,49.253 8.477,52.74 -1.786,3.486 12.038,0 12.038,0 0,0 -7.853,-66.111 -5.055,-73.822 2.799,-7.712 -19.021,24.094 -19.021,24.094"
     id="path58"
     inkscape:connector-curvature="0"
     style="fill:#f6ac83" /><path
     d="m 575.37711,195.9465 c 3.861,13.205 3.52,4.577 1.732,8.063 -1.793,3.486 22.209,-3.116 22.209,-3.116 0,0 -7.718,-21.33 -4.92,-29.041 2.8,-7.712 -19.021,24.094 -19.021,24.094"
     id="path60"
     inkscape:connector-curvature="0"
     style="fill:#9fd0db" /><polyline
     stroke-miterlimit="10"
     points="549.899,320.543 555.543,322.169   568.472,310.225 "
     id="polyline62"
     style="fill:none;stroke:#2d5e70;stroke-width:0.05;stroke-miterlimit:10"
     transform="translate(-7.1528911,-158.0945)" /><polyline
     stroke-miterlimit="10"
     points="544.557,321.359 541.158,322.912   541.109,319.391 "
     id="polyline64"
     style="fill:none;stroke:#2d5e70;stroke-width:0.05;stroke-miterlimit:10"
     transform="translate(-7.1528911,-158.0945)" /><path
     d="m 559.06211,110.0585 c -1.358,5.071 -4.134,8.796 -6.192,8.323 -2.063,-0.478 -2.633,-4.979 -1.276,-10.05 1.359,-5.078 4.127,-8.808 6.19,-8.331 2.058,0.478 2.633,4.98 1.278,10.058 z"
     id="path66"
     inkscape:connector-curvature="0"
     style="fill:#a37158" /><polygon
     points="532.403,423.231 469.525,408.927 472.888,396.886 538.598,404.821 "
     id="polygon68"
     style="fill:#706f6f"
     transform="translate(-7.1528911,-158.0945)" /><path
     d="m 568.21411,153.6615 c 9.146,7.592 13.771,10.246 25.528,17.144 0,0 -24.489,72.123 -23.181,82.131 1.301,10.002 2.495,15.773 4.674,20.259 2.177,4.485 3.055,17.433 3.055,17.433 0,0 -31.089,7.177 -46.082,8.881 -8.303,0.945 -6.713,-23.356 -6.935,-30.212 0,0 1.617,21.047 -1.152,25.874 -2.769,4.828 -18.446,2.411 -21.491,2.761 -3.049,0.346 6.472,-39.69 5.841,-46.934 -0.635,-7.243 2.09,-62.408 -3.534,-74.568 -1.754,-3.795 19.893,-7.384 24.75,-16.832 -2.234,10.343 -12.69,36.56 -6.156,77.612 0,-0.001 25.526,-37.725 44.683,-83.549 z"
     id="path70"
     inkscape:connector-curvature="0"
     style="fill:#575756" /><path
     d="m 528.34611,221.2635 66.573,16.217 -4.388,9.034 -65.097,-20.444 c -6.94,-2.729 -12.41,-1.059 -16.917,-2.918 -4.504,-1.856 -10.537,-9.801 -0.202,-4.97 4.021,1.879 -1.815,-5.184 -10.078,-7.273 -8.264,-2.091 -14.552,-3.447 -9.808,-5.261 4.743,-1.813 5.528,-6.613 11.561,-4.72 6.037,1.895 13.695,13.896 28.356,20.335 z"
     id="path72"
     inkscape:connector-curvature="0"
     style="fill:#f6ac83" /><path
     d="m 581.08911,204.8675 c 3.917,12.071 5.686,28.486 3.508,31.593 -2.179,3.101 18.442,17.905 18.442,17.905 0,0 -3.611,-73.591 -9.297,-83.973 -3.708,-6.778 -12.653,34.475 -12.653,34.475"
     id="path74"
     inkscape:connector-curvature="0"
     style="fill:#575756" /><polygon
     points="605.847,393.896 532.717,376.064 531.496,386.822 610.192,412.46 "
     id="polygon76"
     style="fill:#575756"
     transform="translate(-7.1528911,-158.0945)" /><g
     id="g78"
     transform="translate(-7.1528911,-158.0945)"><polygon
       points="530.684,394.891 546.333,369.448 549.899,327.895 549.899,320.543 546.613,315.436 544.557,321.359 547.843,327.895 529.133,382.139 "
       id="polygon80"
       style="fill:#e6332a" /></g><g
     id="g82"
     transform="translate(-7.1528911,-158.0945)"><path
       d="m 568.875,381.066 c -23.096,3.626 -33.105,-9.175 -42.754,-11.876 -11.541,-3.233 -33.444,-6.455 -49.419,-5.545 -3.321,0.189 -8.216,1.371 -10.825,2.45 -3.837,1.579 -9.369,14.06 -15.241,18.375 -22.412,2.086 -55.139,-6.154 -53.545,19.897 11.688,1.43 25.351,0.877 38.364,0.978 3.734,-4.483 8.619,-1.293 11.584,2.787 1.144,1.568 2,3.271 2.404,4.711 27.341,-0.622 55.9,-0.018 83.234,-0.649 0,0 5.601,-0.133 9.673,-0.284 0.026,-0.013 0.055,-0.027 0.084,-0.042 1.357,-0.57 2.309,-0.301 3.346,-0.121 0.235,-0.016 0.445,0.02 0.642,0.087 0.634,0.063 1.329,0.029 2.169,-0.289 -0.054,-0.138 -0.108,-0.289 0.022,-0.005 l 3.006,-0.013 c -0.243,-0.525 -0.371,0.297 -0.402,-0.309 1.688,-0.045 2.858,-0.612 4.55,-0.655 0.066,0.18 0.07,0.101 0.062,-0.018 l 2.54,-0.635 c -0.054,-0.506 0.014,-0.215 0.047,0 18.697,-1.628 19.584,-30.275 10.459,-28.844 z m -122.362,8.954 c -8.93,0.632 -17.66,1.346 -23.738,2.607 0.849,2.251 1.247,7.11 -0.65,8.48 -3.069,-1.195 -2.69,-7.424 -0.648,-9.458 7.685,-1.226 16.843,-2.277 26.013,-2.933 8.776,-0.628 18.37,-0.017 23.736,-4.889 -2.415,5.403 -14.433,5.464 -24.713,6.193 z m 9.589,-6.775 c 0.608,-1.494 9.523,-13.561 10.135,-14.511 4.071,-0.349 8.187,-0.653 12.413,-0.852 -2.554,5.471 -5.1,9.827 -6.449,14.967 -6.724,-0.114 -10.066,-0.186 -16.099,0.396 z m 21.951,-0.395 c -0.375,-2.228 0.877,-2.818 1.625,-3.916 2.144,-1.156 7.602,3.339 8.129,4.392 -1.732,-0.001 -8.019,-0.476 -9.754,-0.476 z m 16.583,0.324 c 1.416,-0.005 2.924,-0.107 3.902,0.326 l -3.902,-0.326 z m 10.077,0.326 -14.303,-0.65 c -3.051,-2.372 -9.466,-8.941 -13.005,-3.916 -0.728,1.033 -0.25,3.12 -1.951,3.916 1.956,-7.037 4.532,-11.861 5.472,-14.967 7.519,0.442 17.431,0.595 25.041,1.958 0.491,5.378 2.038,10.127 2.326,13.987 -1.194,-0.108 -2.878,0.277 -3.58,-0.328 z m 5.529,0.651 c -0.602,-4.184 -1.417,-8.933 -2.654,-13.985 7.379,0.429 12.143,1.546 19.105,2.394 0.679,2.659 2.951,7.408 5.983,13.354 l -22.434,-1.763 z m 24.901,1.733 -5.79,-12.53 c 6.368,4.144 6.311,4.019 10.71,12.53 l -4.92,0 z m 27.503,-0.715 c -0.074,-0.374 0.038,-0.583 0.286,-0.667 1.909,-0.124 8.125,-2.249 8.194,0.837 -1.841,0.159 -6.665,0.842 -8.48,-0.17 z"
       id="path84"
       inkscape:connector-curvature="0"
       style="fill:#22323c" /><path
       d="m 412.34,389.966 c -3.62,1.765 -7.529,3.354 -11.059,5.541 -0.999,0.623 -1.973,1.989 -3.253,1.632 0.273,-1.159 0.096,-3.76 -0.973,-4.564 -3.526,0.146 -1.061,5.563 -1.626,7.175 -2.45,-1.693 -1.142,-7.167 0.65,-8.482 5.23,-0.422 11.525,-1.469 16.261,-1.302"
       id="path86"
       inkscape:connector-curvature="0"
       style="fill:#22323c" /><path
       d="m 397.804,396.115 c 0,1.709 -0.577,3.101 -1.284,3.101 -0.712,0 -1.29,-1.392 -1.29,-3.101 0,-1.716 0.578,-3.102 1.29,-3.102 0.707,0.001 1.284,1.386 1.284,3.102"
       id="path88"
       inkscape:connector-curvature="0"
       style="fill:#faea27" /><path
       d="m 438.816,405.672 c -5.987,2.427 0.152,13.772 4.233,13.692 6.896,-0.128 3.663,-16.89 -4.233,-13.692 m 0.653,4.566 c 1.415,-3.562 7.707,2.154 4.224,5.217 -2.095,1.45 -5.182,-2.816 -4.224,-5.217"
       id="path90"
       inkscape:connector-curvature="0"
       style="fill:#010202" /><path
       d="m 427.738,412.846 7.503,0 c -0.332,-1.408 -0.844,-2.633 -0.652,-4.565 -13.442,0.053 -29.141,0.581 -41.295,-1.63 -0.777,-0.412 0.181,-2.571 -0.648,-2.931 -1.021,1.354 -0.257,2.833 0.323,4.235 8.65,0.349 14.383,3.619 22.764,4.239 6.152,-0.03 12.005,0.652 12.005,0.652"
       id="path92"
       inkscape:connector-curvature="0"
       style="fill:#22323c" /><path
       d="m 421.582,416.433 c 2.363,-0.323 2.029,-2.509 3.904,-3.588 l 2.251,0 c 0,0 -5.851,-0.681 -12.006,-0.651 0.976,2.244 3.292,4.592 5.851,4.239"
       id="path94"
       inkscape:connector-curvature="0"
       style="fill:#010202" /><path
       d="m 551.136,405.672 c -5.986,2.427 0.146,13.772 4.227,13.692 6.903,-0.128 3.664,-16.89 -4.227,-13.692 m 0.65,4.566 c 1.417,-3.562 7.706,2.154 4.226,5.217 -2.096,1.45 -5.183,-2.816 -4.226,-5.217"
       id="path96"
       inkscape:connector-curvature="0"
       style="fill:#010202" /><path
       d="m 422.908,396.682 c 0,1.901 -0.527,3.439 -1.173,3.439 -0.649,0 -1.176,-1.538 -1.176,-3.439 0,-1.897 0.527,-3.438 1.176,-3.438 0.646,-0.001 1.173,1.54 1.173,3.438"
       id="path98"
       inkscape:connector-curvature="0"
       style="fill:#faea27" /></g><path
     d="m 528.34611,221.2635 66.573,16.217 -4.388,9.034 -65.097,-20.444 c -6.94,-2.729 -12.41,-1.059 -16.917,-2.918 -4.504,-1.856 -10.537,-9.801 -0.202,-4.97 4.021,1.879 -1.815,-5.184 -10.078,-7.273 -8.264,-2.091 -14.552,-3.447 -9.808,-5.261 4.743,-1.813 5.528,-6.613 11.561,-4.72 6.037,1.895 13.695,13.896 28.356,20.335 z"
     id="path100"
     inkscape:connector-curvature="0"
     style="fill:#a37158" /><path
     d="m 581.08911,204.8675 c 3.917,12.071 5.686,28.486 3.508,31.593 -2.179,3.101 18.442,17.905 18.442,17.905 0,0 -3.611,-73.591 -9.297,-83.973 -3.708,-6.778 -12.653,34.475 -12.653,34.475"
     id="path102"
     inkscape:connector-curvature="0"
     style="fill:#575756" /><polygon
     points="605.847,393.896 532.717,376.064 531.496,386.822 610.192,412.46 "
     id="polygon104"
     style="fill:#575756"
     transform="translate(-7.1528911,-158.0945)" /><g
     id="g106"
     transform="translate(-7.1528911,-158.0945)"><path
       d="m 663.584,432.423 c 15.131,-5.172 33.766,-10.138 43.4,-15.78 12.438,-7.283 14.71,-22.95 -2.677,-16.372 -14.102,5.334 -27.033,20.2 -42.713,22.809 l 1.99,9.343 z"
       id="path108"
       inkscape:connector-curvature="0"
       style="fill:#192229" /><path
       d="m 655.472,415.389 c -5.441,1.379 -12.438,-4.47 -17.015,-4.292 -2.408,0.092 -5.453,1.382 -5.453,1.382 1.249,1.326 3.708,0.52 5.93,0.503 2.223,-0.015 3.759,1.09 0.61,2.742 -3.382,1.772 -6.493,4.145 -15.196,2.934 l 4.883,8.465 c 11.63,0.52 16.962,-5.802 27.269,-6.91"
       id="path110"
       inkscape:connector-curvature="0"
       style="fill:#f6ac83" /><g
       id="g112"><path
         d="m 751.349,248.791 c 3.755,4.858 2.961,8.496 -7.066,13.15 -2.556,1.185 -1.178,0.828 0,2.96 1.175,2.133 3.53,10.427 1.175,13.151 -1.57,-4.62 -10.903,0.309 -2.848,8.413 1.77,1.775 0,4.618 0.982,6.752 0.981,2.131 7.461,8.648 0.492,14.333 -12.24,9.987 -29.207,-2.751 -30.892,-12.099 -1.512,-8.396 0.941,-11.833 7.915,-14.202 3.372,-1.146 8.394,-3.79 9.745,-9.477 1.349,-5.686 -0.812,-13.392 6.651,-16.822 1.93,-0.887 7.07,-14.926 13.846,-6.159 z"
         id="path114"
         inkscape:connector-curvature="0"
         style="fill:#b72e20" /><path
         d="m 747.372,302.536 c -17.985,4.355 -22.557,-6.809 -26.325,-15.795 -0.631,-3.759 -1.048,-7.095 1.303,-8.427 8.2,-4.659 8.006,-18.159 19.454,-22.94 11.45,-4.782 18.784,1.388 25.871,10.408 4.9,6.243 2.485,19.064 -5.6,27.964"
         id="path116"
         inkscape:connector-curvature="0"
         style="fill:#f6ac83" /><path
         d="m 713.919,707.283 0,8.313 -6.215,1.876 0,-2.438 c 0,0 -16.65,10.433 -39.223,7.579 -15.173,-5.503 29.039,-8.665 35.613,-17.516 l 9.825,2.186 z"
         id="path118"
         inkscape:connector-curvature="0"
         style="fill:#010102" /><path
         d="m 756.712,705.801 c -2.199,3.277 -3.068,7.405 -4.528,9.126 0,0 -2.741,23.164 2.679,22.588 6.885,-0.723 11.681,-20.774 11.125,-23.684 -0.554,-2.92 -1.983,-6.177 -2.292,-8.761 l -6.984,0.731 z"
         id="path120"
         inkscape:connector-curvature="0"
         style="fill:#010102" /><g
         id="g122"><path
           d="m 750.806,276.901 c 0,2.271 -2.428,4.113 -5.416,4.113 -2.999,0 -5.425,-1.842 -5.425,-4.113 0,-2.271 2.426,-4.112 5.425,-4.112 2.988,0 5.416,1.842 5.416,4.112 z"
           id="path124"
           inkscape:connector-curvature="0"
           style="fill:#ffffff" /><path
           d="m 747.678,276.494 c 0,1.67 -1.453,3.024 -3.246,3.024 -1.799,0 -3.253,-1.354 -3.253,-3.024 0,-1.669 1.454,-3.022 3.253,-3.022 1.793,-10e-4 3.246,1.353 3.246,3.022 z"
           id="path126"
           inkscape:connector-curvature="0" /><path
           d="m 743.466,276.493 c 0,0.29 -0.25,0.521 -0.56,0.521 -0.307,0 -0.557,-0.23 -0.557,-0.521 0,-0.285 0.25,-0.519 0.557,-0.519 0.31,0 0.56,0.234 0.56,0.519 z"
           id="path128"
           inkscape:connector-curvature="0"
           style="fill:#ffffff" /><path
           d="m 738.149,278.066 c 5.566,-4.595 9.086,-6.018 13.035,-0.493 0,0 0.321,-6.888 -6.863,-5.014 -3.249,0.85 -3.82,2.241 -6.172,5.507 z"
           id="path130"
           inkscape:connector-curvature="0"
           style="fill:#c29183" /><path
           d="m 738.149,278.066 c 4.411,-5.336 11.556,-6.158 13.035,0 -3.949,-6.893 -7.211,-3.124 -13.035,0 z"
           id="path132"
           inkscape:connector-curvature="0" /></g><g
         id="g134"><path
           d="m 724.101,274.939 c -0.411,1.946 0.574,3.801 2.202,4.145 1.63,0.345 3.284,-0.951 3.693,-2.896 0.413,-1.941 -0.573,-3.797 -2.203,-4.143 -1.628,-0.345 -3.282,0.953 -3.692,2.894 z"
           id="path136"
           inkscape:connector-curvature="0"
           style="fill:#ffffff" /><ellipse
           transform="matrix(-0.9783,-0.207,0.207,-0.9783,1380.442,694.6367)"
           cx="726.56299"
           cy="275.09698"
           rx="2.4430001"
           ry="2.645"
           id="ellipse138" /><ellipse
           transform="matrix(-0.9785,-0.2062,0.2062,-0.9785,1378.2009,693.2438)"
           cx="725.22101"
           cy="274.81299"
           rx="0.52700001"
           ry="0.456"
           id="ellipse140"
           style="fill:#ffffff" /><path
           d="m 731.044,277.452 c -2.407,-4.618 -4.196,-6.27 -7.494,-2.026 0,0 1.815,-7.439 5.997,-3.374 0.479,0.465 0.722,2.315 1.497,5.4 z"
           id="path142"
           inkscape:connector-curvature="0"
           style="fill:#c29183" /><path
           d="m 731.044,277.452 c -1.6,-5.11 -5.606,-6.693 -7.583,-1.605 3.543,-5.414 4.761,-1.786 7.583,1.605 z"
           id="path144"
           inkscape:connector-curvature="0" /></g><path
         d="m 723.431,271.99 c 1.244,-2.268 4.814,-3.417 6.632,-2.819 1.818,0.598 1.112,-2.15 -0.188,-1.861 -1.3,0.289 -4.502,0.356 -6.444,4.68 z"
         id="path146"
         inkscape:connector-curvature="0"
         style="fill:#a36647" /><path
         d="m 750.913,271.891 c -1.826,-2.305 -6.802,-3.539 -9.273,-2.981 -2.477,0.559 -1.637,-2.183 0.169,-1.862 1.804,0.319 6.217,0.46 9.104,4.843 z"
         id="path148"
         inkscape:connector-curvature="0"
         style="fill:#a36647" /><path
         d="m 701.126,707.556 c 0,-5.33 6.244,-89.392 9.215,-97.546 2.133,-5.862 0.401,-8.525 -0.132,-11.191 -0.538,-2.667 2.701,-9.6 0.564,-19.725 -2.138,-10.128 -4.306,-40.509 -0.031,-70.895 4.271,-30.385 4.922,-47.975 4.063,-53.836 -0.859,-5.865 28.519,21.319 29.05,46.372 0.536,25.051 -12.387,75.695 -13.986,85.289 -1.604,9.592 2.771,37.848 1.168,50.638 -1.601,12.794 -18.603,57.568 -17.273,70.364"
         id="path150"
         inkscape:connector-curvature="0"
         style="fill:#192229" /><path
         d="m 725.276,346.99 c -6.405,19.424 -13.884,53.021 -18.155,60.896 -4.274,7.873 -5.344,6.298 -3.743,-16.273 1.604,-22.574 2.498,-56.696 10.597,-63.519 8.1,-6.825 12.374,0 11.302,5.248 -1.068,5.25 -0.001,13.648 -0.001,13.648 z"
         id="path152"
         inkscape:connector-curvature="0"
         style="fill:#192229" /><path
         d="m 771.177,279.221 c 1.136,7.854 -7.354,17.764 -18.8,21.446 -1.219,15.018 -1.312,29.977 7.164,35.038 l -24.26,63.12 -23.732,-13.55 5.074,-47.868 10.074,-7.09 c 0,0 5.426,-7.101 8.554,-29.365"
         id="path154"
         inkscape:connector-curvature="0"
         style="fill:#f6ac83" /><path
         d="M 725.639,267.476"
         id="path156"
         inkscape:connector-curvature="0"
         style="fill:#f6ac83" /><path
         d="m 743.718,245.822 c -5.229,5.353 -4.121,9.359 9.846,14.485 3.556,1.305 1.64,0.913 0,3.262 -1.639,2.349 2.394,11.484 5.675,14.485 2.187,-5.09 15.186,0.341 3.967,9.266 -2.464,1.958 -7.317,5.089 -8.684,7.439 -1.365,2.348 -10.393,9.526 -0.685,15.789 17.044,11.001 40.672,-3.03 43.019,-13.326 2.104,-9.249 -1.31,-13.033 -11.022,-15.643 -4.697,-1.263 -11.689,-4.176 -13.57,-10.441 -1.881,-6.264 1.13,-14.751 -9.263,-18.531 -2.688,-0.977 -9.845,-16.442 -19.283,-6.785 z"
         id="path158"
         inkscape:connector-curvature="0"
         style="fill:#b72e20" /><path
         d="m 727.371,287.546 c 4.836,4.037 14.997,-0.477 14.997,0.092 0,0.567 -2.919,2.17 -5.489,2.838 -3.933,1.023 -7.494,1.489 -9.508,-0.834 -2.012,-2.324 -3.253,-4.812 0,-2.096 z"
         id="path160"
         inkscape:connector-curvature="0"
         style="fill:#ffffff" /><path
         d="m 752.551,326.547 c 0,0 -25.772,16.026 -30.803,32.048 1.275,-16.081 6.398,-30.79 6.398,-30.79 l -25.474,48.998 8.876,22.021 20.145,7.247 20.858,-79.524 z"
         id="path162"
         inkscape:connector-curvature="0"
         style="fill:#ffffff" /><path
         d="m 774.941,350.992 c -6.407,15.223 -34.565,54.095 -22.391,77.021 3.085,5.807 10.536,15.107 18.012,33.769 7.477,18.662 -56.201,14.367 -56.201,14.367 0,0 0.112,-32.224 0,-44.525 -0.305,-32.8 -16.972,-48.822 -14.302,-59.845 2.668,-11.023 17.212,-35.514 23.534,-46.447 3.862,-6.677 2.671,-9.472 0,-9.999 -2.672,-0.524 10.418,-3.296 10.418,-3.296 l -1.121,8.543 c 0,0 -24.286,31.774 -16.808,63.797 3.737,-15.749 25.31,-49.153 29.568,-53.353 4.26,-4.201 -3.666,-10.079 -5.8,-11.129 4.272,-7.874 10.864,-6.346 15.141,-7.396 -1.069,10.498 -1.069,10.498 -1.069,10.498 0,0 24.116,4.16 27.317,11.508 3.207,7.352 -6.298,16.487 -6.298,16.487 z"
         id="path164"
         inkscape:connector-curvature="0"
         style="fill:#22323c" /><path
         d="m 768.032,707.556 c -2.668,-15.994 11.688,-60.767 7.419,-86.884 -4.273,-26.117 -6.49,-22.39 -6.49,-31.983 0,-9.595 12.818,-85.285 4.805,-117.269 -8.013,-31.981 -39.521,-46.375 -38.455,11.192 1.07,57.569 13.06,89.601 15.131,110.907 1.696,17.5 3.329,103.808 0.518,114.036"
         id="path166"
         inkscape:connector-curvature="0"
         style="fill:#22323c" /><path
         d="m 769.144,355.164 c 15.29,20.145 40.446,63.642 48.499,70.938 8.053,7.293 15.041,0.8 3.742,-25.646 -11.293,-26.448 -29.618,-63.962 -41.466,-68.005 -11.846,-4.039 -13.696,6.428 -10.3,12.215 3.396,5.789 -0.475,10.498 -0.475,10.498 z"
         id="path168"
         inkscape:connector-curvature="0"
         style="fill:#22323c" /><path
         d="m 791.329,249.553 c 2.624,-0.407 5.486,-2.273 5.486,-2.84 0,-0.569 -3.341,1.704 -6.439,1.42"
         id="path170"
         inkscape:connector-curvature="0"
         style="fill:#ffffff" /></g><g
       id="g172"><path
         d="m 610.743,421.121 c -3.38,1.646 -7.028,3.136 -10.322,5.186 -0.936,0.579 -1.837,1.856 -3.035,1.521 0.255,-1.08 0.084,-3.513 -0.91,-4.27 -3.292,0.141 -0.991,5.206 -1.516,6.712 -2.286,-1.582 -1.069,-6.703 0.606,-7.931 4.876,-0.399 10.76,-1.374 15.177,-1.218"
         id="path174"
         inkscape:connector-curvature="0"
         style="fill:#010102" /><path
         d="m 756.466,436.979 c -1.722,0.049 -6.258,0.427 -7.889,-0.609 -0.054,-0.356 0.064,-0.546 0.295,-0.611 1.787,-0.011 7.697,-1.665 7.594,1.22"
         id="path176"
         inkscape:connector-curvature="0"
         style="fill:#ffffff" /><path
         d="m 631.694,440.334 c 1.318,-3.331 7.19,2.01 3.944,4.877 -1.959,1.357 -4.836,-2.632 -3.944,-4.877 m -0.608,-4.269 c -5.589,2.269 0.138,12.881 3.948,12.807 6.442,-0.124 3.422,-15.802 -3.948,-12.807"
         id="path178"
         inkscape:connector-curvature="0" /><path
         d="m 616.109,423.862 c 5.672,-1.179 13.824,-1.848 22.159,-2.438 9.594,-0.683 20.812,-0.744 23.072,-5.793 -5.011,4.555 -13.967,3.985 -22.16,4.574 -8.563,0.611 -17.111,1.594 -24.286,2.744 -1.906,1.903 -2.264,7.728 0.605,8.847 1.772,-1.282 1.399,-5.828 0.61,-7.934 m 40.072,-36.594 c -3.833,9.471 -8.006,18.595 -11.841,28.061 5.632,-0.544 11.639,-0.718 17.912,-0.611 2.128,-9.654 5.275,-18.288 6.98,-28.365 -4.447,0.21 -8.775,0.533 -13.051,0.915 m 38.553,0.916 c -7.1,-1.276 -16.358,-1.415 -23.372,-1.832 -2.464,9.013 -4.028,18.936 -6.071,28.365 1.584,-0.739 1.138,-2.693 1.816,-3.661 3.311,-4.702 9.299,1.443 12.146,3.661 l 13.355,0.611 c 0.654,0.564 2.226,0.203 3.338,0.304 -0.386,-9.166 -0.723,-18.382 -1.212,-27.448 m 19.354,2.543 c -6.501,-0.793 -10.946,-1.835 -17.836,-2.235 0.584,9.072 0.62,18.689 1.518,27.444 l 29.161,2.295 c -4.368,-8.384 -10.572,-18.499 -12.843,-27.504 m -27.246,24.601 c -0.912,-0.41 -2.317,-0.313 -3.639,-0.308 l 3.639,0.308 z m -19.125,-0.611 c 1.614,0 7.486,0.444 9.107,0.444 -0.493,-0.983 -5.586,-5.187 -7.592,-4.105 -0.702,1.027 -1.865,1.582 -1.515,3.661 m 87.837,19.21 c -16.575,4.343 -107.889,2.38 -116.793,2.369 -2.771,-3.818 -7.328,-4.734 -10.816,-0.537 -12.15,-0.093 -24.904,0.424 -35.819,-0.918 10.299,-12.623 28.554,-17.255 49.483,-19.209 3.83,-7.255 6.839,-14.228 10.321,-21.959 1.718,-3.813 2.95,-8.219 6.681,-9.759 2.436,-1.004 5.704,-1.347 8.8,-1.524 14.921,-0.852 35.369,2.161 46.143,5.183 9.011,2.53 8.503,30.804 27.023,34.464 6.973,1.38 13.145,4.849 15.164,11.848 -0.062,0.014 -0.125,0.024 -0.187,0.042"
         id="path180"
         inkscape:connector-curvature="0"
         style="fill:#010102" /><path
         d="m 756.664,436.979 c 0.104,-2.886 -5.803,-1.231 -7.587,-1.221 -0.235,0.065 -0.35,0.255 -0.299,0.611 1.63,1.037 6.167,0.659 7.886,0.61"
         id="path182"
         inkscape:connector-curvature="0" /><path
         d="m 620.738,442.771 7.002,0 c -0.304,-1.313 -0.779,-2.464 -0.604,-4.266 -12.548,0.051 -27.21,0.54 -38.557,-1.525 -0.724,-0.386 0.169,-2.404 -0.604,-2.743 -0.952,1.271 -0.237,2.65 0.304,3.961 8.071,0.329 13.433,3.386 21.251,3.966 5.745,-0.029 11.208,0.607 11.208,0.607"
         id="path184"
         inkscape:connector-curvature="0"
         style="fill:#010102" /><path
         d="m 614.993,446.129 c 2.204,-0.304 1.888,-2.35 3.639,-3.358 l 2.106,0 c 0,0 -5.463,-0.636 -11.209,-0.607 0.908,2.099 3.073,4.294 5.464,3.965"
         id="path186"
         inkscape:connector-curvature="0" /><path
         d="m 755.756,433.927 c -0.006,-0.016 -0.009,-0.027 -0.016,-0.043 -0.062,0.016 -0.124,0.025 -0.187,0.043 -16.575,4.343 -107.889,4.449 -116.793,4.439 1.07,1.466 1.868,3.058 2.243,4.404 25.529,-0.581 52.188,-0.02 77.714,-0.607 0,0 5.228,-0.125 9.029,-0.262 0.028,-0.017 0.049,-0.03 0.077,-0.041 1.265,-0.534 2.158,-0.283 3.127,-0.115 0.215,-0.016 0.414,0.017 0.597,0.079 0.601,0.061 1.249,0.032 2.047,-0.273 0.169,0.49 -0.232,-0.512 0,0 l 2.805,-0.012 c -0.225,-0.493 -0.345,0.278 -0.376,-0.288 1.581,-0.043 2.672,-0.569 4.247,-0.612 0.156,0.42 -0.034,-0.694 0,0 l 2.432,-0.61 c -0.084,-0.817 0.162,0.597 0,0 2.938,0.081 6.025,-1.755 9.109,-2.14 1.87,-0.227 4.881,1.021 5.766,-1.218 0.404,-1.92 -1.616,-1.417 -1.821,-2.744"
         id="path188"
         inkscape:connector-curvature="0"
         style="fill:#010102" /><path
         d="m 748.778,436.37 c -0.051,-0.356 0.063,-0.546 0.299,-0.611 1.784,-0.011 7.691,-1.665 7.587,1.221 -1.719,0.048 -6.256,0.426 -7.886,-0.61"
         id="path190"
         inkscape:connector-curvature="0"
         style="fill:#ffffff" /><path
         d="m 731.548,441.829 c -0.183,-0.067 -0.382,-0.1 -0.597,-0.084 0.195,0.034 0.394,0.061 0.597,0.084"
         id="path192"
         inkscape:connector-curvature="0" /><path
         d="m 718.718,442.163 c 0.695,0.77 1.303,1.583 1.968,2.228 0.98,0.951 2.089,1.551 3.807,1.126 1.059,-0.262 1.435,-0.944 1.761,-1.669 0.329,-0.75 0.604,-1.531 1.492,-1.946 -3.798,0.136 -9.028,0.261 -9.028,0.261"
         id="path194"
         inkscape:connector-curvature="0" /><path
         d="m 736.559,440.334 c 1.32,-3.331 7.193,2.01 3.944,4.877 -1.958,1.357 -4.838,-2.632 -3.944,-4.877 m -0.613,-4.269 c -5.584,2.269 0.14,12.881 3.947,12.807 6.45,-0.124 3.424,-15.802 -3.947,-12.807"
         id="path196"
         inkscape:connector-curvature="0" /><path
         d="m 616.23,427.658 c 0,1.771 -0.488,3.215 -1.097,3.215 -0.605,0 -1.093,-1.444 -1.093,-3.215 0,-1.781 0.487,-3.218 1.093,-3.218 0.609,0 1.097,1.437 1.097,3.218"
         id="path198"
         inkscape:connector-curvature="0"
         style="fill:#ffed00" /><path
         d="m 597.158,426.307 c 0,1.774 -0.488,3.213 -1.094,3.213 -0.606,0 -1.095,-1.438 -1.095,-3.213 0,-1.78 0.488,-3.219 1.095,-3.219 0.606,0 1.094,1.438 1.094,3.219"
         id="path200"
         inkscape:connector-curvature="0"
         style="fill:#ffed00" /></g><path
       d="m 758.577,442.289 c 18.566,-2.297 57.905,-3.322 66.104,-13.711 9.562,-12.11 2.609,-16.118 -10.366,-13.278 -17.271,3.779 -36.639,16.613 -55.006,15.854 l -0.732,11.135 z"
       id="path202"
       inkscape:connector-curvature="0"
       style="fill:#192229" /><path
       d="m 759.21,434.479 c -2.516,1.234 -7.471,-2.114 -13.754,-0.764 -1.803,0.386 -5.361,2.808 -5.361,2.808 3.476,2.248 7.07,-1.084 8.735,-0.384 1.544,0.649 -0.516,-0.952 -2.822,0.475 -3.103,1.92 -9.86,1.255 -16.238,0.62 l 4.635,4.238 c 9.349,3.849 16.827,2.443 24.471,-0.45"
       id="path204"
       inkscape:connector-curvature="0"
       style="fill:#f6ac83" /></g><g
     id="g206"
     transform="translate(-7.1528911,-158.0945)"><radialGradient
       id="SVGID_1_"
       cx="197.30029"
       cy="434.12991"
       r="28.381599"
       gradientUnits="userSpaceOnUse"><stop
         offset="0"
         style="stop-color:#22333D"
         id="stop209" /><stop
         offset="1"
         style="stop-color:#192229"
         id="stop211" /></radialGradient><path
       d="m 201.856,395.302 c 9.271,7.966 -0.931,61.404 -1.348,67.15 -0.411,5.738 -10.636,18.047 -11.449,5.434 -0.8,-12.613 1.123,-59.621 1.123,-59.621 0,0 7.98,-16.137 11.674,-12.963 z"
       id="path213"
       inkscape:connector-curvature="0"
       style="fill:url(#SVGID_1_)" /><radialGradient
       id="SVGID_2_"
       cx="218.3223"
       cy="448.1279"
       r="24.770201"
       gradientUnits="userSpaceOnUse"><stop
         offset="0"
         style="stop-color:#22333D"
         id="stop216" /><stop
         offset="1"
         style="stop-color:#192229"
         id="stop218" /></radialGradient><path
       d="m 240.094,424.677 c -14.255,9.283 -32.146,19.325 -40.671,27.563 -10.999,10.635 -9.612,26.789 6.618,15.496 13.169,-9.169 22.877,-27.452 38.304,-34.349 l -4.251,-8.71 z"
       id="path220"
       inkscape:connector-curvature="0"
       style="fill:url(#SVGID_2_)" /><path
       d="m 243.05,430.731 c 5.282,-2.868 13.665,0.57 18.306,-0.918 2.455,-0.79 5.303,-2.879 5.303,-2.879 -1.553,-0.878 -3.908,0.591 -6.185,1.254 -2.267,0.657 -4.062,0.065 -1.191,-2.391 3.101,-2.641 5.79,-5.757 14.944,-7.149 l -6.757,-6.499 c -12.012,2.888 -16.158,10.345 -26.477,14.37"
       id="path222"
       inkscape:connector-curvature="0"
       style="fill:#f6ac83" /><path
       d="m 206.639,791.539 c 4.939,1.667 6.764,0.539 7.26,-1.945 -0.646,-0.643 -15.512,-12.368 -15.512,-17.86 0,-5.49 -10.164,-92.063 -13.07,-100.461 -2.09,-6.035 0.883,-8.782 1.405,-11.526 0.523,-2.745 -0.881,-9.881 1.208,-20.312 2.09,-10.435 5.23,-41.721 1.046,-73.018 -4.182,-31.287 -4.822,-49.403 -3.98,-55.44 0.844,-6.043 -27.911,21.954 -28.434,47.757 -0.524,25.803 11.832,77.956 13.399,87.835 1.567,9.881 -2.421,38.977 -0.853,52.154 1.569,13.175 21.561,59.285 20.258,72.465 0,0 -1.928,1.457 -4.717,4.203 6.357,5.152 15.17,13.845 21.99,16.148"
       id="path224"
       inkscape:connector-curvature="0"
       style="fill:#f6ac83" /><path
       d="m 201.499,796.939 c 0.014,0.012 0.024,0.023 0.024,0.023 0.29,0.1 0.079,0.012 -0.024,-0.023"
       id="path226"
       inkscape:connector-curvature="0"
       style="fill:#19313c" /><path
       d="m 201.523,796.963 c 0,0 -0.01,-0.012 -0.024,-0.021 -0.05,-0.021 -0.073,-0.023 0.024,0.021"
       id="path228"
       inkscape:connector-curvature="0"
       style="fill:#19313c" /><path
       d="m 185.318,796.094 3.901,0 c -0.711,-2.958 -0.947,-7.089 -1.033,-7.851 -0.168,-1.468 12.848,8.204 13.313,8.696 0.103,0.034 0.266,0.212 0.024,0.023 7.502,5.825 21.797,3.317 22.188,-0.267 0.327,-3.023 -6.078,-3.383 -9.811,-7.103 -0.498,2.484 -2.323,3.612 -7.259,1.945 -6.818,-2.303 -15.635,-10.996 -21.99,-16.148 -1.408,1.388 -2.471,3.104 -2.471,5.131 0,6.037 3.138,15.574 3.138,15.574"
       id="path230"
       inkscape:connector-curvature="0"
       style="fill:#e52629" /><path
       d="m 150.054,797.955 c 1.02,-0.331 1.804,-3.101 2.301,-5.5 -4.653,-8.049 -2.749,-19.217 -5.724,-30.599 -2.75,-10.541 -2.093,-34.589 -3.138,-53.256 -0.705,-12.602 1.115,-37.418 2.776,-55.442 2.025,-21.941 17.612,-53.798 18.657,-113.085 1.043,-59.294 -29.799,-44.469 -37.642,-11.53 -7.84,32.938 3.04,110.892 3.04,120.772 0,9.884 -0.264,6.039 -4.442,32.938 -4.182,26.896 14.474,72.462 11.859,88.937 -1.257,7.918 -1.663,14.555 -1.577,19.815 0.855,2.002 1.974,4.136 3.32,5.607 3.258,3.559 8.73,1.941 10.57,1.343"
       id="path232"
       inkscape:connector-curvature="0"
       style="fill:#f6ac83" /><path
       d="m 157.475,808.273 c 2.658,-1.357 -1.958,-11.84 -1.958,-11.84 -1.306,-1.216 -2.335,-2.549 -3.162,-3.98 -0.497,2.399 -1.281,5.171 -2.301,5.504 -1.839,0.596 -7.312,2.214 -10.569,-1.344 -1.346,-1.472 -2.465,-3.605 -3.32,-5.607 0.094,5.672 0.764,9.742 1.577,12.021 1.569,4.389 15.171,10.477 19.733,5.246"
       id="path234"
       inkscape:connector-curvature="0"
       style="fill:#e52629" /><g
       id="g236"><path
         d="m 187.569,486.141 c 2.207,0.758 5.79,0.145 8.556,0.341 1.223,-4.742 5.148,-10.133 10.95,-8.896 3.676,0.784 4.313,4.607 4.793,9.24 4.688,-0.219 10.252,0.44 14.375,-0.344 -1.594,-8.056 -5.171,-16.379 -10.609,-20.532 -2.717,-2.071 -8.831,-2.913 -13.005,-1.029 -7.363,3.324 -12.815,13.291 -15.06,21.22"
         id="path238"
         inkscape:connector-curvature="0"
         style="fill:#e52629" /><path
         d="m 251.565,486.14 c 6.432,-0.025 11.003,0.189 17.113,0 0.847,-9.667 16.992,-14.459 16.77,0 5.37,-0.182 10.941,0.296 15.401,0 -3.019,-11.229 -10.018,-20.734 -23.274,-19.85 -13.197,0.885 -20.845,10.729 -26.01,19.85 m 41.413,-6.161 c -3.22,0.983 -6.644,-4.313 -3.765,-7.528 4.938,-1.138 7.337,6.436 3.765,7.528"
         id="path240"
         inkscape:connector-curvature="0"
         style="fill:#e52629" /><path
         d="m 343.671,479.028 c 0.004,-0.276 0.345,-0.216 0.566,-0.284 2.15,-3.005 -2.299,-7.568 -4.527,-4.525 -0.203,3.125 1.181,4.666 3.961,4.809"
         id="path242"
         inkscape:connector-curvature="0"
         style="fill:#faea27" /><path
         d="m 289.615,473.143 c -2.347,2.626 0.444,6.948 3.072,6.145 2.92,-0.892 0.961,-7.07 -3.072,-6.145"
         id="path244"
         inkscape:connector-curvature="0"
         style="fill:#faea27" /><radialGradient
         id="SVGID_3_"
         cx="276.69431"
         cy="487.35739"
         r="7.4562001"
         gradientUnits="userSpaceOnUse"><stop
           offset="0"
           style="stop-color:#22333D"
           id="stop247" /><stop
           offset="1"
           style="stop-color:#192229"
           id="stop249" /></radialGradient><path
         d="m 279.286,479.638 c -4.338,-0.994 -10.253,3.988 -9.582,10.268 1.029,9.588 14.277,4.918 14.03,-4.104 -0.068,-2.611 -1.578,-5.503 -4.448,-6.164 m -3.764,11.636 c -4.031,-0.752 -2.125,-8.528 2.053,-7.529 5.181,1.235 1.141,8.124 -2.053,7.529"
         id="path251"
         inkscape:connector-curvature="0"
         style="fill:url(#SVGID_3_)" /><radialGradient
         id="SVGID_4_"
         cx="203.79739"
         cy="487.51169"
         r="7.2375998"
         gradientUnits="userSpaceOnUse"><stop
           offset="0"
           style="stop-color:#22333D"
           id="stop254" /><stop
           offset="1"
           style="stop-color:#192229"
           id="stop256" /></radialGradient><path
         d="m 206.733,479.979 c -9.628,-3.147 -12.83,14.4 -5.135,15.4 6.813,0.887 12.737,-12.911 5.135,-15.4 m -3.078,11.294 c -5.702,0.444 -3.113,-9.837 1.709,-7.188 3.001,1.652 0.808,6.995 -1.709,7.188"
         id="path258"
         inkscape:connector-curvature="0"
         style="fill:url(#SVGID_4_)" /><path
         d="m 253.278,448.152 c -0.831,-0.57 1.35,0.936 0.686,2.396 -0.804,-0.106 -0.205,-1.624 -1.37,-1.369 0.146,0.65 0.736,0.859 0.685,1.712 -1.271,-0.099 -0.929,-1.811 -2.396,-1.712 -0.001,1.369 -0.683,2.055 -0.683,3.422 l 5.133,0 c 0.073,-2.241 -0.621,-3.713 -2.055,-4.449"
         id="path260"
         inkscape:connector-curvature="0"
         style="fill:#ffffff" /><path
         d="m 302.218,486.141 -0.002,0 7.896,0 c -2.669,0.034 -5.333,0.067 -7.894,0"
         id="path262"
         inkscape:connector-curvature="0"
         style="fill:#faea27" /><radialGradient
         id="SVGID_5_"
         cx="333.5303"
         cy="488.73441"
         r="10.8104"
         gradientUnits="userSpaceOnUse"><stop
           offset="0"
           style="stop-color:#22333D"
           id="stop265" /><stop
           offset="1"
           style="stop-color:#192229"
           id="stop267" /></radialGradient><path
         d="m 336.439,486.141 c -1.857,2.188 -4.296,5.669 -8.215,5.134 -2.352,-0.322 -3.563,-2.216 -4.447,-4.793 -1.695,-0.189 -3.48,-0.294 -5.313,-0.341 l 30.132,0 c -4.322,0.037 -7.426,0.507 -12.157,0"
         id="path269"
         inkscape:connector-curvature="0"
         style="fill:url(#SVGID_5_)" /><radialGradient
         id="SVGID_6_"
         cx="238.707"
         cy="488.91019"
         r="8.3584003"
         gradientUnits="userSpaceOnUse"><stop
           offset="0"
           style="stop-color:#22333D"
           id="stop272" /><stop
           offset="1"
           style="stop-color:#192229"
           id="stop274" /></radialGradient><path
         d="m 250.199,486.141 0,0 c -1.695,0.246 -3.41,0.47 -5.48,0.341 -1.243,3.319 -3.511,5.615 -8.553,5.133 -1.959,-1.003 -2.643,-3.286 -3.766,-5.133 l -5.136,0 c -0.015,-0.052 -0.032,-0.11 -0.049,-0.168 l 0,-0.173 22.984,0 z"
         id="path276"
         inkscape:connector-curvature="0"
         style="fill:url(#SVGID_6_)" /><path
         d="m 328.911,464.92 c -1.286,0.548 1.051,1.671 1.709,2.396 2.299,2.541 7.543,7.615 6.163,13.689 -1.167,5.117 -9.733,5.825 -15.4,4.45 -11.067,-2.685 -16.856,-12.699 -26.352,-19.85 -10.022,-7.548 -19.542,-11.966 -33.197,-13.006 -1.486,-8.446 -3.198,-16.67 -4.289,-25.517 l 3.926,-2.369 c 7.824,-1.139 22.837,-0.18 24.315,0.849 3.063,2.131 4.473,8.878 5.819,12.665 1.742,4.908 3.241,9.171 4.795,13.348 -1.891,0.622 -4.724,0.3 -6.85,0.685 17.463,6.035 32.701,14.303 40.383,30.113 -2.01,-1.229 -2.476,-3.732 -3.763,-5.477 -6.414,-8.67 -15.283,-15.115 -26.354,-19.848 -4.19,-1.791 -8.827,-4.197 -13.345,-4.789 -5.71,-0.75 -11.064,0.55 -17.455,0 0.967,1.562 3.146,1.024 4.451,1.367 10.248,2.673 18.308,7.475 26.008,14.031 8.313,7.074 15.29,18.166 28.405,17.456 5.326,-0.294 9.691,-3.88 7.872,-9.927 -1.501,-4.993 -9.233,-11.211 -13.691,-14.374 -7.117,-5.052 -14.367,-7.447 -23.269,-8.554 -3.7,-9.077 -6.625,-18.93 -10.608,-27.722 -4.176,-2.855 -12.756,-4.103 -20.192,-3.762 -53.002,-6.678 -54.219,32.729 -54.22,32.744 l -0.002,0 c -0.799,2.619 -9.577,7.036 -11.144,10.031 1.114,0.954 3.354,-0.582 5.133,-0.682 12.453,-0.71 16.429,13.54 19.455,23.442 l 0,-0.174 22.983,0 c 5.163,-9.175 13.816,-19.714 26.692,-20.874 15.15,-1.367 21.742,9.343 25.326,20.874 l 7.895,0 c 2.82,-0.037 5.642,-0.077 8.353,0 l 30.133,0 c 0.388,-10e-4 0.78,-10e-4 1.189,0 -1.098,-12.925 -9.095,-18.96 -20.874,-21.215 z m -75.634,-19.505 c -2.209,-0.367 -4.104,2.615 -4.104,5.133 l -0.196,2.053 -30.118,0.921 c 6.229,-33.523 35.603,-27.531 35.603,-27.531 l 4.634,26.61 c -4.565,0.249 -1.699,-6.504 -5.819,-7.186 z"
         id="path278"
         inkscape:connector-curvature="0"
         style="fill:#e52629" /><path
         d="m 340.456,473.143 c -2.344,2.626 0.447,6.948 3.075,6.145 2.92,-0.892 0.959,-7.07 -3.075,-6.145"
         id="path280"
         inkscape:connector-curvature="0"
         style="fill:#faea27" /></g><radialGradient
       id="SVGID_7_"
       cx="158.0498"
       cy="441.86331"
       r="13.4786"
       gradientUnits="userSpaceOnUse"><stop
         offset="0"
         style="stop-color:#22333D"
         id="stop283" /><stop
         offset="1"
         style="stop-color:#192229"
         id="stop285" /></radialGradient><path
       d="m 144.614,441.866 c 0,7.468 6.011,13.519 13.438,13.519 7.417,0 13.433,-6.051 13.433,-13.519 0,-7.468 -6.015,-13.523 -13.433,-13.523 -7.427,0 -13.438,6.055 -13.438,13.523 z"
       id="path287"
       inkscape:connector-curvature="0"
       style="fill:url(#SVGID_7_)" /><radialGradient
       id="SVGID_8_"
       cx="182.00681"
       cy="440.38281"
       r="13.4786"
       gradientUnits="userSpaceOnUse"><stop
         offset="0"
         style="stop-color:#22333D"
         id="stop290" /><stop
         offset="1"
         style="stop-color:#192229"
         id="stop292" /></radialGradient><path
       d="m 168.572,440.384 c 0,7.468 6.015,13.521 13.438,13.521 7.416,0 13.431,-6.054 13.431,-13.521 0,-7.469 -6.015,-13.522 -13.431,-13.522 -7.423,-0.001 -13.438,6.053 -13.438,13.522 z"
       id="path294"
       inkscape:connector-curvature="0"
       style="fill:url(#SVGID_8_)" /><radialGradient
       id="SVGID_9_"
       cx="137.3799"
       cy="450.08401"
       r="33.999401"
       gradientUnits="userSpaceOnUse"><stop
         offset="0"
         style="stop-color:#22333D"
         id="stop297" /><stop
         offset="1"
         style="stop-color:#192229"
         id="stop299" /></radialGradient><path
       d="m 114.097,410.154 c -9.303,12.731 29.595,67.064 32.673,73.037 3.079,5.978 19.361,14.534 14.39,0.627 -4.97,-13.905 -24.722,-69.257 -24.722,-69.257 0,0 -18.969,-9.021 -22.341,-4.407 z"
       id="path301"
       inkscape:connector-curvature="0"
       style="fill:url(#SVGID_9_)" /><radialGradient
       id="SVGID_10_"
       cx="183.25681"
       cy="486.72461"
       r="23.5354"
       gradientUnits="userSpaceOnUse"><stop
         offset="0"
         style="stop-color:#22333D"
         id="stop304" /><stop
         offset="1"
         style="stop-color:#192229"
         id="stop306" /></radialGradient><path
       d="m 215.501,489.185 c -16.458,2.295 -35.983,6.398 -47.72,5.718 -15.147,-0.883 -25.553,-14.128 -6.295,-16.187 15.611,-1.666 35.241,5.911 50.833,1.021 l 3.182,9.448 z"
       id="path308"
       inkscape:connector-curvature="0"
       style="fill:url(#SVGID_10_)" /><path
       d="m 212.016,480.621 c 2.935,0.584 7.146,-4.283 14.021,-4.622 1.968,-0.096 6.318,1.438 6.318,1.438 -2.968,3.304 -7.614,0.833 -9.136,2.03 -1.423,1.099 0.269,-1.143 3.044,-0.299 3.741,1.143 10.546,-1.426 16.98,-3.859 l -3.635,5.697 c -8.606,6.609 -16.731,7.219 -25.449,6.331"
       id="path310"
       inkscape:connector-curvature="0"
       style="fill:#f6ac83" /><path
       d="m 212.016,480.621 c 2.935,0.584 7.146,-4.283 14.021,-4.622 1.968,-0.096 6.318,1.438 6.318,1.438 -2.968,3.304 -7.614,0.833 -9.136,2.03 -1.423,1.099 0.269,-1.143 3.044,-0.299 3.741,1.143 10.546,-1.426 16.98,-3.859 l -3.635,5.697 c -8.606,6.609 -16.731,7.219 -25.449,6.331"
       id="path312"
       inkscape:connector-curvature="0"
       style="fill:#f6ac83" /><g
       id="g314"><radialGradient
         id="SVGID_11_"
         cx="158.05659"
         cy="455.56451"
         r="54.359001"
         gradientUnits="userSpaceOnUse"><stop
           offset="0"
           style="stop-color:#22333D"
           id="stop317" /><stop
           offset="1"
           style="stop-color:#192229"
           id="stop319" /></radialGradient><path
         d="m 129.598,516.23 c 1.505,-4.606 3.301,-8.835 5.434,-12.549 8.75,-15.233 3.955,-21.21 3.955,-21.21 l -24.583,-72.188 c 0,0 29.129,-26.222 87.304,-15.366 0,0 -17.416,72.479 -17.416,85.186 0,5.177 2.408,14.217 4.933,30.223 -12.15,9.562 -35.512,10.364 -59.627,5.904 z"
         id="path321"
         inkscape:connector-curvature="0"
         style="fill:url(#SVGID_11_)" /><path
         d="m 189.227,510.325 c 3.677,23.301 7.604,61.365 4.707,123.787 -15.216,2.7 -58.607,4.688 -66.67,3.786 0,0 -11.948,-77.964 2.334,-121.668 24.115,4.46 47.477,3.658 59.629,-5.905 z"
         id="path323"
         inkscape:connector-curvature="0"
         style="fill:#010102" /></g><path
       d="m 137.033,349.744 c 0,15.72 10.677,30.921 27.328,34.073 14.612,2.77 28.419,-16.977 21.616,-23.914 -10.229,-10.435 8.16,-35.54 -24.919,-38.629 -13.208,-1.237 -24.025,12.744 -24.025,28.47 z"
       id="path325"
       inkscape:connector-curvature="0"
       style="fill:#f6ac83" /><path
       d="m 150.474,375.164 c 5.333,17.122 -5.238,18.916 -5.238,18.916 -5.242,1.796 -14.01,5.224 -14.01,5.224 11.016,6.179 17.683,21.3 34.827,21.3 7.226,0 16.385,-15.562 15.498,-22.716 -0.496,-3.997 -16.456,-5.602 -16.456,-5.602 -0.726,-5.019 1.237,-15.051 2.516,-17.122"
       id="path327"
       inkscape:connector-curvature="0"
       style="fill:#f6ac83" /><g
       id="g329"><path
         d="m 157.075,355.857 c 0,2.822 2.086,5.106 4.654,5.106 2.581,0 4.667,-2.284 4.667,-5.106 0,-2.814 -2.086,-5.099 -4.667,-5.099 -2.567,0.001 -4.654,2.285 -4.654,5.099 z"
         id="path331"
         inkscape:connector-curvature="0"
         style="fill:#ffffff" /><path
         d="m 158.509,356.07 c 0,1.663 1.44,3.017 3.22,3.017 1.785,0 3.227,-1.354 3.227,-3.017 0,-1.669 -1.442,-3.017 -3.227,-3.017 -1.779,10e-4 -3.22,1.348 -3.22,3.017 z"
         id="path333"
         inkscape:connector-curvature="0" /><path
         d="m 161.511,355.195 c 0,0.287 0.248,0.521 0.56,0.521 0.298,0 0.547,-0.233 0.547,-0.521 0,-0.286 -0.249,-0.52 -0.547,-0.52 -0.313,10e-4 -0.56,0.234 -0.56,0.52 z"
         id="path335"
         inkscape:connector-curvature="0"
         style="fill:#ffffff" /><path
         d="m 168.526,357.636 c -6.797,-4.582 -12.146,-5.781 -12.92,-0.49 0,0 0.011,-8.596 7.129,-6.722 3.221,0.844 3.457,3.952 5.791,7.212 z"
         id="path337"
         inkscape:connector-curvature="0"
         style="fill:#e29282" /><path
         d="m 168.526,357.636 c -6.797,-4.582 -11.451,-6.144 -12.92,0 0,-7.478 7.582,-5.685 12.92,0 z"
         id="path339"
         inkscape:connector-curvature="0" /></g><g
       id="g341"><path
         d="m 182.438,355.558 c 0,2.82 -1.288,5.104 -2.875,5.104 -1.595,0 -2.884,-2.284 -2.884,-5.104 0,-2.817 1.289,-5.101 2.884,-5.101 1.587,0 2.875,2.283 2.875,5.101 z"
         id="path343"
         inkscape:connector-curvature="0"
         style="fill:#ffffff" /><ellipse
         cx="179.56"
         cy="355.76801"
         rx="1.9910001"
         ry="3.017"
         id="ellipse345" /><path
         d="m 179.697,354.896 c 0,0.286 -0.153,0.518 -0.345,0.518 -0.186,0 -0.338,-0.231 -0.338,-0.518 0,-0.288 0.153,-0.522 0.338,-0.522 0.192,-0.001 0.345,0.233 0.345,0.522 z"
         id="path347"
         inkscape:connector-curvature="0"
         style="fill:#ffffff" /><path
         d="m 175.362,357.335 c 4.201,-4.583 7.506,-5.78 7.983,-0.489 0,0 -0.006,-8.595 -4.404,-6.723 -1.99,0.844 -2.137,3.952 -3.579,7.212 z"
         id="path349"
         inkscape:connector-curvature="0"
         style="fill:#e29282" /><path
         d="m 175.362,357.335 c 4.201,-4.583 7.076,-6.144 7.983,0 0,-7.48 -4.684,-5.685 -7.983,0 z"
         id="path351"
         inkscape:connector-curvature="0" /></g><path
       d="m 176.209,370.036 c 0.127,-0.068 0.202,0.068 0.27,0.287 0.039,0.054 0.075,0.106 0.109,0.171 0,0 0.09,0.22 0.089,0.537 0.216,0.638 0.615,1.04 1.853,-0.751 -2.281,4.609 -3.241,5.877 -5.014,5.604 -1.941,0.272 -2.99,-0.995 -5.488,-5.604 2.632,3.484 6.5,-1.507 8.181,-0.244 z"
       id="path353"
       inkscape:connector-curvature="0"
       style="fill:#e06753" /><path
       d="m 154.962,349.855 c 2.247,-1.904 7.424,-2.16 9.768,-1.135 2.343,1.023 2.039,-1.823 0.188,-1.857 -1.85,-0.032 -6.252,-0.745 -9.956,2.992 z"
       id="path355"
       inkscape:connector-curvature="0"
       style="fill:#432918" /><path
       d="m 183.979,351.002 c -1.199,-2.257 -4.665,-3.399 -6.428,-2.797 -1.763,0.602 -1.072,-2.143 0.19,-1.859 1.259,0.289 4.364,0.348 6.238,4.656 z"
       id="path357"
       inkscape:connector-curvature="0"
       style="fill:#432918" /><path
       d="m 178.973,321.805 c 0.187,2.52 -0.307,5.187 -1.312,7.811 -3.747,9.764 -15.073,14.74 -24.639,17.856 -15.868,5.168 -1.736,30.691 -1.736,30.691 0,0 -20.063,-0.227 -24.311,-16.423 -8.435,4.961 -18.187,-11.551 -10.692,-21.781 5.936,-8.09 16.095,-6.102 15.14,0 -0.963,6.098 9.541,-48.286 52.239,-13.338 4.048,3.311 -0.232,25.781 -1.338,19.338 -1.222,-7.117 -0.474,-16.611 -8.69,-16.668"
       id="path359"
       inkscape:connector-curvature="0"
       style="fill:#432918" /><path
       d="m 140.839,361.754 c 0.606,3.104 2.871,5.272 5.059,4.839 2.189,-0.432 3.467,-3.302 2.86,-6.413 -0.607,-3.105 -2.869,-5.275 -5.063,-4.846 -2.184,0.435 -3.469,3.309 -2.856,6.42 z"
       id="path361"
       inkscape:connector-curvature="0"
       style="fill:#f6ac83" /><path
       d="m 181.9,344.439 c -3.66,0 -6.78,2.844 -7.962,6.808 -1.038,-0.398 -2.255,-0.431 -3.267,-0.167 -0.369,0.094 -0.704,0.232 -1.018,0.395 -1.128,-4.082 -4.298,-7.035 -8.033,-7.035 -4.277,0 -7.819,3.882 -8.387,8.898 -3.629,-0.008 -6.079,-0.993 -8.376,0.059 l 1.064,2.567 c 1.508,-0.689 2.434,0.169 7.31,0.177 0.562,5.026 4.104,8.916 8.388,8.916 4.626,0 8.393,-4.531 8.471,-10.136 0.1,-0.688 0.716,-0.993 1.22,-1.124 0.973,-0.251 1.892,0.033 2.14,0.348 -0.01,0.202 -0.025,0.398 -0.025,0.603 0,5.686 3.803,10.31 8.475,10.31 4.676,0 7.962,-4.624 7.962,-10.31 0,-5.685 -3.286,-10.309 -7.962,-10.309 z m -20.28,17.817 c -3.201,0 -5.807,-3.368 -5.807,-7.509 0,-4.14 2.606,-7.509 5.807,-7.509 3.204,0 5.809,3.369 5.809,7.509 0,4.141 -2.605,7.509 -5.809,7.509 z m 20.28,0 c -3.201,0 -5.808,-3.368 -5.808,-7.509 0,-4.14 2.606,-7.509 5.808,-7.509 3.203,0 5.294,3.369 5.294,7.509 0,4.141 -2.091,7.509 -5.294,7.509 z"
       id="path363"
       inkscape:connector-curvature="0"
       style="fill:#010102" /></g><polygon
     points="692.751,207.255 695.39,215.379 703.933,215.379 697.021,220.401 699.662,228.527 692.751,223.505 685.838,228.527 688.478,220.401 681.567,215.379 690.109,215.379 "
     id="polygon365"
     style="fill:#ffde00"
     transform="translate(-7.1528911,-158.0945)" /><polygon
     points="720.657,207.255 723.297,215.379 731.839,215.379 724.929,220.401 727.569,228.527 720.657,223.505 713.746,228.527 716.385,220.401 709.474,215.379 718.016,215.379 "
     id="polygon367"
     style="fill:#ffde00"
     transform="translate(-7.1528911,-158.0945)" /><polygon
     points="748.564,207.255 751.202,215.379 759.746,215.379 752.834,220.401 755.475,228.527 748.564,223.505 741.65,228.527 744.291,220.401 737.38,215.379 745.924,215.379 "
     id="polygon369"
     style="fill:#ffde00"
     transform="translate(-7.1528911,-158.0945)" /><polygon
     points="776.47,207.255 779.111,215.379 787.652,215.379 780.739,220.401 783.381,228.527 776.47,223.505 769.559,228.527 772.2,220.401 765.286,215.379 773.829,215.379 "
     id="polygon371"
     style="fill:#ffde00"
     transform="translate(-7.1528911,-158.0945)" /><polygon
     points="804.376,207.255 807.017,215.379 815.559,215.379 808.648,220.401 811.288,228.527 804.376,223.505 797.465,228.527 800.105,220.401 793.193,215.379 801.736,215.379 "
     id="polygon373"
     style="fill:#706f6f"
     transform="translate(-7.1528911,-158.0945)" /><polygon
     points="488.743,194.109 491.384,202.235 499.927,202.235 493.016,207.256 495.655,215.381 488.743,210.359 481.833,215.381 484.473,207.256 477.563,202.235 486.104,202.235 "
     id="polygon375"
     style="fill:#ffde00"
     transform="translate(-7.1528911,-158.0945)" /><polygon
     points="516.652,194.109 519.292,202.235 527.834,202.235 520.922,207.256 523.562,215.381 516.652,210.359 509.739,215.381 512.379,207.256 505.468,202.235 514.012,202.235 "
     id="polygon377"
     style="fill:#ffde00"
     transform="translate(-7.1528911,-158.0945)" /><polygon
     points="544.557,194.109 547.197,202.235 555.74,202.235 548.829,207.256 551.469,215.381 544.557,210.359 537.645,215.381 540.285,207.256 533.375,202.235 541.918,202.235 "
     id="polygon379"
     style="fill:#ffde00"
     transform="translate(-7.1528911,-158.0945)" /><polygon
     points="572.465,194.109 575.104,202.235 583.647,202.235 576.736,207.256 579.374,215.381 572.465,210.359 565.553,215.381 568.191,207.256 561.28,202.235 569.822,202.235 "
     id="polygon381"
     style="fill:#ffde00"
     transform="translate(-7.1528911,-158.0945)" /><polygon
     points="600.369,194.109 603.01,202.235 611.553,202.235 604.644,207.256 607.282,215.381 600.369,210.359 593.46,215.381 596.098,207.256 589.188,202.235 597.729,202.235 "
     id="polygon383"
     style="fill:#ffde00"
     transform="translate(-7.1528911,-158.0945)" /><g
     id="g385"
     transform="translate(0,-143.56299)" /><g
     id="g387"
     transform="translate(0,-143.56299)" /><g
     id="g389"
     transform="translate(0,-143.56299)" /><g
     id="g391"
     transform="translate(0,-143.56299)" /><g
     id="g393"
     transform="translate(0,-143.56299)" /><g
     id="g395"
     transform="translate(0,-143.56299)" /></svg>