<?xml version="1.0" encoding="utf-8"?>
<!-- Generator: Adobe Illustrator 16.0.0, SVG Export Plug-In . SVG Version: 6.00 Build 0)  -->
<!DOCTYPE svg PUBLIC "-//W3C//DTD SVG 1.1//EN" "http://www.w3.org/Graphics/SVG/1.1/DTD/svg11.dtd">
<svg version="1.1" id="Calque_1" xmlns="http://www.w3.org/2000/svg" xmlns:xlink="http://www.w3.org/1999/xlink" x="0px" y="0px"
	 width="1046px" height="638px" viewBox="0 0 1046 638" enable-background="new 0 0 1046 638" xml:space="preserve">
<path fill="#EDEDED" d="M99.499,547.38c23.927-14.008,124.814,0.921,216.39-35.224c91.577-36.143,375.738-111.11,444.262-27.352
	c68.526,83.762-409.958,108.316-505.039,119.647C160.03,615.785,16.3,596.079,99.499,547.38z"/>
<path fill="#2E1C18" d="M487.843,474.554v11.134l-8.765,2.519v-3.269c0,0-11.163,8.539-43.043,4.728
	c23.422-5.875,30.444-8.334,42.444-17.643L487.843,474.554z"/>
<path fill="#2E1C18" d="M528.248,470.17c-0.875,5.119-2.699,9.584-4.649,11.578l-4.51,28.305
	c4.512,2.965,19.79-22.945,19.796-27.075c0.013-3.963-0.863-8.546-0.653-12.03L528.248,470.17z"/>
<path fill="#A37158" d="M433.536,210.424l62.321,9.545l-1.031-10.689l-62.339-4.77c-6.811,0.041-11.019-3.734-15.469-3.623
	c-4.449,0.111-12.065,5.695-1.686,4.871c4.038-0.32-3.142,4.461-10.902,3.354s-13.592-2.182-10.055,1.454
	c3.538,3.636,2.753,8.719,8.531,9.162C408.685,220.171,418.937,211.176,433.536,210.424z"/>
<path fill="#FFFFFF" d="M484.081,97.74c0.05,1.902,0,3.17,0,3.17s11.438,0.402,13.701-4.286l-7.131,0.803L484.081,97.74z"/>
<path fill="#FFFFFF" d="M484.081,103.021c0.05,1.903,0,3.172,0,3.172s13.137-2.736,15.4-7.424l-8.83,3.94L484.081,103.021z"/>
<path fill="#F6AC83" d="M476.886,158.814c1.886,12.413,3.305,45.798,1.264,48.736c-2.042,2.934,10.886,1.462,10.886,1.462
	s0.928-60.752,4.389-67.383c3.465-6.635-20.124,19.48-20.124,19.48"/>
<path fill="#22323C" d="M479.151,164.716c1.976,12.403-0.368,46.962-2.388,49.91c-2.022,2.95,16.074-2.422,16.074-2.422
	s2.885-60.45,6.302-67.11C502.56,138.433,479.151,164.716,479.151,164.716"/>
<g id="XMLID_1_">
	<g>
		<path fill="#A37158" d="M482.327,98.762c0.125-7.409-7.552-20.658-7.552-21.457c0-0.868,2.509-5.042,3.424-9.846
			c3.903-20.229,37.361-12.155,42.342-1.158c4.981,11.003-7.465,26.053-7.465,26.053s1.239,2.889-3.754,10.413
			c-4.968,7.53-17.47,17.33-24.897,17.365c-4.29,0.029-1.955-11.403-1.955-12.891c0-1.458,14.332-1.678,15.315-10.615
			C492.12,98.119,485.328,100.371,482.327,98.762z"/>
	</g>
	<g>
	</g>
</g>
<path fill="#A37158" d="M483.927,77.413c-0.623,7.329-4.588,16.859-3.652,18.593c0.931,1.739,6.64-0.466,10.376-3.073l-1.244-1.481"
	/>
<path fill="#010102" d="M512.734,87.605h-4.649c0,0,0-4.479,0-12.998c0-1.74-5.603-3.285-6.438-8.88c0,0-10.578,3.667-9.542-1.546
	c0,0-16.19,6.76-11.932-0.961c0,0-6.953,0-6.539-3.28c0.414-3.28,9.62-3.057,12.612-2.968c2.537,0.075-10.951,0.282-9.915-5.708
	c1.041-5.987,30.092,0.768,31.129,4.624c5.19-1.349,18.286,6.159,13.424,22.957C520.885,78.844,514.066,71.278,512.734,87.605z"/>
<path fill="#010102" d="M502.896,77.978c-1.451-7.14-8.306-7.527-12.245-7.334c-3.944,0.194-2.696,3.32,0,3.083
	C495.008,73.344,500.819,73.344,502.896,77.978z"/>
<path fill="#010102" d="M473.929,78.29c0.84-7.141,4.804-7.528,7.089-7.334c2.279,0.194,1.563,3.321,0,3.087
	C478.491,73.661,475.127,73.661,473.929,78.29z"/>
<path fill="none" stroke="#432918" stroke-width="0.01" stroke-miterlimit="10" d="M490.651,80.004
	c0.417,2.121,5.814,3.855,6.225,5.208"/>
<path fill="none" stroke="#432918" stroke-width="0.01" stroke-miterlimit="10" d="M483.045,80.004
	c-0.248,2.121-3.484,3.855-3.736,5.208"/>
<path fill="#714032" d="M477.367,70.609c0.833-3.142,4.151-6.036,6.019-6.422c1.868-0.386-1.695-3.919-1.695-3.919
	S476.532,62.948,477.367,70.609z"/>
<path d="M495.519,79.043c0,0.901-0.785,1.629-1.754,1.629c-0.966,0-1.755-0.728-1.755-1.629c0-0.902,0.789-1.631,1.755-1.631
	C494.734,77.413,495.519,78.141,495.519,79.043z"/>
<ellipse fill="#010102" cx="494.067" cy="78.29" rx="0.302" ry="0.278"/>
<path fill="#010102" d="M482.328,79.043c0,0.901-0.786,1.629-1.749,1.629c-0.974,0-1.757-0.728-1.757-1.629
	c0-0.902,0.783-1.631,1.757-1.631C481.542,77.413,482.328,78.141,482.328,79.043z"/>
<path fill="#FFFFFF" d="M481.176,78.29c0,0.154-0.134,0.278-0.302,0.278c-0.165,0-0.295-0.124-0.295-0.278
	c0-0.153,0.13-0.282,0.295-0.282C481.042,78.008,481.176,78.136,481.176,78.29z"/>
<path fill="#A37158" d="M516.38,87.605c-7.052,15.169-1.209,32.884-1.209,32.884c4.086,5.074,30.903,23.404,30.903,23.404
	l-30.903,33.742l-23.057-11.541c0,0,7.609-30.461,7.609-32.423c0-9.35-0.258-15.391-3.085-19.782"/>
<path fill="none" stroke="#E6332A" stroke-miterlimit="10" d="M543.916,252.228"/>
<path fill="#706F6F" d="M475.219,230.672c-3.694,26.843-1.549,73.285,0.338,118.694c1.761,42.354,3.296,83.811-0.338,107.641
	c0,0,4.709,7.409,0,17.286h12.946c0,0,4.198-53.266,6.888-124.92c0.024-0.631-0.089,0.624,0,0
	c8.447-60.71,12.332-109.083,10.481-116.763L475.219,230.672z"/>
<path fill="#575756" d="M510.528,281.846c4.886,25.966,4.514,50.427,8.248,82.358c4.304,36.822,7.807,71.007,10.004,92.378
	c0.332,3.202-0.637,13.171-1.107,21.811h12.652c0,0-1.363-56.572-3.256-115.556c-1.957-60.828-3.51-125.129-2.086-130.521
	c0,0-40.491-24.315-49.807-24.351c-9.319-0.039,0.219,44.828,0.219,44.828S505.127,253.178,510.528,281.846z"/>
<path fill="#DADADA" d="M530.717,213.829c-1.047-10.08,21.154-74.95,21.154-74.95c-9.381-6.948-22.294-9.019-29.589-16.665
	l-3.206-7.041l-16.742,11.796l0,0l0,0l-4.962-6.399l-0.06,10.009l0,0c-9.266,4.524-24.112,11.496-24.112,11.496
	c3.546,15.407,4.433,59.927,3.403,70.1c-1.03,10.177-6.743,38.929-4.302,39.176c22.224,2.23,51.357,2.37,65.468-3.125
	c0,0-0.666-9.649-2.405-14.168C533.629,229.543,531.758,223.902,530.717,213.829z"/>
<path fill="#F6AC83" d="M538.361,159.449c3.52,12.051,9.37,44.948,7.736,48.13c-1.631,3.182,10.985,0,10.985,0
	s-7.166-60.331-4.612-67.368c2.553-7.037-17.359,21.987-17.359,21.987"/>
<path fill="#9FD0DB" d="M535.111,162.199c3.524,12.051,3.212,4.178,1.581,7.358c-1.636,3.182,20.268-2.844,20.268-2.844
	s-7.043-19.464-4.489-26.501C555.023,133.175,535.111,162.199,535.111,162.199"/>
<polyline fill="none" stroke="#2D5E70" stroke-width="0.05" stroke-miterlimit="10" points="505.333,131.629 510.483,133.113 
	522.282,122.214 "/>
<polyline fill="none" stroke="#2D5E70" stroke-width="0.05" stroke-miterlimit="10" points="500.458,132.375 497.357,133.792 
	497.312,130.579 "/>
<path fill="#A37158" d="M520.221,83.821c-1.239,4.627-3.771,8.027-5.649,7.595c-1.883-0.436-2.403-4.543-1.165-9.172
	c1.241-4.633,3.766-8.038,5.649-7.602C520.935,75.078,521.46,79.187,520.221,83.821z"/>
<polygon fill="#706F6F" points="435.056,201.298 495.02,208.539 489.367,225.34 431.986,212.287 "/>
<path fill="#575756" d="M528.574,123.611c8.348,6.928,12.567,9.351,23.297,15.645c0,0-22.349,65.817-21.154,74.951
	c1.188,9.126,2.277,14.394,4.266,18.487c1.986,4.093,2.787,15.908,2.787,15.908s-28.37,6.549-42.052,8.105
	c-7.577,0.861-6.126-21.315-6.328-27.57c0,0,1.475,19.206-1.053,23.61c-2.525,4.406-16.833,2.201-19.611,2.519
	c-2.782,0.317,5.906-36.219,5.33-42.83c-0.58-6.609,1.908-56.952-3.225-68.047c-1.601-3.463,18.153-6.738,22.586-15.361
	c-2.04,9.439-11.581,33.365-5.619,70.827C487.798,199.854,511.092,165.429,528.574,123.611z"/>
<path fill="#F6AC83" d="M492.192,185.303l60.753,14.799l-4.004,8.244l-59.406-18.656c-6.333-2.49-11.325-0.966-15.438-2.663
	c-4.11-1.694-9.615-8.945-0.185-4.535c3.67,1.714-1.657-4.731-9.197-6.637c-7.541-1.908-13.28-3.147-8.951-4.802
	c4.329-1.655,5.044-6.035,10.551-4.307C471.825,168.475,478.813,179.426,492.192,185.303z"/>
<path fill="#575756" d="M540.324,170.341c3.574,11.016,5.188,25.995,3.201,28.829c-1.988,2.831,16.829,16.34,16.829,16.34
	s-3.295-67.156-8.483-76.631C548.486,132.694,540.324,170.341,540.324,170.341"/>
<polygon fill="#575756" points="488.539,192.115 560.354,215.51 556.389,198.568 489.653,182.296 "/>
<g>
	<polygon fill="#E6332A" points="503.457,138.339 486.383,187.84 487.798,199.478 502.08,176.259 505.333,138.339 505.333,131.629 
		502.334,126.969 500.458,132.375 	"/>
</g>
<g>
	<path fill="#22323C" d="M522.65,186.862c-21.077,3.308-30.211-8.374-39.016-10.838c-10.531-2.951-30.52-5.892-45.099-5.061
		c-3.031,0.172-7.498,1.252-9.878,2.235c-3.502,1.441-8.55,12.831-13.909,16.769c-20.453,1.903-50.318-5.616-48.863,18.157
		c10.667,1.306,23.134,0.801,35.01,0.893c3.407-4.092,7.865-1.179,10.572,2.543c1.043,1.432,1.825,2.984,2.193,4.3
		c24.951-0.568,51.013-0.017,75.957-0.593c0,0,5.11-0.122,8.828-0.259c0.022-0.013,0.048-0.027,0.076-0.039
		c1.238-0.52,2.106-0.274,3.053-0.11c0.214-0.015,0.405,0.018,0.586,0.079c0.577,0.057,1.213,0.026,1.979-0.264
		c-0.05-0.126-0.098-0.264,0.021-0.004l2.742-0.012c-0.221-0.479-0.338,0.271-0.366-0.282c1.541-0.041,2.608-0.559,4.152-0.597
		c0.06,0.163,0.064,0.091,0.056-0.016l2.318-0.581c-0.049-0.46,0.013-0.195,0.043,0C530.168,211.697,530.977,185.556,522.65,186.862
		z M410.986,195.031c-8.148,0.578-16.116,1.229-21.663,2.38c0.774,2.054,1.138,6.488-0.593,7.738
		c-2.801-1.09-2.455-6.774-0.591-8.631c7.013-1.118,15.37-2.078,23.739-2.676c8.008-0.572,16.764-0.015,21.661-4.461
		C431.334,194.311,420.368,194.368,410.986,195.031z M419.737,188.85c0.555-1.364,8.691-12.374,9.25-13.241
		c3.715-0.319,7.471-0.597,11.328-0.777c-2.331,4.992-4.654,8.967-5.885,13.658C428.292,188.385,425.243,188.319,419.737,188.85z
		 M439.769,188.489c-0.342-2.032,0.8-2.572,1.482-3.573c1.957-1.056,6.937,3.047,7.418,4.007
		C447.09,188.922,441.352,188.489,439.769,188.489z M454.901,188.785c1.292-0.005,2.668-0.099,3.561,0.298L454.901,188.785z
		 M464.098,189.083l-13.052-0.594c-2.784-2.165-8.639-8.159-11.869-3.573c-0.665,0.942-0.228,2.848-1.78,3.573
		c1.785-6.421,4.136-10.825,4.993-13.658c6.861,0.404,15.907,0.542,22.852,1.786c0.448,4.908,1.859,9.242,2.123,12.764
		C466.275,189.283,464.739,189.634,464.098,189.083z M469.144,189.677c-0.549-3.818-1.294-8.152-2.422-12.762
		c6.734,0.391,11.082,1.41,17.434,2.184c0.62,2.427,2.693,6.761,5.461,12.188L469.144,189.677z M491.867,191.258l-5.284-11.435
		c5.812,3.78,5.759,3.667,9.773,11.435H491.867z M516.966,190.605c-0.067-0.341,0.035-0.532,0.262-0.609
		c1.742-0.114,7.414-2.052,7.478,0.763C523.024,190.904,518.622,191.527,516.966,190.605z"/>
	<path fill="#22323C" d="M379.801,194.982c-3.303,1.609-6.871,3.061-10.091,5.057c-0.912,0.568-1.8,1.816-2.969,1.49
		c0.25-1.059,0.088-3.431-0.888-4.166c-3.218,0.133-0.967,5.078-1.484,6.548c-2.235-1.545-1.042-6.541,0.594-7.74
		C369.734,195.786,375.479,194.831,379.801,194.982"/>
	<path fill="#FAEA27" d="M366.536,200.595c0,1.56-0.526,2.83-1.171,2.83c-0.65,0-1.177-1.271-1.177-2.83
		c0-1.566,0.527-2.831,1.177-2.831C366.01,197.764,366.536,199.029,366.536,200.595"/>
	<path fill="#010202" d="M403.962,209.316c-5.464,2.214,0.139,12.568,3.863,12.496C414.119,221.694,411.168,206.396,403.962,209.316
		 M404.558,213.482c1.291-3.249,7.033,1.966,3.855,4.761C406.501,219.567,403.684,215.673,404.558,213.482"/>
	<path fill="#22323C" d="M393.853,215.863h6.848c-0.303-1.286-0.77-2.404-0.595-4.167c-12.267,0.05-26.593,0.532-37.685-1.487
		c-0.709-0.376,0.165-2.347-0.591-2.675c-0.931,1.237-0.234,2.585,0.294,3.866c7.894,0.318,13.126,3.302,20.773,3.869
		C388.512,215.24,393.853,215.863,393.853,215.863"/>
	<path fill="#010202" d="M388.235,219.135c2.156-0.295,1.852-2.29,3.563-3.273h2.054c0,0-5.339-0.622-10.956-0.595
		C383.786,217.316,385.9,219.458,388.235,219.135"/>
	<path fill="#010202" d="M506.462,209.316c-5.463,2.214,0.133,12.568,3.857,12.496C516.618,221.694,513.663,206.396,506.462,209.316
		 M507.056,213.482c1.292-3.249,7.032,1.966,3.855,4.761C508.999,219.567,506.182,215.673,507.056,213.482"/>
	<path fill="#FAEA27" d="M389.445,201.112c0,1.734-0.481,3.138-1.07,3.138c-0.592,0-1.073-1.404-1.073-3.138
		c0-1.733,0.481-3.138,1.073-3.138C388.964,197.974,389.445,199.379,389.445,201.112"/>
</g>
<path fill="#A37158" d="M492.192,185.303l60.753,14.799l-4.004,8.244l-59.406-18.656c-6.333-2.49-11.325-0.966-15.438-2.663
	c-4.11-1.694-9.615-8.945-0.185-4.535c3.67,1.714-1.657-4.731-9.197-6.637c-7.541-1.908-13.28-3.147-8.951-4.802
	c4.329-1.655,5.044-6.035,10.551-4.307C471.825,168.475,478.813,179.426,492.192,185.303z"/>
<path fill="#575756" d="M540.324,170.341c3.574,11.016,5.188,25.995,3.201,28.829c-1.988,2.831,16.829,16.34,16.829,16.34
	s-3.295-67.156-8.483-76.631C548.486,132.694,540.324,170.341,540.324,170.341"/>
<polygon fill="#575756" points="488.539,192.115 560.354,215.51 556.389,198.568 489.653,182.296 "/>
<g>
	<path fill="#192229" d="M609.078,233.728c13.809-4.72,30.814-9.251,39.606-14.4c11.351-6.647,13.423-20.944-2.443-14.941
		c-12.868,4.869-24.67,18.435-38.979,20.814L609.078,233.728z"/>
	<path fill="#F6AC83" d="M601.676,218.182c-4.966,1.259-11.352-4.078-15.527-3.916c-2.197,0.084-4.977,1.261-4.977,1.261
		c1.14,1.21,3.384,0.475,5.412,0.46c2.027-0.015,3.43,0.994,0.557,2.501c-3.087,1.618-5.926,3.781-13.868,2.677l4.456,7.725
		c10.613,0.475,15.479-5.294,24.884-6.306"/>
	<g>
		<path fill="#B72E20" d="M689.17,66.15c3.427,4.434,2.701,7.753-6.449,12c-2.332,1.081-1.074,0.756,0,2.702
			c1.072,1.946,3.223,9.515,1.072,12.001c-1.433-4.216-9.95,0.282-2.599,7.677c1.614,1.621,0,4.215,0.897,6.162
			c0.895,1.945,6.809,7.892,0.449,13.081c-11.171,9.112-26.653-2.511-28.191-11.042c-1.38-7.661,0.858-10.798,7.224-12.96
			c3.077-1.046,7.659-3.459,8.893-8.649c1.23-5.189-0.741-12.221,6.069-15.352C678.296,70.962,682.986,58.15,689.17,66.15z"/>
		<path fill="#F6AC83" d="M685.541,115.197c-16.413,3.974-20.585-6.213-24.024-14.415c-0.575-3.43-0.955-6.474,1.189-7.69
			c7.483-4.251,7.307-16.571,17.754-20.935c10.448-4.363,17.142,1.267,23.609,9.498c4.472,5.697,2.268,17.397-5.111,25.52"/>
		<path fill="#010102" d="M655.013,484.557v7.586l-5.671,1.712v-2.225c0,0-15.195,9.519-35.794,6.915
			c-13.846-5.021,26.5-7.907,32.5-15.984L655.013,484.557z"/>
		<path fill="#010102" d="M694.063,483.204c-2.007,2.99-2.8,6.757-4.132,8.327c0,0-2.502,21.14,2.444,20.614
			c6.283-0.661,10.659-18.96,10.153-21.614c-0.506-2.663-1.811-5.637-2.093-7.994L694.063,483.204z"/>
		<g>
			<path fill="#FFFFFF" d="M688.674,91.804c0,2.073-2.215,3.753-4.942,3.753c-2.736,0-4.95-1.68-4.95-3.753
				c0-2.072,2.214-3.753,4.95-3.753C686.459,88.051,688.674,89.732,688.674,91.804z"/>
			<path d="M685.82,91.432c0,1.524-1.326,2.759-2.963,2.759c-1.642,0-2.969-1.235-2.969-2.759c0-1.523,1.327-2.758,2.969-2.758
				C684.494,88.673,685.82,89.909,685.82,91.432z"/>
			<ellipse fill="#FFFFFF" cx="681.467" cy="91.431" rx="0.509" ry="0.475"/>
			<path fill="#C29183" d="M677.124,92.867c5.08-4.193,8.292-5.492,11.896-0.45c0,0,0.293-6.285-6.264-4.575
				C679.792,88.616,679.271,89.886,677.124,92.867z"/>
			<path d="M677.124,92.867c4.025-4.869,10.546-5.62,11.896,0C685.416,86.576,682.438,90.016,677.124,92.867z"/>
		</g>
		<g>
			
				<ellipse transform="matrix(-0.9783 -0.2071 0.2071 -0.9783 1300.7644 317.3471)" fill="#FFFFFF" cx="666.994" cy="90.583" rx="2.75" ry="3.283"/>
			<ellipse transform="matrix(-0.9783 -0.207 0.207 -0.9783 1299.9985 316.3484)" cx="666.551" cy="90.158" rx="2.229" ry="2.413"/>
			
				<ellipse transform="matrix(-0.9784 -0.2068 0.2068 -0.9784 1297.691 315.4122)" fill="#FFFFFF" cx="665.327" cy="89.898" rx="0.481" ry="0.416"/>
			<path fill="#C29183" d="M670.64,92.306c-2.195-4.214-3.828-5.722-6.839-1.849c0,0,1.657-6.789,5.473-3.079
				C669.712,87.803,669.933,89.491,670.64,92.306z"/>
			<path d="M670.64,92.306c-1.459-4.663-5.115-6.108-6.919-1.465C666.954,85.901,668.064,89.211,670.64,92.306z"/>
		</g>
		<path fill="#A36647" d="M663.692,87.321c1.136-2.069,4.395-3.119,6.053-2.572c1.659,0.546,1.015-1.962-0.173-1.698
			C668.387,83.314,665.465,83.375,663.692,87.321z"/>
		<path fill="#A36647" d="M688.772,87.231c-1.667-2.103-6.207-3.229-8.463-2.72c-2.26,0.51-1.494-1.992,0.154-1.699
			C682.11,83.103,686.138,83.232,688.772,87.231z"/>
		<path fill="#192229" d="M643.338,484.805c0-4.862,5.698-81.576,8.409-89.017c1.947-5.351,0.366-7.78-0.12-10.213
			c-0.491-2.435,2.465-8.76,0.516-18c-1.951-9.242-3.93-36.968-0.029-64.697c3.897-27.728,4.491-43.779,3.708-49.129
			c-0.785-5.352,26.024,19.455,26.51,42.318c0.489,22.861-11.304,69.078-12.764,77.831c-1.463,8.755,2.528,34.539,1.066,46.212
			c-1.461,11.675-16.977,52.534-15.764,64.212"/>
		<path fill="#192229" d="M665.377,155.764c-5.846,17.726-12.67,48.385-16.568,55.572c-3.9,7.185-4.876,5.748-3.415-14.852
			c1.463-20.599,2.279-51.738,9.67-57.965c7.392-6.228,11.292,0,10.313,4.79C664.403,148.1,665.377,155.764,665.377,155.764z"/>
		<path fill="#F6AC83" d="M707.265,93.92c1.036,7.168-6.712,16.21-17.156,19.571c-1.112,13.704-1.197,27.356,6.537,31.974
			l-22.138,57.602l-21.658-12.366l4.631-43.683l9.193-6.468c0,0,4.951-6.481,7.806-26.799"/>
		<path fill="#F6AC83" d="M665.708,83.202"/>
		<path fill="#B72E20" d="M682.206,63.441c-4.771,4.884-3.761,8.541,8.984,13.219c3.245,1.191,1.497,0.833,0,2.977
			c-1.495,2.144,2.186,10.48,5.18,13.219c1.995-4.645,13.857,0.311,3.619,8.456c-2.248,1.787-6.677,4.644-7.924,6.788
			c-1.246,2.143-9.484,8.693-0.625,14.409c15.554,10.038,37.116-2.765,39.257-12.162c1.921-8.44-1.194-11.893-10.059-14.275
			c-4.286-1.153-10.667-3.811-12.384-9.528c-1.716-5.716,1.031-13.461-8.452-16.911C697.351,68.742,690.819,54.629,682.206,63.441z"
			/>
		<path fill="#FFFFFF" d="M667.289,101.518c4.412,3.684,13.685-0.436,13.685,0.084c0,0.518-2.663,1.98-5.008,2.59
			c-3.589,0.934-6.84,1.358-8.677-0.762C665.452,101.31,664.32,99.039,667.289,101.518z"/>
		<path fill="#FFFFFF" d="M690.268,137.109c0,0-23.52,14.625-28.11,29.245c1.163-14.675,5.839-28.097,5.839-28.097L644.75,182.97
			l8.1,20.097l18.383,6.614L690.268,137.109z"/>
		<path fill="#22323C" d="M710.7,159.417c-5.848,13.893-31.544,49.365-20.433,70.287c2.814,5.299,9.614,13.787,16.437,30.816
			c6.822,17.031-51.288,13.112-51.288,13.112s0.103-29.407,0-40.633c-0.277-29.932-15.488-44.553-13.051-54.613
			c2.435-10.06,15.707-32.41,21.477-42.386c3.524-6.094,2.438-8.645,0-9.125c-2.438-0.479,9.507-3.008,9.507-3.008l-1.023,7.798
			c0,0-22.162,28.996-15.338,58.218c3.41-14.372,23.097-44.854,26.983-48.687c3.888-3.834-3.346-9.198-5.293-10.156
			c3.898-7.185,9.914-5.791,13.816-6.749c-0.976,9.58-0.976,9.58-0.976,9.58s22.008,3.795,24.93,10.501
			C719.374,151.08,710.7,159.417,710.7,159.417z"/>
		<path fill="#22323C" d="M704.396,484.805c-2.436-14.595,10.665-55.452,6.77-79.287c-3.899-23.833-5.923-20.432-5.923-29.188
			c0-8.755,11.697-77.828,4.385-107.015c-7.313-29.186-36.066-42.321-35.093,10.213c0.977,52.537,11.917,81.767,13.808,101.209
			c1.548,15.971,3.038,94.732,0.473,104.066"/>
		<path fill="#22323C" d="M705.408,163.223c13.954,18.384,36.911,58.078,44.26,64.737c7.349,6.655,13.726,0.73,3.415-23.404
			c-10.306-24.135-27.029-58.371-37.841-62.059c-10.811-3.687-12.499,5.864-9.399,11.147
			C708.941,158.927,705.408,163.223,705.408,163.223z"/>
		<path fill="#FFFFFF" d="M725.655,66.846c2.395-0.371,5.007-2.074,5.007-2.592c0-0.519-3.049,1.555-5.877,1.297"/>
	</g>
	<g>
		<path fill="#010102" d="M560.857,223.414c-3.084,1.502-6.413,2.862-9.42,4.732c-0.854,0.529-1.676,1.695-2.77,1.389
			c0.232-0.986,0.076-3.206-0.83-3.896c-3.005,0.127-0.904,4.75-1.383,6.125c-2.087-1.445-0.977-6.119,0.553-7.238
			C551.458,224.163,556.826,223.272,560.857,223.414"/>
		<path fill="#FFFFFF" d="M693.84,237.886c-1.571,0.045-5.711,0.39-7.199-0.557c-0.049-0.325,0.059-0.498,0.27-0.558
			C688.541,236.762,693.935,235.252,693.84,237.886"/>
		<path d="M579.978,240.948c1.202-3.041,6.562,1.834,3.599,4.449C581.788,246.637,579.162,242.996,579.978,240.948 M579.422,237.051
			c-5.1,2.071,0.125,11.755,3.604,11.688C588.902,248.626,586.147,234.319,579.422,237.051"/>
		<path fill="#010102" d="M565.755,225.916c5.176-1.076,12.615-1.687,20.222-2.225c8.755-0.623,18.992-0.678,21.055-5.287
			c-4.572,4.158-12.745,3.638-20.223,4.174c-7.813,0.559-15.615,1.456-22.163,2.504c-1.739,1.738-2.065,7.053,0.554,8.074
			C566.814,231.985,566.475,227.836,565.755,225.916 M602.322,192.521c-3.498,8.642-7.306,16.969-10.806,25.607
			c5.141-0.496,10.621-0.656,16.347-0.558c1.942-8.81,4.814-16.688,6.37-25.886C610.175,191.877,606.225,192.172,602.322,192.521
			 M637.505,193.357c-6.479-1.165-14.928-1.292-21.328-1.673c-2.249,8.225-3.676,17.281-5.54,25.886
			c1.445-0.675,1.037-2.458,1.657-3.34c3.021-4.291,8.485,1.316,11.083,3.34l12.188,0.558c0.598,0.515,2.03,0.186,3.046,0.276
			C638.259,210.039,637.951,201.63,637.505,193.357 M655.167,195.676c-5.933-0.722-9.989-1.674-16.277-2.039
			c0.533,8.279,0.566,17.054,1.386,25.044l26.611,2.095C662.901,213.125,657.24,203.896,655.167,195.676 M630.303,218.128
			c-0.832-0.375-2.114-0.286-3.32-0.281L630.303,218.128z M612.851,217.57c1.473,0,6.831,0.405,8.311,0.405
			c-0.45-0.897-5.098-4.733-6.928-3.745C613.593,215.166,612.531,215.672,612.851,217.57 M693.007,235.101
			c-15.126,3.962-98.455,2.171-106.581,2.161c-2.529-3.484-6.688-4.319-9.871-0.49c-11.088-0.083-22.727,0.387-32.688-0.837
			c9.398-11.519,26.058-15.747,45.157-17.53c3.495-6.621,6.241-12.984,9.419-20.039c1.567-3.48,2.691-7.5,6.096-8.907
			c2.223-0.916,5.206-1.228,8.031-1.39c13.616-0.778,32.276,1.973,42.107,4.73c8.224,2.309,7.76,28.109,24.662,31.45
			c6.362,1.259,11.995,4.424,13.837,10.811C693.121,235.075,693.064,235.084,693.007,235.101"/>
		<path d="M694.021,237.886c0.096-2.634-5.295-1.124-6.923-1.115c-0.216,0.06-0.32,0.233-0.273,0.558
			C688.312,238.276,692.452,237.931,694.021,237.886"/>
		<path fill="#010102" d="M569.979,243.171h6.391c-0.277-1.198-0.711-2.249-0.553-3.894c-11.45,0.046-24.83,0.492-35.186-1.392
			c-0.659-0.353,0.154-2.194-0.551-2.503c-0.869,1.158-0.217,2.418,0.277,3.614c7.365,0.3,12.258,3.089,19.393,3.618
			C564.994,242.59,569.979,243.171,569.979,243.171"/>
		<path d="M564.735,246.235c2.013-0.276,1.724-2.144,3.321-3.063h1.922c0,0-4.984-0.581-10.229-0.556
			C560.578,244.533,562.554,246.535,564.735,246.235"/>
		<path fill="#010102" d="M693.191,235.101c-0.005-0.014-0.008-0.026-0.015-0.041c-0.056,0.015-0.112,0.024-0.17,0.041
			c-15.126,3.962-98.455,4.06-106.581,4.05c0.977,1.337,1.704,2.791,2.047,4.021c23.297-0.53,47.626-0.018,70.919-0.556
			c0,0,4.771-0.113,8.24-0.238c0.025-0.014,0.044-0.028,0.07-0.036c1.154-0.488,1.97-0.259,2.854-0.105
			c0.196-0.015,0.378,0.015,0.545,0.071c0.548,0.056,1.139,0.03,1.868-0.249c0.154,0.447-0.213-0.468,0,0l2.559-0.01
			c-0.205-0.451-0.314,0.253-0.343-0.265c1.442-0.039,2.438-0.52,3.876-0.558c0.142,0.383-0.031-0.633,0,0l2.219-0.557
			c-0.076-0.746,0.147,0.545,0,0c2.681,0.075,5.498-1.601,8.313-1.952c1.707-0.207,4.454,0.931,5.262-1.111
			C695.223,235.853,693.379,236.311,693.191,235.101"/>
		<path fill="#FFFFFF" d="M686.824,237.33c-0.047-0.325,0.058-0.498,0.273-0.558c1.628-0.009,7.019-1.52,6.923,1.115
			C692.452,237.931,688.312,238.276,686.824,237.33"/>
		<path d="M671.101,242.312c-0.167-0.062-0.349-0.091-0.545-0.077C670.733,242.266,670.915,242.29,671.101,242.312"/>
		<path d="M659.392,242.615c0.635,0.703,1.189,1.445,1.797,2.034c0.894,0.868,1.905,1.415,3.473,1.027
			c0.967-0.238,1.31-0.861,1.607-1.524c0.3-0.683,0.551-1.396,1.361-1.775C664.165,242.502,659.392,242.615,659.392,242.615"/>
		<path d="M675.673,240.948c1.205-3.041,6.564,1.834,3.6,4.449C677.485,246.637,674.857,242.996,675.673,240.948 M675.114,237.051
			c-5.097,2.071,0.127,11.755,3.603,11.688C684.602,248.626,681.841,234.319,675.114,237.051"/>
		<path fill="#FFED00" d="M565.865,229.38c0,1.616-0.446,2.933-1.001,2.933c-0.552,0-0.997-1.317-0.997-2.933
			c0-1.625,0.445-2.937,0.997-2.937C565.419,226.443,565.865,227.755,565.865,229.38"/>
		<path fill="#FFED00" d="M548.461,228.146c0,1.619-0.446,2.933-0.998,2.933c-0.555,0-1-1.314-1-2.933c0-1.624,0.445-2.938,1-2.938
			C548.015,225.208,548.461,226.522,548.461,228.146"/>
	</g>
	<path fill="#192229" d="M695.767,242.731c16.943-2.096,52.843-3.032,60.324-12.512c8.726-11.052,2.382-14.71-9.46-12.118
		c-15.761,3.449-33.436,15.16-50.196,14.469L695.767,242.731z"/>
	<path fill="#F6AC83" d="M696.344,235.604c-2.296,1.127-6.817-1.929-12.552-0.696c-1.645,0.353-4.893,2.561-4.893,2.561
		c3.172,2.052,6.453-0.988,7.972-0.349c1.409,0.593-0.471-0.87-2.575,0.433c-2.831,1.752-8.998,1.145-14.818,0.566l4.229,3.868
		c8.531,3.512,15.355,2.228,22.331-0.412"/>
</g>
<g>
	<radialGradient id="SVGID_1_" cx="183.5625" cy="235.2852" r="25.9004" gradientUnits="userSpaceOnUse">
		<stop  offset="0" style="stop-color:#22333D"/>
		<stop  offset="1" style="stop-color:#192229"/>
	</radialGradient>
	<path fill="url(#SVGID_1_)" d="M187.721,199.852c8.46,7.27-0.85,56.036-1.23,61.279c-0.375,5.237-9.706,16.47-10.448,4.959
		c-0.73-11.511,1.025-54.409,1.025-54.409S184.349,196.955,187.721,199.852z"/>
	<radialGradient id="SVGID_2_" cx="202.7466" cy="248.0596" r="22.6047" gradientUnits="userSpaceOnUse">
		<stop  offset="0" style="stop-color:#22333D"/>
		<stop  offset="1" style="stop-color:#192229"/>
	</radialGradient>
	<path fill="url(#SVGID_2_)" d="M222.615,226.659c-13.009,8.471-29.335,17.635-37.115,25.153
		c-10.037,9.705-8.771,24.447,6.04,14.141c12.018-8.367,20.877-25.052,34.955-31.345L222.615,226.659z"/>
	<path fill="#F6AC83" d="M225.313,232.184c4.821-2.618,12.47,0.521,16.706-0.838c2.24-0.721,4.839-2.627,4.839-2.627
		c-1.417-0.8-3.566,0.54-5.644,1.145c-2.069,0.6-3.707,0.06-1.087-2.181c2.83-2.41,5.284-5.254,13.638-6.525l-6.167-5.931
		c-10.961,2.636-14.745,9.439-24.161,13.114"/>
	<path fill="#F6AC83" d="M192.085,561.446c4.508,1.521,6.173,0.491,6.625-1.776c-0.589-0.586-14.155-11.286-14.155-16.298
		c0-5.011-9.275-84.014-11.927-91.679c-1.907-5.508,0.806-8.014,1.282-10.517c0.477-2.507-0.805-9.018,1.103-18.538
		s4.773-38.072,0.955-66.632c-3.816-28.552-4.401-45.084-3.633-50.593c0.771-5.514-25.471,20.035-25.948,43.581
		c-0.479,23.547,10.797,71.142,12.228,80.157c1.43,9.016-2.21,35.567-0.778,47.593c1.432,12.023,19.676,54.102,18.487,66.13
		c0,0-1.759,1.329-4.304,3.836C177.819,551.411,185.862,559.345,192.085,561.446"/>
	<path fill="#19313C" d="M187.395,566.373c0.013,0.013,0.022,0.021,0.022,0.021C187.682,566.484,187.488,566.405,187.395,566.373"/>
	<path fill="#19313C" d="M187.417,566.395c0,0-0.009-0.009-0.022-0.02C187.349,566.358,187.328,566.355,187.417,566.395"/>
	<path fill="#E52629" d="M172.628,565.602h3.56c-0.649-2.698-0.865-6.468-0.942-7.163c-0.154-1.34,11.724,7.485,12.149,7.935
		c0.094,0.032,0.243,0.194,0.022,0.021c6.846,5.317,19.891,3.028,20.247-0.242c0.298-2.759-5.546-3.088-8.953-6.482
		c-0.454,2.268-2.12,3.298-6.624,1.776c-6.222-2.102-14.268-10.035-20.067-14.736c-1.285,1.266-2.255,2.832-2.255,4.682
		C169.764,556.899,172.628,565.602,172.628,565.602"/>
	<path fill="#F6AC83" d="M140.447,567.301c0.931-0.302,1.646-2.83,2.1-5.019c-4.247-7.347-2.509-17.538-5.223-27.924
		c-2.51-9.619-1.91-31.564-2.864-48.601c-0.643-11.499,1.017-34.146,2.534-50.594c1.848-20.023,16.072-49.096,17.026-103.199
		c0.952-54.109-27.193-40.579-34.351-10.521c-7.155,30.058,2.774,101.194,2.774,110.212c0,9.021-0.241,5.513-4.054,30.06
		c-3.816,24.545,13.209,66.127,10.823,81.16c-1.147,7.227-1.518,13.282-1.439,18.083c0.78,1.827,1.801,3.774,3.03,5.117
		C133.774,569.322,138.768,567.846,140.447,567.301"/>
	<path fill="#E52629" d="M147.219,576.718c2.426-1.239-1.787-10.805-1.787-10.805c-1.191-1.109-2.131-2.327-2.885-3.634
		c-0.454,2.189-1.169,4.72-2.1,5.023c-1.679,0.543-6.673,2.02-9.645-1.227c-1.229-1.343-2.25-3.29-3.03-5.117
		c0.085,5.177,0.697,8.892,1.439,10.97C130.644,575.934,143.057,581.491,147.219,576.718"/>
	<g>
		<path fill="#E52629" d="M174.682,282.749c2.014,0.692,5.283,0.132,7.808,0.312c1.116-4.327,4.698-9.247,9.993-8.119
			c3.354,0.716,3.936,4.205,4.374,8.432c4.278-0.199,9.356,0.402,13.118-0.313c-1.455-7.352-4.719-14.947-9.682-18.737
			c-2.479-1.892-8.059-2.658-11.868-0.939C181.706,266.419,176.731,275.515,174.682,282.749"/>
		<path fill="#E52629" d="M233.083,282.748c5.869-0.023,10.041,0.172,15.617,0c0.773-8.821,15.506-13.194,15.303,0
			c4.9-0.166,9.984,0.27,14.054,0c-2.755-10.248-9.142-18.921-21.239-18.113C244.776,265.442,237.796,274.424,233.083,282.748
			 M270.875,277.126c-2.938,0.897-6.063-3.936-3.436-6.871C271.945,269.218,274.135,276.129,270.875,277.126"/>
		<path fill="#FAEA27" d="M317.136,276.258c0.004-0.252,0.315-0.197,0.517-0.259c1.962-2.741-2.098-6.906-4.132-4.128
			C313.336,274.722,314.599,276.127,317.136,276.258"/>
		<path fill="#FAEA27" d="M267.806,270.888c-2.142,2.396,0.405,6.34,2.803,5.607C273.274,275.681,271.487,270.044,267.806,270.888"
			/>
		<radialGradient id="SVGID_3_" cx="256.0156" cy="283.8599" r="6.8036" gradientUnits="userSpaceOnUse">
			<stop  offset="0" style="stop-color:#22333D"/>
			<stop  offset="1" style="stop-color:#192229"/>
		</radialGradient>
		<path fill="url(#SVGID_3_)" d="M258.38,276.815c-3.958-0.908-9.356,3.64-8.744,9.37c0.939,8.75,13.029,4.487,12.803-3.746
			C262.377,280.057,261,277.417,258.38,276.815 M254.946,287.434c-3.678-0.686-1.939-7.783,1.874-6.871
			C261.547,281.69,257.86,287.977,254.946,287.434"/>
		<radialGradient id="SVGID_4_" cx="189.4922" cy="284" r="6.6048" gradientUnits="userSpaceOnUse">
			<stop  offset="0" style="stop-color:#22333D"/>
			<stop  offset="1" style="stop-color:#192229"/>
		</radialGradient>
		<path fill="url(#SVGID_4_)" d="M192.171,277.126c-8.787-2.872-11.708,13.141-4.687,14.054
			C193.702,291.988,199.108,279.396,192.171,277.126 M189.362,287.433c-5.203,0.405-2.84-8.978,1.56-6.56
			C193.66,282.382,191.659,287.257,189.362,287.433"/>
		<path fill="#FFFFFF" d="M234.646,248.083c-0.758-0.521,1.232,0.853,0.626,2.186c-0.734-0.099-0.187-1.482-1.25-1.25
			c0.133,0.594,0.671,0.786,0.625,1.563c-1.16-0.09-0.848-1.652-2.187-1.563c-0.001,1.25-0.623,1.876-0.623,3.123h4.684
			C236.588,250.097,235.955,248.752,234.646,248.083"/>
		<path fill="#FAEA27" d="M279.308,282.749h-0.002h7.206C284.076,282.78,281.644,282.81,279.308,282.749"/>
		<radialGradient id="SVGID_5_" cx="307.8823" cy="285.1162" r="9.8651" gradientUnits="userSpaceOnUse">
			<stop  offset="0" style="stop-color:#22333D"/>
			<stop  offset="1" style="stop-color:#192229"/>
		</radialGradient>
		<path fill="url(#SVGID_5_)" d="M310.537,282.749c-1.695,1.997-3.92,5.174-7.497,4.685c-2.146-0.293-3.251-2.022-4.058-4.374
			c-1.546-0.173-3.175-0.268-4.849-0.312h27.498C317.687,282.783,314.854,283.212,310.537,282.749"/>
		<radialGradient id="SVGID_6_" cx="221.3496" cy="285.2759" r="7.6276" gradientUnits="userSpaceOnUse">
			<stop  offset="0" style="stop-color:#22333D"/>
			<stop  offset="1" style="stop-color:#192229"/>
		</radialGradient>
		<path fill="url(#SVGID_6_)" d="M231.836,282.749L231.836,282.749c-1.547,0.226-3.112,0.429-5.001,0.312
			c-1.134,3.029-3.204,5.124-7.805,4.685c-1.789-0.917-2.412-3-3.437-4.685h-4.687c-0.013-0.048-0.029-0.1-0.045-0.154v-0.158
			H231.836z"/>
		<path fill="#E52629" d="M303.667,263.384c-1.173,0.5,0.959,1.525,1.56,2.186c2.098,2.32,6.884,6.951,5.624,12.493
			c-1.065,4.67-8.882,5.316-14.054,4.06c-10.1-2.449-15.382-11.588-24.048-18.113c-9.146-6.888-17.833-10.92-30.295-11.869
			c-1.356-7.708-2.918-15.212-3.914-23.285l3.583-2.162c7.14-1.04,20.84-0.164,22.19,0.774c2.795,1.945,4.082,8.102,5.31,11.558
			c1.59,4.479,2.958,8.369,4.376,12.181c-1.726,0.568-4.311,0.273-6.25,0.624c15.936,5.509,29.842,13.053,36.852,27.481
			c-1.834-1.121-2.259-3.406-3.434-4.998c-5.854-7.912-13.947-13.794-24.049-18.113c-3.824-1.635-8.055-3.83-12.178-4.371
			c-5.211-0.684-10.097,0.502-15.929,0c0.882,1.426,2.871,0.936,4.062,1.248c9.352,2.44,16.707,6.822,23.734,12.806
			c7.586,6.456,13.953,16.577,25.921,15.93c4.861-0.268,8.844-3.541,7.184-9.059c-1.37-4.558-8.426-10.232-12.494-13.118
			c-6.495-4.61-13.111-6.796-21.234-7.807c-3.376-8.283-6.045-17.273-9.681-25.297c-3.812-2.605-11.641-3.743-18.427-3.433
			c-48.368-6.094-49.479,29.868-49.479,29.88h-0.002c-0.729,2.392-8.74,6.423-10.169,9.155c1.017,0.87,3.061-0.531,4.684-0.623
			c11.365-0.647,14.993,12.356,17.754,21.394v-0.16h20.974c4.711-8.373,12.607-17.989,24.358-19.049
			c13.825-1.247,19.841,8.526,23.111,19.049h7.205c2.574-0.035,5.149-0.069,7.623,0h27.499c0.354-0.001,0.712-0.001,1.085,0
			C321.713,270.949,314.416,265.442,303.667,263.384z M234.645,245.583c-2.016-0.334-3.746,2.387-3.746,4.685l-0.179,1.873
			l-27.484,0.839c5.684-30.591,32.49-25.123,32.49-25.123l4.229,24.284C235.79,252.369,238.405,246.206,234.645,245.583z"/>
		<path fill="#FAEA27" d="M314.202,270.888c-2.139,2.396,0.408,6.34,2.806,5.607C319.673,275.681,317.883,270.044,314.202,270.888"
			/>
	</g>
	<radialGradient id="SVGID_7_" cx="147.7441" cy="242.3433" r="12.2999" gradientUnits="userSpaceOnUse">
		<stop  offset="0" style="stop-color:#22333D"/>
		<stop  offset="1" style="stop-color:#192229"/>
	</radialGradient>
	<path fill="url(#SVGID_7_)" d="M135.483,242.345c0,6.814,5.485,12.337,12.263,12.337c6.769,0,12.258-5.522,12.258-12.337
		s-5.489-12.341-12.258-12.341C140.969,230.004,135.483,235.531,135.483,242.345z"/>
	<radialGradient id="SVGID_8_" cx="169.6064" cy="240.9922" r="12.3004" gradientUnits="userSpaceOnUse">
		<stop  offset="0" style="stop-color:#22333D"/>
		<stop  offset="1" style="stop-color:#192229"/>
	</radialGradient>
	<path fill="url(#SVGID_8_)" d="M157.346,240.992c0,6.815,5.49,12.34,12.264,12.34c6.768,0,12.257-5.525,12.257-12.34
		c0-6.816-5.489-12.34-12.257-12.34C162.836,228.652,157.346,234.176,157.346,240.992z"/>
	<radialGradient id="SVGID_9_" cx="128.8813" cy="249.8447" r="31.0264" gradientUnits="userSpaceOnUse">
		<stop  offset="0" style="stop-color:#22333D"/>
		<stop  offset="1" style="stop-color:#192229"/>
	</radialGradient>
	<path fill="url(#SVGID_9_)" d="M107.634,213.407c-8.489,11.618,27.008,61.2,29.816,66.651c2.81,5.454,17.669,13.263,13.132,0.572
		c-4.536-12.689-22.56-63.201-22.56-63.201S110.711,209.195,107.634,213.407z"/>
	<radialGradient id="SVGID_10_" cx="170.7471" cy="283.2817" r="21.4776" gradientUnits="userSpaceOnUse">
		<stop  offset="0" style="stop-color:#22333D"/>
		<stop  offset="1" style="stop-color:#192229"/>
	</radialGradient>
	<path fill="url(#SVGID_10_)" d="M200.172,285.525c-15.019,2.096-32.836,5.84-43.547,5.22c-13.823-0.806-23.319-12.894-5.745-14.772
		c14.247-1.52,32.16,5.396,46.389,0.933L200.172,285.525z"/>
	<path fill="#F6AC83" d="M196.992,277.712c2.678,0.533,6.521-3.908,12.795-4.217c1.796-0.088,5.766,1.31,5.766,1.31
		c-2.708,3.016-6.949,0.761-8.337,1.854c-1.299,1.002,0.245-1.043,2.778-0.272c3.414,1.042,9.624-1.301,15.496-3.523l-3.317,5.2
		c-7.854,6.032-15.269,6.588-23.224,5.777"/>
	<path fill="#F6AC83" d="M196.992,277.712c2.678,0.533,6.521-3.908,12.795-4.217c1.796-0.088,5.766,1.31,5.766,1.31
		c-2.708,3.016-6.949,0.761-8.337,1.854c-1.299,1.002,0.245-1.043,2.778-0.272c3.414,1.042,9.624-1.301,15.496-3.523l-3.317,5.2
		c-7.854,6.032-15.269,6.588-23.224,5.777"/>
	<g>
		<radialGradient id="SVGID_11_" cx="147.7505" cy="254.8452" r="49.6064" gradientUnits="userSpaceOnUse">
			<stop  offset="0" style="stop-color:#22333D"/>
			<stop  offset="1" style="stop-color:#192229"/>
		</radialGradient>
		<path fill="url(#SVGID_11_)" d="M121.78,310.208c1.374-4.204,3.013-8.063,4.959-11.451c7.984-13.902,3.609-19.355,3.609-19.355
			l-22.433-65.878c0,0,26.583-23.928,79.671-14.023c0,0-15.893,66.143-15.893,77.739c0,4.725,2.197,12.973,4.502,27.58
			C165.105,313.545,143.786,314.278,121.78,310.208z"/>
		<path fill="#010102" d="M176.195,304.819c3.355,21.264,6.939,56,4.295,112.965c-13.886,2.463-53.483,4.277-60.841,3.454
			c0,0-10.903-71.147,2.13-111.03C143.786,314.278,165.105,313.545,176.195,304.819z"/>
	</g>
	<path fill="#F6AC83" d="M128.564,158.278c0,14.346,9.743,28.216,24.939,31.094c13.334,2.526,25.935-15.492,19.726-21.824
		c-9.335-9.521,7.447-32.432-22.74-35.251C138.436,131.168,128.564,143.926,128.564,158.278z"/>
	<path fill="#F6AC83" d="M140.831,181.475c4.866,15.625-4.78,17.262-4.78,17.262c-4.784,1.64-12.785,4.768-12.785,4.768
		c10.053,5.639,16.137,19.438,31.782,19.438c6.594,0,14.952-14.201,14.143-20.729c-0.453-3.647-15.017-5.113-15.017-5.113
		c-0.663-4.579,1.129-13.733,2.296-15.625"/>
	<g>
		<path fill="#FFFFFF" d="M146.854,163.857c0,2.575,1.904,4.659,4.248,4.659c2.355,0,4.259-2.084,4.259-4.659
			c0-2.57-1.904-4.653-4.259-4.653C148.758,159.204,146.854,161.287,146.854,163.857z"/>
		<path d="M148.164,164.05c0,1.519,1.314,2.752,2.938,2.752c1.628,0,2.944-1.234,2.944-2.752c0-1.522-1.316-2.753-2.944-2.753
			C149.478,161.297,148.164,162.528,148.164,164.05z"/>
		<path fill="#FFFFFF" d="M150.902,163.253c0,0.261,0.226,0.474,0.511,0.474c0.272,0,0.499-0.213,0.499-0.474
			c0-0.262-0.227-0.475-0.499-0.475C151.128,162.778,150.902,162.991,150.902,163.253z"/>
		<path fill="#E29282" d="M157.305,165.479c-6.203-4.183-11.084-5.276-11.79-0.447c0,0,0.01-7.844,6.505-6.134
			C154.958,159.667,155.175,162.504,157.305,165.479z"/>
		<path d="M157.305,165.479c-6.203-4.183-10.45-5.606-11.79,0C145.515,158.655,152.433,160.292,157.305,165.479z"/>
	</g>
	<g>
		<path fill="#FFFFFF" d="M170,163.582c0,2.575-1.176,4.66-2.624,4.66c-1.456,0-2.632-2.085-2.632-4.66
			c0-2.57,1.176-4.653,2.632-4.653C168.824,158.929,170,161.012,170,163.582z"/>
		<ellipse cx="167.374" cy="163.775" rx="1.817" ry="2.752"/>
		<path fill="#FFFFFF" d="M167.499,162.978c0,0.262-0.14,0.474-0.315,0.474c-0.169,0-0.309-0.212-0.309-0.474
			c0-0.263,0.14-0.475,0.309-0.475C167.359,162.503,167.499,162.715,167.499,162.978z"/>
		<path fill="#E29282" d="M163.542,165.205c3.833-4.183,6.849-5.275,7.285-0.447c0,0-0.006-7.844-4.019-6.135
			C164.992,159.393,164.858,162.23,163.542,165.205z"/>
		<path d="M163.542,165.205c3.833-4.183,6.458-5.607,7.285,0C170.828,158.38,166.553,160.017,163.542,165.205z"/>
	</g>
	<path fill="#E06753" d="M164.315,176.795c0.116-0.063,0.185,0.063,0.246,0.261c0.035,0.049,0.069,0.098,0.1,0.157
		c0,0,0.083,0.2,0.082,0.49c0.197,0.583,0.561,0.95,1.691-0.685c-2.082,4.206-2.958,5.363-4.575,5.115
		c-1.771,0.248-2.729-0.91-5.008-5.115C159.251,180.197,162.782,175.643,164.315,176.795z"/>
	<path fill="#432918" d="M144.926,158.379c2.051-1.737,6.775-1.97,8.914-1.034c2.139,0.934,1.861-1.665,0.172-1.696
		C152.324,155.62,148.306,154.97,144.926,158.379z"/>
	<path fill="#432918" d="M171.407,159.427c-1.094-2.061-4.257-3.104-5.866-2.554c-1.608,0.55-0.979-1.955,0.173-1.696
		C166.863,155.44,169.696,155.495,171.407,159.427z"/>
	<path fill="#432918" d="M166.837,132.781c0.171,2.299-0.28,4.734-1.197,7.128c-3.419,8.91-13.755,13.45-22.485,16.294
		c-14.48,4.717-1.584,28.008-1.584,28.008s-18.31-0.207-22.186-14.987c-7.697,4.527-16.597-10.54-9.757-19.877
		c5.417-7.382,14.688-5.568,13.816,0c-0.879,5.565,8.706-44.064,47.671-12.172c3.694,3.022-0.212,23.529-1.221,17.648
		c-1.115-6.495-0.433-15.16-7.93-15.211"/>
	<path fill="#F6AC83" d="M132.038,169.238c0.553,2.832,2.62,4.812,4.616,4.415c1.998-0.393,3.164-3.012,2.61-5.851
		c-0.554-2.835-2.619-4.815-4.621-4.423C132.651,163.776,131.479,166.398,132.038,169.238z"/>
	<path fill="#010102" d="M169.509,153.436c-3.34,0-6.187,2.596-7.266,6.213c-0.947-0.363-2.058-0.393-2.981-0.152
		c-0.336,0.087-0.643,0.213-0.929,0.361c-1.03-3.726-3.922-6.421-7.331-6.421c-3.903,0-7.135,3.543-7.654,8.123
		c-3.312-0.008-5.548-0.907-7.644,0.053l0.971,2.343c1.376-0.629,2.221,0.154,6.671,0.161c0.513,4.586,3.745,8.137,7.655,8.137
		c4.221,0,7.659-4.135,7.73-9.249c0.091-0.629,0.654-0.906,1.113-1.026c0.887-0.23,1.726,0.03,1.952,0.316
		c-0.009,0.184-0.023,0.364-0.023,0.55c0,5.188,3.471,9.408,7.734,9.408c4.267,0,7.266-4.22,7.266-9.408
		C176.775,157.656,173.776,153.436,169.509,153.436z M151.002,169.696c-2.921,0-5.299-3.074-5.299-6.853
		c0-3.779,2.378-6.852,5.299-6.852c2.923,0,5.3,3.073,5.3,6.852C156.303,166.622,153.926,169.696,151.002,169.696z M169.509,169.696
		c-2.921,0-5.3-3.074-5.3-6.853c0-3.779,2.378-6.852,5.3-6.852c2.923,0,4.831,3.073,4.831,6.852
		C174.34,166.622,172.432,169.696,169.509,169.696z"/>
</g>
<polygon fill="#FFDE00" points="635.695,28.247 638.104,35.661 645.899,35.661 639.593,40.244 642.002,47.659 635.695,43.076 
	629.387,47.659 631.796,40.244 625.489,35.661 633.285,35.661 "/>
<polygon fill="#FFDE00" points="661.161,28.247 663.57,35.661 671.366,35.661 665.06,40.244 667.469,47.659 661.161,43.076 
	654.854,47.659 657.263,40.244 650.956,35.661 658.751,35.661 "/>
<polygon fill="#FFDE00" points="686.629,28.247 689.036,35.661 696.833,35.661 690.525,40.244 692.936,47.659 686.629,43.076 
	680.32,47.659 682.729,40.244 676.422,35.661 684.22,35.661 "/>
<polygon fill="#FFDE00" points="712.095,28.247 714.505,35.661 722.3,35.661 715.991,40.244 718.401,47.659 712.095,43.076 
	705.788,47.659 708.198,40.244 701.889,35.661 709.685,35.661 "/>
<polygon fill="#706F6F" points="737.562,28.247 739.971,35.661 747.766,35.661 741.46,40.244 743.869,47.659 737.562,43.076 
	731.254,47.659 733.663,40.244 727.355,35.661 735.152,35.661 "/>
<polygon fill="#FFDE00" points="449.524,16.25 451.935,23.665 459.73,23.665 453.423,28.248 455.832,35.662 449.524,31.08 
	443.218,35.662 445.628,28.248 439.321,23.665 447.115,23.665 "/>
<polygon fill="#FFDE00" points="474.994,16.25 477.401,23.665 485.197,23.665 478.889,28.248 481.299,35.662 474.994,31.08 
	468.685,35.662 471.094,28.248 464.787,23.665 472.583,23.665 "/>
<polygon fill="#FFDE00" points="500.458,16.25 502.868,23.665 510.664,23.665 504.356,28.248 506.766,35.662 500.458,31.08 
	494.15,35.662 496.561,28.248 490.254,23.665 498.05,23.665 "/>
<polygon fill="#FFDE00" points="525.926,16.25 528.335,23.665 536.131,23.665 529.824,28.248 532.231,35.662 525.926,31.08 
	519.619,35.662 522.026,28.248 515.72,23.665 523.515,23.665 "/>
<polygon fill="#FFDE00" points="551.391,16.25 553.801,23.665 561.596,23.665 555.291,28.248 557.699,35.662 551.391,31.08 
	545.086,35.662 547.493,28.248 541.188,23.665 548.98,23.665 "/>
<g>
</g>
<g>
</g>
<g>
</g>
<g>
</g>
<g>
</g>
<g>
</g>
</svg>
