<?xml version="1.0" encoding="utf-8"?>
<!-- Generator: Adobe Illustrator 16.0.0, SVG Export Plug-In . SVG Version: 6.00 Build 0)  -->
<!DOCTYPE svg PUBLIC "-//W3C//DTD SVG 1.1//EN" "http://www.w3.org/Graphics/SVG/1.1/DTD/svg11.dtd">
<svg version="1.1" id="Calque_1" xmlns="http://www.w3.org/2000/svg" xmlns:xlink="http://www.w3.org/1999/xlink" x="0px" y="0px"
	 width="1415.811px" height="863.563px" viewBox="0 0 1415.811 863.563" enable-background="new 0 0 1415.811 863.563"
	 xml:space="preserve">
<path fill="#EDEDED" d="M105.182,776.125c26.22-15.35,136.772,1.011,237.122-38.598c100.352-39.604,411.737-121.757,486.826-29.972
	c75.092,91.787-449.235,118.693-553.426,131.11C171.513,851.085,14.012,829.49,105.182,776.125z"/>
<path fill="#2E1C18" d="M530.732,696.321v12.201l-9.604,2.759v-3.58c0,0-12.232,9.356-47.167,5.18
	c25.667-6.438,33.361-9.133,46.511-19.333L530.732,696.321z"/>
<path fill="#2E1C18" d="M575.01,691.519c-0.959,5.609-2.959,10.502-5.096,12.688l-4.941,31.017
	c4.944,3.249,21.685-25.144,21.692-29.67c0.014-4.343-0.946-9.364-0.716-13.182L575.01,691.519z"/>
<path fill="#A37158" d="M471.223,406.887l68.292,10.46l-1.13-11.714l-68.313-5.227c-7.463,0.045-12.075-4.092-16.951-3.97
	c-4.875,0.121-13.222,6.24-1.847,5.337c4.424-0.35-3.443,4.89-11.946,3.675c-8.503-1.213-14.895-2.39-11.018,1.595
	c3.876,3.982,3.017,9.555,9.348,10.04C443.99,417.567,455.226,407.711,471.223,406.887z"/>
<path fill="#FFFFFF" d="M526.61,283.406c0.056,2.084,0,3.474,0,3.474s12.533,0.44,15.015-4.697l-7.814,0.88L526.61,283.406z"/>
<path fill="#FFFFFF" d="M526.61,289.194c0.056,2.085,0,3.476,0,3.476s14.396-2.998,16.876-8.135l-9.676,4.317L526.61,289.194z"/>
<path fill="#F6AC83" d="M518.727,350.332c2.067,13.603,3.621,50.186,1.386,53.404c-2.238,3.216,11.929,1.604,11.929,1.604
	s1.017-66.574,4.811-73.84c3.796-7.271-22.053,21.346-22.053,21.346"/>
<path fill="#22323C" d="M521.208,356.799c2.165,13.593-0.404,51.462-2.617,54.692c-2.216,3.232,17.614-2.654,17.614-2.654
	s3.16-66.241,6.906-73.54C546.859,327.998,521.208,356.799,521.208,356.799"/>
<g id="XMLID_1_">
	<g>
		<path fill="#A37158" d="M524.688,284.526c0.137-8.119-8.275-22.637-8.275-23.513c0-0.951,2.75-5.524,3.752-10.789
			c4.278-22.168,40.941-13.32,46.399-1.269c5.458,12.057-8.181,28.548-8.181,28.548s1.358,3.165-4.113,11.411
			c-5.444,8.252-19.144,18.99-27.283,19.028c-4.7,0.032-2.142-12.495-2.142-14.125c0-1.599,15.705-1.84,16.783-11.633
			C535.42,283.822,527.977,286.29,524.688,284.526z"/>
	</g>
	<g>
	</g>
</g>
<path fill="#A37158" d="M526.441,261.131c-0.683,8.031-5.027,18.474-4.001,20.374c1.02,1.906,7.277-0.51,11.371-3.367l-1.363-1.624"
	/>
<path fill="#010102" d="M558.009,272.301h-5.094c0,0,0-4.909,0-14.243c0-1.906-6.142-3.6-7.057-9.731c0,0-11.591,4.019-10.456-1.694
	c0,0-17.742,7.407-13.075-1.053c0,0-7.619,0-7.165-3.595c0.454-3.594,10.542-3.35,13.821-3.252c2.78,0.082-12,0.31-10.865-6.255
	c1.141-6.561,32.976,0.841,34.112,5.067c5.687-1.478,20.037,6.749,14.71,25.156C566.94,262.7,559.47,254.409,558.009,272.301z"/>
<path fill="#010102" d="M547.228,261.751c-1.591-7.825-9.102-8.249-13.417-8.038c-4.322,0.213-2.954,3.638,0,3.379
	C538.584,256.673,544.952,256.673,547.228,261.751z"/>
<path fill="#010102" d="M515.487,262.093c0.92-7.825,5.264-8.25,7.768-8.038c2.498,0.212,1.711,3.639,0,3.383
	C520.486,257.021,516.799,257.021,515.487,262.093z"/>
<path fill="none" stroke="#432918" stroke-width="0.01" stroke-miterlimit="10" d="M533.811,263.971
	c0.457,2.324,6.371,4.225,6.82,5.708"/>
<path fill="none" stroke="#432918" stroke-width="0.01" stroke-miterlimit="10" d="M525.476,263.971
	c-0.271,2.324-3.818,4.225-4.094,5.708"/>
<path fill="#714032" d="M519.253,253.676c0.912-3.443,4.549-6.614,6.596-7.038c2.047-0.423-1.858-4.294-1.858-4.294
	S518.339,245.282,519.253,253.676z"/>
<path d="M539.144,262.919c0,0.987-0.859,1.785-1.922,1.785c-1.058,0-1.923-0.798-1.923-1.785c0-0.989,0.865-1.788,1.923-1.788
	C538.284,261.131,539.144,261.93,539.144,262.919z"/>
<ellipse fill="#010102" cx="537.554" cy="262.093" rx="0.332" ry="0.304"/>
<path fill="#010102" d="M524.69,262.919c0,0.987-0.862,1.785-1.917,1.785c-1.066,0-1.925-0.798-1.925-1.785
	c0-0.989,0.859-1.788,1.925-1.788C523.829,261.131,524.69,261.93,524.69,262.919z"/>
<path fill="#FFFFFF" d="M523.428,262.093c0,0.168-0.147,0.304-0.331,0.304c-0.181,0-0.323-0.136-0.323-0.304
	c0-0.168,0.143-0.309,0.323-0.309C523.281,261.784,523.428,261.924,523.428,262.093z"/>
<path fill="#A37158" d="M562.004,272.301c-7.726,16.622-1.324,36.034-1.324,36.034c4.477,5.56,33.863,25.646,33.863,25.646
	l-33.863,36.975l-25.266-12.646c0,0,8.338-33.38,8.338-35.53c0-10.246-0.282-16.866-3.381-21.677"/>
<path fill="none" stroke="#E6332A" stroke-miterlimit="10" d="M592.179,452.694"/>
<path fill="#706F6F" d="M516.899,429.074c-4.048,29.414-1.698,80.307,0.37,130.065c1.931,46.411,3.612,91.841-0.37,117.954
	c0,0,5.16,8.12,0,18.943h14.187c0,0,4.6-58.369,7.548-136.888c0.026-0.692-0.097,0.683,0,0
	c9.257-66.529,13.514-119.536,11.486-127.951L516.899,429.074z"/>
<path fill="#575756" d="M555.592,485.151c5.354,28.453,4.946,55.257,9.037,90.248c4.716,40.351,8.555,77.811,10.962,101.229
	c0.365,3.508-0.697,14.432-1.213,23.9h13.864c0,0-1.494-61.992-3.567-126.628c-2.145-66.655-3.846-137.117-2.286-143.024
	c0,0-44.37-26.646-54.579-26.685c-10.211-0.042,0.241,49.123,0.241,49.123S549.674,453.736,555.592,485.151z"/>
<path fill="#DADADA" d="M577.715,410.617c-1.146-11.045,23.181-82.13,23.181-82.13c-10.28-7.614-24.431-9.884-32.424-18.263
	l-3.514-7.715l-18.345,12.926l0,0l0,0l-5.438-7.014l-0.065,10.969l0,0c-10.154,4.957-26.422,12.597-26.422,12.597
	c3.886,16.883,4.858,65.667,3.729,76.816c-1.129,11.15-7.389,42.657-4.714,42.93c24.353,2.443,56.278,2.596,71.741-3.426
	c0,0-0.729-10.574-2.636-15.526C580.905,427.838,578.855,421.657,577.715,410.617z"/>
<path fill="#F6AC83" d="M586.092,351.029c3.856,13.204,10.268,49.253,8.477,52.74c-1.786,3.486,12.038,0,12.038,0
	s-7.853-66.111-5.055-73.822c2.799-7.712-19.021,24.094-19.021,24.094"/>
<path fill="#9FD0DB" d="M582.53,354.041c3.861,13.205,3.52,4.577,1.732,8.063c-1.793,3.486,22.209-3.116,22.209-3.116
	s-7.718-21.33-4.92-29.041C604.351,322.235,582.53,354.041,582.53,354.041"/>
<polyline fill="none" stroke="#2D5E70" stroke-width="0.05" stroke-miterlimit="10" points="549.899,320.543 555.543,322.169 
	568.472,310.225 "/>
<polyline fill="none" stroke="#2D5E70" stroke-width="0.05" stroke-miterlimit="10" points="544.557,321.359 541.158,322.912 
	541.109,319.391 "/>
<path fill="#A37158" d="M566.215,268.153c-1.358,5.071-4.134,8.796-6.192,8.323c-2.063-0.478-2.633-4.979-1.276-10.05
	c1.359-5.078,4.127-8.808,6.19-8.331C566.995,258.573,567.57,263.075,566.215,268.153z"/>
<polygon fill="#706F6F" points="472.888,396.886 538.598,404.821 532.403,423.231 469.525,408.927 "/>
<path fill="#575756" d="M575.367,311.756c9.146,7.592,13.771,10.246,25.528,17.144c0,0-24.489,72.123-23.181,82.131
	c1.301,10.002,2.495,15.773,4.674,20.259c2.177,4.485,3.055,17.433,3.055,17.433s-31.089,7.177-46.082,8.881
	c-8.303,0.945-6.713-23.356-6.935-30.212c0,0,1.617,21.047-1.152,25.874c-2.769,4.828-18.446,2.411-21.491,2.761
	c-3.049,0.346,6.472-39.69,5.841-46.934c-0.635-7.243,2.09-62.408-3.534-74.568c-1.754-3.795,19.893-7.384,24.75-16.832
	c-2.234,10.343-12.69,36.56-6.156,77.612C530.684,395.304,556.21,357.58,575.367,311.756z"/>
<path fill="#F6AC83" d="M535.499,379.358l66.573,16.217l-4.388,9.034l-65.097-20.444c-6.94-2.729-12.41-1.059-16.917-2.918
	c-4.504-1.856-10.537-9.801-0.202-4.97c4.021,1.879-1.815-5.184-10.078-7.273c-8.264-2.091-14.552-3.447-9.808-5.261
	c4.743-1.813,5.528-6.613,11.561-4.72C513.18,360.918,520.838,372.919,535.499,379.358z"/>
<path fill="#575756" d="M588.242,362.962c3.917,12.071,5.686,28.486,3.508,31.593c-2.179,3.101,18.442,17.905,18.442,17.905
	s-3.611-73.591-9.297-83.973C597.187,321.709,588.242,362.962,588.242,362.962"/>
<polygon fill="#575756" points="531.496,386.822 610.192,412.46 605.847,393.896 532.717,376.064 "/>
<g>
	<polygon fill="#E6332A" points="547.843,327.895 529.133,382.139 530.684,394.891 546.333,369.448 549.899,327.895 
		549.899,320.543 546.613,315.436 544.557,321.359 	"/>
</g>
<g>
	<path fill="#22323C" d="M568.875,381.066c-23.096,3.626-33.105-9.175-42.754-11.876c-11.541-3.233-33.444-6.455-49.419-5.545
		c-3.321,0.189-8.216,1.371-10.825,2.45c-3.837,1.579-9.369,14.06-15.241,18.375c-22.412,2.086-55.139-6.154-53.545,19.897
		c11.688,1.43,25.351,0.877,38.364,0.978c3.734-4.483,8.619-1.293,11.584,2.787c1.144,1.568,2,3.271,2.404,4.711
		c27.341-0.622,55.9-0.018,83.234-0.649c0,0,5.601-0.133,9.673-0.284c0.026-0.013,0.055-0.027,0.084-0.042
		c1.357-0.57,2.309-0.301,3.346-0.121c0.235-0.016,0.445,0.02,0.642,0.087c0.634,0.063,1.329,0.029,2.169-0.289
		c-0.054-0.138-0.108-0.289,0.022-0.005l3.006-0.013c-0.243-0.525-0.371,0.297-0.402-0.309c1.688-0.045,2.858-0.612,4.55-0.655
		c0.066,0.18,0.07,0.101,0.062-0.018l2.54-0.635c-0.054-0.506,0.014-0.215,0.047,0C577.113,408.282,578,379.635,568.875,381.066z
		 M446.513,390.02c-8.93,0.632-17.66,1.346-23.738,2.607c0.849,2.251,1.247,7.11-0.65,8.48c-3.069-1.195-2.69-7.424-0.648-9.458
		c7.685-1.226,16.843-2.277,26.013-2.933c8.776-0.628,18.37-0.017,23.736-4.889C468.811,389.23,456.793,389.291,446.513,390.02z
		 M456.102,383.245c0.608-1.494,9.523-13.561,10.135-14.511c4.071-0.349,8.187-0.653,12.413-0.852
		c-2.554,5.471-5.1,9.827-6.449,14.967C465.477,382.735,462.135,382.663,456.102,383.245z M478.053,382.85
		c-0.375-2.228,0.877-2.818,1.625-3.916c2.144-1.156,7.602,3.339,8.129,4.392C486.075,383.325,479.788,382.85,478.053,382.85z
		 M494.636,383.174c1.416-0.005,2.924-0.107,3.902,0.326L494.636,383.174z M504.713,383.5l-14.303-0.65
		c-3.051-2.372-9.466-8.941-13.005-3.916c-0.728,1.033-0.25,3.12-1.951,3.916c1.956-7.037,4.532-11.861,5.472-14.967
		c7.519,0.442,17.431,0.595,25.041,1.958c0.491,5.378,2.038,10.127,2.326,13.987C507.099,383.72,505.415,384.105,504.713,383.5z
		 M510.242,384.151c-0.602-4.184-1.417-8.933-2.654-13.985c7.379,0.429,12.143,1.546,19.105,2.394
		c0.679,2.659,2.951,7.408,5.983,13.354L510.242,384.151z M535.143,385.884l-5.79-12.53c6.368,4.144,6.311,4.019,10.71,12.53
		H535.143z M562.646,385.169c-0.074-0.374,0.038-0.583,0.286-0.667c1.909-0.124,8.125-2.249,8.194,0.837
		C569.285,385.498,564.461,386.181,562.646,385.169z"/>
	<path fill="#22323C" d="M412.34,389.966c-3.62,1.765-7.529,3.354-11.059,5.541c-0.999,0.623-1.973,1.989-3.253,1.632
		c0.273-1.159,0.096-3.76-0.973-4.564c-3.526,0.146-1.061,5.563-1.626,7.175c-2.45-1.693-1.142-7.167,0.65-8.482
		C401.309,390.846,407.604,389.799,412.34,389.966"/>
	<path fill="#FAEA27" d="M397.804,396.115c0,1.709-0.577,3.101-1.284,3.101c-0.712,0-1.29-1.392-1.29-3.101
		c0-1.716,0.578-3.102,1.29-3.102C397.227,393.014,397.804,394.399,397.804,396.115"/>
	<path fill="#010202" d="M438.816,405.672c-5.987,2.427,0.152,13.772,4.233,13.692C449.945,419.236,446.712,402.474,438.816,405.672
		 M439.469,410.238c1.415-3.562,7.707,2.154,4.224,5.217C441.598,416.905,438.511,412.639,439.469,410.238"/>
	<path fill="#22323C" d="M427.738,412.846h7.503c-0.332-1.408-0.844-2.633-0.652-4.565c-13.442,0.053-29.141,0.581-41.295-1.63
		c-0.777-0.412,0.181-2.571-0.648-2.931c-1.021,1.354-0.257,2.833,0.323,4.235c8.65,0.349,14.383,3.619,22.764,4.239
		C421.885,412.164,427.738,412.846,427.738,412.846"/>
	<path fill="#010202" d="M421.582,416.433c2.363-0.323,2.029-2.509,3.904-3.588h2.251c0,0-5.851-0.681-12.006-0.651
		C416.707,414.438,419.023,416.786,421.582,416.433"/>
	<path fill="#010202" d="M551.136,405.672c-5.986,2.427,0.146,13.772,4.227,13.692C562.266,419.236,559.027,402.474,551.136,405.672
		 M551.786,410.238c1.417-3.562,7.706,2.154,4.226,5.217C553.916,416.905,550.829,412.639,551.786,410.238"/>
	<path fill="#FAEA27" d="M422.908,396.682c0,1.901-0.527,3.439-1.173,3.439c-0.649,0-1.176-1.538-1.176-3.439
		c0-1.897,0.527-3.438,1.176-3.438C422.381,393.243,422.908,394.784,422.908,396.682"/>
</g>
<path fill="#A37158" d="M535.499,379.358l66.573,16.217l-4.388,9.034l-65.097-20.444c-6.94-2.729-12.41-1.059-16.917-2.918
	c-4.504-1.856-10.537-9.801-0.202-4.97c4.021,1.879-1.815-5.184-10.078-7.273c-8.264-2.091-14.552-3.447-9.808-5.261
	c4.743-1.813,5.528-6.613,11.561-4.72C513.18,360.918,520.838,372.919,535.499,379.358z"/>
<path fill="#575756" d="M588.242,362.962c3.917,12.071,5.686,28.486,3.508,31.593c-2.179,3.101,18.442,17.905,18.442,17.905
	s-3.611-73.591-9.297-83.973C597.187,321.709,588.242,362.962,588.242,362.962"/>
<polygon fill="#575756" points="531.496,386.822 610.192,412.46 605.847,393.896 532.717,376.064 "/>
<g>
	<path fill="#192229" d="M663.584,432.423c15.131-5.172,33.766-10.138,43.4-15.78c12.438-7.283,14.71-22.95-2.677-16.372
		c-14.102,5.334-27.033,20.2-42.713,22.809L663.584,432.423z"/>
	<path fill="#F6AC83" d="M655.472,415.389c-5.441,1.379-12.438-4.47-17.015-4.292c-2.408,0.092-5.453,1.382-5.453,1.382
		c1.249,1.326,3.708,0.52,5.93,0.503c2.223-0.015,3.759,1.09,0.61,2.742c-3.382,1.772-6.493,4.145-15.196,2.934l4.883,8.465
		c11.63,0.52,16.962-5.802,27.269-6.91"/>
	<g>
		<path fill="#B72E20" d="M751.349,248.791c3.755,4.858,2.961,8.496-7.066,13.15c-2.556,1.185-1.178,0.828,0,2.96
			c1.175,2.133,3.53,10.427,1.175,13.151c-1.57-4.62-10.903,0.309-2.848,8.413c1.77,1.775,0,4.618,0.982,6.752
			c0.981,2.131,7.461,8.648,0.492,14.333c-12.24,9.987-29.207-2.751-30.892-12.099c-1.512-8.396,0.941-11.833,7.915-14.202
			c3.372-1.146,8.394-3.79,9.745-9.477c1.349-5.686-0.812-13.392,6.651-16.822C739.433,254.063,744.573,240.024,751.349,248.791z"/>
		<path fill="#F6AC83" d="M747.372,302.536c-17.985,4.355-22.557-6.809-26.325-15.795c-0.631-3.759-1.048-7.095,1.303-8.427
			c8.2-4.659,8.006-18.159,19.454-22.94c11.45-4.782,18.784,1.388,25.871,10.408c4.9,6.243,2.485,19.064-5.6,27.964"/>
		<path fill="#010102" d="M713.919,707.283v8.313l-6.215,1.876v-2.438c0,0-16.65,10.433-39.223,7.579
			c-15.173-5.503,29.039-8.665,35.613-17.516L713.919,707.283z"/>
		<path fill="#010102" d="M756.712,705.801c-2.199,3.277-3.068,7.405-4.528,9.126c0,0-2.741,23.164,2.679,22.588
			c6.885-0.723,11.681-20.774,11.125-23.684c-0.554-2.92-1.983-6.177-2.292-8.761L756.712,705.801z"/>
		<g>
			<path fill="#FFFFFF" d="M750.806,276.901c0,2.271-2.428,4.113-5.416,4.113c-2.999,0-5.425-1.842-5.425-4.113
				c0-2.271,2.426-4.112,5.425-4.112C748.378,272.789,750.806,274.631,750.806,276.901z"/>
			<path d="M747.678,276.494c0,1.67-1.453,3.024-3.246,3.024c-1.799,0-3.253-1.354-3.253-3.024c0-1.669,1.454-3.022,3.253-3.022
				C746.225,273.471,747.678,274.825,747.678,276.494z"/>
			<path fill="#FFFFFF" d="M743.466,276.493c0,0.29-0.25,0.521-0.56,0.521c-0.307,0-0.557-0.23-0.557-0.521
				c0-0.285,0.25-0.519,0.557-0.519C743.216,275.974,743.466,276.208,743.466,276.493z"/>
			<path fill="#C29183" d="M738.149,278.066c5.566-4.595,9.086-6.018,13.035-0.493c0,0,0.321-6.888-6.863-5.014
				C741.072,273.409,740.501,274.8,738.149,278.066z"/>
			<path d="M738.149,278.066c4.411-5.336,11.556-6.158,13.035,0C747.235,271.173,743.973,274.942,738.149,278.066z"/>
		</g>
		<g>
			<path fill="#FFFFFF" d="M724.101,274.939c-0.411,1.946,0.574,3.801,2.202,4.145c1.63,0.345,3.284-0.951,3.693-2.896
				c0.413-1.941-0.573-3.797-2.203-4.143C726.165,271.7,724.511,272.998,724.101,274.939z"/>
			<ellipse transform="matrix(-0.9783 -0.207 0.207 -0.9783 1380.442 694.6367)" cx="726.563" cy="275.097" rx="2.443" ry="2.645"/>
			
				<ellipse transform="matrix(-0.9785 -0.2062 0.2062 -0.9785 1378.2009 693.2438)" fill="#FFFFFF" cx="725.221" cy="274.813" rx="0.527" ry="0.456"/>
			<path fill="#C29183" d="M731.044,277.452c-2.407-4.618-4.196-6.27-7.494-2.026c0,0,1.815-7.439,5.997-3.374
				C730.026,272.517,730.269,274.367,731.044,277.452z"/>
			<path d="M731.044,277.452c-1.6-5.11-5.606-6.693-7.583-1.605C727.004,270.433,728.222,274.061,731.044,277.452z"/>
		</g>
		<path fill="#A36647" d="M723.431,271.99c1.244-2.268,4.814-3.417,6.632-2.819c1.818,0.598,1.112-2.15-0.188-1.861
			C728.575,267.599,725.373,267.666,723.431,271.99z"/>
		<path fill="#A36647" d="M750.913,271.891c-1.826-2.305-6.802-3.539-9.273-2.981c-2.477,0.559-1.637-2.183,0.169-1.862
			C743.613,267.367,748.026,267.508,750.913,271.891z"/>
		<path fill="#192229" d="M701.126,707.556c0-5.33,6.244-89.392,9.215-97.546c2.133-5.862,0.401-8.525-0.132-11.191
			c-0.538-2.667,2.701-9.6,0.564-19.725c-2.138-10.128-4.306-40.509-0.031-70.895c4.271-30.385,4.922-47.975,4.063-53.836
			c-0.859-5.865,28.519,21.319,29.05,46.372c0.536,25.051-12.387,75.695-13.986,85.289c-1.604,9.592,2.771,37.848,1.168,50.638
			c-1.601,12.794-18.603,57.568-17.273,70.364"/>
		<path fill="#192229" d="M725.276,346.99c-6.405,19.424-13.884,53.021-18.155,60.896c-4.274,7.873-5.344,6.298-3.743-16.273
			c1.604-22.574,2.498-56.696,10.597-63.519c8.1-6.825,12.374,0,11.302,5.248C724.209,338.592,725.276,346.99,725.276,346.99z"/>
		<path fill="#F6AC83" d="M771.177,279.221c1.136,7.854-7.354,17.764-18.8,21.446c-1.219,15.018-1.312,29.977,7.164,35.038
			l-24.26,63.12l-23.732-13.55l5.074-47.868l10.074-7.09c0,0,5.426-7.101,8.554-29.365"/>
		<path fill="#F6AC83" d="M725.639,267.476"/>
		<path fill="#B72E20" d="M743.718,245.822c-5.229,5.353-4.121,9.359,9.846,14.485c3.556,1.305,1.64,0.913,0,3.262
			c-1.639,2.349,2.394,11.484,5.675,14.485c2.187-5.09,15.186,0.341,3.967,9.266c-2.464,1.958-7.317,5.089-8.684,7.439
			c-1.365,2.348-10.393,9.526-0.685,15.789c17.044,11.001,40.672-3.03,43.019-13.326c2.104-9.249-1.31-13.033-11.022-15.643
			c-4.697-1.263-11.689-4.176-13.57-10.441c-1.881-6.264,1.13-14.751-9.263-18.531C760.313,251.63,753.156,236.165,743.718,245.822z
			"/>
		<path fill="#FFFFFF" d="M727.371,287.546c4.836,4.037,14.997-0.477,14.997,0.092c0,0.567-2.919,2.17-5.489,2.838
			c-3.933,1.023-7.494,1.489-9.508-0.834C725.359,287.318,724.118,284.83,727.371,287.546z"/>
		<path fill="#FFFFFF" d="M752.551,326.547c0,0-25.772,16.026-30.803,32.048c1.275-16.081,6.398-30.79,6.398-30.79l-25.474,48.998
			l8.876,22.021l20.145,7.247L752.551,326.547z"/>
		<path fill="#22323C" d="M774.941,350.992c-6.407,15.223-34.565,54.095-22.391,77.021c3.085,5.807,10.536,15.107,18.012,33.769
			c7.477,18.662-56.201,14.367-56.201,14.367s0.112-32.224,0-44.525c-0.305-32.8-16.972-48.822-14.302-59.845
			c2.668-11.023,17.212-35.514,23.534-46.447c3.862-6.677,2.671-9.472,0-9.999c-2.672-0.524,10.418-3.296,10.418-3.296l-1.121,8.543
			c0,0-24.286,31.774-16.808,63.797c3.737-15.749,25.31-49.153,29.568-53.353c4.26-4.201-3.666-10.079-5.8-11.129
			c4.272-7.874,10.864-6.346,15.141-7.396c-1.069,10.498-1.069,10.498-1.069,10.498s24.116,4.16,27.317,11.508
			C784.446,341.857,774.941,350.992,774.941,350.992z"/>
		<path fill="#22323C" d="M768.032,707.556c-2.668-15.994,11.688-60.767,7.419-86.884c-4.273-26.117-6.49-22.39-6.49-31.983
			c0-9.595,12.818-85.285,4.805-117.269c-8.013-31.981-39.521-46.375-38.455,11.192c1.07,57.569,13.06,89.601,15.131,110.907
			c1.696,17.5,3.329,103.808,0.518,114.036"/>
		<path fill="#22323C" d="M769.144,355.164c15.29,20.145,40.446,63.642,48.499,70.938c8.053,7.293,15.041,0.8,3.742-25.646
			c-11.293-26.448-29.618-63.962-41.466-68.005c-11.846-4.039-13.696,6.428-10.3,12.215
			C773.015,350.455,769.144,355.164,769.144,355.164z"/>
		<path fill="#FFFFFF" d="M791.329,249.553c2.624-0.407,5.486-2.273,5.486-2.84c0-0.569-3.341,1.704-6.439,1.42"/>
	</g>
	<g>
		<path fill="#010102" d="M610.743,421.121c-3.38,1.646-7.028,3.136-10.322,5.186c-0.936,0.579-1.837,1.856-3.035,1.521
			c0.255-1.08,0.084-3.513-0.91-4.27c-3.292,0.141-0.991,5.206-1.516,6.712c-2.286-1.582-1.069-6.703,0.606-7.931
			C600.442,421.94,606.326,420.965,610.743,421.121"/>
		<path fill="#FFFFFF" d="M756.466,436.979c-1.722,0.049-6.258,0.427-7.889-0.609c-0.054-0.356,0.064-0.546,0.295-0.611
			C750.659,435.748,756.569,434.094,756.466,436.979"/>
		<path d="M631.694,440.334c1.318-3.331,7.19,2.01,3.944,4.877C633.679,446.568,630.802,442.579,631.694,440.334 M631.086,436.065
			c-5.589,2.269,0.138,12.881,3.948,12.807C641.476,448.748,638.456,433.07,631.086,436.065"/>
		<path fill="#010102" d="M616.109,423.862c5.672-1.179,13.824-1.848,22.159-2.438c9.594-0.683,20.812-0.744,23.072-5.793
			c-5.011,4.555-13.967,3.985-22.16,4.574c-8.563,0.611-17.111,1.594-24.286,2.744c-1.906,1.903-2.264,7.728,0.605,8.847
			C617.271,430.514,616.898,425.968,616.109,423.862 M656.181,387.268c-3.833,9.471-8.006,18.595-11.841,28.061
			c5.632-0.544,11.639-0.718,17.912-0.611c2.128-9.654,5.275-18.288,6.98-28.365C664.785,386.563,660.457,386.886,656.181,387.268
			 M694.734,388.184c-7.1-1.276-16.358-1.415-23.372-1.832c-2.464,9.013-4.028,18.936-6.071,28.365
			c1.584-0.739,1.138-2.693,1.816-3.661c3.311-4.702,9.299,1.443,12.146,3.661l13.355,0.611c0.654,0.564,2.226,0.203,3.338,0.304
			C695.56,406.466,695.223,397.25,694.734,388.184 M714.088,390.727c-6.501-0.793-10.946-1.835-17.836-2.235
			c0.584,9.072,0.62,18.689,1.518,27.444l29.161,2.295C722.563,409.847,716.359,399.732,714.088,390.727 M686.842,415.328
			c-0.912-0.41-2.317-0.313-3.639-0.308L686.842,415.328z M667.717,414.717c1.614,0,7.486,0.444,9.107,0.444
			c-0.493-0.983-5.586-5.187-7.592-4.105C668.53,412.083,667.367,412.638,667.717,414.717 M755.554,433.927
			c-16.575,4.343-107.889,2.38-116.793,2.369c-2.771-3.818-7.328-4.734-10.816-0.537c-12.15-0.093-24.904,0.424-35.819-0.918
			c10.299-12.623,28.554-17.255,49.483-19.209c3.83-7.255,6.839-14.228,10.321-21.959c1.718-3.813,2.95-8.219,6.681-9.759
			c2.436-1.004,5.704-1.347,8.8-1.524c14.921-0.852,35.369,2.161,46.143,5.183c9.011,2.53,8.503,30.804,27.023,34.464
			c6.973,1.38,13.145,4.849,15.164,11.848C755.679,433.899,755.616,433.909,755.554,433.927"/>
		<path d="M756.664,436.979c0.104-2.886-5.803-1.231-7.587-1.221c-0.235,0.065-0.35,0.255-0.299,0.611
			C750.408,437.406,754.945,437.028,756.664,436.979"/>
		<path fill="#010102" d="M620.738,442.771h7.002c-0.304-1.313-0.779-2.464-0.604-4.266c-12.548,0.051-27.21,0.54-38.557-1.525
			c-0.724-0.386,0.169-2.404-0.604-2.743c-0.952,1.271-0.237,2.65,0.304,3.961c8.071,0.329,13.433,3.386,21.251,3.966
			C615.275,442.135,620.738,442.771,620.738,442.771"/>
		<path d="M614.993,446.129c2.204-0.304,1.888-2.35,3.639-3.358h2.106c0,0-5.463-0.636-11.209-0.607
			C610.437,444.263,612.602,446.458,614.993,446.129"/>
		<path fill="#010102" d="M755.756,433.927c-0.006-0.016-0.009-0.027-0.016-0.043c-0.062,0.016-0.124,0.025-0.187,0.043
			c-16.575,4.343-107.889,4.449-116.793,4.439c1.07,1.466,1.868,3.058,2.243,4.404c25.529-0.581,52.188-0.02,77.714-0.607
			c0,0,5.228-0.125,9.029-0.262c0.028-0.017,0.049-0.03,0.077-0.041c1.265-0.534,2.158-0.283,3.127-0.115
			c0.215-0.016,0.414,0.017,0.597,0.079c0.601,0.061,1.249,0.032,2.047-0.273c0.169,0.49-0.232-0.512,0,0l2.805-0.012
			c-0.225-0.493-0.345,0.278-0.376-0.288c1.581-0.043,2.672-0.569,4.247-0.612c0.156,0.42-0.034-0.694,0,0l2.432-0.61
			c-0.084-0.817,0.162,0.597,0,0c2.938,0.081,6.025-1.755,9.109-2.14c1.87-0.227,4.881,1.021,5.766-1.218
			C757.981,434.751,755.961,435.254,755.756,433.927"/>
		<path fill="#FFFFFF" d="M748.778,436.37c-0.051-0.356,0.063-0.546,0.299-0.611c1.784-0.011,7.691-1.665,7.587,1.221
			C754.945,437.028,750.408,437.406,748.778,436.37"/>
		<path d="M731.548,441.829c-0.183-0.067-0.382-0.1-0.597-0.084C731.146,441.779,731.345,441.806,731.548,441.829"/>
		<path d="M718.718,442.163c0.695,0.77,1.303,1.583,1.968,2.228c0.98,0.951,2.089,1.551,3.807,1.126
			c1.059-0.262,1.435-0.944,1.761-1.669c0.329-0.75,0.604-1.531,1.492-1.946C723.948,442.038,718.718,442.163,718.718,442.163"/>
		<path d="M736.559,440.334c1.32-3.331,7.193,2.01,3.944,4.877C738.545,446.568,735.665,442.579,736.559,440.334 M735.946,436.065
			c-5.584,2.269,0.14,12.881,3.947,12.807C746.343,448.748,743.317,433.07,735.946,436.065"/>
		<path fill="#FFED00" d="M616.23,427.658c0,1.771-0.488,3.215-1.097,3.215c-0.605,0-1.093-1.444-1.093-3.215
			c0-1.781,0.487-3.218,1.093-3.218C615.742,424.44,616.23,425.877,616.23,427.658"/>
		<path fill="#FFED00" d="M597.158,426.307c0,1.774-0.488,3.213-1.094,3.213c-0.606,0-1.095-1.438-1.095-3.213
			c0-1.78,0.488-3.219,1.095-3.219C596.67,423.088,597.158,424.526,597.158,426.307"/>
	</g>
	<path fill="#192229" d="M758.577,442.289c18.566-2.297,57.905-3.322,66.104-13.711c9.562-12.11,2.609-16.118-10.366-13.278
		c-17.271,3.779-36.639,16.613-55.006,15.854L758.577,442.289z"/>
	<path fill="#F6AC83" d="M759.21,434.479c-2.516,1.234-7.471-2.114-13.754-0.764c-1.803,0.386-5.361,2.808-5.361,2.808
		c3.476,2.248,7.07-1.084,8.735-0.384c1.544,0.649-0.516-0.952-2.822,0.475c-3.103,1.92-9.86,1.255-16.238,0.62l4.635,4.238
		c9.349,3.849,16.827,2.443,24.471-0.45"/>
</g>
<g>
	<radialGradient id="SVGID_1_" cx="197.3003" cy="434.1299" r="28.3816" gradientUnits="userSpaceOnUse">
		<stop  offset="0" style="stop-color:#22333D"/>
		<stop  offset="1" style="stop-color:#192229"/>
	</radialGradient>
	<path fill="url(#SVGID_1_)" d="M201.856,395.302c9.271,7.966-0.931,61.404-1.348,67.15c-0.411,5.738-10.636,18.047-11.449,5.434
		c-0.8-12.613,1.123-59.621,1.123-59.621S198.162,392.128,201.856,395.302z"/>
	<radialGradient id="SVGID_2_" cx="218.3223" cy="448.1279" r="24.7702" gradientUnits="userSpaceOnUse">
		<stop  offset="0" style="stop-color:#22333D"/>
		<stop  offset="1" style="stop-color:#192229"/>
	</radialGradient>
	<path fill="url(#SVGID_2_)" d="M240.094,424.677c-14.255,9.283-32.146,19.325-40.671,27.563
		c-10.999,10.635-9.612,26.789,6.618,15.496c13.169-9.169,22.877-27.452,38.304-34.349L240.094,424.677z"/>
	<path fill="#F6AC83" d="M243.05,430.731c5.282-2.868,13.665,0.57,18.306-0.918c2.455-0.79,5.303-2.879,5.303-2.879
		c-1.553-0.878-3.908,0.591-6.185,1.254c-2.267,0.657-4.062,0.065-1.191-2.391c3.101-2.641,5.79-5.757,14.944-7.149l-6.757-6.499
		c-12.012,2.888-16.158,10.345-26.477,14.37"/>
	<path fill="#F6AC83" d="M206.639,791.539c4.939,1.667,6.764,0.539,7.26-1.945c-0.646-0.643-15.512-12.368-15.512-17.86
		c0-5.49-10.164-92.063-13.07-100.461c-2.09-6.035,0.883-8.782,1.405-11.526c0.523-2.745-0.881-9.881,1.208-20.312
		c2.09-10.435,5.23-41.721,1.046-73.018c-4.182-31.287-4.822-49.403-3.98-55.44c0.844-6.043-27.911,21.954-28.434,47.757
		c-0.524,25.803,11.832,77.956,13.399,87.835c1.567,9.881-2.421,38.977-0.853,52.154c1.569,13.175,21.561,59.285,20.258,72.465
		c0,0-1.928,1.457-4.717,4.203C191.006,780.543,199.819,789.236,206.639,791.539"/>
	<path fill="#19313C" d="M201.499,796.939c0.014,0.012,0.024,0.023,0.024,0.023C201.813,797.062,201.602,796.974,201.499,796.939"/>
	<path fill="#19313C" d="M201.523,796.963c0,0-0.01-0.012-0.024-0.021C201.449,796.921,201.426,796.919,201.523,796.963"/>
	<path fill="#E52629" d="M185.318,796.094h3.901c-0.711-2.958-0.947-7.089-1.033-7.851c-0.168-1.468,12.848,8.204,13.313,8.696
		c0.103,0.034,0.266,0.212,0.024,0.023c7.502,5.825,21.797,3.317,22.188-0.267c0.327-3.023-6.078-3.383-9.811-7.103
		c-0.498,2.484-2.323,3.612-7.259,1.945c-6.818-2.303-15.635-10.996-21.99-16.148c-1.408,1.388-2.471,3.104-2.471,5.131
		C182.18,786.557,185.318,796.094,185.318,796.094"/>
	<path fill="#F6AC83" d="M150.054,797.955c1.02-0.331,1.804-3.101,2.301-5.5c-4.653-8.049-2.749-19.217-5.724-30.599
		c-2.75-10.541-2.093-34.589-3.138-53.256c-0.705-12.602,1.115-37.418,2.776-55.442c2.025-21.941,17.612-53.798,18.657-113.085
		c1.043-59.294-29.799-44.469-37.642-11.53c-7.84,32.938,3.04,110.892,3.04,120.772c0,9.884-0.264,6.039-4.442,32.938
		c-4.182,26.896,14.474,72.462,11.859,88.937c-1.257,7.918-1.663,14.555-1.577,19.815c0.855,2.002,1.974,4.136,3.32,5.607
		C142.742,800.171,148.214,798.553,150.054,797.955"/>
	<path fill="#E52629" d="M157.475,808.273c2.658-1.357-1.958-11.84-1.958-11.84c-1.306-1.216-2.335-2.549-3.162-3.98
		c-0.497,2.399-1.281,5.171-2.301,5.504c-1.839,0.596-7.312,2.214-10.569-1.344c-1.346-1.472-2.465-3.605-3.32-5.607
		c0.094,5.672,0.764,9.742,1.577,12.021C139.311,807.416,152.913,813.504,157.475,808.273"/>
	<g>
		<path fill="#E52629" d="M187.569,486.141c2.207,0.758,5.79,0.145,8.556,0.341c1.223-4.742,5.148-10.133,10.95-8.896
			c3.676,0.784,4.313,4.607,4.793,9.24c4.688-0.219,10.252,0.44,14.375-0.344c-1.594-8.056-5.171-16.379-10.609-20.532
			c-2.717-2.071-8.831-2.913-13.005-1.029C195.266,468.245,189.814,478.212,187.569,486.141"/>
		<path fill="#E52629" d="M251.565,486.14c6.432-0.025,11.003,0.189,17.113,0c0.847-9.667,16.992-14.459,16.77,0
			c5.37-0.182,10.941,0.296,15.401,0c-3.019-11.229-10.018-20.734-23.274-19.85C264.378,467.175,256.73,477.019,251.565,486.14
			 M292.978,479.979c-3.22,0.983-6.644-4.313-3.765-7.528C294.151,471.313,296.55,478.887,292.978,479.979"/>
		<path fill="#FAEA27" d="M343.671,479.028c0.004-0.276,0.345-0.216,0.566-0.284c2.15-3.005-2.299-7.568-4.527-4.525
			C339.507,477.344,340.891,478.885,343.671,479.028"/>
		<path fill="#FAEA27" d="M289.615,473.143c-2.347,2.626,0.444,6.948,3.072,6.145C295.607,478.396,293.648,472.218,289.615,473.143"
			/>
		<radialGradient id="SVGID_3_" cx="276.6943" cy="487.3574" r="7.4562" gradientUnits="userSpaceOnUse">
			<stop  offset="0" style="stop-color:#22333D"/>
			<stop  offset="1" style="stop-color:#192229"/>
		</radialGradient>
		<path fill="url(#SVGID_3_)" d="M279.286,479.638c-4.338-0.994-10.253,3.988-9.582,10.268c1.029,9.588,14.277,4.918,14.03-4.104
			C283.666,483.191,282.156,480.299,279.286,479.638 M275.522,491.274c-4.031-0.752-2.125-8.528,2.053-7.529
			C282.756,484.98,278.716,491.869,275.522,491.274"/>
		<radialGradient id="SVGID_4_" cx="203.7974" cy="487.5117" r="7.2376" gradientUnits="userSpaceOnUse">
			<stop  offset="0" style="stop-color:#22333D"/>
			<stop  offset="1" style="stop-color:#192229"/>
		</radialGradient>
		<path fill="url(#SVGID_4_)" d="M206.733,479.979c-9.628-3.147-12.83,14.4-5.135,15.4
			C208.411,496.266,214.335,482.468,206.733,479.979 M203.655,491.273c-5.702,0.444-3.113-9.837,1.709-7.188
			C208.365,485.737,206.172,491.08,203.655,491.273"/>
		<path fill="#FFFFFF" d="M253.278,448.152c-0.831-0.57,1.35,0.936,0.686,2.396c-0.804-0.106-0.205-1.624-1.37-1.369
			c0.146,0.65,0.736,0.859,0.685,1.712c-1.271-0.099-0.929-1.811-2.396-1.712c-0.001,1.369-0.683,2.055-0.683,3.422h5.133
			C255.406,450.36,254.712,448.888,253.278,448.152"/>
		<path fill="#FAEA27" d="M302.218,486.141h-0.002h7.896C307.443,486.175,304.779,486.208,302.218,486.141"/>
		<radialGradient id="SVGID_5_" cx="333.5303" cy="488.7344" r="10.8104" gradientUnits="userSpaceOnUse">
			<stop  offset="0" style="stop-color:#22333D"/>
			<stop  offset="1" style="stop-color:#192229"/>
		</radialGradient>
		<path fill="url(#SVGID_5_)" d="M336.439,486.141c-1.857,2.188-4.296,5.669-8.215,5.134c-2.352-0.322-3.563-2.216-4.447-4.793
			c-1.695-0.189-3.48-0.294-5.313-0.341h30.132C344.274,486.178,341.17,486.648,336.439,486.141"/>
		<radialGradient id="SVGID_6_" cx="238.707" cy="488.9102" r="8.3584" gradientUnits="userSpaceOnUse">
			<stop  offset="0" style="stop-color:#22333D"/>
			<stop  offset="1" style="stop-color:#192229"/>
		</radialGradient>
		<path fill="url(#SVGID_6_)" d="M250.199,486.141L250.199,486.141c-1.695,0.246-3.41,0.47-5.48,0.341
			c-1.243,3.319-3.511,5.615-8.553,5.133c-1.959-1.003-2.643-3.286-3.766-5.133h-5.136c-0.015-0.052-0.032-0.11-0.049-0.168v-0.173
			H250.199z"/>
		<path fill="#E52629" d="M328.911,464.92c-1.286,0.548,1.051,1.671,1.709,2.396c2.299,2.541,7.543,7.615,6.163,13.689
			c-1.167,5.117-9.733,5.825-15.4,4.45c-11.067-2.685-16.856-12.699-26.352-19.85c-10.022-7.548-19.542-11.966-33.197-13.006
			c-1.486-8.446-3.198-16.67-4.289-25.517l3.926-2.369c7.824-1.139,22.837-0.18,24.315,0.849c3.063,2.131,4.473,8.878,5.819,12.665
			c1.742,4.908,3.241,9.171,4.795,13.348c-1.891,0.622-4.724,0.3-6.85,0.685c17.463,6.035,32.701,14.303,40.383,30.113
			c-2.01-1.229-2.476-3.732-3.763-5.477c-6.414-8.67-15.283-15.115-26.354-19.848c-4.19-1.791-8.827-4.197-13.345-4.789
			c-5.71-0.75-11.064,0.55-17.455,0c0.967,1.562,3.146,1.024,4.451,1.367c10.248,2.673,18.308,7.475,26.008,14.031
			c8.313,7.074,15.29,18.166,28.405,17.456c5.326-0.294,9.691-3.88,7.872-9.927c-1.501-4.993-9.233-11.211-13.691-14.374
			c-7.117-5.052-14.367-7.447-23.269-8.554c-3.7-9.077-6.625-18.93-10.608-27.722c-4.176-2.855-12.756-4.103-20.192-3.762
			c-53.002-6.678-54.219,32.729-54.22,32.744h-0.002c-0.799,2.619-9.577,7.036-11.144,10.031c1.114,0.954,3.354-0.582,5.133-0.682
			c12.453-0.71,16.429,13.54,19.455,23.442v-0.174h22.983c5.163-9.175,13.816-19.714,26.692-20.874
			c15.15-1.367,21.742,9.343,25.326,20.874h7.895c2.82-0.037,5.642-0.077,8.353,0h30.133c0.388-0.001,0.78-0.001,1.189,0
			C348.687,473.21,340.69,467.175,328.911,464.92z M253.277,445.415c-2.209-0.367-4.104,2.615-4.104,5.133l-0.196,2.053
			l-30.118,0.921c6.229-33.523,35.603-27.531,35.603-27.531l4.634,26.61C254.531,452.85,257.397,446.097,253.277,445.415z"/>
		<path fill="#FAEA27" d="M340.456,473.143c-2.344,2.626,0.447,6.948,3.075,6.145C346.451,478.396,344.49,472.218,340.456,473.143"
			/>
	</g>
	<radialGradient id="SVGID_7_" cx="158.0498" cy="441.8633" r="13.4786" gradientUnits="userSpaceOnUse">
		<stop  offset="0" style="stop-color:#22333D"/>
		<stop  offset="1" style="stop-color:#192229"/>
	</radialGradient>
	<path fill="url(#SVGID_7_)" d="M144.614,441.866c0,7.468,6.011,13.519,13.438,13.519c7.417,0,13.433-6.051,13.433-13.519
		s-6.015-13.523-13.433-13.523C150.625,428.343,144.614,434.398,144.614,441.866z"/>
	<radialGradient id="SVGID_8_" cx="182.0068" cy="440.3828" r="13.4786" gradientUnits="userSpaceOnUse">
		<stop  offset="0" style="stop-color:#22333D"/>
		<stop  offset="1" style="stop-color:#192229"/>
	</radialGradient>
	<path fill="url(#SVGID_8_)" d="M168.572,440.384c0,7.468,6.015,13.521,13.438,13.521c7.416,0,13.431-6.054,13.431-13.521
		c0-7.469-6.015-13.522-13.431-13.522C174.587,426.861,168.572,432.915,168.572,440.384z"/>
	<radialGradient id="SVGID_9_" cx="137.3799" cy="450.084" r="33.9994" gradientUnits="userSpaceOnUse">
		<stop  offset="0" style="stop-color:#22333D"/>
		<stop  offset="1" style="stop-color:#192229"/>
	</radialGradient>
	<path fill="url(#SVGID_9_)" d="M114.097,410.154c-9.303,12.731,29.595,67.064,32.673,73.037c3.079,5.978,19.361,14.534,14.39,0.627
		c-4.97-13.905-24.722-69.257-24.722-69.257S117.469,405.54,114.097,410.154z"/>
	<radialGradient id="SVGID_10_" cx="183.2568" cy="486.7246" r="23.5354" gradientUnits="userSpaceOnUse">
		<stop  offset="0" style="stop-color:#22333D"/>
		<stop  offset="1" style="stop-color:#192229"/>
	</radialGradient>
	<path fill="url(#SVGID_10_)" d="M215.501,489.185c-16.458,2.295-35.983,6.398-47.72,5.718
		c-15.147-0.883-25.553-14.128-6.295-16.187c15.611-1.666,35.241,5.911,50.833,1.021L215.501,489.185z"/>
	<path fill="#F6AC83" d="M212.016,480.621c2.935,0.584,7.146-4.283,14.021-4.622c1.968-0.096,6.318,1.438,6.318,1.438
		c-2.968,3.304-7.614,0.833-9.136,2.03c-1.423,1.099,0.269-1.143,3.044-0.299c3.741,1.143,10.546-1.426,16.98-3.859l-3.635,5.697
		c-8.606,6.609-16.731,7.219-25.449,6.331"/>
	<path fill="#F6AC83" d="M212.016,480.621c2.935,0.584,7.146-4.283,14.021-4.622c1.968-0.096,6.318,1.438,6.318,1.438
		c-2.968,3.304-7.614,0.833-9.136,2.03c-1.423,1.099,0.269-1.143,3.044-0.299c3.741,1.143,10.546-1.426,16.98-3.859l-3.635,5.697
		c-8.606,6.609-16.731,7.219-25.449,6.331"/>
	<g>
		<radialGradient id="SVGID_11_" cx="158.0566" cy="455.5645" r="54.359" gradientUnits="userSpaceOnUse">
			<stop  offset="0" style="stop-color:#22333D"/>
			<stop  offset="1" style="stop-color:#192229"/>
		</radialGradient>
		<path fill="url(#SVGID_11_)" d="M129.598,516.23c1.505-4.606,3.301-8.835,5.434-12.549c8.75-15.233,3.955-21.21,3.955-21.21
			l-24.583-72.188c0,0,29.129-26.222,87.304-15.366c0,0-17.416,72.479-17.416,85.186c0,5.177,2.408,14.217,4.933,30.223
			C177.075,519.888,153.713,520.69,129.598,516.23z"/>
		<path fill="#010102" d="M189.227,510.325c3.677,23.301,7.604,61.365,4.707,123.787c-15.216,2.7-58.607,4.688-66.67,3.786
			c0,0-11.948-77.964,2.334-121.668C153.713,520.69,177.075,519.888,189.227,510.325z"/>
	</g>
	<path fill="#F6AC83" d="M137.033,349.744c0,15.72,10.677,30.921,27.328,34.073c14.612,2.77,28.419-16.977,21.616-23.914
		c-10.229-10.435,8.16-35.54-24.919-38.629C147.85,320.037,137.033,334.018,137.033,349.744z"/>
	<path fill="#F6AC83" d="M150.474,375.164c5.333,17.122-5.238,18.916-5.238,18.916c-5.242,1.796-14.01,5.224-14.01,5.224
		c11.016,6.179,17.683,21.3,34.827,21.3c7.226,0,16.385-15.562,15.498-22.716c-0.496-3.997-16.456-5.602-16.456-5.602
		c-0.726-5.019,1.237-15.051,2.516-17.122"/>
	<g>
		<path fill="#FFFFFF" d="M157.075,355.857c0,2.822,2.086,5.106,4.654,5.106c2.581,0,4.667-2.284,4.667-5.106
			c0-2.814-2.086-5.099-4.667-5.099C159.162,350.759,157.075,353.043,157.075,355.857z"/>
		<path d="M158.509,356.07c0,1.663,1.44,3.017,3.22,3.017c1.785,0,3.227-1.354,3.227-3.017c0-1.669-1.442-3.017-3.227-3.017
			C159.95,353.054,158.509,354.401,158.509,356.07z"/>
		<path fill="#FFFFFF" d="M161.511,355.195c0,0.287,0.248,0.521,0.56,0.521c0.298,0,0.547-0.233,0.547-0.521
			c0-0.286-0.249-0.52-0.547-0.52C161.758,354.676,161.511,354.909,161.511,355.195z"/>
		<path fill="#E29282" d="M168.526,357.636c-6.797-4.582-12.146-5.781-12.92-0.49c0,0,0.011-8.596,7.129-6.722
			C165.956,351.268,166.192,354.376,168.526,357.636z"/>
		<path d="M168.526,357.636c-6.797-4.582-11.451-6.144-12.92,0C155.606,350.158,163.188,351.951,168.526,357.636z"/>
	</g>
	<g>
		<path fill="#FFFFFF" d="M182.438,355.558c0,2.82-1.288,5.104-2.875,5.104c-1.595,0-2.884-2.284-2.884-5.104
			c0-2.817,1.289-5.101,2.884-5.101C181.15,350.457,182.438,352.74,182.438,355.558z"/>
		<ellipse cx="179.56" cy="355.768" rx="1.991" ry="3.017"/>
		<path fill="#FFFFFF" d="M179.697,354.896c0,0.286-0.153,0.518-0.345,0.518c-0.186,0-0.338-0.231-0.338-0.518
			c0-0.288,0.153-0.522,0.338-0.522C179.544,354.373,179.697,354.607,179.697,354.896z"/>
		<path fill="#E29282" d="M175.362,357.335c4.201-4.583,7.506-5.78,7.983-0.489c0,0-0.006-8.595-4.404-6.723
			C176.951,350.967,176.804,354.075,175.362,357.335z"/>
		<path d="M175.362,357.335c4.201-4.583,7.076-6.144,7.983,0C183.345,349.855,178.661,351.65,175.362,357.335z"/>
	</g>
	<path fill="#E06753" d="M176.209,370.036c0.127-0.068,0.202,0.068,0.27,0.287c0.039,0.054,0.075,0.106,0.109,0.171
		c0,0,0.09,0.22,0.089,0.537c0.216,0.638,0.615,1.04,1.853-0.751c-2.281,4.609-3.241,5.877-5.014,5.604
		c-1.941,0.272-2.99-0.995-5.488-5.604C170.66,373.764,174.528,368.773,176.209,370.036z"/>
	<path fill="#432918" d="M154.962,349.855c2.247-1.904,7.424-2.16,9.768-1.135c2.343,1.023,2.039-1.823,0.188-1.857
		C163.068,346.831,158.666,346.118,154.962,349.855z"/>
	<path fill="#432918" d="M183.979,351.002c-1.199-2.257-4.665-3.399-6.428-2.797c-1.763,0.602-1.072-2.143,0.19-1.859
		C179,346.635,182.105,346.694,183.979,351.002z"/>
	<path fill="#432918" d="M178.973,321.805c0.187,2.52-0.307,5.187-1.312,7.811c-3.747,9.764-15.073,14.74-24.639,17.856
		c-15.868,5.168-1.736,30.691-1.736,30.691s-20.063-0.227-24.311-16.423c-8.435,4.961-18.187-11.551-10.692-21.781
		c5.936-8.09,16.095-6.102,15.14,0c-0.963,6.098,9.541-48.286,52.239-13.338c4.048,3.311-0.232,25.781-1.338,19.338
		c-1.222-7.117-0.474-16.611-8.69-16.668"/>
	<path fill="#F6AC83" d="M140.839,361.754c0.606,3.104,2.871,5.272,5.059,4.839c2.189-0.432,3.467-3.302,2.86-6.413
		c-0.607-3.105-2.869-5.275-5.063-4.846C141.511,355.769,140.226,358.643,140.839,361.754z"/>
	<path fill="#010102" d="M181.9,344.439c-3.66,0-6.78,2.844-7.962,6.808c-1.038-0.398-2.255-0.431-3.267-0.167
		c-0.369,0.094-0.704,0.232-1.018,0.395c-1.128-4.082-4.298-7.035-8.033-7.035c-4.277,0-7.819,3.882-8.387,8.898
		c-3.629-0.008-6.079-0.993-8.376,0.059l1.064,2.567c1.508-0.689,2.434,0.169,7.31,0.177c0.562,5.026,4.104,8.916,8.388,8.916
		c4.626,0,8.393-4.531,8.471-10.136c0.1-0.688,0.716-0.993,1.22-1.124c0.973-0.251,1.892,0.033,2.14,0.348
		c-0.01,0.202-0.025,0.398-0.025,0.603c0,5.686,3.803,10.31,8.475,10.31c4.676,0,7.962-4.624,7.962-10.31
		C189.862,349.063,186.576,344.439,181.9,344.439z M161.62,362.256c-3.201,0-5.807-3.368-5.807-7.509
		c0-4.14,2.606-7.509,5.807-7.509c3.204,0,5.809,3.369,5.809,7.509C167.429,358.888,164.824,362.256,161.62,362.256z M181.9,362.256
		c-3.201,0-5.808-3.368-5.808-7.509c0-4.14,2.606-7.509,5.808-7.509c3.203,0,5.294,3.369,5.294,7.509
		C187.194,358.888,185.103,362.256,181.9,362.256z"/>
</g>
<polygon fill="#FFDE00" points="692.751,207.255 695.39,215.379 703.933,215.379 697.021,220.401 699.662,228.527 692.751,223.505 
	685.838,228.527 688.478,220.401 681.567,215.379 690.109,215.379 "/>
<polygon fill="#FFDE00" points="720.657,207.255 723.297,215.379 731.839,215.379 724.929,220.401 727.569,228.527 720.657,223.505 
	713.746,228.527 716.385,220.401 709.474,215.379 718.016,215.379 "/>
<polygon fill="#FFDE00" points="748.564,207.255 751.202,215.379 759.746,215.379 752.834,220.401 755.475,228.527 748.564,223.505 
	741.65,228.527 744.291,220.401 737.38,215.379 745.924,215.379 "/>
<polygon fill="#FFDE00" points="776.47,207.255 779.111,215.379 787.652,215.379 780.739,220.401 783.381,228.527 776.47,223.505 
	769.559,228.527 772.2,220.401 765.286,215.379 773.829,215.379 "/>
<polygon fill="#706F6F" points="804.376,207.255 807.017,215.379 815.559,215.379 808.648,220.401 811.288,228.527 804.376,223.505 
	797.465,228.527 800.105,220.401 793.193,215.379 801.736,215.379 "/>
<polygon fill="#FFDE00" points="488.743,194.109 491.384,202.235 499.927,202.235 493.016,207.256 495.655,215.381 488.743,210.359 
	481.833,215.381 484.473,207.256 477.563,202.235 486.104,202.235 "/>
<polygon fill="#FFDE00" points="516.652,194.109 519.292,202.235 527.834,202.235 520.922,207.256 523.562,215.381 516.652,210.359 
	509.739,215.381 512.379,207.256 505.468,202.235 514.012,202.235 "/>
<polygon fill="#FFDE00" points="544.557,194.109 547.197,202.235 555.74,202.235 548.829,207.256 551.469,215.381 544.557,210.359 
	537.645,215.381 540.285,207.256 533.375,202.235 541.918,202.235 "/>
<polygon fill="#FFDE00" points="572.465,194.109 575.104,202.235 583.647,202.235 576.736,207.256 579.374,215.381 572.465,210.359 
	565.553,215.381 568.191,207.256 561.28,202.235 569.822,202.235 "/>
<polygon fill="#FFDE00" points="600.369,194.109 603.01,202.235 611.553,202.235 604.644,207.256 607.282,215.381 600.369,210.359 
	593.46,215.381 596.098,207.256 589.188,202.235 597.729,202.235 "/>
<g>
</g>
<g>
</g>
<g>
</g>
<g>
</g>
<g>
</g>
<g>
</g>
</svg>
