<svg width="1046" height="638" viewBox="0 0 1046 638" xmlns="http://www.w3.org/2000/svg" xmlns:xlink="http://www.w3.org/1999/xlink"><defs><path id="a" d="M147.53.004l-.042 29.91H.938V.004h146.59z"/><path id="c" d="M99.603.762v97.776H.74V.762z"/><path id="e" d="M.56.312H63v49.202H.56z"/><filter x="-10.1%" y="-20.8%" width="120.2%" height="158.3%" filterUnits="objectBoundingBox" id="g"><feOffset dy="5" in="SourceAlpha" result="shadowOffsetOuter1"/><feGaussianBlur stdDeviation="5" in="shadowOffsetOuter1" result="shadowBlurOuter1"/><feColorMatrix values="0 0 0 0 0 0 0 0 0 0 0 0 0 0 0 0 0 0 0.121801404 0" in="shadowBlurOuter1" result="shadowMatrixOuter1"/><feMerge><feMergeNode in="shadowMatrixOuter1"/><feMergeNode in="SourceGraphic"/></feMerge></filter><filter x="-8.6%" y="-17.1%" width="117.2%" height="147.9%" filterUnits="objectBoundingBox" id="h"><feOffset dy="5" in="SourceAlpha" result="shadowOffsetOuter1"/><feGaussianBlur stdDeviation="5" in="shadowOffsetOuter1" result="shadowBlurOuter1"/><feColorMatrix values="0 0 0 0 0 0 0 0 0 0 0 0 0 0 0 0 0 0 0.121801404 0" in="shadowBlurOuter1" result="shadowMatrixOuter1"/><feMerge><feMergeNode in="shadowMatrixOuter1"/><feMergeNode in="SourceGraphic"/></feMerge></filter></defs><g fill="none" fill-rule="evenodd"><path d="M324.684 428.115c-6.71.808-13.25 2.567-19.077 5.44-36.96 18.206-65.386 71.54-78.366 115.42v4.405c6.97 2.23 16.34 1.858 25.7 1.495 5.86-.23 11.72-.454 16.97-.07 6.81-26.636 27.5-57.01 57.12-50.113 18.74 4.373 21.58 25.867 23.52 51.903 9.09-.476 18.79-.247 28.51-.013 15.75.337 31.51.708 44.6-1.928v-3.737c-7.6-44.12-24.82-89.036-51.5-111.722-6.68-5.67-17.57-9.693-29.48-11.08H324.7zm362.83 12.575c-66.35 6.024-106.054 60.576-133.247 111.29v.402c12.28-.09 23.22.013 33.763.143 17.657.19 34.133.375 53.71-.316 5.41-54.36 88.67-81.44 85.94-.18 12.714-.48 25.642-.19 38.127.1 13.848.34 27.15.66 39.022-.1v-7.46c-13.67-53.74-43.03-98.79-96.19-103.89h-21.13zm60.966 34.376c25.434-6.43 36.912 36.104 18.464 42.296-1.393.463-2.774.67-4.138.67-15.082 0-28.175-26.368-14.326-42.966z" fill="#84B35A"/><path d="M266 463.372c-22.21-8.144-41.804 21.708-30.887 43.628 11.117-13.632 16.64-33.428 30.887-43.628m483.733 15.155c-12.2 14.526 1.503 38.364 14.934 33.932 14.916-4.98 5.647-39.08-14.934-33.94m265.217-.97c-12.35 14.85 1.51 39.22 15.097 34.68 15.084-5.09 5.714-39.95-15.096-34.69" fill="#E5D301"/><path d="M678.34 580.056c-20.626-4.205-9.982-48.114 11.372-42.538 26.463 6.948 4.94 45.884-11.37 42.538m20.604-65.733c-22.176-5.58-53.113 22.63-50.345 58.065 4.22 54.107 72.78 27.622 72.53-23.33-.09-14.708-7.51-31.025-22.17-34.735m-389.68 66.41c-29.32 2.553-14.88-55.513 9.59-40.575 15.23 9.29 3.37 39.46-9.58 40.576m17.07-63.772c-49.11-17.693-67.48 81.395-28.06 86.99 34.87 4.925 66.83-73.033 28.06-86.99" fill="#2E2F2C"/><path d="M630.295 183c-20.846 1.67-41.146 5.452-52.06 18.472 2.974 56.618 13.163 105.45 17.908 160.127-23.417 1.44-7.992-36.65-29.013-40.47-11.274-2.05-21.328 14.77-21.597 28.98l-1.23 11.56-77.586.16-29.928-9.6c-46.39-12.91-91.22-27.49-137.7-40.27-4.7 18.39-9.19 37.04-13.09 56.31v1.59l45.25-.09c-4.37 14.82-17.24 37.18-25.61 54.09 5.59 5.33 17.23-3.33 26.38-3.92 63.87-4.13 82.66 76.2 97.08 132.02l.01-.99 117.72-.23C574.3 499 619.8 439.49 685.89 432.8c77.764-7.86 110.346 52.48 127.41 117.46l40.46-.07c14.462-.23 28.914-.47 42.784-.06l149.44-.28v-51.01c-16.453-38.74-49.74-59.29-93.57-68.46-6.64 3.12 5.213 9.41 8.503 13.49 11.494 14.32 37.797 42.88 30.04 77.11-6.526 28.88-50.498 32.94-79.367 25.25-56.415-15.01-84.96-71.44-132.81-111.64-50.503-42.47-98.77-67.29-168.633-73.01-6.98-49.74-15.344-98.03-19.824-150.48 20.81-15.73 67.36-16.04 100.185-13.69 15.62 1.14 36.104 4.33 45.364 11.49 15.446 11.99 21.94 50 28.396 71.346 8.395 27.66 15.61 51.68 23.086 75.22-9.73 3.52-24.22 1.736-35.126 3.92 88.78 33.87 165.905 80.34 203.54 169.44-10.177-6.938-12.286-21.046-18.69-30.86-31.895-48.836-76.63-85.07-132.79-111.64-21.3-10.07-44.78-23.6-67.853-26.89-15.35-2.218-30.26-1.217-45.69-.21-13.91.9-28.248 1.8-43.73.363 4.78 8.79 16 5.78 22.64 7.66 52.217 14.98 92.947 41.97 131.69 78.87 41.8 39.82 76.32 102.31 143.6 98.14 27.31-1.67 50.06-21.98 41.413-56.03-7.125-28.15-46.07-63.14-68.532-80.93-35.934-28.41-72.78-41.84-118.274-48.02-17.947-51.12-31.856-106.65-51.292-156.19-14.16-10.81-38.59-17.48-64.68-20.1H630.3zm-75.863 159.377c3.408-9.288 9.88-15.915 14.07-12.734 7.24 4.14 8.995 19.348 8.344 32l-26.29.043c.143-7.715 1.202-12.058 3.876-19.31zm449.627 138.105c14.2-20.8 41.16 10.285 27.42 30.81-1.36.435-3.45.07-3.54 1.947-17.22-.96-25.58-11.43-23.89-32.76z" fill="#84B35A"/><path d="M814.192 551.458v-.013l40.5-.075c-13.684.238-27.346.44-40.5.088" fill="#E5D301"/><g transform="translate(896.566 551)"><mask id="b" fill="#fff"><use xlink:href="#a"/></mask><path d="M93.138.136c-9.782 12.537-22.68 32.488-42.704 29.472-12.024-1.822-18.02-12.643-22.275-27.4C19.49 1.123 10.34.578.93.3L155.46.005v.013c-22.177.25-38.14 2.967-62.326.12" fill="#2E2F2C" mask="url(#b)"/></g><path d="M547.313 553.142v.013c-8.694 1.37-17.5 2.664-28.052 1.97-6.73 18.72-18.61 31.667-44.34 29.007-9.94-5.645-13.16-18.504-18.69-28.895l-26.25.06-.24-.96.02-.977 117.57-.218z" fill="#2E2F2C"/><path d="M434.735 593.587v10.338l-9.59 2.32v-3.028s-12.235 7.944-47.133 4.39c25.64-5.45 33.332-7.732 46.48-16.376l10.243 2.36zm44.227-4.07c-.957 4.746-2.958 8.9-5.093 10.734l-4.94 26.29c4.96 2.76 21.68-21.29 21.69-25.13.01-3.67-.95-7.93-.72-11.17l-10.94-.71z" fill="#2E1C17"/><path d="M408.478 307.81c-3.17 36.596 18.127 231.234 15 263.74 0 0 5.054 6.072.996 19.535l10.238 4.007s5.637-275.418 4.037-285.904l-30.28-1.378z" fill="#3F4040"/><path d="M452.794 376.773c6.585 35.088 24.295 205.977 24.69 217.78l11.404-1.8s-9.785-278.072-9.064-285.486c0 0-50.773-26.713-58.762-26.3-8.007.42 7.66 57.094 7.66 57.094s16.796-.02 24.072 38.72" fill="#3D3D3C"/><path fill="#FEFEFE" d="M436.306 123.916l2.51-14.02 4.784 7.04 28.118-14.65 5.58 11.73 10.446 11.174-4.41 29.807.853 3.612-56.157 73.89-9.066-74.8 5.166-14.41"/><path fill="#80BAB8" d="M444.873 130.68l-18.602 61.946 3.91 32.667 12.4-23.48 4.48-71.132v-8.1l-3.46-5.64-2.17 6.54"/><path d="M513.042 188.836c8.503 21.998 17.997 66.564 15.61 72.787-2.35 6.245 27.72 9.005 27.72 9.005S536.977 158.34 540.29 144.743c3.314-13.624-27.248 44.093-27.248 44.093m-122.39-51.903c-.374 23.563-17.563 106.758-22.116 111.656-4.51 4.88 22.324 18.73 22.324 18.73s24.208-111.34 32.393-122.73c8.203-11.37-32.6-7.66-32.6-7.66" fill="#3D3D3C"/><path d="M476.078 111.477c8.26 16.084 52.486 21.12 64.155 30.147 0 0-70.95 118.887-69.662 131.968 1.3 13.055 15.96 56.01 15.96 56.01s-19.77 6.122-49.5 3.988c0 0-5.26-33.928-8.04-40.155l-1.35 40.598c-13.91.826-17.56.078-26.82-5.558-2.62-1.595 11.44-50.016 10.8-59.48-.64-9.457-20.96-104.32-20.96-132.064 0 0 40.43-13.77 46.37-16.94-2.23 13.51-13.31 51.69-6.84 105.31 0 0 26.89-53.95 45.9-113.81" fill="#3D3D3C"/><path d="M335.008 247.207c-7.668-1.5-33.61-1.46-31.336-10.24 2.266-8.764 1.483-19.49 8.09-17.625 6.57 1.86 7.014-1.834 7.014-1.834s2.48-12.19 6.972-10.747c4.476 1.45-1.46 11.97-1.322 13.42.857 9.09 14.244 14.81 14.244 14.81M439.827 94.5c.244-7.02-1.974-15.493-3.94-28.596-.948-6.353 5.867-8.456 5.728-12.424-.083-2.41-2.866-3.87-3.388-6.646-.748-4.033 10.503-9 10.586-18.37.095-9.378 24.273-6.76 25.6 1.3.834 5.258-.375 15.31-1.327 26.175 2.018 1.62 6.963-5.41 10.95-3.29 4.503 2.45 5.53 12.5 2.07 18.22-2.878 4.72-9.206 3.3-13.816 7.23.243 4.59.878 8.81 2.122 12.24 8.838 24.44-10.68 36.13-43.47 24.18 0 0 8.676-15.16 8.885-20.03" fill="#F3AB81"/><path d="M456.68 52.823c0 1.416 1.162 2.59 2.575 2.59 1.422 0 2.588-1.174 2.588-2.59 0-1.413-1.166-2.586-2.588-2.586-1.413 0-2.575 1.173-2.575 2.586" fill="#442A18"/><path fill="#FEFEFE" d="M458.897 52.194l1.088 1.117 1.113-1.11-1.113-1.1m-18.752.48l1.113 1.12 1.114-1.11-1.114-1.12"/><path d="M458.307 19.21s-4.462 3.612 0 0c.844-.664 1.76-1.477 2.81-2.46 6.51-6.222 23.707 4.512 19.523 14.916-4.15 10.403.605 21.15-4.092 23.606-4.732 2.438-4.062 5.697-4.062 5.697l-3.28-2.09c-.7-8.34 8.316-18.64 3.327-17.07-4.975 1.54-9.485-4.23-8.972-3.88.52.34 13.97-.56 7.91-8.89-6.08-8.32-11.64-.63-19.44-1.22-4.16-.29-10.09-4.38-10.78.8-.66 5.15-5.99-15.15 4.16-12.14 10.15 2.98 9.64 4.66 12.92 2.72" fill="#915F36"/><path d="M449.723 40.816l.95 3.373c3.8.3 16.604 10.05 15.804 9.23-4.05-4.07-10.338-12.05-14.788-13.11l-1.97.5zm-5.666 0l-.935 3.373c-3.81.3-6.61 2.99-6.61 2.99 2.157-5.03 3.305-6.15 5.58-6.88l1.965.5z" fill="#915F36"/><path d="M467.3 82.865c0 1.32.225 2.882.48 4.36l-1.55 2.098 1.908-.213c.322 1.547.583 2.673.492 2.82-.218.248-13.387 5.146-23.17 2.43l.106-.756 1.826-.604-1.853-.296-.84-.92s16.8.438 22.59-8.92" fill="#FEFEFE"/><path d="M444.75 91.306l1.143-.087c5.92-.88 12.022-12.37 12.06-12.48.618-1.25-2.026-1.55-2.696-1.9.992.5 1.797 1.21 1.78 1.44-.666 1.37-6.433 11.19-11.29 11.88-1.232.18-2.024.08-2.39-.32-.552-.57-.256-1.93.01-3.22l.334-2.56c0-.39-.85-38.07 4.01-47.12-4.96 9.27-5.05 46.77-5.04 47.15l-.32 2.32c-.31 1.55-.64 3.17.27 4.14.45.48 1.16.73 2.14.73" fill="#442A18"/><path fill="#E5332A" d="M409.004 210.132l72.393-12.69 16.314 93.113-72.39 12.66"/><path d="M451.605 284.83c-7.603 1.842-31.12 12.75-32.75 3.828-1.61-8.927-6.798-18.322-.048-19.41 6.772-1.063 31.002 2.94 31.002 2.94" fill="#F3AB81"/><path fill="#FEFEFE" d="M447.523 269.708l1.16 13.854 11.553-2.038 2.857-14.576"/><path fill="#3D3D3C" d="M455.304 268.324l75.286-17.252 26.03 17.422-101.316 13.91v-5.78l5.654-2.45-5.654.147"/><path fill="#FEFEFE" d="M337.493 234.526l-9.3 11.846 11.074 3.716 10.456-9.256"/><path fill="#3D3D3C" d="M338.67 234.984l34.902 1.3 17.288 31.037-56.7-18.91 1.795-5.35 7.69.94-6.416-3.27"/><path d="M94 589.796v10.61l8.214 2.395v-3.11s22.03 13.32 51.9 9.69c19.005-6.65-37.353-9.68-47.118-22.37L94 589.8z" fill="#22333D"/><path d="M110.29 262c4.957 36.47 2.075 99.576-.452 161.27-2.358 57.543-4.426 113.87.453 146.246 0 0-6.32 10.064 0 23.484H92.92s-5.635-72.37-9.244-169.724c-.024-.857.122.842 0 0-11.34-82.48-16.556-148.206-14.066-158.642L110.29 262z" fill="#311C29"/><path d="M36.817 598.91c3.023 4.028 4.223 9.117 6.23 11.24 0 0 3.77 28.545-3.685 27.837-9.47-.893-16.066-25.607-15.302-29.187.768-3.59 2.73-7.613 3.154-10.8l9.603.91z" fill="#22333D"/><path d="M63.743 332.258c-6.687 35.24-6.174 68.44-11.28 111.776-5.886 49.968-10.675 96.364-13.68 125.373-.45 4.336.867 17.867 1.514 29.593H23s1.855-76.773 4.455-156.822c2.67-82.554 4.795-169.817 2.845-177.134 0 0 55.368-33 68.11-33.044 12.748-.057-.295 60.835-.295 60.835s-26.987.518-34.372 39.423" fill="#45393D"/><g transform="translate(109 211)"><mask id="d" fill="#fff"><use xlink:href="#c"/></mask><path d="M63.306 59.43L.74 9.053 11.62.763l58.112 54.525c5.83 6.446 12.975 7.132 16.706 11.42 3.726 4.28 5.063 16.286-3.1 5.804-3.18-4.078-1.47 6.826 6.243 13.164C97.3 92.02 103.33 96.58 96.89 96.4c-6.447-.18-10.522 4.96-15.914-.09-5.39-5.06-5.804-22.497-17.663-36.88" fill="#F5AB83" mask="url(#d)"/></g><path d="M106.56 158.398c-1.82 16.92-.746 61.65 1.317 66.053 6.09 13.04-14.57 2.59-14.57 2.59s-9.38-80.57-5.26-89.87c4.697-10.61 18.513 21.24 18.513 21.24" fill="#F5AB83"/><path d="M89 84.558c-.062 2.655 0 4.43 0 4.43s-15.023.56-18-5.988l9.37 1.124 8.63.434zm-1 7.597C87.94 94.46 88 96 88 96s-17.06-3.318-20-9l11.468 4.775 8.532.38z" fill="#FEFEFE"/><path d="M44.505 37.542c-6.37 14.194 9.54 33.61 9.54 33.61s-1.582 3.732 4.79 13.435c6.362 9.716 22.33 22.37 31.828 22.413 5.49.036 2.496-14.707 2.496-16.632 0-1.883-18.32-2.17-19.57-13.702 7.24 1.93 15.92 4.83 19.75 2.763-.15-9.57 9.66-26.67 9.66-27.7 0-1.13-3.21-6.51-4.38-12.7-5-26.1-47.76-15.68-54.12-1.49" fill="#F5AB83"/><path d="M92.31 52c.772 9.152 5.67 21.06 4.515 23.224-1.157 2.176-8.21-.583-12.825-3.84l1.536-1.848" fill="#F5AB83"/><path d="M92.31 52c.772 9.153 5.672 21.06 4.514 23.224-1.156 2.176-8.21-.582-12.824-3.84l1.537-1.85" stroke="#000" stroke-width=".4"/><g transform="translate(42 15)"><mask id="f" fill="#fff"><use xlink:href="#e"/></mask><path d="M12.464 49.514h6.01V33c0-2.214 7.236-4.178 8.315-11.286 0 0 13.66 4.662 12.33-1.967 0 0 20.91 8.59 15.41-1.217 0 0 8.98 0 8.44-4.172-.53-4.168-12.43-3.884-16.3-3.776-3.27.098 14.15.368 12.81-7.25-1.35-7.61-38.88.973-40.23 5.874-6.71-1.71-23.63 7.83-17.35 29.18 0 0 8.81-9.62 10.53 11.128" fill="#704032" mask="url(#f)"/></g><path d="M67 52c1.965-8.724 11.256-9.196 16.592-8.957 5.352.233 3.658 4.056 0 3.766C77.694 46.34 69.816 46.34 67 52m37 0c-1.082-8.724-6.19-9.196-9.13-8.957-2.934.233-2.01 4.056 0 3.768 3.26-.46 7.585-.46 9.13 5.19" fill="#704032"/><path d="M94.105 55c.327 2.44 4.56 4.438 4.895 6m-14.85-6c-.543 2.44-7.61 4.438-8.15 6" stroke="#432918" stroke-width=".5"/><path d="M99.89 43c-1-3.952-4.99-7.59-7.237-8.072C90.403 34.44 94.687 30 94.687 30s6.207 3.37 5.203 13" fill="#704032"/><path d="M77 54c0 1.108.893 2 1.997 2C80.1 56 81 55.108 81 54c0-1.102-.9-2-2.003-2-1.104 0-1.997.898-1.997 2" fill="#1D1D1B"/><path d="M79 52.48c0 .264.233.472.504.472.27 0 .496-.208.496-.472s-.225-.48-.496-.48c-.27 0-.504.216-.504.48" fill="#FEFEFE"/><path d="M94 54c0 1.108.895 2 1.996 2C97.103 56 98 55.108 98 54c0-1.102-.897-2-2.004-2-1.1 0-1.996.898-1.996 2" fill="#1D1D1B"/><path d="M95 52.48c0 .264.23.472.512.472.26 0 .488-.208.488-.472s-.227-.48-.488-.48c-.282 0-.512.216-.512.48" fill="#FEFEFE"/><path d="M46.824 60.034c1.514 6.04 4.627 10.483 6.923 9.918 2.308-.572 2.946-5.933 1.43-11.976-1.52-6.05-4.62-10.495-6.923-9.927-2.305.57-2.95 5.93-1.43 11.98m58.133 92.59c2.538 16.72 14.813 59.46 17.87 63.18 9.064 11.03-13.154 6.08-13.154 6.08s-29.178-75.16-27.613-85.12c1.785-11.36 22.9 15.85 22.9 15.85M25 166.05c-4.766 16.458-11.677 61-10.472 65.726 3.567 14-14.528 0-14.528 0s5.255-81.548 10.886-90.04C17.308 132.046 25 166.05 25 166.05" fill="#F5AB83"/><path d="M55.618 69.022c9.41 20.553 1.612 44.56 1.612 44.56-5.45 6.87-41.23 31.712-41.23 31.712L57.23 191 88 175.372s-10.158-41.28-10.158-43.933c0-12.68-.5-21.51 4.116-26.81C93.426 91.5 46.76 49.68 55.618 69.02" fill="#F5AB83"/><path d="M34.764 239.332C36.18 225.722 6 138.042 6 138.042c12.753-9.392 30.31-12.192 40.227-22.522l4.357-9.52 14.8 20.75 13.094 28.18-2.3-29.46 3.912-12.174.085 13.523c12.6 6.11 32.782 15.54 32.782 15.54-4.818 20.81-6.03 80.99-4.625 94.73 1.4 13.76 9.17 52.62 5.85 52.96-30.224 3-69.826 3.19-89.01-4.23 0 0 .902-13.04 3.27-19.15 2.354-6.11 4.903-13.73 6.322-27.35" fill="#E5332A"/><path d="M29 169.906c-4.672 16.13-4.26 5.59-2.093 9.854C29.074 184.016 0 175.952 0 175.952s9.347-26.06 5.96-35.48C2.57 131.052 29 169.907 29 169.907m73 2.813c1.25 16.305 1.55 5.78.435 9.927-1.108 4.137 11.565-2.532 11.565-2.532s-2.776-26.42-.917-35.653c1.862-9.228-11.083 28.26-11.083 28.26" fill="#E5332A"/><path d="M79.348 139.147L88 149l-8.428-22.986m-18.882 11.24l-10.363 6.45L47 115" stroke="#432918" stroke-width=".5"/><path d="M21.585 313.513c1.053 4.135-5.38 10.77-4.502 20.408.25 2.77 3.61 8.52 3.61 8.52 4.693-4.78-.23-10.75 1.358-13.12 1.49-2.18-1.76.61.17 4.31 2.6 4.98-.11 14.95-2.68 24.38l8.4-6.15c8.81-13.27 4.14-29.21.81-41.13-1.46-5.26-8.39-2.06-7.16 2.81" fill="#F5AB83"/><path d="M28.938 315.018L14.47 231H0l20.88 83.37c.997 3.83 8.893 5.486 8.058.648" fill="#F5AB83"/><g filter="url(#g)" fill="#E30613" transform="translate(99 79)"><rect x="30.615" y="3.804" width="142.385" height="56" rx="28"/><path d="M4.716 8.432l37.128 8.972-8.928 16.792"/></g><path d="M147.086 106.67c.2.156.414.277.642.363.228.087.48.13.752.13.3 0 .562-.062.783-.188.22-.125.403-.3.547-.523.143-.223.25-.485.32-.786.072-.3.107-.63.107-.984v-6.617h1.176v6.542c0 .58-.07 1.09-.205 1.534-.137.45-.333.82-.588 1.12-.256.3-.565.53-.93.69-.365.16-.78.23-1.244.23-.356 0-.673-.06-.954-.19-.28-.12-.532-.3-.755-.52l.35-.79zm11.778-2.815l-.007-.096c-.023-.3-.08-.57-.174-.82-.094-.25-.222-.46-.387-.64-.164-.18-.363-.32-.598-.42-.234-.1-.5-.15-.796-.15-.32 0-.606.05-.86.16-.257.11-.476.26-.66.45-.186.19-.335.41-.45.67-.113.25-.19.52-.23.81h4.162zm.91 3.377c-.38.328-.798.567-1.26.717-.46.15-.98.22-1.564.22-.552 0-1.044-.09-1.477-.27-.433-.18-.798-.43-1.097-.75-.298-.32-.526-.71-.684-1.15-.157-.45-.235-.94-.235-1.47 0-.51.077-.99.232-1.43.15-.45.38-.84.67-1.18.29-.34.65-.61 1.08-.8.42-.2.91-.3 1.46-.3.53 0 1 .09 1.4.26.39.17.72.41.98.72.25.31.44.67.57 1.1.12.42.19.88.19 1.38 0 .05 0 .11-.01.17 0 .06-.01.12-.01.18h-5.38l.02.3c.03.34.09.65.21.94.11.28.26.52.46.73.19.2.43.36.71.47.28.11.6.17.96.17.48 0 .92-.09 1.32-.26s.76-.41 1.08-.73l.35.94zm5.105-6.228h1.24l1.92 4.717c.03.08.07.19.11.32s.09.26.13.4c.05.15.1.31.15.48.04-.16.09-.32.14-.47l.12-.39c.04-.13.08-.24.11-.32l1.88-4.72h1.21l-2.96 7.02h-1.14l-2.93-7.01zm13.28 2.85l-.01-.095c-.03-.3-.08-.57-.18-.82-.1-.25-.23-.46-.39-.64s-.37-.32-.6-.42c-.24-.1-.5-.15-.8-.15-.32 0-.61.05-.87.16s-.48.26-.66.45c-.19.19-.33.41-.45.67-.11.25-.19.52-.23.81h4.16zm.91 3.378c-.38.328-.8.567-1.26.717-.46.15-.98.22-1.57.22-.55 0-1.05-.09-1.48-.27-.44-.18-.8-.43-1.1-.75-.3-.32-.53-.71-.69-1.15-.16-.45-.24-.94-.24-1.47 0-.51.07-.99.23-1.43.15-.45.38-.84.67-1.18.29-.34.65-.61 1.08-.8.42-.2.91-.3 1.46-.3.54 0 1 .09 1.4.26.4.17.72.41.98.72.25.31.44.67.57 1.1.12.42.19.88.19 1.38 0 .05 0 .11-.01.17 0 .06-.01.12-.01.18h-5.38l.02.3c.03.34.1.65.21.94.11.28.26.52.46.73.2.2.43.36.72.47.28.11.6.17.96.17.48 0 .92-.09 1.32-.26s.76-.41 1.08-.73l.35.94zm6.91-6.228h1.12v5.332c0 .3 0 .585.01.85 0 .268.02.545.04.832H186l-.02-.923c-.53.72-1.3 1.08-2.312 1.08-.346 0-.65-.04-.916-.12-.264-.08-.493-.188-.687-.324-.194-.13-.356-.29-.486-.48-.13-.18-.24-.38-.31-.6-.08-.21-.14-.44-.17-.67-.04-.23-.05-.46-.05-.68v-4.28h1.12v4.29c-.01.66.13 1.15.41 1.48.28.34.72.51 1.33.51.32 0 .62-.06.87-.18s.46-.28.64-.48c.17-.2.31-.44.4-.71.09-.27.14-.56.14-.86v-4.03zm5.18 3.5l-2.61-3.5h1.39l1.94 2.817 2-2.81h1.22l-2.59 3.48 2.67 3.54h-1.37l-2.04-2.85-2.06 2.86h-1.3l2.73-3.51zm14.37-1.962c-.22-.273-.49-.474-.8-.6-.32-.13-.65-.193-1.01-.193-.38 0-.72.07-1.02.21-.3.14-.55.34-.76.6-.21.25-.37.55-.48.89-.11.34-.17.7-.17 1.09 0 .38.04.74.14 1.07.09.33.24.62.43.87.19.24.44.43.74.57.3.14.65.21 1.06.21.77 0 1.46-.27 2.07-.8l.31.94c-.33.26-.7.45-1.11.57-.41.12-.87.18-1.36.18-.58 0-1.09-.1-1.52-.29-.44-.19-.8-.45-1.09-.77-.3-.33-.52-.71-.66-1.15-.15-.44-.22-.9-.22-1.39 0-.51.08-1 .23-1.45.15-.46.38-.85.67-1.19.29-.34.66-.61 1.09-.81.43-.2.92-.3 1.48-.3.55 0 1.03.08 1.45.26.41.17.74.41.97.71l-.52.73zm3.41-4.723v4.11c.29-.39.62-.67 1-.84.38-.18.83-.26 1.35-.26.51 0 .93.08 1.26.25.33.16.59.38.78.65.19.27.33.57.4.91.07.33.11.68.11 1.02V108h-1.13v-4.28c0-.29-.03-.56-.09-.803s-.15-.453-.29-.63c-.14-.174-.32-.31-.54-.41-.23-.097-.51-.146-.84-.146-.33 0-.61.06-.87.18-.25.12-.46.29-.64.5-.17.21-.3.45-.4.73-.09.28-.14.57-.14.87v4h-1.12V97.8h1.13zm10.01 3.01c.28 0 .54.02.78.08.24.05.46.12.66.22.2.09.38.21.55.35.17.14.32.3.47.47l.04-.97h1.11l-.03 1.73V108h-1.13l.01-.982c-.11.145-.25.29-.42.427-.16.14-.35.26-.56.365-.21.104-.44.19-.69.252-.26.06-.52.092-.8.092-.39 0-.75-.05-1.07-.153-.32-.1-.61-.24-.86-.42s-.47-.39-.65-.63c-.19-.24-.34-.5-.46-.78-.12-.27-.21-.56-.27-.86-.06-.29-.09-.59-.09-.88 0-.45.07-.89.21-1.32.14-.43.35-.82.63-1.15.28-.33.63-.61 1.05-.81.42-.2.91-.3 1.48-.3zm.13 6.44c.31 0 .61-.07.89-.2s.53-.32.74-.58c.21-.26.38-.57.5-.95s.19-.81.19-1.31c0-.37-.06-.71-.17-1.01-.11-.31-.27-.57-.48-.8-.21-.23-.46-.4-.75-.52s-.62-.19-.99-.19c-.28 0-.53.04-.76.11-.22.07-.42.18-.6.31-.17.13-.32.29-.45.46-.13.18-.23.37-.31.57-.09.2-.15.41-.19.63-.04.22-.06.43-.06.65 0 .21.01.42.04.64.03.22.08.43.15.64.07.2.16.39.28.58.12.18.27.34.44.47.18.13.39.24.63.32.24.08.53.12.85.12zm6.67.74h-1.13v-5.33c0-.21-.01-.42-.01-.62l-.02-.54c-.01-.19-.02-.36-.02-.53h1.14l.03.97c.27-.39.6-.68.98-.86.38-.19.84-.28 1.36-.28.51 0 .93.08 1.26.25.33.17.59.4.79.71.19.3.33.66.4 1.08.07.42.11.88.11 1.38V108h-1.13v-3.63c0-.396-.02-.757-.05-1.083-.04-.326-.11-.604-.22-.835-.11-.23-.28-.41-.5-.535-.22-.122-.52-.185-.88-.185-.34 0-.65.063-.91.196s-.49.29-.67.48c-.18.187-.32.384-.42.59-.1.21-.15.39-.15.545V108zm7.41 1.28c.36.22.74.39 1.13.49.39.1.78.16 1.17.16.4 0 .76-.05 1.07-.14.32-.09.59-.23.8-.41.22-.19.39-.42.5-.71.11-.29.17-.63.17-1.02v-.87c-.28.4-.62.7-1.04.9-.42.2-.88.3-1.37.3-.51 0-.96-.09-1.36-.26-.4-.17-.73-.41-1.01-.71-.27-.31-.48-.67-.63-1.1-.15-.43-.22-.91-.22-1.43 0-.5.07-.97.2-1.42.14-.45.34-.84.61-1.18.27-.34.62-.6 1.03-.8.41-.2.89-.3 1.44-.3.53 0 .98.1 1.36.29.37.19.69.47.97.84v-.29l.01-.32c0-.12.01-.24.02-.37h1.124c-.01.22-.018.43-.02.65-.01.18-.017.37-.02.57-.006.19-.007.37-.007.51v4.3c0 .31-.02.62-.06.93-.037.31-.1.61-.2.9-.095.28-.23.55-.395.8-.17.25-.38.47-.65.65-.27.19-.59.33-.97.44-.38.11-.82.16-1.33.16-.45 0-.89-.05-1.31-.14-.428-.09-.828-.23-1.2-.42l.13-1.04zm4.86-5.04c0-.35-.05-.67-.15-.98-.1-.31-.25-.57-.43-.8-.19-.23-.42-.41-.69-.54-.27-.14-.57-.2-.91-.2-.37 0-.69.07-.98.22-.28.15-.52.35-.71.6-.19.25-.33.54-.43.88-.09.33-.14.68-.14 1.04 0 .39.04.75.11 1.07.07.32.2.59.37.81.18.22.41.4.69.52.28.12.63.18 1.05.18.41 0 .75-.08 1.04-.25.28-.16.5-.38.68-.64.17-.27.29-.57.36-.91.08-.34.11-.69.11-1.05zm8.44-.41l-.01-.1c-.03-.3-.08-.57-.18-.82-.1-.25-.22-.46-.39-.64s-.37-.32-.6-.42c-.24-.1-.5-.15-.8-.15-.32 0-.61.06-.86.17-.26.11-.48.26-.66.45-.19.19-.34.41-.45.67-.12.25-.19.52-.24.81h4.16zm.91 3.37c-.38.33-.8.56-1.26.71-.46.15-.99.22-1.57.22-.55 0-1.04-.09-1.48-.27-.43-.18-.8-.43-1.1-.76-.3-.32-.53-.71-.69-1.15-.16-.45-.24-.94-.24-1.47 0-.51.08-.98.23-1.43.15-.45.38-.84.67-1.18.3-.34.66-.61 1.08-.8.42-.2.91-.3 1.46-.3.53 0 1 .09 1.4.26.39.17.72.41.98.72.25.31.44.68.57 1.1.12.42.19.88.19 1.38 0 .05 0 .11-.01.18l-.01.18h-5.38l.02.31c.03.34.1.65.21.93.11.28.26.52.46.73.19.2.43.36.71.47.28.11.6.17.96.17.48 0 .92-.09 1.32-.26.41-.17.77-.41 1.08-.72l.35.94zm3.18.78h-1.13v-5.33c0-.29-.01-.58-.01-.86l-.03-.83h1.13l.04 1.06c.19-.39.45-.69.78-.91.33-.21.69-.32 1.09-.32.26 0 .51.03.74.08l.01 1.06c-.1-.05-.21-.09-.35-.12-.14-.03-.29-.05-.44-.05-.28 0-.53.05-.75.16-.23.1-.42.26-.58.46-.16.2-.29.44-.38.73-.09.29-.14.61-.14.96v3.9zm-77.46 16l-.03-1.01c-.3.42-.64.72-1.03.89-.39.18-.85.26-1.39.26-.54 0-1.02-.09-1.41-.28-.4-.19-.73-.45-.99-.78s-.46-.72-.58-1.16c-.13-.44-.2-.91-.2-1.41 0-.5.07-.97.2-1.42.13-.45.34-.85.61-1.19.27-.34.61-.62 1.01-.82.4-.2.87-.3 1.4-.3.5 0 .96.09 1.36.28.4.19.74.46 1 .82v-4.13h1.12v8.45c0 .27.01.57.01.88 0 .31.01.6.02.87h-1.14zm-2.27-.75c.37 0 .69-.07.97-.22s.51-.35.7-.61c.19-.27.33-.58.42-.95.1-.37.14-.78.14-1.23 0-.38-.05-.73-.16-1.03-.1-.31-.25-.58-.44-.8-.19-.22-.42-.39-.69-.51-.27-.12-.57-.18-.91-.18-.39 0-.73.07-1.01.22s-.52.35-.7.61c-.18.25-.32.55-.4.89-.09.34-.13.7-.13 1.07 0 .35.04.69.11 1.02.07.33.2.62.37.87.17.25.39.45.67.6.27.15.61.22 1.01.22zm10.68-3.42l-.01-.1c-.02-.3-.08-.57-.18-.82-.09-.25-.22-.46-.39-.64-.16-.18-.36-.32-.6-.41-.24-.1-.5-.15-.8-.15-.32 0-.61.06-.86.17-.26.11-.48.26-.66.45-.19.19-.34.41-.45.67-.12.26-.19.53-.23.81h4.16zm.91 3.37c-.38.33-.8.57-1.26.72-.46.15-.98.22-1.57.22-.55 0-1.04-.09-1.48-.27-.44-.18-.8-.43-1.1-.75-.3-.32-.53-.71-.68-1.15-.16-.45-.24-.94-.24-1.47 0-.51.08-.98.23-1.43.15-.45.38-.84.67-1.18.29-.34.66-.61 1.08-.8.43-.2.91-.3 1.46-.3.54 0 1 .09 1.4.26.4.18.72.42.98.73s.44.67.57 1.1c.12.42.19.88.19 1.38 0 .05 0 .11-.01.17l-.01.18h-5.38l.02.31c.03.34.1.66.21.94.11.28.26.52.46.73.19.2.43.36.71.47.28.11.6.17.96.17.48 0 .92-.08 1.33-.25.4-.17.76-.41 1.08-.72l.35.93zm5.11-6.23h1.24l1.92 4.72c.03.08.07.18.11.31s.09.26.13.39c.05.15.1.31.15.48.05-.17.1-.33.15-.48l.12-.39c.04-.14.08-.24.11-.32l1.88-4.72h1.21l-2.95 7.03h-1.15l-2.93-7.01zm11.33-.17c.58 0 1.1.09 1.54.28.44.19.81.45 1.11.78.3.33.52.72.67 1.16.15.45.23.93.23 1.44 0 .49-.08.96-.24 1.4-.16.45-.39.84-.69 1.17-.31.34-.68.6-1.13.8-.45.2-.96.3-1.54.3-.58 0-1.1-.1-1.54-.29-.45-.19-.82-.45-1.12-.78-.31-.32-.54-.71-.69-1.16-.16-.44-.24-.92-.24-1.42 0-.51.08-.98.24-1.43.16-.45.39-.84.7-1.18.3-.34.68-.6 1.13-.8.45-.2.97-.29 1.55-.29zm2.36 3.69c0-.37-.05-.73-.14-1.07-.1-.34-.24-.63-.44-.89s-.45-.45-.75-.6c-.3-.15-.66-.22-1.07-.22-.4 0-.74.08-1.04.23-.3.15-.56.36-.76.62-.2.26-.36.55-.46.89-.1.33-.15.68-.15 1.05s.05.71.15 1.04c.1.32.25.61.45.87.2.25.46.45.76.6.3.15.66.22 1.06.22s.75-.07 1.05-.23c.29-.15.54-.35.74-.6.19-.25.34-.54.43-.88.09-.33.14-.68.14-1.04zm4.1-6.5v1.06h-1.04V114h1.04zm-1.1 2.98h1.12V124h-1.13v-7zm3.95.73h-1.39v-.7h1.39l.03-1.86 1.09-.32V117h1.75v.733h-1.75v4.19c0 .155 0 .313.01.475.01.165.04.31.09.447s.13.244.24.33c.11.083.26.125.46.125.15 0 .3-.02.46-.057.16-.04.33-.092.52-.16l-.01.84c-.16.09-.33.156-.52.195-.18.04-.4.058-.63.058-.39 0-.69-.065-.92-.195-.23-.13-.41-.3-.54-.52-.12-.21-.2-.47-.25-.76-.04-.29-.06-.6-.06-.92v-4.03zm9.32-.73h1.13v5.33c0 .3 0 .58.01.85 0 .27.02.54.04.83h-1.16l-.02-.93c-.53.72-1.3 1.08-2.31 1.08-.35 0-.66-.04-.92-.12-.27-.08-.5-.19-.69-.33-.2-.13-.36-.3-.49-.48s-.24-.39-.31-.6c-.08-.22-.14-.44-.17-.67-.03-.23-.05-.46-.05-.69V117h1.13v4.287c-.01.652.13 1.145.42 1.48.28.335.72.503 1.33.503.33 0 .62-.06.87-.178.26-.12.47-.28.65-.486.17-.207.31-.446.4-.717.09-.27.14-.56.14-.86V117zm4.58 7.02H221v-5.33c0-.29-.005-.58-.014-.86l-.028-.83h1.127l.04 1.06c.192-.39.452-.69.78-.91.328-.21.692-.32 1.093-.32.265 0 .51.03.74.08l.012 1.06c-.095-.05-.21-.09-.348-.12-.137-.03-.283-.05-.438-.05-.274 0-.525.05-.753.16-.22.1-.42.26-.58.46-.16.2-.28.44-.37.73-.09.29-.13.61-.13.96v3.9zm8.78-4.17v-.1c-.03-.3-.08-.57-.18-.82-.1-.25-.22-.46-.39-.64s-.36-.32-.6-.42c-.23-.1-.5-.15-.79-.15-.32 0-.6.05-.86.16-.25.11-.47.26-.66.45-.18.19-.33.41-.45.67-.11.25-.19.52-.23.81h4.16zm.91 3.37c-.38.33-.8.57-1.26.72-.46.15-.98.22-1.56.22-.55 0-1.04-.09-1.48-.27-.44-.18-.8-.43-1.1-.75-.3-.32-.53-.7-.69-1.15-.16-.45-.24-.94-.24-1.47 0-.51.08-.98.24-1.43.15-.45.38-.84.67-1.17.3-.34.66-.61 1.09-.8.43-.2.91-.3 1.46-.3.54 0 1 .09 1.4.26.4.18.72.42.98.73.25.31.44.67.57 1.09.12.43.19.89.19 1.38 0 .05 0 .11-.01.18l-.01.18h-5.38l.02.3c.02.34.09.65.21.93.11.28.26.52.46.73.19.2.43.36.71.47.28.11.6.17.96.17.48 0 .92-.08 1.32-.25.4-.17.76-.41 1.08-.73l.35.93z" fill="#FFF"/><g filter="url(#h)" transform="matrix(-1 0 0 1 417 5)" fill="#2C2C2C"><rect x="17.818" width="185.182" height="56" rx="28"/><path d="M6.632 65.153l17.245-28.4 12.8 14.217"/></g><path d="M232.624 27.856c.2.155.414.276.642.363.228.08.48.12.752.12.3 0 .562-.06.783-.19.23-.13.41-.3.55-.53.15-.23.25-.49.32-.79.07-.3.11-.63.11-.99v-6.61h1.18v6.54c0 .58-.06 1.09-.2 1.53-.13.44-.33.81-.59 1.11-.25.3-.56.53-.93.68-.36.15-.78.23-1.24.23-.35 0-.67-.07-.95-.19-.28-.13-.53-.3-.75-.52l.35-.8zm11.778-2.816l-.007-.096c-.023-.296-.08-.567-.174-.813-.09-.24-.22-.45-.38-.63s-.36-.31-.6-.41c-.23-.09-.5-.14-.79-.14-.32 0-.6.06-.86.17-.25.11-.47.27-.66.46-.18.19-.33.42-.45.67-.11.26-.19.53-.23.82h4.17zm.91 3.377c-.38.328-.798.567-1.26.718-.46.15-.98.225-1.564.225-.55 0-1.044-.09-1.477-.27-.43-.18-.79-.43-1.09-.752-.3-.32-.52-.705-.68-1.152-.15-.446-.23-.936-.23-1.47 0-.505.08-.982.23-1.428.16-.447.38-.84.68-1.176.3-.337.66-.604 1.09-.8.43-.196.92-.294 1.46-.294.54 0 1.01.088 1.4.264.4.175.73.417.98.724.26.308.45.673.57 1.097.13.424.19.884.19 1.38v.175c0 .067 0 .127-.01.182h-5.38l.02.307c.03.342.1.654.21.937.12.282.27.526.47.73.2.206.44.365.72.476.28.112.6.168.96.168.48 0 .93-.085 1.33-.253.4-.17.76-.41 1.08-.725l.35.937zm7.218 3.705h-1.12v-8.1c0-.096-.002-.214-.005-.353-.002-.14-.005-.29-.01-.46-.004-.17-.01-.34-.017-.51-.007-.18-.015-.35-.024-.52h1.142l.034.99c.287-.39.632-.68 1.036-.88.403-.2.844-.3 1.322-.3.552 0 1.03.1 1.433.29.41.19.74.45 1.01.77s.46.7.59 1.14c.13.43.2.89.2 1.38 0 .49-.06.96-.2 1.42-.13.45-.33.85-.6 1.2-.26.34-.6.62-1 .83-.4.2-.87.31-1.41.31-.98 0-1.77-.36-2.36-1.08v3.84zm0-6.296c0 .378.048.728.144 1.05.095.32.235.6.42.833.185.23.414.41.687.55.28.13.59.19.95.19.39 0 .71-.08.99-.24.28-.16.5-.36.68-.62.18-.26.31-.56.39-.9.09-.34.13-.69.13-1.06 0-.35-.03-.68-.11-1.01-.07-.33-.19-.62-.36-.87-.16-.26-.38-.46-.66-.61-.27-.15-.61-.23-1.01-.23-.42 0-.77.08-1.05.24-.28.16-.51.37-.69.64-.18.26-.3.57-.38.92-.07.35-.11.71-.11 1.09zm12.455-.786l-.007-.096c-.023-.296-.08-.567-.174-.813-.093-.24-.222-.45-.386-.63s-.364-.31-.598-.41c-.235-.09-.5-.14-.797-.14-.32 0-.606.06-.86.17-.256.11-.476.27-.66.46-.185.19-.335.42-.45.67-.113.26-.19.53-.23.82h4.162zm.91 3.377c-.38.328-.798.567-1.26.718-.46.15-.98.225-1.564.225-.55 0-1.04-.09-1.47-.27-.43-.18-.8-.43-1.09-.752-.3-.32-.52-.705-.68-1.152-.16-.446-.23-.936-.23-1.47 0-.505.08-.982.23-1.428.16-.447.38-.84.68-1.176.3-.337.66-.604 1.09-.8.43-.196.92-.294 1.46-.294.54 0 1.01.088 1.4.264.4.175.73.417.98.724.26.308.45.673.57 1.097.13.424.19.884.19 1.38v.175c0 .067 0 .127-.01.182h-5.38l.02.307c.03.342.1.654.21.937.11.282.27.526.46.73.2.206.44.365.72.476.28.112.6.168.96.168.49 0 .93-.085 1.33-.253.4-.17.76-.41 1.08-.725l.35.937zm6.917-6.228h1.128v5.33c0 .3.004.58.01.85.007.26.022.54.045.83h-1.162l-.02-.92c-.53.72-1.3 1.08-2.31 1.08-.348 0-.653-.04-.917-.12-.265-.08-.494-.19-.687-.33-.2-.14-.36-.3-.49-.49s-.24-.39-.31-.6c-.08-.22-.14-.44-.17-.67-.04-.23-.05-.46-.05-.69v-4.28H269v4.28c-.004.65.135 1.14.417 1.48.283.33.727.5 1.333.5.33 0 .62-.06.874-.18s.467-.28.643-.49c.177-.21.31-.45.4-.72.09-.27.138-.56.138-.86v-4.03zm5.19 3.5l-2.606-3.5h1.388l1.94 2.81 2.004-2.82h1.224l-2.584 3.47 2.673 3.54h-1.37l-2.04-2.86-2.06 2.85h-1.3l2.74-3.52zm8.448-3.5h1.244l1.92 4.71c.033.07.072.18.117.31.05.13.09.26.13.39.05.15.1.31.15.48.05-.17.1-.33.15-.48l.13-.39c.04-.13.08-.24.12-.32l1.89-4.72h1.21l-2.96 7.01h-1.15l-2.93-7.02zm11.327-.18c.588 0 1.104.09 1.548.28.445.19.815.45 1.11.78.297.33.52.72.67 1.17.152.44.227.92.227 1.43 0 .49-.08.96-.236 1.4-.157.44-.387.83-.69 1.17-.304.33-.678.6-1.125.79-.44.2-.95.29-1.53.29-.58 0-1.1-.1-1.54-.29-.44-.19-.82-.45-1.12-.78-.3-.33-.53-.72-.69-1.16-.15-.45-.23-.92-.23-1.43s.08-.99.24-1.44c.16-.45.39-.84.7-1.18.31-.34.69-.6 1.14-.79.45-.2.97-.3 1.55-.3zm2.365 3.69c0-.38-.048-.73-.143-1.07-.1-.34-.25-.64-.44-.89s-.45-.46-.75-.6c-.3-.15-.66-.23-1.07-.23-.4 0-.75.08-1.05.23-.3.15-.56.36-.76.61-.2.25-.36.55-.46.89-.11.33-.16.69-.16 1.05 0 .36.05.71.15 1.04.1.33.25.62.46.87.2.25.45.45.76.6.3.14.66.22 1.07.22.4 0 .75-.08 1.04-.23.29-.15.54-.36.73-.61.2-.26.34-.55.44-.88.09-.33.14-.68.14-1.04zm7.862-3.52h1.128v5.33c0 .3.003.58.01.85s.02.54.044.83h-1.162l-.02-.92c-.53.72-1.3 1.08-2.31 1.08-.347 0-.653-.04-.917-.12-.264-.08-.493-.19-.687-.33-.194-.14-.355-.3-.485-.49s-.234-.39-.31-.6c-.08-.22-.135-.44-.17-.67-.033-.23-.05-.46-.05-.69v-4.28h1.128v4.28c-.005.65.134 1.14.417 1.48.282.33.727.5 1.333.5.328 0 .62-.06.87-.18.254-.12.47-.28.644-.49.175-.21.31-.44.4-.72.09-.27.137-.56.137-.86v-4.03zm7.717 1.22c-.24-.17-.54-.29-.88-.37-.34-.08-.7-.12-1.08-.12-.21 0-.4.02-.58.07-.18.04-.33.11-.46.19s-.23.18-.3.3c-.07.12-.11.25-.11.4 0 .16.04.29.12.41.08.11.19.21.32.29.14.08.29.16.47.22.18.07.37.13.57.19l.59.17c.21.06.42.13.62.21.21.08.4.17.59.28.19.11.35.23.49.38s.26.31.34.51c.09.2.13.42.13.68 0 .35-.08.66-.25.92-.16.26-.38.48-.65.65-.27.17-.57.3-.92.39-.35.08-.7.13-1.07.13-.24 0-.48-.02-.72-.04-.23-.03-.46-.08-.68-.14-.21-.06-.41-.15-.6-.25-.18-.1-.34-.23-.47-.38l.3-.93c.12.14.27.27.43.37.17.1.34.19.53.25s.38.11.59.14c.2.03.4.04.59.04.26 0 .49-.03.71-.07.21-.05.4-.12.55-.21.16-.1.28-.21.37-.35.09-.14.14-.3.14-.48 0-.21-.05-.38-.15-.51-.1-.13-.24-.24-.42-.34-.18-.09-.39-.18-.63-.25-.25-.07-.51-.15-.8-.24-.34-.11-.65-.22-.93-.34-.27-.12-.51-.26-.7-.42-.19-.16-.34-.35-.44-.56-.1-.21-.15-.46-.15-.76 0-.33.08-.61.23-.85.15-.25.34-.44.58-.6.24-.16.51-.28.82-.36.31-.08.62-.12.94-.12.47 0 .91.04 1.3.13.4.09.74.24 1.02.46l-.29.8zm8.39 5.79h-1.13v-6.28h-1.36v-.73H323l.015-.77c.004-.37.04-.71.11-1.03.068-.32.18-.59.334-.82.15-.23.36-.41.62-.54.25-.13.58-.2.96-.2.09 0 .18 0 .26.01l.22.03c.07.01.14.03.21.05l.23.05.01.88c-.09-.04-.21-.07-.35-.08-.14-.02-.28-.03-.41-.03-.23 0-.42.03-.56.09-.15.06-.26.16-.33.28-.08.12-.13.28-.16.46s-.05.39-.05.64l-.01.93h1.69v.73h-1.69v6.28zm5.97-7.19c.29 0 .55.02.79.08.24.05.46.12.66.22s.39.21.56.35c.17.14.33.3.47.48l.04-.97h1.12l-.02 1.73v5.29h-1.13l.01-.99c-.11.14-.25.29-.41.43-.16.14-.35.26-.56.36-.21.1-.44.19-.69.25-.25.06-.51.09-.79.09-.39 0-.74-.05-1.06-.16-.32-.11-.6-.25-.85-.43s-.47-.39-.65-.64c-.18-.24-.33-.5-.45-.78s-.21-.57-.27-.86c-.06-.3-.09-.6-.09-.89 0-.45.07-.9.21-1.33.14-.44.35-.82.63-1.16.28-.34.63-.61 1.05-.81.42-.21.91-.31 1.48-.31zm.13 6.44c.32 0 .62-.07.9-.2s.53-.32.74-.58c.21-.26.38-.57.51-.95s.19-.81.2-1.3c0-.37-.05-.71-.17-1.01-.11-.31-.27-.57-.47-.8-.2-.23-.45-.4-.75-.52-.29-.12-.62-.19-.99-.19-.28 0-.53.04-.75.11-.22.08-.42.18-.59.31-.17.13-.32.29-.45.47s-.23.37-.31.57c-.08.2-.14.41-.18.63-.04.22-.06.43-.06.65 0 .21.02.42.05.64.03.22.08.43.15.64.07.2.16.4.28.58.12.18.27.34.44.47.18.13.39.24.63.32.25.08.53.12.85.12zm6.64-9.25v1.06h-1.05V19.2h1.05zm-1.1 2.98h1.13v7.02h-1.13v-7.01zm4.57 7.01h-1.12v-5.32c0-.29 0-.58-.01-.86l-.03-.83h1.13l.04 1.06c.19-.39.45-.69.78-.91.33-.22.69-.32 1.1-.32.27 0 .51.03.74.08l.01 1.06c-.09-.05-.21-.09-.35-.12-.13-.03-.28-.04-.44-.04-.27 0-.52.05-.75.16-.23.1-.42.26-.58.46-.16.2-.28.44-.37.73-.09.29-.13.61-.13.96v3.89zm8.78-4.17l-.01-.1c-.02-.3-.08-.57-.17-.82-.09-.25-.22-.46-.38-.64s-.36-.32-.6-.42c-.23-.1-.5-.15-.79-.15-.32 0-.6.05-.86.16-.25.11-.47.27-.66.46-.18.19-.33.41-.45.67-.11.25-.19.52-.23.81h4.17zm.91 3.37c-.38.32-.8.56-1.26.71-.46.15-.98.22-1.56.22-.55 0-1.04-.09-1.47-.27-.43-.18-.8-.43-1.09-.75-.3-.32-.52-.71-.68-1.16-.15-.45-.23-.94-.23-1.47 0-.51.08-.98.24-1.43.15-.45.38-.84.68-1.18.3-.34.66-.61 1.08-.8.43-.2.91-.3 1.46-.3.54 0 1.01.09 1.4.26.4.17.72.42.98.72.26.31.45.67.57 1.09.13.42.19.88.19 1.38v.17l-.01.18h-5.38l.02.3c.03.34.1.65.21.94.11.28.26.52.46.73.2.2.43.36.71.47.29.11.61.16.97.16.48 0 .92-.09 1.32-.25.4-.17.76-.41 1.08-.73l.35.94zm11.01-6.23h1.13v5.33c0 .3 0 .58.01.85s.02.54.05.83h-1.16l-.02-.92c-.53.72-1.3 1.08-2.31 1.08-.34 0-.65-.04-.91-.12-.26-.08-.49-.19-.68-.33-.19-.14-.35-.3-.48-.49s-.23-.39-.31-.6c-.08-.21-.14-.44-.17-.67-.03-.23-.05-.46-.05-.69v-4.28h1.13v4.28c0 .65.14 1.14.42 1.48.29.33.73.5 1.34.5.33 0 .62-.06.87-.18s.47-.28.64-.49c.18-.2.31-.44.4-.71.09-.27.14-.56.14-.86v-4.03zm4.6 7.01h-1.13v-5.94l-.01-.55c-.01-.18-.02-.36-.02-.53h1.14l.03.97c.28-.39.61-.68.99-.86.39-.19.84-.29 1.37-.29.51 0 .93.08 1.26.25.33.17.6.4.79.71.2.3.33.66.4 1.08.08.42.12.88.12 1.38v3.76h-1.13v-3.63c0-.4-.02-.76-.05-1.08-.03-.32-.11-.6-.22-.83-.11-.23-.28-.41-.49-.54-.22-.12-.51-.19-.88-.19-.34 0-.64.07-.91.2-.26.13-.48.29-.67.48-.18.19-.32.38-.42.59-.1.21-.14.39-.14.55v4.46zM377.86 25v-.097c-.02-.3-.08-.57-.17-.816-.092-.25-.22-.46-.385-.64s-.36-.316-.596-.414c-.24-.097-.5-.146-.8-.146-.32 0-.61.06-.86.17-.26.11-.48.26-.66.45-.19.19-.34.417-.45.67-.12.258-.19.53-.23.816h4.16zm.91 3.376c-.38.325-.8.564-1.26.715-.46.15-.98.23-1.56.23-.55 0-1.04-.09-1.47-.27-.43-.18-.8-.43-1.092-.75-.3-.32-.53-.7-.687-1.15-.15-.44-.23-.93-.23-1.47 0-.5.08-.98.23-1.43.16-.44.38-.84.68-1.17.29-.34.66-.6 1.08-.8.43-.19.91-.29 1.46-.29.54 0 1.01.09 1.4.27.4.18.72.42.98.73.26.3.45.67.57 1.09.13.42.19.88.19 1.38v.18l-.01.19h-5.38l.02.3c.02.34.09.65.21.94.11.28.27.53.46.73.2.21.44.37.72.48.28.11.6.17.96.17.49 0 .93-.08 1.33-.25.4-.17.76-.41 1.08-.72l.35.94zM252.76 38c.585 0 1.1.096 1.545.287.446.193.816.455 1.11.79.298.332.52.722.67 1.17.15.445.228.924.228 1.434 0 .49-.08.96-.23 1.41-.154.44-.385.83-.69 1.17-.3.33-.68.6-1.122.79-.44.2-.95.3-1.53.3-.58 0-1.1-.09-1.54-.29-.45-.19-.82-.45-1.13-.78-.3-.33-.53-.71-.69-1.16-.15-.44-.23-.92-.23-1.42 0-.5.08-.98.24-1.43.16-.45.39-.84.7-1.18.31-.33.69-.6 1.14-.79.45-.19.97-.29 1.55-.29zm2.362 3.692c0-.376-.05-.73-.144-1.07-.093-.336-.24-.63-.435-.884s-.442-.45-.743-.6c-.3-.15-.656-.222-1.066-.222-.39 0-.74.077-1.04.23-.3.152-.55.357-.753.615-.2.26-.35.56-.45.89-.1.34-.15.69-.15 1.06 0 .37.05.71.16 1.04.11.33.26.62.46.87s.46.46.76.6c.31.15.66.23 1.07.23.4 0 .75-.07 1.05-.22.3-.15.54-.35.74-.6.2-.25.35-.54.44-.87.1-.33.15-.68.15-1.04zm4.415 3.49h-1.13v-6.28h-1.367l-.01-.73h1.37l.01-.766c.004-.37.04-.71.11-1.027.07-.32.18-.59.334-.82.155-.23.36-.41.62-.54.256-.13.58-.2.966-.2.1 0 .18 0 .26.01.08 0 .15.02.22.03.077.01.15.03.22.05l.23.05.01.88c-.09-.04-.203-.07-.342-.08-.14-.02-.273-.03-.405-.03-.233 0-.42.03-.564.09-.15.06-.26.16-.34.28-.08.12-.13.28-.16.46s-.05.39-.05.64l-.01.93h1.69v.73h-1.7v6.29zm4.8 0h-1.13v-6.28h-1.366l-.01-.73h1.38l.01-.766c0-.37.04-.71.11-1.027.06-.32.18-.59.33-.82.15-.23.36-.41.62-.54.25-.13.58-.2.96-.2.1 0 .18 0 .26.01.08 0 .15.02.22.03.07.01.15.03.22.05.08.01.15.03.24.05l.02.88c-.09-.04-.2-.07-.34-.08-.14-.02-.27-.03-.41-.03-.23 0-.42.03-.56.09-.14.06-.25.16-.33.28-.08.12-.13.28-.16.46s-.04.39-.04.64v.93h1.69l.01.73h-1.69v6.29zm4.258 0h-1.126v-5.32c0-.287-.01-.575-.01-.862l-.03-.826h1.12l.04 1.06c.19-.39.45-.69.78-.904.33-.214.69-.32 1.09-.32.26 0 .51.027.74.08l.01 1.06c-.1-.05-.21-.09-.35-.12-.14-.028-.28-.043-.44-.043-.28 0-.53.052-.75.16-.23.106-.43.26-.58.46-.16.2-.29.445-.38.73-.09.29-.14.61-.14.966v3.89zm8.78-4.162l-.008-.097c-.02-.297-.08-.568-.174-.814-.09-.25-.22-.46-.383-.64-.167-.18-.367-.32-.6-.41-.236-.1-.5-.15-.798-.15-.32 0-.61.05-.86.17-.26.11-.48.26-.66.45-.19.19-.34.41-.45.67-.11.25-.19.52-.23.81h4.16zm.91 3.376c-.38.325-.8.564-1.26.715-.46.15-.98.23-1.565.23-.55 0-1.05-.09-1.48-.27-.438-.18-.8-.43-1.1-.75-.3-.32-.53-.7-.69-1.15-.157-.44-.236-.93-.236-1.47 0-.5.077-.98.232-1.42.15-.44.38-.84.672-1.17.295-.34.656-.6 1.083-.8.42-.2.91-.29 1.46-.29.53 0 1 .09 1.4.26.39.18.72.42.98.73s.45.68.57 1.1c.13.43.19.89.19 1.38v.18c0 .07 0 .13-.01.18h-5.38l.02.31c.03.35.1.66.21.94.11.29.27.53.46.73.2.21.44.37.72.48.28.12.6.17.96.17.49 0 .93-.08 1.33-.25.4-.17.76-.41 1.08-.72l.35.94zm8.99-6.4c.285 0 .547.025.784.08.24.05.45.123.66.22.2.094.38.212.55.354.17.14.33.3.47.48l.05-.966h1.11l-.03 1.73v5.29h-1.13l.01-.986c-.11.144-.25.287-.42.426-.16.14-.35.26-.56.37-.21.106-.44.19-.7.254-.25.064-.52.096-.8.096-.39 0-.75-.05-1.07-.155-.32-.1-.61-.24-.86-.43-.25-.18-.47-.39-.65-.63-.19-.24-.34-.5-.46-.78s-.21-.57-.27-.87c-.06-.3-.09-.6-.09-.89 0-.45.07-.9.21-1.33.14-.44.35-.82.63-1.16.28-.34.63-.61 1.05-.82.42-.21.91-.31 1.48-.31zm.127 6.44c.32 0 .62-.067.9-.197s.53-.32.74-.58c.21-.26.38-.57.51-.95.127-.38.19-.81.19-1.31 0-.37-.05-.71-.162-1.01-.112-.31-.27-.57-.475-.8-.206-.23-.456-.4-.75-.52s-.623-.19-.99-.19c-.28 0-.53.04-.75.11-.223.07-.42.18-.594.31-.17.13-.32.29-.45.47s-.23.37-.31.57c-.08.2-.14.41-.18.63-.04.22-.06.43-.06.65 0 .21.02.42.05.65.03.22.08.43.15.64.07.2.16.4.28.58.12.18.26.34.44.47.17.13.38.24.63.32.24.08.53.12.85.12zm4.5-6.27h1.24l1.92 4.715c.038.08.07.18.12.31.047.13.09.26.13.4.05.15.1.31.15.48.048-.16.096-.32.146-.47l.125-.39c.04-.13.08-.24.12-.32l1.888-4.71h1.21l-2.96 7.02h-1.15l-2.93-7.01zm13.28 2.85l-.01-.097c-.02-.3-.08-.57-.17-.81-.095-.25-.223-.46-.39-.64s-.36-.32-.6-.42c-.23-.1-.5-.15-.792-.15-.32 0-.61.05-.86.16-.26.11-.48.26-.66.45-.19.19-.337.41-.45.67-.115.25-.19.52-.23.81h4.16zm.91 3.376c-.38.33-.8.568-1.26.72-.46.15-.98.225-1.566.225-.55 0-1.043-.09-1.476-.27-.433-.18-.8-.43-1.097-.753-.3-.32-.525-.705-.68-1.15-.16-.447-.24-.937-.24-1.47 0-.506.08-.98.23-1.43.157-.447.38-.84.68-1.176.296-.34.657-.605 1.083-.8.426-.197.913-.295 1.46-.295.538 0 1.005.09 1.4.266.398.17.724.41.98.72.254.3.444.67.57 1.09.125.42.188.88.188 1.38v.17l-.01.18h-5.38l.02.3c.026.34.095.65.207.93.12.28.27.53.46.73.2.21.44.36.72.48.28.11.6.16.96.16.49 0 .93-.09 1.33-.25.4-.17.76-.41 1.08-.73l.35.94zm6.936-4.69c-.22-.272-.486-.473-.8-.6-.315-.13-.65-.192-1.005-.192-.372 0-.71.074-1.01.22-.29.146-.543.345-.75.598-.21.254-.366.55-.475.89-.11.34-.16.703-.16 1.09 0 .383.047.74.143 1.073.1.34.24.63.44.87s.44.44.75.58c.3.14.66.21 1.07.21.77 0 1.46-.26 2.07-.79l.32.95c-.33.27-.7.46-1.11.58-.41.12-.86.18-1.36.18-.57 0-1.08-.09-1.52-.28-.43-.19-.8-.45-1.09-.77-.29-.32-.51-.7-.65-1.14-.14-.44-.22-.9-.22-1.39 0-.51.08-.99.24-1.45.15-.45.38-.85.68-1.19.3-.34.66-.61 1.1-.81.43-.2.93-.29 1.48-.29.55 0 1.04.09 1.45.26.42.17.74.41.97.72l-.51.73zm7.49 5.477h-1.13v-5.32c0-.29-.002-.58-.01-.86l-.028-.83h1.13l.04 1.06c.19-.39.45-.69.78-.91.327-.21.69-.32 1.09-.32.266 0 .51.03.74.08l.014 1.06c-.1-.05-.216-.09-.35-.12-.14-.03-.28-.04-.44-.04-.275 0-.525.05-.753.16-.23.1-.42.26-.58.46-.16.2-.29.44-.38.73-.09.29-.13.61-.13.96v3.89zm8.778-4.17l-.007-.1c-.03-.3-.08-.57-.18-.81-.09-.25-.22-.46-.38-.64s-.36-.32-.6-.42c-.24-.1-.5-.15-.8-.15-.32 0-.61.05-.86.17-.26.11-.48.26-.66.45-.19.19-.34.41-.45.67-.12.25-.19.52-.23.81h4.16zm.91 3.38c-.38.33-.8.57-1.26.72-.46.15-.98.22-1.564.22-.55 0-1.045-.09-1.478-.27-.43-.18-.797-.43-1.096-.76-.3-.32-.528-.71-.685-1.15-.152-.45-.23-.94-.23-1.47 0-.51.08-.98.234-1.43.156-.45.38-.84.68-1.18.293-.34.654-.61 1.08-.8.428-.2.914-.3 1.46-.3.54 0 1.006.09 1.4.26.4.17.725.41.98.72s.447.67.573 1.09c.126.42.19.88.19 1.38 0 .05 0 .11-.004.17l-.01.18h-5.38l.02.31c.027.34.096.65.21.93.11.28.264.52.46.73.196.2.434.36.714.47.28.11.6.17.96.17.485 0 .93-.09 1.33-.26s.76-.41 1.08-.73l.347.94zm3.123 3.7h-1.12V40c0-.097-.01-.215-.01-.354l-.01-.452c0-.163-.01-.333-.02-.51l-.03-.515h1.14l.03.99c.28-.39.63-.68 1.03-.88.4-.2.84-.3 1.32-.3.55 0 1.02.09 1.43.28.4.19.74.45 1 .77.26.33.46.71.59 1.14.13.43.19.89.19 1.38 0 .49-.07.97-.2 1.42-.14.45-.34.85-.61 1.2-.27.35-.6.62-1.01.83-.4.21-.88.31-1.41.31-.99 0-1.77-.36-2.36-1.08v3.85zm0-6.3c0 .38.04.73.14 1.05.09.32.23.6.42.83.18.23.41.42.69.55.27.13.59.2.94.2.38 0 .71-.08.98-.24.28-.16.5-.36.68-.62.17-.26.3-.56.39-.9.08-.34.12-.69.12-1.06 0-.34-.04-.68-.11-1.01-.07-.33-.19-.62-.36-.87-.17-.25-.39-.46-.66-.61-.27-.15-.61-.23-1.01-.23-.42 0-.77.08-1.06.24-.28.16-.51.37-.69.64-.17.26-.3.57-.38.92-.08.35-.12.71-.12 1.09zm8.53 3.37h-1.13v-5.32c0-.29-.01-.58-.02-.86l-.03-.83h1.12l.04 1.06c.19-.39.45-.69.78-.91.32-.22.69-.32 1.09-.32.26 0 .51.02.74.08l.01 1.06c-.1-.05-.22-.09-.35-.12-.14-.03-.29-.05-.44-.05-.28 0-.53.05-.75.16-.23.1-.42.26-.58.46-.16.2-.29.44-.37.73-.09.29-.14.61-.14.96v3.89zm5.01-10v1.06h-1.05V35.2h1.04zm-1.1 2.98h1.12v7.02h-1.13v-7.01zm7.69 1.22c-.25-.17-.54-.29-.89-.37-.35-.08-.71-.12-1.08-.12-.21 0-.4.02-.58.07-.18.05-.33.11-.46.2s-.24.18-.31.3c-.08.12-.11.26-.11.41 0 .16.04.29.12.41.08.11.18.21.31.3.13.08.28.16.46.22.17.06.36.13.56.19l.58.17c.2.06.41.13.62.21.2.08.4.17.58.28.18.1.35.23.49.38.14.14.26.31.34.51.09.19.13.42.13.67 0 .36-.08.66-.25.93-.17.26-.38.48-.65.65-.27.17-.58.3-.92.39-.35.08-.7.13-1.07.13-.24 0-.48-.02-.71-.04-.24-.03-.46-.08-.68-.14-.22-.07-.42-.15-.6-.25-.19-.1-.34-.23-.48-.38l.3-.93c.12.15.27.28.43.38.16.11.34.19.53.26.19.06.38.11.58.14.2.03.4.05.59.05.25 0 .49-.02.7-.07.21-.05.4-.12.56-.21.16-.09.28-.21.37-.35.09-.14.14-.3.14-.48 0-.21-.05-.38-.15-.51-.1-.13-.24-.24-.42-.34-.18-.09-.39-.18-.64-.25s-.52-.15-.8-.245c-.35-.11-.65-.22-.93-.34-.28-.12-.51-.26-.7-.42-.19-.16-.34-.35-.44-.56-.11-.21-.16-.46-.16-.75 0-.328.08-.61.23-.85.15-.246.34-.44.58-.6.24-.16.51-.28.82-.357.3-.08.62-.12.94-.12.47 0 .9.046 1.3.13s.74.24 1.01.46l-.29.8zm7.68 1.63l-.01-.1c-.03-.3-.08-.57-.18-.82-.1-.24-.23-.46-.39-.63s-.36-.32-.6-.42c-.24-.1-.5-.15-.8-.15-.32 0-.61.05-.86.16-.26.11-.48.26-.66.45-.19.19-.34.41-.45.67-.11.25-.19.52-.23.81h4.16zm.91 3.38c-.38.32-.8.56-1.26.71-.46.15-.98.23-1.57.23-.55 0-1.05-.09-1.48-.27-.44-.18-.8-.43-1.1-.75-.3-.32-.53-.71-.69-1.16-.16-.45-.24-.94-.24-1.47 0-.51.08-.98.23-1.43.15-.45.38-.84.68-1.18.3-.34.66-.61 1.08-.8.43-.2.91-.3 1.46-.3.54 0 1 .09 1.4.26.39.17.72.42.98.72s.45.67.57 1.09c.13.42.19.88.19 1.38v.17c0 .07-.01.13-.01.18h-5.38l.02.3c.03.34.1.65.21.93.11.28.26.52.46.73.2.2.43.36.71.47.28.11.6.17.96.17.48 0 .92-.08 1.32-.25.4-.17.76-.41 1.08-.72l.35.94z" fill="#FFF"/></g></svg>