<svg width="313" height="189" viewBox="0 0 313 189" xmlns="http://www.w3.org/2000/svg" xmlns:xlink="http://www.w3.org/1999/xlink"><defs><path id="a" d="M0 0h360v186H0z"/><path id="c" d="M55.33.428v54.93H.41V.428z"/><path id="e" d="M.31.175h34.687v27.642H.31z"/><filter x="-13.2%" y="-30.4%" width="126.4%" height="169.6%" filterUnits="objectBoundingBox" id="g"><feOffset dy="2" in="SourceAlpha" result="shadowOffsetOuter1"/><feGaussianBlur stdDeviation="5" in="shadowOffsetOuter1" result="shadowBlurOuter1"/><feColorMatrix values="0 0 0 0 0 0 0 0 0 0 0 0 0 0 0 0 0 0 0.151692708 0" in="shadowBlurOuter1" result="shadowMatrixOuter1"/><feMerge><feMergeNode in="shadowMatrixOuter1"/><feMergeNode in="SourceGraphic"/></feMerge></filter><filter x="-10.5%" y="-40%" width="120.9%" height="191.4%" filterUnits="objectBoundingBox" id="h"><feOffset dy="2" in="SourceAlpha" result="shadowOffsetOuter1"/><feGaussianBlur stdDeviation="5" in="shadowOffsetOuter1" result="shadowBlurOuter1"/><feColorMatrix values="0 0 0 0 0 0 0 0 0 0 0 0 0 0 0 0 0 0 0.151692708 0" in="shadowBlurOuter1" result="shadowMatrixOuter1"/><feMerge><feMergeNode in="shadowMatrixOuter1"/><feMergeNode in="SourceGraphic"/></feMerge></filter></defs><g fill="none" fill-rule="evenodd"><g transform="translate(-25 3)"><mask id="b" fill="#fff"><use xlink:href="#a"/></mask><g mask="url(#b)"><path d="M254.728 173.924c-1.777 20.542 10.162 129.798 8.41 148.045 0 0 2.832 3.4.557 10.96l5.74 2.25s3.16-154.6 2.262-160.49l-16.97-.78z" fill="#3F4040"/><path d="M279.57 212.635c3.69 19.696 13.62 115.62 13.84 122.246l6.393-1.01s-5.486-156.09-5.08-160.25c0 0-28.462-14.99-32.94-14.76-4.49.24 4.293 32.05 4.293 32.05s9.415-.01 13.494 21.73" fill="#3D3D3C"/><path fill="#FEFEFE" d="M270.328 70.7l1.406-7.87 2.682 3.952 15.762-8.224 3.128 6.584 5.856 6.272-2.473 16.732.47 2.027-31.48 41.48-5.08-41.985 2.89-8.087"/><path fill="#80BAB8" d="M275.13 74.497l-10.428 34.77 2.192 18.338 6.95-13.18 2.51-39.928v-4.55l-1.944-3.166-1.216 3.68"/><path d="M313.342 107.14c4.766 12.35 10.09 37.365 8.75 40.858-1.316 3.505 15.54 5.054 15.54 5.054s-10.874-63.03-9.016-70.662c1.858-7.647-15.274 24.75-15.274 24.75m-68.606-29.134c-.21 13.226-9.845 59.926-12.397 62.675-2.53 2.75 12.51 10.52 12.51 10.52s13.57-62.5 18.16-68.89c4.6-6.38-18.28-4.3-18.28-4.3" fill="#3D3D3C"/><path d="M292.622 63.717c4.63 9.028 29.42 11.855 35.962 16.922 0 0-39.77 66.73-39.05 74.07.725 7.33 8.946 31.44 8.946 31.44s-11.085 3.43-27.75 2.24c0 0-2.95-19.05-4.507-22.54l-.756 22.79c-7.8.46-9.847.04-15.037-3.12-1.473-.9 6.41-28.08 6.053-33.39-.358-5.31-11.748-58.56-11.748-74.13 0 0 22.663-7.73 25.994-9.52-1.26 7.58-7.47 29.01-3.84 59.11 0 0 15.07-30.29 25.73-63.89" fill="#3D3D3C"/><path d="M213.544 139.906c-4.298-.842-18.84-.82-17.565-5.748 1.27-4.92.83-10.94 4.53-9.894 3.68 1.044 3.93-1.03 3.93-1.03s1.39-6.842 3.91-6.032c2.51.81-.82 6.718-.74 7.528.48 5.1 7.98 8.314 7.98 8.314m56.71-78.858c.13-3.94-1.11-8.697-2.21-16.052-.53-3.566 3.29-4.747 3.21-6.974-.05-1.35-1.61-2.17-1.9-3.73-.42-2.264 5.89-5.052 5.93-10.31.05-5.265 13.6-3.797 14.35.728.47 2.952-.21 8.594-.75 14.693 1.13.92 3.9-3.03 6.14-1.84 2.52 1.38 3.1 7.02 1.16 10.23-1.62 2.65-5.16 1.86-7.75 4.06.13 2.58.49 4.95 1.19 6.87 4.95 13.72-5.99 20.29-24.37 13.58 0 0 4.86-8.51 4.98-11.24" fill="#F3AB81"/><path d="M281.75 30.792c0 .795.65 1.454 1.442 1.454.797 0 1.45-.66 1.45-1.454 0-.793-.653-1.45-1.45-1.45-.793 0-1.443.657-1.443 1.45" fill="#442A18"/><path fill="#FEFEFE" d="M282.99 30.44l.61.626.625-.627-.624-.62m-10.51.26l.63.62.63-.63-.62-.63"/><path d="M282.66 11.925s-2.5 2.027 0 0c.473-.373.988-.83 1.575-1.38 3.65-3.494 13.29 2.53 10.944 8.37-2.33 5.84.33 11.874-2.3 13.252-2.65 1.37-2.28 3.198-2.28 3.198l-1.84-1.17c-.4-4.68 4.66-10.463 1.86-9.58-2.79.866-5.32-2.37-5.03-2.18.29.194 7.82-.31 4.43-4.985-3.41-4.67-6.53-.35-10.9-.685-2.33-.16-5.66-2.454-6.05.448-.38 2.894-3.36-8.503 2.33-6.813 5.68 1.676 5.4 2.618 7.23 1.525" fill="#915F36"/><path d="M277.85 24.053l.53 1.893c2.13.17 9.308 5.645 8.86 5.184-2.27-2.28-5.795-6.762-8.29-7.36l-1.1.283zm-3.178 0l-.524 1.893c-2.135.17-3.705 1.683-3.705 1.683 1.21-2.83 1.852-3.45 3.128-3.86l1.11.28z" fill="#915F36"/><path d="M287.7 47.656c0 .742.127 1.617.27 2.447l-.87 1.178 1.07-.11c.182.87.328 1.5.277 1.59-.122.14-7.504 2.89-12.988 1.37l.05-.42 1.02-.34-1.04-.16-.47-.51s9.42.25 12.66-5" fill="#FEFEFE"/><path d="M275.06 52.394l.642-.05c3.318-.49 6.738-6.94 6.76-7 .347-.702-1.136-.866-1.51-1.066.555.28 1.006.678.996.81-.373.773-3.606 6.282-6.33 6.672-.69.102-1.133.046-1.338-.176-.31-.32-.143-1.08.005-1.805l.188-1.44c0-.22-.478-21.37 2.248-26.45-2.78 5.2-2.83 26.25-2.82 26.46l-.18 1.3c-.17.86-.36 1.78.15 2.32.25.27.65.41 1.2.41" fill="#442A18"/><path fill="#E5332A" d="M255.023 119.094l40.58-7.123 9.145 52.27-40.582 7.11"/><path d="M278.903 161.024c-4.26 1.034-17.443 7.157-18.358 2.15-.902-5.01-3.81-10.285-.026-10.895 3.79-.6 17.37 1.64 17.37 1.64" fill="#F3AB81"/><path fill="#FEFEFE" d="M276.615 152.536l.65 7.777 6.477-1.144 1.6-8.19"/><path fill="#3D3D3C" d="M280.977 151.76l42.202-9.685 14.59 9.78-56.8 7.808v-3.244l3.17-1.38-3.17.08"/><path fill="#FEFEFE" d="M214.937 132.787l-5.212 6.65 6.207 2.086 5.86-5.196"/><path fill="#3D3D3C" d="M215.597 133.045l19.564.73 9.7 17.42-31.78-10.617 1.01-3.006 4.31.525-3.59-1.837"/></g><g mask="url(#b)"><path d="M86.267 147.764c2.753 20.488 1.152 55.94-.252 90.6-1.31 32.33-2.458 63.973.252 82.162 0 0-3.513 5.654 0 13.193h-9.65s-3.132-40.66-5.137-95.35c-.013-.49.068.47 0 0-6.297-46.34-9.194-83.27-7.812-89.13l22.6-1.48z" fill="#311C29"/><path d="M60.41 187.235c-3.715 19.798-3.43 38.45-6.267 62.795-3.27 28.072-5.93 54.138-7.6 70.435-.25 2.436.483 10.037.842 16.625h-9.608s1.03-43.13 2.474-88.103c1.49-46.378 2.67-95.402 1.59-99.513 0 0 30.76-18.538 37.84-18.564 7.08-.032-.16 34.177-.16 34.177s-14.99.29-19.09 22.148" fill="#45393D"/><g transform="translate(85.55 119.112)"><mask id="d" fill="#fff"><use xlink:href="#c"/></mask><path d="M35.167 33.387L.41 5.087 6.456.427l32.28 30.632c3.24 3.62 7.21 4 9.282 6.41 2.07 2.4 2.812 9.15-1.723 3.26-1.765-2.29-.815 3.83 3.47 7.39 4.284 3.56 7.633 6.12 4.055 6.02-3.582-.1-5.846 2.78-8.84-.05-2.996-2.84-3.225-12.64-9.813-20.72" fill="#F5AB83" mask="url(#d)"/></g><path d="M84.195 89.56c-1.012 9.507-.415 34.636.73 37.11 3.384 7.32-8.093 1.453-8.093 1.453s-5.21-45.267-2.922-50.49C76.52 71.67 84.195 89.56 84.195 89.56" fill="#F5AB83"/><path d="M74.44 48.077c-.035 1.492 0 2.49 0 2.49s-8.346.313-10-3.365l5.205.632 4.795.243zm-.556 4.268c-.034 1.295 0 2.16 0 2.16s-9.477-1.863-11.11-5.056l6.37 2.68 4.74.21z" fill="#FEFEFE"/><path d="M49.723 21.664c-3.54 7.974 5.3 18.882 5.3 18.882s-.88 2.096 2.66 7.548c3.534 5.458 12.404 12.567 17.68 12.59 3.05.022 1.387-8.26 1.387-9.342 0-1.058-10.173-1.22-10.87-7.698 4.023 1.085 8.847 2.713 10.97 1.552-.083-5.376 5.367-14.98 5.367-15.558 0-.63-1.78-3.657-2.43-7.135-2.776-14.664-26.53-8.81-30.064-.84" fill="#F5AB83"/><path d="M76.278 29.787c.43 5.14 3.15 11.83 2.508 13.047-.642 1.222-4.56-.328-7.124-2.158l.853-1.038" fill="#F5AB83"/><path d="M76.28 29.787c.427 5.14 3.15 11.83 2.506 13.047-.642 1.222-4.56-.327-7.124-2.158l.854-1.038" stroke="#000" stroke-width=".4"/><g transform="translate(48.33 9)"><mask id="f" fill="#fff"><use xlink:href="#e"/></mask><path d="M6.924 27.817h3.34V18.54c0-1.244 4.018-2.348 4.617-6.34 0 0 7.6 2.618 6.86-1.106 0 0 11.62 4.826 8.56-.684 0 0 4.99 0 4.69-2.344-.29-2.34-6.9-2.182-9.05-2.12-1.82.054 7.86.204 7.12-4.076-.75-4.27-21.6.55-22.34 3.31-3.73-.96-13.13 4.396-9.64 16.39 0 0 4.9-5.404 5.85 6.253" fill="#704032" mask="url(#f)"/></g><path d="M62.22 29.787c1.09-4.902 6.25-5.167 9.215-5.033 2.973.13 2.033 2.28 0 2.116-3.276-.263-7.652-.263-9.216 2.917m20.55 0c-.6-4.902-3.44-5.167-5.07-5.033-1.63.13-1.12 2.28 0 2.118 1.81-.26 4.21-.26 5.07 2.915" fill="#704032"/><path d="M77.276 31.472c.18 1.37 2.532 2.493 2.72 3.37m-8.25-3.37c-.302 1.37-4.228 2.493-4.528 3.37" stroke="#432918" stroke-width=".5"/><path d="M80.49 24.73c-.557-2.22-2.773-4.264-4.02-4.535-1.25-.274 1.13-2.768 1.13-2.768s3.447 1.893 2.89 7.303" fill="#704032"/><path d="M67.774 30.91c0 .622.496 1.124 1.11 1.124.61 0 1.112-.502 1.112-1.125 0-.62-.5-1.13-1.113-1.13s-1.11.5-1.11 1.12" fill="#1D1D1B"/><path d="M68.885 30.056c0 .148.13.265.28.265.15 0 .275-.11.275-.26 0-.15-.125-.27-.275-.27-.15 0-.28.12-.28.27" fill="#FEFEFE"/><path d="M77.217 30.91c0 .622.497 1.124 1.11 1.124.614 0 1.112-.502 1.112-1.125 0-.62-.5-1.13-1.12-1.13-.61 0-1.11.5-1.11 1.12" fill="#1D1D1B"/><path d="M77.773 30.056c0 .148.128.265.284.265.145 0 .27-.11.27-.26 0-.15-.125-.27-.27-.27-.156 0-.284.12-.284.27" fill="#FEFEFE"/><path d="M51.01 34.3c.842 3.393 2.57 5.89 3.847 5.572 1.282-.32 1.636-3.333.795-6.728-.845-3.4-2.568-5.896-3.847-5.577-1.28.32-1.64 3.336-.794 6.733m32.3 52.016c1.41 9.395 8.23 33.407 9.93 35.5 5.04 6.194-7.3 3.417-7.3 3.417S69.73 83.007 70.6 77.413c.99-6.383 12.72 8.903 12.72 8.903M38.9 93.862c-2.65 9.245-6.488 34.268-5.82 36.923 1.983 7.865-8.07 0-8.07 0s2.92-45.81 6.05-50.584c3.565-5.44 7.84 13.67 7.84 13.67" fill="#F5AB83"/><path d="M55.896 39.35c5.228 11.546.895 25.033.895 25.033-3.02 3.86-22.9 17.817-22.9 17.817l22.91 25.676 17.1-8.78s-5.64-23.19-5.64-24.68c0-7.122-.27-12.085 2.29-15.058 6.37-7.38-19.55-30.87-14.63-20.01" fill="#F5AB83"/><path d="M44.31 135.03c.788-7.647-15.977-56.905-15.977-56.905 7.084-5.277 16.837-6.85 22.346-12.653l2.42-5.348 8.22 11.657 7.27 15.84-1.28-16.55 2.17-6.84.04 7.6c7 3.44 18.21 8.74 18.21 8.74-2.68 11.7-3.35 45.5-2.57 53.22.77 7.74 5.09 29.57 3.25 29.75-16.79 1.69-38.79 1.8-49.45-2.37 0 0 .5-7.32 1.81-10.75 1.31-3.43 2.72-7.71 3.51-15.36" fill="#E5332A"/><path d="M41.11 96.026c-2.596 9.062-2.367 3.14-1.163 5.536C41.15 103.952 25 99.422 25 99.422s5.192-14.64 3.31-19.932c-1.882-5.292 12.8 16.536 12.8 16.536m40.55 1.58c.695 9.16.862 3.248.243 5.577-.616 2.325 6.424-1.422 6.424-1.422s-1.542-14.84-.51-20.03c1.035-5.18-6.157 15.88-6.157 15.88" fill="#E5332A"/><path d="M69.078 78.745l4.806 5.536-4.68-12.91m-10.49 6.32l-5.757 3.63-1.847-16.13" stroke="#432918" stroke-width=".5"/><path d="M36.99 176.704c.586 2.323-2.99 6.05-2.5 11.465.138 1.55 2.006 4.78 2.006 4.78 2.606-2.69-.13-6.04.754-7.37.822-1.23-.982.34.093 2.42 1.443 2.79-.062 8.4-1.49 13.69l4.665-3.46c4.895-7.46 2.297-16.42.45-23.11-.81-2.96-4.66-1.16-3.978 1.57" fill="#F5AB83"/><path d="M41.075 177.55l-8.037-47.202H25l11.6 46.837c.552 2.15 4.94 3.082 4.475.364" fill="#F5AB83"/></g></g><g filter="url(#g)" transform="matrix(1 0 0 -1 60 54)" fill="#FFF"><rect x="14.697" y="11.219" width="106.303" height="34" rx="17"/><path d="M4.22 4.83l19.604 10.186L16.4 23.26"/></g><path d="M86.17 22.702c.158.122.326.217.505.285.18.068.376.102.59.102.237 0 .442-.05.616-.15.18-.1.32-.24.43-.41.12-.18.2-.38.26-.62s.09-.5.09-.78v-5.2h.93v5.14c0 .45-.05.85-.16 1.2-.1.35-.26.64-.46.88-.2.23-.44.41-.73.53-.28.12-.61.18-.97.18-.28 0-.53-.05-.75-.15-.22-.1-.42-.24-.59-.41l.27-.63zm9.255-2.213l-.006-.08c-.02-.24-.07-.45-.14-.64-.08-.19-.18-.36-.31-.5s-.29-.25-.47-.33c-.19-.08-.4-.12-.63-.12-.25 0-.48.04-.68.13-.2.08-.38.2-.52.35-.15.15-.26.32-.35.52-.09.2-.15.41-.19.64h3.27zm.714 2.65c-.3.26-.63.44-.99.56-.36.12-.77.17-1.23.17-.44 0-.82-.07-1.16-.21-.34-.14-.63-.34-.86-.59-.24-.26-.42-.56-.54-.91-.13-.35-.19-.74-.19-1.16 0-.4.06-.77.18-1.12.12-.36.3-.66.53-.93.23-.27.51-.48.85-.63.33-.16.71-.23 1.14-.23.42 0 .79.07 1.1.2.31.14.56.33.77.57.2.24.35.53.45.86.1.33.14.69.14 1.08v.13c0 .05-.01.1-.01.14H92.1l.017.24c.023.26.077.51.165.73.09.22.21.41.363.57.152.16.34.28.56.37.22.08.47.13.754.13.38 0 .73-.07 1.04-.2.31-.13.6-.32.85-.57l.27.73zm4.01-4.9h.98l1.5 3.7.09.24c.03.1.07.2.1.31.04.11.08.24.12.37.03-.13.07-.26.11-.37l.09-.31c.03-.11.06-.19.09-.26l1.48-3.71h.95l-2.33 5.51h-.9l-2.31-5.51zm10.43 2.24l-.01-.08c-.02-.24-.07-.45-.14-.64-.08-.19-.18-.36-.31-.5s-.29-.25-.47-.33c-.19-.08-.39-.12-.63-.12-.25 0-.48.04-.68.13-.2.09-.38.21-.52.36-.15.15-.26.32-.35.52-.09.2-.15.41-.19.64h3.27zm.71 2.65c-.3.25-.63.44-.99.56-.37.12-.78.17-1.23.17-.44 0-.82-.07-1.16-.21-.34-.14-.63-.34-.87-.59-.24-.26-.42-.56-.54-.91-.13-.35-.19-.74-.19-1.16 0-.4.06-.77.18-1.12.12-.36.3-.66.53-.93.23-.27.52-.48.85-.63.33-.16.72-.23 1.15-.23.42 0 .79.07 1.1.2.31.14.57.33.77.57.2.24.35.53.45.86.09.33.14.69.14 1.08v.13l-.01.14h-4.23l.01.24c.02.26.07.51.16.73.08.22.2.41.36.57.15.16.34.28.56.37.22.08.47.13.75.13.38 0 .72-.07 1.04-.2.31-.13.59-.32.84-.57l.27.73zm5.43-4.9h.88v4.85c0 .21.02.42.03.65h-.92l-.01-.73c-.42.56-1.02.85-1.82.85-.27 0-.51-.04-.72-.1-.21-.06-.39-.15-.54-.26-.15-.11-.28-.24-.38-.39-.1-.15-.18-.3-.25-.47-.06-.17-.1-.34-.13-.52s-.04-.36-.04-.54v-3.36h.89v3.37c0 .51.11.9.33 1.16.22.26.57.39 1.04.39.26 0 .49-.05.68-.14.2-.09.37-.22.51-.38.13-.16.24-.35.31-.56.07-.21.11-.44.11-.67v-3.17zm4.07 2.75l-2.05-2.75h1.09l1.52 2.21 1.57-2.22h.96l-2.03 2.72 2.1 2.78h-1.07l-1.61-2.24-1.62 2.24h-1.02l2.14-2.76zm11.29-1.55c-.17-.22-.38-.37-.63-.47-.25-.1-.51-.15-.79-.15-.3 0-.56.05-.8.17-.24.11-.43.27-.6.47-.16.2-.29.43-.37.7-.09.26-.13.55-.13.85 0 .3.03.58.11.84.07.26.19.49.34.68.15.19.35.34.59.45.23.11.51.16.84.16.6 0 1.14-.21 1.62-.63l.24.74c-.26.21-.55.36-.88.45-.33.09-.68.14-1.07.14-.46 0-.85-.08-1.2-.23-.34-.15-.63-.35-.86-.61-.23-.26-.41-.56-.52-.9-.12-.34-.17-.71-.17-1.1 0-.41.06-.79.18-1.14.12-.36.3-.67.53-.94.23-.27.52-.48.86-.64.34-.16.73-.24 1.16-.24.43 0 .81.06 1.14.2.32.14.58.32.76.56l-.4.57zm2.68-3.71v3.23c.22-.31.49-.53.79-.66.3-.14.65-.21 1.06-.21.4 0 .73.06.99.19s.47.3.62.51c.15.21.26.45.32.71.06.26.09.53.09.8v3.41h-.89v-3.36c0-.23-.02-.44-.07-.63-.05-.2-.12-.36-.23-.5-.11-.14-.25-.25-.43-.32-.18-.08-.4-.12-.66-.12s-.48.04-.68.14c-.2.09-.37.22-.5.38s-.24.35-.32.57c-.07.22-.11.45-.11.69v3.15h-.89v-8h.89zm7.87 2.36c.22 0 .43.02.61.06.19.04.36.1.52.18.15.07.3.17.43.28.13.11.25.23.37.37l.03-.76h.87l-.02 1.36v4.15h-.89l.01-.78c-.09.11-.2.23-.33.34-.13.11-.28.2-.45.28-.17.08-.35.15-.55.2-.2.05-.41.07-.63.07-.31 0-.59-.04-.84-.12-.25-.08-.47-.19-.67-.33-.2-.14-.37-.31-.51-.5-.15-.19-.27-.4-.36-.61-.1-.22-.17-.45-.21-.68-.05-.24-.07-.47-.07-.7 0-.36.05-.7.16-1.04.11-.34.27-.65.49-.91.22-.27.49-.48.82-.64.33-.16.72-.24 1.16-.24zm.1 5.06c.25 0 .48-.05.7-.15.22-.1.41-.26.58-.45.16-.2.3-.45.39-.74.1-.3.15-.64.15-1.03 0-.29-.05-.55-.13-.79-.09-.24-.22-.45-.38-.62-.16-.18-.36-.31-.59-.41-.23-.1-.49-.15-.78-.15-.22 0-.41.03-.59.09s-.33.14-.47.24c-.14.1-.26.22-.36.36-.1.14-.19.29-.25.45-.06.16-.11.32-.14.5-.03.17-.05.34-.05.51 0 .16.01.33.04.5s.06.34.11.5c.05.16.12.31.22.45.09.14.21.27.34.37.14.11.3.19.5.25.19.07.41.1.67.1zm5.24.58h-.89v-4.18c0-.16-.01-.33-.01-.49l-.01-.43c-.01-.15-.02-.28-.02-.42h.89l.02.76c.22-.3.47-.53.78-.68.3-.15.66-.22 1.07-.22.4 0 .73.06.99.19s.47.31.62.55c.15.24.26.52.32.85.06.33.09.69.09 1.09v2.96h-.89v-2.8c0-.31-.02-.6-.04-.85-.03-.26-.09-.48-.17-.66-.09-.18-.22-.32-.39-.42-.17-.1-.41-.15-.7-.15-.27 0-.51.05-.71.15-.21.1-.39.23-.53.37s-.25.3-.33.46c-.08.16-.11.31-.11.43v3.5zm5.82 1c.28.17.58.3.89.38.31.08.61.12.91.12.31 0 .6-.04.85-.11s.46-.18.63-.32c.17-.15.3-.33.39-.55.09-.23.14-.49.14-.8v-.68c-.22.32-.49.56-.82.71-.33.16-.69.24-1.08.24-.4 0-.75-.07-1.06-.2-.31-.13-.58-.32-.79-.56-.22-.24-.38-.53-.49-.87-.11-.34-.17-.71-.17-1.12 0-.39.05-.76.16-1.12.11-.35.27-.66.48-.93.21-.27.48-.47.81-.63.32-.16.7-.24 1.13-.24.42 0 .77.07 1.06.23.29.15.54.37.76.66v-.22l.01-.25c.01-.1.01-.19.02-.29h.89c-.01.17-.02.34-.02.51-.01.14-.01.29-.02.44l-.01.4v3.36c0 .24-.01.49-.04.73s-.08.48-.15.7c-.07.23-.18.44-.31.64s-.3.37-.51.51c-.21.15-.46.26-.76.35-.3.08-.64.13-1.05.13-.35 0-.7-.04-1.03-.11-.33-.08-.65-.19-.94-.34l.1-.82zm3.82-3.96c0-.27-.04-.53-.12-.77-.08-.24-.19-.45-.34-.63-.15-.18-.33-.32-.54-.42-.21-.1-.45-.16-.72-.16-.29 0-.55.06-.77.17-.22.11-.41.27-.55.47-.15.2-.26.43-.34.69-.07.26-.11.53-.11.82 0 .31.03.59.09.84s.16.46.3.64c.14.18.32.31.54.41.22.09.49.14.82.14.32 0 .59-.07.82-.19.22-.13.4-.3.53-.51.13-.21.23-.44.29-.71.06-.27.09-.54.09-.83zm6.63-.32l-.01-.08c-.02-.23-.07-.45-.14-.64-.08-.19-.18-.36-.31-.5s-.29-.25-.47-.33c-.19-.08-.4-.12-.63-.12-.25 0-.48.04-.68.13-.2.09-.38.21-.52.36-.15.15-.26.32-.35.52-.09.2-.15.41-.19.64h3.27zm.71 2.65c-.3.26-.63.44-.99.56-.36.12-.77.17-1.23.17-.44 0-.82-.07-1.16-.22-.34-.14-.63-.34-.86-.59-.24-.25-.42-.56-.54-.91-.13-.35-.19-.74-.19-1.16 0-.4.06-.77.18-1.12.12-.35.3-.66.53-.92.23-.27.52-.48.85-.63.34-.15.72-.23 1.15-.23.42 0 .79.07 1.1.21.31.14.57.33.77.57.2.24.35.53.45.86.1.33.15.69.15 1.08v.14l-.01.14h-4.23l.01.24c.02.27.07.51.16.73.08.22.21.41.36.57.15.16.34.29.56.37.22.09.47.13.76.13.38 0 .73-.07 1.04-.2.31-.13.59-.32.85-.57l.27.73zm2.5.62h-.89v-4.18c0-.23 0-.45-.01-.68l-.02-.65h.89l.03.83c.15-.31.35-.54.61-.71.26-.17.54-.25.86-.25.21 0 .4.02.58.06l.01.83c-.08-.04-.17-.07-.28-.1-.11-.03-.22-.04-.35-.04-.22 0-.41.04-.59.12-.18.08-.33.2-.46.36-.13.15-.23.35-.3.57-.07.22-.11.47-.11.75v3.05zm-60.86 12l-.03-.79c-.23.33-.5.56-.81.7-.31.14-.67.21-1.09.21-.43 0-.8-.08-1.11-.23-.31-.15-.57-.35-.78-.61-.21-.25-.36-.56-.46-.9-.1-.35-.15-.71-.15-1.1 0-.39.05-.76.15-1.11.11-.35.27-.66.48-.93.22-.27.48-.49.8-.65.32-.16.68-.24 1.1-.24.4 0 .75.08 1.07.23.32.15.58.36.79.65V27.7h.89v6.64l.02.69c0 .25.01.477.02.68h-.9zm-1.79-.59c.29 0 .54-.06.76-.17.22-.12.4-.27.55-.48.15-.21.26-.46.33-.75s.11-.62.11-.97c0-.3-.04-.57-.12-.81-.08-.24-.2-.45-.35-.63-.15-.17-.33-.31-.55-.4-.21-.09-.45-.14-.71-.14-.3 0-.57.06-.79.17-.22.12-.4.28-.54.48-.14.2-.25.43-.32.7-.07.27-.1.55-.1.85 0 .28.03.55.09.81s.15.48.29.68c.13.2.31.35.52.47.22.12.48.18.8.18zm8.39-2.69l-.01-.07c-.02-.23-.06-.45-.14-.64-.08-.19-.18-.36-.31-.5s-.29-.25-.47-.33c-.19-.08-.39-.12-.63-.12-.25 0-.48.04-.68.13-.2.09-.37.21-.52.36-.15.15-.26.32-.35.52-.09.2-.15.42-.18.64h3.27zm.71 2.66c-.3.26-.63.44-.99.56-.36.12-.77.18-1.23.18-.43 0-.82-.07-1.16-.21-.34-.15-.63-.34-.86-.59-.23-.26-.41-.56-.54-.91-.13-.35-.19-.74-.19-1.16 0-.4.06-.77.18-1.12.12-.36.3-.66.53-.93.23-.26.51-.47.85-.63.33-.15.71-.23 1.14-.23.42 0 .79.07 1.1.21.31.14.57.33.77.57.2.24.35.53.45.86.1.33.15.69.15 1.09v.13c0 .05-.01.1-.01.14h-4.23l.02.24c.02.26.07.51.16.73.09.22.21.41.36.57.15.16.34.28.56.37.22.08.47.13.75.13.38 0 .73-.07 1.04-.2.32-.13.6-.32.85-.57l.27.73zm4.01-4.9h.98l1.51 3.71.09.24c.03.1.07.2.1.31.04.12.08.24.12.37.04-.13.07-.25.11-.37l.09-.31.09-.25 1.48-3.71h.95l-2.33 5.51h-.91l-2.31-5.51zm8.9-.13c.46 0 .87.07 1.22.22s.64.36.87.62.41.57.53.92c.12.35.18.73.18 1.13 0 .38-.06.75-.19 1.1-.13.35-.31.65-.54.91-.24.27-.54.47-.89.63-.35.15-.76.23-1.21.23-.46 0-.86-.08-1.22-.23-.35-.15-.64-.36-.88-.61-.24-.26-.42-.56-.54-.91-.12-.35-.19-.73-.19-1.12 0-.4.07-.78.19-1.13.13-.35.31-.66.55-.92.24-.26.54-.47.89-.62.36-.16.76-.23 1.22-.23zm1.86 2.9c0-.3-.04-.58-.11-.84-.08-.27-.19-.5-.35-.7-.16-.2-.35-.36-.59-.48s-.52-.18-.84-.18c-.31 0-.58.06-.82.18s-.43.28-.59.48c-.16.2-.28.43-.36.7-.08.26-.12.54-.12.83 0 .28.04.55.12.81.08.25.2.48.36.68.16.2.36.36.6.47.24.12.52.17.84.17.31 0 .59-.06.82-.18.23-.12.43-.28.58-.48.15-.2.27-.43.34-.69.08-.26.12-.54.12-.82zm3.22-5.11v.83h-.83v-.83h.82zm-.87 2.34h.89v5.51h-.89v-5.5zm3.11.58h-1.09v-.57h1.09l.03-1.46.86-.25v1.71h1.37v.57h-1.37v3.29c0 .12 0 .24.01.37s.03.24.07.35c.04.11.1.19.19.26.08.06.2.1.36.1.11 0 .23-.02.36-.05.12-.03.26-.07.41-.13v.66c-.13.07-.27.12-.41.15-.15.03-.32.05-.5.05-.3 0-.55-.05-.73-.15-.18-.1-.32-.24-.42-.41-.1-.18-.17-.38-.2-.61-.04-.23-.05-.47-.05-.73V30.8zm7.32-.58h.89v4.19c0 .24 0 .46.01.67 0 .21.02.43.03.65h-.91l-.02-.72c-.42.56-1.02.85-1.82.85-.27 0-.51-.04-.72-.1-.2-.06-.38-.15-.54-.26-.15-.11-.28-.24-.38-.38-.1-.15-.18-.31-.24-.47-.06-.17-.11-.34-.13-.53-.03-.18-.04-.36-.04-.54V30.2h.89v3.37c0 .51.11.9.33 1.16.22.26.57.394 1.04.394.26 0 .48-.05.68-.14.2-.09.37-.22.51-.38s.24-.35.31-.56c.07-.218.1-.44.1-.68V30.2zm3.6 5.51h-.88v-4.18c0-.22 0-.45-.01-.67l-.02-.65h.89l.03.83c.15-.31.35-.54.61-.71.26-.17.54-.25.86-.25.21 0 .4.02.58.06l.01.83c-.08-.04-.17-.07-.27-.1-.11-.03-.22-.04-.35-.04-.22 0-.42.04-.6.13-.18.08-.33.2-.46.36-.13.16-.23.35-.3.58-.07.22-.11.48-.11.76v3.05zm6.9-3.27l-.01-.07c-.02-.24-.07-.45-.14-.64-.08-.19-.18-.36-.31-.5s-.29-.25-.47-.33c-.18-.08-.39-.12-.63-.12-.25 0-.48.04-.68.13-.2.08-.38.2-.52.35-.15.15-.26.32-.35.52-.09.2-.15.41-.18.64h3.3zm.71 2.65c-.3.25-.63.44-.99.56-.37.12-.78.17-1.23.17-.44 0-.82-.07-1.16-.21-.34-.15-.63-.34-.87-.59-.24-.26-.41-.56-.54-.91-.13-.35-.19-.74-.19-1.16 0-.39.06-.77.18-1.12.12-.35.3-.66.53-.92.23-.26.52-.47.85-.63.34-.15.72-.23 1.15-.23.42 0 .79.07 1.1.21.31.13.57.32.77.57.2.24.35.53.45.86.1.33.15.69.15 1.08 0 .04 0 .08-.01.13 0 .05 0 .1-.01.14h-4.23l.01.24c.02.27.08.51.16.73.09.227.21.42.36.58.15.16.34.287.56.37.22.09.47.13.76.13.38 0 .72-.06 1.04-.2.31-.13.6-.32.85-.564l.27.73z" fill="#2C2C2C"/><g filter="url(#h)" transform="rotate(180 117.5 42.5)" fill="#FFF"><rect x="15.357" width="137.643" height="34" rx="17"/><path d="M1.932 29.218l15.89-10.95 3.4 10.47"/></g><path d="M104.103 64.387c.157.122.326.217.505.285.18.068.376.102.59.102.237 0 .442-.05.615-.148.174-.098.317-.235.43-.41.113-.176.197-.382.253-.618.055-.236.083-.494.083-.774v-5.2h.92v5.14c0 .456-.06.858-.16 1.207-.11.35-.27.65-.47.88-.2.24-.45.42-.73.54-.29.12-.62.19-.98.19-.28 0-.53-.05-.75-.15-.22-.09-.42-.23-.59-.41l.27-.62zm9.254-2.212l-.005-.076c-.018-.24-.064-.45-.137-.64-.074-.2-.175-.36-.304-.5-.12-.14-.28-.25-.47-.33-.18-.08-.39-.12-.62-.12-.25 0-.47.04-.67.13-.2.09-.37.21-.52.36-.14.15-.26.32-.35.52-.09.2-.15.41-.18.64h3.27zm.715 2.653c-.298.258-.627.446-.99.564-.36.118-.77.177-1.23.177-.432 0-.82-.08-1.16-.22-.34-.14-.626-.34-.86-.59-.235-.26-.415-.56-.538-.91-.124-.35-.185-.74-.185-1.16 0-.4.06-.77.18-1.12.12-.35.3-.66.53-.93.23-.27.51-.48.85-.63.33-.16.72-.23 1.15-.23.42 0 .79.07 1.1.2.31.14.57.33.77.57.2.24.35.53.45.86.09.33.14.69.14 1.08v.14l-.01.14h-4.23l.01.24c.02.27.07.51.16.73.08.22.2.41.36.57.15.16.34.28.56.37.22.08.47.13.75.13.38 0 .72-.07 1.04-.2.31-.13.59-.32.84-.57l.27.73zm5.67 2.91h-.88v-6.364c0-.075 0-.167-.002-.276l-.008-.358c-.004-.128-.008-.262-.014-.4-.005-.138-.01-.273-.018-.405h.897l.026.784c.226-.31.497-.54.814-.69.317-.16.663-.23 1.04-.23.433 0 .808.07 1.125.22.317.15.58.35.787.61.2.25.36.55.46.89.1.34.15.7.15 1.08 0 .38-.06.76-.16 1.11-.11.35-.27.67-.48.94-.21.27-.48.49-.79.65-.32.16-.69.24-1.11.24-.77 0-1.39-.29-1.85-.85v3.02zm0-4.946c0 .297.04.572.114.825.075.252.186.47.33.655.146.184.325.328.54.432.215.104.462.156.742.156.3 0 .56-.06.776-.183.216-.12.394-.284.53-.488.14-.21.24-.44.308-.71.066-.27.1-.55.1-.84 0-.27-.03-.54-.087-.79-.057-.26-.15-.49-.282-.68-.13-.2-.303-.36-.518-.48-.215-.12-.48-.18-.795-.18-.33 0-.606.06-.83.18-.224.12-.405.29-.543.5-.137.21-.236.45-.295.72-.06.27-.09.56-.09.86zm9.788-.617l-.006-.076c-.018-.24-.063-.45-.137-.64-.073-.2-.174-.36-.303-.5-.13-.14-.286-.25-.47-.33-.185-.08-.393-.12-.626-.12-.25 0-.476.04-.677.13-.2.09-.37.21-.51.36s-.26.32-.35.52c-.09.2-.15.41-.18.64h3.27zm.714 2.653c-.297.258-.627.446-.988.564-.362.118-.772.177-1.23.177-.434 0-.82-.08-1.16-.22-.34-.14-.628-.34-.863-.59-.234-.26-.413-.56-.537-.91-.123-.35-.185-.74-.185-1.16 0-.4.07-.77.19-1.12.12-.35.3-.66.53-.93.24-.27.52-.48.86-.63.34-.16.72-.23 1.15-.23.43 0 .79.07 1.1.2.32.14.57.33.77.57.2.24.35.53.45.86.1.33.15.69.15 1.08v.14l-.01.14h-4.22l.02.24c.03.27.08.51.17.73.09.22.21.41.37.57.16.16.34.28.57.37.22.08.47.13.76.13.38 0 .73-.07 1.04-.2.32-.13.6-.32.85-.57l.28.73zm5.435-4.893h.88v4.19c0 .236 0 .458.01.668 0 .21.01.427.03.653h-.92l-.02-.726c-.42.566-1.02.85-1.82.85-.27 0-.51-.032-.72-.095-.21-.063-.39-.148-.54-.255-.15-.108-.28-.235-.38-.38-.11-.148-.19-.306-.25-.474-.06-.168-.11-.343-.14-.524-.03-.18-.04-.36-.04-.54v-3.367h.88v3.367c-.01.512.1.9.32 1.163s.57.395 1.05.395c.26 0 .48-.046.68-.14.2-.093.37-.22.51-.38.14-.162.24-.35.31-.562.07-.213.1-.438.1-.674v-3.17zm4.07 2.75l-2.05-2.75h1.09l1.52 2.213 1.57-2.213h.96l-2.03 2.728 2.1 2.783h-1.08l-1.6-2.246-1.62 2.246h-1.02l2.15-2.76zm6.64-2.75h.97l1.51 3.706.09.25c.03.1.07.21.1.31.04.12.08.25.12.38.03-.13.07-.25.11-.37l.09-.3c.03-.1.06-.19.09-.25l1.48-3.7h.95l-2.33 5.51h-.9l-2.31-5.51zm8.9-.135c.46 0 .86.076 1.21.226.35.15.64.356.87.618.23.26.41.567.52.918.12.35.17.727.17 1.128 0 .387-.06.755-.19 1.104-.12.35-.31.655-.54.918-.24.264-.54.472-.89.626-.35.154-.76.23-1.21.23-.46 0-.87-.074-1.22-.225-.35-.15-.65-.354-.89-.612-.24-.25-.42-.56-.54-.91-.13-.34-.19-.72-.19-1.12 0-.39.06-.77.19-1.12s.31-.66.55-.92c.24-.26.54-.47.89-.62.35-.15.76-.23 1.22-.23zm1.85 2.9c0-.293-.04-.572-.12-.837-.08-.265-.19-.497-.35-.696-.16-.198-.35-.356-.59-.472-.24-.117-.52-.175-.84-.175-.31 0-.59.06-.82.18-.24.12-.43.28-.59.484-.16.202-.28.435-.36.7-.08.265-.12.54-.12.828 0 .286.04.558.12.816.08.258.2.486.36.685.16.2.36.356.6.472.24.117.51.175.83.175.31 0 .59-.06.82-.177.23-.118.43-.277.58-.476.16-.198.27-.427.35-.687.07-.26.11-.533.11-.82zm6.17-2.765h.88v4.858c0 .21.02.427.03.653h-.92l-.02-.726c-.42.566-1.02.85-1.82.85-.27 0-.51-.032-.72-.095-.21-.063-.39-.148-.54-.255-.15-.108-.28-.235-.38-.38-.1-.148-.18-.306-.25-.474-.06-.168-.1-.343-.13-.524-.03-.18-.04-.36-.04-.54v-3.367h.89v3.367c-.01.512.1.9.32 1.163s.57.395 1.05.395c.25 0 .48-.046.68-.14.2-.093.37-.22.51-.38.14-.162.24-.35.31-.562.07-.213.11-.438.11-.674v-3.17zm6.06.96c-.19-.13-.43-.227-.7-.286-.28-.06-.56-.09-.85-.09-.17 0-.32.01-.46.05s-.26.08-.37.15c-.1.06-.18.14-.24.24-.06.09-.09.2-.09.32s.03.23.09.32.14.16.25.23c.1.06.23.12.37.17.14.05.29.1.44.15l.46.13c.16.05.32.1.48.16.16.06.31.13.46.22.14.08.27.18.39.3.11.11.2.24.27.4.06.15.1.33.1.53 0 .28-.07.52-.2.72-.13.2-.3.37-.51.51-.21.13-.46.24-.73.3-.28.07-.56.1-.84.1-.19 0-.38-.02-.57-.04-.19-.03-.36-.06-.54-.11-.17-.05-.33-.12-.47-.2-.15-.08-.27-.18-.37-.3l.23-.73c.09.11.21.21.34.29.13.08.27.15.42.2.15.05.3.09.46.11.16.02.31.03.46.03.2 0 .39-.02.55-.05.17-.04.31-.09.44-.17.12-.07.22-.16.29-.27.07-.11.1-.24.1-.38 0-.17-.04-.3-.12-.4-.08-.1-.19-.19-.33-.26s-.31-.14-.5-.19l-.63-.19c-.27-.09-.51-.18-.73-.28-.22-.1-.4-.21-.55-.33-.15-.13-.27-.27-.35-.44-.08-.17-.12-.37-.12-.6 0-.26.06-.48.17-.67.11-.19.27-.35.46-.47s.4-.22.64-.28c.24-.06.49-.09.74-.09.37 0 .71.03 1.02.1.31.07.58.19.8.36l-.23.62zm6.59 4.55h-.89V60.51H174l-.006-.575h1.08l.01-.602c.007-.29.036-.558.09-.805.053-.248.14-.46.263-.64s.283-.32.485-.42c.2-.103.455-.154.76-.154.074 0 .142.002.203.008.06.005.12.013.176.024.06.01.11.023.17.037.06.015.12.03.18.043l.01.693c-.07-.03-.16-.05-.27-.07-.11-.02-.21-.02-.32-.02-.18 0-.33.02-.44.07-.11.05-.19.12-.26.22-.06.1-.1.22-.12.36-.02.14-.03.31-.03.5v.73h1.33l.01.57h-1.33v4.93zm4.69-5.645c.22 0 .43.02.62.062.18.04.36.1.51.175.16.075.3.168.43.28.13.11.25.235.37.375l.03-.757h.88l-.02 1.36v4.15h-.89l.01-.773c-.09.115-.19.227-.33.336-.13.11-.28.205-.45.287-.17.082-.35.15-.55.2-.2.05-.41.074-.63.074-.31 0-.59-.04-.84-.13-.25-.08-.48-.19-.67-.34-.2-.14-.37-.31-.52-.5-.14-.19-.26-.4-.36-.61-.1-.22-.17-.45-.21-.68-.05-.24-.07-.47-.07-.7 0-.36.05-.7.16-1.04.1-.34.27-.65.49-.91.22-.27.49-.48.82-.64.33-.16.72-.24 1.16-.24zm.1 5.06c.25 0 .49-.05.71-.153.22-.102.41-.252.58-.45.16-.2.3-.447.4-.742.09-.296.14-.637.15-1.024 0-.29-.05-.55-.13-.79-.09-.24-.22-.44-.38-.62-.16-.17-.36-.31-.59-.41-.24-.09-.49-.14-.78-.14-.22 0-.42.03-.59.09-.18.06-.33.14-.47.25-.14.11-.25.23-.36.37-.1.14-.18.29-.25.45-.07.16-.11.33-.14.5-.03.17-.05.34-.05.51 0 .17.01.34.03.51.02.18.06.34.12.51.05.16.12.31.22.45.09.15.2.27.34.38.14.11.3.19.49.25.19.07.42.1.67.1zm5.22-7.267v.832h-.82v-.832h.82zm-.87 2.342h.89v5.51h-.89v-5.51zm3.59 5.51h-.89V61.26c0-.223-.01-.45-.01-.674l-.02-.65h.88l.03.832c.15-.304.35-.54.61-.71.26-.167.55-.25.86-.25.21 0 .4.02.58.063l.01.84c-.07-.04-.16-.07-.27-.09-.11-.02-.22-.03-.35-.03-.22 0-.41.04-.59.13s-.34.21-.46.37c-.13.16-.22.35-.29.57-.07.23-.11.48-.11.76v3.05zm6.89-3.27l-.01-.076c-.02-.24-.06-.45-.14-.64-.08-.2-.18-.36-.31-.5s-.29-.25-.47-.33c-.19-.08-.4-.12-.63-.12-.25 0-.48.04-.68.13-.2.09-.38.21-.52.36-.15.15-.27.32-.36.52-.09.2-.15.41-.18.64h3.27zm.71 2.653c-.3.258-.63.446-.99.564-.36.118-.77.177-1.23.177-.43 0-.82-.08-1.16-.22-.34-.14-.63-.34-.86-.59-.24-.26-.42-.56-.54-.91-.13-.35-.19-.74-.19-1.16 0-.4.06-.77.18-1.12.12-.35.3-.66.53-.93.23-.27.51-.48.85-.63.33-.16.72-.23 1.15-.23.42 0 .79.07 1.1.2.31.14.57.33.77.57.2.24.35.53.45.86.1.33.14.69.14 1.08v.14l-.01.14h-4.22l.01.24c.02.27.07.51.16.73.09.22.21.41.36.57.15.16.34.28.56.37.22.08.47.13.75.13.38 0 .72-.07 1.04-.2.31-.13.6-.32.85-.57l.27.73zm-97.6 7.107h.88v4.19c0 .236 0 .458.01.668 0 .21.01.427.03.653h-.91l-.01-.726c-.42.566-1.02.85-1.82.85-.27 0-.51-.032-.72-.095-.21-.063-.39-.148-.54-.255-.15-.108-.28-.235-.38-.38-.1-.148-.19-.306-.25-.474-.06-.168-.1-.343-.13-.524-.02-.18-.04-.36-.04-.54v-3.367h.89v3.367c0 .512.11.9.33 1.163.23.263.57.395 1.05.395.26 0 .49-.046.69-.14.2-.093.37-.22.51-.38.14-.162.25-.35.32-.562.07-.213.1-.438.1-.674v-3.17zm3.61 5.51h-.89V73.26c0-.162-.01-.324-.01-.484l-.01-.427c-.01-.15-.02-.28-.02-.42h.9l.02.76c.22-.31.48-.53.78-.68.3-.15.66-.22 1.07-.22.4 0 .74.06 1 .2.26.13.47.31.62.55.16.24.26.52.32.85.06.33.09.69.09 1.08v2.95h-.88v-2.85c0-.31-.01-.6-.04-.85-.02-.26-.08-.48-.17-.66-.09-.18-.22-.32-.39-.42-.17-.1-.4-.15-.69-.15-.26 0-.5.05-.71.15-.2.1-.38.23-.52.37s-.25.3-.33.46c-.08.16-.12.3-.12.43v3.5zm9.61-3.27l-.01-.076c-.02-.24-.07-.45-.14-.64-.07-.2-.17-.36-.3-.5-.13-.14-.28-.25-.47-.33-.18-.08-.39-.12-.62-.12-.25 0-.47.04-.67.13-.2.09-.37.21-.52.36-.14.15-.26.32-.35.52-.09.2-.15.41-.18.64h3.27zm.71 2.653c-.3.258-.63.446-.99.564-.37.118-.78.177-1.23.177-.44 0-.82-.08-1.16-.22-.34-.14-.63-.34-.87-.59-.24-.26-.42-.56-.54-.91-.12-.35-.18-.74-.18-1.16 0-.4.06-.77.18-1.12.12-.35.3-.66.53-.93.24-.27.52-.48.86-.63.34-.16.72-.23 1.15-.23.43 0 .79.07 1.1.2.32.14.57.33.77.57.2.24.35.53.45.86.1.33.15.69.15 1.08v.28h-4.23l.01.24c.02.27.08.51.16.73.08.22.2.41.36.57.15.16.34.28.56.37.22.08.47.13.75.13.38 0 .72-.07 1.04-.2.31-.13.59-.32.85-.57l.27.73zm7.27-5.028c.46 0 .86.076 1.21.226.35.15.64.356.87.618.23.26.4.567.52.918.11.35.17.727.17 1.128 0 .387-.06.755-.19 1.104-.13.35-.31.655-.55.918-.24.264-.54.472-.89.626-.35.154-.75.23-1.21.23-.46 0-.87-.074-1.22-.225-.35-.15-.65-.354-.89-.612-.24-.25-.42-.56-.54-.91-.13-.34-.19-.72-.19-1.12 0-.39.06-.77.19-1.12.13-.35.31-.66.55-.92.24-.26.54-.47.89-.62.36-.15.76-.23 1.22-.23zm1.85 2.9c0-.293-.04-.572-.11-.837-.08-.265-.19-.497-.35-.696-.16-.198-.35-.356-.59-.472-.23-.117-.51-.175-.83-.175-.31 0-.58.06-.82.18s-.43.28-.59.484c-.16.202-.28.435-.36.7-.08.265-.12.54-.12.828 0 .286.04.558.12.816.08.258.2.486.36.685.16.2.36.356.6.472.24.117.52.175.84.175.32 0 .59-.06.82-.177.24-.118.43-.277.58-.476.16-.198.27-.427.35-.687.08-.26.12-.533.12-.82zm3.47 2.746h-.89V72.51h-1.08l-.01-.575h1.08l.01-.602c0-.29.03-.558.09-.805.05-.248.14-.46.26-.64s.28-.32.49-.42c.2-.103.45-.154.76-.154.07 0 .14.002.2.008.06.005.12.013.17.024l.17.037c.05.015.12.03.18.043l.01.693c-.07-.03-.16-.05-.27-.07-.11-.02-.22-.02-.32-.02-.18 0-.33.02-.45.07s-.2.12-.26.22-.11.22-.13.36c-.03.14-.04.31-.04.5l-.01.73h1.32l.01.57h-1.33v4.93zm3.77 0h-.89V72.51h-1.08l-.01-.575h1.08l.01-.602c0-.29.03-.558.08-.805.05-.248.14-.46.26-.64s.28-.32.48-.42c.2-.103.45-.154.76-.154.07 0 .14.002.2.008.06.005.12.013.18.024.06.01.12.023.17.037.06.015.12.03.19.043l.01.693c-.07-.03-.16-.05-.27-.07-.11-.02-.21-.02-.32-.02-.18 0-.33.02-.44.07-.11.05-.2.12-.26.22s-.1.22-.13.36c-.02.14-.03.31-.03.5v.73h1.33l.01.57H129v4.93zm3.34 0h-.89V73.26c0-.224-.01-.45-.01-.675l-.02-.65h.88l.03.832c.15-.304.35-.54.61-.71.26-.167.54-.25.86-.25.2 0 .4.02.58.063l.01.833c-.08-.04-.17-.07-.28-.094-.11-.03-.22-.04-.34-.04-.22 0-.41.04-.59.12-.18.08-.33.2-.46.36-.13.15-.22.35-.29.57-.07.22-.11.48-.11.76v3.05zm6.89-3.27l-.01-.077c-.02-.24-.07-.45-.14-.64-.08-.2-.18-.36-.31-.5s-.29-.25-.47-.33c-.19-.08-.4-.12-.63-.12-.25 0-.48.04-.68.13-.2.09-.37.21-.52.36-.15.15-.27.32-.36.52-.09.2-.15.41-.18.64h3.27zm.71 2.652c-.3.258-.63.446-.99.564-.36.118-.77.177-1.23.177-.43 0-.82-.08-1.16-.22-.34-.14-.63-.34-.86-.59-.24-.26-.42-.56-.54-.91-.13-.35-.19-.74-.19-1.16 0-.4.06-.77.18-1.12.12-.35.3-.66.53-.93.23-.27.51-.48.85-.63.33-.16.72-.23 1.15-.23.42 0 .79.07 1.1.2.31.14.57.33.77.57.2.24.35.53.44.86.1.33.14.69.14 1.08v.14l-.01.14h-4.22l.02.24c.02.27.07.51.16.73.08.22.21.41.36.57.15.16.34.28.56.37.22.08.47.13.76.13.38 0 .73-.07 1.04-.2.32-.13.6-.32.85-.57l.27.73zM147 71.8c.22 0 .43.02.61.062.18.04.35.1.51.175.155.075.3.168.433.28.132.11.256.235.37.375l.033-.757h.872l-.02 1.36v4.15h-.89l.01-.773c-.086.115-.194.227-.325.336-.13.11-.28.205-.44.287-.17.082-.35.15-.55.2-.2.05-.41.074-.628.074-.31 0-.586-.04-.84-.13-.25-.08-.47-.19-.67-.34-.195-.14-.366-.31-.51-.5-.146-.19-.265-.4-.36-.61-.09-.22-.16-.45-.21-.68-.044-.24-.07-.47-.07-.7 0-.36.057-.7.166-1.04.11-.34.28-.65.5-.91.22-.27.5-.48.83-.64.33-.16.72-.24 1.16-.24zm.1 5.06c.25 0 .48-.05.7-.153.22-.102.41-.252.58-.45.16-.2.3-.447.39-.742.1-.296.15-.637.154-1.024 0-.29-.04-.55-.13-.79s-.21-.44-.372-.62c-.16-.17-.354-.31-.584-.41-.23-.09-.49-.14-.78-.14-.214 0-.41.03-.59.09-.17.06-.33.14-.464.25-.138.11-.256.23-.356.37-.1.14-.18.29-.243.45-.065.16-.11.33-.143.5-.03.17-.046.34-.046.51 0 .17.01.34.033.51.02.18.06.34.11.51.05.16.13.31.22.45.09.15.21.27.35.38.14.11.31.19.5.25.19.07.41.1.67.1zm3.53-4.925h.97l1.51 3.706c.02.07.05.15.09.25.03.1.07.21.1.31.04.12.07.25.11.38.036-.13.073-.25.113-.37l.094-.3c.03-.1.06-.19.09-.25l1.48-3.7h.95l-2.323 5.51h-.9l-2.304-5.51zm10.43 2.24l-.01-.076c-.02-.24-.067-.45-.14-.64-.07-.2-.175-.36-.3-.5-.13-.14-.29-.25-.47-.33-.19-.08-.4-.12-.63-.12-.25 0-.477.04-.68.13-.2.09-.373.21-.52.36-.145.15-.262.32-.352.52-.09.2-.15.41-.18.64h3.27zm.71 2.653c-.3.258-.63.446-.99.564-.36.118-.77.177-1.23.177-.436 0-.82-.08-1.16-.22-.34-.14-.63-.34-.865-.59-.237-.26-.416-.56-.54-.91-.12-.35-.18-.74-.18-1.16 0-.4.06-.77.18-1.12.12-.35.3-.66.53-.93.234-.27.52-.48.853-.63.336-.16.72-.23 1.15-.23.42 0 .79.07 1.1.2.31.14.57.33.77.57.2.24.35.53.45.86.096.33.146.69.146 1.08 0 .04 0 .08-.006.14 0 .05 0 .1-.01.14h-4.22l.016.24c.02.27.08.51.167.73.09.22.21.41.36.57.15.16.34.28.56.37.22.08.47.13.76.13.38 0 .73-.07 1.05-.2.32-.13.6-.32.85-.57l.27.73zm5.45-3.685c-.17-.215-.38-.372-.63-.472-.25-.1-.51-.15-.79-.15-.3 0-.56.06-.795.18s-.43.27-.597.47c-.16.2-.286.43-.37.7-.084.27-.13.56-.13.86 0 .3.04.59.116.85.076.27.19.49.344.69.15.2.35.35.583.46.24.11.52.17.84.17.61 0 1.15-.2 1.63-.62l.25.74c-.26.21-.55.36-.88.45-.32.09-.68.14-1.07.14-.45 0-.85-.07-1.19-.22-.35-.14-.63-.35-.86-.6-.23-.26-.4-.56-.51-.9-.11-.35-.17-.71-.17-1.1 0-.4.06-.78.18-1.14.12-.35.3-.67.53-.93.24-.26.52-.47.86-.63.34-.15.73-.23 1.17-.23.44 0 .82.07 1.14.2.33.14.58.32.76.56l-.4.58zm5.884 4.303h-.886V73.26c0-.224-.004-.45-.01-.675l-.02-.65h.884l.03.832c.15-.304.354-.54.61-.71.26-.167.548-.25.86-.25.21 0 .4.02.58.063l.01.833c-.07-.04-.163-.07-.27-.094-.106-.03-.22-.04-.342-.04-.214 0-.41.04-.59.12-.18.08-.33.2-.456.36-.125.15-.22.35-.29.57-.07.22-.107.48-.107.76v3.05zm6.897-3.27V74.1c-.02-.24-.06-.45-.13-.64-.07-.2-.17-.36-.3-.5-.13-.14-.28-.25-.47-.33-.18-.08-.39-.12-.62-.12-.25 0-.48.04-.68.13-.2.09-.38.21-.52.36-.15.15-.27.32-.36.52-.09.2-.15.41-.18.64H180zm.72 2.652c-.3.258-.63.446-.99.564-.36.118-.77.177-1.23.177-.43 0-.82-.08-1.16-.22-.34-.14-.63-.34-.86-.59-.23-.26-.41-.56-.54-.91-.12-.35-.18-.74-.18-1.16 0-.4.06-.77.18-1.12.12-.35.3-.66.53-.93.23-.27.52-.48.85-.63.34-.16.72-.23 1.15-.23.42 0 .79.07 1.1.2.31.14.57.33.77.57.2.24.35.53.45.86.1.33.15.69.15 1.08v.14c0 .05-.01.1-.01.14h-4.23l.02.24c.02.27.08.51.17.73.09.22.21.41.36.57.16.16.34.28.56.37.22.08.47.13.76.13.38 0 .73-.07 1.05-.2.32-.13.6-.32.85-.57l.28.73zm2.46 2.91h-.88v-6.64c0-.11 0-.23-.01-.358l-.01-.4-.02-.405h.9l.03.784c.23-.31.5-.54.82-.69.32-.16.67-.23 1.04-.23.44 0 .81.07 1.13.22.31.15.58.35.78.61.21.25.36.55.47.89.1.34.15.7.15 1.08 0 .38-.05.76-.15 1.11-.11.35-.26.67-.47.94-.21.27-.47.49-.79.65-.31.16-.68.24-1.11.24-.77 0-1.39-.29-1.85-.85v3.02zm0-4.946c0 .297.04.572.11.825.08.252.19.47.33.655.15.184.33.328.54.432.22.104.46.156.74.156.3 0 .56-.06.78-.183.22-.12.4-.284.53-.488.14-.21.24-.44.31-.71.07-.27.1-.55.1-.84 0-.27-.03-.54-.08-.79-.06-.26-.15-.49-.28-.68-.13-.2-.3-.36-.51-.48-.21-.12-.48-.18-.79-.18-.33 0-.6.06-.83.18-.22.12-.4.29-.54.5-.13.21-.23.45-.29.72-.06.27-.08.56-.08.86zm6.7 2.654H189V73.26c0-.224-.003-.45-.01-.675l-.022-.65h.886l.03.832c.15-.304.354-.54.612-.71.254-.167.54-.25.855-.25.21 0 .4.02.58.063l.01.833c-.07-.04-.16-.07-.27-.094-.1-.03-.22-.04-.34-.04-.21 0-.41.04-.59.12-.18.08-.33.2-.46.36-.12.15-.22.35-.29.57-.07.22-.1.48-.1.76v3.05zm3.94-7.853v.832h-.8v-.832h.82zm-.86 2.342h.89v5.51h-.88v-5.51zm6.05.96c-.19-.13-.42-.227-.7-.286-.27-.06-.55-.09-.85-.09-.16 0-.31.01-.45.05s-.26.08-.36.15c-.1.06-.18.14-.24.24-.06.09-.09.2-.09.32s.03.23.09.32.14.16.25.23c.11.06.23.12.37.17.14.05.29.1.45.15l.46.13c.16.05.33.1.49.16.16.06.32.13.46.22.15.08.28.18.39.3.11.11.2.24.27.4.07.15.1.33.1.53 0 .28-.06.52-.19.72-.13.2-.3.37-.51.51-.21.13-.45.24-.72.3-.27.07-.55.1-.84.1-.19 0-.37-.02-.56-.04-.18-.03-.36-.06-.53-.11-.17-.05-.33-.12-.47-.2-.15-.08-.27-.18-.38-.3l.24-.73c.1.11.21.21.34.29.13.08.27.15.42.2.15.05.3.09.46.11.15.02.31.03.46.03.2 0 .38-.02.55-.05.17-.04.32-.09.44-.17.13-.07.22-.16.29-.27.07-.11.11-.24.11-.38 0-.17-.04-.3-.12-.4-.08-.1-.19-.19-.32-.26-.14-.07-.3-.14-.5-.19-.19-.06-.4-.12-.63-.19-.27-.09-.51-.18-.73-.28-.21-.1-.4-.21-.55-.33-.15-.13-.26-.27-.34-.44-.08-.17-.12-.37-.12-.6 0-.26.05-.48.17-.67.11-.19.27-.35.46-.47s.4-.22.64-.28c.24-.06.48-.09.74-.09.36 0 .71.03 1.02.1.31.07.58.19.79.36l-.23.62zm6.03 1.28V74.1c-.02-.24-.07-.45-.14-.64-.07-.2-.17-.36-.3-.5-.13-.14-.28-.25-.47-.33-.18-.08-.39-.12-.62-.12-.25 0-.48.04-.68.13-.2.09-.37.21-.52.36-.14.15-.26.32-.35.52-.09.2-.15.41-.18.64h3.27zm.72 2.653c-.3.258-.63.446-.99.564-.36.118-.77.177-1.23.177-.43 0-.82-.08-1.16-.22-.34-.14-.63-.34-.86-.59-.23-.26-.41-.56-.53-.91-.13-.35-.19-.74-.19-1.16 0-.4.06-.77.18-1.12.12-.35.3-.66.53-.93.23-.27.52-.48.85-.63.34-.16.72-.23 1.15-.23.43 0 .79.07 1.1.2.31.14.57.33.77.57.2.24.35.53.45.86.1.33.15.69.15 1.08v.14c0 .05 0 .1-.01.14h-4.22l.02.24c.02.27.07.51.16.73.09.22.21.41.36.57.16.16.35.28.57.37.22.08.47.13.75.13.38 0 .73-.07 1.05-.2.32-.13.6-.32.85-.57l.27.73z" fill="#2C2C2C"/></g></svg>