<?xml version="1.0" encoding="utf-8"?>
<!-- Generator: Adobe Illustrator 16.0.0, SVG Export Plug-In . SVG Version: 6.00 Build 0)  -->
<!DOCTYPE svg PUBLIC "-//W3C//DTD SVG 1.1//EN" "http://www.w3.org/Graphics/SVG/1.1/DTD/svg11.dtd">
<svg version="1.1" id="Calque_1" xmlns="http://www.w3.org/2000/svg" xmlns:xlink="http://www.w3.org/1999/xlink" x="0px" y="0px"
	 width="1046px" height="638px" viewBox="0 0 1046 638" enable-background="new 0 0 1046 638" xml:space="preserve">
<path fill-rule="evenodd" clip-rule="evenodd" fill="#4E6B87" d="M353.526,437.235c-4.804,1.401-13.471,9.764-19.256-1.131
	c6.041-4.091,9.96-8.909,5.656-16.538c2.394-1.656,5.647-3.715,2.366-6.578c-5.106-4.456-10.745-0.303-15.066,1.658
	c-4.773,2.168-2.3,6.296,1.42,8.805c0.081,0.954,0.162,1.908,0.242,2.862c-5.372,1.633-11.914-1.518-17.376,4.644
	c5.1,1.503,9.458,2.787,13.814,4.071c-2.686,3.977-4.635,8.305-5.71,12.972c-2.807,12.172-2.526,24.58-2.602,36.956
	c-0.877,12.793,1.423,25.687-1.21,38.421c-6.718,0.055-13.436,0.106-20.153,0.159c-0.064-31.793,0.064-63.59-0.298-95.381
	c-0.125-11.078,4.02-19.721,11.563-27.433c3.701-3.785,8.994-6.494,9.951-12.523c0.695-0.025,1.389-0.05,2.084-0.077
	c22.145-0.006,44.292-0.076,66.438-0.006c35.291,0.114,70.582,0.321,105.873,0.486c2.796,17.259,4.84,19.28,18.895,18.671
	c0.076,38.738,0.152,77.477,0.229,116.218c-17.769,0.156-35.538,0.31-53.305,0.465c-0.221-0.602-0.516-1.186-0.652-1.806
	c-4.442-20.164,2.359-42.108-9.65-61.091c-0.125-0.198,0.095-0.617,0.154-0.935c2.607-0.232,5.228-0.371,5.659-3.864
	c1.702-13.788,4.604-27.632-2.533-40.884c-5.031-9.336-12.148-1.384-17.927-1.441c-5.51-0.054-1.236,5.197-0.493,8.162
	c-0.07,4.104-0.928,8.689,2.703,11.572c3.165,2.514,3.042,5.212,2.255,8.424c-5.512,4.804-5.278,13.288-11.348,17.736
	c-9.504-0.188-19.017-0.167-27.776-4.87c-1.441-0.772-3.971-1.559-4.88,0.845c-0.8,2.112,0.794,4.053,2.736,4.27
	c10.977,1.232,20.656,7.935,31.996,7.493c4.878-1.044,6.321,1.96,6.964,5.907c-1.9,2.98-3.622,6.095-5.739,8.911
	c-3.164,4.209-8.581,7.067-7.777,13.546c-0.595,0.558-1.25,1.143-0.231,1.83c0.105,0.073,0.722-0.612,1.102-0.947
	c6.869-2.084,6.138-11.68,13.303-13.468c0.105,13.476,0.208,26.951,0.313,40.429c-31.028,0.062-62.055,0.121-93.082,0.179
	c-1.251-13.137,2.219-26.079,1.63-39.188c-1.464-8.457-0.343-14.238,10.24-16.1c10.538-1.854,12.099-8.221,20.506-14.598"/>
<path fill-rule="evenodd" clip-rule="evenodd" fill="#E8ECF2" d="M378.219,220.878c0.571,2.423,1.058,4.824-1.376,6.62
	c-11.282,1.13-21.656,6.642-32.763,7.727c-23.411,2.281-37.238,13.857-40.364,37.479c-0.126,0.949-0.27,1.896-0.404,2.844
	c-3.555-3.279-1.629-7.42-1.762-11.238c3.725-5.004,4.583-11.156,6.521-16.834c13.975-40.947,27.767-81.958,41.504-122.984
	c0.66-1.974,2.734-4.244,1.055-6.252c-1.807-2.157-4.148-0.22-6.204,0.37c-7.997,2.292-15.981,4.626-23.97,6.943
	c-9.074-2.176-16.337-7.569-22.633-13.976c-6.259-6.365-5.074-13.117,0.699-19.698c9.054-10.322,20.585-10.747,32.802-8.948
	c2.214,0.325,4.581,0.611,6.525,1.603c7.594,3.877,11.88,2.588,16.188-5.77c4.277-8.298,13.813-12.621,22.224-16.106
	c21.403-8.873,43.564-15.432,67.127-15.188c22.917,0.237,38.505,10.16,43.674,33.819c1.198,5.489,3.386,4.362,6.497,2.684
	c12.318-6.641,25.623-7.142,39.278-7.773c17.266-0.794,31.188,18.613,31.561,32.033c0.341,12.297-8.952,19.135-18.599,23.71
	c-18.425,8.739-38.298,12.632-58.585,14.227c-17.254,1.356-34.497,2.972-51.778,3.78c-22.683,1.061-44.61-3.979-66.401-9.563
	c-4.501-6.586-6.147-15.038-13.271-21.11c-4.857,14.237-9.502,27.543-13.94,40.922c-8.48,25.563-18.061,50.764-25.146,76.783
	c-0.219,0.39-0.442,0.776-0.665,1.162c0.408-0.204,0.812-0.408,1.22-0.613C337.956,233.418,358.419,228.368,378.219,220.878z"/>
<path fill-rule="evenodd" clip-rule="evenodd" fill="#8298AE" d="M510.387,523.491c-0.077-38.741-0.153-77.479-0.226-116.216
	c4.712-5.59,7.109-11.95,6.424-19.336c24.438-0.045,48.879-0.09,73.32-0.135c22.563,0.073,45.148,0.813,67.679-0.006
	c15.996-0.579,29.889,3.229,42.116,13.4c-0.032,6.8-0.063,13.6-0.096,20.399c-1.986-2.479-3.847-5.074-5.999-7.399
	c-2.05-2.216-3.704-5.903-7.659-4.207c-4.044,1.739-3.853,5.726-3.255,9.138c1.686,9.646,7.477,15.848,16.857,18.687
	c1.025,28.778,0.707,57.562,0.161,86.346c-7.909-1.346-18.099,3.004-23.262-2.041c-4.541-4.429-3.755-14.316-5.322-21.796
	c-14.714-39.513-54.872-58.116-93.514-42.287c-18.997,7.783-33.746,20.671-38.059,42.297c-3.446,3.407-4.208,7.926-4.043,12.307
	c0.356,9.295-3.835,12.473-12.709,11.19C518.732,523.244,514.528,523.577,510.387,523.491z"/>
<path fill-rule="evenodd" clip-rule="evenodd" fill="#8298AE" d="M316.867,388.199c-0.957,6.029-6.25,8.738-9.951,12.523
	c-7.543,7.712-11.688,16.354-11.563,27.433c0.363,31.791,0.234,63.588,0.298,95.381c-13.537,0.473-13.375,0.441-15.803-12.802
	c-0.654-3.564-0.696-7.592-3.699-10.427c0.626-3.456-1.165-6.243-2.581-9.108c-12.119-24.529-40.052-40.712-67.153-38.932
	c-28.248,1.856-52.643,20.804-61.813,48.01c-1.283,5.617-2.958,11.185-3.711,16.875c-0.504,3.813-0.348,6.777-5.639,6.7
	c-5.148-0.077-5.706-2.799-5.603-6.791c0.728-27.955-1.801-55.995,2.176-83.868c3.025-5.812,6.058-11.617,9.09-17.427
	c0.554-0.856,1.109-1.717,1.665-2.574c9.748-9.71,19.635-19.244,32.234-25.32c45.3,0.091,90.603,0.18,135.905,0.268
	C312.769,388.159,314.817,388.18,316.867,388.199z M225.746,421.036c0.131-8.498-8.136-17.003-16.445-16.916
	c-8.024,0.083-16.065,8.08-16.225,16.137c-0.179,9.061,7.285,16.553,16.442,16.5C218.369,436.706,225.612,429.69,225.746,421.036z"
	/>
<path fill-rule="evenodd" clip-rule="evenodd" fill="#B10101" d="M729.328,150.511c19.289-0.106,38.587-0.602,57.864-0.202
	c15.413,0.321,28.603,13.977,28.84,30.636c0.503,35.694,0.537,71.406-0.058,107.098c-0.298,17.789-14.315,30.314-31.967,30.538
	c-8.358,0.108-16.715,0.215-25.074,0.323c-9.912-0.207-19.827-0.413-29.742-0.62c0.023-27.992,0.045-55.982,0.068-83.975
	c22.012-3.247,33.355-14.701,33.07-33.394c-0.266-17.513-12.563-29.39-32.937-31.803C729.37,162.911,729.35,156.712,729.328,150.511
	z"/>
<path fill-rule="evenodd" clip-rule="evenodd" fill="#FA0404" d="M729.328,150.511c0.021,6.201,0.042,12.4,0.062,18.601
	c-19.479,3.019-31.289,15.304-31.353,32.613c-0.061,17.346,11.666,29.584,31.223,32.584c-0.023,27.993-0.045,55.982-0.07,83.975
	c-0.619,0.217-1.236,0.431-1.854,0.647c-9.164,0.006-18.329,0.011-27.494,0.016c-7.394-0.118-14.791-0.194-22.186-0.368
	c-17.943-0.431-31.522-11.658-31.965-29.381c-0.898-36.326-0.367-72.688-0.306-109.034c0.018-10.03,5.506-17.479,12.32-24.149
	c14.255-2.94,17.685-0.476,19.283,13.54c0.766,6.728,1.821,13.422,2.748,20.133c3.061-6.995,5.182-14.024,5.737-21.172
	c0.713-9.156,5.199-12.01,13.902-12.925c7.543-0.791,16.094,0.859,22.489-5.351C724.353,150.33,726.84,150.421,729.328,150.511z"/>
<path fill-rule="evenodd" clip-rule="evenodd" fill="#2E3155" d="M727.335,318.931c0.618-0.216,1.235-0.431,1.854-0.647
	c9.917,0.207,19.832,0.414,29.744,0.62c-0.015,19.053-0.033,38.105-0.049,57.161c-0.084,23.274-0.165,46.55-0.246,69.826
	c0.758,1.041,1.514,2.082,2.271,3.123c1.553,3.179-1.395,5.199-2.003,7.817c-2.57,11.057,0.15,15.625,8.877,16.137
	c7.548,0.44,17.77-3.684,21.916,1.927c3.763,5.096,0.895,14.827,1.693,22.436c0.947,8.988-1.803,12.159-11.46,11.812
	c-21.693-0.781-21.421-0.217-21.263,21.033c0.049,6.687,2.552,8.176,8.523,7.939c12.836-0.514,25.689-0.543,38.536-0.771
	c3.292,12.327,0.814,24.886,1.438,37.32c0.204,4.081-3.15,3.292-5.547,3.284c-24.747-0.084-49.492-0.229-74.239-0.357
	C727.367,491.371,727.352,405.15,727.335,318.931z"/>
<path fill-rule="evenodd" clip-rule="evenodd" fill="#FA0404" d="M174.816,387.869c-12.6,6.079-22.486,15.613-32.233,25.321
	c-8.336,0.794-16.983-1.654-25.008,2.387c-22.055-25.467-32.487-55.521-34.913-88.699c-1.038-14.177,1.005-28.2,2.35-42.255
	c4.272-3.581,5.393,1.356,7.337,3.017c5.945,5.09,10.753,11.578,18.56,14.506c-1.496-3.493-4.62-5.328-6.777-7.954
	c-4.552-5.546-11.977-8.669-13.921-16.398c18.333-4.758,36.739-4.896,55.208-0.901c5.873,2.145,11.75,4.29,17.627,6.437
	c0,22.344,0,44.691,0,67.994c-8.98-6.665-14.677-15.71-24.14-19.996c8.229,10.021,16.674,19.794,26.489,27.912
	C175.043,367.219,179.987,375.571,174.816,387.869z"/>
<path fill-rule="evenodd" clip-rule="evenodd" fill="#4E6B87" d="M139.156,252.762c-7.72-35.954-6.522-71.053,10.012-104.686
	c9.166,4.683,17.909,10.69,27.584,13.787c24.991,7.994,36.666,24.564,41.086,50.282c4.957,28.834,14.001,56.968,21.588,86.671
	c-15.062-7.054-28.598-13.738-42.409-19.787C177.609,270.531,159.153,259.945,139.156,252.762z"/>
<path fill-rule="evenodd" clip-rule="evenodd" fill="#34395C" d="M139.156,252.762c19.998,7.183,38.454,17.769,57.86,26.268
	c13.811,6.049,27.347,12.733,42.409,19.787c-7.587-29.704-16.631-57.837-21.588-86.671c-4.42-25.718-16.095-42.288-41.086-50.282
	c-9.675-3.097-18.418-9.104-27.584-13.787c0.486-1.787,1.208-3.409,2.982-4.305c16.567,11.304,35.178,18.403,54.581,28.665
	c-6.491-25.661-12.297-48.615-18.103-71.566c1.75-1.954,3.187-1.21,4.507,0.525c5.414,21.395,10.767,42.804,16.258,64.176
	c5.335,20.767,10.92,41.47,16.15,62.263c1.229,4.881,2.704,7.85,7.175,2.932c13.353-14.683,26.502-29.549,39.729-44.345
	c2.357,1.263,2.997,3.451,3.181,5.892c-17.799,13.055-30.435,31.037-44.894,47.266c-2,2.244-1.055,5.546-0.298,8.392
	c4.199,15.816,8.781,31.543,12.396,47.492c1.384,6.104,4.106,7.76,9.84,7.696c16.751-0.179,33.507,0.046,50.261,0.111
	c17.172,0.134,34.344,0.267,51.517,0.401c35.83-0.083,71.662-0.152,107.493-0.3c1.411-0.006,2.442,0.207,3.268,1.31
	c-11.04,10.705-11.067,10.726-1.375,22.133c12.062,14.193,24.16,28.357,36.279,42.507c1.853,2.165,3.375,4.692,6.338,5.705
	c6.14,2.1,9.025,6.825,10.134,12.913c0.685,7.386-1.712,13.746-6.424,19.336c-14.058,0.607-16.102-1.414-18.899-18.673
	c5.798-6.97,4.987-12.507-1.458-19.456c-13.32-14.357-25.553-29.733-37.971-44.907c-3.554-4.346-7.328-6.243-13.087-6.19
	c-32.47,0.29-64.949,0.423-97.416-0.008c-6.976-0.093-9.382,2.118-10.54,8.639c-3.645,20.535-7.851,40.969-11.838,61.441
	c-0.695,0.027-1.39,0.052-2.084,0.077c-2.05-0.02-4.098-0.04-6.146-0.06c3.611-19.953,6.732-40.012,11.058-59.811
	c1.909-8.74,0.286-11.147-8.804-10.999c-30.294,0.5-60.603,0.194-90.906,0.196c-2.582-3.379,0.723-4.499,2.481-5.917
	c3.901-3.153,8.004-6.056,12.389-9.333c-19.366-9.184-37.678-18.494-56.509-26.591c-13.204-5.675-25.339-13.799-39.472-17.323
	C139.677,256.714,138.262,255.109,139.156,252.762z"/>
<path fill-rule="evenodd" clip-rule="evenodd" fill="#4E6B87" d="M727.335,318.931c0.017,86.22,0.032,172.44,0.047,258.66
	c-7.056,0.126-14.131-0.006-21.164,0.464c-5.242,0.346-6.49-1.824-6.433-6.681c0.191-15.735-0.018-31.476-0.075-47.212
	c0.546-28.784,0.864-57.567-0.161-86.346c0.021-5.407,0.038-10.813,0.056-16.218c0.032-6.8,0.063-13.6,0.096-20.399
	c0.045-27.418,0.093-54.836,0.141-82.253C709.006,318.941,718.171,318.937,727.335,318.931z"/>
<path fill-rule="evenodd" clip-rule="evenodd" fill="#4E6B87" d="M659.655,500.854c10.824,33.938-4.989,66.934-36.876,76.927
	c-31.644,9.913-64.476-7.592-74.286-39.276c-3.985-12.859-1.798-25.372,0.615-38c1.69-2.683,3.329-5.406,5.086-8.05
	c7.235-10.885,16.247-19.824,28.549-24.806C612.358,455.654,647.276,469.501,659.655,500.854z M604.578,558.758
	c20.426-0.001,37.073-16.418,37.22-36.703c0.145-20.173-16.493-36.978-36.798-37.166c-20.88-0.194-37.859,16.596-37.638,37.219
	C567.584,542.529,584.064,558.758,604.578,558.758z"/>
<path fill-rule="evenodd" clip-rule="evenodd" fill="#4E6B87" d="M266.278,502.299c6.481,26.788,1.16,49.92-21.685,67.055
	c-19.165,14.379-46.168,14.827-66.239,1.75c-20.623-13.434-30.631-37.869-25.401-62.178c0.605-2.806,1.985-5.472,1.332-8.473
	c1.569-2.389,3.193-4.745,4.697-7.175c18.045-29.139,49.486-37.692,80.042-22.228C252.513,477.872,259.412,489.957,266.278,502.299z
	 M209.988,558.758c20.724,0.13,37.091-15.828,37.281-36.348c0.19-20.646-15.816-37.245-36.181-37.521
	c-21.21-0.287-37.652,15.799-37.691,36.883C173.357,542.493,189.323,558.631,209.988,558.758z"/>
<path fill-rule="evenodd" clip-rule="evenodd" fill="#8298AE" d="M758.639,445.891c0.081-23.276,0.162-46.552,0.246-69.826
	c9.73-6.558,15.157-17.044,23.063-25.29c22.303-23.252,46.738-43.126,79.053-50.397c7.558-1.699,15.426-3.796,23.403-1.572
	l-0.646,0.629c-0.556,0.552-1.113,1.106-1.672,1.659l0.092-0.111c-1.771,0.781-2.533,2.069-2.003,4.002l0.09-0.114
	c-1.414-0.053-1.997,0.726-2.043,2.042l0.103-0.105c-3.713,0.221-5.144,2.731-5.914,5.901l0.09-0.112
	c-1.77,0.783-2.412,2.132-2.006,4.004l0.09-0.116c-1.408-0.047-2.026,0.696-2.04,2.04l0.1-0.101c-2.674-0.03-3.679,1.61-3.977,3.967
	l0.096-0.108c-2.081,0.569-3.137,2.165-3.981,3.975l0.103-0.115c-2.774,2.016-5.3,4.219-5.897,7.862l0.092-0.113
	c-1.795,0.771-2.528,2.074-2.005,4.005l0.061-0.113c-4.7,0.526-6.529,3.916-7.824,7.84l0.088-0.115
	c-1.77,0.784-2.41,2.13-2.006,4.004l0.09-0.111c-3.916,0.016-5.184,2.688-5.914,5.898l0.088-0.111
	c-1.87,0.733-2.514,2.081-2.003,4.005l0.09-0.111c-4.797,0.427-6.595,3.861-7.858,7.833l0.091-0.113
	c-1.793,0.771-2.521,2.076-2.003,4.005l0.089-0.11c-4.268,2.625-7.501,0.296-10.841-2.763c1.682,5.098,1.561,9.778,1.066,14.483
	l0.096-0.108c-3.919,0.016-5.187,2.687-5.918,5.899l0.104-0.103c-0.682,0.68-1.362,1.36-2.044,2.041l0.093-0.112
	c-3.506,2.544-6.759,5.297-7.832,9.791l0.091-0.114c-1.795,0.772-2.52,2.077-2.004,4.005l0.088-0.111
	c-4.14-0.249-4.956,3.378-6.794,5.817c-3.858,4.269-9.355,7.255-10.639,13.546l-0.077,0.093c-3.775,2.218-7.181,4.735-7.667,9.586
	l-0.076,0.098c-1.951,0.595-2.411,1.93-1.856,3.763l-0.084,0.107c-1.333-0.09-1.915,0.573-1.867,1.863l-0.055,0.056
	C763.911,437.634,764.407,446.528,758.639,445.891z M813.37,363.847c0.77-0.241,1.537-0.489,2.305-0.733
	c-2.254-9.015-4.525-18.022-10.425-25.819C807.956,346.145,810.662,354.996,813.37,363.847z"/>
<path fill-rule="evenodd" clip-rule="evenodd" fill="#8298AE" d="M275.623,192.31c-0.18-2.438-0.819-4.626-3.176-5.885
	c-1.863-8.979-8.03-15.781-11.986-23.703c18.04-15.54,38.725-26.812,59.984-37.174c8-2.313,15.984-4.647,23.981-6.939
	c2.055-0.59,4.396-2.526,6.204-0.37c1.679,2.008-0.395,4.278-1.055,6.252c-13.738,41.027-27.53,82.037-41.504,122.984
	c-1.938,5.678-2.795,11.83-6.522,16.833c-3.026-2.438-3.037-6.176-4-9.472C291.333,233.61,286.102,212.041,275.623,192.31z"/>
<path fill-rule="evenodd" clip-rule="evenodd" fill="#4E6B87" d="M260.46,162.722c3.956,7.921,10.123,14.724,11.986,23.703
	c-13.227,14.792-26.376,29.658-39.729,44.341c-4.471,4.918-5.946,1.95-7.175-2.932c-5.229-20.793-10.814-41.496-16.15-62.263
	c-5.492-21.373-10.844-42.782-16.258-64.176c26.019,10.513,44.424,29.965,60.764,51.821
	C256.201,156.297,258.278,159.55,260.46,162.722z"/>
<path fill-rule="evenodd" clip-rule="evenodd" fill="#E8ECF2" d="M516.585,387.939c-1.109-6.088-3.995-10.813-10.134-12.913
	c-2.964-1.013-4.486-3.54-6.338-5.705c-12.119-14.149-24.217-28.313-36.279-42.507c-9.692-11.407-9.665-11.429,1.375-22.133
	c13.308-0.524,24.28,6.226,34.709,12.75c28.189,17.64,55.127,37.133,79.7,59.664c3.621,3.321,9.635,4.504,10.287,10.709
	C565.464,387.85,541.023,387.895,516.585,387.939z"/>
<path fill-rule="evenodd" clip-rule="evenodd" fill="#8298AE" d="M897.031,341.349c1.009,26.604-8.22,49.593-24.702,70.021
	c-22.456,0.017-44.911,0.091-67.363-0.02c-3.347-0.018-7.138,1.373-9.94-1.88c1.89-1.567,3.705-3.186,3.934-5.87l-0.088,0.111
	c1.812-0.762,2.425-2.125,2.004-4.005l-0.091,0.114c5.136-1.243,7.763-4.496,7.832-9.791l-0.093,0.112
	c1.438,0.075,2.047-0.676,2.044-2.041l-0.104,0.103c3.801-0.135,5.124-2.749,5.918-5.899l-0.096,0.108
	c4.279-3.058,8.012-6.568,9.774-11.721l-0.089,0.11c1.812-0.761,2.427-2.122,2.003-4.005l-0.091,0.113
	c4.633-0.592,6.46-3.997,7.858-7.833l-0.09,0.111c1.693-0.819,2.403-2.135,2.003-4.005l-0.088,0.111
	c3.77-0.162,5.139-2.732,5.914-5.898l-0.09,0.111c1.829-0.753,2.421-2.127,2.006-4.004l-0.088,0.115
	c3.703-0.499,6.967-2.374,10.945-2.454C869.854,342.894,883.439,342.004,897.031,341.349z"/>
<path fill-rule="evenodd" clip-rule="evenodd" fill="#8298AE" d="M378.219,220.878c-19.8,7.49-40.264,12.54-60.986,16.65
	l-0.557-0.551c7.087-26.016,16.668-51.218,25.148-76.78c4.438-13.378,9.083-26.685,13.94-40.922
	c7.124,6.073,8.77,14.524,13.271,21.11C377.89,166.556,380.668,193.418,378.219,220.878z"/>
<path fill-rule="evenodd" clip-rule="evenodd" fill="#8298AE" d="M354.448,303.671c-17.172-0.134-34.345-0.267-51.513-0.404
	c3.872-9.191-0.564-18.493,0.376-27.72c0.134-0.947,0.278-1.895,0.404-2.844c3.126-23.622,16.954-35.198,40.364-37.479
	c11.107-1.085,21.481-6.596,32.763-7.727C373.241,254.025,363.792,278.833,354.448,303.671z"/>
<path fill-rule="evenodd" clip-rule="evenodd" fill="#2E3155" d="M343.81,484.766c0.589,13.109-2.881,26.052-1.63,39.188
	c-1.012,16.67-2.022,33.335-3.034,50c-1.435,0.008-2.87,0.012-4.308,0.018c-5.029-12.717-5.548-26.184-6.625-41.491
	c-5.112,12.975-9.586,24.333-14.061,35.688c-1.455,0.609-2.912,1.218-4.369,1.832c-2.162-12.578,1.109-24.533,4.14-36.523
	c0.838-3.319,2.924-6.424,1.88-10.1c2.635-12.734,0.334-25.628,1.208-38.423C325.945,484.891,334.876,484.827,343.81,484.766z"/>
<path fill-rule="evenodd" clip-rule="evenodd" fill="#4E6B87" d="M188.627,100.87c5.806,22.952,11.612,45.906,18.103,71.566
	c-19.403-10.261-38.014-17.36-54.581-28.665C160.323,126.083,173.39,112.554,188.627,100.87z"/>
<path fill-rule="evenodd" clip-rule="evenodd" fill="#34395C" d="M659.655,500.854c-12.379-31.353-47.297-45.199-76.912-33.205
	c-12.302,4.981-21.313,13.921-28.549,24.806c-1.757,2.644-3.396,5.367-5.086,8.05c-3.184-0.057-6.37-0.111-9.555-0.169
	c4.313-21.626,19.062-34.514,38.059-42.297c38.642-15.829,78.8,2.774,93.514,42.287
	C667.303,500.502,663.479,500.679,659.655,500.854z"/>
<path fill-rule="evenodd" clip-rule="evenodd" fill="#34395C" d="M266.278,502.299c-6.867-12.342-13.765-24.427-27.254-31.248
	c-30.556-15.465-61.997-6.911-80.042,22.228c-1.504,2.43-3.127,4.786-4.697,7.175c-3.225-0.058-6.454-0.115-9.681-0.176
	c9.17-27.206,33.564-46.153,61.813-48.01c27.102-1.78,55.035,14.402,67.153,38.932c1.416,2.865,3.207,5.652,2.581,9.108
	C272.935,501.339,268.98,498.712,266.278,502.299z"/>
<path fill-rule="evenodd" clip-rule="evenodd" fill="#FA0404" d="M435.262,523.775c-0.105-13.478-0.208-26.953-0.313-40.432
	c1.649-1.494,3.638-2.756,4.86-4.542c1.571-2.291,6.737-3.567,2.602-7.934c-4.696-4.954-5.606,1.167-8.121,2.606
	c-0.643-3.947-2.086-6.951-6.964-5.907c-0.692-2.579-1.384-5.156-2.075-7.737c6.07-4.448,5.836-12.933,11.348-17.736
	c1.767-0.76,3.532-1.516,5.298-2.277c1.678,6.77,3.358,13.54,5.037,20.309c-0.059,0.317-0.28,0.736-0.154,0.935
	c12.009,18.982,5.208,40.927,9.65,61.091c0.136,0.62,0.431,1.204,0.652,1.806c-0.373,1.995,1.931,4.26-0.615,6.032
	c-6.514-0.131-13.03-0.265-19.544-0.396C436.368,527.654,435.814,525.714,435.262,523.775z"/>
<path fill-rule="evenodd" clip-rule="evenodd" fill="#4E6B87" d="M140.959,258.364c14.133,3.523,26.268,11.648,39.472,17.323
	c18.831,8.097,37.143,17.407,56.509,26.591c-4.385,3.276-8.487,6.18-12.389,9.333c-1.758,1.418-5.063,2.538-2.48,5.917
	c-1.645,0.083-3.288,0.167-4.932,0.247c0.491-1.718-0.083-2.923-1.516-4.03c-15.153-11.724-30.859-22.495-49.085-29.013
	c-1.165-0.469-2.327-0.935-3.492-1.401c-5.876-2.146-11.754-4.292-17.627-6.437C144.229,270.645,140.979,264.895,140.959,258.364z"
	/>
<path fill-rule="evenodd" clip-rule="evenodd" fill="#E8ECF2" d="M721.865,150.239c-6.396,6.21-14.946,4.561-22.489,5.351
	c-8.703,0.915-13.189,3.769-13.902,12.925c-0.556,7.148-2.677,14.177-5.737,21.172c-0.927-6.711-1.982-13.405-2.748-20.133
	c-1.599-14.016-5.028-16.479-19.283-13.54c-2.99-4.476-8.474-3.497-12.732-6.982c6.999-0.954,13.984-2.032,21.005-2.825
	c6.366-0.72,10.662-2.631,11.297-10.335c0.646-7.841,3.01-15.543,6.505-23.58c0.948,7.538,2.385,15.054,2.701,22.615
	c0.285,6.846,2.294,10.638,9.802,11.519C704.826,147.431,713.105,150.457,721.865,150.239z"/>
<path fill-rule="evenodd" clip-rule="evenodd" fill="#E8ECF2" d="M698.948,57.08c1.894,0.166,4.106-0.228,5.614,0.626
	c2.641,1.495,6.438,2.581,6.771,6.055c0.342,3.579-3.688,3.764-5.924,5.291c-1.827,1.248-3.694,2.442-5.544,3.662
	c-3.654,0.997-7.211,2.082-11.075,2.526c-18.102,2.078-36.256,1.073-54.381,1.421c0.069-0.633-0.074-1.411,0.24-1.875
	c7.832-11.52,42.509-24.495,55.91-20.88c0.768,0.209,1.294,1.306,1.931,1.986c-9.168,3.205-18.334,6.414-27.503,9.622
	C676.449,63.097,688.235,62.098,698.948,57.08z M659.709,67.559c-0.524-0.087-1.062-0.295-1.565-0.235
	c-0.942,0.116-1.008,0.584-0.121,0.885c0.47,0.159,1.066-0.039,1.599-0.123C659.674,68.079,659.679,67.757,659.709,67.559z"/>
<path fill-rule="evenodd" clip-rule="evenodd" fill="#8298AE" d="M860.582,425.724c-29.737-3.369-58.334,1.995-86.427,11.256
	c-0.003-0.004-0.45-0.462-0.45-0.462c0-1.258,0.001-2.518,0.001-3.777l0.076-0.098c5.496-0.843,8.075-4.02,7.667-9.586l0.077-0.093
	c6.333,0.346,7.67-7.888,14.577-7.722c24.321,0.584,48.659,0.386,72.988,0.483C867.223,419.879,863.826,422.737,860.582,425.724z"/>
<path fill-rule="evenodd" clip-rule="evenodd" fill="#8298AE" d="M884.403,298.805c8.364,11.853,11.709,25.266,12.278,39.537
	c-2.545,0.279-5.097,0.85-7.636,0.791c-11.974-0.267-24.095,3.045-35.912-1.353l-0.061,0.113c1.821-0.759,2.427-2.122,2.005-4.005
	l-0.092,0.113c4.57-0.667,6.285-3.478,5.897-7.862l-0.103,0.115c2.991,0.343,4.135-1.165,3.981-3.975l-0.096,0.108
	c2.774,0.129,3.747-1.547,3.977-3.967l-0.1,0.101c1.254-0.104,1.901-0.814,2.04-2.04l-0.09,0.116
	c1.827-0.753,2.421-2.127,2.006-4.004l-0.09,0.112c3.841-0.095,5.307-2.565,5.914-5.901l-0.103,0.105
	c0.681-0.681,1.362-1.361,2.043-2.042l-0.09,0.114c1.818-0.756,2.431-2.12,2.003-4.002l-0.092,0.111
	c1.359,0.257,1.65-0.564,1.672-1.659L884.403,298.805z"/>
<path fill-rule="evenodd" clip-rule="evenodd" fill="#E19B7B" d="M436.922,529.592c6.515,0.132,13.031,0.266,19.544,0.396
	c2.604,13.759,5.208,27.515,7.813,41.269c-0.365,2.026-0.726,4.058-1.09,6.087c0,0-0.361,0.098-0.363,0.103
	c-1.193-2.157-3.11-1.431-4.896-1.23c2.959-4.127,2.317-8.172,0.283-12.564c-3.052-6.596-5.63-13.411-8.93-21.385
	c-5.789,10.821-4.676,21.516-6.362,31.626c-1.365,0.694-2.731,1.387-4.097,2.078C438.859,560.483,440.759,544.921,436.922,529.592z"
	/>
<path fill-rule="evenodd" clip-rule="evenodd" fill="#4E6B87" d="M869.092,415.726c-24.329-0.098-48.667,0.101-72.988-0.483
	c-6.907-0.166-8.244,8.067-14.577,7.722c1.283-6.291,6.78-9.277,10.644-13.549c0.956,0.018,1.906,0.038,2.855,0.056
	c2.803,3.253,6.594,1.862,9.94,1.88c22.452,0.11,44.907,0.036,67.363,0.02C872.329,413.627,870.963,414.863,869.092,415.726z"/>
<path fill-rule="evenodd" clip-rule="evenodd" fill="#8298AE" d="M634.41,76.661c18.125-0.348,36.279,0.656,54.381-1.421
	c3.864-0.444,7.421-1.529,11.075-2.526c0.323,7.951-3.43,10.507-11.237,9.72c-17.851-1.805-35.765-2.997-53.651-4.452
	c-0.286-0.022-0.714-0.2-0.788-0.408C634.099,77.329,634.321,76.97,634.41,76.661z"/>
<path fill-rule="evenodd" clip-rule="evenodd" fill="#FA0404" d="M140.917,415.767c-3.032,5.81-6.065,11.615-9.09,17.427
	c-4.123-5.166-10.269-8.811-11.94-15.832C126.999,418.178,133.899,416.213,140.917,415.767z"/>
<path fill-rule="evenodd" clip-rule="evenodd" fill="#34395C" d="M853.134,337.78c11.817,4.397,23.938,1.086,35.912,1.353
	c2.539,0.059,5.091-0.512,7.636-0.791c0.115,1.003,0.234,2.006,0.35,3.007c-13.592,0.655-27.178,1.545-40.776,1.817
	c-3.979,0.08-7.242,1.955-10.945,2.454C846.604,341.696,848.434,338.307,853.134,337.78z"/>
<path fill-rule="evenodd" clip-rule="evenodd" fill="#E8ECF2" d="M90.211,277.794c1.944,7.729,9.369,10.852,13.921,16.398
	c2.157,2.626,27.73,28.03,29.226,31.522c-7.807-2.928-35.064-32.984-41.009-38.075c-1.944-1.661-3.065-6.598-7.337-3.017
	C84.345,280.522,86.001,278.186,90.211,277.794z"/>
<path fill-rule="evenodd" clip-rule="evenodd" fill="#8298AE" d="M698.948,57.08c-10.713,5.018-22.499,6.017-33.96,8.434
	c9.169-3.208,18.335-6.417,27.503-9.622C694.812,55.375,697.215,54.41,698.948,57.08z"/>
<path fill-rule="evenodd" clip-rule="evenodd" fill="#34395C" d="M334.838,573.972c1.438-0.006,2.874-0.01,4.308-0.018
	c-0.565,6.285,6.956,4.535,8.397,8.674C334.392,584.855,334.059,584.634,334.838,573.972z"/>
<path fill-rule="evenodd" clip-rule="evenodd" fill="#34395C" d="M309.784,570c1.457-0.614,2.914-1.223,4.369-1.832
	c-1.268,7.746,7.577,4.654,9.641,8.908C308.35,579.362,308.246,579.31,309.784,570z"/>
<path fill-rule="evenodd" clip-rule="evenodd" fill="#E8ECF2" d="M140.917,415.767c-7.018,0.446-13.918,2.411-21.031,1.595
	c-0.77-0.595-1.542-1.187-2.313-1.784c8.027-4.041,16.674-1.593,25.01-2.387C142.027,414.05,141.471,414.91,140.917,415.767z"/>
<path fill-rule="evenodd" clip-rule="evenodd" fill="#4E6B87" d="M438.825,575.971c1.366-0.691,2.732-1.384,4.097-2.078
	c2.44,2.577,2.599,5.726-0.781,6.649c-3.125,0.852-7.843,3.31-9.852,0.681c-2.733-3.574,2.121-2.753,3.895-3.632
	c1.309,0.085,2.367-0.22,2.694-1.692L438.825,575.971z"/>
<path fill-rule="evenodd" clip-rule="evenodd" fill="#4E6B87" d="M457.932,576.216c1.785-0.2,3.702-0.927,4.896,1.23
	c-2.268,3.854-5.649,4.709-9.775,3.67C452.53,577.263,456.298,577.814,457.932,576.216z"/>
<path fill-rule="evenodd" clip-rule="evenodd" fill="#4E6B87" d="M463.19,577.344c0.364-2.029,0.725-4.061,1.09-6.087
	C465.515,573.573,469.001,576.292,463.19,577.344z"/>
<path fill-rule="evenodd" clip-rule="evenodd" fill="#E19B7B" d="M438.878,575.898c-0.328,1.473-1.385,1.777-2.694,1.692
	C437.079,577.027,437.979,576.464,438.878,575.898z"/>
<path fill-rule="evenodd" clip-rule="evenodd" fill="#E8ECF2" d="M318.952,388.122c3.988-20.473,8.194-40.906,11.838-61.441
	c1.158-6.521,3.564-8.732,10.54-8.639c32.467,0.431,64.945,0.297,97.416,0.008c5.759-0.053,9.533,1.844,13.087,6.19
	c12.418,15.174,24.651,30.55,37.971,44.907c6.444,6.949,7.255,12.486,1.458,19.456c-35.29-0.165-70.581-0.372-105.872-0.486
	C363.244,388.046,341.097,388.116,318.952,388.122z"/>
<path fill-rule="evenodd" clip-rule="evenodd" fill="#E8ECF2" d="M374.556,454.068c-8.407,6.377-9.968,12.743-20.506,14.598
	c-10.583,1.861-11.704,7.643-10.24,16.1c-8.934,0.062-17.865,0.125-26.798,0.188c0.079-12.374-0.202-24.782,2.605-36.954
	c1.075-4.667,3.024-8.995,5.708-12.972c1.032-0.729,2.067-1.463,3.102-2.193c1.948,1.092,3.896,2.181,5.844,3.27
	c5.785,10.895,15.033,3.815,19.256,1.131 M365.056,453.587c-2.707-2.283-4.914-4.12-7.095-5.991
	c-2.845-2.433-5.704-4.666-8.881-0.493c-1.814,2.386-6.353,3.475-4.693,7.538c1.829,4.478,6.103,4.128,10.007,3.483
	C357.839,457.555,361.319,456.865,365.056,453.587z"/>
<path fill-rule="evenodd" clip-rule="evenodd" fill="#2E3155" d="M446.934,460.125c-1.678-6.769-3.358-13.539-5.037-20.303
	c0.539-3.395,0.595-6.961,1.717-10.149c2.294-6.51,1.55-9.814-6.369-7.826c-1.779,0.447-3.731,0.185-5.604,0.251
	c-0.744-2.965-5.017-8.216,0.493-8.162c5.778,0.058,12.896-7.895,17.927,1.441c7.137,13.252,4.234,27.096,2.533,40.884
	C452.162,459.754,449.541,459.893,446.934,460.125z"/>
<path fill-rule="evenodd" clip-rule="evenodd" fill="#E19B7B" d="M425.251,459.83c0.691,2.581,1.383,5.158,2.075,7.737
	c-11.339,0.441-21.019-6.261-31.996-7.493c-1.941-0.217-3.536-2.157-2.736-4.27c0.91-2.403,3.439-1.617,4.88-0.845
	C406.235,459.663,415.748,459.642,425.251,459.83z"/>
<path fill-rule="evenodd" clip-rule="evenodd" fill="#E19B7B" d="M431.641,422.098c1.873-0.066,3.826,0.196,5.604-0.251
	c7.919-1.988,8.663,1.316,6.369,7.826c-1.123,3.188-1.178,6.755-1.717,10.149c-1.766,0.756-3.531,1.512-5.298,2.271
	c0.786-3.212,0.909-5.91-2.255-8.424C430.713,430.787,431.571,426.201,431.641,422.098z"/>
<path fill-rule="evenodd" clip-rule="evenodd" fill="#E19B7B" d="M434.291,473.475c2.515-1.439,3.424-7.561,8.121-2.606
	c4.135,4.366-1.031,5.643-2.602,7.934c-1.222,1.786-3.211,3.048-4.86,4.542c-7.166,1.791-6.434,11.387-13.303,13.471
	c-0.287-0.304-0.579-0.598-0.877-0.888c-0.797-6.474,4.619-9.332,7.783-13.541C430.669,479.569,432.391,476.455,434.291,473.475z"/>
<path fill-rule="evenodd" clip-rule="evenodd" fill="#E19B7B" d="M334.271,436.104c-1.948-1.089-3.896-2.178-5.844-3.27
	c0.155-2.174,0.309-4.348,0.462-6.521c-0.081-0.954-0.161-1.908-0.239-2.862c2.974-3.582,6.891-4.413,11.277-3.885
	C344.23,427.195,340.312,432.014,334.271,436.104z"/>
<path fill-rule="evenodd" clip-rule="evenodd" fill="#2E3155" d="M339.926,419.566c-4.386-0.528-8.303,0.303-11.277,3.885
	c-3.723-2.509-6.196-6.637-1.423-8.805c4.321-1.961,9.959-6.114,15.066-1.658C345.574,415.852,342.32,417.91,339.926,419.566z"/>
<path fill-rule="evenodd" clip-rule="evenodd" fill="#34395C" d="M328.889,426.313c-0.153,2.174-0.307,4.348-0.462,6.521
	c-1.035,0.73-2.069,1.464-3.102,2.193c-4.355-1.284-8.712-2.568-13.813-4.071C316.975,424.796,323.517,427.946,328.889,426.313z"/>
<path fill-rule="evenodd" clip-rule="evenodd" fill="#E19B7B" d="M421.646,496.814c-0.38,0.335-0.997,1.021-1.102,0.947
	c-1.019-0.688-0.364-1.272,0.231-1.83C421.066,496.217,421.359,496.511,421.646,496.814z"/>
<path fill-rule="evenodd" clip-rule="evenodd" fill="#4E6B87" d="M303.312,275.547c-0.941,9.227,3.495,18.529-0.376,27.72
	c-16.758-0.063-33.514-0.288-50.265-0.108c-5.733,0.063-8.456-1.593-9.84-7.696c-3.615-15.949-8.197-31.676-12.396-47.492
	c-0.756-2.845-1.701-6.147,0.298-8.392c14.459-16.229,27.095-34.211,44.894-47.266c10.474,19.728,15.706,41.297,21.92,62.524
	c0.963,3.295,0.974,7.033,4,9.472C301.682,268.127,299.756,272.268,303.312,275.547z"/>
<path fill-rule="evenodd" clip-rule="evenodd" fill="#8298AE" d="M317.233,237.529c-0.408,0.206-0.812,0.41-1.22,0.613
	c0.222-0.385,0.445-0.772,0.665-1.162C316.676,236.978,317.233,237.529,317.233,237.529z"/>
<path fill-rule="evenodd" clip-rule="evenodd" fill="#FEFDFE" d="M699.604,421.599c-0.018,5.405-0.035,10.811-0.056,16.218
	c-9.381-2.839-15.172-9.041-16.857-18.687c-0.598-3.412-0.789-7.398,3.255-9.138c3.955-1.696,5.609,1.991,7.659,4.207
	C695.758,416.524,697.618,419.12,699.604,421.599z"/>
<path fill-rule="evenodd" clip-rule="evenodd" fill="#E8ECF2" d="M163.046,283.33c1.165,0.466,2.327,0.933,3.491,1.407
	c0.148,20.578,0.704,41.16,0.242,61.717c-0.181,8.058,3.129,13.225,8.597,18.22c3.63,3.316,4.932,2.411,6.642-1.656
	c7.648-18.193,20.063-32.764,35.123-45.244c1.644-0.08,3.287-0.164,4.932-0.247c30.302-0.002,60.61,0.303,90.905-0.196
	c9.09-0.149,10.713,2.258,8.804,10.999c-4.326,19.799-7.447,39.857-11.058,59.811c-45.302-0.088-90.605-0.177-135.905-0.268
	c5.17-12.301,0.227-20.653-9.421-28.632c-18.204-15.057-31.37-30.879-33.543-33.525c9.463,4.287,22.213,18.944,31.194,25.609
	C163.046,328.021,163.046,305.674,163.046,283.33z"/>
<path fill-rule="evenodd" clip-rule="evenodd" fill="#2E3155" d="M225.746,421.036c-0.134,8.654-7.377,15.67-16.228,15.721
	c-9.158,0.053-16.621-7.439-16.442-16.5c0.16-8.057,8.201-16.054,16.225-16.137C217.61,404.033,225.877,412.538,225.746,421.036z"/>
<path fill-rule="evenodd" clip-rule="evenodd" fill="#FEFDFE" d="M729.26,234.309c-19.557-3-31.283-15.238-31.223-32.584
	c0.063-17.309,11.874-29.594,31.353-32.613c20.377,2.413,32.675,14.29,32.94,31.803C762.615,219.607,751.271,231.062,729.26,234.309
	z"/>
<path fill-rule="evenodd" clip-rule="evenodd" fill="#4E6B87" d="M758.639,445.891c5.769,0.638,5.272-8.257,11.205-7.361
	c-0.888,3.931-3.081,7.13-5.701,10.078c-1.114,0.083-2.228,0.169-3.342,0.255l0.109,0.151
	C760.152,447.973,759.396,446.932,758.639,445.891z"/>
<path fill-rule="evenodd" clip-rule="evenodd" fill="#E8ECF2" d="M832.778,452.037c0.709,5.243-2.933,8.461-4.849,12.483
	C825.873,458.651,831.737,456.467,832.778,452.037z"/>
<path fill-rule="evenodd" clip-rule="evenodd" fill="#E8ECF2" d="M840.937,434.166c1.961,5.255-1.83,8.299-4.627,11.716
	c0.156-4.435,2.17-8.121,4.818-11.549L840.937,434.166z"/>
<path fill-rule="evenodd" clip-rule="evenodd" fill="#E8ECF2" d="M841.128,434.333c0.66-0.638,2.223-0.883,1.006-2.329
	c-0.053,0.91,1.159,2.498-1.185,2.175C840.937,434.166,841.128,434.333,841.128,434.333z"/>
<path fill-rule="evenodd" clip-rule="evenodd" fill="#FEFDFE" d="M833.812,523.594c-1.237,0.063-2.603,0.481-3.229-1.103
	c-0.021-0.062,0.913-0.689,1.43-0.729c1.421-0.116,2.52,0.199,1.585,2.015C833.596,523.777,833.812,523.594,833.812,523.594z"/>
<path fill-rule="evenodd" clip-rule="evenodd" fill="#4E6B87" d="M769.898,438.474c-0.048-1.29,0.534-1.953,1.865-1.863
	c0.268,0.406,0.438,0.851,0.514,1.329C771.483,438.118,770.69,438.298,769.898,438.474z"/>
<path fill-rule="evenodd" clip-rule="evenodd" fill="#8298AE" d="M772.277,437.939c-0.075-0.479-0.246-0.923-0.514-1.329
	c0.002,0,0.086-0.107,0.086-0.107l0.928,0.173l0.928-0.158c0,0,0.447,0.458,0.45,0.462
	C773.529,437.302,772.902,437.62,772.277,437.939z"/>
<path fill-rule="evenodd" clip-rule="evenodd" fill="#E8ECF2" d="M835.621,449.148c-0.407,0.215-0.806,0.492-1.242,0.586
	c-0.152,0.035-0.4-0.389-0.604-0.6c0.409-0.212,0.805-0.492,1.243-0.599C835.163,448.504,835.415,448.927,835.621,449.148z"/>
<path fill-rule="evenodd" clip-rule="evenodd" fill="#2E3155" d="M760.801,448.862c1.114-0.086,2.228-0.172,3.342-0.255
	C763.137,450.161,762.1,451.246,760.801,448.862z"/>
<path fill-rule="evenodd" clip-rule="evenodd" fill="#E8ECF2" d="M604.578,558.758c-20.514,0-36.994-16.229-37.216-36.65
	c-0.222-20.623,16.758-37.413,37.638-37.219c20.305,0.188,36.942,16.993,36.798,37.166
	C641.651,542.34,625.004,558.757,604.578,558.758z"/>
<path fill-rule="evenodd" clip-rule="evenodd" fill="#E8ECF2" d="M209.988,558.758c-20.665-0.127-36.63-16.265-36.591-36.986
	c0.039-21.084,16.48-37.17,37.691-36.883c20.364,0.276,36.371,16.875,36.181,37.521C247.079,542.93,230.712,558.888,209.988,558.758
	z"/>
<path fill-rule="evenodd" clip-rule="evenodd" fill="#34395C" d="M813.37,363.847c-2.708-8.851-5.414-17.702-8.12-26.553
	c5.899,7.797,8.171,16.805,10.425,25.819C814.907,363.357,814.14,363.605,813.37,363.847z"/>
<path fill-rule="evenodd" clip-rule="evenodd" fill="#34395C" d="M826.061,370.692c-1.763,5.152-5.495,8.663-9.774,11.721
	c0.494-4.705,0.615-9.386-1.066-14.483C818.56,370.988,821.793,373.317,826.061,370.692z"/>
<path fill-rule="evenodd" clip-rule="evenodd" fill="#4E6B87" d="M781.449,423.057c0.408,5.566-2.171,8.743-7.667,9.586
	C774.269,427.792,777.674,425.274,781.449,423.057z"/>
<path fill-rule="evenodd" clip-rule="evenodd" fill="#34395C" d="M808.616,390.03c-0.069,5.295-2.696,8.548-7.832,9.791
	C801.857,395.327,805.11,392.574,808.616,390.03z"/>
<path fill-rule="evenodd" clip-rule="evenodd" fill="#34395C" d="M835.742,359.078c-1.398,3.836-3.226,7.241-7.858,7.833
	C829.147,362.939,830.945,359.505,835.742,359.078z"/>
<path fill-rule="evenodd" clip-rule="evenodd" fill="#34395C" d="M860.884,326.14c0.388,4.385-1.327,7.195-5.897,7.862
	C855.584,330.358,858.109,328.155,860.884,326.14z"/>
<path fill-rule="evenodd" clip-rule="evenodd" fill="#34395C" d="M843.481,349.397c-0.775,3.166-2.145,5.736-5.914,5.898
	C838.298,352.085,839.565,349.413,843.481,349.397z"/>
<path fill-rule="evenodd" clip-rule="evenodd" fill="#34395C" d="M816.382,382.305c-0.794,3.15-2.117,5.765-5.918,5.899
	C811.195,384.991,812.463,382.32,816.382,382.305z"/>
<path fill-rule="evenodd" clip-rule="evenodd" fill="#34395C" d="M795.025,409.471c-0.949-0.018-1.899-0.038-2.855-0.056
	c1.833-2.437,2.649-6.063,6.789-5.814C798.73,406.285,796.915,407.903,795.025,409.471z"/>
<path fill-rule="evenodd" clip-rule="evenodd" fill="#34395C" d="M878.324,306.807c-0.607,3.336-2.073,5.806-5.914,5.901
	C873.181,309.538,874.611,307.027,878.324,306.807z"/>
<path fill-rule="evenodd" clip-rule="evenodd" fill="#34395C" d="M868.644,318.422c-0.229,2.42-1.202,4.096-3.977,3.967
	C864.965,320.032,865.97,318.392,868.644,318.422z"/>
<path fill-rule="evenodd" clip-rule="evenodd" fill="#34395C" d="M864.763,322.28c0.153,2.81-0.99,4.317-3.981,3.975
	C861.626,324.445,862.682,322.85,864.763,322.28z"/>
<path fill-rule="evenodd" clip-rule="evenodd" fill="#34395C" d="M882.178,300.982c0.428,1.883-0.185,3.247-2.003,4.002
	C879.645,303.051,880.406,301.763,882.178,300.982z"/>
<path fill-rule="evenodd" clip-rule="evenodd" fill="#34395C" d="M837.655,355.185c0.4,1.87-0.31,3.186-2.003,4.005
	C835.142,357.266,835.785,355.918,837.655,355.185z"/>
<path fill-rule="evenodd" clip-rule="evenodd" fill="#34395C" d="M800.875,399.707c0.421,1.88-0.192,3.243-2.004,4.005
	C798.355,401.784,799.08,400.479,800.875,399.707z"/>
<path fill-rule="evenodd" clip-rule="evenodd" fill="#34395C" d="M845.397,345.505c0.415,1.877-0.177,3.251-2.006,4.004
	C842.987,347.635,843.628,346.289,845.397,345.505z"/>
<path fill-rule="evenodd" clip-rule="evenodd" fill="#4E6B87" d="M773.705,436.518l-0.928,0.158l-0.928-0.173
	c-0.555-1.833-0.095-3.168,1.856-3.763C773.706,434,773.705,435.26,773.705,436.518z"/>
<path fill-rule="evenodd" clip-rule="evenodd" fill="#34395C" d="M872.5,312.596c0.415,1.877-0.179,3.25-2.006,4.004
	C870.088,314.728,870.73,313.379,872.5,312.596z"/>
<path fill-rule="evenodd" clip-rule="evenodd" fill="#34395C" d="M827.975,366.798c0.424,1.883-0.191,3.244-2.003,4.005
	C825.454,368.874,826.182,367.569,827.975,366.798z"/>
<path fill-rule="evenodd" clip-rule="evenodd" fill="#34395C" d="M855.078,333.889c0.422,1.883-0.184,3.246-2.005,4.005
	C852.55,335.963,853.283,334.659,855.078,333.889z"/>
<path fill-rule="evenodd" clip-rule="evenodd" fill="#34395C" d="M883.758,299.434c-0.021,1.095-0.313,1.916-1.672,1.659
	C882.645,300.541,883.202,299.986,883.758,299.434z"/>
<path fill-rule="evenodd" clip-rule="evenodd" fill="#34395C" d="M880.265,304.871c-0.681,0.681-1.362,1.361-2.043,2.042
	C878.268,305.597,878.851,304.818,880.265,304.871z"/>
<path fill-rule="evenodd" clip-rule="evenodd" fill="#34395C" d="M870.584,316.483c-0.139,1.225-0.786,1.936-2.04,2.04
	C868.558,317.18,869.176,316.437,870.584,316.483z"/>
<path fill-rule="evenodd" clip-rule="evenodd" fill="#34395C" d="M810.567,388.102c0.003,1.365-0.606,2.116-2.044,2.041
	C809.205,389.462,809.886,388.781,810.567,388.102z"/>
<path fill-rule="evenodd" clip-rule="evenodd" fill="#FA0404" d="M217.139,317.774c-15.06,12.48-27.474,27.05-35.123,45.244
	c-1.709,4.067-3.011,4.973-6.642,1.656c-5.467-4.995-8.778-10.162-8.597-18.22c0.462-20.558-0.094-41.14-0.242-61.717
	c18.227,6.512,33.934,17.284,49.086,29.007C217.056,314.851,217.63,316.056,217.139,317.774z"/>
<path fill-rule="evenodd" clip-rule="evenodd" fill="#8298AE" d="M659.706,67.57c-0.027,0.187-0.032,0.509-0.085,0.516
	c-0.532,0.083-1.129,0.281-1.599,0.123c-0.887-0.3-0.821-0.769,0.121-0.885C658.647,67.264,659.185,67.472,659.706,67.57z"/>
<path fill-rule="evenodd" clip-rule="evenodd" fill="#4E6B87" d="M365.056,453.587c-3.736,3.278-7.217,3.968-10.662,4.537
	c-3.904,0.645-8.178,0.994-10.007-3.483c-1.66-4.063,2.879-5.152,4.693-7.538c3.177-4.173,5.084-6.948,7.93-4.513
	C359.191,444.459,362.349,451.304,365.056,453.587z"/>
<g>
	<path fill="#8299AF" d="M730.06,63.194l-0.233-2.571c1.339-0.121,2.805-0.271,4.381-0.433l2.019-0.206l0.258,2.568l-2.015,0.206
		C732.885,62.921,731.41,63.071,730.06,63.194z"/>
	<path fill="#8299AF" d="M885.146,215.51c-4.602-1.437-8.818-3.35-12.531-5.685l1.377-2.185c3.523,2.216,7.536,4.036,11.925,5.407
		L885.146,215.51z M862.174,200.796c-2.87-3.368-5.304-7.163-7.441-11.595l2.323-1.122c2.042,4.233,4.358,7.846,7.084,11.044
		L862.174,200.796z M849.913,176.366c-1.125-3.856-2.164-8.193-3.17-13.263l2.529-0.501c0.994,4.993,2.012,9.258,3.116,13.041
		L849.913,176.366z M844.366,149.741l-0.381-2.299c-0.604-3.665-1.212-7.351-1.875-11.024l2.541-0.458
		c0.663,3.687,1.274,7.385,1.88,11.063l0.381,2.298L844.366,149.741z M839.387,123.245c-1.146-4.743-2.385-8.939-3.789-12.828
		l2.43-0.875c1.435,3.978,2.7,8.262,3.869,13.095L839.387,123.245z M830.138,98.314c-2.223-3.954-4.789-7.575-7.624-10.765
		l1.931-1.713c2.956,3.325,5.63,7.099,7.941,11.214L830.138,98.314z M812.846,78.459c-3.468-2.731-7.207-5.167-11.117-7.238
		l1.211-2.281c4.041,2.143,7.913,4.665,11.504,7.493L812.846,78.459z M789.499,66.036c-4.086-1.342-8.438-2.411-12.932-3.174
		l0.434-2.544c4.62,0.785,9.096,1.884,13.304,3.267L789.499,66.036z M749.888,61.499l-0.121-2.578
		c4.774-0.225,9.022-0.252,13.637-0.039l-0.121,2.578C758.749,61.252,754.58,61.277,749.888,61.499z"/>
	<path fill="#8299AF" d="M905.363,218.902c-2.243-0.122-4.433-0.308-6.515-0.554l0.303-2.564c2.028,0.241,4.164,0.424,6.349,0.54
		L905.363,218.902z"/>
</g>
<g>
	<path fill="#FA0404" d="M841.404,437.41c-0.149,2.154-1.28,3.933-2.665,5.618l-6.536,13.767c-0.312,0.847-0.707,1.656-1.156,2.44
		l-4.358,9.184l67.728-25.157c-1.227-2.026-3.049-3.899-5.616-5.564c-8.804-5.707-18.598-8.503-28.218-11.974
		c-4.426-0.501-8.821-0.786-13.196-0.919L841.404,437.41z"/>
	<path fill="#FA0404" d="M760.801,448.862c0.043,0.078,0.083,0.122,0.126,0.193c-0.008-0.015-0.008-0.027-0.017-0.042
		L760.801,448.862z"/>
	<path fill="#FA0404" d="M767.784,472.968c7.548,0.44,17.77-3.684,21.916,1.927c1.279,1.733,1.782,4.005,1.935,6.544l31.585-11.732
		l21.343-44.973c-24.039-0.304-47.393,4.659-70.407,12.246c-0.626,0.322-1.253,0.641-1.878,0.96
		c-0.794,0.179-1.587,0.358-2.379,0.534l-0.055,0.056c-0.888,3.931-3.081,7.13-5.704,10.082c-0.971,1.501-1.975,2.531-3.213,0.444
		c1.502,3.155-1.414,5.17-2.02,7.775C756.337,467.888,759.058,472.456,767.784,472.968z"/>
	<path fill="#FA0404" d="M825.103,471.761l-0.189,0.396l-0.383-0.185l-32.848,12.203c-0.083,4.293-0.723,9.035-0.289,13.155
		c0.029,0.272,0.044,0.523,0.063,0.785l39.203,24.303c0.183-0.167,0.906-0.619,1.353-0.655c1.371-0.112,2.423,0.191,1.657,1.842
		c0.048-0.002,0.097-0.008,0.142-0.011c-0.011,0.045-0.028,0.083-0.041,0.13c2.497-0.956,5.104,0.095,7.878-1.4
		c27.264-14.717,44.705-37.316,53.775-66.535c1.131-3.642,1.242-7.072,0.121-10.192L825.103,471.761z"/>
	<path fill="#FA0404" d="M791.538,501.2c-0.269,6.027-3.495,8.233-11.604,7.941c-21.693-0.781-21.421-0.217-21.263,21.033
		c0.049,6.687,2.552,8.176,8.523,7.939c12.836-0.514,25.689-0.543,38.536-0.771c5.084-1.834,10.294-3.388,15.219-5.584
		c3.8-1.693,8.852-1.587,11.495-5.199L791.538,501.2z"/>
	<path fill="#FA0404" d="M833.67,523.604c-0.321,0.023-0.65,0.06-0.973,0.078l0.901,0.557c0.057-0.173,0.124-0.332,0.172-0.516
		c-0.058,0.021-0.115,0.028-0.173,0.054C833.63,523.715,833.644,523.664,833.67,523.604z"/>
</g>
<polygon fill="#2E3155" points="883.758,298.636 820.831,373.985 803.704,330.491 801.766,331.85 818.939,376.246 757.652,449.423 
	759.632,451.083 885.638,300.624 "/>
<polygon fill-rule="evenodd" clip-rule="evenodd" fill="#E8ECF2" points="354.541,441.68 364.306,454.192 386.911,446.465 
	370.727,428.723 "/>
<path fill="#E19B7B" d="M358.042,432.754c-2.833,0.99-8.985,9.464-3.5,9.34C360.025,441.967,365.509,430.144,358.042,432.754z"/>
<path fill="#E19B7B" d="M372.88,448.4c-4.219,3.15-9.838,4.81-4.516,5.792s13.387-1.437,11.613-4.34
	C378.203,446.95,374.568,447.141,372.88,448.4z"/>
</svg>
