<svg xmlns="http://www.w3.org/2000/svg" xmlns:xlink="http://www.w3.org/1999/xlink" width="70" height="34" viewBox="0 0 70 34"><defs><path id="a" d="M315.68 101.98c.53-2.09 2.21-4.48 4.71-3.93 1.58.35 1.85 2.03 2.06 4.08 2.02-.1 4.41.19 6.18-.15-.68-3.56-2.22-7.23-4.56-9.06-1.17-.92-3.8-1.29-5.59-.46-3.17 1.47-5.51 5.87-6.48 9.37.95.33 2.49.06 3.68.15z"/><path id="b" d="M356.19 95.74c2.13-.5 3.16 2.84 1.62 3.32-1.38.44-2.86-1.9-1.62-3.32zm-8.83 6.04c.36-4.26 7.31-6.38 7.21 0 2.31-.08 4.71.13 6.63 0-1.3-4.95-4.31-9.15-10.01-8.75-5.68.38-8.97 4.73-11.19 8.75 2.77-.01 4.73.08 7.36 0z"/><path id="c" d="M314.79 95.11c-1.87-.65-3.46 1.73-2.51 3.47.91-1.08 1.33-2.66 2.51-3.47"/><path id="d" d="M378.71 98.56c0-.12.15-.09.24-.12.93-1.33-.98-3.34-1.94-2-.09 1.38.51 2.06 1.7 2.12"/><path id="e" d="M356.38 96.04c-1.01 1.16.19 3.07 1.32 2.71 1.26-.39.41-3.12-1.32-2.71"/><path id="f" d="M350.41 100.87c2.23.54.49 3.58-.89 3.32-1.73-.33-.91-3.76.89-3.32zm-3.39 2.72c.44 4.23 6.14 2.17 6.04-1.82-.03-1.15-.68-2.42-1.92-2.71-1.86-.44-4.41 1.75-4.12 4.53z"/><path id="g" d="M319.47 100.98c1.29.73.34 3.08-.74 3.17-2.45.19-1.34-4.34.74-3.17zm-1.62 4.98c2.93.39 5.48-5.7 2.21-6.79-4.15-1.39-5.52 6.35-2.21 6.79z"/><path id="h" d="M340.33 85.05c-.36-.25.58.42.29 1.06-.35-.05-.09-.72-.59-.6.07.28.32.38.3.75-.55-.04-.4-.8-1.04-.75 0 .6-.29.9-.29 1.51h2.21c.03-.99-.27-1.64-.88-1.97"/><path id="i" d="M339.23 87.06c0-.6.29-.9.29-1.5.63-.05.48.71 1.03.75.02-.38-.23-.47-.29-.75.5-.12.24.55.59.6.28-.65-.66-1.31-.3-1.06.62.33.92.98.88 1.96zm40.33 11.93c-1.45-.07-2.17-.9-2.06-2.56 1.16-1.63 3.47.81 2.35 2.41-.11.03-.29.01-.29.15zm-58.73-11.32c-.35 1.16-1.39 2.9-2.06 4.23.47.42 1.44-.26 2.2-.31 5.36-.31 7.07 5.98 8.37 10.27h9.89c2.22-4.05 5.94-8.7 11.48-9.21 6.51-.6 9.35 4.12 10.89 9.21h3.4c1.21-.02 2.42-.03 3.59 0h13.47c-.47-5.7-3.91-8.37-8.98-9.36-.55.24.45.74.74 1.06.98 1.12 3.24 3.35 2.65 6.04-.51 2.25-4.19 2.56-6.63 1.96-4.76-1.18-7.25-5.61-11.33-8.76-4.31-3.33-8.4-5.28-14.28-5.74-.67-3.89-1.45-7.67-1.91-11.77 1.72-1.23 5.63-1.25 8.39-1.06 1.31.09 3.04.35 3.82.91 1.32.94 1.93 3.91 2.51 5.58.75 2.17 1.39 4.05 2.06 5.89-.81.28-2.03.13-2.95.3 7.51 2.67 14.07 6.31 17.37 13.29-.86-.54-1.06-1.65-1.62-2.42-2.76-3.82-6.57-6.67-11.33-8.75-1.8-.79-3.8-1.85-5.74-2.12-2.46-.33-4.76.25-7.51 0 .42.69 1.36.46 1.92.61a27.16 27.16 0 0 1 11.18 6.19c3.58 3.12 6.58 8.01 12.22 7.7 2.29-.13 4.17-1.71 3.39-4.38-.65-2.2-3.98-4.95-5.89-6.34-3.07-2.23-6.18-3.29-10.01-3.78-1.59-4-2.85-8.35-4.57-12.23-1.79-1.26-5.48-1.8-8.68-1.66-2.14.1-4.48.25-5.59 1.51.34 4.43 1.27 8.25 1.76 12.53-1.96.11-.73-2.87-2.5-3.17-.95-.16-1.77 1.16-1.77 2.27l-.08.9h-6.51l-2.53-.75c-3.92-1.02-7.71-2.16-11.63-3.17a85.88 85.88 0 0 0-1.03 4.53z"/><path id="j" d="M361 102h3.4c-1.15.02-2.3.03-3.4 0"/><path id="k" d="M375.73 102c-.8.97-1.85 2.5-3.53 2.26-1.01-.14-1.53-.97-1.91-2.11-.73-.08-1.5-.13-2.29-.15h12.96c-1.86.02-3.19.22-5.23 0"/><path id="l" d="M338.89 102c-.73.11-1.47.21-2.36.15-.54 1.47-1.51 2.48-3.68 2.27-.84-.45-1.14-1.46-1.62-2.27h-2.21l-.02-.07V102z"/></defs><g transform="translate(-312 -72)"><use fill="#e30613" xlink:href="#a"/></g><g transform="translate(-312 -72)"><use fill="#e30613" xlink:href="#b"/></g><g transform="translate(-312 -72)"><use fill="#ffec00" xlink:href="#c"/></g><g transform="translate(-312 -72)"><use fill="#ffec00" xlink:href="#d"/></g><g transform="translate(-312 -72)"><use fill="#ffec00" xlink:href="#e"/></g><g transform="translate(-312 -72)"><use fill="#1d1d1b" xlink:href="#f"/></g><g transform="translate(-312 -72)"><use fill="#1d1d1b" xlink:href="#g"/></g><g transform="translate(-312 -72)"><use fill="#e30613" xlink:href="#h"/></g><g transform="translate(-312 -72)"><use fill="#e30613" xlink:href="#i"/></g><g transform="translate(-312 -72)"><use fill="#ffec00" xlink:href="#j"/></g><g transform="translate(-312 -72)"><use fill="#1d1d1b" xlink:href="#k"/></g><g transform="translate(-312 -72)"><use fill="#1d1d1b" xlink:href="#l"/></g></svg>