<svg xmlns="http://www.w3.org/2000/svg" width="32.473" height="29.369" viewBox="0 0 32.473 29.369"><path d="M33.473,26.385a6.778,6.778,0,0,0-1.167-3.856l-5.378-13.5A5.107,5.107,0,0,0,17.236,6.9,5.133,5.133,0,0,0,7.495,9.032l-5.328,13.5h0A6.777,6.777,0,0,0,1,26.385a7.012,7.012,0,0,0,14,.507h4.414a7.038,7.038,0,0,0,14.055-.507ZM18,7.662a4.1,4.1,0,0,1,7.915,1.471.305.305,0,0,0,.051.2l4.516,11.315a6.85,6.85,0,0,0-4.008-1.268,7.031,7.031,0,0,0-7,6.495H17.744V7.916A.417.417,0,0,0,18,7.662ZM8.509,9.336c0-.051.051-.1.051-.2a4.1,4.1,0,0,1,7.915-1.471c.051.152.152.2.254.3V25.877H15a6.993,6.993,0,0,0-7-6.495,6.737,6.737,0,0,0-4.008,1.268ZM8,32.372a5.987,5.987,0,1,1,5.987-5.987A5.934,5.934,0,0,1,8,32.372Zm18.469,0a5.987,5.987,0,1,1,5.987-5.987A6,6,0,0,1,26.471,32.372Z" transform="translate(-1 -4.018)" fill="#2d3155"/><path d="M11.267,39.2a4.367,4.367,0,0,0-3.653,1.928.507.507,0,1,0,.812.609,3.534,3.534,0,0,1,2.841-1.471.479.479,0,0,0,.507-.507A.556.556,0,0,0,11.267,39.2Z" transform="translate(-4.215 -21.349)" fill="#2d3155"/><path d="M50.707,39.2a.507.507,0,1,0,0,1.015,3.534,3.534,0,0,1,2.841,1.471.507.507,0,1,0,.812-.609A4.74,4.74,0,0,0,50.707,39.2Z" transform="translate(-25.236 -21.349)" fill="#2d3155"/></svg>