<svg xmlns="http://www.w3.org/2000/svg" width="32.118" height="32.473" viewBox="0 0 32.118 32.473"><path d="M22.761,6.125C22.66,2.928,20.681,1,17.433,1s-5.226,1.928-5.328,5.125a10.884,10.884,0,0,0-5.581,9.539V21.6H1.907a.479.479,0,0,0-.507.507v5.784a5.641,5.641,0,0,0,5.632,5.581H27.886a5.652,5.652,0,0,0,5.632-5.632V22.107a.479.479,0,0,0-.507-.507H28.393V15.664A11.033,11.033,0,0,0,22.761,6.125Zm-5.328-4.11c1.522,0,3.958.507,4.262,3.552a10.961,10.961,0,0,0-8.524,0C13.476,2.522,15.911,2.015,17.433,2.015ZM2.415,27.841V22.615h4.11v9.843A4.66,4.66,0,0,1,2.415,27.841ZM7.539,15.664a9.894,9.894,0,0,1,19.788,0V32.458H7.539Zm24.913,6.951v5.277a4.573,4.573,0,0,1-4.11,4.566V22.615Z" transform="translate(-1.4 -1)" fill="#2d3155"/><path d="M19.074,20.784a.528.528,0,0,0,.66-.3,6.441,6.441,0,0,1,6.241-4.465,6.66,6.66,0,0,1,3.755,1.167v2.131a.507.507,0,1,0,1.015,0V18.044a7.029,7.029,0,0,1,1.471,2.486.514.514,0,1,0,.964-.355A7.477,7.477,0,0,0,25.974,15h0a7.524,7.524,0,0,0-7.2,5.175A.492.492,0,0,0,19.074,20.784Z" transform="translate(-9.941 -7.897)" fill="#2d3155"/><path d="M31.6,36.5H19.224A1.6,1.6,0,0,0,17.6,38.124v8.118a1.6,1.6,0,0,0,1.624,1.624H31.6a1.6,1.6,0,0,0,1.624-1.624V38.124A1.6,1.6,0,0,0,31.6,36.5Zm-12.38,1.015H31.6a.558.558,0,0,1,.507.3h0c-.609,2.131-3.4,3.7-6.7,3.7-2.638,0-5.987-1.218-6.7-3.7h0A.558.558,0,0,1,19.224,37.515ZM31.6,46.851H19.224a.586.586,0,0,1-.609-.609V39.747a6.074,6.074,0,0,0,1.319,1.218v1.979a.507.507,0,1,0,1.015,0v-1.37a10.507,10.507,0,0,0,4.465,1.015,8.9,8.9,0,0,0,6.8-2.791v6.495A.61.61,0,0,1,31.6,46.851Z" transform="translate(-9.38 -18.488)" fill="#2d3155"/></svg>