<svg xmlns="http://www.w3.org/2000/svg" width="22.934" height="32.473" viewBox="0 0 22.934 32.473"><path d="M10.4,22.607a11.5,11.5,0,0,0,6.9,10.5L12.835,43.157a.5.5,0,0,0,.913.406l4.516-10.1a12.365,12.365,0,0,0,3.1.558V43.36a.507.507,0,0,0,1.015,0V34.024a12.365,12.365,0,0,0,3.1-.558l4.516,10.1a.5.5,0,1,0,.913-.406L26.433,33.11a11.448,11.448,0,0,0,6.9-10.5.479.479,0,0,0-.507-.507H10.907A.508.508,0,0,0,10.4,22.607Zm11.467,10.4a10.456,10.456,0,0,1-10.046-7.662H31.913A10.456,10.456,0,0,1,21.867,33.009Zm10.4-9.894a9.647,9.647,0,0,1-.152,1.268h-20.5a10.809,10.809,0,0,1-.152-1.268Z" transform="translate(-10.4 -11.394)" fill="#2d3155"/><path d="M41.315,11.531V6.507a.507.507,0,0,0-1.015,0v5.023a.479.479,0,0,0,.507.507A.508.508,0,0,0,41.315,11.531Z" transform="translate(-25.129 -3.463)" fill="#2d3155"/><path d="M24.715,11.531V6.507a.507.507,0,1,0-1.015,0v5.023a.479.479,0,0,0,.507.507A.508.508,0,0,0,24.715,11.531Z" transform="translate(-16.952 -3.463)" fill="#2d3155"/><path d="M33.015,6.531V1.507a.507.507,0,1,0-1.015,0V6.531a.507.507,0,1,0,1.015,0Z" transform="translate(-21.04 -1)" fill="#2d3155"/></svg>