<svg xmlns="http://www.w3.org/2000/svg" width="26.936" height="26.933" viewBox="0 0 26.936 26.933"><path d="M25.19.1H1.8A1.662,1.662,0,0,0,0,1.618V16.013a1.662,1.662,0,0,0,1.8,1.518H7.029v.112h0l.056.562h0l.675,5.623h0l.056.45h0L8.1,26.527a.6.6,0,0,0,.562.506h.056a.659.659,0,0,0,.506-.619L9.109,25.29l1.631,1.574c.056.056.112.112.169.112h.337a.207.207,0,0,0,.169-.056h.056c.056-.056.112-.056.169-.112l1.856-2.024,1.856,2.024c.056.056.112.112.169.112a.338.338,0,0,0,.225.056h.281c.056,0,.112-.056.169-.112l1.631-1.574-.112,1.125a.558.558,0,0,0,.506.619h.056a.6.6,0,0,0,.562-.506l.281-2.249h0l.056-.45.675-5.623h0l.056-.562h0v-.112h5.229a1.662,1.662,0,0,0,1.8-1.518V1.618A1.576,1.576,0,0,0,25.19.1ZM7.816,14.776H9.334L9.165,15,8.153,16.462H7.984Zm8.041,10.908-.731-.843-.843-.9,1.856-1.968,1.574,1.968-.731.675Zm-4.723,0-1.012-1.012-.787-.787,1.574-1.968.225.281,1.574,1.743-.843.9ZM8.6,17.812l.169-.281h3.767l.281.337-.675.843-1.293,1.574-.337-.394Zm9.784,0-1.912,2.08-.337.394L14.844,18.6l-.619-.787.281-.337h3.767Zm-2.98,3.261-1.912,2.08-1.912-2.024,1.912-2.362.337.45Zm-.056-4.667L16.475,15l.956,1.406Zm-3.767,0H9.559L10.515,15Zm2.362,0h-.9L11.7,14.719h3.542Zm-3.824,4.723L8.772,22.816l-.45-3.6.843.9Zm8.1,1.687-1.349-1.687,1.743-1.912Zm.731-6.41H18.78l-1.012-1.462-.169-.225h1.518Zm-.843-2.755H8.828V8.422h9.221v5.229Zm7.759,2.362c0,.169-.281.394-.675.394H20.13l.225-1.687h.675a.562.562,0,1,0,0-1.125H19.286V7.8a.531.531,0,0,0-.562-.562H8.322a.531.531,0,0,0-.562.562v5.791H6.016a.562.562,0,1,0,0,1.125h.675l.225,1.687H1.856c-.394,0-.675-.225-.675-.394V1.618c0-.169.281-.394.675-.394H25.19c.394,0,.675.225.675.394Z" transform="translate(0 -0.1)" fill="#2d3155"/></svg>