<svg xmlns="http://www.w3.org/2000/svg" width="32.493" height="31.176" viewBox="0 0 32.493 31.176"><path d="M32.971,24.857H18.561V22.979H29.825a.508.508,0,0,0,.507-.507c0-8.017-4.414-18.215-12.177-20.194a.476.476,0,0,0-.609.457V5.525C16.227,6.692,8.21,13.948,7.6,20.544a.493.493,0,0,0,.507.558H17.6v3.755H1.513a.513.513,0,0,0-.457.71l4.059,7.611a.533.533,0,0,0,.457.254H28.963a.533.533,0,0,0,.457-.254l4.059-7.611A.541.541,0,0,0,32.971,24.857Zm-3.653-2.892H18.561V3.394C23.635,5.119,28.81,11.868,29.318,21.965Zm-20.7-1.877C9.479,14.81,15.365,8.874,17.546,6.9V20.138H8.616Zm20.042,12.38H5.826l-3.5-6.647H32.159Z" transform="translate(-1.011 -2.255)" fill="#2d3155"/></svg>