<svg xmlns="http://www.w3.org/2000/svg" width="30.094" height="30.083" viewBox="0 0 30.094 30.083"><path d="M44.888,29a3.085,3.085,0,1,0-3.072-3.085A3.082,3.082,0,0,0,44.888,29Zm0-5.418a2.333,2.333,0,1,1-2.32,2.333A2.329,2.329,0,0,1,44.888,23.586Z" transform="translate(-29.871 -18.008)" fill="#2d3155"/><path d="M51.122,44.917a3.072,3.072,0,1,0,3.072-3.085A3.082,3.082,0,0,0,51.122,44.917Zm3.072-2.333a2.333,2.333,0,1,1-2.32,2.333A2.329,2.329,0,0,1,54.194,42.584Z" transform="translate(-35.678 -29.862)" fill="#2d3155"/><path d="M35.743,48a3.085,3.085,0,1,0-3.071-3.085A3.082,3.082,0,0,0,35.743,48Zm0-5.418a2.333,2.333,0,1,1-2.319,2.333A2.329,2.329,0,0,1,35.743,42.584Z" transform="translate(-24.166 -29.862)" fill="#2d3155"/><path d="M60.291,64.177a3.072,3.072,0,1,0,3.071-3.085A3.082,3.082,0,0,0,60.291,64.177Zm3.071-2.333a2.333,2.333,0,1,1-2.319,2.333A2.329,2.329,0,0,1,63.362,61.843Z" transform="translate(-41.399 -41.879)" fill="#2d3155"/><path d="M44.911,61.091a3.085,3.085,0,1,0,3.072,3.085A3.082,3.082,0,0,0,44.911,61.091Zm0,5.418a2.333,2.333,0,1,1,2.32-2.333A2.329,2.329,0,0,1,44.911,66.51Z" transform="translate(-29.886 -41.879)" fill="#2d3155"/><path d="M26.568,67.262A3.085,3.085,0,1,0,23.5,64.177,3.082,3.082,0,0,0,26.568,67.262Zm0-5.418a2.333,2.333,0,1,1-2.319,2.333A2.329,2.329,0,0,1,26.568,61.843Z" transform="translate(-18.44 -41.879)" fill="#2d3155"/><path d="M20.025,41.376h16.9A4.558,4.558,0,0,0,41,34.78l-8.55-17.1a4.446,4.446,0,0,0-7.953,0l-8.55,17.1a4.558,4.558,0,0,0,4.076,6.6Zm-3.4-6.26,8.55-17.1a3.693,3.693,0,0,1,6.607,0l8.55,17.1a3.805,3.805,0,0,1-3.4,5.507h-16.9a3.805,3.805,0,0,1-3.4-5.507Z" transform="translate(-13.428 -13.258)" fill="#2d3155"/><path d="M16.262,40.083H33.935a6.205,6.205,0,0,0,5.55-8.98L30.649,13.43a6.206,6.206,0,0,0-11.1,0L10.712,31.1a6.2,6.2,0,0,0,5.55,8.98Zm-4.877-8.644,8.836-17.673a5.453,5.453,0,0,1,9.755,0l8.836,17.673a5.453,5.453,0,0,1-4.877,7.892H16.262a5.453,5.453,0,0,1-4.877-7.892Z" transform="translate(-10.051 -10)" fill="#2d3155"/></svg>