<svg xmlns="http://www.w3.org/2000/svg" width="25.52" height="32.042" viewBox="0 0 25.52 32.042"><path d="M271.486,217.909a1.473,1.473,0,1,0-1.473,1.473A1.474,1.474,0,0,0,271.486,217.909Zm-2.007,0a.534.534,0,1,1,.534.534A.535.535,0,0,1,269.48,217.909Z" transform="translate(-254.996 -202.891)" fill="#2d3155"/><path d="M236.476,274.022a1.473,1.473,0,1,0,1.473-1.473A1.474,1.474,0,0,0,236.476,274.022Zm2.007,0a.534.534,0,1,1-.534-.534A.535.535,0,0,1,238.483,274.022Z" transform="translate(-224.938 -255.493)" fill="#2d3155"/><path d="M302.078,275.494a1.473,1.473,0,1,0-1.473-1.473A1.474,1.474,0,0,0,302.078,275.494Zm0-2.007a.534.534,0,1,1-.534.534A.535.535,0,0,1,302.078,273.488Z" transform="translate(-285.054 -255.493)" fill="#2d3155"/><path d="M75.253,14.893a.469.469,0,0,0-.727.594,9.569,9.569,0,1,1-1.353-1.353.469.469,0,0,0,.594-.727A10.5,10.5,0,1,0,60.724,29.861c-.1.312-.2.612-.3.892a.529.529,0,0,1-.5.349H55.264a.529.529,0,0,1-.5-.349,30.57,30.57,0,0,1-1.719-10.218,18.182,18.182,0,0,1,2.191-8.252c.131-.277.258-.547.379-.81h3.954l.1.226a.469.469,0,1,0,.851-.4,9.425,9.425,0,0,1-.96-2.854,15.78,15.78,0,0,1,.266-3.774,15.821,15.821,0,0,0,.238-2.2,2.476,2.476,0,0,0-4.952,0,15.82,15.82,0,0,0,.238,2.2,15.777,15.777,0,0,1,.266,3.774,11.317,11.317,0,0,1-1.233,3.433,18.982,18.982,0,0,0-2.281,8.653,31.548,31.548,0,0,0,1.777,10.542,1.478,1.478,0,0,0,1.382.964h4.654a1.477,1.477,0,0,0,1.382-.964c.077-.209.153-.428.228-.654a10.5,10.5,0,0,0,13.725-15.53ZM56.02,10.535a9.49,9.49,0,0,0,.361-1.068H58.8a9.593,9.593,0,0,0,.36,1.068Zm.572-3.075h2a9.317,9.317,0,0,0,.037,1.068H56.554A9.316,9.316,0,0,0,56.591,7.46Zm2.051-.939h-2.1c-.032-.361-.075-.718-.123-1.068h2.35C58.718,5.8,58.674,6.161,58.643,6.522ZM57.591.939a1.539,1.539,0,0,1,1.537,1.537A15.092,15.092,0,0,1,58.9,4.515H56.278a15.1,15.1,0,0,1-.225-2.039A1.539,1.539,0,0,1,57.591.939Z" transform="translate(-52.105)" fill="#2d3155"/></svg>