<svg xmlns="http://www.w3.org/2000/svg" width="31.276" height="30.183" viewBox="0 0 31.276 30.183"><path d="M35.507,31.028l-9.4-8.466a1.668,1.668,0,0,0-.745-.383l.438-.148a.522.522,0,0,0,.353-.537l-.055-.659.627-.212a.522.522,0,0,0,.353-.537l-.055-.659.63-.212A.522.522,0,0,0,28,18.678l-.055-.659.625-.209a.521.521,0,0,0,.354-.538l-.055-.66L29.5,16.4a.522.522,0,0,0,.353-.537L29.8,15.2,30.425,15a.522.522,0,0,0,.354-.539l-.057-.658.629-.212a.522.522,0,0,0,.353-.537l-.055-.659.625-.209a.522.522,0,0,0,.354-.537l-.055-.662.626-.209.017-.008.021-.009a.517.517,0,0,0,.155-.1l.007,0s0-.007.007-.01a.514.514,0,0,0,.1-.153l.009-.022a.519.519,0,0,0,.035-.172c0-.008,0-.015,0-.023a.512.512,0,0,0-.024-.157c0-.006-.006-.011-.008-.018s-.006-.014-.009-.021a.511.511,0,0,0-.1-.155s0,0,0-.007L31,7.466a.522.522,0,0,0-.369-.156h0a.523.523,0,0,0-.369.153l-10.51,10.51L16.9,15.125l.78-.78a1.624,1.624,0,0,0,.349-1.771,8.853,8.853,0,0,1,1.482-1.93c.442-.342,2.3-1.339,2.98-1.694a.522.522,0,0,0,.127-.831l-.657-.657a.519.519,0,0,0-.442-.147,28.252,28.252,0,0,0-3.81.792,13.973,13.973,0,0,0-2.738,1.415,1.621,1.621,0,0,0-1.756.356L9.175,13.918a1.623,1.623,0,0,0-.193,2.057l-.892.891a1.755,1.755,0,0,0-2.14.276l-.8.8a.521.521,0,0,0,0,.737l3.729,3.729a.522.522,0,0,0,.737,0l.8-.8a1.773,1.773,0,0,0,.275-2.14l.891-.891a1.619,1.619,0,0,0,2.058-.194l.78-.78,2.848,2.848L15.717,22a1.8,1.8,0,0,0-2.157.309L7.679,28.194A1.586,1.586,0,0,0,7.557,30.3l5.218,6.591a1.587,1.587,0,0,0,2.365.137l4.538-4.538a2.046,2.046,0,0,0,.6-1.458V29.38l.881-.3a.522.522,0,0,0,.353-.536l-.053-.664.628-.212a.515.515,0,0,0,.3-.271l7.953,8.83a2.566,2.566,0,0,0,3.63,0l1.554-1.554A2.575,2.575,0,0,0,35.507,31.028ZM30.623,8.572l1.452,1.478-.222.074a.522.522,0,0,0-.354.537l.055.662-.626.21a.521.521,0,0,0-.354.538l.055.659-.63.212a.522.522,0,0,0-.353.539l.057.657-.624.209a.521.521,0,0,0-.354.538l.055.66-.627.212a.522.522,0,0,0-.353.537l.055.659-.625.209a.521.521,0,0,0-.354.538l.055.659-.63.212a.522.522,0,0,0-.353.537l.055.66-.627.212a.522.522,0,0,0-.353.537l.055.659-.627.212a.522.522,0,0,0-.353.538l.037.436-3.647-3.65Zm-12.577.522A24.331,24.331,0,0,1,21.3,8.4,25.942,25.942,0,0,0,18.872,9.82a8.4,8.4,0,0,0-1.534,1.89l-.471-.47-1.032-1.032A12.053,12.053,0,0,1,18.047,9.094ZM9.679,20.871,9.25,21.3,6.258,18.309l.429-.429a.749.749,0,0,1,1.035,0l.046.046h0l.932.932.978.978A.734.734,0,0,1,9.679,20.871ZM10,18.684l-.564-.564-.564-.564.823-.823,1.127,1.127Zm2.9-1.038a.593.593,0,0,1-.819,0L9.912,15.474a.58.58,0,0,1,0-.819l4.039-4.039a.579.579,0,0,1,.818,0l2.174,2.173a.58.58,0,0,1,0,.819l-2.02,2.02-.871.871h0Zm3.259-1.784,3.213,3.213,0,0,0,0,3.9,3.9a.511.511,0,0,0-.1.264l-.822.822-3.979-3.979,0,0,0,0-3.214-3.214Zm3.078,15.17a1.012,1.012,0,0,1-.3.721L14.4,36.291a.544.544,0,0,1-.811-.047L8.375,29.653a.544.544,0,0,1,.042-.722L14.3,23.05a.784.784,0,0,1,1.1,0s0,0,0,.006l.009.006,3.595,3.595a.781.781,0,0,1,.23.555Zm1.505-4.005a.522.522,0,0,0-.353.536l.053.664-.163.055V27.208a1.816,1.816,0,0,0-.536-1.293l-3.234-3.234,1.492-1.492,3.655,3.655a1.667,1.667,0,0,0-.225.938.515.515,0,0,0-.12.368l.055.663ZM34.79,33.94l-1.554,1.554a1.526,1.526,0,0,1-2.137.02l-8.466-9.4a.634.634,0,0,1,.022-.872l.069-.069h0l1.512-1.512.637-.215a.515.515,0,0,0,.284-.242.63.63,0,0,1,.25.136l9.382,8.447A1.527,1.527,0,0,1,34.79,33.94Z" transform="translate(-5 -7.31)" fill="#2d3155"/><circle cx="0.595" cy="0.595" r="0.595" transform="translate(9.427 16.785)" fill="#2d3155"/><circle cx="0.595" cy="0.595" r="0.595" transform="translate(12.36 19.717)" fill="#2d3155"/><path d="M23.7,63.406a1.895,1.895,0,0,0-2.812-.148l-1.771,1.769a.521.521,0,0,0-.036.7l3.93,4.853a.521.521,0,0,0,.378.193h.027a.523.523,0,0,0,.369-.153l1.973-1.972a1.891,1.891,0,0,0,.134-2.533Zm1.322,4.5-1.564,1.563-3.27-4.038L21.625,64a.875.875,0,0,1,1.264.067l2.192,2.707A.851.851,0,0,1,25.021,67.908Z" transform="translate(-14.111 -43.452)" fill="#2d3155"/></svg>