<svg xmlns="http://www.w3.org/2000/svg" width="32.462" height="28.312" viewBox="0 0 32.462 28.312"><path d="M33.369,25.9,17.64,5.3a.626.626,0,0,0-.406-.2.461.461,0,0,0-.406.2L1.1,25.9a.5.5,0,0,0,.1.71.5.5,0,0,0,.71-.1L5.057,22.4V32.9a.479.479,0,0,0,.507.507H28.9a.479.479,0,0,0,.507-.507V22.4l3.146,4.161a.546.546,0,0,0,.71.1A.615.615,0,0,0,33.369,25.9ZM16.727,32.4H8.811c3.6-2.233,6.444-7.662,7.915-11.771Zm1.015,0V20.677c1.421,4.11,4.313,9.539,7.915,11.771H17.741ZM28.4,32.347c-5.784-.66-10.655-13.091-10.655-16.033a.507.507,0,0,0-1.015,0c0,2.994-4.871,15.374-10.655,16.084V21.083L17.234,6.419,28.4,21.032Z" transform="translate(-0.995 -5.1)" fill="#2d3155"/></svg>