<svg xmlns="http://www.w3.org/2000/svg" width="30.384" height="30.384" viewBox="0 0 30.384 30.384"><path d="M42.8,11.923a.5.5,0,0,0,.358-.148L48.079,6.85a.506.506,0,0,0-.716-.716l-4.925,4.925a.506.506,0,0,0,.358.864Z" transform="translate(-20.874 -2.954)" fill="#2d3155"/><path d="M29.22,25.661l-3.968-2.568-4.1-4.1A41.583,41.583,0,0,0,30.376.6a.507.507,0,0,0-.588-.588A41.584,41.584,0,0,0,11.394,9.235l-4.1-4.1L4.723,1.163A2.547,2.547,0,0,0,.784.746L.746.784a2.547,2.547,0,0,0,.417,3.939L5.132,7.291l4.1,4.1C4.792,16.042,1.388,21,.089,24.722a1.578,1.578,0,0,0,.373,1.64l3.557,3.557a1.581,1.581,0,0,0,1.642.376c3.722-1.3,8.68-4.7,13.335-9.14l4.1,4.1L25.66,29.22a2.547,2.547,0,0,0,3.939.417l.038-.038a2.547,2.547,0,0,0-.417-3.939Zm0-24.494a40.452,40.452,0,0,1-8.784,17.106l-.785-.785c2.2-2.461,2.641-5.582.957-7.272L20.2,9.81c-1.661-1.655-4.854-1.218-7.3.93l-.788-.788A40.451,40.451,0,0,1,29.216,1.167Zm-9.2,14.006a4.5,4.5,0,0,0-1.3-3.063L18.3,11.7a4.544,4.544,0,0,0-3.1-1.311c1.641-.81,3.32-.819,4.277.134l.4.4C20.836,11.883,20.823,13.547,20.013,15.173ZM17.588,12.42l.4.4a3.493,3.493,0,0,1,.754,3.763l-4.94-4.94a3.55,3.55,0,0,1,3.782.773ZM1.021,2.746A1.528,1.528,0,0,1,1.462,1.5L1.5,1.462a1.534,1.534,0,0,1,2.373.251l2.374,3.67-.864.864L1.714,3.873A1.528,1.528,0,0,1,1.021,2.746ZM6.895,6.168,24.216,23.489l-.364.364-.364.363L6.168,6.895ZM4.57,22.59a3.66,3.66,0,0,0,.723,1.027L6.767,25.09a3.679,3.679,0,0,0,1.023.726c-.539.308-1.064.588-1.569.83a1.079,1.079,0,0,1-1.235-.226L3.961,25.4a1.078,1.078,0,0,1-.223-1.234C3.977,23.661,4.258,23.134,4.57,22.59Zm4.446,2.487a2.152,2.152,0,0,1-1.533-.7L6.009,22.9a2.153,2.153,0,0,1-.7-1.533c.584-.922,1.249-1.882,1.985-2.858.861-1.14,1.84-2.329,4.171-4.889l5.309,5.309a52.5,52.5,0,0,1-7.754,6.148ZM5.327,29.338a.565.565,0,0,1-.588-.133L1.175,25.642a.563.563,0,0,1-.13-.586c1.253-3.588,4.567-8.4,8.9-12.952l.8.8c-2.379,2.612-3.379,3.828-4.262,5a35.631,35.631,0,0,0-3.657,5.822,2.089,2.089,0,0,0,.422,2.391l1.021,1.021a2.109,2.109,0,0,0,1.5.629,2.049,2.049,0,0,0,.893-.2,46.056,46.056,0,0,0,10.826-7.913l.793.793C13.73,24.771,8.916,28.086,5.327,29.338Zm23.595-.455-.038.038a1.534,1.534,0,0,1-2.373-.251L24.136,25,25,24.136l3.669,2.375a1.534,1.534,0,0,1,.251,2.373Z" transform="translate(0 0)" fill="#2d3155"/></svg>