<svg xmlns="http://www.w3.org/2000/svg" width="32.473" height="31.458" viewBox="0 0 32.473 31.458"><path d="M8.763,48.926A7.763,7.763,0,1,0,1,41.163,7.8,7.8,0,0,0,8.763,48.926Zm0-14.461a6.723,6.723,0,1,1-6.748,6.7A6.7,6.7,0,0,1,8.763,34.466Z" transform="translate(-1 -17.468)" fill="#2d3155"/><path d="M7.307,44.528a.479.479,0,0,0,.507-.507,3.833,3.833,0,0,1,3.805-3.805.507.507,0,0,0,0-1.015A4.851,4.851,0,0,0,6.8,44.02.508.508,0,0,0,7.307,44.528Z" transform="translate(-3.857 -20.325)" fill="#2d3155"/><path d="M15.3,52.52a.479.479,0,0,0,.507.507,4.851,4.851,0,0,0,4.82-4.82.507.507,0,1,0-1.015,0,3.833,3.833,0,0,1-3.805,3.805A.508.508,0,0,0,15.3,52.52Z" transform="translate(-8.044 -24.512)" fill="#2d3155"/><path d="M12.6,46.877a1.873,1.873,0,0,0,1.877,1.877,1.842,1.842,0,0,0,1.877-1.877,1.877,1.877,0,1,0-3.755,0Zm2.689,0a.855.855,0,0,1-.863.863.863.863,0,0,1,0-1.725A.855.855,0,0,1,15.289,46.877Z" transform="translate(-6.714 -23.182)" fill="#2d3155"/><path d="M46.266,14.177H44.389V9a7,7,0,0,0-14,0v5.175H28.507a.479.479,0,0,0-.507.507v1.877a9.366,9.366,0,0,0,7.459,9.184v3.907h-1.37A2.382,2.382,0,0,0,31.7,32.037v.913a.479.479,0,0,0,.507.507H42.562a.479.479,0,0,0,.507-.507v-.913a2.382,2.382,0,0,0-2.385-2.385h-1.37V25.746a9.408,9.408,0,0,0,7.459-9.184V14.685A.508.508,0,0,0,46.266,14.177Zm-2.892,2.537H31.4v-2.03h0v-.66H43.374C43.374,15.091,43.374,16.156,43.374,16.714Zm-.1,1.015a6.016,6.016,0,0,1-11.771,0ZM32.972,4.943v5.48a.507.507,0,0,0,1.015,0V4.03a4.528,4.528,0,0,1,1.573-.761v7.154a.507.507,0,0,0,1.015,0V3.066a4.365,4.365,0,0,1,.812-.051,4.643,4.643,0,0,1,.812.051v7.357a.507.507,0,0,0,1.015,0V3.268a7.531,7.531,0,0,1,1.573.761v6.342a.507.507,0,0,0,1.015,0V4.943a6.006,6.006,0,0,1,1.573,4.008V13.01H31.4V8.951A6.006,6.006,0,0,1,32.972,4.943Zm9.082,27.095v.406H32.719v-.406a1.364,1.364,0,0,1,1.37-1.37h6.6A1.364,1.364,0,0,1,42.055,32.037ZM38.3,29.653H36.473V25.9a10.974,10.974,0,0,0,1.827,0Zm7.459-13.091a8.372,8.372,0,1,1-16.744,0v-1.37h1.37v1.37a7,7,0,0,0,14,0v-1.37h1.37Z" transform="translate(-14.301 -2)" fill="#2d3155"/></svg>