<svg xmlns="http://www.w3.org/2000/svg" width="32.238" height="32.424" viewBox="0 0 32.238 32.424"><path d="M27.607,38.408a2.207,2.207,0,0,1,.3.355c0,.051.355,4.465-3.7,4.465a.507.507,0,0,0,0,1.015A4.691,4.691,0,0,0,28.419,41.6a4.691,4.691,0,0,0,4.211,2.638.507.507,0,0,0,0-1.015c-4.008,0-3.7-4.414-3.7-4.465l.3-.3a4.748,4.748,0,0,0,1.421-1.979A1.567,1.567,0,0,0,29.18,34.4H27.658a1.608,1.608,0,0,0-1.471,2.131A5.547,5.547,0,0,0,27.607,38.408Zm.051-3.1H29.18a.566.566,0,0,1,.507.761A4.374,4.374,0,0,1,28.419,37.8a3.938,3.938,0,0,1-1.268-1.725A.566.566,0,0,1,27.658,35.313Z" transform="translate(-12.286 -17.502)" fill="#2d3155"/><path d="M41.735,27.381a2.627,2.627,0,0,0,2.435-2.791,2.458,2.458,0,1,0-4.871,0A2.627,2.627,0,0,0,41.735,27.381Zm0-4.617a1.62,1.62,0,0,1,1.421,1.776,1.656,1.656,0,0,1-1.421,1.776,1.62,1.62,0,0,1-1.421-1.776A1.62,1.62,0,0,1,41.735,22.764Z" transform="translate(-19.97 -11.295)" fill="#2d3155"/><path d="M19.535,27.381a2.627,2.627,0,0,0,2.435-2.791A2.628,2.628,0,0,0,19.535,21.8,2.661,2.661,0,0,0,17.1,24.591,2.627,2.627,0,0,0,19.535,27.381Zm0-4.617a1.62,1.62,0,0,1,1.421,1.776,1.656,1.656,0,0,1-1.421,1.776,1.656,1.656,0,0,1-1.421-1.776A1.62,1.62,0,0,1,19.535,22.764Z" transform="translate(-9.034 -11.295)" fill="#2d3155"/><path d="M43.791,42a.482.482,0,0,0,.609.355,9.772,9.772,0,0,0,5.378-3.45.507.507,0,0,0-.812-.609,8.809,8.809,0,0,1-4.82,3.1A.522.522,0,0,0,43.791,42Z" transform="translate(-22.178 -19.322)" fill="#2d3155"/><path d="M16.3,42.019a.522.522,0,0,0-.355-.609,8.615,8.615,0,0,1-4.82-3.1.507.507,0,1,0-.812.609,9.772,9.772,0,0,0,5.378,3.45A.466.466,0,0,0,16.3,42.019Z" transform="translate(-5.648 -19.337)" fill="#2d3155"/><path d="M2.166,21.647a.562.562,0,0,0-.71-.2.562.562,0,0,0-.2.71,9.018,9.018,0,0,0,3.3,2.994,13.95,13.95,0,0,0,25.572,0,8.767,8.767,0,0,0,3.247-2.943.522.522,0,1,0-.913-.507,7.777,7.777,0,0,1-1.776,1.928,14.234,14.234,0,0,0,.609-4.161,14.468,14.468,0,0,0-2.03-7.357,21.02,21.02,0,0,0,.051-10.655A.48.48,0,0,0,28.55,1.2,20.439,20.439,0,0,0,23.375,6.73a13.989,13.989,0,0,0-12.076,0A22.408,22.408,0,0,0,6.123,1.2a.5.5,0,0,0-.761.254,20.344,20.344,0,0,0,.051,10.655,14.331,14.331,0,0,0-2.03,7.357,13.987,13.987,0,0,0,.609,4.161A6.634,6.634,0,0,1,2.166,21.647Zm2.182-2.283c0-4.668,2.233-6.85,2.08-7.408a19.231,19.231,0,0,1-.3-9.539A20.98,20.98,0,0,1,10.69,7.542a.5.5,0,0,0,.66.2,12.962,12.962,0,0,1,11.974,0,.5.5,0,0,0,.66-.2A19.983,19.983,0,0,1,28.55,2.417c1.37,6.342-.609,9.336-.2,9.945a13.1,13.1,0,0,1,2.03,7,13.353,13.353,0,0,1-.964,4.972,8.942,8.942,0,0,1-5.277.609.517.517,0,1,0-.2,1.015,10.176,10.176,0,0,0,4.82-.254,13.133,13.133,0,0,1-11.416,6.8,12.991,12.991,0,0,1-11.365-6.8,9.761,9.761,0,0,0,4.82.254.517.517,0,1,0-.2-1.015,8.888,8.888,0,0,1-5.277-.609A13.353,13.353,0,0,1,4.347,19.364Z" transform="translate(-1.203 -1.096)" fill="#2d3155"/></svg>