<svg xmlns="http://www.w3.org/2000/svg" width="29.221" height="31.846" viewBox="0 0 29.221 31.846"><path d="M50.2,12.853a.469.469,0,0,0-.469-.469H25.669v-.031c0-.063,0-.126-.009-.188l1.691-.565a.469.469,0,1,0-.3-.89l-.218.073L28.773,6.9l2.54-.848-1.938,3.88-.319.107a.469.469,0,1,0,.3.89L48.378,4.581a.469.469,0,0,0,.3-.594L47.565.663A.971.971,0,0,0,46.338.05L21.643,8.293a.971.971,0,0,0-.613,1.227l.769,2.3a1.965,1.965,0,0,0-.073.529v1.5a1.963,1.963,0,0,0,.5,1.311V30.876a.971.971,0,0,0,.97.97H49.231a.971.971,0,0,0,.97-.97Zm-.939,3.536h-1.9l1.9-1.9Zm-9.913,0,3.066-3.066h2.678l-3.066,3.066Zm-4.005,0,3.066-3.066h2.678l-3.066,3.066Zm-4.005,0,3.066-3.066h2.678l-3.066,3.066Zm-4.005,0L30.4,13.322h2.678l-3.066,3.066Zm1.739-3.066-3.066,3.066H23.166v-.637a1.97,1.97,0,0,0,2.5-1.9v-.532Zm-6.408.532v-1.5a1.033,1.033,0,0,1,2.065,0v1.5a1.033,1.033,0,0,1-2.065,0ZM25.576,11.2l-.227.076a1.972,1.972,0,0,0-1.483-.89l1.108-2.218,2.54-.848Zm7-5.568,2.54-.848-1.938,3.88-2.54.848Zm6.339-2.116L36.974,7.4l-2.54.848,1.938-3.88Zm3.8-1.268L40.773,6.13l-2.54.848L40.171,3.1Zm4.925,1.589-1.8.6,1.2-2.407ZM46.51.982l-1.938,3.88-2.54.848L43.97,1.83ZM21.94,9.184l1.774-.592-1.036,2.073a1.975,1.975,0,0,0-.225.159l-.534-1.6A.031.031,0,0,1,21.94,9.184Zm27.29,21.724H23.2a.031.031,0,0,1-.031-.031V17.327H43.724a.469.469,0,1,0,0-.939h-.369l3.066-3.066H49.1l-3.066,3.066h-.306a.469.469,0,0,0,0,.939h3.536V30.876A.031.031,0,0,1,49.231,30.908Z" transform="translate(-20.98)" fill="#2d3155"/><path d="M124.4,341.88H105.37a.469.469,0,1,0,0,.939H124.4a.469.469,0,0,0,0-.939Z" transform="translate(-99.649 -320.485)" fill="#2d3155"/><path d="M124.4,413.88H105.37a.469.469,0,0,0,0,.939H124.4a.469.469,0,0,0,0-.939Z" transform="translate(-99.649 -387.979)" fill="#2d3155"/></svg>