<svg xmlns="http://www.w3.org/2000/svg" width="25.935" height="32.042" viewBox="0 0 25.935 32.042"><path d="M74.68,2.1,73.85.275a.469.469,0,0,0-.621-.233L68.108,2.369A2.485,2.485,0,0,0,66.784,3.84l-.727,2.18H59.734a4.481,4.481,0,1,0-3.424,4.832l.661.925a5.551,5.551,0,1,1,3.539-7.14.469.469,0,1,0,.885-.313,6.487,6.487,0,1,0-3.855,8.249l5.8,8.113v5.869A4.552,4.552,0,0,1,58.788,31.1a.469.469,0,1,0,0,.939H68.821a.469.469,0,1,0,0-.939,4.552,4.552,0,0,1-4.547-4.547V20.686L74.22,6.762a.469.469,0,0,0-.382-.742H69.162l.351-1.055,4.934-2.242A.469.469,0,0,0,74.68,2.1ZM69.3,12.04H67.818a.469.469,0,1,0,0,.939h.808L67.146,15.05H60.463l-1.479-2.071h6.828a.469.469,0,1,0,0-.939h-7.5l-1.779-2.49a3.889,3.889,0,0,1,.416.138,4.159,4.159,0,0,0,3,0,3.22,3.22,0,0,1,2.344,0,4.159,4.159,0,0,0,3,0,3.227,3.227,0,0,1,2.347,0,4.167,4.167,0,0,0,3.007,0,3.891,3.891,0,0,1,.418-.139ZM63.8,19.728l-2.671-3.74h5.342Zm-3-12.77a5.49,5.49,0,0,1-.388,1.623,3.913,3.913,0,0,0-.794.228,3.221,3.221,0,0,1-2.345,0,3.733,3.733,0,0,0-1.475-.28l-1.121-1.57Zm6.5,1.646a4.126,4.126,0,0,0-.835-.077c-.094,0-.183,0-.267.007l.525-1.576H67.86Zm-2.162.139-.176.065a3.221,3.221,0,0,1-2.345,0,3.675,3.675,0,0,0-1.193-.271,6.426,6.426,0,0,0,.313-1.579h4Zm-9.873,1.289A3.544,3.544,0,1,1,58.788,6.02H53.771a.469.469,0,0,0-.382.742l2.318,3.245A3.6,3.6,0,0,1,55.276,10.033ZM65.755,31.1h-3.9A5.521,5.521,0,0,0,63.8,28.775,5.522,5.522,0,0,0,65.755,31.1ZM72.926,6.958,71.8,8.528a3.74,3.74,0,0,0-1.477.28,2.831,2.831,0,0,1-1.174.221,2.765,2.765,0,0,1-.948-.139l.644-1.932ZM68.939,4.2a.469.469,0,0,0-.251.279L68.173,6.02H67.047l.628-1.883a1.543,1.543,0,0,1,.822-.913L73.19,1.091l.442.972Z" transform="translate(-48.787 0)" fill="#2d3155"/></svg>