<svg xmlns="http://www.w3.org/2000/svg" width="30.083" height="30.083" viewBox="0 0 30.083 30.083"><path d="M49.852,25.434h2.358a1.507,1.507,0,1,0,0-3.015H49.852a1.507,1.507,0,1,0,0,3.015Zm0-2.262h2.358a.755.755,0,1,1,0,1.51H49.852a.755.755,0,1,1,0-1.51Z" transform="translate(-33.926 -17.75)" fill="#2d3155"/><path d="M26.593,62.271a3.289,3.289,0,1,0-3.3-3.289A3.3,3.3,0,0,0,26.593,62.271Zm0-5.827a2.537,2.537,0,1,1-2.544,2.537A2.543,2.543,0,0,1,26.593,56.444Z" transform="translate(-18.297 -38.51)" fill="#2d3155"/><path d="M29.239,47.026a1.7,1.7,0,1,0-1.7-1.7A1.7,1.7,0,0,0,29.239,47.026Zm0-2.645a.947.947,0,1,1-.95.947A.949.949,0,0,1,29.239,44.38Z" transform="translate(-20.942 -30.983)" fill="#2d3155"/><path d="M11.407,20.5h1.53v.012A89.1,89.1,0,0,1,11.573,30a24.269,24.269,0,0,0-.384,4.294v2.155a1.284,1.284,0,0,0-.777,1.178V38.8a1.284,1.284,0,0,0,1.282,1.282H38.8A1.284,1.284,0,0,0,40.083,38.8V37.625a1.28,1.28,0,0,0-1.2-1.274,5.707,5.707,0,0,0-4.734-5.293l-6.02-.63a4.513,4.513,0,0,1-4.062-4.5V21.185a1.31,1.31,0,0,1,1.311-1.307h2.864a2.6,2.6,0,0,1,1.847.763L31.75,22.3a1.842,1.842,0,0,0,1.309.541h1.155v1.965a.376.376,0,0,0,.376.376h1.226v3.308a.376.376,0,0,0,.752,0V25.184h1.226a.376.376,0,0,0,.376-.376V22.843h.049a1.853,1.853,0,0,0,1.852-1.849V15.955A3.777,3.777,0,0,0,36.3,12.186h-.8v-.781A1.408,1.408,0,0,0,34.086,10H30.835a1.408,1.408,0,0,0-1.407,1.405v.781H15.342a2.4,2.4,0,0,0-2.4,2.262H11.407A1.408,1.408,0,0,0,10,15.853V19.1A1.408,1.408,0,0,0,11.407,20.5ZM39.331,37.625V38.8a.531.531,0,0,1-.53.53H11.695a.531.531,0,0,1-.53-.53V37.625a.531.531,0,0,1,.53-.53H38.8A.531.531,0,0,1,39.331,37.625ZM37.418,24.432H34.966V22.843h2.452ZM30.18,11.405a.655.655,0,0,1,.655-.653h3.251a.655.655,0,0,1,.655.653v.781H30.18ZM13.689,20.513V14.586a1.652,1.652,0,0,1,1.653-1.648H36.3a3.024,3.024,0,0,1,3.024,3.017v5.039a1.1,1.1,0,0,1-1.1,1.1H33.059a1.094,1.094,0,0,1-.778-.322l-1.664-1.66a3.345,3.345,0,0,0-2.379-.983H25.374a2.063,2.063,0,0,0-2.063,2.059v4.748a5.263,5.263,0,0,0,4.736,5.243l6.02.63a4.925,4.925,0,0,1,4.06,4.537H11.941V34.292a23.511,23.511,0,0,1,.372-4.16A89.054,89.054,0,0,0,13.689,20.513Zm-2.937-4.661a.655.655,0,0,1,.655-.653h1.53v4.549h-1.53a.655.655,0,0,1-.655-.653Z" transform="translate(-10 -10)" fill="#2d3155"/></svg>