<svg xmlns="http://www.w3.org/2000/svg" width="33.286" height="33.802" viewBox="0 0 33.286 33.802"><path d="M1.593,25.478a1.959,1.959,0,0,0,.529,1.535,2.182,2.182,0,0,0,3.07-.159A17.4,17.4,0,0,0,7.2,22.99a5.575,5.575,0,0,0,1.535.9,3.336,3.336,0,0,0,3.653-.794L23.615,11.873C24.886,10.6,25.1,8.7,23.509,6.685a19.949,19.949,0,0,0,3.864-2.012,2.179,2.179,0,0,0,.159-3.07,2.182,2.182,0,0,0-3.07.159A17.4,17.4,0,0,0,22.45,5.627c-2.065-1.588-4.023-1.323-5.188-.106L6.093,16.743A3.478,3.478,0,0,0,5.3,20.4a5.575,5.575,0,0,0,.9,1.535A18.4,18.4,0,0,0,2.334,24,2.485,2.485,0,0,0,1.593,25.478ZM25.309,2.5A1.164,1.164,0,0,1,26.9,2.345a1.173,1.173,0,0,1-.159,1.588,16.641,16.641,0,0,1-2.965,1.588A13.653,13.653,0,0,1,25.309,2.5ZM6.834,17.484,18.057,6.262c1.271-1.27,3.017-.635,4.288.582h0c1.271,1.27,1.853,3.017.582,4.288L11.7,22.354a2.378,2.378,0,0,1-2.541.529,5.243,5.243,0,0,1-2.912-2.911A2.333,2.333,0,0,1,6.834,17.484ZM3.075,24.737A16.641,16.641,0,0,1,6.04,23.149a13.742,13.742,0,0,1-1.588,2.964,1.164,1.164,0,0,1-1.588.159,1.006,1.006,0,0,1-.265-.688A1.689,1.689,0,0,1,3.075,24.737Z" transform="translate(-1.585 -1.045)" fill="#2d3155"/><path d="M35.7,29.317a.512.512,0,0,0,.741,0L42.1,23.652a2.668,2.668,0,0,0,0-3.758,2.621,2.621,0,0,0-3.759,0l-5.664,5.717a.512.512,0,0,0,0,.741l1.112,1.112L29.346,31.91c-2.276-1.323-7.623,1.535-9.317,3.176a4.793,4.793,0,0,0,0,6.829h0a4.793,4.793,0,0,0,6.829,0c1.535-1.535,4.553-6.935,3.176-9.317l4.447-4.447ZM20.77,41.227h0c-.159-.212.265-1.588,2.012-3.335a37.612,37.612,0,0,1,5.929-4.658,32.263,32.263,0,0,1-4.659,5.929,6.526,6.526,0,0,1-3.229,2.065Zm0-5.347c1.271-1.27,4.711-3.176,6.935-3.229a38.328,38.328,0,0,0-5.664,4.5,9.7,9.7,0,0,0-2.065,2.859A3.76,3.76,0,0,1,20.77,35.881Zm5.4,5.347a3.846,3.846,0,0,1-4.182.794A10.261,10.261,0,0,0,24.9,39.957a38.568,38.568,0,0,0,4.5-5.664A14.032,14.032,0,0,1,26.17,41.227ZM39.087,20.688a1.633,1.633,0,0,1,2.223,0,1.535,1.535,0,0,1,0,2.223L36.017,28.2l-2.223-2.223Z" transform="translate(-9.592 -9.542)" fill="#2d3155"/></svg>