<svg xmlns="http://www.w3.org/2000/svg" width="20.256" height="30.392" viewBox="0 0 20.256 30.392"><path d="M1.519,31.376H18.737a1.521,1.521,0,0,0,1.519-1.519V27.831a1.515,1.515,0,0,0-.839-1.351l.226-.564a2.026,2.026,0,0,0-1.169-2.649l-1.98-.742a1.5,1.5,0,0,0,.217-.77V20.742a1.521,1.521,0,0,0-1.519-1.519h-1.28a.5.5,0,0,0-.046-.22,11.926,11.926,0,0,1-1.077-3.831h1.391A1.521,1.521,0,0,0,15.7,13.652V12.639a1.521,1.521,0,0,0-1.519-1.519H12.891a15.322,15.322,0,0,1,.631-2.536,4.558,4.558,0,1,0-6.788,0,15.315,15.315,0,0,1,.631,2.536H6.077a1.521,1.521,0,0,0-1.519,1.519v1.013a1.521,1.521,0,0,0,1.519,1.519H7.469A11.841,11.841,0,0,1,6.39,19a.5.5,0,0,0-.046.22H5.064a1.521,1.521,0,0,0-1.519,1.519v1.013a1.5,1.5,0,0,0,.217.77l-1.98.742a2.026,2.026,0,0,0-1.17,2.649l.226.564A1.515,1.515,0,0,0,0,27.831v2.026A1.521,1.521,0,0,0,1.519,31.376Zm17.724-1.519a.507.507,0,0,1-.506.506H17.724V29.35a.506.506,0,1,0-1.013,0v1.013H15.7V29.35a.506.506,0,1,0-1.013,0v1.013H13.673V29.35a.506.506,0,1,0-1.013,0v1.013H11.647V29.35a.506.506,0,1,0-1.013,0v1.013H9.622V29.35a.506.506,0,1,0-1.013,0v1.013H7.6V29.35a.506.506,0,1,0-1.013,0v1.013H5.57V29.35a.506.506,0,1,0-1.013,0v1.013H3.545V29.35a.506.506,0,1,0-1.013,0v1.013H1.519a.507.507,0,0,1-.506-.506V27.831a.507.507,0,0,1,.506-.506H18.737a.507.507,0,0,1,.506.506ZM7.621,3.043A3.545,3.545,0,1,1,6.7,6.467a3.545,3.545,0,0,1,.918-3.424Zm.759,8c-.074-.474-.17-.95-.284-1.416a4.537,4.537,0,0,0,4.065,0c-.114.466-.211.942-.285,1.416,0,.025-.007.053-.011.078H8.391c0-.025-.007-.053-.011-.078Zm-2.81,2.61V12.639a.507.507,0,0,1,.506-.506h8.1a.507.507,0,0,1,.506.506v1.013a.507.507,0,0,1-.506.506h-8.1A.507.507,0,0,1,5.57,13.652Zm2.917,1.519H11.77a13,13,0,0,0,1.091,4.051H7.4a12.89,12.89,0,0,0,1.092-4.051Zm-3.93,5.57a.507.507,0,0,1,.506-.506H15.192a.507.507,0,0,1,.506.506v1.013a.507.507,0,0,1-.506.506H5.064a.507.507,0,0,1-.506-.506ZM1.567,24.755a1,1,0,0,1,.571-.539l2.6-.974.006,0a1.514,1.514,0,0,0,.322.036H15.192a1.514,1.514,0,0,0,.322-.036l.006,0,2.6.974A1.012,1.012,0,0,1,18.7,25.54l-.309.772H1.862l-.309-.772a1.006,1.006,0,0,1,.014-.785Z" transform="translate(0 -0.984)" fill="#2d3155"/></svg>