<svg xmlns="http://www.w3.org/2000/svg" width="26.828" height="32.662" viewBox="0 0 26.828 32.662"><path d="M33.413,27.169a3.848,3.848,0,0,0-3.365-2.906l.2-.153a.457.457,0,0,0,.1-.714,4.934,4.934,0,0,0-4.079-2.09,4.789,4.789,0,0,0-2.4.612L20.717,17.43l10.962-15.6a.539.539,0,0,0-.1-.714.539.539,0,0,0-.714.1L20.105,16.563,9.347,1.267a.5.5,0,0,0-.714-.153.457.457,0,0,0-.1.714l10.962,15.6-3.161,4.487A4.949,4.949,0,0,0,9.857,23.4a.539.539,0,0,0,.1.714l.2.153A3.848,3.848,0,0,0,6.8,27.169a3.9,3.9,0,0,0,1.377,3.977,2.047,2.047,0,0,0,.765,2.141,1.968,1.968,0,0,0,2.753-.51l3.518-5,2.039,1.428a.548.548,0,0,0,.714-.1,5.021,5.021,0,0,0-.816-6.628l2.957-4.13,2.906,4.181a5.007,5.007,0,0,0-.816,6.628.457.457,0,0,0,.714.1l2.039-1.428,3.518,5A1.964,1.964,0,0,0,31.985,31.2,3.944,3.944,0,0,0,33.413,27.169Zm-25.6.255a2.876,2.876,0,0,1,3.467-2.09,3.119,3.119,0,0,1,.612.255h.051l-3.263,4.64A2.827,2.827,0,0,1,7.817,27.424Zm3.11,4.793a1.032,1.032,0,0,1-1.377.255A.984.984,0,0,1,9.3,31.095l3.518-5,1.581,1.122Zm6.475-4.13L10.979,23.6a3.968,3.968,0,0,1,5.2-.561A3.921,3.921,0,0,1,17.4,28.086Zm14.99-.663a2.827,2.827,0,0,1-.867,2.8l-3.263-4.64c.2-.051.306-.153.663-.255A2.876,2.876,0,0,1,32.393,27.424Zm-9.586.663A3.952,3.952,0,0,1,29.232,23.6C29.13,23.651,22.757,28.137,22.807,28.086Zm7.852,4.385a.992.992,0,0,1-1.377-.255l-3.518-5,.1-.051L27.345,26.1l3.518,5A1.031,1.031,0,0,1,30.659,32.471Z" transform="translate(-6.691 -1.026)" fill="#2d3155"/></svg>