<svg xmlns="http://www.w3.org/2000/svg" width="28.921" height="32.473" viewBox="0 0 28.921 32.473"><path d="M8.1,20.839h0A12.668,12.668,0,0,0,20.734,33.473h0a12.639,12.639,0,0,0,3.4-24.811,3.461,3.461,0,0,0-2.892-2.638V1.507A.508.508,0,0,0,20.734,1a.479.479,0,0,0-.507.507V6.023a3.467,3.467,0,0,0-2.892,2.638A12.647,12.647,0,0,0,8.1,20.839Zm2.385-5.581h4.668a25.738,25.738,0,0,0-.609,5.074H9.115A11.46,11.46,0,0,1,10.485,15.258Zm21.868,5.074H26.924a25.738,25.738,0,0,0-.609-5.074h4.668A11.46,11.46,0,0,1,32.353,20.331Zm-1.37,6.089H26.315a25.738,25.738,0,0,0,.609-5.074H32.4A12.22,12.22,0,0,1,30.983,26.42Zm-10.757.964v5.023c-1.573-.355-2.943-2.283-3.805-5.023Zm-4.059-.964a22.335,22.335,0,0,1-.66-5.074h4.719V26.42Zm5.074,6.038V27.384h3.805C24.133,30.175,22.764,32.1,21.241,32.458Zm0-6.038V21.346H25.96a22.335,22.335,0,0,1-.66,5.074Zm4.719-6.089H21.241V15.258H25.3A25.607,25.607,0,0,1,25.96,20.331Zm-4.719-6.089V9.22c1.522.355,2.943,2.283,3.805,5.023ZM20.227,9.22v5.023H16.421C17.334,11.5,18.7,9.575,20.227,9.22Zm0,6.038v5.074H15.508a22.335,22.335,0,0,1,.66-5.074h4.059Zm-5.683,6.089a25.738,25.738,0,0,0,.609,5.074H10.485a12.22,12.22,0,0,1-1.421-5.074Zm-3.45,6.038h4.313a11.44,11.44,0,0,0,2.537,4.769A11.829,11.829,0,0,1,11.094,27.384Zm12.431,4.769a11.127,11.127,0,0,0,2.537-4.769h4.313A11.829,11.829,0,0,1,23.525,32.154Zm6.85-17.911H26.062a11.44,11.44,0,0,0-2.537-4.769A12.3,12.3,0,0,1,30.374,14.243Zm-9.64-7.306a2.573,2.573,0,0,1,2.283,1.421,10.927,10.927,0,0,0-2.283-.2h0a11.58,11.58,0,0,0-2.283.2A2.573,2.573,0,0,1,20.734,6.936ZM17.943,9.524a11.127,11.127,0,0,0-2.537,4.769H11.094A11.829,11.829,0,0,1,17.943,9.524Z" transform="translate(-6.273 -1)" fill="#2d3155"/><path d="M54.266,18.966h-.558a.507.507,0,0,0,0,1.015h.558v.558a.507.507,0,1,0,1.015,0V19.98h.558a.507.507,0,0,0,0-1.015H55.28v-.558a.507.507,0,1,0-1.015,0Z" transform="translate(-28.49 -9.325)" fill="#2d3155"/><path d="M46.073,9.3a.508.508,0,0,0-.507.507v.558h-.558a.507.507,0,1,0,0,1.015h.558v.558a.508.508,0,0,0,.507.507.479.479,0,0,0,.507-.507V11.38h.558a.507.507,0,0,0,0-1.015H46.58V9.807A.508.508,0,0,0,46.073,9.3Z" transform="translate(-24.204 -5.089)" fill="#2d3155"/><path d="M56.873,5.9a.508.508,0,0,0-.507.507v.558h-.558a.508.508,0,0,0-.507.507.479.479,0,0,0,.507.507h.558v.558a.508.508,0,0,0,.507.507.479.479,0,0,0,.507-.507V7.93h.558a.508.508,0,0,0,.507-.507.479.479,0,0,0-.507-.507H57.38V6.407A.544.544,0,0,0,56.873,5.9Z" transform="translate(-29.525 -3.414)" fill="#2d3155"/><path d="M9.238,18.966H8.68v-.558a.508.508,0,0,0-.507-.507.479.479,0,0,0-.507.507v.558H7.107a.507.507,0,1,0,0,1.015h.558v.558a.508.508,0,0,0,.507.507.479.479,0,0,0,.507-.507V19.98h.558a.507.507,0,1,0,0-1.015Z" transform="translate(-5.534 -9.325)" fill="#2d3155"/><path d="M16.873,9.3a.508.508,0,0,0-.507.507v.558h-.558a.507.507,0,1,0,0,1.015h.558v.558a.507.507,0,0,0,1.015,0V11.38h.558a.507.507,0,1,0,0-1.015H17.38V9.807A.591.591,0,0,0,16.873,9.3Z" transform="translate(-9.82 -5.089)" fill="#2d3155"/><path d="M6.073,5.9a.508.508,0,0,0-.507.507v.558H5.007a.508.508,0,0,0-.507.507.479.479,0,0,0,.507.507h.558v.558a.508.508,0,0,0,.507.507.479.479,0,0,0,.507-.507V7.93h.558a.508.508,0,0,0,.507-.507.479.479,0,0,0-.507-.507H6.58V6.407A.479.479,0,0,0,6.073,5.9Z" transform="translate(-4.5 -3.414)" fill="#2d3155"/></svg>