<svg xmlns="http://www.w3.org/2000/svg" width="32.042" height="32.042" viewBox="0 0 32.042 32.042"><path d="M105.726,176.637a7.485,7.485,0,1,0,5.16,5.133.469.469,0,0,0-.9.26,6.546,6.546,0,1,1-4.513-4.489.469.469,0,1,0,.255-.9Z" transform="translate(-90.173 -165.32)" fill="#2d3155"/><path d="M121.336,224.041a9.565,9.565,0,0,1-14.868,11.233.469.469,0,0,0-.6.72,10.505,10.505,0,0,0,16.327-12.335.469.469,0,0,0-.857.382Z" transform="translate(-99.084 -209.401)" fill="#2d3155"/><path d="M49.036,138.761A9.569,9.569,0,0,1,62.5,130.028a.469.469,0,0,0,.384-.857,10.5,10.5,0,0,0-12.5,16.143.469.469,0,0,0,.733-.586A9.46,9.46,0,0,1,49.036,138.761Z" transform="translate(-45.087 -120.232)" fill="#2d3155"/><path d="M31.975,3.776a.469.469,0,0,0-.289-.214l-2.034-.508.478-.478a.469.469,0,1,0-.664-.664l-.478.478L28.48.356a.469.469,0,0,0-.569-.342L26.256.428a2.468,2.468,0,0,0-1.808,1.829l-1.46,6.134-.259.259a13.514,13.514,0,1,0,.664.664l.259-.259,6.134-1.46a2.467,2.467,0,0,0,1.829-1.808l.414-1.655a.469.469,0,0,0-.053-.355Zm-6.613-1.3a1.532,1.532,0,0,1,1.123-1.135l1.2-.3.531,2.125-3.96,3.96Zm.725,16.055a12.59,12.59,0,1,1-4.026-9.212l-.755.755-.023-.023a1.475,1.475,0,0,0-2.083,0l-2.214,2.214a1.473,1.473,0,0,0,0,2.083l.023.023-.678.678a4.489,4.489,0,1,0,.664.664l.678-.678.023.023a1.473,1.473,0,0,0,2.083,0l2.214-2.214a1.475,1.475,0,0,0,0-2.083l-.023-.023.755-.755a12.526,12.526,0,0,1,3.362,8.548ZM17.65,13.683a.535.535,0,0,1,0-.755l2.214-2.214a.535.535,0,0,1,.755,0l.709.709a.535.535,0,0,1,0,.755l-2.214,2.214a.535.535,0,0,1-.755,0Zm-4.469,5.179a.469.469,0,0,0,.664,0l2.482-2.482a3.549,3.549,0,1,1-.664-.664L13.181,18.2A.469.469,0,0,0,13.181,18.861ZM30.7,5.558a1.532,1.532,0,0,1-1.135,1.123l-4.65,1.107,3.96-3.96L31,4.359Z" transform="translate(0 0)" fill="#2d3155"/></svg>