<svg xmlns="http://www.w3.org/2000/svg" width="30.085" height="30.085" viewBox="0 0 30.085 30.085"><path d="M67.677,46.378a15.061,15.061,0,1,1-21.3,0A15.069,15.069,0,0,1,67.677,46.378ZM57.5,51.032l4.457,2.6,4.418-2.6V46.457a14.531,14.531,0,0,0-5.049-2.879L57.5,45.826ZM67.322,47.4v3.629l3.195,1.854A13.693,13.693,0,0,0,67.322,47.4Zm3.55,6.784-4.023-2.327-4.418,2.564v5.206l4.418,2.6,4.023-2.327A13.969,13.969,0,0,0,70.872,54.188Zm-.355,6.981-3.195,1.893v3.629A13.841,13.841,0,0,0,70.517,61.169ZM66.376,67.6V63.063l-4.418-2.6-4.457,2.6v5.206l3.826,2.209A13.387,13.387,0,0,0,66.376,67.6Zm-6.35,3.234-3-1.775-3,1.775A13.97,13.97,0,0,0,60.025,70.833Zm-7.3-.355,3.826-2.209V63.063l-4.418-2.6-4.457,2.6V67.6A14.017,14.017,0,0,0,52.728,70.478Zm-6-3.787V63.063l-3.195-1.893A13.841,13.841,0,0,0,46.733,66.691Zm-3.51-6.784,3.984,2.327,4.457-2.6V54.425l-4.457-2.564-3.984,2.327A13.969,13.969,0,0,0,43.223,59.907Zm.316-7.021,3.195-1.854V47.4A13.693,13.693,0,0,0,43.538,52.886Zm4.142-6.429v4.575l4.457,2.6,4.418-2.6V45.826l-3.826-2.248A15.282,15.282,0,0,0,47.68,46.457Zm6.35-3.195,3,1.735,3-1.735A13.97,13.97,0,0,0,54.03,43.262Zm5.206,9.9-2.209-1.3L52.61,54.425v5.206l4.418,2.6,4.457-2.6V54.425Z" transform="translate(-42 -42)" fill="#2d3155"/></svg>