<svg xmlns="http://www.w3.org/2000/svg" width="30.081" height="30.101" viewBox="0 0 30.081 30.101"><path d="M37.784,29.006a3.09,3.09,0,0,0-4.263-1.135L24.7,33.907l-6.055-11,.569-.318a1.261,1.261,0,0,0,.487-1.706L14.056,10.619a1.246,1.246,0,0,0-1.7-.489l-1.712.956a1.262,1.262,0,0,0-.487,1.706l5.649,10.264a1.244,1.244,0,0,0,1.7.489l.486-.272L25.9,37.637a4.827,4.827,0,0,0,4.193,2.431,4.764,4.764,0,0,0,2.088-.481l6.15-3A3.089,3.089,0,0,0,39.943,34.7a3.15,3.15,0,0,0-.274-2.485ZM17.14,22.889a.487.487,0,0,1-.377.044.5.5,0,0,1-.3-.239L10.816,12.43a.508.508,0,0,1,.195-.687l1.712-.956a.492.492,0,0,1,.241-.063.5.5,0,0,1,.435.259l5.649,10.264a.507.507,0,0,1-.195.687ZM39.225,34.481A2.345,2.345,0,0,1,38,35.913l-6.15,3a4.065,4.065,0,0,1-5.3-1.64l-1.486-2.7,8.853-6.063a2.341,2.341,0,0,1,3.212.876l1.885,3.212A2.362,2.362,0,0,1,39.225,34.481Z" transform="translate(-10.001 -9.971)" fill="#2d3155"/><path d="M68.519,72.065l-6.036,3.379a.376.376,0,0,0,.367.657l6.036-3.379a.376.376,0,0,0-.367-.657Z" transform="translate(-42.628 -48.686)" fill="#2d3155"/><path d="M65.479,65.766a.377.377,0,0,0-.512-.145L58.931,69a.376.376,0,0,0,.367.657l6.035-3.379A.376.376,0,0,0,65.479,65.766Z" transform="translate(-40.412 -44.665)" fill="#2d3155"/><path d="M14.335,75.709A4.312,4.312,0,1,0,10.028,71.4,4.314,4.314,0,0,0,14.335,75.709Zm0-7.871A3.56,3.56,0,1,1,10.78,71.4,3.561,3.561,0,0,1,14.335,67.838Z" transform="translate(-10.018 -45.608)" fill="#2d3155"/></svg>