<svg xmlns="http://www.w3.org/2000/svg" width="36.346" height="30.156" viewBox="0 0 36.346 30.156"><g transform="translate(0 2.163)"><g transform="translate(10.933 12.809)"><path d="M288.78,397.294a2.919,2.919,0,0,1-2.447-1.319,2.919,2.919,0,1,1,4.883-3.2,2.922,2.922,0,0,1-.841,4.042h0A2.879,2.879,0,0,1,288.78,397.294Zm1.281-.956Zm-1.289-3.736a1.743,1.743,0,1,0,.363.034A1.978,1.978,0,0,0,288.772,392.6Z" transform="translate(-285.852 -391.452)" fill="#2d3155"/></g><g transform="translate(15.916 3.521)"><path d="M418.179,160.243a.654.654,0,0,1-.119-.011.566.566,0,0,1-.363-.249l-1.442-2.2a.578.578,0,0,1,.164-.8l12.715-8.337a.578.578,0,0,1,.8.164l1.442,2.2a.556.556,0,0,1,.08.432.566.566,0,0,1-.249.363l-12.715,8.337A.521.521,0,0,1,418.179,160.243Zm-.646-2.6.811,1.235,11.756-7.71-.811-1.235Z" transform="translate(-416.162 -148.562)" fill="#2d3155"/></g><g transform="translate(12.811 7.384)"><path d="M342.306,252.367a.577.577,0,0,1-.386-.149,5.011,5.011,0,0,0-6.069-.8.574.574,0,0,1-.631-.96,6.157,6.157,0,0,1,7.472.91.574.574,0,0,1,.038.811A.567.567,0,0,1,342.306,252.367Z" transform="translate(-334.962 -249.579)" fill="#2d3155"/></g><g transform="translate(0 10.936)"><path d="M8.982,359.529a8.207,8.207,0,0,1-2.1-.283,9.579,9.579,0,0,1-6.83-10.314,7.417,7.417,0,0,1,3.2-5.254,7.241,7.241,0,0,1,4.47-1.193.573.573,0,1,1-.065,1.143,6.1,6.1,0,0,0-3.767,1c-3.071,2.054-3.679,6.578-1.354,10.084s6.708,4.7,9.786,2.681a6.276,6.276,0,0,0,2.73-4.409,2.622,2.622,0,0,1,2.474-2.283,4.311,4.311,0,0,0,2.2-.7,5,5,0,0,0,1.694-5.885.574.574,0,0,1,1.086-.375,6.816,6.816,0,0,1,.149,4.046,5.472,5.472,0,0,1-5.071,4.061,1.472,1.472,0,0,0-1.392,1.308,7.42,7.42,0,0,1-3.235,5.2A7.2,7.2,0,0,1,8.982,359.529Z" transform="translate(0.032 -342.472)" fill="#2d3155"/></g><g transform="translate(28.685)"><path d="M752.655,63.5a1.57,1.57,0,0,1-1.316-.707h0l-1.033-1.576a1.561,1.561,0,0,1,.451-2.168l3.492-2.291a1.571,1.571,0,0,1,2.172.451l1.033,1.576A1.571,1.571,0,0,1,757,60.952l-3.491,2.291A1.6,1.6,0,0,1,752.655,63.5Zm-.356-1.338a.42.42,0,0,0,.581.122l3.491-2.291a.42.42,0,0,0,.122-.581l-1.032-1.576a.42.42,0,0,0-.581-.122L751.389,60a.41.41,0,0,0-.18.268.423.423,0,0,0,.061.317l1.029,1.576Z" transform="translate(-750.049 -56.497)" fill="#2d3155"/></g><g transform="translate(5.166 17.663)"><path d="M138.219,523.446a.576.576,0,0,1-.482-.26l-2.581-3.935a.574.574,0,1,1,.96-.631l2.581,3.935a.578.578,0,0,1-.164.8A.55.55,0,0,1,138.219,523.446Z" transform="translate(-135.062 -518.362)" fill="#2d3155"/></g><g transform="translate(17.928 4.91)"><g transform="translate(9.079)"><path d="M708.01,187.842a.383.383,0,0,1-.321-.172l-1.442-2.2a.381.381,0,0,1,.639-.417l1.442,2.2a.382.382,0,0,1-.111.528A.4.4,0,0,1,708.01,187.842Z" transform="translate(-706.185 -184.885)" fill="#2d3155"/></g><g transform="translate(7.564 0.99)"><path d="M668.41,213.742a.383.383,0,0,1-.321-.172l-1.442-2.2a.381.381,0,0,1,.639-.417l1.442,2.2a.382.382,0,0,1-.111.528A.363.363,0,0,1,668.41,213.742Z" transform="translate(-666.585 -210.785)" fill="#2d3155"/></g><g transform="translate(6.054 1.985)"><path d="M628.91,239.742a.383.383,0,0,1-.321-.172l-1.442-2.2a.381.381,0,0,1,.639-.417l1.442,2.2a.382.382,0,0,1-.111.528A.417.417,0,0,1,628.91,239.742Z" transform="translate(-627.085 -236.785)" fill="#2d3155"/></g><g transform="translate(4.539 2.975)"><path d="M589.31,265.642a.383.383,0,0,1-.321-.172l-1.442-2.2a.381.381,0,1,1,.639-.417l1.442,2.2a.382.382,0,0,1-.111.528A.363.363,0,0,1,589.31,265.642Z" transform="translate(-587.485 -262.685)" fill="#2d3155"/></g><g transform="translate(3.029 3.966)"><path d="M549.806,291.542a.383.383,0,0,1-.321-.172l-1.438-2.2a.381.381,0,1,1,.639-.417l1.442,2.2a.38.38,0,0,1-.321.589Z" transform="translate(-547.985 -288.585)" fill="#2d3155"/></g><g transform="translate(1.514 4.96)"><path d="M510.206,317.542a.383.383,0,0,1-.321-.172l-1.438-2.2a.381.381,0,0,1,.639-.417l1.442,2.2a.38.38,0,0,1-.321.589Z" transform="translate(-508.385 -314.585)" fill="#2d3155"/></g><g transform="translate(0 5.95)"><path d="M470.61,343.442a.383.383,0,0,1-.321-.172l-1.442-2.2a.381.381,0,0,1,.639-.417l1.442,2.2a.38.38,0,0,1-.317.589Z" transform="translate(-468.785 -340.485)" fill="#2d3155"/></g></g></g><g transform="translate(9.377 10.189)"><g transform="translate(0.211 2.345)"><path d="M251.6,329.493a.891.891,0,0,1-.815-.528.869.869,0,0,1-.019-.685.883.883,0,0,1,.47-.5.869.869,0,0,1,.685-.019.883.883,0,0,1,.5.47.9.9,0,0,1-.447,1.182A.934.934,0,0,1,251.6,329.493Zm0-1.021a.151.151,0,0,0-.054.011.134.134,0,0,0-.069.073.128.128,0,1,0,.237,0,.134.134,0,0,0-.073-.069C251.632,328.476,251.617,328.472,251.594,328.472Z" transform="translate(-250.703 -327.703)" fill="#2d3155"/></g><path d="M246.768,269.835a.384.384,0,0,1-.375-.314l-.073-.4a4.309,4.309,0,0,0-1.044-2.107.382.382,0,0,1,.31-.639l1.235.088a.383.383,0,1,1-.054.765l-.394-.027a5.063,5.063,0,0,1,.7,1.782l.073.4a.387.387,0,0,1-.306.447A.485.485,0,0,1,246.768,269.835Z" transform="translate(-245.177 -266.373)" fill="#2d3155"/></g><g transform="translate(28.51 17.794)"><g transform="translate(0 1.776)"><path d="M746.378,513.477a.871.871,0,0,1-.432-.115.894.894,0,1,1,1.216-.348.875.875,0,0,1-.535.424A.818.818,0,0,1,746.378,513.477Zm0-1.021a.124.124,0,0,0-.111.065.128.128,0,0,0,.145.187.117.117,0,0,0,.077-.061h0a.131.131,0,0,0-.05-.176A.112.112,0,0,0,746.378,512.456Z" transform="translate(-745.486 -511.686)" fill="#2d3155"/></g><g transform="translate(2.168 2.984)"><path d="M803.078,545.073a.887.887,0,0,1-.432-.111.894.894,0,1,1,1.216-.348h0A.9.9,0,0,1,803.078,545.073Zm.447-.646Zm-.447-.375a.124.124,0,0,0-.111.065.129.129,0,1,0,.176-.05A.135.135,0,0,0,803.078,544.052Z" transform="translate(-802.186 -543.286)" fill="#2d3155"/></g><g transform="translate(0.931)"><path d="M772.39,469.8a.359.359,0,0,1-.184-.05.384.384,0,0,1-.149-.52l1.361-2.447-1.591-.665-1.27,2.283a.383.383,0,1,1-.669-.371l1.438-2.585a.384.384,0,0,1,.482-.168l2.3.967a.4.4,0,0,1,.214.229.381.381,0,0,1-.027.31l-1.568,2.822A.387.387,0,0,1,772.39,469.8Z" transform="translate(-769.841 -465.25)" fill="#2d3155"/></g></g><g transform="translate(18.732)"><g transform="translate(1.296 3.84)"><path d="M524.564,102.133a.9.9,0,0,1-.662-1.5.894.894,0,0,1,1.262-.061h0a.892.892,0,0,1-.558,1.553C524.594,102.13,524.579,102.133,524.564,102.133Zm0-1.025a.13.13,0,0,0-.13.134.122.122,0,0,0,.042.088.137.137,0,0,0,.092.034.122.122,0,0,0,.088-.042.131.131,0,0,0-.008-.18h0A.119.119,0,0,0,524.568,101.108Z" transform="translate(-523.672 -100.345)" fill="#2d3155"/></g><g transform="translate(2.963 2)"><path d="M568.164,54.033a.9.9,0,0,1-.662-1.5.894.894,0,0,1,1.262-.061h0a.892.892,0,0,1-.558,1.553A.143.143,0,0,1,568.164,54.033Zm0-1.021a.13.13,0,0,0-.13.134.122.122,0,0,0,.042.088.137.137,0,0,0,.092.034.122.122,0,0,0,.088-.042.131.131,0,0,0-.008-.18h0A.119.119,0,0,0,568.164,53.012Z" transform="translate(-567.272 -52.245)" fill="#2d3155"/></g><g transform="translate(0 0)"><path d="M492.369,4.714a.385.385,0,0,1-.256-.1L489.921,2.63a.382.382,0,0,1-.054-.509L491.332.1a.384.384,0,0,1,.272-.157.378.378,0,0,1,.294.1l2.39,2.168a.382.382,0,0,1-.512.566L491.7.894l-1.013,1.4,1.935,1.755a.381.381,0,0,1,.027.539A.358.358,0,0,1,492.369,4.714Z" transform="translate(-489.795 0.057)" fill="#2d3155"/></g></g></svg>