<svg xmlns="http://www.w3.org/2000/svg" width="37.044" height="25.888" viewBox="0 0 37.044 25.888"><path d="M33.246,41.109a.927.927,0,1,0,.656.272A.925.925,0,0,0,33.246,41.109Zm2.676-10.448q.015.285.016.574a10.5,10.5,0,0,1-2.8,7.154l.417.267.262.168v1.227a2.063,2.063,0,1,1-1.137,0v-.607L32.3,39.2a10.533,10.533,0,0,1-13.8-.016l-.406.26v.607a2.063,2.063,0,1,1-1.137,0V38.824l.262-.168.445-.285a10.5,10.5,0,0,1-2.787-7.137q0-.24.011-.476a3.685,3.685,0,0,1-.121-.937,3.788,3.788,0,0,1,.131-.975,11.4,11.4,0,0,1,3.979-5.927,10.476,10.476,0,0,1,5.957-2.2V19.35H7.175V18.213H44.219V19.35H25.961v1.365a10.728,10.728,0,0,1,9.961,8.151,4.091,4.091,0,0,1,.1.9A3.926,3.926,0,0,1,35.923,30.661Zm-3.874-6.069a9.364,9.364,0,0,0-6.087-2.735l.01,13.079a15.733,15.733,0,0,0,2.884-.369,11.085,11.085,0,0,0,4.369-1.926,4.288,4.288,0,0,0,1.551-2.093,9.365,9.365,0,0,0-2.727-5.956Zm-7.22-2.734a9.4,9.4,0,0,0-8.8,8.768A4.208,4.208,0,0,0,17.422,32.5a10.79,10.79,0,0,0,4.043,1.934,15.456,15.456,0,0,0,3.373.5l-.01-13.077ZM16.153,32.872a9.4,9.4,0,0,0,18.505,0,7.163,7.163,0,0,1-.731.66A12.221,12.221,0,0,1,29.1,35.672a16.95,16.95,0,0,1-3.7.41,16.611,16.611,0,0,1-4.229-.552A11.924,11.924,0,0,1,16.7,33.374,7.137,7.137,0,0,1,16.153,32.872Zm2.024,8.508a.928.928,0,1,0,.272.656A.924.924,0,0,0,18.177,41.38Z" transform="translate(-7.175 -18.213)" fill="#2d3155"/></svg>