<svg xmlns="http://www.w3.org/2000/svg" width="32.473" height="32.473" viewBox="0 0 32.473 32.473"><path d="M20.991,38.327c0-2.892-4.617-5.175-10.6-5.328V31.071a7.154,7.154,0,0,0,7.256-7.509.544.544,0,0,0-.507-.507,7.418,7.418,0,0,0-6.748,3.45v-6.6A7.126,7.126,0,0,0,17.642,12.4a.544.544,0,0,0-.507-.507,7.509,7.509,0,0,0-5.886,2.283c-2.486,2.638-1.827,5.531-1.928,6.6a7.293,7.293,0,0,0-6.8-3.5.544.544,0,0,0-.507.507,7.269,7.269,0,0,0,7.357,7.509V33a18.126,18.126,0,0,0-8.118,1.776A.533.533,0,0,0,1,35.232v3.1a.479.479,0,0,0,.507.507H20.484A.508.508,0,0,0,20.991,38.327ZM3.131,18.285a6.122,6.122,0,0,1,6.241,5.987A6.122,6.122,0,0,1,3.131,18.285Zm13.547-5.378a6.188,6.188,0,0,1-6.241,5.987A6.122,6.122,0,0,1,16.678,12.907Zm0,11.163a6.188,6.188,0,0,1-6.241,5.987v-.1A6.1,6.1,0,0,1,16.678,24.069ZM2.015,37.819V35.536a18.373,18.373,0,0,1,7.357-1.522v1.015a.507.507,0,1,0,1.015,0V34.014c4.871.152,8.93,1.776,9.488,3.805Z" transform="translate(-1 -6.361)" fill="#2d3155"/><path d="M52.818,20.281H49.012V8.509a4.09,4.09,0,0,0,2.385-3.7v-3.3A.479.479,0,0,0,50.89,1H43.735a.479.479,0,0,0-.507.507v3.3a4.09,4.09,0,0,0,2.385,3.7V20.281H41.807a.479.479,0,0,0-.507.507v5.683c0,2.689,4.313,6.6,5.886,7h.3c1.522-.457,5.835-4.364,5.835-7.053V20.788A.479.479,0,0,0,52.818,20.281ZM44.243,4.805V2.015h6.19V4.805a3.075,3.075,0,0,1-3.1,3.1A3.107,3.107,0,0,1,44.243,4.805ZM48,8.814c-.2,11.568.457,13.852-.71,17.251-1.167-3.45-.507-5.226-.71-17.251A3.351,3.351,0,0,0,48,8.814ZM52.31,26.42c0,2.03-3.653,5.429-5.023,5.987-1.37-.558-5.023-3.958-5.023-5.987V21.3h3.3a15.763,15.763,0,0,0,1.268,6.393.525.525,0,0,0,.913,0A13.241,13.241,0,0,0,49.012,21.3h3.3Z" transform="translate(-20.852 -1)" fill="#2d3155"/><path d="M53.147,6.407A.479.479,0,0,0,52.64,5.9H50.407a.507.507,0,0,0,0,1.015H52.64A.508.508,0,0,0,53.147,6.407Z" transform="translate(-25.089 -3.414)" fill="#2d3155"/></svg>