<svg xmlns="http://www.w3.org/2000/svg" width="32.524" height="32.321" viewBox="0 0 32.524 32.321"><path d="M29.921,26.317h-2.74v-.71a.78.78,0,0,1,.761-.761h3.2a1.711,1.711,0,0,0,1.725-1.725v-9.59a1.711,1.711,0,0,0-1.725-1.725h-3.6V2.876A1.8,1.8,0,0,0,25.761,1.1H2.776A1.8,1.8,0,0,0,1,2.876V20.888a1.8,1.8,0,0,0,1.776,1.776h8.372L10.387,25.2H9.169a.507.507,0,1,0,0,1.015h10.1a.507.507,0,1,0,0-1.015H18.048l-.761-2.537h8.372a1.8,1.8,0,0,0,1.776-1.776V12.77h3.6a.78.78,0,0,1,.761.761v9.59a.78.78,0,0,1-.761.761H27.892a1.711,1.711,0,0,0-1.725,1.725v.71H22.919a3.552,3.552,0,1,0,3.146,5.226h.761a3.63,3.63,0,0,0,3.146,1.877,3.562,3.562,0,0,0,3.552-3.552A3.675,3.675,0,0,0,29.921,26.317ZM2.776,2.064H25.71a.8.8,0,0,1,.812.812V17.387H1.964V2.876A.8.8,0,0,1,2.776,2.064ZM17.033,25.2H11.452l.761-2.537h4.11Zm8.676-3.5H2.776a.8.8,0,0,1-.812-.812V18.351H26.471v2.537A.792.792,0,0,1,25.71,21.7Zm4.211,10.807a2.6,2.6,0,0,1-2.385-1.573.488.488,0,0,0-.457-.3H25.71a.488.488,0,0,0-.457.3,2.569,2.569,0,1,1-2.334-3.6h7a2.588,2.588,0,1,1,0,5.175Z" transform="translate(-1 -1.1)" fill="#2d3155"/><path d="M43.734,56.013h-.406v-.406a.507.507,0,0,0-1.015,0v.406h-.406a.507.507,0,0,0,0,1.015h.406v.406a.507.507,0,0,0,1.015,0v-.406h.406a.508.508,0,0,0,.507-.507A.479.479,0,0,0,43.734,56.013Z" transform="translate(-20.902 -27.701)" fill="#2d3155"/><path d="M57.534,56.013h-.406v-.406a.507.507,0,0,0-1.015,0v.406h-.406a.507.507,0,1,0,0,1.015h.406v.406a.507.507,0,0,0,1.015,0v-.406h.406a.507.507,0,0,0,0-1.015Z" transform="translate(-27.7 -27.701)" fill="#2d3155"/><path d="M18.3,18.964a5.567,5.567,0,0,0,4.972-2.994.448.448,0,0,0-.2-.66l-3.755-1.979,3.755-1.979a.5.5,0,0,0,.2-.66,5.656,5.656,0,1,0-4.972,8.27Zm0-10.3a4.541,4.541,0,0,1,3.856,2.08l-4.11,2.182a.482.482,0,0,0,0,.863l4.11,2.182A4.68,4.68,0,1,1,18.3,8.664Z" transform="translate(-6.731 -4.351)" fill="#2d3155"/><path d="M31.052,17.952a.5.5,0,1,0,.71,0A.49.49,0,0,0,31.052,17.952Z" transform="translate(-15.729 -9.327)" fill="#2d3155"/><path d="M36.063,18.663a.5.5,0,1,0-.71,0A.54.54,0,0,0,36.063,18.663Z" transform="translate(-17.847 -9.327)" fill="#2d3155"/><path d="M40.463,18.663a.5.5,0,1,0-.71,0A.54.54,0,0,0,40.463,18.663Z" transform="translate(-20.015 -9.327)" fill="#2d3155"/></svg>