<svg xmlns="http://www.w3.org/2000/svg" width="32.042" height="32.041" viewBox="0 0 32.042 32.041"><path d="M42.567,224.458H32.533a.469.469,0,1,0,0,.939H42.567a.469.469,0,1,0,0-.939Z" transform="translate(-30.057 -210.412)" fill="#2d3155"/><path d="M96.193,322.124a1.473,1.473,0,1,0,1.473-1.473A1.474,1.474,0,0,0,96.193,322.124Zm2.007,0a.534.534,0,1,1-.534-.534A.535.535,0,0,1,98.2,322.124Z" transform="translate(-90.173 -300.585)" fill="#2d3155"/><path d="M32.064,386.254a1.473,1.473,0,1,0,1.473-1.473A1.474,1.474,0,0,0,32.064,386.254Zm2.007,0a.534.534,0,1,1-.534-.534A.535.535,0,0,1,34.071,386.254Z" transform="translate(-30.057 -360.701)" fill="#2d3155"/><path d="M161.8,160.329a1.473,1.473,0,1,0,1.473,1.473A1.474,1.474,0,0,0,161.8,160.329Zm0,2.007a.534.534,0,1,1,.534-.534A.535.535,0,0,1,161.8,162.336Z" transform="translate(-150.29 -150.296)" fill="#2d3155"/><path d="M161.8,32.071a1.473,1.473,0,1,0,1.473,1.473A1.474,1.474,0,0,0,161.8,32.071Zm0,2.007a.534.534,0,1,1,.534-.534A.535.535,0,0,1,161.8,34.078Z" transform="translate(-150.29 -30.064)" fill="#2d3155"/><path d="M33.538,163.274a1.473,1.473,0,1,0-1.473-1.473A1.474,1.474,0,0,0,33.538,163.274Zm0-2.007A.534.534,0,1,1,33,161.8.535.535,0,0,1,33.538,161.268Z" transform="translate(-30.058 -150.296)" fill="#2d3155"/><path d="M33.537,35.016a1.473,1.473,0,1,0-1.473-1.473A1.474,1.474,0,0,0,33.537,35.016Zm0-2.007a.534.534,0,1,1-.534.534A.535.535,0,0,1,33.537,33.01Z" transform="translate(-30.057 -30.064)" fill="#2d3155"/><path d="M161.8,256.522a1.473,1.473,0,1,0,1.473,1.473A1.474,1.474,0,0,0,161.8,256.522Zm0,2.007a.534.534,0,1,1,.534-.534A.535.535,0,0,1,161.8,258.529Z" transform="translate(-150.29 -240.469)" fill="#2d3155"/><path d="M32.036,10.463a1.463,1.463,0,0,0-.52-1L22.292,1.724a1.473,1.473,0,0,0-2.075.181L16.163,6.738a.469.469,0,0,0,.719.6l4.055-4.832a.534.534,0,0,1,.752-.066l9.223,7.739a.534.534,0,0,1,.066.752L14.21,30.918a.535.535,0,0,1-.752.066l-2.32-1.946h2.374a1.474,1.474,0,0,0,1.473-1.473v-1a.469.469,0,0,0-.939,0v1a.535.535,0,0,1-.534.534H1.473a.535.535,0,0,1-.534-.534V1.479A.535.535,0,0,1,1.473.945h12.04a.535.535,0,0,1,.534.534V24.555a.469.469,0,0,0,.939,0v-9.4L21.115,20.3a.469.469,0,0,0,.6-.719l-6.733-5.65V1.479A1.474,1.474,0,0,0,13.512.006H1.473A1.474,1.474,0,0,0,0,1.479V27.565a1.474,1.474,0,0,0,1.473,1.473H9.678L12.854,31.7a1.474,1.474,0,0,0,2.075-.182L31.7,11.538a1.462,1.462,0,0,0,.339-1.075Z" transform="translate(0 -0.006)" fill="#2d3155"/><path d="M289.674,209.56a1.472,1.472,0,1,0-.945-.344A1.47,1.47,0,0,0,289.674,209.56Zm-.408-1.815a.534.534,0,1,1,.066.752A.535.535,0,0,1,289.266,207.745Z" transform="translate(-270.167 -193.686)" fill="#2d3155"/><path d="M372.117,111.31a1.472,1.472,0,1,0-.945-.344A1.47,1.47,0,0,0,372.117,111.31Zm-.408-1.815a.534.534,0,1,1,.066.752A.535.535,0,0,1,371.709,109.495Z" transform="translate(-347.451 -101.585)" fill="#2d3155"/><path d="M277.9,321.859a1.473,1.473,0,1,0,.52,1A1.464,1.464,0,0,0,277.9,321.859Zm-.538,1.471a.534.534,0,1,1-.456-.875l.047,0a.534.534,0,0,1,.408.877Z" transform="translate(-258.245 -301.394)" fill="#2d3155"/></svg>