<svg xmlns="http://www.w3.org/2000/svg" width="25.674" height="32.473" viewBox="0 0 25.674 32.473"><path d="M20.537,33.473A12.821,12.821,0,0,0,25.712,8.915l3.3-3.3c.051-.051.1-.1.1-.152a.56.56,0,0,0,0-.406c-.051-.051-.051-.1-.1-.152L25.256,1.152A.576.576,0,0,0,24.85,1H16.173a.461.461,0,0,0-.355.152L12.064,4.907c-.051.051-.1.1-.1.152a.305.305,0,0,0-.051.2.305.305,0,0,0,.051.2c.051.051.051.1.1.152l3.3,3.3a12.821,12.821,0,0,0,5.175,24.558Zm-3.1-27.7,1.928,5.683-.66-.66h0l-2.03-2.03h0L13.687,5.769Zm9.945,0-4.82,4.82-.2.2h0l-.71.71L23.581,5.82h3.805Zm-6.85,5.987-2.03-5.987h4.059Zm-.355,1.928a.49.49,0,0,0,.71,0l2.03-2.03a9.382,9.382,0,1,1-4.769.051Zm7.2-8.93H23.632l-.913-2.74H24.7Zm-5.733-2.74.913,2.74H18.507l.913-2.74Zm-5.226,0h1.979l-.913,2.74H13.738Zm-.254,7.662,1.167,1.167a10.3,10.3,0,1,0,6.393,0L24.9,9.676a11.822,11.822,0,1,1-8.727,0Z" transform="translate(-7.7 -1)" fill="#2d3155"/><path d="M51.371,15.843a.479.479,0,0,0,.507-.507v-.457h.457a.507.507,0,1,0,0-1.015h-.457v-.457a.507.507,0,0,0-1.015,0v.457h-.457a.507.507,0,0,0,0,1.015h.457v.457A.479.479,0,0,0,51.371,15.843Z" transform="translate(-28.488 -6.862)" fill="#2d3155"/><path d="M11.871,1.6a.479.479,0,0,0-.507.507v.457h-.457a.479.479,0,0,0-.507.507.479.479,0,0,0,.507.507h.457v.457a.507.507,0,0,0,1.015,0V3.579h.457a.479.479,0,0,0,.507-.507.479.479,0,0,0-.507-.507h-.457V2.107A.479.479,0,0,0,11.871,1.6Z" transform="translate(-9.03 -1.296)" fill="#2d3155"/><path d="M9.164,12.107v.457H8.707a.507.507,0,0,0,0,1.015h.457v.457a.507.507,0,0,0,1.015,0v-.457h.457a.507.507,0,1,0,0-1.015h-.457v-.457a.507.507,0,0,0-1.015,0Z" transform="translate(-7.946 -6.222)" fill="#2d3155"/><path d="M51.371,1a.479.479,0,0,0-.507.507v.457h-.457a.479.479,0,0,0-.507.507.479.479,0,0,0,.507.507h.457v.457a.507.507,0,0,0,1.015,0V2.979h.457a.479.479,0,0,0,.507-.507.479.479,0,0,0-.507-.507h-.457V1.507A.508.508,0,0,0,51.371,1Z" transform="translate(-28.488 -1)" fill="#2d3155"/></svg>