<svg xmlns="http://www.w3.org/2000/svg" width="29.155" height="32.042" viewBox="0 0 29.155 32.042"><path d="M50.074,54.2a32.506,32.506,0,0,0-6.317-1.233c.166-.3.328-.6.481-.9a20.862,20.862,0,0,0,2.353-9.751.469.469,0,0,0-.737-.373,20.863,20.863,0,0,0-6.462,7.671,23.19,23.19,0,0,0-1.268,3.016q-.46-.007-.925-.008a22.814,22.814,0,0,0-1.353-4.346,20.864,20.864,0,0,0-5.926-8.093.469.469,0,0,0-.76.322,20.863,20.863,0,0,0,1.684,9.888,23.35,23.35,0,0,0,1.193,2.419A35.992,35.992,0,0,0,24.081,54.2a1.473,1.473,0,1,0,.911,2.8,29.4,29.4,0,0,1,5.573-1.087l-.9,12.119a1.473,1.473,0,0,0,1.469,1.582H43.02a1.473,1.473,0,0,0,1.469-1.581l-.9-12.119A29.393,29.393,0,0,1,49.165,57a1.473,1.473,0,0,0,.91-2.8ZM43.4,51.642c-.21.414-.434.824-.667,1.222Q42,52.8,41.242,52.75c.209-.5.438-1,.684-1.483a21.514,21.514,0,0,1,3.327-4.832A21.594,21.594,0,0,1,43.4,51.642Zm-3.171-1.6a20.382,20.382,0,0,1,5.421-6.777c-.017.514-.058,1.036-.124,1.562a21.966,21.966,0,0,0-4.438,6.021c-.307.606-.588,1.228-.838,1.852q-.565-.027-1.142-.044a22.336,22.336,0,0,1,1.121-2.615Zm-8.521-.01a21.591,21.591,0,0,1-1.494-5.321,21.514,21.514,0,0,1,2.99,5.047.469.469,0,0,0,.865-.366,21.966,21.966,0,0,0-4.018-6.309c-.03-.53-.036-1.053-.017-1.567a20.38,20.38,0,0,1,4.947,7.13,21.924,21.924,0,0,1,1.26,3.985q-.538.006-1.069.021c-.1-.4-.217-.8-.343-1.2a.469.469,0,0,0-.9.283c.1.314.192.633.277.95q-.572.024-1.131.059A22.271,22.271,0,0,1,31.707,50.027Zm11.126,8.364c-.233-.021-.467-.042-.7-.06a.469.469,0,1,0-.073.936c.284.022.568.047.847.073l.649,8.761a.534.534,0,0,1-.533.573H31.135A.534.534,0,0,1,30.6,68.1l.649-8.761c1.844-.173,3.8-.262,5.826-.262,1.007,0,2.013.022,2.989.066a.469.469,0,1,0,.042-.938c-.99-.044-2.01-.067-3.031-.067-2,0-3.929.085-5.756.252l.191-2.576c1.745-.162,3.631-.249,5.565-.249s3.821.087,5.565.249Zm7.293-2.627a.533.533,0,0,1-.507.369.539.539,0,0,1-.165-.026,44.157,44.157,0,0,0-12.377-1.479A44.158,44.158,0,0,0,24.7,56.107a.534.534,0,0,1-.33-1.016A44.556,44.556,0,0,1,37.077,53.56a44.558,44.558,0,0,1,12.706,1.531A.535.535,0,0,1,50.127,55.764Z" transform="translate(-23.063 -37.572)" fill="#2d3155"/><path d="M219.765,3.278,220.9,4.1l-.434,1.335a.777.777,0,0,0,1.2.869l1.136-.825,1.136.825a.777.777,0,0,0,1.2-.869L224.7,4.1l1.136-.825a.777.777,0,0,0-.457-1.406h-1.4L223.538.537a.777.777,0,0,0-1.478,0l-.434,1.335h-1.4a.777.777,0,0,0-.457,1.406Zm2.2-.467a.469.469,0,0,0,.446-.324L222.8,1.3l.386,1.186a.469.469,0,0,0,.446.324h1.247l-1.009.733a.469.469,0,0,0-.171.525l.386,1.186-1.009-.733a.469.469,0,0,0-.552,0l-1.009.733.385-1.186a.469.469,0,0,0-.171-.525l-1.009-.733Z" transform="translate(-207.155)" fill="#2d3155"/><path d="M28.622,148.9l1.265.088.8.98a.469.469,0,0,0,.8-.122l.474-1.176,1.18-.462a.469.469,0,0,0,.13-.8L32.3,146.6l-.075-1.265a.469.469,0,0,0-.717-.37l-1.075.672-1.227-.32a.469.469,0,0,0-.574.568l.307,1.23-.683,1.068a.469.469,0,0,0,.363.721Zm1.28-1.82-.165-.658.657.171a.469.469,0,0,0,.367-.056l.575-.36.04.677a.469.469,0,0,0,.167.332l.52.436-.632.247a.469.469,0,0,0-.264.261l-.254.629-.43-.525a.469.469,0,0,0-.33-.17l-.677-.047.366-.572A.47.47,0,0,0,29.9,147.082Z" transform="translate(-27.865 -135.824)" fill="#2d3155"/><path d="M410.031,155.428l-.971-.814-.075-1.265a.469.469,0,0,0-.717-.37l-1.075.672-1.227-.32a.469.469,0,0,0-.574.568l.307,1.23-.683,1.068a.469.469,0,0,0,.363.721l1.265.088.8.98a.469.469,0,0,0,.8-.122l.474-1.176,1.18-.462a.469.469,0,0,0,.13-.8Zm-1.841.458a.469.469,0,0,0-.264.261l-.254.629-.431-.525a.47.47,0,0,0-.33-.17l-.677-.047.366-.572a.469.469,0,0,0,.06-.367l-.165-.658.657.171a.469.469,0,0,0,.367-.056l.575-.36.04.678a.469.469,0,0,0,.167.332l.52.436Z" transform="translate(-381.044 -143.337)" fill="#2d3155"/><path d="M249.823,128.4a.469.469,0,0,0-.664,0l-.421.421-.421-.421a.469.469,0,0,0-.664.664l.421.421-.421.421a.469.469,0,1,0,.664.664l.421-.421.421.421a.469.469,0,0,0,.664-.664l-.421-.421.421-.421A.469.469,0,0,0,249.823,128.4Z" transform="translate(-233.471 -120.232)" fill="#2d3155"/><path d="M55.6,73.836h.283v.283a.469.469,0,0,0,.939,0v-.283H57.1a.469.469,0,1,0,0-.939H56.82v-.283a.469.469,0,0,0-.939,0V72.9H55.6a.469.469,0,1,0,0,.939Z" transform="translate(-53.122 -67.63)" fill="#2d3155"/></svg>