<svg xmlns="http://www.w3.org/2000/svg" width="32.473" height="32.473" viewBox="0 0 32.473 32.473"><path d="M14.7,33.473h5.074A1.526,1.526,0,0,0,21.3,31.951v-.1A15.158,15.158,0,0,0,31.849,21.3h.1a1.526,1.526,0,0,0,1.522-1.522V14.7a1.526,1.526,0,0,0-1.522-1.522h-.1A15.158,15.158,0,0,0,21.3,2.624v-.1A1.526,1.526,0,0,0,19.773,1H14.7a1.526,1.526,0,0,0-1.522,1.522v.1A15.158,15.158,0,0,0,2.624,13.177h-.1A1.526,1.526,0,0,0,1,14.7v5.074A1.526,1.526,0,0,0,2.522,21.3h.1A15.158,15.158,0,0,0,13.177,31.849v.1A1.5,1.5,0,0,0,14.7,33.473Zm-3.958-19.89a7.635,7.635,0,0,1,2.841-2.841,1.454,1.454,0,0,0,1.116.507h5.125a1.439,1.439,0,0,0,1.116-.507,7.635,7.635,0,0,1,2.841,2.841,1.454,1.454,0,0,0-.507,1.116v5.125a1.439,1.439,0,0,0,.507,1.116,7.635,7.635,0,0,1-2.841,2.841,1.454,1.454,0,0,0-1.116-.507H14.7a1.537,1.537,0,0,0-1.116.507,7.635,7.635,0,0,1-2.841-2.841,1.454,1.454,0,0,0,.507-1.116V14.7A1.63,1.63,0,0,0,10.742,13.583Zm9.539,18.367a.508.508,0,0,1-.507.507H14.7a.508.508,0,0,1-.507-.507v-7.2a.508.508,0,0,1,.507-.507h5.125a.508.508,0,0,1,.507.507v7.2ZM21.3,30.784V24.7a8.758,8.758,0,0,0,3.4-3.4h6.139A14.3,14.3,0,0,1,21.3,30.784ZM32.458,14.7v5.074a.508.508,0,0,1-.507.507h-7.2a.479.479,0,0,1-.507-.507V14.649a.508.508,0,0,1,.507-.507h7.2A.553.553,0,0,1,32.458,14.7Zm-1.674-1.522H24.7a8.758,8.758,0,0,0-3.4-3.4V3.689A14.124,14.124,0,0,1,30.784,13.177ZM14.192,2.522a.508.508,0,0,1,.507-.507h5.074a.508.508,0,0,1,.507.507v7.2a.508.508,0,0,1-.507.507H14.649a.508.508,0,0,1-.507-.507v-7.2ZM13.177,3.689V9.829a8.758,8.758,0,0,0-3.4,3.4H3.689A14.1,14.1,0,0,1,13.177,3.689ZM2.015,19.773V14.7a.508.508,0,0,1,.507-.507h7.2a.508.508,0,0,1,.507.507v5.125a.508.508,0,0,1-.507.507h-7.2A.553.553,0,0,1,2.015,19.773ZM3.689,21.3H9.778a8.758,8.758,0,0,0,3.4,3.4v6.089A14.124,14.124,0,0,1,3.689,21.3Z" transform="translate(-1 -1)" fill="#2d3155"/></svg>