<svg xmlns="http://www.w3.org/2000/svg" width="23.797" height="32.466" viewBox="0 0 23.797 32.466"><path d="M26.295,16.069l2.08-9.082a.508.508,0,0,0-.507-.609h-.152V1.507A.479.479,0,0,0,27.208,1h-2.03a.479.479,0,0,0-.507.507V6.886a5.7,5.7,0,0,0-3.247,2.486,6.16,6.16,0,0,0-3.247-2.486V1.507A.479.479,0,0,0,17.669,1h-2.03a.479.479,0,0,0-.507.507V6.429H14.98a.535.535,0,0,0-.507.609l2.08,9.082-7,13.547a.538.538,0,0,0,.152.66c6.495,4.211,17.454,4.161,23.391,0a.538.538,0,0,0,.152-.66ZM25.686,2.015H26.7V6.429c-.355.051-.71.1-1.015.152Zm-8.524,0V6.581a6.087,6.087,0,0,0-1.015-.152V2.015ZM20.916,11.2a.507.507,0,0,0,1.015,0c0-3.247,5.277-3.755,5.328-3.755l-1.928,8.372a9.157,9.157,0,0,1-7.814,0L15.589,7.444C15.639,7.444,20.916,7.85,20.916,11.2ZM10.667,29.718l6.647-12.888a10.082,10.082,0,0,0,8.22,0L32.18,29.769C26.6,33.371,16.756,33.371,10.667,29.718Z" transform="translate(-9.5 -1)" fill="#2d3155"/></svg>