<svg xmlns="http://www.w3.org/2000/svg" width="21.564" height="32.511" viewBox="0 0 21.564 32.511"><path d="M33.364,10.653c0-12.786-21.564-12.888-21.564,0,0,3.7,3.907,8.575,7.306,12.127v2.588H17.432a.508.508,0,0,0-.507.507v5.683A1.981,1.981,0,0,0,18.9,33.536h7.2a1.981,1.981,0,0,0,1.979-1.979V25.824a.508.508,0,0,0-.507-.507H25.905V22.728C29.356,19.228,33.364,14.306,33.364,10.653Zm-7.1,0c0,3.552-1.776,8.575-2.892,11.416H21.643c-1.116-2.892-2.791-7.865-2.791-11.416C18.853-1.22,26.261-.51,26.261,10.653Zm6.089,0c0,2.638-2.537,6.7-7.154,11.416h-.812c1.37-3.45,2.841-8.017,2.841-11.416,0-3.805-.863-6.8-2.334-8.372C29.406,3.093,32.349,6.34,32.349,10.653ZM20.07,2.23C18.7,3.8,17.889,6.8,17.889,10.6c0,3.45,1.421,7.966,2.74,11.416h-.812c-4.566-4.719-7.053-8.727-7.053-11.365C12.764,6.289,15.656,3.093,20.07,2.23Zm7.053,29.276a.963.963,0,0,1-.964.964H18.853a.963.963,0,0,1-.964-.964V26.331h9.234Zm-7.1-6.19V23.033h4.922v2.283Z" transform="translate(-11.8 -1.025)" fill="#2d3155"/></svg>