<svg xmlns="http://www.w3.org/2000/svg" width="32.455" height="30.038" viewBox="0 0 32.455 30.038"><path d="M33.388,32.676,24.255,10.453a.488.488,0,0,0-.457-.3.444.444,0,0,0-.457.3l-3.3,7.966L13.955,3.7a.488.488,0,0,0-.457-.3.558.558,0,0,0-.507.3L1.068,32.778a.477.477,0,0,0,.051.457.626.626,0,0,0,.406.2H32.982a.479.479,0,0,0,.507-.507A.388.388,0,0,0,33.388,32.676Zm-9.59-20.7,2.486,6.038L23.9,20.854l-2.03-4.262ZM13.5,5.227,17.3,14.461,15.731,16.8,14.006,11.62a.487.487,0,0,0-.457-.355.558.558,0,0,0-.507.3L10.809,17.15,9.643,14.613ZM9.084,15.882l1.268,2.791a.488.488,0,0,0,.457.3h0a.514.514,0,0,0,.457-.3l2.182-5.378,1.624,4.82a.492.492,0,0,0,.406.355.518.518,0,0,0,.507-.2l1.776-2.588,1.725,4.161L14.26,32.524H2.285Zm6.292,16.541L20.5,19.941h0l.863-2.08,1.979,4.161a.526.526,0,0,0,.406.3H23.8a.461.461,0,0,0,.406-.2l2.537-3.044,5.531,13.4h-16.9Z" transform="translate(-1.034 -3.4)" fill="#2d3155"/><path d="M49.353,5.227A3.756,3.756,0,0,0,46.207,3.4a.479.479,0,0,0-.507.507.479.479,0,0,0,.507.507,2.653,2.653,0,0,1,2.638,2.638.507.507,0,1,0,1.015,0A2.62,2.62,0,0,1,52.5,4.415a.479.479,0,0,0,.507-.507A.479.479,0,0,0,52.5,3.4,3.875,3.875,0,0,0,49.353,5.227Z" transform="translate(-23.037 -3.4)" fill="#2d3155"/></svg>