<svg xmlns="http://www.w3.org/2000/svg" width="33.83" height="15.351" viewBox="0 0 33.83 15.351"><path d="M33.345,23.688H32.6a1.881,1.881,0,0,0-.529.106V21.941a1.536,1.536,0,0,0-1.535-1.535H29.8a1.881,1.881,0,0,0-.529.106v-.476A1.536,1.536,0,0,0,27.734,18.5H26.94A1.536,1.536,0,0,0,25.4,20.035v4.023H10.476V20.035A1.536,1.536,0,0,0,8.941,18.5H8.2a1.536,1.536,0,0,0-1.535,1.535v.476a1.566,1.566,0,0,0-.529-.106H5.341a1.536,1.536,0,0,0-1.535,1.535v1.8a1.566,1.566,0,0,0-.529-.106H2.535A1.536,1.536,0,0,0,1,25.17v1.906a1.536,1.536,0,0,0,1.535,1.535h.741a1.881,1.881,0,0,0,.529-.106v1.906a1.536,1.536,0,0,0,1.535,1.535h.741a1.881,1.881,0,0,0,.529-.106v.476a1.536,1.536,0,0,0,1.535,1.535h.794a1.536,1.536,0,0,0,1.535-1.535V28.293H25.4v4.023a1.536,1.536,0,0,0,1.535,1.535h.741a1.536,1.536,0,0,0,1.535-1.535V31.84a1.566,1.566,0,0,0,.529.106h.741a1.536,1.536,0,0,0,1.535-1.535v-1.8a1.566,1.566,0,0,0,.529.106h.741a1.536,1.536,0,0,0,1.535-1.535V25.276A1.475,1.475,0,0,0,33.345,23.688ZM3.276,27.658H2.535a.53.53,0,0,1-.529-.529V25.223a.53.53,0,0,1,.529-.529h.741a.53.53,0,0,1,.529.529v1.906A.5.5,0,0,1,3.276,27.658ZM6.135,30.94H5.341a.53.53,0,0,1-.529-.529v-8.47a.53.53,0,0,1,.529-.529h.741a.53.53,0,0,1,.529.529v8.47A.522.522,0,0,1,6.135,30.94Zm2.806,1.906H8.2a.53.53,0,0,1-.529-.529V20.035a.53.53,0,0,1,.529-.529h.741a.53.53,0,0,1,.529.529v4.552h0v3.176h0v4.552A.53.53,0,0,1,8.941,32.846Zm1.535-5.558V25.064H25.4v2.223ZM28.21,32.316a.53.53,0,0,1-.529.529H26.94a.53.53,0,0,1-.529-.529V27.764h0V24.588h0V20.035a.53.53,0,0,1,.529-.529h.741a.53.53,0,0,1,.529.529V32.316Zm2.806-1.906a.53.53,0,0,1-.529.529h-.741a.53.53,0,0,1-.529-.529v-8.47a.53.53,0,0,1,.529-.529h.741a.53.53,0,0,1,.529.529v8.47Zm2.859-3.282a.53.53,0,0,1-.529.529H32.6a.53.53,0,0,1-.529-.529V25.223a.53.53,0,0,1,.529-.529h.741a.53.53,0,0,1,.529.529Z" transform="translate(-1 -18.5)" fill="#2d3155"/></svg>