<svg xmlns="http://www.w3.org/2000/svg" width="38.233" height="30.58" viewBox="0 0 38.233 30.58"><g transform="translate(6.694 19.771)"><path d="M152.437,439.909H150.7a5.4,5.4,0,1,1,0-10.808h1.732a1.544,1.544,0,0,1,1.543,1.543v7.722A1.544,1.544,0,0,1,152.437,439.909Zm-1.732-9.422a4.022,4.022,0,1,0,0,8.044h1.732a.163.163,0,0,0,.161-.161v-7.722a.163.163,0,0,0-.161-.161Z" transform="translate(-145.3 -429.1)" fill="#2d3155"/></g><g transform="translate(11.933 19.775)"><path d="M259.691,440a.69.69,0,0,1-.691-.691v-9.422a.691.691,0,0,1,1.382,0v9.422A.69.69,0,0,1,259.691,440Z" transform="translate(-259 -429.2)" fill="#2d3155"/></g><g transform="translate(25.432 19.775)"><path d="M555.276,440h-1.732A1.543,1.543,0,0,1,552,438.46v-7.717a1.543,1.543,0,0,1,1.543-1.543h1.732a5.4,5.4,0,1,1,0,10.8Zm-1.728-9.422a.163.163,0,0,0-.161.161v7.722a.163.163,0,0,0,.161.161h1.732a4.022,4.022,0,1,0,0-8.044Z" transform="translate(-552 -429.2)" fill="#2d3155"/></g><g transform="translate(27.491 19.775)"><path d="M597.391,440a.69.69,0,0,1-.691-.691v-9.422a.691.691,0,0,1,1.382,0v9.422A.69.69,0,0,1,597.391,440Z" transform="translate(-596.7 -429.2)" fill="#2d3155"/></g><g transform="translate(9.763 7.267)"><path d="M232.494,171.591a.69.69,0,0,1-.691-.691v-2.557a9.23,9.23,0,0,0-2.714-6.547,9.3,9.3,0,0,0-2.944-1.986A9.247,9.247,0,0,0,216,161.8a9.3,9.3,0,0,0-1.986,2.944,9.188,9.188,0,0,0-.728,3.6V170.9a.691.691,0,1,1-1.382,0v-2.557a10.643,10.643,0,1,1,21.285,0V170.9A.69.69,0,0,1,232.494,171.591Z" transform="translate(-211.9 -157.7)" fill="#2d3155"/></g><g transform="translate(23.745)"><g transform="translate(0.252 2.809)"><path d="M521.919,63.088a1.1,1.1,0,0,1-.382-.069,1.071,1.071,0,0,1-.6-.562,1.056,1.056,0,0,1-.023-.82,1.071,1.071,0,0,1,.562-.6,1.056,1.056,0,0,1,.82-.023,1.072,1.072,0,0,1,.06,1.981A1.1,1.1,0,0,1,521.919,63.088Zm0-1.221a.142.142,0,0,0-.06.014.149.149,0,1,0,.2.074A.147.147,0,0,0,521.919,61.867Z" transform="translate(-520.843 -60.943)" fill="#2d3155"/></g><g transform="translate(0 0)"><path d="M517.29,4.125a.463.463,0,0,1-.451-.378l-.088-.484A5.183,5.183,0,0,0,515.5.743a.46.46,0,0,1,.373-.769L517.35.08a.462.462,0,0,1-.065.921L516.82.969a5.98,5.98,0,0,1,.834,2.133l.088.484a.467.467,0,0,1-.369.539A.5.5,0,0,0,517.29,4.125Z" transform="translate(-515.377 0.027)" fill="#2d3155"/></g></g><g transform="translate(31.727 7.168)"><g transform="translate(0 2.135)"><path d="M689.71,204.035a1.067,1.067,0,1,1,.944-.548A1.09,1.09,0,0,1,689.71,204.035Zm0-1.226c-.019,0-.032,0-.042,0a.141.141,0,0,0-.092.074.149.149,0,0,0,.263.143h0a.154.154,0,0,0,.014-.115.141.141,0,0,0-.074-.092A.2.2,0,0,0,689.715,202.81Z" transform="translate(-688.639 -201.892)" fill="#2d3155"/></g><g transform="translate(2.592 3.575)"><path d="M745.966,235.284a1.094,1.094,0,0,1-.521-.134,1.069,1.069,0,1,1,1.456-.415h0a1.07,1.07,0,0,1-.645.511A1.192,1.192,0,0,1,745.966,235.284Zm.539-.774Zm-.534-.452a.153.153,0,0,0-.147.193.141.141,0,0,0,.074.092.155.155,0,0,0,.115.014.141.141,0,0,0,.092-.074.155.155,0,0,0,.014-.115.141.141,0,0,0-.074-.092A.245.245,0,0,0,745.971,234.058Z" transform="translate(-744.892 -233.139)" fill="#2d3155"/></g><g transform="translate(1.115)"><path d="M715.9,161.012a.432.432,0,0,1-.221-.06.462.462,0,0,1-.18-.627l1.626-2.93-1.9-.8-1.52,2.732a.461.461,0,1,1-.806-.447l1.718-3.1a.463.463,0,0,1,.581-.2l2.75,1.156a.477.477,0,0,1,.258.276.46.46,0,0,1-.032.373l-1.88,3.377A.441.441,0,0,1,715.9,161.012Z" transform="translate(-712.841 -155.55)" fill="#2d3155"/></g></g><g transform="translate(0 10.844)"><g transform="translate(1.552 4.595)"><path d="M34.742,337.215a1.072,1.072,0,1,1,.723-1.866h0a1.072,1.072,0,0,1-.668,1.866Zm0-1.226h-.009a.147.147,0,0,0-.106.051.137.137,0,0,0-.037.111.147.147,0,0,0,.051.106.152.152,0,0,0,.212-.009.137.137,0,0,0,.037-.111.147.147,0,0,0-.051-.106h0A.144.144,0,0,0,34.747,335.99Z" transform="translate(-33.672 -335.072)" fill="#2d3155"/></g><g transform="translate(3.547 2.398)"><path d="M78.055,289.528a1.063,1.063,0,0,1-.719-.276,1.073,1.073,0,0,1,1.442-1.59h0a1.072,1.072,0,0,1-.668,1.866Zm0-1.226a.147.147,0,0,0-.111.051.152.152,0,0,0,.009.212.137.137,0,0,0,.111.037.147.147,0,0,0,.106-.051.137.137,0,0,0,.037-.111.147.147,0,0,0-.051-.106A.218.218,0,0,0,78.059,288.3Z" transform="translate(-76.985 -287.385)" fill="#2d3155"/></g><g transform="translate(0)"><path d="M3.077,241.059a.464.464,0,0,1-.309-.12L.147,238.562a.46.46,0,0,1-.065-.613l1.755-2.414a.463.463,0,0,1,.327-.189.456.456,0,0,1,.355.115l2.861,2.6a.46.46,0,1,1-.617.682L2.28,236.489l-1.207,1.668,2.313,2.1a.461.461,0,0,1-.309.8Z" transform="translate(0.005 -235.343)" fill="#2d3155"/></g></g></svg>