<svg xmlns="http://www.w3.org/2000/svg" width="26.268" height="32.473" viewBox="0 0 26.268 32.473"><path d="M20.249,1A13.121,13.121,0,0,0,7.158,14.953c.2.66-.964-.964,10.706,10.909v5.226a2.385,2.385,0,0,0,4.769,0V25.71c11.061-10.96,10.6-10.4,10.655-10.6,0-.051.051-.1.051-.152A13.121,13.121,0,0,0,20.249,1Zm0,1.015c1.471,0,3.2,4.719,3.653,11.822a6.416,6.416,0,0,0-7.306,0C17.052,6.733,18.777,2.015,20.249,2.015ZM15.631,15.308l2.689,8.118a2.461,2.461,0,0,0-.406,1.066L8.426,14.953A5.379,5.379,0,0,1,15.631,15.308Zm3.5,7.357-2.486-7.56a5.422,5.422,0,0,1,7.2,0l-2.588,7.509a2.31,2.31,0,0,0-1.015-.254A4.031,4.031,0,0,0,19.132,22.665Zm2.994.66,2.74-8.017a5.375,5.375,0,0,1,7.2-.3L22.583,24.34A2.32,2.32,0,0,0,22.126,23.325Zm10.2-9.437a6.4,6.4,0,0,0-7.459.051c-.254-4.769-1.218-9.64-2.791-11.771A12.082,12.082,0,0,1,32.324,13.888ZM18.422,2.167c-1.573,2.131-2.537,7-2.791,11.771a6.572,6.572,0,0,0-7.459-.051A12.082,12.082,0,0,1,18.422,2.167Zm3.2,28.921a1.37,1.37,0,1,1-2.74,0V24.8a1.37,1.37,0,1,1,2.74,0Z" transform="translate(-7.115 -1)" fill="#2d3155"/></svg>