<svg xmlns="http://www.w3.org/2000/svg" width="32.473" height="32.473" viewBox="0 0 32.473 32.473"><path d="M17.755,47.546a.5.5,0,0,0-.964.254l1.471,5.277a.5.5,0,0,0,.964-.254Z" transform="translate(-8.774 -23.749)" fill="#2d3155"/><path d="M26.057,47.2a.552.552,0,0,0-.457.558l.507,5.277a.544.544,0,0,0,.558.457.552.552,0,0,0,.457-.558l-.507-5.277A.594.594,0,0,0,26.057,47.2Z" transform="translate(-13.118 -23.759)" fill="#2d3155"/><path d="M34.458,47.192a.5.5,0,0,0-.558.457l-.507,5.277a.51.51,0,0,0,1.015.1l.507-5.277A.594.594,0,0,0,34.458,47.192Z" transform="translate(-16.953 -23.751)" fill="#2d3155"/><path d="M42.471,47.291a.522.522,0,0,0-.609.355l-1.471,5.277a.522.522,0,0,0,.355.609.5.5,0,0,0,.609-.355L42.826,47.9A.5.5,0,0,0,42.471,47.291Z" transform="translate(-20.399 -23.798)" fill="#2d3155"/><path d="M39.848,24.226a.55.55,0,0,0-.558,0,.482.482,0,0,0-.2.507c.152.66.863,4.11,1.37,4.82a1.97,1.97,0,0,0,2.74.558,2.021,2.021,0,0,0,.558-2.791A24.309,24.309,0,0,0,39.848,24.226Zm2.841,5.023a1.052,1.052,0,0,1-1.421-.3,17.474,17.474,0,0,1-.913-3.247,25.969,25.969,0,0,1,2.638,2.131A1.092,1.092,0,0,1,42.69,29.249Z" transform="translate(-19.756 -12.404)" fill="#2d3155"/><path d="M17.843,24.126a.55.55,0,0,0-.558,0c-.558.406-3.45,2.385-3.907,3.146a2.03,2.03,0,0,0,.558,2.791,1.961,1.961,0,0,0,2.74-.558c.507-.71,1.218-4.161,1.37-4.82A.6.6,0,0,0,17.843,24.126Zm-1.979,4.82a1.027,1.027,0,0,1-1.725-1.116A21.062,21.062,0,0,1,16.777,25.7,18.83,18.83,0,0,1,15.864,28.946Z" transform="translate(-6.934 -12.355)" fill="#2d3155"/><path d="M29.079,23.1h0a.444.444,0,0,0-.457.3A27.587,27.587,0,0,0,27.1,28.174a1.979,1.979,0,0,0,3.958,0A27.587,27.587,0,0,0,29.535,23.4.444.444,0,0,0,29.079,23.1Zm0,6.089a1.018,1.018,0,0,1-1.015-1.015,17.184,17.184,0,0,1,1.015-3.2,19.939,19.939,0,0,1,1.015,3.2A1.018,1.018,0,0,1,29.079,29.189Z" transform="translate(-13.857 -11.887)" fill="#2d3155"/><path d="M32.965,1A7.232,7.232,0,0,0,27.13,4.247a5.591,5.591,0,0,0-.913-.1A4.526,4.526,0,0,0,21.7,8.662v.1a21.341,21.341,0,0,0-5.48-.66C7.85,8.1,1,12.619,1,18.15v1.218a3.25,3.25,0,0,0,2.892,3.247l3.2,10.5a.487.487,0,0,0,.457.355H24.9a.487.487,0,0,0,.457-.355l3.2-10.452a3.287,3.287,0,0,0,2.892-3.247V18.2a8.02,8.02,0,0,0-2.689-5.733,4.534,4.534,0,0,0-.66-7.865,6.187,6.187,0,0,1,4.871-2.638.508.508,0,0,0,.507-.507C33.473,1.152,33.27,1,32.965,1ZM24.543,32.509H7.9L4.958,22.665H27.536ZM30.479,18.15v1.218A2.274,2.274,0,0,1,28.2,21.651H4.3a2.274,2.274,0,0,1-2.283-2.283V18.15c0-5.023,6.393-9.082,14.258-9.082a20.407,20.407,0,0,1,5.632.761,4.521,4.521,0,0,0,4.364,3.349,4.135,4.135,0,0,0,1.573-.3A7.3,7.3,0,0,1,30.479,18.15Zm-.71-9.488a3.531,3.531,0,0,1-2.08,3.2h0a3.47,3.47,0,0,1-1.471.3,3.5,3.5,0,1,1,0-7h.355a7.6,7.6,0,0,0-.863,3.5.508.508,0,0,0,.507.507.479.479,0,0,0,.507-.507,6.471,6.471,0,0,1,.863-3.247A3.558,3.558,0,0,1,29.769,8.662Z" transform="translate(-1 -1)" fill="#2d3155"/></svg>