<svg xmlns="http://www.w3.org/2000/svg" width="32.473" height="28.109" viewBox="0 0 32.473 28.109"><path d="M32.965,32.445H29.211V30.466H31.6a.494.494,0,0,0,.507-.406c.761-4.313.761-3.6.66-6.038a23.975,23.975,0,0,0,.71-4.465A15.277,15.277,0,0,0,32.154,15.3a20.888,20.888,0,0,1-1.471-4.364c-.1-1.015.812-3.907,1.167-4.972a.518.518,0,0,0-.457-.66H19.773a.5.5,0,0,0-.507.457c-.051.3-.051.71-.152,1.218a3.225,3.225,0,0,0-.913.3.488.488,0,1,0,.457.863c.1-.051.152-.051.254-.1-.1.507-.2,1.066-.355,1.674a3.914,3.914,0,0,0-1.319.355.488.488,0,1,0,.457.863,1.818,1.818,0,0,1,.558-.2,13.467,13.467,0,0,1-.609,1.877,2.413,2.413,0,0,0-.913.254.488.488,0,0,0,.457.863h0a14.5,14.5,0,0,1-4.211,5.835C3.892,25.139,3.537,25.393,3.283,25.6a1.785,1.785,0,0,0-.71,1.928,1.573,1.573,0,1,0,0,3.146H3.74c.152,1.268.761,2.638,2.283,2.74H32.965a.479.479,0,0,0,.507-.507C33.473,32.6,33.27,32.445,32.965,32.445Zm-4.769,0H11.554V30.72H14.9c.1,0,.152,0,.2-.051l7.966-4.008h1.471l.609,3.4a.494.494,0,0,0,.507.406H28.2v1.979ZM18.454,13.723a1.842,1.842,0,0,1,.863.355.546.546,0,0,0,.71-.1.5.5,0,0,0-.1-.71,2.808,2.808,0,0,0-1.116-.507c.254-.66.406-1.319.609-1.979a2.54,2.54,0,0,1,1.218.457.507.507,0,1,0,.609-.812,3.6,3.6,0,0,0-1.573-.66c.152-.66.254-1.268.355-1.877a3.023,3.023,0,0,1,1.522.507.546.546,0,0,0,.71-.1.5.5,0,0,0-.1-.71,3.892,3.892,0,0,0-1.979-.71,2.681,2.681,0,0,0,.051-.609h4.82C24.137,10.628,21.5,19.1,14.04,20.116A16.145,16.145,0,0,0,18.454,13.723ZM3.892,26.407c1.268-.863-1.471.812,8.473-5.175h.1c7.915,0,12.076-7.408,13.6-14.968h4.566c-1.471,4.617-1.319,4.922.507,9.387a15.738,15.738,0,0,1,1.268,3.856,24.393,24.393,0,0,1-.609,3.907H22.97c-.1,0-.152,0-.2.051L14.4,27.524H3.74c-.051,0-.152-.1-.2-.3A.733.733,0,0,1,3.892,26.407ZM2.015,29.1a.563.563,0,0,1,.558-.558H14.446c.1,0,.152,0,.2-.051l8.372-4.059H31.7v1.624L31.088,29.4H26.014L25.405,26A.494.494,0,0,0,24.9,25.6h-2.03c-.1,0-.152,0-.2.051L14.7,29.655H2.522A.556.556,0,0,1,2.015,29.1Zm2.791,1.573h5.733v1.725H6.074C5.161,32.344,4.856,31.329,4.805,30.669Z" transform="translate(-1 -5.3)" fill="#2d3155"/></svg>