<svg xmlns="http://www.w3.org/2000/svg" width="33.899" height="31.67" viewBox="0 0 33.899 31.67"><path d="M4.477,30.309l4.606-5.294a.351.351,0,0,0,.106-.371c-.053-.106-.053-.265-.159-.371l-.635-.582c.741-.741,1.482-1.429,2.223-2.17v.212a3.186,3.186,0,0,0,3.176,3.176,3.241,3.241,0,0,0,3.176-2.647h1.588v.688a.529.529,0,0,0,1.059,0V20.516a.529.529,0,0,0-1.059,0V21.2H16.97a3.172,3.172,0,0,0-3.07-2.647A112.536,112.536,0,0,1,33.752,4.529V16.6a14.02,14.02,0,0,0-7.041,2.541,7.338,7.338,0,0,0-4.606,2.647.512.512,0,0,0,.053.741l1.535,1.218a14.7,14.7,0,0,0-.476,4.288,26.577,26.577,0,0,0-4.023,1.641.558.558,0,0,0,.053,1.006c2.806.847,3.812,1.482,4.711,3.758a.533.533,0,0,0,1.006-.053,43.887,43.887,0,0,0,.794-4.341q.635-.159,1.429-.318l2.329,1.906a.518.518,0,0,0,.741-.106A12.273,12.273,0,0,0,33.116,25.7c2.276-3.494,1.694-8.152,1.641-8.681V3.63a.544.544,0,0,0-.794-.476A118.835,118.835,0,0,0,7.6,23l-.794-.688a.515.515,0,0,0-.741.053L1.459,27.662a2.019,2.019,0,0,0,.212,2.859A1.96,1.96,0,0,0,4.477,30.309Zm11.382-9.052H13.794a.529.529,0,1,0,0,1.059h2.065a2.124,2.124,0,1,1-2.065-2.647A2.005,2.005,0,0,1,15.859,21.257Zm7.411.794a9.435,9.435,0,0,1,1.906-1.429,8.384,8.384,0,0,0-1.112,2.012Zm6.511,8.364L28.4,29.3a9.966,9.966,0,0,0,3.07-1.747A11.4,11.4,0,0,1,29.781,30.415ZM31.9,25.7c-1.853,2.276-4.976,3.07-6.67,3.388a.455.455,0,0,0-.424.423c-.106.741-.212,1.694-.476,3.123A6.132,6.132,0,0,0,20.888,30.1a26.027,26.027,0,0,1,3.07-1.165.576.576,0,0,0,.371-.529c-.106-1.747,0-4.976,1.853-7.305a7.812,7.812,0,0,1,2.276-1.906,6.038,6.038,0,0,0,2.488,3.017.536.536,0,1,0,.582-.9,4.9,4.9,0,0,1-2.118-2.594A13.437,13.437,0,0,1,33.8,17.6C33.91,18.981,34.016,23,31.9,25.7ZM2.2,28.351l4.288-4.87.741.635h0l.741.635-4.288,4.87a1.045,1.045,0,0,1-1.376.106A1.05,1.05,0,0,1,2.2,28.351Z" transform="translate(-0.964 -3.1)" fill="#2d3155"/></svg>