<svg xmlns="http://www.w3.org/2000/svg" width="31.939" height="32.529" viewBox="0 0 31.939 32.529"><path d="M23.174,11.469a3.288,3.288,0,0,1,2.841.355.494.494,0,0,0,.761-.507c-.964-5.378-4.11-9.133-8.372-10.148C11.1-.454,4.3,6.5,2.218,14.463.9,19.537,1.457,24.611,3.741,28.365c6.241,10.249,20.8,4.161,23.086-10.452a.445.445,0,0,0-.254-.507.461.461,0,0,0-.558.051,3.637,3.637,0,0,1-2.131.761,3.258,3.258,0,0,1-3.1-2.334A3.75,3.75,0,0,1,23.174,11.469Zm-3.247,4.617a4.127,4.127,0,0,0,4.008,3.044,4.755,4.755,0,0,0,1.725-.355C23.021,31.613,10.235,37.093,4.6,27.807c-2.131-3.45-2.638-8.372-1.421-13.141C5.111,7.157,11.5.662,18.252,2.184c3.6.812,6.342,3.907,7.408,8.372a4.223,4.223,0,0,0-2.74,0A4.533,4.533,0,0,0,19.926,16.087Z" transform="translate(-1.516 -0.932)" fill="#2d3155"/><path d="M32.678,10.164A2.358,2.358,0,0,0,29.684,8.49a2.611,2.611,0,0,0-1.573,3.146A2.358,2.358,0,0,0,31.1,13.31,2.542,2.542,0,0,0,32.678,10.164Zm-3.6,1.167A1.574,1.574,0,0,1,29.988,9.4a1.374,1.374,0,0,1,1.725,1.015,1.574,1.574,0,0,1-.913,1.928A1.374,1.374,0,0,1,29.075,11.331Z" transform="translate(-14.572 -4.599)" fill="#2d3155"/><path d="M10.8,33.762a2.7,2.7,0,0,0,.1-3.552,2.28,2.28,0,0,0-3.4-.1,2.7,2.7,0,0,0-.1,3.552A2.319,2.319,0,0,0,10.8,33.762ZM8.163,33a1.63,1.63,0,0,1,.051-2.182,1.281,1.281,0,0,1,1.928.051,1.63,1.63,0,0,1-.051,2.182A1.32,1.32,0,0,1,8.163,33Z" transform="translate(-4.112 -14.954)" fill="#2d3155"/><path d="M33.5,39.728a2.7,2.7,0,0,0-.1,3.552,2.28,2.28,0,0,0,3.4.1,2.7,2.7,0,0,0,.1-3.552A2.319,2.319,0,0,0,33.5,39.728Zm2.588,2.943a1.319,1.319,0,0,1-1.928-.051,1.63,1.63,0,0,1,.051-2.182,1.281,1.281,0,0,1,1.928.051A1.63,1.63,0,0,1,36.091,42.671Z" transform="translate(-16.92 -19.702)" fill="#2d3155"/><path d="M22.6,48.428a2.7,2.7,0,0,0-.1,3.552,2.28,2.28,0,0,0,3.4.1,2.7,2.7,0,0,0,.1-3.552A2.319,2.319,0,0,0,22.6,48.428Zm2.588,2.943a1.319,1.319,0,0,1-1.928-.051,1.63,1.63,0,0,1,.051-2.182,1.281,1.281,0,0,1,1.928.051A1.629,1.629,0,0,1,25.191,51.371Z" transform="translate(-11.55 -23.988)" fill="#2d3155"/><path d="M11.3,43.728a2.7,2.7,0,0,0-.1,3.552,2.28,2.28,0,0,0,3.4.1,2.7,2.7,0,0,0,.1-3.552A2.319,2.319,0,0,0,11.3,43.728Zm2.537,2.943a1.319,1.319,0,0,1-1.928-.051,1.63,1.63,0,0,1,.051-2.182,1.281,1.281,0,0,1,1.928.051A1.578,1.578,0,0,1,13.84,46.671Z" transform="translate(-5.984 -21.673)" fill="#2d3155"/><path d="M18.9,20.062A2.7,2.7,0,0,0,19,16.51a2.277,2.277,0,0,0-3.4-.1,2.7,2.7,0,0,0-.1,3.552A2.361,2.361,0,0,0,18.9,20.062Zm-2.588-2.994a1.281,1.281,0,0,1,1.928.051,1.63,1.63,0,0,1-.051,2.182,1.319,1.319,0,0,1-1.928-.051A1.632,1.632,0,0,1,16.313,17.068Z" transform="translate(-8.102 -8.205)" fill="#2d3155"/><path d="M26.085,29.789a.485.485,0,1,0-.71-.66,2.617,2.617,0,0,1-3.907,0h0c-.457-.457-1.167.2-.71.66h0a3.2,3.2,0,0,1,0,4.313.485.485,0,1,0,.71.66,2.617,2.617,0,0,1,3.907,0h0c.457.507,1.268-.254.66-.71A3.3,3.3,0,0,1,26.085,29.789Zm-1.624,3.247a3.459,3.459,0,0,0-2.03,0,4.169,4.169,0,0,0,0-2.233,3.459,3.459,0,0,0,2.03,0A4.169,4.169,0,0,0,24.461,33.037Z" transform="translate(-10.922 -14.736)" fill="#2d3155"/><path d="M57.831,6.112c-1.319-1.573-1.624-4.617-1.624-4.668a.542.542,0,0,0-.355-.457.482.482,0,0,0-.507.2C55.04,1.647,52.3,5.6,52.3,7.33a3.441,3.441,0,0,0,1.522,2.841,114.471,114.471,0,0,0,.3,14.714c.457,4.414,1.015,4.769,1.573,4.769s1.116-.355,1.573-4.769a100.724,100.724,0,0,0,.3-14.917A2.82,2.82,0,0,0,57.831,6.112ZM53.264,7.38c0-.863,1.116-2.943,2.131-4.566a9.6,9.6,0,0,0,1.624,3.907A1.851,1.851,0,0,1,55.7,9.765,2.393,2.393,0,0,1,53.264,7.38ZM55.7,28.386c-1.015-3.2-1.167-13.294-.913-17.759a2.954,2.954,0,0,0,.964.152h0a2.873,2.873,0,0,0,.913-.152C56.866,15.5,56.664,25.342,55.7,28.386Z" transform="translate(-26.533 -0.953)" fill="#2d3155"/></svg>