<svg xmlns="http://www.w3.org/2000/svg" width="30.416" height="30.417" viewBox="0 0 30.416 30.417"><path d="M10.38,12.127c0,.047-.047.095-.047.142V13.6H9.148A1.85,1.85,0,0,0,7.3,15.443v14.45a1.85,1.85,0,0,0,1.848,1.848H29.757A1.85,1.85,0,0,0,31.6,29.893V15.443A1.85,1.85,0,0,0,29.757,13.6H27.814l-1.232-3.411a.414.414,0,0,0-.426-.284H19.808a.48.48,0,0,0-.426.284L18.149,13.6H13.222V12.316a.174.174,0,0,0-.047-.142,1.5,1.5,0,0,0-1.421-.948A1.38,1.38,0,0,0,10.38,12.127ZM30.7,15.443v14.45a.9.9,0,0,1-.9.9H9.2a.9.9,0,0,1-.9-.9V15.443a.9.9,0,0,1,.9-.9H29.8A.932.932,0,0,1,30.7,15.443Zm-10.565-4.6h5.733l.995,2.8H19.144Zm-8.86,1.563a.62.62,0,0,1,1.042,0v1.232H11.28Z" transform="translate(-4.268 -5.636)" fill="#2d3155"/><path d="M32.5,23.6a6.3,6.3,0,1,0,6.3,6.3A6.3,6.3,0,0,0,32.5,23.6Zm0,11.7a5.4,5.4,0,1,1,5.4-5.4A5.4,5.4,0,0,1,32.5,35.3Z" transform="translate(-14.213 -12.845)" fill="#2d3155"/><path d="M38.48,32.824a1.609,1.609,0,0,1-2.037-2.037.474.474,0,0,0-.379-.616,3.177,3.177,0,1,0,2.985,2.985A.378.378,0,0,0,38.48,32.824Zm-2.558,2.8a2.245,2.245,0,0,1-2.274-2.274,2.282,2.282,0,0,1,1.8-2.227,2.5,2.5,0,0,0,2.7,2.653A2.277,2.277,0,0,1,35.922,35.62Z" transform="translate(-17.634 -16.29)" fill="#2d3155"/><path d="M16.659,23.6H14.1a.9.9,0,0,0-.9.9v1.09a.9.9,0,0,0,.9.9h2.558a.9.9,0,0,0,.9-.9V24.5A.931.931,0,0,0,16.659,23.6Zm-.047,1.942H14.1V24.5h2.511Z" transform="translate(-7.373 -12.845)" fill="#2d3155"/><path d="M1.474,7.628a.475.475,0,0,0,.474-.474V1.848H7.254a.475.475,0,0,0,.474-.474A.448.448,0,0,0,7.254.9H1.474A.517.517,0,0,0,1,1.421V7.2A.437.437,0,0,0,1.474,7.628Z" transform="translate(-0.953 -0.9)" fill="#2d3155"/><path d="M1.421,57.528H7.2a.474.474,0,0,0,0-.948H1.848V51.274a.475.475,0,0,0-.474-.474.448.448,0,0,0-.474.474v5.78A.517.517,0,0,0,1.421,57.528Z" transform="translate(-0.9 -27.159)" fill="#2d3155"/><path d="M57.528,57.106V51.374a.474.474,0,1,0-.948,0V56.68H51.274a.474.474,0,0,0,0,.948h5.78A.517.517,0,0,0,57.528,57.106Z" transform="translate(-27.159 -27.211)" fill="#2d3155"/><path d="M57.106,1H51.374a.475.475,0,0,0-.474.474.448.448,0,0,0,.474.474H56.68V7.254a.474.474,0,1,0,.948,0V1.474A.517.517,0,0,0,57.106,1Z" transform="translate(-27.211 -0.953)" fill="#2d3155"/><path d="M20.174,4.864a1.921,1.921,0,0,1,1.942,1.942.474.474,0,1,0,.948,0,1.921,1.921,0,0,1,1.942-1.942.475.475,0,0,0,.474-.474.448.448,0,0,0-.474-.474,1.921,1.921,0,0,1-1.942-1.942.474.474,0,1,0-.948,0,1.921,1.921,0,0,1-1.942,1.942.474.474,0,0,0,0,.948ZM22.59,3.537a3.643,3.643,0,0,0,.853.853,3.643,3.643,0,0,0-.853.853,3.643,3.643,0,0,0-.853-.853A2.45,2.45,0,0,0,22.59,3.537Z" transform="translate(-10.793 -1.216)" fill="#2d3155"/></svg>