<svg xmlns="http://www.w3.org/2000/svg" width="27.218" height="30.313" viewBox="0 0 27.218 30.313"><path d="M35.874,18.239a2.314,2.314,0,0,0-2.311-2.311h-.057a4.894,4.894,0,0,1-4.852-3.993,9.9,9.9,0,0,0-9.7-7.981h-.417a9.893,9.893,0,0,0-9.882,9.882V29.876h.586v4.391H35.288V29.876h.586V18.239ZM18.538,4.941h.417a8.915,8.915,0,0,1,8.729,7.184,5.872,5.872,0,0,0,5.821,4.79h.057a1.325,1.325,0,0,1,1.324,1.324V28.867H9.643V13.837A8.9,8.9,0,0,1,18.538,4.941ZM32.155,29.876h.494v1.367h-.494Zm-3.379,0h.494v1.367h-.494Zm-3.379,0h.494v1.367H25.4Zm-3.379,0h.494v1.367h-.494Zm-3.379,0h.494v1.367h-.494Zm-3.379,0h.494v1.367H15.26Zm-3.379,0h.494v1.367h-.494ZM34.3,33.28H10.23v-3.4h.664V32.23h2.469V29.876h.91V32.23h2.469V29.876h.91V32.23h2.469V29.876h.91V32.23H23.5V29.876h.91V32.23h2.469V29.876h.91V32.23h2.469V29.876h.91V32.23h2.469V29.876H34.3v3.4Z" transform="translate(-8.656 -3.954)" fill="#2d3155"/></svg>