<svg xmlns="http://www.w3.org/2000/svg" width="33.864" height="32.132" viewBox="0 0 33.864 32.132"><path d="M7.95,38.116A6.939,6.939,0,0,0,13.667,35.1a1.881,1.881,0,0,1,3.176,0,6.934,6.934,0,0,0,10.641.953,6.741,6.741,0,0,0,1.959-4.976A7.045,7.045,0,0,0,22.3,24.3H8.161A6.91,6.91,0,1,0,7.95,38.116ZM2.073,30.6a6.089,6.089,0,0,1,6.088-5.347H22.349a6.113,6.113,0,0,1,6.141,5.77A5.747,5.747,0,0,1,26.8,35.257a5.871,5.871,0,0,1-9.052-.794,2.918,2.918,0,0,0-4.87,0A5.926,5.926,0,0,1,8,37,5.829,5.829,0,0,1,2.073,30.6Z" transform="translate(-1.031 -12.812)" fill="#2d3155"/><path d="M9.932,37.87a4.707,4.707,0,0,0,4.288-2.753,3.934,3.934,0,0,1,6.035,0,4.706,4.706,0,0,0,7.623,1.376A4.5,4.5,0,0,0,29.2,33.105,4.855,4.855,0,0,0,24.278,28.5H10.144a4.835,4.835,0,0,0-4.87,4.235A4.661,4.661,0,0,0,9.932,37.87ZM6.279,32.788a3.812,3.812,0,0,1,3.864-3.335H24.331a3.854,3.854,0,0,1,3.917,3.6A3.72,3.72,0,0,1,27.19,35.7a3.672,3.672,0,0,1-5.982-1.112c0-.053-.053-.106-.106-.159a4.913,4.913,0,0,0-7.676.053c-.053.053-.053.053-.053.106a3.709,3.709,0,0,1-7.094-1.8Z" transform="translate(-3.014 -14.79)" fill="#2d3155"/><path d="M39.67,21.629a2.724,2.724,0,0,0,2.17,2.647V40.369a2.067,2.067,0,0,1-2.065,2.065H28.023a2.067,2.067,0,0,1-2.065-2.065V38.675h.582a.472.472,0,0,0,.424-.265l1.218-2.117a.481.481,0,0,0,0-.529.54.54,0,0,0-.424-.265H23.153a.472.472,0,0,0-.424.265.481.481,0,0,0,0,.529l1.218,2.117a.54.54,0,0,0,.424.265h.582v1.694a3.084,3.084,0,0,0,3.123,3.07h11.7a3.118,3.118,0,0,0,3.123-3.07V24.276a2.724,2.724,0,0,0,2.17-2.647.53.53,0,0,0-.529-.529H40.146A.522.522,0,0,0,39.67,21.629ZM24,36.61h2.859l-.635,1.059H24.582ZM43.958,22.159a1.665,1.665,0,0,1-3.176,0Z" transform="translate(-11.205 -11.307)" fill="#2d3155"/><path d="M52.112,6.676a2.011,2.011,0,0,0,2.012-2.012A2.057,2.057,0,0,0,52.112,2.6,2.011,2.011,0,0,0,50.1,4.612,2.057,2.057,0,0,0,52.112,6.676Zm0-3.017a1.006,1.006,0,1,1-1.006,1.006A1.041,1.041,0,0,1,52.112,3.659Z" transform="translate(-24.124 -2.6)" fill="#2d3155"/><path d="M56.8,14.141A1.641,1.641,0,1,0,58.441,12.5,1.649,1.649,0,0,0,56.8,14.141Zm1.641-.635a.582.582,0,1,1-.582.582A.587.587,0,0,1,58.441,13.506Z" transform="translate(-27.277 -7.259)" fill="#2d3155"/></svg>