<svg xmlns="http://www.w3.org/2000/svg" width="32.023" height="32.022" viewBox="0 0 32.023 32.022"><path d="M118.3,246.436a1.973,1.973,0,1,0,0-.938h-.623v-1.124a1.973,1.973,0,1,0-.938,0V245.5h-.623a1.973,1.973,0,1,0,0,.938h.623v.905l-1.437,2.4a.469.469,0,0,0,.4.71h3.008a.469.469,0,0,0,.4-.71l-1.437-2.4v-.905Zm1.916-1.5a1.035,1.035,0,1,1-1.035,1.035A1.036,1.036,0,0,1,120.216,244.932Zm-4.043-2.475a1.035,1.035,0,1,1,1.035,1.035A1.036,1.036,0,0,1,116.173,242.457ZM114.2,247a1.035,1.035,0,1,1,1.035-1.035A1.036,1.036,0,0,1,114.2,247Zm2.333,2.507.676-1.126.676,1.126Z" transform="translate(-105.208 -225.443)" fill="#2d3155"/><path d="M20.022,0a11.892,11.892,0,0,0-7.268,2.45A12.092,12.092,0,0,0,8.531,8.534,12,12,0,1,0,23.489,23.492a12.091,12.091,0,0,0,6.064-4.2A11.89,11.89,0,0,0,32.023,12a12.014,12.014,0,0,0-12-12ZM28.25,4.615a11.067,11.067,0,0,1,2.285,3.944A3.539,3.539,0,0,1,28.25,4.615ZM20.022.938a11.065,11.065,0,0,1,2.278.236,3.522,3.522,0,0,1-2.278.831,3.521,3.521,0,0,1-2.282-.833A11.171,11.171,0,0,1,20.022.938ZM11.785,4.62A3.522,3.522,0,0,1,11.364,7a3.648,3.648,0,0,1-1.048,1.142q-.357.05-.707.121A11.153,11.153,0,0,1,11.785,4.62ZM12,8.96a11.064,11.064,0,0,1,2.278.236,3.539,3.539,0,0,1-4.557,0A11.071,11.071,0,0,1,12,8.96ZM3.764,12.646a3.522,3.522,0,0,1-.422,2.375,3.52,3.52,0,0,1-1.854,1.556A11.067,11.067,0,0,1,3.764,12.646Zm0,14.753a11.066,11.066,0,0,1-2.276-3.93,3.521,3.521,0,0,1,1.854,1.556A3.523,3.523,0,0,1,3.764,27.4ZM12,31.084a11.067,11.067,0,0,1-2.286-.238,3.539,3.539,0,0,1,4.557,0,11.069,11.069,0,0,1-2.27.235Zm8.228-3.676a3.539,3.539,0,0,1,2.285-3.944A11.067,11.067,0,0,1,20.228,27.408Zm2.574-5a4.48,4.48,0,0,0-3.345,5.777,11.066,11.066,0,0,1-4.128,2.386,4.48,4.48,0,0,0-6.674-.005,11.067,11.067,0,0,1-4.12-2.388,4.458,4.458,0,0,0-.381-3.624A4.455,4.455,0,0,0,1.2,22.411a11.079,11.079,0,0,1,0-4.779,4.455,4.455,0,0,0,2.956-2.143,4.457,4.457,0,0,0,.381-3.624A11.067,11.067,0,0,1,8.664,9.475a4.48,4.48,0,0,0,6.674,0,11.066,11.066,0,0,1,4.12,2.384A4.48,4.48,0,0,0,22.8,17.635a11.082,11.082,0,0,1,0,4.774Zm-.446-8.443a12.09,12.09,0,0,0-4.3-4.3L20.022,7.7l4.3,4.3Zm.157,2.615a3.539,3.539,0,0,1-2.285-3.944,11.067,11.067,0,0,1,2.285,3.944Zm6.294,2.143q-.265.346-.557.669a3.539,3.539,0,0,1,2.291-3.952,11,11,0,0,1-1.734,3.283Zm-.95-2.19a4.458,4.458,0,0,0-.378,3.634,11.157,11.157,0,0,1-3.719,2.246A12.009,12.009,0,0,0,24,20.022c0-.359-.017-.715-.048-1.066a7.99,7.99,0,1,0-9.58-12.605.469.469,0,0,0,.663.663A7.052,7.052,0,1,1,23.82,17.942a11.9,11.9,0,0,0-1-3.112l2.5-2.5a.469.469,0,0,0,0-.663L20.354,6.705a.469.469,0,0,0-.663,0l-2.5,2.5A11.929,11.929,0,0,0,12,8.022l-.2,0a4.521,4.521,0,0,0,.38-.557,4.458,4.458,0,0,0,.38-3.628q.369-.338.767-.643a11,11,0,0,1,3.358-1.748,4.455,4.455,0,0,0,3.341,1.495,4.458,4.458,0,0,0,3.337-1.491,11.066,11.066,0,0,1,4.12,2.384,4.48,4.48,0,0,0,3.345,5.777,11.158,11.158,0,0,1,0,4.773,4.455,4.455,0,0,0-2.97,2.147Z" fill="#2d3155"/><path d="M72.119,192.387a7.989,7.989,0,1,0,7.99,7.989,7.913,7.913,0,0,0-1.643-4.84.469.469,0,1,0-.746.569,6.982,6.982,0,0,1,1.45,4.271,7.051,7.051,0,1,1-7.051-7.051,6.982,6.982,0,0,1,4.271,1.45.469.469,0,1,0,.57-.745A7.913,7.913,0,0,0,72.119,192.387Z" transform="translate(-60.118 -180.354)" fill="#2d3155"/></svg>