<svg xmlns="http://www.w3.org/2000/svg" width="39.773" height="39.773" viewBox="0 0 39.773 39.773"><g transform="translate(0 26.803) rotate(-45)"><g transform="translate(0 0)"><g transform="translate(0 0)"><g transform="translate(0 0)"><path d="M18.953,0C12.113,0,7.4,1.876,4.389,3.935A14.642,14.642,0,0,0,1.1,6.952,7.691,7.691,0,0,0,.3,8.185a2.1,2.1,0,0,0-.3.986,2.1,2.1,0,0,0,.3.988,7.7,7.7,0,0,0,.8,1.233,14.639,14.639,0,0,0,3.29,3.017c3.007,2.06,7.724,3.933,14.564,3.933s11.557-1.873,14.564-3.933a14.642,14.642,0,0,0,3.29-3.017,7.691,7.691,0,0,0,.8-1.233,2.1,2.1,0,0,0,.3-.988,2.1,2.1,0,0,0-.3-.986,7.7,7.7,0,0,0-.8-1.233,14.639,14.639,0,0,0-3.29-3.017C30.51,1.876,25.793,0,18.953,0Zm0,1.185A28.348,28.348,0,0,1,27.837,2.5V15.841a28.36,28.36,0,0,1-8.884,1.317,28.326,28.326,0,0,1-8.928-1.33V2.515a28.3,28.3,0,0,1,8.928-1.33ZM29.022,2.913a19.675,19.675,0,0,1,2.369,1.115V14.314a19.714,19.714,0,0,1-2.369,1.115ZM8.84,2.932V15.411a19.718,19.718,0,0,1-2.281-1.073V4.005A19.718,19.718,0,0,1,8.84,2.932ZM5.374,4.713v8.919c-.1-.068-.219-.132-.317-.2a13.477,13.477,0,0,1-3.022-2.767,6.6,6.6,0,0,1-.678-1.039,3.589,3.589,0,0,1-.174-.456,3.661,3.661,0,0,1,.174-.454,6.611,6.611,0,0,1,.678-1.039A13.477,13.477,0,0,1,5.057,4.912c.1-.068.215-.132.317-.2Zm27.2.027c.088.058.188.114.273.171A13.473,13.473,0,0,1,35.87,7.679a6.6,6.6,0,0,1,.678,1.039,3.686,3.686,0,0,1,.174.453,3.566,3.566,0,0,1-.174.456,6.6,6.6,0,0,1-.678,1.039,13.476,13.476,0,0,1-3.022,2.767c-.085.058-.185.114-.273.171ZM14.048,7.346a.589.589,0,0,0-.583.6v.632h-.632a.592.592,0,1,0,0,1.185h.632V10.4a.592.592,0,1,0,1.185,0V9.763h1.263V10.4a.592.592,0,1,0,1.185,0V9.763h1.263V10.4a.592.592,0,1,0,1.185,0V9.763h1.263V10.4a.592.592,0,1,0,1.185,0V9.763h1.263V10.4a.592.592,0,1,0,1.185,0V9.763h.632a.592.592,0,1,0,0-1.185h-.632V7.947a.592.592,0,1,0-1.185,0v.632H21.993V7.947a.592.592,0,1,0-1.185,0v.632H19.545V7.947a.592.592,0,1,0-1.185,0v.632H17.1V7.947a.592.592,0,1,0-1.185,0v.632H14.65V7.947A.592.592,0,0,0,14.048,7.346Z" transform="translate(0)" fill="#2d3155" fill-rule="evenodd"/></g></g></g></g></svg>