<svg xmlns="http://www.w3.org/2000/svg" width="21.429" height="30.467" viewBox="0 0 21.429 30.467"><path d="M36.1,30.467H32.637a.522.522,0,0,1-.522-.522V3.545A4.054,4.054,0,0,1,34.092.073a.521.521,0,0,1,.529,0,4.037,4.037,0,0,1,2,3.474v26.4A.522.522,0,0,1,36.1,30.467Zm-2.937-1.043h2.416V3.545a2.991,2.991,0,0,0-1.214-2.4,3.01,3.01,0,0,0-1.2,2.4Z" transform="translate(-26.85 0)" fill="#2d3155"/><path d="M57.071,30.467H53.629a.522.522,0,0,1-.522-.522V3.546A4.054,4.054,0,0,1,55.084.074a.523.523,0,0,1,.529,0,4.027,4.027,0,0,1,1.979,3.474v26.4A.522.522,0,0,1,57.071,30.467Zm-2.92-1.043h2.4V3.546a2.946,2.946,0,0,0-1.2-2.4,3.01,3.01,0,0,0-1.2,2.4Z" transform="translate(-41.446 -0.001)" fill="#2d3155"/><path d="M37.9,49.3h-.643a.522.522,0,0,1,0-1.043H37.9a.522.522,0,0,1,0,1.043Z" transform="translate(-30.063 -33.556)" fill="#2d3155"/><path d="M37.9,62.593h-.643a.522.522,0,0,1,0-1.043H37.9a.522.522,0,0,1,0,1.043Z" transform="translate(-30.063 -42.798)" fill="#2d3155"/><path d="M58.892,49.3h-.643a.522.522,0,1,1,0-1.043h.643a.522.522,0,1,1,0,1.043Z" transform="translate(-44.659 -33.556)" fill="#2d3155"/><path d="M58.892,62.593h-.643a.522.522,0,1,1,0-1.043h.643a.522.522,0,1,1,0,1.043Z" transform="translate(-44.659 -42.798)" fill="#2d3155"/><path d="M19.973,49.109a.522.522,0,0,1-.522-.522V27.332a.522.522,0,0,1,1.043,0V48.587A.522.522,0,0,1,19.973,49.109Z" transform="translate(-18.044 -18.642)" fill="#2d3155"/><path d="M18.186,87.009H15.353a.522.522,0,0,1,0-1.043h2.833a.522.522,0,0,1,0,1.043Z" transform="translate(-14.832 -59.775)" fill="#2d3155"/><path d="M18.9,18.255H17.178a.522.522,0,0,1-.522-.522V13.527a.522.522,0,0,1,.522-.522H18.9a.522.522,0,0,1,.522.522v4.206A.522.522,0,0,1,18.9,18.255Zm-1.2-1.043h.678V14.049H17.7Z" transform="translate(-16.1 -9.043)" fill="#2d3155"/><path d="M77.589,49.109a.522.522,0,0,1-.521-.522V27.332a.522.522,0,0,1,1.043,0V48.587A.522.522,0,0,1,77.589,49.109Z" transform="translate(-58.106 -18.642)" fill="#2d3155"/><path d="M75.8,87.009H72.967a.522.522,0,1,1,0-1.043H75.8a.522.522,0,1,1,0,1.043Z" transform="translate(-54.892 -59.775)" fill="#2d3155"/><path d="M76.513,18.255H74.793a.522.522,0,0,1-.521-.522V13.527a.522.522,0,0,1,.521-.522h1.721a.522.522,0,0,1,.521.522v4.206A.522.522,0,0,1,76.513,18.255Zm-1.2-1.043h.678V14.049h-.678Z" transform="translate(-56.162 -9.043)" fill="#2d3155"/></svg>