<svg xmlns="http://www.w3.org/2000/svg" width="30.367" height="30.392" viewBox="0 0 30.367 30.392"><path d="M104.237,7.973a3.037,3.037,0,1,1,3.037-3.012A3.036,3.036,0,0,1,104.237,7.973Zm0-5.069a2.057,2.057,0,1,0,2.057,2.057A2.054,2.054,0,0,0,104.237,2.9Z" transform="translate(-76.906 -1.9)" fill="#2d3155"/><path d="M4.571,43.05a2.563,2.563,0,0,1-1.812-4.384l23.9-22.384a.485.485,0,0,1,.661.71L3.42,39.377a1.58,1.58,0,0,0,1.127,2.694,1.615,1.615,0,0,0,1.127-.465L28.033,17.728a.485.485,0,0,1,.71.661L6.359,42.291A2.442,2.442,0,0,1,4.571,43.05Z" transform="translate(-2 -12.658)" fill="#2d3155"/><g transform="translate(0 0.024)"><g transform="translate(3.465 3.499)"><path d="M32.276,26.429a.585.585,0,0,1-.343-.122l-9.8-9.184a.485.485,0,1,1,.661-.71l9.8,9.184a.5.5,0,0,1,.024.686A.445.445,0,0,1,32.276,26.429Z" transform="translate(-20.557 -16.287)" fill="#2d3155"/><path d="M25.76,32.692a.54.54,0,0,1-.367-.147L16.283,22.8a.473.473,0,0,1,.024-.686.5.5,0,0,1,.686.024l9.11,9.747a.473.473,0,0,1-.024.686A.466.466,0,0,1,25.76,32.692Z" transform="translate(-16.148 -20.591)" fill="#2d3155"/><path d="M75.063,77.513a2.539,2.539,0,0,1-1.812-.759l-11.167-11.9a.485.485,0,0,1,.71-.661l11.167,11.9a1.535,1.535,0,0,0,1.1.441,1.66,1.66,0,0,0,1.127-.465,1.572,1.572,0,0,0,.465-1.127,1.615,1.615,0,0,0-.465-1.127L64.214,62.623a.485.485,0,0,1,.661-.71L76.85,73.129a2.543,2.543,0,0,1,0,3.624A2.4,2.4,0,0,1,75.063,77.513Z" transform="translate(-50.731 -50.644)" fill="#2d3155"/></g><path d="M5.037,8.049A3.025,3.025,0,1,1,8.073,5.037,3.047,3.047,0,0,1,5.037,8.049Zm0-5.069A2.057,2.057,0,1,0,7.094,5.037,2.038,2.038,0,0,0,5.037,2.98Z" transform="translate(-2 -2)" fill="#2d3155"/></g></svg>