<svg xmlns="http://www.w3.org/2000/svg" width="27.553" height="30.376" viewBox="0 0 27.553 30.376"><path d="M20.368,23.093a1.433,1.433,0,0,0-.292-.227,1.52,1.52,0,0,0-1.319-.114,13.931,13.931,0,0,1-2.077-5.813l-.044-.257c.035-.254.062-.514.073-.785a8.539,8.539,0,0,0-.4-2.883c0-.016-.014-.041-.024-.066a9.833,9.833,0,0,0-.7-1.681,11.259,11.259,0,0,0-.974-1.512,11.977,11.977,0,0,0-.964-1.1c-.074-.074-.144-.144-.208-.2a10.792,10.792,0,0,0-1.369-1.112A10.268,10.268,0,0,0,9.338,6.009c-.235-.075-.478-.143-.718-.2A8.735,8.735,0,0,0,6.385,5.6l-.065,0a7.079,7.079,0,0,0-2.055.394,6.185,6.185,0,0,0-1.675.888A5.766,5.766,0,0,0,1.3,8.171,6.206,6.206,0,0,0,.406,9.849a6.918,6.918,0,0,0-.391,2.012A.9.9,0,0,0,.005,12a8.713,8.713,0,0,0,.218,2.213c.055.239.121.482.2.712a10.013,10.013,0,0,0,.44,1.146,10.117,10.117,0,0,0,.9,1.589,10.678,10.678,0,0,0,1.1,1.355c.07.079.139.149.214.223h0a12.077,12.077,0,0,0,1.1.967,11.282,11.282,0,0,0,1.509.971,9.821,9.821,0,0,0,1.662.7.891.891,0,0,0,.1.035,8.606,8.606,0,0,0,2.54.4q.154,0,.307-.006h.06c.255-.01.5-.037.751-.072l.251.043a13.937,13.937,0,0,1,5.811,2.076,1.519,1.519,0,0,0,.343,1.613l6.748,6.748a.808.808,0,0,0,.092.08,1.514,1.514,0,0,0,2.051-.085l.716-.716a1.52,1.52,0,0,0,0-2.148Zm-2.419.27-.176.176a12.716,12.716,0,0,0-4.588-1.946,6.068,6.068,0,0,0,.954-.579,6.251,6.251,0,0,0,1.285-1.285A6.065,6.065,0,0,0,16,18.775a12.715,12.715,0,0,0,1.946,4.588Zm-7.623-2.078h-.06a7.528,7.528,0,0,1-2.531-.35.518.518,0,0,0-.059-.022,8.8,8.8,0,0,1-1.519-.633A10.266,10.266,0,0,1,4.79,19.4a10.968,10.968,0,0,1-1-.882c-.06-.06-.116-.116-.186-.194a9.8,9.8,0,0,1-1.009-1.242,9.232,9.232,0,0,1-1.208-2.466c-.067-.207-.126-.421-.174-.63a7.7,7.7,0,0,1-.193-1.953l-.506-.018.51-.059a6.082,6.082,0,0,1,.339-1.77A5.223,5.223,0,0,1,2.113,8.77,4.76,4.76,0,0,1,3.189,7.7,5.2,5.2,0,0,1,4.6,6.948a6.123,6.123,0,0,1,1.783-.339l.059,0h0A7.613,7.613,0,0,1,8.4,6.8c.211.048.425.107.636.175a9.24,9.24,0,0,1,2.462,1.208A9.892,9.892,0,0,1,12.751,9.2c.063.056.119.113.179.173a10.905,10.905,0,0,1,.878,1,10.241,10.241,0,0,1,.882,1.37,8.812,8.812,0,0,1,.634,1.521.452.452,0,0,0,.022.059v0A7.6,7.6,0,0,1,15.7,15.9a6.166,6.166,0,0,1-.339,1.814,5.2,5.2,0,0,1-.743,1.412,5.353,5.353,0,0,1-.5.581,5.444,5.444,0,0,1-.58.5,5.215,5.215,0,0,1-1.416.745,6.15,6.15,0,0,1-1.791.338Zm16.068,9.983-.716.716a.5.5,0,0,1-.687.023l-.034-.028-6.738-6.738a.506.506,0,0,1-.005-.708s.006,0,.008-.007,0-.006,0-.009l.7-.7.01-.005s0-.007.008-.01a.517.517,0,0,1,.618-.063.439.439,0,0,1,.089.07l6.743,6.743a.507.507,0,0,1,0,.716Z" transform="translate(-0.002 -2.769)" fill="#2d3155"/><path d="M40.286,8.621A4.275,4.275,0,0,0,41.3,8.5a3.351,3.351,0,0,0,.568-.175,4.275,4.275,0,0,0,1.478-.965,4.2,4.2,0,0,0,.962-1.469,3.4,3.4,0,0,0,.176-.569,4.259,4.259,0,0,0-1.138-4.046,4.3,4.3,0,1,0-3.062,7.347Zm1.736-1.5a1.829,1.829,0,0,0-1.65-1.188A1.4,1.4,0,0,1,39.042,4.6a1.487,1.487,0,0,1,1.548-1.55,1.4,1.4,0,0,1,1.33,1.331,1.829,1.829,0,0,0,1.19,1.65,3.207,3.207,0,0,1-1.088,1.086ZM37.981,1.99a3.287,3.287,0,0,1,5.521,3.1.815.815,0,0,1-.569-.731,2.41,2.41,0,0,0-2.312-2.315A2.5,2.5,0,0,0,38.03,4.628a2.411,2.411,0,0,0,2.314,2.314.815.815,0,0,1,.732.568,3.257,3.257,0,0,1-3.095-.869,3.293,3.293,0,0,1,0-4.652Z" transform="translate(-17.774 -0.017)" fill="#2d3155"/></svg>