<svg xmlns="http://www.w3.org/2000/svg" width="32.023" height="28.727" viewBox="0 0 32.023 28.727"><path d="M75.241,279.456a.469.469,0,0,0,.781-.52,2.51,2.51,0,0,0-4.3,0,.469.469,0,1,0,.781.52,1.575,1.575,0,0,1,2.738,0Z" transform="translate(-67.162 -262)" fill="#2d3155"/><path d="M111.309,358.111H104.27a.469.469,0,0,0-.414.689,4.182,4.182,0,0,0,7.867,0,.469.469,0,0,0-.414-.689Zm-3.519,2.514a3.371,3.371,0,0,1-2.678-1.576h5.355A3.371,3.371,0,0,1,107.79,360.625Z" transform="translate(-97.309 -337.361)" fill="#2d3155"/><path d="M194.455,277.722a2.578,2.578,0,0,0-2.15,1.215.469.469,0,1,0,.781.519,1.575,1.575,0,0,1,2.738,0,.469.469,0,1,0,.781-.519A2.578,2.578,0,0,0,194.455,277.722Z" transform="translate(-180.204 -262)" fill="#2d3155"/><path d="M31.371,26.6a1.481,1.481,0,0,0-1.47-.1,20.9,20.9,0,0,1-8.36,1.5,20.9,20.9,0,0,1-8.361-1.5,1.481,1.481,0,0,0-1.47.1,1.444,1.444,0,0,0-.648,1.282,32.706,32.706,0,0,0,1.4,8.262.469.469,0,0,0,.895-.282A31.774,31.774,0,0,1,12,27.831a.51.51,0,0,1,.231-.456.551.551,0,0,1,.547-.037,21.526,21.526,0,0,0,8.765,1.588A21.528,21.528,0,0,0,30.3,27.339a.551.551,0,0,1,.547.037.512.512,0,0,1,.232.458A27.125,27.125,0,0,1,27.922,40c-1.739,2.952-4.005,4.577-6.381,4.577a5.359,5.359,0,0,1-1.6-.246,33.444,33.444,0,0,0,.943-5.772,2.664,2.664,0,0,1,.654-.082,3.371,3.371,0,0,1,2.678,1.576H22.343a.469.469,0,1,0,0,.938h2.718a.469.469,0,0,0,.414-.689,4.6,4.6,0,0,0-3.934-2.763,3.581,3.581,0,0,0-.591.049c0-.053.006-.106.009-.158a1.446,1.446,0,0,0-.649-1.284,1.481,1.481,0,0,0-1.47-.1,20.9,20.9,0,0,1-8.36,1.5,20.9,20.9,0,0,1-8.36-1.5,1.482,1.482,0,0,0-1.47.1A1.446,1.446,0,0,0,0,37.432a28.063,28.063,0,0,0,3.29,12.6c1.915,3.25,4.468,5.039,7.189,5.039s5.274-1.79,7.189-5.039a21.461,21.461,0,0,0,2.024-4.794,6.291,6.291,0,0,0,1.848.281c2.721,0,5.274-1.79,7.189-5.039a28.063,28.063,0,0,0,3.29-12.6,1.446,1.446,0,0,0-.649-1.284ZM16.86,49.555c-1.739,2.952-4.005,4.577-6.38,4.577S5.839,52.507,4.1,49.555A27.124,27.124,0,0,1,.938,37.387a.512.512,0,0,1,.232-.458.548.548,0,0,1,.3-.092.562.562,0,0,1,.242.055,21.528,21.528,0,0,0,8.764,1.587,21.528,21.528,0,0,0,8.764-1.587.551.551,0,0,1,.547.037.512.512,0,0,1,.232.458A27.124,27.124,0,0,1,16.86,49.555Z" transform="translate(0.001 -26.344)" fill="#2d3155"/><path d="M371.311,134.965a2.578,2.578,0,0,0,2.15-1.215.469.469,0,0,0-.781-.519,1.575,1.575,0,0,1-2.738,0,.469.469,0,0,0-.781.519A2.579,2.579,0,0,0,371.311,134.965Z" transform="translate(-345.998 -126.349)" fill="#2d3155"/><path d="M250.728,134.965a2.578,2.578,0,0,0,2.15-1.215.469.469,0,0,0-.781-.519,1.575,1.575,0,0,1-2.738,0,.469.469,0,0,0-.781.519A2.578,2.578,0,0,0,250.728,134.965Z" transform="translate(-232.957 -126.349)" fill="#2d3155"/></svg>