<svg xmlns="http://www.w3.org/2000/svg" width="30.083" height="30.083" viewBox="0 0 30.083 30.083"><path d="M63.332,11.455a.359.359,0,0,0-.065-.06c-.01-.006-.021-.006-.03-.011A7.126,7.126,0,0,0,59.018,10l-.036,0h0a7.168,7.168,0,0,0-6.018,11.015,1.7,1.7,0,0,0-.817,1.446V27.62a1.7,1.7,0,0,0,.817,1.446,7.149,7.149,0,0,0,1.74,9.562.193.193,0,0,0,.1.077,7.166,7.166,0,0,0,10.265-9.638,1.7,1.7,0,0,0,.817-1.446V22.463a1.7,1.7,0,0,0-.817-1.446,7.149,7.149,0,0,0-1.74-9.562Zm1.478,2.961a10.894,10.894,0,0,1-7.51,4.669,11.936,11.936,0,0,1-.057-3,9.086,9.086,0,0,0,5.916-3.815A6.453,6.453,0,0,1,64.809,14.416ZM59.2,10.761a6.379,6.379,0,0,1,3.358,1.059,8.459,8.459,0,0,1-5.2,3.478A11.4,11.4,0,0,1,59.2,10.761Zm-6.6,6.413A6.428,6.428,0,0,1,58.259,10.8a12.444,12.444,0,0,0-1.383,9.961H53.849c-.049,0-.1.01-.143.014A6.371,6.371,0,0,1,52.6,17.174Zm1.11,12.133c.048,0,.094.014.143.014h6.529c.09.316.168.628.231.934a11.468,11.468,0,0,0-7.718,4.576,6.406,6.406,0,0,1,.815-5.525Zm5.132,10.015a6.38,6.38,0,0,1-3.358-1.059,8.459,8.459,0,0,1,5.2-3.478A11.4,11.4,0,0,1,58.838,39.322Zm-5.61-3.655A10.893,10.893,0,0,1,60.738,31a11.937,11.937,0,0,1,.057,3,9.086,9.086,0,0,0-5.916,3.815A6.453,6.453,0,0,1,53.227,35.667ZM65.44,32.909a6.428,6.428,0,0,1-5.663,6.373,12.444,12.444,0,0,0,1.382-9.961h3.027c.049,0,.1-.01.143-.014A6.371,6.371,0,0,1,65.44,32.909Zm-.3-5.29a.951.951,0,0,1-.95.95H53.849a.951.951,0,0,1-.95-.95V22.463a.951.951,0,0,1,.95-.95H64.187a.951.951,0,0,1,.95.95Zm-.806-6.843c-.048,0-.094-.014-.143-.014H57.658c-.09-.316-.168-.628-.231-.934a11.468,11.468,0,0,0,7.718-4.576,6.406,6.406,0,0,1-.815,5.525Z" transform="translate(-36.109 -10)" fill="#2d3155"/><path d="M11.886,16.419V36.985a4.2,4.2,0,0,0,1.235,2.987.376.376,0,0,0,.532,0,4.2,4.2,0,0,0,1.235-2.987V16.419a3.387,3.387,0,1,0-3,0Zm2.251,20.566a3.452,3.452,0,0,1-.749,2.157,3.452,3.452,0,0,1-.749-2.157v-20.3a3.295,3.295,0,0,0,1.5,0Zm-.749-26.233a2.635,2.635,0,1,1-2.635,2.635A2.638,2.638,0,0,1,13.387,10.752Z" transform="translate(-10 -10)" fill="#2d3155"/><path d="M32.679,10.117a.387.387,0,0,0-.532,0A4.2,4.2,0,0,0,30.911,13.1V33.671a3.387,3.387,0,1,0,3,0V13.1A4.2,4.2,0,0,0,32.679,10.117ZM31.663,13.1a3.453,3.453,0,0,1,.749-2.157,3.451,3.451,0,0,1,.75,2.157V33.4a3.295,3.295,0,0,0-1.5,0Zm3.385,23.6a2.635,2.635,0,1,1-2.635-2.635A2.638,2.638,0,0,1,35.048,36.7Z" transform="translate(-21.871 -10.007)" fill="#2d3155"/></svg>