<svg xmlns="http://www.w3.org/2000/svg" width="38.602" height="22.92" viewBox="0 0 38.602 22.92"><path d="M24.885,29.5a7.388,7.388,0,0,0,7.358,7.358A7.311,7.311,0,0,0,39.6,29.5a7.244,7.244,0,0,0-8.565-7.238l-1.809-7.057h3.016a.663.663,0,1,1,0,1.327h-.9a.6.6,0,0,0,0,1.206h.9a1.87,1.87,0,0,0,0-3.74H28.5a.6.6,0,0,0-.6.724l.9,3.559H17.587l-.6-1.689h1.086a.6.6,0,1,0,0-1.206h-3.8a.6.6,0,1,0,0,1.206h1.448l.724,2.171-3.86,4.644a7.312,7.312,0,0,0-4.222-1.327A7.48,7.48,0,0,0,1,29.5a7.371,7.371,0,0,0,14.717.663h2.714a2.408,2.408,0,0,0,1.086,1.448l-.6,1.99h-.965a.6.6,0,0,0,0,1.206h3.257a.6.6,0,0,0,0-1.206H20.18l.483-1.629h.121A2.42,2.42,0,0,0,23.2,29.561a2.454,2.454,0,0,0-.483-1.448l6.514-7.841.6,2.292A7.307,7.307,0,0,0,24.885,29.5Zm-7.962-9.349,2.533,7.358a2.572,2.572,0,0,0-1.025,1.448H15.717a7.3,7.3,0,0,0-2.171-4.644ZM10.289,28.9a1.212,1.212,0,0,0-.241-.483l2.714-3.257a6.042,6.042,0,0,1,1.749,3.74Zm-1.146.6a.784.784,0,1,1-.784-.784A.8.8,0,0,1,9.143,29.5Zm-.784,6.212a6.182,6.182,0,0,1,0-12.365A6.075,6.075,0,0,1,11.8,24.374L9.082,27.631a1.53,1.53,0,0,0-.724-.121,1.99,1.99,0,1,0,0,3.981,1.954,1.954,0,0,0,1.87-1.387H14.45A6.112,6.112,0,0,1,8.358,35.713Zm12.726-5.006.181-.6a.593.593,0,0,0-1.146-.3l-.181.6a1.516,1.516,0,0,1-.362-.844,1.206,1.206,0,1,1,2.413,0A1.162,1.162,0,0,1,21.085,30.707Zm.724-3.378a2.841,2.841,0,0,0-1.025-.241H20.6l-2.654-7.6H28.262Zm10.434-3.981a6.4,6.4,0,1,1-2.051.422l1.025,4.1a2.059,2.059,0,0,0-.965,1.689,1.99,1.99,0,0,0,3.981,0,1.987,1.987,0,0,0-1.87-1.99l-1.025-4.1A4.656,4.656,0,0,1,32.243,23.349Zm0,5.368a.784.784,0,1,1-.784.784A.8.8,0,0,1,32.243,28.717Z" transform="translate(-1 -14)" fill="#2d3155"/></svg>