<svg xmlns="http://www.w3.org/2000/svg" width="32.524" height="32.574" viewBox="0 0 32.524 32.574"><path d="M27.536,24.95V21.957l5.175,3.5a.522.522,0,0,0,.812-.406V9.018a.507.507,0,0,0-.812-.406l-5.175,3.5V9.069a2.036,2.036,0,0,0-2.03-2.03H14.243l2.334-3.7H24.34c.406.812,1.725,1.421,3.45,1.421,2.03,0,3.552-.812,3.552-1.928S29.82.9,27.79.9c-1.725,0-3.044.609-3.45,1.421H16.272a.452.452,0,0,0-.406.254L13.025,7.039h-10A2.036,2.036,0,0,0,1,9.069V24.95a2.036,2.036,0,0,0,2.03,2.03h8.524L6.683,32.612a.5.5,0,0,0,.761.66l5.429-6.292h.863v5.987a.507.507,0,0,0,1.015,0V26.98h.863l5.429,6.292a.5.5,0,0,0,.761-.66L16.932,26.98h8.524A2.047,2.047,0,0,0,27.536,24.95ZM27.79,1.915c1.674,0,2.537.609,2.537.913s-.913.913-2.537.913c-1.573,0-2.537-.609-2.537-.913S26.217,1.915,27.79,1.915Zm4.668,8.017V24.088l-4.922-3.349V13.28ZM2.015,24.95V9.069A1.018,1.018,0,0,1,3.03,8.054H25.507a1.018,1.018,0,0,1,1.015,1.015V24.95a1.018,1.018,0,0,1-1.015,1.015h-8.93l-2.638-2.892a.548.548,0,0,0-.355-.152H6.48a.479.479,0,0,0-.507.507v2.537H3.03A1.018,1.018,0,0,1,2.015,24.95Zm4.972,1.015v-2.03H13.33l1.877,2.03Z" transform="translate(-1 -0.9)" fill="#2d3155"/><path d="M40.328,23.756A1.928,1.928,0,1,0,38.4,21.828,1.927,1.927,0,0,0,40.328,23.756Zm0-2.841a.913.913,0,1,1-.913.913A.91.91,0,0,1,40.328,20.915Z" transform="translate(-19.424 -10.26)" fill="#2d3155"/></svg>