<svg xmlns="http://www.w3.org/2000/svg" width="30.376" height="30.376" viewBox="0 0 30.376 30.376"><path d="M31.8,22.153c1,1.664,2.735,3.246,5.683,5.342,5.619-2.616,11.2-2.366,14.334.367a14.069,14.069,0,0,0-1.626-5.494C46.5,19.2,38.844,18.978,31.8,22.153Z" transform="translate(-22.503 -13.866)" fill="none"/><path d="M20.212,31.084a17.8,17.8,0,0,0,1.849-7.952c-5.422-3.85-7.132-6.215-7.425-10.888a14.269,14.269,0,0,0-4.037,4.5C10.311,20.788,14.053,26.565,20.212,31.084Z" transform="translate(-7.732 -8.55)" fill="none"/><path d="M45.728,8.614A14.147,14.147,0,0,0,27.59,5.365a11.685,11.685,0,0,0,.76,4.291C34.578,6.84,41.314,6.6,45.728,8.614Z" transform="translate(-19.573 -2.399)" fill="none"/><path d="M60.969,43.129c-.206,7.819-4.139,13.809-8.7,16.283A14.19,14.19,0,0,0,66.113,45.764,7.646,7.646,0,0,0,60.969,43.129Z" transform="translate(-36.761 -30.055)" fill="none"/><path d="M15.406,47.3C9.836,43.247,6.2,38.27,5.381,34.1a14.167,14.167,0,0,0,5.484,16.662A7.491,7.491,0,0,0,15.406,47.3Z" transform="translate(-3.513 -23.771)" fill="none"/><path d="M44.167,42.817A16.905,16.905,0,0,0,36.59,44.5c-.107,6.366-2.91,11.536-6.794,13.113a14.061,14.061,0,0,0,4.251,1.4C39.061,57.685,43.964,51.425,44.167,42.817Z" transform="translate(-21.109 -29.833)" fill="none"/><path d="M16.381.082A15.188,15.188,0,1,0,31.57,15.27,15.2,15.2,0,0,0,16.381.082Zm14.124,14c-3.135-2.733-8.715-2.983-14.334-.367-2.948-2.1-4.685-3.678-5.683-5.342,7.046-3.175,14.706-2.955,18.391.214A14.069,14.069,0,0,1,30.506,14.078ZM16.382,1.093A14.155,14.155,0,0,1,27.349,6.3C22.934,4.281,16.2,4.523,9.97,7.339a11.685,11.685,0,0,1-.76-4.291A14.087,14.087,0,0,1,16.382,1.093ZM4.061,8.271A14.28,14.28,0,0,1,8.1,3.776c.292,4.673,2,7.038,7.425,10.889a17.806,17.806,0,0,1-1.849,7.952C7.516,18.1,3.774,12.32,4.061,8.271Zm-1.856,7a14.105,14.105,0,0,1,.857-4.855c.817,4.166,4.455,9.143,10.025,13.2a7.492,7.492,0,0,1-4.541,3.463A14.172,14.172,0,0,1,2.205,15.27Zm11.926,14a14.061,14.061,0,0,1-4.251-1.4c3.884-1.577,6.687-6.747,6.794-13.113a16.905,16.905,0,0,1,7.577-1.683C24.048,21.674,19.146,27.934,14.132,29.266Zm2.576.172c4.556-2.474,8.489-8.464,8.7-16.283a7.645,7.645,0,0,1,5.144,2.635A14.19,14.19,0,0,1,16.707,29.438Z" transform="translate(-1.194 -0.082)" fill="#2d3155"/></svg>