<svg xmlns="http://www.w3.org/2000/svg" width="32.483" height="32.382" viewBox="0 0 32.483 32.382"><path d="M50.907,8.415A2.707,2.707,0,0,1,53.6,11.1a.507.507,0,1,0,1.015,0,3.692,3.692,0,0,0-3.7-3.7.507.507,0,0,0,0,1.015Z" transform="translate(-25.325 -4.203)" fill="#2d3155"/><path d="M1.142,6.478a.5.5,0,0,0,.1.812l12.837,7.459L9.311,20.026l-5.328.609a.439.439,0,0,0-.3.152L1.5,23.019a.5.5,0,0,0,.3.863l7.712,1.167,1.167,7.712a.527.527,0,0,0,.863.3l2.182-2.182a.439.439,0,0,0,.152-.3l.609-5.328,5.277-4.719,7.408,12.685a.5.5,0,0,0,.812.1l2.08-2.08a.708.708,0,0,0,.152-.457l-3.1-16.9,4.871-4.414c1.421-1.319,1.471-6.8,1.471-7.865a.479.479,0,0,0-.507-.507h0c-1.066,0-6.545.051-7.915,1.421l-4.313,4.82L3.679,4.246a.434.434,0,0,0-.457.152Zm28.008,24.2L27.729,32.1,20.575,19.823,26.258,14.7ZM25.8,3.231c.761-.761,4.262-1.066,6.647-1.116C32.4,4.5,32.093,8,31.332,8.762L13.726,24.592a.439.439,0,0,0-.152.3l-.609,5.328-1.37,1.37-1.116-7.1a.481.481,0,0,0-.457-.406l-7.1-1.066,1.37-1.37,5.328-.66a.362.362,0,0,0,.3-.152ZM3.781,5.261,19.966,8.2l-5.175,5.784L2.309,6.732Z" transform="translate(-0.98 -1.1)" fill="#2d3155"/></svg>