<svg xmlns="http://www.w3.org/2000/svg" xmlns:xlink="http://www.w3.org/1999/xlink" width="35" height="28" viewBox="0 0 35 28"><defs><path id="logo-wamcar" d="M53.7 16.25l.68-.08.44-.03c.14 0 .2.02.18.06-.08.26-.15.52-.2.78-.06.27-.13.53-.21.79l-.51 1.85c-.18.62-.34 1.24-.49 1.86l-.69 2.5c-.23.82-.45 1.65-.66 2.5l-1.47 5.39-.67 2.46-.68 2.45-.47 1.8-.5 1.8-.18.7c-.05.22-.12.46-.2.7a.84.84 0 0 1-.52.34l-.3.11-.33.11c-.48.17-.96.33-1.43.47l-1.47.43c-.5.13-1 .25-1.49.35l-1.5.3c-.3.07-.67.11-1.09.11a.45.45 0 0 1-.2-.06l-.19-.78-.18-.79-.48-1.88-.47-1.85-.62-2.52a304.8 304.8 0 0 0-.69-2.74l-.04-.22c-.18.6-.34 1.2-.51 1.81l-.5 1.84-.47 1.78c-.17.59-.32 1.19-.48 1.79l-.2.7-.17.7c-.15.17-.33.28-.52.34l-.33.11-.3.11c-.48.17-.96.33-1.45.47l-1.48.43c-.5.13-.99.25-1.48.35-.49.11-.98.2-1.48.3-.33.07-.7.11-1.12.11a.38.38 0 0 1-.17-.06c-.06-.26-.12-.51-.19-.74-.07-.23-.13-.48-.19-.74l-.46-1.84-.46-1.84a302.22 302.22 0 0 0-1.26-5l-.67-2.7-.68-2.72a433.2 433.2 0 0 0-1.26-4.95c-.16-.59-.31-1.2-.45-1.81a53.14 53.14 0 0 0-.62-2.51l-.17-.7a.87.87 0 0 1 .52-.34l.6-.25a35.3 35.3 0 0 1 2.93-.87c.5-.13.99-.26 1.48-.37l1.48-.31a12.57 12.57 0 0 1 1.12-.11c.08.04.13.06.17.06a88.22 88.22 0 0 1 .38 1.51l.47 1.83.48 1.85.61 2.49.62 2.48c.04.1.06.19.07.27.01.08.04.17.07.27l.49-1.83c.18-.62.34-1.23.49-1.85l.5-1.8.48-1.8.19-.68.18-.69a.87.87 0 0 1 .52-.34l.32-.13.31-.12c.48-.17.96-.33 1.44-.47l1.46-.4c.5-.13 1-.26 1.5-.37l1.49-.31a12.57 12.57 0 0 1 1.12-.11c.08.04.14.06.17.06v.02l.19.79.22.79.46 1.85.46 1.88a302.22 302.22 0 0 0 1.26 5l.06.27.06.26.47-1.78.5-1.78.48-1.8.47-1.8c.08-.22.14-.45.2-.68l.2-.69a.87.87 0 0 1 .52-.34l.3-.13.33-.12c.48-.17.96-.33 1.44-.47l1.46-.4 1.48-.37 1.48-.31"/></defs><g transform="translate(-20 -16)"><use fill="#e30613" xlink:href="#logo-wamcar"/></g></svg>
