<svg width="100%" height="648px" viewBox="0 0 790 648" version="1.1" xmlns="http://www.w3.org/2000/svg" xmlns:xlink="http://www.w3.org/1999/xlink">
    <g stroke="none" stroke-width="1" fill="none" fill-rule="evenodd">
        <g transform="translate(-567.000000, -249.000000)" fill="#17303B">
            <g transform="translate(0.000000, -3.000000)">
                <path d="M1327.73506,258.519061 C1334.21944,257.643176 1339.2911,257.007452 1342.9783,256.569509 C1346.63724,256.145693 1349.99951,255.919658 1353.02273,255.919658 C1356.04595,255.919658 1357.34565,256.357601 1356.92184,257.21936 C1355.17007,263.265797 1353.68671,269.326362 1352.38701,275.372799 C1351.07318,281.447491 1349.56157,287.493928 1347.83805,293.540366 C1343.95308,307.808828 1340.05397,322.07729 1336.16899,336.345752 C1332.26989,350.614214 1328.59682,364.882676 1325.13566,379.151138 C1319.95098,398.604279 1314.7663,417.845512 1309.58162,436.86071 C1304.39694,455.890035 1299.41005,475.131268 1294.64918,494.584409 L1261.57743,619.101463 C1256.39275,638.130788 1251.30696,657.032968 1246.33419,675.850386 C1241.37555,694.667803 1236.28976,713.555856 1231.09095,732.599308 C1227.64392,746.429828 1224.06974,760.24622 1220.39667,774.104993 C1216.7236,787.935512 1212.95164,801.766031 1209.05254,815.596551 C1207.75284,821.233299 1206.45313,826.629886 1205.15343,831.828692 C1203.85373,837.013371 1202.35625,842.424085 1200.60448,848.046706 C1198.0192,851.903429 1194.13423,854.516959 1188.94955,855.830788 C1186.77396,856.67842 1184.49948,857.540178 1182.12611,858.401937 C1179.75275,859.263695 1177.28049,860.125454 1174.66696,861.00134 C1163.85966,864.886317 1153.05236,868.460496 1142.24506,871.70975 C1131.43776,874.944876 1120.41855,878.29302 1109.18743,881.768309 C1097.92806,884.777401 1086.69694,887.475694 1075.4517,889.863189 C1064.20646,892.236557 1052.96121,894.496908 1041.7301,896.658368 C1034.80777,898.396012 1026.59988,899.271898 1017.07815,899.271898 C1015.77845,899.271898 1014.26684,898.833955 1012.5292,897.972196 C1011.25775,891.911632 1009.84503,885.851067 1008.33342,879.80463 C1006.80768,873.744065 1005.42322,867.711755 1004.12352,861.65119 C1000.66236,846.944786 997.07405,832.464416 993.415108,818.210081 C989.727911,803.927492 986.167859,789.659029 982.720825,775.390567 C977.945834,755.937427 973.297989,736.597303 968.763161,717.341943 C964.228333,698.128964 959.56636,678.774714 954.819624,659.321573 C953.957865,657.598056 953.421032,655.846284 953.194997,654.122767 C952.983089,652.385123 952.658164,650.661606 952.234348,648.923961 C948.335244,662.782735 944.549157,676.726271 940.890215,690.754571 C937.188891,704.811125 933.416931,718.96657 929.531954,733.235032 C926.056665,747.079678 922.482486,760.79718 918.837671,774.429918 C915.150474,788.04853 911.576295,801.766031 908.129261,815.596551 C906.405743,821.233299 904.880007,826.629886 903.594433,831.828692 C902.294731,837.013371 900.99503,842.424085 899.709455,848.046706 C896.248294,851.903429 892.335062,854.516959 888.026269,855.830788 C885.426866,856.67842 882.940481,857.540178 880.567113,858.401937 C878.179617,859.263695 875.919267,860.125454 873.757807,861.00134 C862.950506,864.886317 852.030188,868.460496 841.01098,871.70975 C829.977645,874.944876 818.845419,878.29302 807.614303,881.768309 C796.369059,884.777401 785.236833,887.475694 774.189371,889.863189 C763.18429,892.236557 752.052064,894.496908 740.80682,896.658368 C733.460682,898.396012 725.026749,899.271898 715.51915,899.271898 C714.643264,899.271898 713.35769,898.833955 711.620046,897.972196 C710.320344,891.911632 708.907625,886.175993 707.410143,880.779406 C705.884406,875.382819 704.499942,869.64718 703.20024,863.600743 C699.724951,849.332281 696.277917,835.162709 692.816755,821.120282 C689.355594,807.063728 685.894432,792.92241 682.433271,778.653948 C677.672408,759.172553 672.925672,739.959575 668.178936,720.916122 C663.418073,701.886797 658.671337,682.659691 653.910474,663.20655 C648.725795,642.439581 643.640007,621.700866 638.667236,600.933896 C633.694465,580.195181 628.622803,559.230431 623.438125,538.039646 C618.663134,519.010321 613.916398,500.094013 609.155535,481.290723 C604.380545,462.473306 599.633809,443.34509 594.887073,423.891949 C591.425912,410.06143 588.091895,396.117893 584.828514,382.061339 C581.607515,368.004785 578.231116,354.075376 574.784082,340.230729 C573.48438,334.622235 572.198806,329.197394 570.899104,324.012715 C569.599403,318.828036 568.299701,313.431449 567,307.808828 C569.599403,303.909723 573.48438,301.324448 578.683186,300.024746 L592.301798,294.190217 C603.532914,290.291112 614.566249,286.73106 625.37355,283.481806 C636.18085,280.24668 647.200058,277.110444 658.431175,274.087225 C669.676418,271.064006 680.822771,268.238568 691.841979,265.639165 C702.875315,263.053889 714.007541,260.680521 725.252784,258.519061 C729.54745,257.643176 733.77148,257.007452 737.896619,256.569509 C741.993504,256.145693 746.217534,255.919658 750.540454,255.919658 C752.263972,256.795544 753.549546,257.21936 754.425432,257.21936 C756.148949,263.265797 757.660558,269.114454 758.96026,274.722948 C760.259961,280.34557 761.559663,286.1801 762.873491,292.240664 C766.320526,306.085311 769.880578,320.127738 773.553647,334.3962 C777.226717,348.664662 780.786769,362.933124 784.262057,377.201586 C789.008793,396.654727 793.656639,415.782942 798.205594,434.586232 C802.740422,453.403649 807.37414,472.531865 812.149131,491.985006 C812.996762,494.160593 813.547723,496.209036 813.773758,498.144461 C813.985665,500.094013 814.522499,502.156583 815.384257,504.303916 C818.845419,490.473396 822.532615,476.416842 826.417593,462.14838 C830.316697,447.879918 833.975639,433.625583 837.436801,419.357121 C841.321778,405.526602 845.107865,391.696083 848.795062,377.851437 C852.454004,364.00679 856.014056,350.176271 859.489345,336.345752 C860.789046,331.146946 862.187638,325.863377 863.713375,320.452663 C865.210857,315.041949 866.623576,309.75838 867.923277,304.559574 C870.508553,300.66047 874.407658,298.075194 879.592336,296.775492 C881.753797,295.913734 884.141292,294.938958 886.726567,293.851164 C889.32597,292.791625 891.685211,291.816849 893.860799,290.940963 C904.668099,287.055985 915.461272,283.481806 926.2827,280.24668 C937.104128,276.997426 948.123336,273.86119 959.368579,270.852098 C970.599695,267.82888 981.844939,264.989314 993.090182,262.404039 C1004.3213,259.818763 1015.55241,257.445395 1026.81179,255.283935 C1031.13471,254.408049 1035.34461,253.758198 1039.45562,253.320255 C1043.56663,252.910567 1047.77654,252.670405 1052.09946,252.670405 C1053.82297,253.54629 1055.12267,253.970106 1055.99856,253.970106 L1055.99856,254.619957 C1057.29826,260.680521 1058.69685,266.726959 1060.20846,272.787523 C1061.72007,278.848088 1063.3447,284.894525 1065.08234,290.940963 C1068.52938,305.209425 1071.99054,319.477887 1075.4517,333.746349 C1078.89874,348.014811 1082.3599,362.495181 1085.82106,377.201586 C1090.58192,396.654727 1095.32866,415.89596 1100.10365,434.911158 C1104.85038,453.940483 1109.59712,473.181716 1114.35798,492.634857 C1114.79593,494.810444 1115.21974,496.858886 1115.65768,498.794311 C1116.09563,500.743864 1116.51944,502.806433 1116.95739,504.953766 C1120.41855,491.123247 1123.9786,477.405746 1127.6658,463.773007 C1131.32474,450.154396 1135.12495,436.436894 1139.00993,422.592248 C1142.45696,408.761729 1146.03114,394.931209 1149.71834,381.086563 C1153.37728,367.256044 1156.95146,353.411398 1160.41262,339.580878 C1162.13614,334.3962 1163.64775,329.098503 1164.94745,323.701917 C1166.24715,318.291203 1167.75876,312.993507 1169.49641,307.808828 C1172.08168,303.909723 1175.96666,301.324448 1181.15134,300.024746 C1183.3128,299.14886 1185.58728,298.188211 1187.97477,297.100418 C1190.34814,296.040878 1192.83452,295.051975 1195.43393,294.190217 C1206.24123,290.291112 1217.04853,286.73106 1227.85583,283.481806 C1238.66313,280.24668 1249.69646,277.110444 1260.92758,274.087225 C1272.17282,271.064006 1283.30505,268.238568 1294.33838,265.639165 C1305.35759,263.053889 1316.48982,260.680521 1327.73506,258.519061"></path>
            </g>
        </g>
    </g>
</svg>
