<svg xmlns="http://www.w3.org/2000/svg" xmlns:xlink="http://www.w3.org/1999/xlink" width="196" height="46" viewBox="0 0 196 46"><defs><path id="a" d="M93.85 20.41l1.08-.13c.26-.03.5-.05.71-.05.21 0 .31.03.28.09-.13.43-.23.86-.33 1.29-.09.43-.2.86-.32 1.28l-.82 3.03a84.24 84.24 0 0 0-.78 3.03l-1.11 4.09c-.36 1.35-.72 2.71-1.05 4.08l-2.34 8.82-1.08 4.02a407.4 407.4 0 0 1-1.08 4.01l-.76 2.94-.8 2.94-.28 1.15c-.09.36-.2.75-.32 1.14-.18.28-.46.46-.82.56l-.49.18-.53.18c-.76.28-1.53.53-2.29.76l-2.34.71c-.8.21-1.59.41-2.39.57l-2.39.49c-.49.12-1.07.18-1.74.18a.74.74 0 0 1-.32-.09l-.3-1.29a126.1 126.1 0 0 0-1.06-4.36 348.34 348.34 0 0 1-1.74-7.14 346.9 346.9 0 0 0-.99-4.1 1.1 1.1 0 0 1-.11-.37 4.05 4.05 0 0 0-.07-.37c-.28.98-.55 1.97-.8 2.96l-.81 3.01c-.24.98-.5 1.95-.75 2.91-.27.97-.52 1.94-.76 2.92-.12.4-.23.78-.32 1.15-.1.36-.19.75-.28 1.14a1.8 1.8 0 0 1-.83.56 15.42 15.42 0 0 0-1.01.36c-.76.28-1.53.53-2.31.76l-2.37.71c-.79.21-1.58.41-2.36.57l-2.37.49c-.52.12-1.11.18-1.79.18a.7.7 0 0 1-.27-.09c-.09-.43-.19-.84-.3-1.22-.11-.38-.21-.79-.3-1.21l-.73-3.01-.74-3.01-1.01-4.08-1.01-4.09-1.08-4.41L44 40.2l-1.02-4.02-1.01-4.06-.71-2.96c-.23-1-.46-1.98-.71-2.96a67.81 67.81 0 0 0-.55-2.3c.18-.27.46-.46.83-.55l.96-.41a57.32 57.32 0 0 1 4.68-1.42 58.83 58.83 0 0 1 5.63-1.24c.29-.03.59-.05.89-.05.12.06.22.09.28.09.12.43.23.84.32 1.24l.28 1.24.75 2.99.76 3.03.99 4.06.98 4.06c.06.15.1.3.12.44.01.13.05.28.11.43l.78-2.98c.28-1.01.54-2.02.78-3.03a160.77 160.77 0 0 0 1.56-5.88 86.59 86.59 0 0 0 .6-2.25c.18-.27.46-.46.83-.55l.5-.2.51-.21a40.9 40.9 0 0 1 2.29-.76 79.85 79.85 0 0 1 7.12-1.76 7.13 7.13 0 0 1 1.79-.19.7.7 0 0 0 .27.09v.05l.3 1.28c.11.43.22.86.35 1.29l.73 3.03c.25 1.01.49 2.03.73 3.08l1.02 4.08 1.01 4.09.09.43.09.44c.24-.98.5-1.95.76-2.92l.8-2.91c.24-.98.5-1.96.76-2.94l.76-2.94c.12-.36.22-.74.32-1.12.09-.38.2-.76.32-1.13.18-.27.46-.46.82-.55l.49-.2a41.2 41.2 0 0 1 2.82-.97 71.93 71.93 0 0 1 4.71-1.26c.78-.18 1.56-.35 2.36-.51"/><path id="b" d="M103.29 49.74c.26-.7.51-1.4.74-2.12l.7-2.12.7-2.06.7-2.07.88 2.65c.3.88.59 1.77.87 2.65.19.52.36 1.03.53 1.54l.53 1.53zm18.73 2.38l-1.11-3.31c-.38-1.09-.75-2.19-1.11-3.31l-1.23-3.66-1.23-3.66-1.16-3.46-1.17-3.47-.9-2.65a70.1 70.1 0 0 1-.89-2.68c-.16-.44-.31-.9-.45-1.36a24.08 24.08 0 0 0-.49-1.48.63.63 0 0 0-.27-.08c-.54 0-1.04.05-1.48.16-1.4.23-2.75.54-4.05.93a57.17 57.17 0 0 0-3.93 1.21l-.45.17-.4.18a.96.96 0 0 0-.71.46l-.31.9-.31.93-.82 2.4a167 167 0 0 0-.77 2.39l-1.15 3.31c-.38 1.09-.75 2.19-1.11 3.31l-1.23 3.68-1.22 3.64-1.17 3.46c-.39 1.14-.77 2.3-1.13 3.47l-.92 2.66-.91 2.67c-.13.47-.27.93-.43 1.38l-.47 1.34c0 .03 0 .05-.02.06l-.02.06c-.02.05.06.08.24.08s.39-.01.62-.04c.24-.03.53-.06.9-.12a37.9 37.9 0 0 0 4.01-.93l1.98-.56c.65-.2 1.31-.41 1.99-.65l.41-.17c.14-.07.29-.13.44-.18.26-.02.5-.17.7-.43l.3-.93c.09-.31.2-.62.33-.93.2-.68.42-1.34.64-1.99l.68-1.99h7.79l.07.34.12.33c.29.9.58 1.79.9 2.66.31.87.6 1.76.89 2.67l.47 1.38.46 1.34c0 .06.02.1.04.12.11.05.18.08.24.08.57 0 1.07-.05 1.52-.16a37.9 37.9 0 0 0 4.01-.93l1.98-.56c.65-.2 1.31-.41 1.99-.65l.4-.17.45-.18c.26-.02.49-.17.7-.43a8.62 8.62 0 0 1-.33-.93l-.29-.93z"/><path id="c" d="M161.99 26.14l.21-.04.52-.07.55-.03c.17 0 .25.02.25.07v31.09a.95.95 0 0 1-.61.4l-.39.16-.36.15c-.56.2-1.13.39-1.71.56a89.31 89.31 0 0 1-3.5.93c-.57.14-1.16.26-1.74.38l-.21.03-.53.07-.54.05c-.17.01-.25-.02-.25-.09V48.91l-1.12 2.65-1.73 3.97c-.12.25-.22.5-.32.76l-.33.77a.99.99 0 0 1-.61.4l-.75.27c-.56.21-1.13.4-1.71.57-.58.16-1.16.34-1.75.52a54.32 54.32 0 0 1-3.49.78 5.9 5.9 0 0 1-1.33.14.47.47 0 0 1-.2-.07l-.07-.15a41.16 41.16 0 0 0-1.26-2.91L138 54.22c-.34-.8-.69-1.6-1.05-2.39-.05-.14-.08-.23-.11-.27v5.6a.93.93 0 0 1-.61.4l-.37.16-.37.15a42.1 42.1 0 0 1-5.2 1.49 55.28 55.28 0 0 1-1.97.41l-.52.07-.54.05c-.17.01-.26-.02-.26-.09V28.72a.99.99 0 0 1 .61-.41l.37-.15.38-.16a37.86 37.86 0 0 1 3.46-1.05c.59-.16 1.17-.3 1.75-.44.58-.14 1.16-.26 1.75-.37.22-.05.44-.08.66-.11.21-.02.43-.03.66-.03.09.05.16.07.2.07l.07.19.07.15.59 1.37a573.42 573.42 0 0 1 1.62 3.77c.34.8.69 1.6 1.05 2.39l1.27 2.96 1.27 2.98c.46 1.02.9 2.05 1.33 3.07.43 1.03.87 2.06 1.32 3.08l.41.91.22-.52.22-.53 1.32-3.09c.43-1.02.87-2.05 1.33-3.09l1.2-2.75c.4-.9.79-1.82 1.17-2.75l1.73-3.97c.12-.25.22-.5.32-.76.11-.26.21-.51.33-.76a.96.96 0 0 1 .61-.41l.37-.15.38-.16a37.1 37.1 0 0 1 3.42-1.05c.59-.16 1.18-.3 1.77-.44.59-.14 1.17-.26 1.76-.37"/><path id="d" d="M192.37 55.07c.14 0 .2.03.18.08-.02.05-.08.1-.17.15l-.26.13a23.8 23.8 0 0 1-2.05.8l-2.01.62c-.94.27-1.88.53-2.82.76a29.36 29.36 0 0 1-5.03.83 13.43 13.43 0 0 1-6.72-1.3 12.4 12.4 0 0 1-3.76-2.8 13.62 13.62 0 0 1-2.49-3.78 14.47 14.47 0 0 1-1.17-4.4c-.16-1.53-.05-3.05.32-4.56a14.3 14.3 0 0 1 4.91-7.66 13.8 13.8 0 0 1 2.81-1.71c1-.45 2.03-.85 3.09-1.18 1.3-.4 2.6-.76 3.91-1.09 1.31-.34 2.64-.6 4-.8a20.5 20.5 0 0 1 2.74-.15 12.73 12.73 0 0 1 4.7 1.04.91.91 0 0 1-.53.35l-.31.13a31.98 31.98 0 0 1-3.32 1.05c-.52.14-1.02.27-1.53.38a33.9 33.9 0 0 1-2.09.42c-.19.02-.38.03-.58.03a.43.43 0 0 0-.17-.06l-.4-.17-.37-.13c-1-.33-2.01-.53-3.01-.59-.83.57-1.59 1.24-2.27 2.01a14.1 14.1 0 0 0-3.12 11.97 14.33 14.33 0 0 0 2.98 6.11 12.34 12.34 0 0 0 9.76 4.5c.45-.14.91-.26 1.37-.37l1.4-.31a12.21 12.21 0 0 1 2.01-.3"/><path id="e" d="M197.86 48.46a50.35 50.35 0 0 0 1-2.93l.48-1.42.49-1.43.6 1.83.61 1.83.36 1.06.36 1.06zm12.93 1.64l-.77-2.29-.76-2.28-.85-2.53-.84-2.52-.81-2.39-.81-2.39c-.2-.61-.4-1.22-.62-1.83a57.17 57.17 0 0 1-.92-2.8 25.86 25.86 0 0 0-.34-1.02.49.49 0 0 0-.19-.05c-.37 0-.71.04-1.02.11-.96.16-1.9.37-2.79.64l-1.37.39c-.45.14-.9.28-1.35.45a8.58 8.58 0 0 0-.59.24.65.65 0 0 0-.48.32l-.22.62-.21.64c-.2.56-.39 1.11-.56 1.65l-.54 1.66-.8 2.28-.76 2.29-.85 2.53-.84 2.52-.81 2.39a129.73 129.73 0 0 1-1.41 4.23 129.73 129.73 0 0 0-.93 2.79l-.32.93-.01.04-.02.04c-.01.04.04.06.16.06l.43-.03.62-.08c.92-.16 1.84-.38 2.77-.65a30.74 30.74 0 0 0 2.74-.83l.28-.12c.1-.05.2-.09.31-.12.18-.02.34-.12.49-.3l.2-.64c.06-.22.14-.43.23-.65l.44-1.37.47-1.37h5.37a2.47 2.47 0 0 0 .14.46c.19.63.4 1.24.62 1.84a102.74 102.74 0 0 0 1.29 3.8c.07.04.12.06.16.06.39 0 .74-.04 1.04-.11.92-.16 1.84-.38 2.77-.65.47-.12.92-.25 1.37-.39a27.06 27.06 0 0 0 1.66-.56c.09-.05.2-.09.3-.12.18-.02.34-.12.49-.3a5.47 5.47 0 0 1-.23-.64l-.2-.65z"/><path id="f" d="M221.9 47.88c0-.02-.02-.03-.05-.03V34.07a5.25 5.25 0 0 1 1.37.33c1.11.39 2.13.97 3.03 1.74a8.5 8.5 0 0 1 2.96 6.78 7.92 7.92 0 0 1-1.54 4.39l-.51.64c-.33.38-.71.74-1.13 1.08-.08.04-.16.06-.23.08-.07.01-.14.04-.22.07l-.92-.17a8.04 8.04 0 0 1-2.76-1.13zm12.27 3.8c-.45-.54-.91-1.07-1.38-1.59l-1.38-1.57-.07-.1a.55.55 0 0 0-.07-.09 8.58 8.58 0 0 0 1.48-.97 9.13 9.13 0 0 0 3.11-4.91 7.86 7.86 0 0 0-.11-3.95 8.24 8.24 0 0 0-3.12-4.56 9.77 9.77 0 0 0-5.29-1.93c-.7-.03-1.41 0-2.12.1-1.08.12-2.16.32-3.22.6-1.06.27-2.12.57-3.17.88a15.96 15.96 0 0 0-3.59 1.56l-.14.09c-.07.03-.1.07-.1.1v20.33c0 .03.06.05.18.05l.38-.03.36-.04.14-.03c.41-.08.82-.16 1.23-.26l1.23-.3 1.2-.35c.4-.12.79-.24 1.18-.39l.26-.1.26-.11a.73.73 0 0 0 .43-.28v-2.74l.51-.08.5-.09.95-.17.94-.2.6.69.63.7 2.76 3.19.43.49a.4.4 0 0 0 .14.05c.34 0 .65-.03.92-.1l1.23-.24a27.5 27.5 0 0 0 3.61-1.05l.19-.07.34-.15c.12-.04.22-.09.31-.14.08-.05.12-.09.1-.12z"/></defs><g transform="translate(-40 -20)"><use fill="#e30613" xlink:href="#a"/></g><g transform="translate(-40 -20)"><use fill="#e30613" xlink:href="#b"/></g><g transform="translate(-40 -20)"><use fill="#e30613" xlink:href="#c"/></g><g transform="translate(-40 -20)"><use fill="#e30613" xlink:href="#d"/></g><g transform="translate(-40 -20)"><use fill="#e30613" xlink:href="#e"/></g><g transform="translate(-40 -20)"><use fill="#e30613" xlink:href="#f"/></g></svg>