<?xml version="1.0" encoding="utf-8"?>
<!-- Generator: Adobe Illustrator 16.0.0, SVG Export Plug-In . SVG Version: 6.00 Build 0)  -->
<!DOCTYPE svg PUBLIC "-//W3C//DTD SVG 1.1//EN" "http://www.w3.org/Graphics/SVG/1.1/DTD/svg11.dtd">
<svg version="1.1" id="Calque_1" xmlns="http://www.w3.org/2000/svg" xmlns:xlink="http://www.w3.org/1999/xlink" x="0px" y="0px"
	 width="1046px" height="638px" viewBox="0 0 1046 638" enable-background="new 0 0 1046 638" xml:space="preserve">
<path fill="#E20717" d="M413.367,272.082c1.146-0.153,2.044-0.267,2.693-0.343c0.648-0.076,1.241-0.115,1.775-0.115
	s0.764,0.079,0.689,0.23c-0.31,1.069-0.573,2.139-0.802,3.207c-0.231,1.072-0.5,2.141-0.805,3.208
	c-0.686,2.521-1.374,5.043-2.062,7.563c-0.686,2.52-1.337,5.041-1.946,7.561c-0.918,3.437-1.834,6.837-2.75,10.195
	c-0.916,3.363-1.796,6.761-2.637,10.198l-5.842,21.999c-0.915,3.358-1.815,6.701-2.693,10.021
	c-0.877,3.326-1.774,6.665-2.693,10.027c-0.61,2.439-1.241,4.885-1.888,7.329c-0.651,2.443-1.319,4.89-2.007,7.334
	c-0.228,0.992-0.458,1.947-0.688,2.862c-0.228,0.92-0.495,1.873-0.802,2.868c-0.458,0.682-1.146,1.146-2.062,1.374
	c-0.382,0.152-0.786,0.304-1.204,0.457c-0.418,0.151-0.857,0.307-1.319,0.458c-1.907,0.686-3.817,1.316-5.727,1.89
	c-1.907,0.576-3.856,1.162-5.84,1.777c-1.988,0.53-3.974,1.011-5.959,1.433c-1.987,0.418-3.973,0.816-5.957,1.197
	c-1.223,0.313-2.674,0.464-4.355,0.464c-0.229,0-0.498-0.078-0.803-0.229c-0.226-1.071-0.475-2.145-0.743-3.212
	c-0.27-1.066-0.514-2.134-0.744-3.207c-0.611-2.594-1.244-5.153-1.891-7.674c-0.651-2.521-1.279-5.043-1.89-7.563
	c-0.842-3.437-1.664-6.852-2.463-10.256c-0.804-3.393-1.626-6.812-2.465-10.249c-0.154-0.303-0.247-0.612-0.286-0.917
	c-0.039-0.306-0.095-0.611-0.171-0.919c-0.689,2.448-1.357,4.913-2.004,7.393c-0.653,2.479-1.32,4.98-2.005,7.498
	c-0.614,2.451-1.246,4.874-1.892,7.281c-0.651,2.407-1.28,4.829-1.891,7.273c-0.303,0.992-0.572,1.947-0.802,2.862
	c-0.229,0.92-0.457,1.873-0.686,2.868c-0.612,0.682-1.301,1.146-2.062,1.374c-0.46,0.152-0.9,0.304-1.319,0.457
	c-0.422,0.151-0.822,0.307-1.204,0.458c-1.91,0.686-3.836,1.316-5.783,1.89c-1.951,0.576-3.917,1.162-5.9,1.777
	c-1.988,0.53-3.954,1.011-5.905,1.433c-1.944,0.418-3.912,0.816-5.897,1.197c-1.299,0.313-2.788,0.464-4.469,0.464
	c-0.153,0-0.381-0.078-0.688-0.229c-0.229-1.071-0.478-2.083-0.745-3.036c-0.266-0.955-0.513-1.966-0.744-3.039
	c-0.611-2.52-1.221-5.021-1.833-7.503c-0.612-2.481-1.223-4.981-1.833-7.5c-0.841-3.44-1.682-6.839-2.52-10.201
	c-0.842-3.359-1.679-6.758-2.52-10.195c-0.917-3.666-1.815-7.33-2.695-10.998c-0.876-3.665-1.773-7.368-2.69-11.113
	c-0.841-3.359-1.681-6.701-2.522-10.023c-0.842-3.325-1.682-6.702-2.52-10.142c-0.612-2.441-1.201-4.906-1.777-7.39
	c-0.571-2.48-1.165-4.943-1.775-7.389c-0.229-0.991-0.457-1.947-0.687-2.865c-0.23-0.916-0.458-1.869-0.688-2.863
	c0.458-0.688,1.145-1.145,2.062-1.375l2.407-1.03c1.984-0.689,3.933-1.318,5.843-1.892c1.909-0.572,3.856-1.125,5.839-1.659
	c1.985-0.535,3.955-1.032,5.903-1.491s3.913-0.876,5.901-1.26c0.759-0.153,1.505-0.267,2.235-0.343
	c0.723-0.076,1.468-0.115,2.232-0.115c0.304,0.154,0.534,0.23,0.688,0.23c0.304,1.069,0.572,2.101,0.802,3.092
	c0.228,0.994,0.457,2.025,0.689,3.093c0.609,2.448,1.238,4.927,1.889,7.45c0.648,2.519,1.276,5.04,1.889,7.561
	c0.84,3.436,1.662,6.815,2.463,10.137c0.803,3.323,1.622,6.704,2.465,10.143c0.15,0.381,0.247,0.743,0.286,1.087
	c0.037,0.345,0.133,0.706,0.287,1.089c0.609-2.445,1.261-4.926,1.947-7.45c0.69-2.518,1.336-5.037,1.947-7.557
	c0.688-2.443,1.355-4.887,2.005-7.333c0.648-2.445,1.279-4.889,1.892-7.333c0.228-0.917,0.475-1.853,0.746-2.806
	c0.264-0.956,0.515-1.89,0.745-2.81c0.455-0.687,1.145-1.144,2.062-1.372c0.38-0.154,0.802-0.327,1.259-0.518
	c0.458-0.187,0.876-0.361,1.259-0.515c1.909-0.687,3.818-1.318,5.729-1.891c1.91-0.574,3.858-1.127,5.844-1.66
	c1.983-0.534,3.97-1.033,5.956-1.489c1.986-0.459,3.969-0.878,5.958-1.261c0.762-0.154,1.508-0.269,2.232-0.345
	c0.727-0.075,1.47-0.115,2.235-0.115c0.306,0.155,0.534,0.23,0.688,0.23v0.113c0.23,1.072,0.476,2.139,0.744,3.209
	c0.267,1.071,0.554,2.139,0.862,3.208c0.608,2.519,1.219,5.04,1.831,7.563c0.609,2.519,1.221,5.079,1.834,7.675
	c0.838,3.436,1.677,6.835,2.52,10.195c0.84,3.361,1.677,6.758,2.521,10.198c0.075,0.381,0.151,0.746,0.228,1.088
	c0.076,0.343,0.153,0.708,0.23,1.089c0.611-2.444,1.24-4.87,1.891-7.275c0.647-2.408,1.318-4.83,2.005-7.277
	c0.609-2.442,1.24-4.886,1.892-7.332c0.646-2.443,1.278-4.889,1.888-7.332c0.306-0.916,0.574-1.853,0.8-2.807
	c0.233-0.956,0.5-1.889,0.805-2.807c0.458-0.688,1.145-1.145,2.059-1.375c0.383-0.153,0.786-0.325,1.207-0.515
	c0.42-0.19,0.858-0.361,1.317-0.515c1.909-0.689,3.818-1.318,5.727-1.892c1.911-0.572,3.858-1.125,5.844-1.659
	c1.985-0.535,3.954-1.032,5.901-1.491C409.416,272.883,411.381,272.465,413.367,272.082z"/>
<g>
	<rect x="438.595" y="285.768" fill="#7C858E" width="2.938" height="92.406"/>
	<g>
		<path fill="#7C858E" d="M467.062,325.659v-30.967h6.42c4.631,0,7.994,0.372,10.084,1.117c3.003,1.053,5.35,2.876,7.042,5.474
			c1.691,2.596,2.535,5.691,2.535,9.284c0,3.102-0.668,5.83-2.01,8.188c-1.341,2.357-3.079,4.098-5.221,5.221
			c-2.141,1.122-5.139,1.685-8.998,1.685H467.062z M470.032,322.733h3.577c4.281,0,7.249-0.269,8.905-0.803
			c2.33-0.756,4.161-2.118,5.494-4.088c1.333-1.971,2-4.378,2-7.226c0-2.986-0.724-5.54-2.169-7.655
			c-1.444-2.118-3.459-3.569-6.042-4.354c-1.937-0.59-5.128-0.884-9.576-0.884h-2.189V322.733z"/>
		<path fill="#7C858E" d="M499.167,294.692h17.745v3.032H502.26v9.706h14.526v3.03H502.26v12.168h14.526v3.032h-17.62V294.692z
			 M509.649,285.768h4.526l-6.211,6.482h-2.906L509.649,285.768z"/>
		<path fill="#7C858E" d="M522.278,325.659v-30.967h0.674l20.611,23.739v-23.739h3.051v30.967h-0.693l-20.441-23.449v23.449H522.278
			z"/>
		<path fill="#7C858E" d="M553.709,294.692h3.094v30.967h-3.094V294.692z"/>
		<path fill="#7C858E" d="M592.737,300.44l-2.438,1.873c-1.35-1.754-2.968-3.083-4.856-3.99c-1.887-0.905-3.958-1.356-6.22-1.356
			c-2.467,0-4.758,0.592-6.862,1.778c-2.108,1.185-3.738,2.78-4.896,4.78c-1.154,2-1.732,4.247-1.732,6.745
			c0,3.776,1.29,6.928,3.878,9.453c2.596,2.527,5.861,3.79,9.803,3.79c4.338,0,7.965-1.7,10.887-5.096l2.438,1.852
			c-1.544,1.966-3.474,3.485-5.778,4.559c-2.308,1.072-4.885,1.612-7.736,1.612c-5.417,0-9.692-1.807-12.82-5.413
			c-2.622-3.043-3.936-6.72-3.936-11.029c0-4.534,1.589-8.347,4.768-11.442s7.161-4.643,11.947-4.643
			c2.893,0,5.498,0.572,7.828,1.716C589.34,296.772,591.25,298.376,592.737,300.44z"/>
		<path fill="#7C858E" d="M598.906,294.692H602v12.989h15.769v-12.989h3.093v30.967h-3.093v-14.947H602v14.947h-3.094V294.692z"/>
		<path fill="#7C858E" d="M628.42,294.692h17.743v3.032h-14.65v9.706h14.525v3.03h-14.525v12.168h14.525v3.032H628.42V294.692z"/>
		<path fill="#7C858E" d="M651.614,294.692h3.1v18.693c0,2.219,0.04,3.601,0.127,4.149c0.154,1.22,0.511,2.24,1.072,3.063
			c0.563,0.82,1.424,1.508,2.589,2.063c1.164,0.552,2.336,0.83,3.517,0.83c1.022,0,2.003-0.217,2.943-0.654
			c0.942-0.434,1.729-1.038,2.359-1.81c0.631-0.772,1.098-1.705,1.39-2.799c0.212-0.786,0.314-2.4,0.314-4.842v-18.693h3.094v18.693
			c0,2.765-0.27,4.999-0.81,6.706c-0.539,1.704-1.618,3.188-3.241,4.452c-1.619,1.263-3.581,1.896-5.883,1.896
			c-2.497,0-4.638-0.599-6.421-1.792c-1.78-1.191-2.973-2.771-3.582-4.736c-0.378-1.207-0.568-3.382-0.568-6.526V294.692z"/>
		<path fill="#7C858E" d="M679.912,294.692h6.169c3.437,0,5.768,0.14,6.985,0.422c1.841,0.422,3.334,1.324,4.486,2.708
			c1.147,1.383,1.729,3.088,1.729,5.112c0,1.686-0.402,3.168-1.195,4.445c-0.791,1.28-1.921,2.246-3.396,2.898
			c-1.476,0.655-3.513,0.99-6.106,1.004l11.138,14.378h-3.827l-11.137-14.378h-1.751v14.378h-3.094V294.692z M683.006,297.724
			v10.525l5.332,0.043c2.065,0,3.596-0.197,4.59-0.59c0.987-0.393,1.762-1.02,2.318-1.885c0.556-0.863,0.831-1.827,0.831-2.894
			c0-1.039-0.28-1.982-0.843-2.832c-0.562-0.85-1.303-1.456-2.214-1.82c-0.914-0.366-2.435-0.548-4.553-0.548H683.006z"/>
		<path fill="#7C858E" d="M717.845,325.659v-30.967h6.422c4.63,0,7.992,0.372,10.082,1.117c3.002,1.053,5.349,2.876,7.043,5.474
			c1.692,2.596,2.534,5.691,2.534,9.284c0,3.102-0.67,5.83-2.007,8.188c-1.344,2.357-3.082,4.098-5.224,5.221
			c-2.141,1.122-5.141,1.685-8.998,1.685H717.845z M720.813,322.733h3.58c4.281,0,7.247-0.269,8.906-0.803
			c2.329-0.756,4.162-2.118,5.491-4.088c1.332-1.971,1.998-4.378,1.998-7.226c0-2.986-0.719-5.54-2.164-7.655
			c-1.447-2.118-3.459-3.569-6.042-4.354c-1.941-0.59-5.131-0.884-9.578-0.884h-2.191V322.733z"/>
		<path fill="#7C858E" d="M749.946,294.692h17.75v3.032h-14.657v9.706h14.53v3.03h-14.53v12.168h14.53v3.032h-17.623V294.692z"/>
		<path fill="#7C858E" d="M495.902,352.173l-2.442,1.876c-1.348-1.757-2.963-3.085-4.852-3.988
			c-1.888-0.908-3.961-1.359-6.221-1.359c-2.471,0-4.758,0.593-6.863,1.777c-2.105,1.188-3.737,2.777-4.895,4.78
			c-1.157,1.998-1.737,4.247-1.737,6.745c0,3.777,1.295,6.928,3.885,9.455c2.588,2.525,5.855,3.788,9.798,3.788
			c4.338,0,7.963-1.698,10.884-5.097l2.442,1.854c-1.542,1.965-3.47,3.482-5.779,4.558c-2.309,1.073-4.887,1.612-7.736,1.612
			c-5.418,0-9.691-1.806-12.82-5.412c-2.624-3.044-3.936-6.72-3.936-11.029c0-4.534,1.589-8.348,4.768-11.442
			c3.178-3.094,7.162-4.644,11.948-4.644c2.89,0,5.5,0.574,7.83,1.716C492.506,348.508,494.413,350.111,495.902,352.173z"/>
		<path fill="#7C858E" d="M516.859,345.646c4.689,0,8.613,1.567,11.774,4.694c3.162,3.133,4.74,6.984,4.74,11.558
			c0,4.534-1.574,8.377-4.729,11.537c-3.153,3.159-6.995,4.738-11.531,4.738c-4.594,0-8.471-1.572-11.628-4.717
			c-3.162-3.145-4.74-6.949-4.74-11.408c0-2.977,0.72-5.733,2.157-8.275c1.442-2.54,3.403-4.528,5.889-5.97
			C511.277,346.367,513.964,345.646,516.859,345.646z M516.995,348.659c-2.291,0-4.462,0.598-6.514,1.79
			c-2.053,1.195-3.657,2.802-4.807,4.827c-1.156,2.02-1.731,4.275-1.731,6.761c0,3.68,1.278,6.788,3.829,9.321
			c2.549,2.537,5.625,3.802,9.224,3.802c2.404,0,4.628-0.579,6.675-1.748c2.045-1.163,3.641-2.756,4.785-4.782
			c1.149-2.019,1.719-4.269,1.719-6.739c0-2.459-0.569-4.681-1.719-6.669c-1.144-1.988-2.757-3.577-4.838-4.772
			C521.536,349.257,519.329,348.659,516.995,348.659z"/>
		<path fill="#7C858E" d="M539.604,377.393v-30.965h0.676l20.607,23.734v-23.734h3.053v30.965h-0.694l-20.44-23.447v23.447H539.604z
			"/>
		<path fill="#7C858E" d="M568.279,371.626l2.627-1.577c1.854,3.408,3.995,5.111,6.423,5.111c1.038,0,2.015-0.24,2.927-0.724
			c0.911-0.486,1.605-1.135,2.083-1.948c0.477-0.813,0.718-1.677,0.718-2.59c0-1.04-0.352-2.055-1.057-3.054
			c-0.964-1.371-2.737-3.029-5.303-4.966c-2.582-1.948-4.189-3.36-4.82-4.232c-1.097-1.459-1.642-3.036-1.642-4.734
			c0-1.35,0.322-2.576,0.964-3.684c0.65-1.108,1.555-1.982,2.726-2.622c1.178-0.639,2.451-0.96,3.822-0.96
			c1.464,0,2.823,0.361,4.098,1.085c1.269,0.724,2.61,2.055,4.027,3.988l-2.522,1.917c-1.167-1.543-2.158-2.56-2.98-3.053
			c-0.82-0.488-1.715-0.735-2.685-0.735c-1.246,0-2.268,0.38-3.059,1.136c-0.798,0.758-1.194,1.694-1.194,2.802
			c0,0.671,0.145,1.325,0.425,1.957c0.281,0.631,0.792,1.319,1.532,2.063c0.408,0.393,1.744,1.426,4.001,3.096
			c2.685,1.978,4.521,3.737,5.521,5.284c0.992,1.542,1.492,3.095,1.492,4.65c0,2.246-0.856,4.198-2.56,5.852
			c-1.705,1.656-3.776,2.486-6.222,2.486c-1.876,0-3.587-0.501-5.113-1.508C570.976,375.665,569.57,373.984,568.279,371.626z"/>
		<path fill="#7C858E" d="M592.967,346.428h17.749v3.03h-14.649v9.703h14.524v3.033h-14.524v12.169h14.524v3.029h-17.624V346.428z"
			/>
		<path fill="#7C858E" d="M615.622,346.428h3.094v30.965h-3.094V346.428z"/>
		<path fill="#7C858E" d="M625.809,346.428h3.093v27.975h11.919v2.99h-15.012V346.428z"/>
		<path fill="#7C858E" d="M645.722,346.428h3.099v27.975h11.913v2.99h-15.012V346.428z"/>
		<path fill="#7C858E" d="M665.656,346.428h17.751v3.03H668.75v9.703h14.531v3.033H668.75v12.169h14.531v3.029h-17.625V346.428z"/>
		<path fill="#7C858E" d="M688.923,346.428h6.169c3.437,0,5.767,0.141,6.982,0.417c1.843,0.426,3.334,1.326,4.488,2.71
			c1.148,1.386,1.727,3.094,1.727,5.114c0,1.686-0.395,3.167-1.192,4.446c-0.794,1.278-1.924,2.248-3.399,2.898
			c-1.473,0.654-3.505,0.985-6.104,1.003l11.139,14.376h-3.827l-11.14-14.376h-1.748v14.376h-3.094V346.428z M692.017,349.458
			v10.526l5.329,0.044c2.065,0,3.599-0.198,4.592-0.592c0.987-0.393,1.76-1.021,2.319-1.882c0.556-0.867,0.831-1.832,0.831-2.898
			c0-1.037-0.281-1.979-0.843-2.83c-0.564-0.849-1.304-1.456-2.217-1.819c-0.911-0.365-2.433-0.549-4.55-0.549H692.017z"/>
		<path fill="#7C858E" d="M711.721,371.626l2.628-1.577c1.855,3.408,3.996,5.111,6.422,5.111c1.039,0,2.016-0.24,2.929-0.724
			c0.911-0.486,1.605-1.135,2.081-1.948c0.477-0.813,0.719-1.677,0.719-2.59c0-1.04-0.351-2.055-1.057-3.054
			c-0.963-1.371-2.738-3.029-5.302-4.966c-2.582-1.948-4.189-3.36-4.822-4.232c-1.096-1.459-1.64-3.036-1.64-4.734
			c0-1.35,0.321-2.576,0.962-3.684c0.65-1.108,1.557-1.982,2.728-2.622c1.178-0.639,2.449-0.96,3.822-0.96
			c1.462,0,2.823,0.361,4.098,1.085c1.267,0.724,2.61,2.055,4.027,3.988l-2.524,1.917c-1.165-1.543-2.157-2.56-2.979-3.053
			c-0.82-0.488-1.716-0.735-2.686-0.735c-1.245,0-2.267,0.38-3.058,1.136c-0.798,0.758-1.195,1.694-1.195,2.802
			c0,0.671,0.146,1.325,0.426,1.957c0.281,0.631,0.791,1.319,1.532,2.063c0.407,0.393,1.743,1.426,4,3.096
			c2.685,1.978,4.521,3.737,5.52,5.284c0.992,1.542,1.493,3.095,1.493,4.65c0,2.246-0.855,4.198-2.56,5.852
			c-1.704,1.656-3.775,2.486-6.222,2.486c-1.877,0-3.587-0.501-5.112-1.508C714.419,375.665,713.014,373.984,711.721,371.626z"/>
		<path fill="#7C858E" d="M760.976,346.428l14.443,30.965h-3.346l-4.864-10.186h-13.344l-4.825,10.186h-3.449l14.628-30.965H760.976
			z M760.591,353.004l-5.308,11.213h10.589L760.591,353.004z"/>
		<path fill="#7C858E" d="M780.327,346.428h3.092v18.692c0,2.219,0.041,3.603,0.128,4.147c0.154,1.221,0.511,2.242,1.072,3.063
			c0.563,0.821,1.424,1.51,2.589,2.063c1.164,0.553,2.336,0.828,3.517,0.828c1.022,0,2.003-0.217,2.943-0.649
			c0.941-0.435,1.728-1.041,2.358-1.812c0.632-0.771,1.097-1.705,1.39-2.801c0.213-0.786,0.315-2.398,0.315-4.841v-18.692h3.1
			v18.692c0,2.764-0.275,5.002-0.815,6.707c-0.539,1.703-1.618,3.187-3.241,4.453c-1.619,1.263-3.582,1.894-5.883,1.894
			c-2.497,0-4.638-0.597-6.421-1.79c-1.78-1.195-2.973-2.772-3.576-4.735c-0.379-1.211-0.567-3.385-0.567-6.528V346.428z"/>
		<path fill="#7C858E" d="M805.377,349.458v-3.03h16.969v3.03h-6.91v27.935h-3.156v-27.935H805.377z"/>
		<path fill="#7C858E" d="M841.553,345.646c4.688,0,8.614,1.567,11.775,4.694c3.162,3.133,4.739,6.984,4.739,11.558
			c0,4.534-1.577,8.377-4.728,11.537c-3.156,3.159-6.996,4.738-11.535,4.738c-4.592,0-8.47-1.572-11.626-4.717
			c-3.162-3.145-4.741-6.949-4.741-11.408c0-2.977,0.718-5.733,2.158-8.275c1.441-2.54,3.402-4.528,5.888-5.97
			C835.969,346.367,838.659,345.646,841.553,345.646z M841.69,348.659c-2.291,0-4.466,0.598-6.52,1.79
			c-2.049,1.195-3.655,2.802-4.803,4.827c-1.155,2.02-1.733,4.275-1.733,6.761c0,3.68,1.28,6.788,3.828,9.321
			c2.554,2.537,5.628,3.802,9.228,3.802c2.405,0,4.625-0.579,6.674-1.748c2.043-1.163,3.639-2.756,4.785-4.782
			c1.149-2.019,1.717-4.269,1.717-6.739c0-2.459-0.567-4.681-1.717-6.669c-1.146-1.988-2.76-3.577-4.843-4.772
			C846.229,349.257,844.02,348.659,841.69,348.659z"/>
	</g>
</g>
<g>
</g>
<g>
</g>
<g>
</g>
<g>
</g>
<g>
</g>
<g>
</g>
</svg>
