<?xml version="1.0" encoding="UTF-8" standalone="no"?>
<!-- Generator: Adobe Illustrator 16.0.0, SVG Export Plug-In . SVG Version: 6.00 Build 0)  -->

<svg
   xmlns:dc="http://purl.org/dc/elements/1.1/"
   xmlns:cc="http://creativecommons.org/ns#"
   xmlns:rdf="http://www.w3.org/1999/02/22-rdf-syntax-ns#"
   xmlns:svg="http://www.w3.org/2000/svg"
   xmlns="http://www.w3.org/2000/svg"
   xmlns:sodipodi="http://sodipodi.sourceforge.net/DTD/sodipodi-0.dtd"
   xmlns:inkscape="http://www.inkscape.org/namespaces/inkscape"
   version="1.1"
   id="Calque_1"
   x="0px"
   y="0px"
   width="280"
   height="50"
   viewBox="0 0 280 50"
   enable-background="new 0 0 1021.489 171.636"
   xml:space="preserve"
   inkscape:version="0.91 r13725"
   sodipodi:docname="W Denicheur de conseillers auto gris.svg"><metadata
     id="metadata79"><rdf:RDF><cc:Work
         rdf:about=""><dc:format>image/svg+xml</dc:format><dc:type
           rdf:resource="http://purl.org/dc/dcmitype/StillImage" /><dc:title></dc:title></cc:Work></rdf:RDF></metadata><defs
     id="defs77" /><sodipodi:namedview
     pagecolor="#ffffff"
     bordercolor="#666666"
     borderopacity="1"
     objecttolerance="10"
     gridtolerance="10"
     guidetolerance="10"
     inkscape:pageopacity="0"
     inkscape:pageshadow="2"
     inkscape:window-width="1633"
     inkscape:window-height="1026"
     id="namedview75"
     showgrid="false"
     fit-margin-top="2"
     fit-margin-left="1"
     fit-margin-bottom="2"
     fit-margin-right="1"
     inkscape:zoom="3.4777706"
     inkscape:cx="139.55227"
     inkscape:cy="33.4317"
     inkscape:window-x="1967"
     inkscape:window-y="38"
     inkscape:window-maximized="1"
     inkscape:current-layer="Calque_1" /><path
     d="m 54.765572,2.1405845 c 0.458518,-0.061135 0.817963,-0.1067146 1.077517,-0.1372824 0.259281,-0.030022 0.496182,-0.046124 0.710156,-0.046124 0.213703,0 0.305405,0.03166 0.275657,0.092249 -0.12391,0.427677 -0.22926,0.8556269 -0.320689,1.2827581 -0.09279,0.4287686 -0.200056,0.8567185 -0.322055,1.2833038 -0.274291,1.008739 -0.549675,2.0177505 -0.824786,3.0256705 -0.274565,1.008193 -0.535211,2.0166586 -0.778662,3.0248525 -0.367359,1.37528 -0.733628,2.735277 -1.100169,4.07917 -0.366269,1.345259 -0.718617,2.70471 -1.054863,4.079989 l -2.33735,8.801085 c -0.365995,1.343894 -0.725986,2.680964 -1.077517,4.009574 -0.350984,1.331066 -0.709883,2.666772 -1.077515,4.011757 -0.244271,0.975988 -0.496455,1.954159 -0.75519,2.93233 -0.260646,0.977625 -0.527568,1.955797 -0.802952,2.933968 -0.09116,0.397109 -0.183408,0.778934 -0.275111,1.145476 -0.09115,0.367905 -0.197873,0.748912 -0.320689,1.147112 -0.183135,0.272928 -0.458519,0.458518 -0.824786,0.549676 -0.15284,0.06141 -0.314413,0.120906 -0.481717,0.182862 -0.167304,0.06086 -0.342797,0.122543 -0.527568,0.183407 -0.762833,0.274018 -1.527029,0.526749 -2.291225,0.756008 -0.763104,0.230896 -1.542584,0.46534 -2.336802,0.710975 -0.795038,0.212065 -1.590074,0.403932 -2.384293,0.573147 -0.795037,0.167305 -1.589255,0.326694 -2.382927,0.479261 -0.489359,0.125273 -1.069602,0.18559 -1.742367,0.18559 -0.09116,0 -0.199238,-0.03084 -0.321236,-0.0917 -0.09034,-0.428496 -0.189685,-0.858357 -0.296945,-1.285215 -0.107806,-0.426858 -0.205241,-0.853443 -0.297491,-1.283031 -0.244543,-1.037396 -0.497546,-2.061965 -0.756554,-3.070431 -0.260645,-1.008466 -0.511739,-2.017205 -0.756281,-3.025125 -0.336793,-1.375281 -0.665397,-2.741554 -0.985268,-4.102915 -0.321781,-1.357813 -0.650658,-2.725725 -0.986359,-4.100732 -0.06141,-0.121452 -0.09853,-0.245089 -0.114083,-0.366814 -0.01556,-0.122272 -0.03793,-0.244815 -0.06851,-0.367633 -0.275929,0.979535 -0.543125,1.965349 -0.801587,2.957167 -0.261191,0.992636 -0.528114,1.992641 -0.802406,2.99947 -0.245635,0.981446 -0.498365,1.950337 -0.756827,2.913225 -0.260373,0.96316 -0.512012,1.932325 -0.756282,2.910495 -0.121179,0.39711 -0.228712,0.778935 -0.320962,1.145476 -0.0917,0.367906 -0.182588,0.748913 -0.274292,1.147113 -0.245089,0.272928 -0.520472,0.458518 -0.825059,0.549676 -0.183953,0.06141 -0.359991,0.120906 -0.527568,0.182861 -0.168669,0.06086 -0.328878,0.122544 -0.481444,0.183408 -0.764196,0.274018 -1.534943,0.526749 -2.31415,0.756008 -0.780571,0.230896 -1.567148,0.46534 -2.360274,0.710975 -0.795311,0.212065 -1.581614,0.403932 -2.362186,0.573147 -0.777842,0.167305 -1.565237,0.326694 -2.359729,0.47926 -0.519652,0.125274 -1.11518,0.185591 -1.787673,0.185591 -0.06141,0 -0.152566,-0.03084 -0.27511,-0.0917 -0.0917,-0.428496 -0.19105,-0.833793 -0.297764,-1.214799 C 10.817189,45.73962 10.71839,45.334869 10.625868,44.905827 10.381328,43.897357 10.13733,42.896261 9.892788,41.903624 9.647699,40.910442 9.403702,39.910436 9.159432,38.902516 8.8226402,37.52669 8.4866668,36.166966 8.1512392,34.821435 7.814447,33.478088 7.4792924,32.118364 7.1433189,30.742811 6.7762318,29.2761 6.4167867,27.810208 6.0649835,26.342405 5.7145449,24.87624 5.3553727,23.394792 4.9888314,21.896148 4.6523122,20.552527 4.3160658,19.215456 3.9798195,17.886301 3.6419356,16.555781 3.3062351,15.204791 2.9708075,13.828692 2.7259918,12.852159 2.4901826,11.866072 2.260105,10.872345 2.0316649,9.8799811 1.7942183,8.8944415 1.5499483,7.9162695 1.4582448,7.5194335 1.36736,7.1370625 1.2751107,6.7699765 1.1831342,6.4037075 1.0922494,6.0221555 1,5.6242276 1.1831342,5.348844 1.4582448,5.1662557 1.8247861,5.0740064 L 2.7876734,4.6621592 C 3.5816186,4.3865026 4.3610987,4.1345908 5.1255679,3.9053319 5.8889454,3.676346 6.6681526,3.4555478 7.461825,3.2413 8.2557703,3.027325 9.043984,2.8283611 9.823465,2.6446811 c 0.779207,-0.1836801 1.56551,-0.3507116 2.360547,-0.5043695 0.304041,-0.061135 0.60235,-0.1067146 0.894109,-0.1372824 0.289303,-0.030022 0.58734,-0.046124 0.893018,-0.046124 0.121726,0.061954 0.213703,0.09225 0.274838,0.09225 0.121453,0.427677 0.229259,0.8403429 0.320962,1.2369062 0.09115,0.397382 0.182589,0.8100481 0.27593,1.2371792 0.243724,0.9795357 0.495363,1.9713529 0.755736,2.9803649 0.259281,1.00792 0.510646,2.0163866 0.755735,3.0248525 0.335973,1.374734 0.665124,2.726816 0.985267,4.055699 0.320962,1.329428 0.648748,2.682056 0.986359,4.057882 0.06005,0.152566 0.0988,0.297218 0.114084,0.434773 0.01474,0.137827 0.05322,0.282479 0.114629,0.435591 0.243725,-0.977898 0.504369,-1.970807 0.778934,-2.980638 0.27593,-1.007102 0.534392,-2.015022 0.778662,-3.023488 0.275111,-0.977625 0.542579,-1.95525 0.802133,-2.933967 0.259554,-0.9781719 0.512012,-1.9557965 0.7571,-2.9334225 0.09116,-0.367087 0.189685,-0.74127 0.298583,-1.122822 0.10535,-0.382371 0.205787,-0.7560083 0.297763,-1.1241871 0.182043,-0.2745648 0.457972,-0.457426 0.824786,-0.5488567 0.15202,-0.061681 0.320962,-0.1307321 0.503824,-0.2071518 0.183134,-0.074782 0.350711,-0.1443784 0.50355,-0.2057871 0.763651,-0.2751106 1.527301,-0.5275682 2.292043,-0.7565543 0.764197,-0.2298046 1.543404,-0.4508757 2.338168,-0.6643048 0.793399,-0.2134291 1.587891,-0.4132118 2.382655,-0.5955272 0.794764,-0.183953 1.588163,-0.3515302 2.383747,-0.5043695 0.305132,-0.061954 0.603714,-0.1078063 0.89329,-0.1381011 0.290667,-0.030022 0.588158,-0.045852 0.894109,-0.045852 0.122272,0.061954 0.213702,0.091977 0.275111,0.091977 l 0,0.045306 c 0.09197,0.4287687 0.190504,0.8556269 0.297763,1.2841226 0.106715,0.4284957 0.221345,0.8558998 0.344708,1.2835768 0.243451,1.0076473 0.487721,2.0163862 0.732263,3.0253972 0.243997,1.007921 0.488813,2.0319436 0.734174,3.0707045 0.335156,1.374734 0.670856,2.734731 1.007921,4.078897 0.335974,1.344985 0.671128,2.703617 1.008466,4.079989 0.03003,0.152566 0.06059,0.29831 0.09116,0.435319 0.03029,0.137283 0.06114,0.283299 0.09197,0.435865 0.244542,-0.977898 0.496181,-1.948428 0.75628,-2.910495 0.259008,-0.963707 0.527569,-1.932325 0.802134,-2.911589 0.243723,-0.976806 0.496182,-1.954705 0.756827,-2.933148 0.258735,-0.9773529 0.511465,-1.9560695 0.755462,-2.9334215 0.122272,-0.366269 0.229533,-0.740998 0.319871,-1.123095 0.09307,-0.382371 0.199783,-0.7557359 0.322054,-1.1230959 0.183135,-0.2753835 0.458245,-0.4579718 0.823694,-0.5502213 0.153385,-0.061135 0.314413,-0.1301862 0.483082,-0.2057871 0.168123,-0.075874 0.343069,-0.1446514 0.526749,-0.2060601 0.763651,-0.2756564 1.527574,-0.5275683 2.291224,-0.7568272 0.764469,-0.2289859 1.543677,-0.449784 2.337895,-0.6640319 0.794218,-0.213975 1.581887,-0.4129389 2.361093,-0.5966189 0.780845,-0.1828613 1.566875,-0.3498927 2.36164,-0.5035507 z"
     id="path3"
     inkscape:connector-curvature="0"
     style="fill:#e20717" /><g
     id="g5"
     transform="matrix(0.27292722,0,0,0.27292722,1,1.1555901)"><rect
       x="242.358"
       width="5.4580002"
       height="171.636"
       id="rect7"
       y="0"
       style="fill:#706f6f" /><g
       id="g9"><path
         d="m 295.232,74.095 0,-57.519 11.925,0 c 8.601,0 14.848,0.69 18.73,2.074 5.58,1.957 9.938,5.343 13.082,10.168 3.141,4.822 4.708,10.569 4.708,17.243 0,5.761 -1.243,10.828 -3.734,15.208 -2.49,4.379 -5.719,7.611 -9.696,9.696 -3.977,2.084 -9.545,3.129 -16.714,3.129 l -18.301,0 z m 5.517,-5.434 6.645,0 c 7.95,0 13.464,-0.499 16.539,-1.493 4.327,-1.402 7.728,-3.932 10.205,-7.592 2.476,-3.66 3.716,-8.133 3.716,-13.421 0,-5.547 -1.344,-10.289 -4.029,-14.219 -2.682,-3.934 -6.426,-6.629 -11.223,-8.087 -3.597,-1.095 -9.525,-1.641 -17.787,-1.641 l -4.066,0 0,46.453 z"
         id="path11"
         inkscape:connector-curvature="0"
         style="fill:#706f6f" /><path
         d="m 354.864,16.576 32.959,0 0,5.631 -27.213,0 0,18.027 26.98,0 0,5.627 -26.98,0 0,22.602 26.98,0 0,5.631 -32.727,0 0,-57.518 z M 374.334,0 l 8.408,0 -11.537,12.041 -5.397,0 L 374.334,0 Z"
         id="path13"
         inkscape:connector-curvature="0"
         style="fill:#706f6f" /><path
         d="m 397.792,74.095 0,-57.519 1.252,0 38.284,44.094 0,-44.094 5.666,0 0,57.519 -1.287,0 -37.968,-43.553 0,43.553 -5.947,0 z"
         id="path15"
         inkscape:connector-curvature="0"
         style="fill:#706f6f" /><path
         d="m 456.171,16.576 5.747,0 0,57.519 -5.747,0 0,-57.519 z"
         id="path17"
         inkscape:connector-curvature="0"
         style="fill:#706f6f" /><path
         d="m 528.664,27.253 -4.53,3.477 c -2.507,-3.257 -5.512,-5.726 -9.02,-7.41 -3.504,-1.682 -7.353,-2.521 -11.553,-2.521 -4.581,0 -8.838,1.101 -12.746,3.304 -3.917,2.201 -6.943,5.165 -9.096,8.877 -2.143,3.714 -3.217,7.888 -3.217,12.529 0,7.014 2.396,12.868 7.202,17.559 4.822,4.695 10.887,7.039 18.208,7.039 8.057,0 14.795,-3.157 20.221,-9.465 l 4.53,3.439 c -2.867,3.651 -6.453,6.474 -10.733,8.466 -4.288,1.993 -9.074,2.996 -14.37,2.996 -10.062,0 -18.002,-3.356 -23.813,-10.054 -4.87,-5.652 -7.31,-12.482 -7.31,-20.485 0,-8.42 2.951,-15.504 8.855,-21.252 5.905,-5.749 13.3,-8.623 22.191,-8.623 5.371,0 10.211,1.062 14.539,3.187 4.332,2.123 7.879,5.104 10.642,8.937 z"
         id="path19"
         inkscape:connector-curvature="0"
         style="fill:#706f6f" /><path
         d="m 540.123,16.576 5.744,0 0,24.126 29.289,0 0,-24.126 5.745,0 0,57.519 -5.745,0 0,-27.763 -29.289,0 0,27.763 -5.744,0 0,-57.519 z"
         id="path21"
         inkscape:connector-curvature="0"
         style="fill:#706f6f" /><path
         d="m 594.94,16.576 32.956,0 0,5.631 -27.211,0 0,18.027 26.979,0 0,5.627 -26.979,0 0,22.602 26.979,0 0,5.631 -32.724,0 0,-57.518 z"
         id="path23"
         inkscape:connector-curvature="0"
         style="fill:#706f6f" /><path
         d="m 638.021,16.576 5.758,0 0,34.722 c 0,4.121 0.074,6.687 0.235,7.706 0.287,2.265 0.95,4.159 1.992,5.687 1.044,1.523 2.645,2.801 4.808,3.833 2.163,1.025 4.34,1.542 6.533,1.542 1.897,0 3.719,-0.403 5.466,-1.215 1.751,-0.805 3.212,-1.929 4.384,-3.361 1.169,-1.434 2.037,-3.167 2.581,-5.199 0.392,-1.46 0.583,-4.458 0.583,-8.993 l 0,-34.722 5.746,0 0,34.722 c 0,5.134 -0.501,9.284 -1.503,12.454 -1.001,3.167 -3.007,5.923 -6.021,8.271 -3.009,2.345 -6.651,3.522 -10.926,3.522 -4.639,0 -8.614,-1.113 -11.929,-3.328 -3.305,-2.214 -5.522,-5.147 -6.652,-8.797 -0.702,-2.242 -1.056,-6.282 -1.056,-12.121 l 0,-34.723 z"
         id="path25"
         inkscape:connector-curvature="0"
         style="fill:#706f6f" /><path
         d="m 690.582,16.576 11.46,0 c 6.382,0 10.711,0.26 12.973,0.785 3.42,0.783 6.193,2.458 8.333,5.029 2.132,2.569 3.211,5.735 3.211,9.495 0,3.131 -0.747,5.884 -2.221,8.256 -1.468,2.377 -3.567,4.172 -6.308,5.383 -2.74,1.217 -6.524,1.839 -11.341,1.864 l 20.686,26.706 -7.109,0 -20.684,-26.706 -3.253,0 0,26.706 -5.747,0 0,-57.518 z m 5.747,5.632 0,19.55 9.903,0.08 c 3.836,0 6.68,-0.366 8.525,-1.096 1.834,-0.731 3.272,-1.895 4.306,-3.5 1.031,-1.604 1.542,-3.393 1.542,-5.375 0,-1.93 -0.52,-3.682 -1.562,-5.259 -1.045,-1.579 -2.421,-2.705 -4.114,-3.381 -1.698,-0.681 -4.521,-1.019 -8.456,-1.019 l -10.144,0 z"
         id="path27"
         inkscape:connector-curvature="0"
         style="fill:#706f6f" /><path
         d="m 761.039,74.095 0,-57.519 11.927,0 c 8.601,0 14.846,0.69 18.728,2.074 5.576,1.957 9.935,5.343 13.081,10.168 3.145,4.822 4.706,10.569 4.706,17.243 0,5.761 -1.242,10.828 -3.727,15.208 -2.495,4.379 -5.724,7.611 -9.702,9.696 -3.976,2.084 -9.548,3.129 -16.713,3.129 l -18.3,0 z m 5.512,-5.434 6.649,0 c 7.953,0 13.461,-0.499 16.543,-1.493 4.325,-1.402 7.73,-3.932 10.198,-7.592 2.476,-3.66 3.713,-8.133 3.713,-13.421 0,-5.547 -1.336,-10.289 -4.019,-14.219 -2.688,-3.934 -6.426,-6.629 -11.225,-8.087 -3.604,-1.095 -9.53,-1.641 -17.789,-1.641 l -4.071,0 0,46.453 z"
         id="path29"
         inkscape:connector-curvature="0"
         style="fill:#706f6f" /><path
         d="m 820.664,16.576 32.97,0 0,5.631 -27.224,0 0,18.027 26.987,0 0,5.627 -26.987,0 0,22.602 26.987,0 0,5.631 -32.733,0 0,-57.518 z"
         id="path31"
         inkscape:connector-curvature="0"
         style="fill:#706f6f" /><path
         d="m 348.801,123.343 -4.536,3.484 c -2.503,-3.264 -5.504,-5.732 -9.011,-7.408 -3.507,-1.688 -7.357,-2.525 -11.555,-2.525 -4.59,0 -8.836,1.102 -12.748,3.302 -3.909,2.208 -6.942,5.158 -9.09,8.878 -2.149,3.712 -3.227,7.889 -3.227,12.529 0,7.018 2.406,12.867 7.217,17.562 4.806,4.691 10.876,7.034 18.198,7.034 8.059,0 14.792,-3.151 20.216,-9.465 l 4.536,3.442 c -2.865,3.649 -6.445,6.471 -10.734,8.466 -4.288,1.993 -9.077,2.994 -14.368,2.994 -10.064,0 -18.001,-3.352 -23.813,-10.053 -4.873,-5.652 -7.311,-12.481 -7.311,-20.487 0,-8.419 2.952,-15.503 8.857,-21.25 5.903,-5.748 13.302,-8.626 22.191,-8.626 5.367,0 10.217,1.065 14.543,3.188 4.328,2.127 7.87,5.105 10.635,8.935 z"
         id="path33"
         inkscape:connector-curvature="0"
         style="fill:#706f6f" /><path
         d="m 387.727,111.22 c 8.709,0 15.996,2.91 21.869,8.72 5.873,5.819 8.804,12.972 8.804,21.467 0,8.423 -2.923,15.56 -8.786,21.43 -5.856,5.867 -12.99,8.8 -21.416,8.8 -8.534,0 -15.736,-2.919 -21.6,-8.761 -5.871,-5.84 -8.804,-12.906 -8.804,-21.189 0,-5.529 1.336,-10.649 4.007,-15.369 2.678,-4.72 6.321,-8.413 10.938,-11.092 4.62,-2.667 9.61,-4.006 14.988,-4.006 z m 0.252,5.594 c -4.254,0 -8.288,1.112 -12.099,3.325 -3.813,2.221 -6.792,5.204 -8.929,8.966 -2.147,3.751 -3.216,7.942 -3.216,12.558 0,6.834 2.375,12.609 7.112,17.313 4.735,4.712 10.446,7.062 17.132,7.062 4.464,0 8.596,-1.074 12.397,-3.246 3.799,-2.161 6.763,-5.118 8.887,-8.884 2.136,-3.748 3.193,-7.927 3.193,-12.516 0,-4.568 -1.058,-8.694 -3.193,-12.389 -2.124,-3.692 -5.121,-6.644 -8.987,-8.864 -3.863,-2.212 -7.963,-3.325 -12.297,-3.325 z"
         id="path35"
         inkscape:connector-curvature="0"
         style="fill:#706f6f" /><path
         d="m 429.973,170.185 0,-57.513 1.254,0 38.276,44.084 0,-44.084 5.67,0 0,57.513 -1.289,0 -37.965,-43.55 0,43.55 -5.946,0 z"
         id="path37"
         inkscape:connector-curvature="0"
         style="fill:#706f6f" /><path
         d="m 483.234,159.475 4.881,-2.929 c 3.443,6.329 7.419,9.492 11.929,9.492 1.928,0 3.742,-0.446 5.436,-1.343 1.691,-0.903 2.981,-2.108 3.87,-3.62 0.885,-1.508 1.333,-3.115 1.333,-4.809 0,-1.935 -0.654,-3.817 -1.962,-5.673 -1.791,-2.549 -5.086,-5.627 -9.851,-9.224 -4.795,-3.618 -7.78,-6.242 -8.952,-7.861 -2.037,-2.71 -3.05,-5.64 -3.05,-8.794 0,-2.507 0.598,-4.785 1.79,-6.842 1.209,-2.06 2.889,-3.683 5.063,-4.871 2.188,-1.187 4.555,-1.783 7.101,-1.783 2.719,0 5.244,0.67 7.61,2.015 2.357,1.345 4.849,3.817 7.48,7.408 l -4.685,3.561 c -2.167,-2.865 -4.01,-4.754 -5.536,-5.67 -1.523,-0.907 -3.185,-1.367 -4.986,-1.367 -2.314,0 -4.211,0.707 -5.682,2.11 -1.481,1.407 -2.218,3.148 -2.218,5.205 0,1.246 0.269,2.461 0.79,3.633 0.521,1.173 1.471,2.45 2.846,3.834 0.758,0.729 3.24,2.646 7.43,5.749 4.987,3.673 8.399,6.94 10.256,9.814 1.842,2.864 2.771,5.748 2.771,8.638 0,4.173 -1.591,7.799 -4.755,10.869 -3.167,3.075 -7.012,4.617 -11.554,4.617 -3.485,0 -6.662,-0.93 -9.498,-2.8 -2.847,-1.856 -5.459,-4.979 -7.857,-9.359 z"
         id="path39"
         inkscape:connector-curvature="0"
         style="fill:#706f6f" /><path
         d="m 529.089,112.671 32.968,0 0,5.627 -27.21,0 0,18.025 26.978,0 0,5.631 -26.978,0 0,22.604 26.978,0 0,5.626 -32.735,0 0,-57.513 z"
         id="path41"
         inkscape:connector-curvature="0"
         style="fill:#706f6f" /><path
         d="m 571.169,112.671 5.747,0 0,57.513 -5.747,0 0,-57.513 z"
         id="path43"
         inkscape:connector-curvature="0"
         style="fill:#706f6f" /><path
         d="m 590.09,112.671 5.743,0 0,51.959 22.141,0 0,5.554 -27.884,0 0,-57.513 z"
         id="path45"
         inkscape:connector-curvature="0"
         style="fill:#706f6f" /><path
         d="m 627.076,112.671 5.756,0 0,51.959 22.129,0 0,5.554 -27.885,0 0,-57.513 z"
         id="path47"
         inkscape:connector-curvature="0"
         style="fill:#706f6f" /><path
         d="m 664.103,112.671 32.972,0 0,5.627 -27.225,0 0,18.025 26.991,0 0,5.631 -26.991,0 0,22.604 26.991,0 0,5.626 -32.738,0 0,-57.513 z"
         id="path49"
         inkscape:connector-curvature="0"
         style="fill:#706f6f" /><path
         d="m 707.319,112.671 11.459,0 c 6.382,0 10.709,0.261 12.969,0.774 3.422,0.79 6.192,2.462 8.336,5.033 2.134,2.574 3.208,5.747 3.208,9.499 0,3.13 -0.733,5.883 -2.216,8.26 -1.477,2.376 -3.573,4.175 -6.313,5.382 -2.735,1.216 -6.51,1.831 -11.34,1.864 l 20.691,26.701 -7.109,0 -20.691,-26.701 -3.248,0 0,26.701 -5.745,0 0,-57.513 z m 5.745,5.628 0,19.552 9.899,0.082 c 3.835,0 6.685,-0.368 8.529,-1.099 1.834,-0.729 3.269,-1.896 4.307,-3.495 1.033,-1.611 1.544,-3.404 1.544,-5.384 0,-1.927 -0.522,-3.675 -1.565,-5.258 -1.048,-1.574 -2.422,-2.704 -4.117,-3.378 -1.692,-0.68 -4.519,-1.021 -8.451,-1.021 l -10.146,0 z"
         id="path51"
         inkscape:connector-curvature="0"
         style="fill:#706f6f" /><path
         d="m 749.664,159.475 4.881,-2.929 c 3.445,6.329 7.423,9.492 11.93,9.492 1.929,0 3.743,-0.446 5.438,-1.343 1.692,-0.903 2.98,-2.108 3.864,-3.62 0.885,-1.508 1.336,-3.115 1.336,-4.809 0,-1.935 -0.65,-3.817 -1.963,-5.673 -1.789,-2.549 -5.085,-5.627 -9.848,-9.224 -4.795,-3.618 -7.781,-6.242 -8.958,-7.861 -2.035,-2.71 -3.044,-5.64 -3.044,-8.794 0,-2.507 0.598,-4.785 1.787,-6.842 1.208,-2.06 2.892,-3.683 5.065,-4.871 2.188,-1.187 4.548,-1.783 7.1,-1.783 2.715,0 5.245,0.67 7.612,2.015 2.352,1.345 4.849,3.817 7.478,7.408 l -4.688,3.561 c -2.164,-2.865 -4.007,-4.754 -5.532,-5.67 -1.522,-0.907 -3.187,-1.367 -4.986,-1.367 -2.314,0 -4.213,0.707 -5.68,2.11 -1.484,1.407 -2.222,3.148 -2.222,5.205 0,1.246 0.271,2.461 0.791,3.633 0.522,1.173 1.47,2.45 2.846,3.834 0.758,0.729 3.237,2.646 7.432,5.749 4.984,3.673 8.396,6.94 10.25,9.814 1.845,2.864 2.774,5.748 2.774,8.638 0,4.173 -1.59,7.799 -4.755,10.869 -3.167,3.075 -7.013,4.617 -11.558,4.617 -3.485,0 -6.661,-0.93 -9.494,-2.8 -2.845,-1.856 -5.454,-4.979 -7.856,-9.359 z"
         id="path53"
         inkscape:connector-curvature="0"
         style="fill:#706f6f" /><path
         d="m 841.15,112.671 26.827,57.513 -6.214,0 -9.036,-18.919 -24.783,0 -8.963,18.919 -6.407,0 27.17,-57.513 1.406,0 z m -0.713,12.216 -9.86,20.826 19.67,0 -9.81,-20.826 z"
         id="path55"
         inkscape:connector-curvature="0"
         style="fill:#706f6f" /><path
         d="m 877.094,112.671 5.743,0 0,34.718 c 0,4.123 0.077,6.692 0.237,7.705 0.286,2.267 0.948,4.163 1.991,5.689 1.046,1.526 2.646,2.805 4.809,3.832 2.165,1.027 4.34,1.538 6.531,1.538 1.901,0 3.721,-0.401 5.469,-1.206 1.747,-0.807 3.209,-1.935 4.38,-3.365 1.173,-1.433 2.037,-3.166 2.58,-5.201 0.396,-1.46 0.587,-4.455 0.587,-8.992 l 0,-34.718 5.758,0 0,34.718 c 0,5.134 -0.511,9.291 -1.516,12.459 -1.001,3.163 -3.006,5.917 -6.02,8.27 -3.008,2.346 -6.652,3.518 -10.927,3.518 -4.639,0 -8.615,-1.108 -11.927,-3.323 -3.307,-2.222 -5.521,-5.151 -6.643,-8.797 -0.704,-2.248 -1.054,-6.286 -1.054,-12.126 l 0,-34.719 z"
         id="path57"
         inkscape:connector-curvature="0"
         style="fill:#706f6f" /><path
         d="m 923.621,118.299 0,-5.627 31.519,0 0,5.627 -12.835,0 0,51.886 -5.863,0 0,-51.886 -12.821,0 z"
         id="path59"
         inkscape:connector-curvature="0"
         style="fill:#706f6f" /><path
         d="m 990.815,111.22 c 8.708,0 15.999,2.91 21.872,8.72 5.872,5.819 8.802,12.972 8.802,21.467 0,8.423 -2.93,15.56 -8.781,21.43 -5.862,5.867 -12.994,8.8 -21.426,8.8 -8.529,0 -15.732,-2.919 -21.595,-8.761 -5.872,-5.84 -8.806,-12.906 -8.806,-21.189 0,-5.529 1.333,-10.649 4.009,-15.369 2.679,-4.72 6.32,-8.413 10.937,-11.092 4.615,-2.667 9.612,-4.006 14.988,-4.006 z m 0.256,5.594 c -4.255,0 -8.294,1.112 -12.109,3.325 -3.808,2.221 -6.789,5.204 -8.923,8.966 -2.143,3.751 -3.218,7.942 -3.218,12.558 0,6.834 2.378,12.609 7.11,17.313 4.742,4.712 10.453,7.062 17.14,7.062 4.467,0 8.59,-1.074 12.395,-3.246 3.796,-2.161 6.761,-5.118 8.89,-8.884 2.136,-3.748 3.187,-7.927 3.187,-12.516 0,-4.568 -1.051,-8.694 -3.187,-12.389 -2.129,-3.692 -5.126,-6.644 -8.995,-8.864 -3.858,-2.212 -7.964,-3.325 -12.29,-3.325 z"
         id="path61"
         inkscape:connector-curvature="0"
         style="fill:#706f6f" /></g></g><g
     id="g63"
     transform="matrix(0.27292722,0,0,0.27292722,1,1.1555901)" /><g
     id="g65"
     transform="matrix(0.27292722,0,0,0.27292722,1,1.1555901)" /><g
     id="g67"
     transform="matrix(0.27292722,0,0,0.27292722,1,1.1555901)" /><g
     id="g69"
     transform="matrix(0.27292722,0,0,0.27292722,1,1.1555901)" /><g
     id="g71"
     transform="matrix(0.27292722,0,0,0.27292722,1,1.1555901)" /><g
     id="g73"
     transform="matrix(0.27292722,0,0,0.27292722,1,1.1555901)" /></svg>