<?xml version="1.0" encoding="UTF-8" standalone="no"?>
<!-- Generator: Adobe Illustrator 16.0.0, SVG Export Plug-In . SVG Version: 6.00 Build 0)  -->

<svg
   xmlns:dc="http://purl.org/dc/elements/1.1/"
   xmlns:cc="http://creativecommons.org/ns#"
   xmlns:rdf="http://www.w3.org/1999/02/22-rdf-syntax-ns#"
   xmlns:svg="http://www.w3.org/2000/svg"
   xmlns="http://www.w3.org/2000/svg"
   xmlns:sodipodi="http://sodipodi.sourceforge.net/DTD/sodipodi-0.dtd"
   xmlns:inkscape="http://www.inkscape.org/namespaces/inkscape"
   version="1.1"
   id="Calque_1"
   x="0px"
   y="0px"
   width="246.80136"
   height="50.286606"
   viewBox="0 0 246.80136 50.286606"
   enable-background="new 0 0 1046 638"
   xml:space="preserve"
   inkscape:version="0.91 r13725"
   sodipodi:docname="w_denicheur.svg"><metadata
     id="metadata79"><rdf:RDF><cc:Work
         rdf:about=""><dc:format>image/svg+xml</dc:format><dc:type
           rdf:resource="http://purl.org/dc/dcmitype/StillImage" /><dc:title></dc:title></cc:Work></rdf:RDF></metadata><defs
     id="defs77" /><sodipodi:namedview
     pagecolor="#ffffff"
     bordercolor="#666666"
     borderopacity="1"
     objecttolerance="10"
     gridtolerance="10"
     guidetolerance="10"
     inkscape:pageopacity="0"
     inkscape:pageshadow="2"
     inkscape:window-width="1633"
     inkscape:window-height="1026"
     id="namedview75"
     showgrid="false"
     inkscape:zoom="3.3962758"
     inkscape:cx="105.68694"
     inkscape:cy="68.385309"
     inkscape:window-x="1967"
     inkscape:window-y="38"
     inkscape:window-maximized="1"
     inkscape:current-layer="Calque_1"
     fit-margin-top="1"
     fit-margin-bottom="1"
     fit-margin-left="1"
     fit-margin-right="1" /><path
     d="m 57.812274,1.4358361 c 0.484451,-0.064678 0.864065,-0.1128696 1.138418,-0.1449969 0.27393,-0.032128 0.524611,-0.048615 0.75035,-0.048615 0.225738,0 0.322968,0.033396 0.291262,0.097229 -0.131047,0.4519008 -0.242224,0.9042246 -0.339031,1.3557027 -0.09766,0.4531691 -0.211366,0.9050696 -0.340299,1.3561251 -0.289995,1.0657088 -0.580835,2.1318402 -0.871674,3.1971249 -0.289995,1.0652858 -0.565193,2.1309944 -0.822637,3.1962804 -0.388069,1.452932 -0.775291,2.890221 -1.162515,4.309756 -0.387223,1.42165 -0.759227,2.858094 -1.114745,4.311026 l -2.469603,9.29969 c -0.3868,1.419535 -0.767259,2.832729 -1.138418,4.236201 -0.370737,1.406008 -0.749928,2.81751 -1.138419,4.238737 -0.257867,1.031044 -0.524611,2.065048 -0.798119,3.098205 -0.275199,1.032736 -0.557583,2.067163 -0.848424,3.100319 -0.09638,0.419352 -0.193611,0.823061 -0.290839,1.20986 -0.09638,0.388914 -0.209252,0.791778 -0.339031,1.212397 -0.193612,0.288304 -0.484452,0.484451 -0.871675,0.580834 -0.161483,0.06425 -0.332267,0.128511 -0.50897,0.19319 -0.176702,0.06383 -0.362281,0.129779 -0.557584,0.193611 -0.806151,0.289994 -1.613569,0.556316 -2.420988,0.798963 -0.806151,0.243494 -1.630056,0.491216 -2.468757,0.751196 -0.840392,0.224049 -1.679937,0.427382 -2.519063,0.605776 -0.839969,0.176703 -1.679515,0.344949 -2.518216,0.506011 -0.517002,0.132315 -1.130386,0.196147 -1.841,0.196147 -0.0968,0 -0.21052,-0.03298 -0.339454,-0.0968 -0.09554,-0.452747 -0.200798,-0.906762 -0.31409,-1.357817 -0.114138,-0.450633 -0.217285,-0.902111 -0.314513,-1.355703 -0.25829,-1.096568 -0.525879,-2.178339 -0.799388,-3.244048 -0.275198,-1.065707 -0.540674,-2.131839 -0.798963,-3.197124 -0.355941,-1.452931 -0.703426,-2.896563 -1.04119,-4.335544 -0.339876,-1.43433 -0.687363,-2.879652 -1.042035,-4.332584 -0.06511,-0.128088 -0.10442,-0.258712 -0.120901,-0.387646 -0.01649,-0.129356 -0.04017,-0.25829 -0.07229,-0.38849 -0.291263,1.034849 -0.57365,2.076883 -0.847157,3.125261 -0.276043,1.047952 -0.558007,2.105207 -0.847578,3.169646 -0.259558,1.036118 -0.526725,2.060398 -0.79981,3.077915 -0.275198,1.017517 -0.541097,2.041374 -0.799386,3.074531 -0.128089,0.419351 -0.241805,0.82306 -0.339033,1.209861 -0.0968,0.388914 -0.193188,0.791778 -0.289994,1.212396 -0.258712,0.288304 -0.549974,0.484451 -0.871673,0.580835 -0.194458,0.06425 -0.380459,0.128511 -0.557585,0.193188 -0.178392,0.06383 -0.347486,0.129779 -0.508969,0.193613 -0.807419,0.289994 -1.621602,0.556315 -2.444662,0.798963 -0.824751,0.243494 -1.655843,0.491215 -2.49412,0.751196 -0.840393,0.224048 -1.671484,0.427381 -2.496236,0.605775 -0.821791,0.176703 -1.653729,0.344949 -2.492853,0.50601 -0.549129,0.132316 -1.178578,0.196149 -1.88919,0.196149 -0.06467,0 -0.161062,-0.03297 -0.290841,-0.0968 -0.09681,-0.452746 -0.202066,-0.880552 -0.314936,-1.283415 -0.112446,-0.403718 -0.216861,-0.831101 -0.314512,-1.284692 -0.25829,-1.065286 -0.516157,-2.122539 -0.77487,-3.171761 C 10.137357,42.400723 9.8790673,41.343891 9.6212002,40.279029 9.2656822,38.824829 8.9101643,37.387961 8.5559155,35.966736 8.1999748,34.546777 7.8461477,33.10991 7.4906297,31.656979 7.1029837,30.107242 6.7233703,28.558351 6.3513656,27.007768 5.9810517,25.458454 5.601861,23.893076 5.2142151,22.309942 4.8586971,20.889985 4.5036018,19.477214 4.1480838,18.072896 3.7921476,16.667308 3.4370523,15.23974 3.0828024,13.785541 2.82409,12.753651 2.5751009,11.711615 2.331607,10.661548 2.0902267,9.6131715 1.839123,8.5719822 1.581257,7.5379789 1.4844504,7.1190504 1.3880676,6.7149188 1.2908393,6.3268501 1.1936111,5.9396269 1.0972282,5.5367633 1,5.1165673 1.1936111,4.8257276 1.4840277,4.6325388 1.8716737,4.5353104 L 2.8891902,4.0998961 C 3.7278916,3.8086334 4.5517971,3.5427347 5.3592159,3.3000863 6.166212,3.0582834 6.9892721,2.8245123 7.8275508,2.598773 8.6666737,2.3726114 9.4994572,2.1625134 10.322939,1.9684788 c 0.823483,-0.1940337 1.654153,-0.3703131 2.494545,-0.5326423 0.320854,-0.064678 0.636212,-0.11287 0.944806,-0.1449973 0.305637,-0.032128 0.620571,-0.048615 0.943539,-0.048615 0.12851,0.065101 0.225739,0.097229 0.29084,0.097229 0.128511,0.4519008 0.241803,0.8881602 0.339031,1.3070881 0.09638,0.420196 0.193189,0.8560335 0.291262,1.3075117 0.257445,1.0348488 0.523343,2.0828025 0.798542,3.1493565 0.273931,1.0648631 0.539407,2.1305706 0.798542,3.1962798 0.355096,1.452509 0.702581,2.880921 1.04119,4.285238 0.339455,1.404739 0.685672,2.833998 1.042035,4.287774 0.06341,0.161062 0.10442,0.314091 0.120902,0.459511 0.01564,0.145843 0.05623,0.298449 0.121323,0.460355 0.257444,-1.033581 0.533066,-2.08238 0.82306,-3.149355 0.291686,-1.064441 0.564772,-2.129304 0.82306,-3.19459 0.290841,-1.032735 0.572803,-2.065893 0.84758,-3.099896 0.273929,-1.033582 0.540674,-2.0667387 0.799809,-3.0998966 0.09638,-0.387646 0.200798,-0.7833234 0.315359,-1.1861879 0.1116,-0.4041319 0.217707,-0.7989639 0.314935,-1.1878778 0.192343,-0.290417 0.484029,-0.4836057 0.871675,-0.5799888 0.160637,-0.065101 0.339031,-0.1382334 0.532219,-0.2189757 0.193613,-0.079051 0.370313,-0.152606 0.532221,-0.2177073 0.806995,-0.2904166 1.613991,-0.5571608 2.421834,-0.7993865 0.807418,-0.2426483 1.6309,-0.4764194 2.470447,-0.7017357 0.838279,-0.2257391 1.678248,-0.4366825 2.517794,-0.6294489 0.839547,-0.1940338 1.677825,-0.3711586 2.51864,-0.5330656 0.322122,-0.0651 0.637481,-0.1137145 0.943539,-0.1458426 C 36.588994,1.0169083 36.903084,1 37.226474,1 c 0.129356,0.065523 0.22574,0.097228 0.290839,0.097228 l 0,0.047768 c 0.09723,0.4531692 0.201221,0.9042246 0.314515,1.3565483 0.112869,0.4527464 0.234193,0.9042246 0.364395,1.3561255 0.257021,1.0648628 0.515311,2.1305714 0.774023,3.1971253 0.257444,1.064862 0.516156,2.1470573 0.775291,3.2444716 0.354249,1.452509 0.708921,2.889377 1.065285,4.309757 0.355095,1.420804 0.708922,2.856825 1.06571,4.311025 0.0317,0.16106 0.06383,0.315357 0.09638,0.459933 0.03213,0.144997 0.06467,0.299295 0.09723,0.460355 0.258289,-1.033158 0.524188,-2.058707 0.799387,-3.075378 0.273507,-1.017939 0.557162,-2.041798 0.847578,-3.076224 0.257445,-1.032312 0.524188,-2.06547 0.79981,-3.099473 0.273085,-1.0327367 0.540252,-2.06674 0.79812,-3.0994752 0.129355,-0.3872232 0.242647,-0.7833233 0.338185,-1.1866095 0.0985,-0.4041324 0.211365,-0.7985418 0.340299,-1.1866102 0.193613,-0.2908396 0.48403,-0.4840284 0.870407,-0.5812568 0.161907,-0.064679 0.332268,-0.1373885 0.510238,-0.2177072 0.177548,-0.08032 0.362705,-0.1526068 0.556738,-0.2177071 0.806997,-0.2912631 1.613993,-0.5571618 2.420989,-0.7998102 0.807842,-0.2418029 1.630902,-0.4755739 2.470449,-0.7013129 0.839124,-0.2261619 1.671484,-0.43626 2.494544,-0.6302942 0.825172,-0.1940342 1.655842,-0.3707363 2.495389,-0.5326427 z"
     id="path3"
     inkscape:connector-curvature="0"
     style="fill:#e20717" /><g
     id="g5"
     transform="matrix(0.42273239,0,0,0.42273239,-116.93135,-115.19158)"><rect
       x="438.595"
       y="285.76801"
       width="2.938"
       height="92.405998"
       id="rect7"
       style="fill:#7c858e" /><g
       id="g9"><path
         d="m 467.062,325.659 0,-30.967 6.42,0 c 4.631,0 7.994,0.372 10.084,1.117 3.003,1.053 5.35,2.876 7.042,5.474 1.691,2.596 2.535,5.691 2.535,9.284 0,3.102 -0.668,5.83 -2.01,8.188 -1.341,2.357 -3.079,4.098 -5.221,5.221 -2.141,1.122 -5.139,1.685 -8.998,1.685 l -9.852,0 z m 2.97,-2.926 3.577,0 c 4.281,0 7.249,-0.269 8.905,-0.803 2.33,-0.756 4.161,-2.118 5.494,-4.088 1.333,-1.971 2,-4.378 2,-7.226 0,-2.986 -0.724,-5.54 -2.169,-7.655 -1.444,-2.118 -3.459,-3.569 -6.042,-4.354 -1.937,-0.59 -5.128,-0.884 -9.576,-0.884 l -2.189,0 0,25.01 z"
         id="path11"
         inkscape:connector-curvature="0"
         style="fill:#7c858e" /><path
         d="m 499.167,294.692 17.745,0 0,3.032 -14.652,0 0,9.706 14.526,0 0,3.03 -14.526,0 0,12.168 14.526,0 0,3.032 -17.62,0 0,-30.968 z m 10.482,-8.924 4.526,0 -6.211,6.482 -2.906,0 4.591,-6.482 z"
         id="path13"
         inkscape:connector-curvature="0"
         style="fill:#7c858e" /><path
         d="m 522.278,325.659 0,-30.967 0.674,0 20.611,23.739 0,-23.739 3.051,0 0,30.967 -0.693,0 -20.441,-23.449 0,23.449 -3.202,0 z"
         id="path15"
         inkscape:connector-curvature="0"
         style="fill:#7c858e" /><path
         d="m 553.709,294.692 3.094,0 0,30.967 -3.094,0 0,-30.967 z"
         id="path17"
         inkscape:connector-curvature="0"
         style="fill:#7c858e" /><path
         d="m 592.737,300.44 -2.438,1.873 c -1.35,-1.754 -2.968,-3.083 -4.856,-3.99 -1.887,-0.905 -3.958,-1.356 -6.22,-1.356 -2.467,0 -4.758,0.592 -6.862,1.778 -2.108,1.185 -3.738,2.78 -4.896,4.78 -1.154,2 -1.732,4.247 -1.732,6.745 0,3.776 1.29,6.928 3.878,9.453 2.596,2.527 5.861,3.79 9.803,3.79 4.338,0 7.965,-1.7 10.887,-5.096 l 2.438,1.852 c -1.544,1.966 -3.474,3.485 -5.778,4.559 -2.308,1.072 -4.885,1.612 -7.736,1.612 -5.417,0 -9.692,-1.807 -12.82,-5.413 -2.622,-3.043 -3.936,-6.72 -3.936,-11.029 0,-4.534 1.589,-8.347 4.768,-11.442 3.179,-3.095 7.161,-4.643 11.947,-4.643 2.893,0 5.498,0.572 7.828,1.716 2.328,1.143 4.238,2.747 5.725,4.811 z"
         id="path19"
         inkscape:connector-curvature="0"
         style="fill:#7c858e" /><path
         d="m 598.906,294.692 3.094,0 0,12.989 15.769,0 0,-12.989 3.093,0 0,30.967 -3.093,0 0,-14.947 -15.769,0 0,14.947 -3.094,0 0,-30.967 z"
         id="path21"
         inkscape:connector-curvature="0"
         style="fill:#7c858e" /><path
         d="m 628.42,294.692 17.743,0 0,3.032 -14.65,0 0,9.706 14.525,0 0,3.03 -14.525,0 0,12.168 14.525,0 0,3.032 -17.618,0 0,-30.968 z"
         id="path23"
         inkscape:connector-curvature="0"
         style="fill:#7c858e" /><path
         d="m 651.614,294.692 3.1,0 0,18.693 c 0,2.219 0.04,3.601 0.127,4.149 0.154,1.22 0.511,2.24 1.072,3.063 0.563,0.82 1.424,1.508 2.589,2.063 1.164,0.552 2.336,0.83 3.517,0.83 1.022,0 2.003,-0.217 2.943,-0.654 0.942,-0.434 1.729,-1.038 2.359,-1.81 0.631,-0.772 1.098,-1.705 1.39,-2.799 0.212,-0.786 0.314,-2.4 0.314,-4.842 l 0,-18.693 3.094,0 0,18.693 c 0,2.765 -0.27,4.999 -0.81,6.706 -0.539,1.704 -1.618,3.188 -3.241,4.452 -1.619,1.263 -3.581,1.896 -5.883,1.896 -2.497,0 -4.638,-0.599 -6.421,-1.792 -1.78,-1.191 -2.973,-2.771 -3.582,-4.736 -0.378,-1.207 -0.568,-3.382 -0.568,-6.526 l 0,-18.693 z"
         id="path25"
         inkscape:connector-curvature="0"
         style="fill:#7c858e" /><path
         d="m 679.912,294.692 6.169,0 c 3.437,0 5.768,0.14 6.985,0.422 1.841,0.422 3.334,1.324 4.486,2.708 1.147,1.383 1.729,3.088 1.729,5.112 0,1.686 -0.402,3.168 -1.195,4.445 -0.791,1.28 -1.921,2.246 -3.396,2.898 -1.476,0.655 -3.513,0.99 -6.106,1.004 l 11.138,14.378 -3.827,0 -11.137,-14.378 -1.751,0 0,14.378 -3.094,0 0,-30.967 z m 3.094,3.032 0,10.525 5.332,0.043 c 2.065,0 3.596,-0.197 4.59,-0.59 0.987,-0.393 1.762,-1.02 2.318,-1.885 0.556,-0.863 0.831,-1.827 0.831,-2.894 0,-1.039 -0.28,-1.982 -0.843,-2.832 -0.562,-0.85 -1.303,-1.456 -2.214,-1.82 -0.914,-0.366 -2.435,-0.548 -4.553,-0.548 l -5.461,0 z"
         id="path27"
         inkscape:connector-curvature="0"
         style="fill:#7c858e" /><path
         d="m 717.845,325.659 0,-30.967 6.422,0 c 4.63,0 7.992,0.372 10.082,1.117 3.002,1.053 5.349,2.876 7.043,5.474 1.692,2.596 2.534,5.691 2.534,9.284 0,3.102 -0.67,5.83 -2.007,8.188 -1.344,2.357 -3.082,4.098 -5.224,5.221 -2.141,1.122 -5.141,1.685 -8.998,1.685 l -9.852,0 z m 2.968,-2.926 3.58,0 c 4.281,0 7.247,-0.269 8.906,-0.803 2.329,-0.756 4.162,-2.118 5.491,-4.088 1.332,-1.971 1.998,-4.378 1.998,-7.226 0,-2.986 -0.719,-5.54 -2.164,-7.655 -1.447,-2.118 -3.459,-3.569 -6.042,-4.354 -1.941,-0.59 -5.131,-0.884 -9.578,-0.884 l -2.191,0 0,25.01 z"
         id="path29"
         inkscape:connector-curvature="0"
         style="fill:#7c858e" /><path
         d="m 749.946,294.692 17.75,0 0,3.032 -14.657,0 0,9.706 14.53,0 0,3.03 -14.53,0 0,12.168 14.53,0 0,3.032 -17.623,0 0,-30.968 z"
         id="path31"
         inkscape:connector-curvature="0"
         style="fill:#7c858e" /><path
         d="m 495.902,352.173 -2.442,1.876 c -1.348,-1.757 -2.963,-3.085 -4.852,-3.988 -1.888,-0.908 -3.961,-1.359 -6.221,-1.359 -2.471,0 -4.758,0.593 -6.863,1.777 -2.105,1.188 -3.737,2.777 -4.895,4.78 -1.157,1.998 -1.737,4.247 -1.737,6.745 0,3.777 1.295,6.928 3.885,9.455 2.588,2.525 5.855,3.788 9.798,3.788 4.338,0 7.963,-1.698 10.884,-5.097 l 2.442,1.854 c -1.542,1.965 -3.47,3.482 -5.779,4.558 -2.309,1.073 -4.887,1.612 -7.736,1.612 -5.418,0 -9.691,-1.806 -12.82,-5.412 -2.624,-3.044 -3.936,-6.72 -3.936,-11.029 0,-4.534 1.589,-8.348 4.768,-11.442 3.178,-3.094 7.162,-4.644 11.948,-4.644 2.89,0 5.5,0.574 7.83,1.716 2.33,1.145 4.237,2.748 5.726,4.81 z"
         id="path33"
         inkscape:connector-curvature="0"
         style="fill:#7c858e" /><path
         d="m 516.859,345.646 c 4.689,0 8.613,1.567 11.774,4.694 3.162,3.133 4.74,6.984 4.74,11.558 0,4.534 -1.574,8.377 -4.729,11.537 -3.153,3.159 -6.995,4.738 -11.531,4.738 -4.594,0 -8.471,-1.572 -11.628,-4.717 -3.162,-3.145 -4.74,-6.949 -4.74,-11.408 0,-2.977 0.72,-5.733 2.157,-8.275 1.442,-2.54 3.403,-4.528 5.889,-5.97 2.486,-1.436 5.173,-2.157 8.068,-2.157 z m 0.136,3.013 c -2.291,0 -4.462,0.598 -6.514,1.79 -2.053,1.195 -3.657,2.802 -4.807,4.827 -1.156,2.02 -1.731,4.275 -1.731,6.761 0,3.68 1.278,6.788 3.829,9.321 2.549,2.537 5.625,3.802 9.224,3.802 2.404,0 4.628,-0.579 6.675,-1.748 2.045,-1.163 3.641,-2.756 4.785,-4.782 1.149,-2.019 1.719,-4.269 1.719,-6.739 0,-2.459 -0.569,-4.681 -1.719,-6.669 -1.144,-1.988 -2.757,-3.577 -4.838,-4.772 -2.082,-1.193 -4.289,-1.791 -6.623,-1.791 z"
         id="path35"
         inkscape:connector-curvature="0"
         style="fill:#7c858e" /><path
         d="m 539.604,377.393 0,-30.965 0.676,0 20.607,23.734 0,-23.734 3.053,0 0,30.965 -0.694,0 -20.44,-23.447 0,23.447 -3.202,0 z"
         id="path37"
         inkscape:connector-curvature="0"
         style="fill:#7c858e" /><path
         d="m 568.279,371.626 2.627,-1.577 c 1.854,3.408 3.995,5.111 6.423,5.111 1.038,0 2.015,-0.24 2.927,-0.724 0.911,-0.486 1.605,-1.135 2.083,-1.948 0.477,-0.813 0.718,-1.677 0.718,-2.59 0,-1.04 -0.352,-2.055 -1.057,-3.054 -0.964,-1.371 -2.737,-3.029 -5.303,-4.966 -2.582,-1.948 -4.189,-3.36 -4.82,-4.232 -1.097,-1.459 -1.642,-3.036 -1.642,-4.734 0,-1.35 0.322,-2.576 0.964,-3.684 0.65,-1.108 1.555,-1.982 2.726,-2.622 1.178,-0.639 2.451,-0.96 3.822,-0.96 1.464,0 2.823,0.361 4.098,1.085 1.269,0.724 2.61,2.055 4.027,3.988 l -2.522,1.917 c -1.167,-1.543 -2.158,-2.56 -2.98,-3.053 -0.82,-0.488 -1.715,-0.735 -2.685,-0.735 -1.246,0 -2.268,0.38 -3.059,1.136 -0.798,0.758 -1.194,1.694 -1.194,2.802 0,0.671 0.145,1.325 0.425,1.957 0.281,0.631 0.792,1.319 1.532,2.063 0.408,0.393 1.744,1.426 4.001,3.096 2.685,1.978 4.521,3.737 5.521,5.284 0.992,1.542 1.492,3.095 1.492,4.65 0,2.246 -0.856,4.198 -2.56,5.852 -1.705,1.656 -3.776,2.486 -6.222,2.486 -1.876,0 -3.587,-0.501 -5.113,-1.508 -1.532,-1.001 -2.938,-2.682 -4.229,-5.04 z"
         id="path39"
         inkscape:connector-curvature="0"
         style="fill:#7c858e" /><path
         d="m 592.967,346.428 17.749,0 0,3.03 -14.649,0 0,9.703 14.524,0 0,3.033 -14.524,0 0,12.169 14.524,0 0,3.029 -17.624,0 0,-30.964 z"
         id="path41"
         inkscape:connector-curvature="0"
         style="fill:#7c858e" /><path
         d="m 615.622,346.428 3.094,0 0,30.965 -3.094,0 0,-30.965 z"
         id="path43"
         inkscape:connector-curvature="0"
         style="fill:#7c858e" /><path
         d="m 625.809,346.428 3.093,0 0,27.975 11.919,0 0,2.99 -15.012,0 0,-30.965 z"
         id="path45"
         inkscape:connector-curvature="0"
         style="fill:#7c858e" /><path
         d="m 645.722,346.428 3.099,0 0,27.975 11.913,0 0,2.99 -15.012,0 0,-30.965 z"
         id="path47"
         inkscape:connector-curvature="0"
         style="fill:#7c858e" /><path
         d="m 665.656,346.428 17.751,0 0,3.03 -14.657,0 0,9.703 14.531,0 0,3.033 -14.531,0 0,12.169 14.531,0 0,3.029 -17.625,0 0,-30.964 z"
         id="path49"
         inkscape:connector-curvature="0"
         style="fill:#7c858e" /><path
         d="m 688.923,346.428 6.169,0 c 3.437,0 5.767,0.141 6.982,0.417 1.843,0.426 3.334,1.326 4.488,2.71 1.148,1.386 1.727,3.094 1.727,5.114 0,1.686 -0.395,3.167 -1.192,4.446 -0.794,1.278 -1.924,2.248 -3.399,2.898 -1.473,0.654 -3.505,0.985 -6.104,1.003 l 11.139,14.376 -3.827,0 -11.14,-14.376 -1.748,0 0,14.376 -3.094,0 0,-30.964 z m 3.094,3.03 0,10.526 5.329,0.044 c 2.065,0 3.599,-0.198 4.592,-0.592 0.987,-0.393 1.76,-1.021 2.319,-1.882 0.556,-0.867 0.831,-1.832 0.831,-2.898 0,-1.037 -0.281,-1.979 -0.843,-2.83 -0.564,-0.849 -1.304,-1.456 -2.217,-1.819 -0.911,-0.365 -2.433,-0.549 -4.55,-0.549 l -5.461,0 z"
         id="path51"
         inkscape:connector-curvature="0"
         style="fill:#7c858e" /><path
         d="m 711.721,371.626 2.628,-1.577 c 1.855,3.408 3.996,5.111 6.422,5.111 1.039,0 2.016,-0.24 2.929,-0.724 0.911,-0.486 1.605,-1.135 2.081,-1.948 0.477,-0.813 0.719,-1.677 0.719,-2.59 0,-1.04 -0.351,-2.055 -1.057,-3.054 -0.963,-1.371 -2.738,-3.029 -5.302,-4.966 -2.582,-1.948 -4.189,-3.36 -4.822,-4.232 -1.096,-1.459 -1.64,-3.036 -1.64,-4.734 0,-1.35 0.321,-2.576 0.962,-3.684 0.65,-1.108 1.557,-1.982 2.728,-2.622 1.178,-0.639 2.449,-0.96 3.822,-0.96 1.462,0 2.823,0.361 4.098,1.085 1.267,0.724 2.61,2.055 4.027,3.988 l -2.524,1.917 c -1.165,-1.543 -2.157,-2.56 -2.979,-3.053 -0.82,-0.488 -1.716,-0.735 -2.686,-0.735 -1.245,0 -2.267,0.38 -3.058,1.136 -0.798,0.758 -1.195,1.694 -1.195,2.802 0,0.671 0.146,1.325 0.426,1.957 0.281,0.631 0.791,1.319 1.532,2.063 0.407,0.393 1.743,1.426 4,3.096 2.685,1.978 4.521,3.737 5.52,5.284 0.992,1.542 1.493,3.095 1.493,4.65 0,2.246 -0.855,4.198 -2.56,5.852 -1.704,1.656 -3.775,2.486 -6.222,2.486 -1.877,0 -3.587,-0.501 -5.112,-1.508 -1.532,-1.001 -2.937,-2.682 -4.23,-5.04 z"
         id="path53"
         inkscape:connector-curvature="0"
         style="fill:#7c858e" /><path
         d="m 760.976,346.428 14.443,30.965 -3.346,0 -4.864,-10.186 -13.344,0 -4.825,10.186 -3.449,0 14.628,-30.965 0.757,0 z m -0.385,6.576 -5.308,11.213 10.589,0 -5.281,-11.213 z"
         id="path55"
         inkscape:connector-curvature="0"
         style="fill:#7c858e" /><path
         d="m 780.327,346.428 3.092,0 0,18.692 c 0,2.219 0.041,3.603 0.128,4.147 0.154,1.221 0.511,2.242 1.072,3.063 0.563,0.821 1.424,1.51 2.589,2.063 1.164,0.553 2.336,0.828 3.517,0.828 1.022,0 2.003,-0.217 2.943,-0.649 0.941,-0.435 1.728,-1.041 2.358,-1.812 0.632,-0.771 1.097,-1.705 1.39,-2.801 0.213,-0.786 0.315,-2.398 0.315,-4.841 l 0,-18.692 3.1,0 0,18.692 c 0,2.764 -0.275,5.002 -0.815,6.707 -0.539,1.703 -1.618,3.187 -3.241,4.453 -1.619,1.263 -3.582,1.894 -5.883,1.894 -2.497,0 -4.638,-0.597 -6.421,-1.79 -1.78,-1.195 -2.973,-2.772 -3.576,-4.735 -0.379,-1.211 -0.567,-3.385 -0.567,-6.528 l 0,-18.691 z"
         id="path57"
         inkscape:connector-curvature="0"
         style="fill:#7c858e" /><path
         d="m 805.377,349.458 0,-3.03 16.969,0 0,3.03 -6.91,0 0,27.935 -3.156,0 0,-27.935 -6.903,0 z"
         id="path59"
         inkscape:connector-curvature="0"
         style="fill:#7c858e" /><path
         d="m 841.553,345.646 c 4.688,0 8.614,1.567 11.775,4.694 3.162,3.133 4.739,6.984 4.739,11.558 0,4.534 -1.577,8.377 -4.728,11.537 -3.156,3.159 -6.996,4.738 -11.535,4.738 -4.592,0 -8.47,-1.572 -11.626,-4.717 -3.162,-3.145 -4.741,-6.949 -4.741,-11.408 0,-2.977 0.718,-5.733 2.158,-8.275 1.441,-2.54 3.402,-4.528 5.888,-5.97 2.486,-1.436 5.176,-2.157 8.07,-2.157 z m 0.137,3.013 c -2.291,0 -4.466,0.598 -6.52,1.79 -2.049,1.195 -3.655,2.802 -4.803,4.827 -1.155,2.02 -1.733,4.275 -1.733,6.761 0,3.68 1.28,6.788 3.828,9.321 2.554,2.537 5.628,3.802 9.228,3.802 2.405,0 4.625,-0.579 6.674,-1.748 2.043,-1.163 3.639,-2.756 4.785,-4.782 1.149,-2.019 1.717,-4.269 1.717,-6.739 0,-2.459 -0.567,-4.681 -1.717,-6.669 -1.146,-1.988 -2.76,-3.577 -4.843,-4.772 -2.077,-1.193 -4.286,-1.791 -6.616,-1.791 z"
         id="path61"
         inkscape:connector-curvature="0"
         style="fill:#7c858e" /></g></g><g
     id="g63"
     transform="matrix(0.42273239,0,0,0.42273239,-0.25720609,-219.90307)" /><g
     id="g65"
     transform="matrix(0.42273239,0,0,0.42273239,-0.25720609,-219.90307)" /><g
     id="g67"
     transform="matrix(0.42273239,0,0,0.42273239,-0.25720609,-219.90307)" /><g
     id="g69"
     transform="matrix(0.42273239,0,0,0.42273239,-0.25720609,-219.90307)" /><g
     id="g71"
     transform="matrix(0.42273239,0,0,0.42273239,-0.25720609,-219.90307)" /><g
     id="g73"
     transform="matrix(0.42273239,0,0,0.42273239,-0.25720609,-219.90307)" /><path
     style="fill:#e20717"
     inkscape:connector-curvature="0"
     id="path3368"
     d="m 57.812274,1.4358361 c 0.484451,-0.064678 0.864065,-0.1128696 1.138418,-0.1449969 0.27393,-0.032128 0.524611,-0.048615 0.75035,-0.048615 0.225738,0 0.322968,0.033396 0.291262,0.097229 -0.131047,0.4519008 -0.242224,0.9042246 -0.339031,1.3557027 -0.09766,0.4531691 -0.211366,0.9050696 -0.340299,1.3561251 -0.289995,1.0657088 -0.580835,2.1318402 -0.871674,3.1971249 -0.289995,1.0652858 -0.565193,2.1309944 -0.822637,3.1962804 -0.388069,1.452932 -0.775291,2.890221 -1.162515,4.309756 -0.387223,1.42165 -0.759227,2.858094 -1.114745,4.311026 l -2.469603,9.29969 c -0.3868,1.419535 -0.767259,2.832729 -1.138418,4.236201 -0.370737,1.406008 -0.749928,2.81751 -1.138419,4.238737 -0.257867,1.031044 -0.524611,2.065048 -0.798119,3.098205 -0.275199,1.032736 -0.557583,2.067163 -0.848424,3.100319 -0.09638,0.419352 -0.193611,0.823061 -0.290839,1.20986 -0.09638,0.388914 -0.209252,0.791778 -0.339031,1.212397 -0.193612,0.288304 -0.484452,0.484451 -0.871675,0.580834 -0.161483,0.06425 -0.332267,0.128511 -0.50897,0.19319 -0.176702,0.06383 -0.362281,0.129779 -0.557584,0.193611 -0.806151,0.289994 -1.613569,0.556316 -2.420988,0.798963 -0.806151,0.243494 -1.630056,0.491216 -2.468757,0.751196 -0.840392,0.224049 -1.679937,0.427382 -2.519063,0.605776 -0.839969,0.176703 -1.679515,0.344949 -2.518216,0.506011 -0.517002,0.132315 -1.130386,0.196147 -1.841,0.196147 -0.0968,0 -0.21052,-0.03298 -0.339454,-0.0968 -0.09554,-0.452747 -0.200798,-0.906762 -0.31409,-1.357817 -0.114138,-0.450633 -0.217285,-0.902111 -0.314513,-1.355703 -0.25829,-1.096568 -0.525879,-2.178339 -0.799388,-3.244048 -0.275198,-1.065707 -0.540674,-2.131839 -0.798963,-3.197124 -0.355941,-1.452931 -0.703426,-2.896563 -1.04119,-4.335544 -0.339876,-1.43433 -0.687363,-2.879652 -1.042035,-4.332584 -0.06511,-0.128088 -0.10442,-0.258712 -0.120901,-0.387646 -0.01649,-0.129356 -0.04017,-0.25829 -0.07229,-0.38849 -0.291263,1.034849 -0.57365,2.076883 -0.847157,3.125261 -0.276043,1.047952 -0.558007,2.105207 -0.847578,3.169646 -0.259558,1.036118 -0.526725,2.060398 -0.79981,3.077915 -0.275198,1.017517 -0.541097,2.041374 -0.799386,3.074531 -0.128089,0.419351 -0.241805,0.82306 -0.339033,1.209861 -0.0968,0.388914 -0.193188,0.791778 -0.289994,1.212396 -0.258712,0.288304 -0.549974,0.484451 -0.871673,0.580835 -0.194458,0.06425 -0.380459,0.128511 -0.557585,0.193188 -0.178392,0.06383 -0.347486,0.129779 -0.508969,0.193613 -0.807419,0.289994 -1.621602,0.556315 -2.444662,0.798963 -0.824751,0.243494 -1.655843,0.491215 -2.49412,0.751196 -0.840393,0.224048 -1.671484,0.427381 -2.496236,0.605775 -0.821791,0.176703 -1.653729,0.344949 -2.492853,0.50601 -0.549129,0.132316 -1.178578,0.196149 -1.88919,0.196149 -0.06467,0 -0.161062,-0.03297 -0.290841,-0.0968 -0.09681,-0.452746 -0.202066,-0.880552 -0.314936,-1.283415 -0.112446,-0.403718 -0.216861,-0.831101 -0.314512,-1.284692 -0.25829,-1.065286 -0.516157,-2.122539 -0.77487,-3.171761 C 10.137357,42.400723 9.8790673,41.343891 9.6212002,40.279029 9.2656822,38.824829 8.9101643,37.387961 8.5559155,35.966736 8.1999748,34.546777 7.8461477,33.10991 7.4906297,31.656979 7.1029837,30.107242 6.7233703,28.558351 6.3513656,27.007768 5.9810517,25.458454 5.601861,23.893076 5.2142151,22.309942 4.8586971,20.889985 4.5036018,19.477214 4.1480838,18.072896 3.7921476,16.667308 3.4370523,15.23974 3.0828024,13.785541 2.82409,12.753651 2.5751009,11.711615 2.331607,10.661548 2.0902267,9.6131715 1.839123,8.5719822 1.581257,7.5379789 1.4844504,7.1190504 1.3880676,6.7149188 1.2908393,6.3268501 1.1936111,5.9396269 1.0972282,5.5367633 1,5.1165673 1.1936111,4.8257276 1.4840277,4.6325388 1.8716737,4.5353104 L 2.8891902,4.0998961 C 3.7278916,3.8086334 4.5517971,3.5427347 5.3592159,3.3000863 6.166212,3.0582834 6.9892721,2.8245123 7.8275508,2.598773 8.6666737,2.3726114 9.4994572,2.1625134 10.322939,1.9684788 c 0.823483,-0.1940337 1.654153,-0.3703131 2.494545,-0.5326423 0.320854,-0.064678 0.636212,-0.11287 0.944806,-0.1449973 0.305637,-0.032128 0.620571,-0.048615 0.943539,-0.048615 0.12851,0.065101 0.225739,0.097229 0.29084,0.097229 0.128511,0.4519008 0.241803,0.8881602 0.339031,1.3070881 0.09638,0.420196 0.193189,0.8560335 0.291262,1.3075117 0.257445,1.0348488 0.523343,2.0828025 0.798542,3.1493565 0.273931,1.0648631 0.539407,2.1305706 0.798542,3.1962798 0.355096,1.452509 0.702581,2.880921 1.04119,4.285238 0.339455,1.404739 0.685672,2.833998 1.042035,4.287774 0.06341,0.161062 0.10442,0.314091 0.120902,0.459511 0.01564,0.145843 0.05623,0.298449 0.121323,0.460355 0.257444,-1.033581 0.533066,-2.08238 0.82306,-3.149355 0.291686,-1.064441 0.564772,-2.129304 0.82306,-3.19459 0.290841,-1.032735 0.572803,-2.065893 0.84758,-3.099896 0.273929,-1.033582 0.540674,-2.0667387 0.799809,-3.0998966 0.09638,-0.387646 0.200798,-0.7833234 0.315359,-1.1861879 0.1116,-0.4041319 0.217707,-0.7989639 0.314935,-1.1878778 0.192343,-0.290417 0.484029,-0.4836057 0.871675,-0.5799888 0.160637,-0.065101 0.339031,-0.1382334 0.532219,-0.2189757 0.193613,-0.079051 0.370313,-0.152606 0.532221,-0.2177073 0.806995,-0.2904166 1.613991,-0.5571608 2.421834,-0.7993865 0.807418,-0.2426483 1.6309,-0.4764194 2.470447,-0.7017357 0.838279,-0.2257391 1.678248,-0.4366825 2.517794,-0.6294489 0.839547,-0.1940338 1.677825,-0.3711586 2.51864,-0.5330656 0.322122,-0.0651 0.637481,-0.1137145 0.943539,-0.1458426 C 36.588994,1.0169083 36.903084,1 37.226474,1 c 0.129356,0.065523 0.22574,0.097228 0.290839,0.097228 l 0,0.047768 c 0.09723,0.4531692 0.201221,0.9042246 0.314515,1.3565483 0.112869,0.4527464 0.234193,0.9042246 0.364395,1.3561255 0.257021,1.0648628 0.515311,2.1305714 0.774023,3.1971253 0.257444,1.064862 0.516156,2.1470573 0.775291,3.2444716 0.354249,1.452509 0.708921,2.889377 1.065285,4.309757 0.355095,1.420804 0.708922,2.856825 1.06571,4.311025 0.0317,0.16106 0.06383,0.315357 0.09638,0.459933 0.03213,0.144997 0.06467,0.299295 0.09723,0.460355 0.258289,-1.033158 0.524188,-2.058707 0.799387,-3.075378 0.273507,-1.017939 0.557162,-2.041798 0.847578,-3.076224 0.257445,-1.032312 0.524188,-2.06547 0.79981,-3.099473 0.273085,-1.0327367 0.540252,-2.06674 0.79812,-3.0994752 0.129355,-0.3872232 0.242647,-0.7833233 0.338185,-1.1866095 0.0985,-0.4041324 0.211365,-0.7985418 0.340299,-1.1866102 0.193613,-0.2908396 0.48403,-0.4840284 0.870407,-0.5812568 0.161907,-0.064679 0.332268,-0.1373885 0.510238,-0.2177072 0.177548,-0.08032 0.362705,-0.1526068 0.556738,-0.2177071 0.806997,-0.2912631 1.613993,-0.5571618 2.420989,-0.7998102 0.807842,-0.2418029 1.630902,-0.4755739 2.470449,-0.7013129 0.839124,-0.2261619 1.671484,-0.43626 2.494544,-0.6302942 0.825172,-0.1940342 1.655842,-0.3707363 2.495389,-0.5326427 z" /><g
     transform="matrix(0.42273239,0,0,0.42273239,-116.93135,-115.19158)"
     id="g3370"><rect
       style="fill:#7c858e"
       id="rect3372"
       height="92.405998"
       width="2.938"
       y="285.76801"
       x="438.595" /><g
       id="g3374"><path
         style="fill:#7c858e"
         inkscape:connector-curvature="0"
         id="path3376"
         d="m 467.062,325.659 0,-30.967 6.42,0 c 4.631,0 7.994,0.372 10.084,1.117 3.003,1.053 5.35,2.876 7.042,5.474 1.691,2.596 2.535,5.691 2.535,9.284 0,3.102 -0.668,5.83 -2.01,8.188 -1.341,2.357 -3.079,4.098 -5.221,5.221 -2.141,1.122 -5.139,1.685 -8.998,1.685 l -9.852,0 z m 2.97,-2.926 3.577,0 c 4.281,0 7.249,-0.269 8.905,-0.803 2.33,-0.756 4.161,-2.118 5.494,-4.088 1.333,-1.971 2,-4.378 2,-7.226 0,-2.986 -0.724,-5.54 -2.169,-7.655 -1.444,-2.118 -3.459,-3.569 -6.042,-4.354 -1.937,-0.59 -5.128,-0.884 -9.576,-0.884 l -2.189,0 0,25.01 z" /><path
         style="fill:#7c858e"
         inkscape:connector-curvature="0"
         id="path3378"
         d="m 499.167,294.692 17.745,0 0,3.032 -14.652,0 0,9.706 14.526,0 0,3.03 -14.526,0 0,12.168 14.526,0 0,3.032 -17.62,0 0,-30.968 z m 10.482,-8.924 4.526,0 -6.211,6.482 -2.906,0 4.591,-6.482 z" /><path
         style="fill:#7c858e"
         inkscape:connector-curvature="0"
         id="path3380"
         d="m 522.278,325.659 0,-30.967 0.674,0 20.611,23.739 0,-23.739 3.051,0 0,30.967 -0.693,0 -20.441,-23.449 0,23.449 -3.202,0 z" /><path
         style="fill:#7c858e"
         inkscape:connector-curvature="0"
         id="path3382"
         d="m 553.709,294.692 3.094,0 0,30.967 -3.094,0 0,-30.967 z" /><path
         style="fill:#7c858e"
         inkscape:connector-curvature="0"
         id="path3384"
         d="m 592.737,300.44 -2.438,1.873 c -1.35,-1.754 -2.968,-3.083 -4.856,-3.99 -1.887,-0.905 -3.958,-1.356 -6.22,-1.356 -2.467,0 -4.758,0.592 -6.862,1.778 -2.108,1.185 -3.738,2.78 -4.896,4.78 -1.154,2 -1.732,4.247 -1.732,6.745 0,3.776 1.29,6.928 3.878,9.453 2.596,2.527 5.861,3.79 9.803,3.79 4.338,0 7.965,-1.7 10.887,-5.096 l 2.438,1.852 c -1.544,1.966 -3.474,3.485 -5.778,4.559 -2.308,1.072 -4.885,1.612 -7.736,1.612 -5.417,0 -9.692,-1.807 -12.82,-5.413 -2.622,-3.043 -3.936,-6.72 -3.936,-11.029 0,-4.534 1.589,-8.347 4.768,-11.442 3.179,-3.095 7.161,-4.643 11.947,-4.643 2.893,0 5.498,0.572 7.828,1.716 2.328,1.143 4.238,2.747 5.725,4.811 z" /><path
         style="fill:#7c858e"
         inkscape:connector-curvature="0"
         id="path3386"
         d="m 598.906,294.692 3.094,0 0,12.989 15.769,0 0,-12.989 3.093,0 0,30.967 -3.093,0 0,-14.947 -15.769,0 0,14.947 -3.094,0 0,-30.967 z" /><path
         style="fill:#7c858e"
         inkscape:connector-curvature="0"
         id="path3388"
         d="m 628.42,294.692 17.743,0 0,3.032 -14.65,0 0,9.706 14.525,0 0,3.03 -14.525,0 0,12.168 14.525,0 0,3.032 -17.618,0 0,-30.968 z" /><path
         style="fill:#7c858e"
         inkscape:connector-curvature="0"
         id="path3390"
         d="m 651.614,294.692 3.1,0 0,18.693 c 0,2.219 0.04,3.601 0.127,4.149 0.154,1.22 0.511,2.24 1.072,3.063 0.563,0.82 1.424,1.508 2.589,2.063 1.164,0.552 2.336,0.83 3.517,0.83 1.022,0 2.003,-0.217 2.943,-0.654 0.942,-0.434 1.729,-1.038 2.359,-1.81 0.631,-0.772 1.098,-1.705 1.39,-2.799 0.212,-0.786 0.314,-2.4 0.314,-4.842 l 0,-18.693 3.094,0 0,18.693 c 0,2.765 -0.27,4.999 -0.81,6.706 -0.539,1.704 -1.618,3.188 -3.241,4.452 -1.619,1.263 -3.581,1.896 -5.883,1.896 -2.497,0 -4.638,-0.599 -6.421,-1.792 -1.78,-1.191 -2.973,-2.771 -3.582,-4.736 -0.378,-1.207 -0.568,-3.382 -0.568,-6.526 l 0,-18.693 z" /><path
         style="fill:#7c858e"
         inkscape:connector-curvature="0"
         id="path3392"
         d="m 679.912,294.692 6.169,0 c 3.437,0 5.768,0.14 6.985,0.422 1.841,0.422 3.334,1.324 4.486,2.708 1.147,1.383 1.729,3.088 1.729,5.112 0,1.686 -0.402,3.168 -1.195,4.445 -0.791,1.28 -1.921,2.246 -3.396,2.898 -1.476,0.655 -3.513,0.99 -6.106,1.004 l 11.138,14.378 -3.827,0 -11.137,-14.378 -1.751,0 0,14.378 -3.094,0 0,-30.967 z m 3.094,3.032 0,10.525 5.332,0.043 c 2.065,0 3.596,-0.197 4.59,-0.59 0.987,-0.393 1.762,-1.02 2.318,-1.885 0.556,-0.863 0.831,-1.827 0.831,-2.894 0,-1.039 -0.28,-1.982 -0.843,-2.832 -0.562,-0.85 -1.303,-1.456 -2.214,-1.82 -0.914,-0.366 -2.435,-0.548 -4.553,-0.548 l -5.461,0 z" /><path
         style="fill:#7c858e"
         inkscape:connector-curvature="0"
         id="path3394"
         d="m 717.845,325.659 0,-30.967 6.422,0 c 4.63,0 7.992,0.372 10.082,1.117 3.002,1.053 5.349,2.876 7.043,5.474 1.692,2.596 2.534,5.691 2.534,9.284 0,3.102 -0.67,5.83 -2.007,8.188 -1.344,2.357 -3.082,4.098 -5.224,5.221 -2.141,1.122 -5.141,1.685 -8.998,1.685 l -9.852,0 z m 2.968,-2.926 3.58,0 c 4.281,0 7.247,-0.269 8.906,-0.803 2.329,-0.756 4.162,-2.118 5.491,-4.088 1.332,-1.971 1.998,-4.378 1.998,-7.226 0,-2.986 -0.719,-5.54 -2.164,-7.655 -1.447,-2.118 -3.459,-3.569 -6.042,-4.354 -1.941,-0.59 -5.131,-0.884 -9.578,-0.884 l -2.191,0 0,25.01 z" /><path
         style="fill:#7c858e"
         inkscape:connector-curvature="0"
         id="path3396"
         d="m 749.946,294.692 17.75,0 0,3.032 -14.657,0 0,9.706 14.53,0 0,3.03 -14.53,0 0,12.168 14.53,0 0,3.032 -17.623,0 0,-30.968 z" /><path
         style="fill:#7c858e"
         inkscape:connector-curvature="0"
         id="path3398"
         d="m 495.902,352.173 -2.442,1.876 c -1.348,-1.757 -2.963,-3.085 -4.852,-3.988 -1.888,-0.908 -3.961,-1.359 -6.221,-1.359 -2.471,0 -4.758,0.593 -6.863,1.777 -2.105,1.188 -3.737,2.777 -4.895,4.78 -1.157,1.998 -1.737,4.247 -1.737,6.745 0,3.777 1.295,6.928 3.885,9.455 2.588,2.525 5.855,3.788 9.798,3.788 4.338,0 7.963,-1.698 10.884,-5.097 l 2.442,1.854 c -1.542,1.965 -3.47,3.482 -5.779,4.558 -2.309,1.073 -4.887,1.612 -7.736,1.612 -5.418,0 -9.691,-1.806 -12.82,-5.412 -2.624,-3.044 -3.936,-6.72 -3.936,-11.029 0,-4.534 1.589,-8.348 4.768,-11.442 3.178,-3.094 7.162,-4.644 11.948,-4.644 2.89,0 5.5,0.574 7.83,1.716 2.33,1.145 4.237,2.748 5.726,4.81 z" /><path
         style="fill:#7c858e"
         inkscape:connector-curvature="0"
         id="path3400"
         d="m 516.859,345.646 c 4.689,0 8.613,1.567 11.774,4.694 3.162,3.133 4.74,6.984 4.74,11.558 0,4.534 -1.574,8.377 -4.729,11.537 -3.153,3.159 -6.995,4.738 -11.531,4.738 -4.594,0 -8.471,-1.572 -11.628,-4.717 -3.162,-3.145 -4.74,-6.949 -4.74,-11.408 0,-2.977 0.72,-5.733 2.157,-8.275 1.442,-2.54 3.403,-4.528 5.889,-5.97 2.486,-1.436 5.173,-2.157 8.068,-2.157 z m 0.136,3.013 c -2.291,0 -4.462,0.598 -6.514,1.79 -2.053,1.195 -3.657,2.802 -4.807,4.827 -1.156,2.02 -1.731,4.275 -1.731,6.761 0,3.68 1.278,6.788 3.829,9.321 2.549,2.537 5.625,3.802 9.224,3.802 2.404,0 4.628,-0.579 6.675,-1.748 2.045,-1.163 3.641,-2.756 4.785,-4.782 1.149,-2.019 1.719,-4.269 1.719,-6.739 0,-2.459 -0.569,-4.681 -1.719,-6.669 -1.144,-1.988 -2.757,-3.577 -4.838,-4.772 -2.082,-1.193 -4.289,-1.791 -6.623,-1.791 z" /><path
         style="fill:#7c858e"
         inkscape:connector-curvature="0"
         id="path3402"
         d="m 539.604,377.393 0,-30.965 0.676,0 20.607,23.734 0,-23.734 3.053,0 0,30.965 -0.694,0 -20.44,-23.447 0,23.447 -3.202,0 z" /><path
         style="fill:#7c858e"
         inkscape:connector-curvature="0"
         id="path3404"
         d="m 568.279,371.626 2.627,-1.577 c 1.854,3.408 3.995,5.111 6.423,5.111 1.038,0 2.015,-0.24 2.927,-0.724 0.911,-0.486 1.605,-1.135 2.083,-1.948 0.477,-0.813 0.718,-1.677 0.718,-2.59 0,-1.04 -0.352,-2.055 -1.057,-3.054 -0.964,-1.371 -2.737,-3.029 -5.303,-4.966 -2.582,-1.948 -4.189,-3.36 -4.82,-4.232 -1.097,-1.459 -1.642,-3.036 -1.642,-4.734 0,-1.35 0.322,-2.576 0.964,-3.684 0.65,-1.108 1.555,-1.982 2.726,-2.622 1.178,-0.639 2.451,-0.96 3.822,-0.96 1.464,0 2.823,0.361 4.098,1.085 1.269,0.724 2.61,2.055 4.027,3.988 l -2.522,1.917 c -1.167,-1.543 -2.158,-2.56 -2.98,-3.053 -0.82,-0.488 -1.715,-0.735 -2.685,-0.735 -1.246,0 -2.268,0.38 -3.059,1.136 -0.798,0.758 -1.194,1.694 -1.194,2.802 0,0.671 0.145,1.325 0.425,1.957 0.281,0.631 0.792,1.319 1.532,2.063 0.408,0.393 1.744,1.426 4.001,3.096 2.685,1.978 4.521,3.737 5.521,5.284 0.992,1.542 1.492,3.095 1.492,4.65 0,2.246 -0.856,4.198 -2.56,5.852 -1.705,1.656 -3.776,2.486 -6.222,2.486 -1.876,0 -3.587,-0.501 -5.113,-1.508 -1.532,-1.001 -2.938,-2.682 -4.229,-5.04 z" /><path
         style="fill:#7c858e"
         inkscape:connector-curvature="0"
         id="path3406"
         d="m 592.967,346.428 17.749,0 0,3.03 -14.649,0 0,9.703 14.524,0 0,3.033 -14.524,0 0,12.169 14.524,0 0,3.029 -17.624,0 0,-30.964 z" /><path
         style="fill:#7c858e"
         inkscape:connector-curvature="0"
         id="path3408"
         d="m 615.622,346.428 3.094,0 0,30.965 -3.094,0 0,-30.965 z" /><path
         style="fill:#7c858e"
         inkscape:connector-curvature="0"
         id="path3410"
         d="m 625.809,346.428 3.093,0 0,27.975 11.919,0 0,2.99 -15.012,0 0,-30.965 z" /><path
         style="fill:#7c858e"
         inkscape:connector-curvature="0"
         id="path3412"
         d="m 645.722,346.428 3.099,0 0,27.975 11.913,0 0,2.99 -15.012,0 0,-30.965 z" /><path
         style="fill:#7c858e"
         inkscape:connector-curvature="0"
         id="path3414"
         d="m 665.656,346.428 17.751,0 0,3.03 -14.657,0 0,9.703 14.531,0 0,3.033 -14.531,0 0,12.169 14.531,0 0,3.029 -17.625,0 0,-30.964 z" /><path
         style="fill:#7c858e"
         inkscape:connector-curvature="0"
         id="path3416"
         d="m 688.923,346.428 6.169,0 c 3.437,0 5.767,0.141 6.982,0.417 1.843,0.426 3.334,1.326 4.488,2.71 1.148,1.386 1.727,3.094 1.727,5.114 0,1.686 -0.395,3.167 -1.192,4.446 -0.794,1.278 -1.924,2.248 -3.399,2.898 -1.473,0.654 -3.505,0.985 -6.104,1.003 l 11.139,14.376 -3.827,0 -11.14,-14.376 -1.748,0 0,14.376 -3.094,0 0,-30.964 z m 3.094,3.03 0,10.526 5.329,0.044 c 2.065,0 3.599,-0.198 4.592,-0.592 0.987,-0.393 1.76,-1.021 2.319,-1.882 0.556,-0.867 0.831,-1.832 0.831,-2.898 0,-1.037 -0.281,-1.979 -0.843,-2.83 -0.564,-0.849 -1.304,-1.456 -2.217,-1.819 -0.911,-0.365 -2.433,-0.549 -4.55,-0.549 l -5.461,0 z" /><path
         style="fill:#7c858e"
         inkscape:connector-curvature="0"
         id="path3418"
         d="m 711.721,371.626 2.628,-1.577 c 1.855,3.408 3.996,5.111 6.422,5.111 1.039,0 2.016,-0.24 2.929,-0.724 0.911,-0.486 1.605,-1.135 2.081,-1.948 0.477,-0.813 0.719,-1.677 0.719,-2.59 0,-1.04 -0.351,-2.055 -1.057,-3.054 -0.963,-1.371 -2.738,-3.029 -5.302,-4.966 -2.582,-1.948 -4.189,-3.36 -4.822,-4.232 -1.096,-1.459 -1.64,-3.036 -1.64,-4.734 0,-1.35 0.321,-2.576 0.962,-3.684 0.65,-1.108 1.557,-1.982 2.728,-2.622 1.178,-0.639 2.449,-0.96 3.822,-0.96 1.462,0 2.823,0.361 4.098,1.085 1.267,0.724 2.61,2.055 4.027,3.988 l -2.524,1.917 c -1.165,-1.543 -2.157,-2.56 -2.979,-3.053 -0.82,-0.488 -1.716,-0.735 -2.686,-0.735 -1.245,0 -2.267,0.38 -3.058,1.136 -0.798,0.758 -1.195,1.694 -1.195,2.802 0,0.671 0.146,1.325 0.426,1.957 0.281,0.631 0.791,1.319 1.532,2.063 0.407,0.393 1.743,1.426 4,3.096 2.685,1.978 4.521,3.737 5.52,5.284 0.992,1.542 1.493,3.095 1.493,4.65 0,2.246 -0.855,4.198 -2.56,5.852 -1.704,1.656 -3.775,2.486 -6.222,2.486 -1.877,0 -3.587,-0.501 -5.112,-1.508 -1.532,-1.001 -2.937,-2.682 -4.23,-5.04 z" /><path
         style="fill:#7c858e"
         inkscape:connector-curvature="0"
         id="path3420"
         d="m 760.976,346.428 14.443,30.965 -3.346,0 -4.864,-10.186 -13.344,0 -4.825,10.186 -3.449,0 14.628,-30.965 0.757,0 z m -0.385,6.576 -5.308,11.213 10.589,0 -5.281,-11.213 z" /><path
         style="fill:#7c858e"
         inkscape:connector-curvature="0"
         id="path3422"
         d="m 780.327,346.428 3.092,0 0,18.692 c 0,2.219 0.041,3.603 0.128,4.147 0.154,1.221 0.511,2.242 1.072,3.063 0.563,0.821 1.424,1.51 2.589,2.063 1.164,0.553 2.336,0.828 3.517,0.828 1.022,0 2.003,-0.217 2.943,-0.649 0.941,-0.435 1.728,-1.041 2.358,-1.812 0.632,-0.771 1.097,-1.705 1.39,-2.801 0.213,-0.786 0.315,-2.398 0.315,-4.841 l 0,-18.692 3.1,0 0,18.692 c 0,2.764 -0.275,5.002 -0.815,6.707 -0.539,1.703 -1.618,3.187 -3.241,4.453 -1.619,1.263 -3.582,1.894 -5.883,1.894 -2.497,0 -4.638,-0.597 -6.421,-1.79 -1.78,-1.195 -2.973,-2.772 -3.576,-4.735 -0.379,-1.211 -0.567,-3.385 -0.567,-6.528 l 0,-18.691 z" /><path
         style="fill:#7c858e"
         inkscape:connector-curvature="0"
         id="path3424"
         d="m 805.377,349.458 0,-3.03 16.969,0 0,3.03 -6.91,0 0,27.935 -3.156,0 0,-27.935 -6.903,0 z" /><path
         style="fill:#7c858e"
         inkscape:connector-curvature="0"
         id="path3426"
         d="m 841.553,345.646 c 4.688,0 8.614,1.567 11.775,4.694 3.162,3.133 4.739,6.984 4.739,11.558 0,4.534 -1.577,8.377 -4.728,11.537 -3.156,3.159 -6.996,4.738 -11.535,4.738 -4.592,0 -8.47,-1.572 -11.626,-4.717 -3.162,-3.145 -4.741,-6.949 -4.741,-11.408 0,-2.977 0.718,-5.733 2.158,-8.275 1.441,-2.54 3.402,-4.528 5.888,-5.97 2.486,-1.436 5.176,-2.157 8.07,-2.157 z m 0.137,3.013 c -2.291,0 -4.466,0.598 -6.52,1.79 -2.049,1.195 -3.655,2.802 -4.803,4.827 -1.155,2.02 -1.733,4.275 -1.733,6.761 0,3.68 1.28,6.788 3.828,9.321 2.554,2.537 5.628,3.802 9.228,3.802 2.405,0 4.625,-0.579 6.674,-1.748 2.043,-1.163 3.639,-2.756 4.785,-4.782 1.149,-2.019 1.717,-4.269 1.717,-6.739 0,-2.459 -0.567,-4.681 -1.717,-6.669 -1.146,-1.988 -2.76,-3.577 -4.843,-4.772 -2.077,-1.193 -4.286,-1.791 -6.616,-1.791 z" /></g></g><g
     transform="matrix(0.42273239,0,0,0.42273239,-0.25720609,-219.90307)"
     id="g3428" /><g
     transform="matrix(0.42273239,0,0,0.42273239,-0.25720609,-219.90307)"
     id="g3430" /><g
     transform="matrix(0.42273239,0,0,0.42273239,-0.25720609,-219.90307)"
     id="g3432" /><g
     transform="matrix(0.42273239,0,0,0.42273239,-0.25720609,-219.90307)"
     id="g3434" /><g
     transform="matrix(0.42273239,0,0,0.42273239,-0.25720609,-219.90307)"
     id="g3436" /><g
     transform="matrix(0.42273239,0,0,0.42273239,-0.25720609,-219.90307)"
     id="g3438" /></svg>