<?xml version="1.0" encoding="utf-8"?>
<!-- Generator: Adobe Illustrator 16.0.0, SVG Export Plug-In . SVG Version: 6.00 Build 0)  -->
<!DOCTYPE svg PUBLIC "-//W3C//DTD SVG 1.1//EN" "http://www.w3.org/Graphics/SVG/1.1/DTD/svg11.dtd">
<svg version="1.1" id="Calque_1" xmlns="http://www.w3.org/2000/svg" xmlns:xlink="http://www.w3.org/1999/xlink" x="0px" y="0px"
	 width="370px" height="66px" viewBox="0 0 370 66" enable-background="new 0 0 370 66" xml:space="preserve">
<path fill="#E20613" d="M68.348,14.715c0.459-0.062,0.818-0.107,1.079-0.138c0.259-0.03,0.497-0.046,0.711-0.046
	c0.214,0,0.306,0.031,0.276,0.092c-0.124,0.428-0.229,0.857-0.321,1.285c-0.093,0.43-0.2,0.858-0.322,1.286
	c-0.275,1.01-0.551,2.021-0.826,3.03s-0.536,2.02-0.78,3.03c-0.368,1.376-0.734,2.739-1.102,4.085
	c-0.367,1.347-0.72,2.708-1.057,4.086l-2.341,8.814c-0.367,1.347-0.728,2.686-1.079,4.017c-0.352,1.332-0.711,2.67-1.079,4.018
	c-0.245,0.979-0.497,1.957-0.757,2.938c-0.261,0.979-0.528,1.958-0.804,2.938c-0.092,0.398-0.184,0.781-0.275,1.148
	s-0.199,0.75-0.322,1.148c-0.183,0.273-0.458,0.458-0.826,0.551c-0.153,0.061-0.314,0.121-0.482,0.183
	c-0.168,0.061-0.344,0.122-0.528,0.184c-0.765,0.275-1.53,0.528-2.295,0.758c-0.765,0.229-1.545,0.466-2.34,0.712
	c-0.797,0.213-1.592,0.404-2.388,0.573c-0.796,0.168-1.592,0.328-2.387,0.481c-0.49,0.123-1.071,0.185-1.745,0.185
	c-0.092,0-0.2-0.031-0.322-0.092c-0.091-0.429-0.19-0.858-0.298-1.286c-0.108-0.429-0.206-0.856-0.298-1.285
	c-0.245-1.041-0.499-2.065-0.758-3.075c-0.261-1.011-0.513-2.021-0.757-3.03c-0.337-1.377-0.667-2.746-0.987-4.109
	c-0.322-1.36-0.651-2.73-0.987-4.107c-0.062-0.122-0.099-0.245-0.115-0.367c-0.016-0.123-0.038-0.245-0.068-0.368
	c-0.276,0.98-0.544,1.968-0.803,2.961c-0.261,0.995-0.529,1.997-0.804,3.007c-0.246,0.98-0.499,1.951-0.757,2.916
	c-0.261,0.964-0.513,1.935-0.758,2.914c-0.122,0.398-0.229,0.781-0.321,1.148s-0.184,0.75-0.275,1.148
	c-0.245,0.273-0.521,0.458-0.827,0.551c-0.184,0.061-0.36,0.121-0.528,0.183c-0.169,0.061-0.329,0.122-0.482,0.184
	c-0.765,0.275-1.538,0.528-2.317,0.758c-0.782,0.229-1.57,0.466-2.365,0.712c-0.796,0.213-1.583,0.404-2.365,0.573
	c-0.779,0.168-1.568,0.328-2.363,0.481c-0.521,0.123-1.117,0.185-1.791,0.185c-0.062,0-0.153-0.031-0.276-0.092
	c-0.092-0.429-0.191-0.835-0.298-1.217c-0.107-0.383-0.206-0.788-0.298-1.217c-0.245-1.01-0.49-2.013-0.734-3.007
	c-0.246-0.995-0.49-1.996-0.735-3.006c-0.337-1.379-0.673-2.739-1.009-4.087c-0.337-1.347-0.673-2.708-1.01-4.085
	c-0.367-1.47-0.727-2.938-1.079-4.408c-0.352-1.469-0.711-2.953-1.078-4.453c-0.337-1.346-0.674-2.686-1.011-4.017
	c-0.337-1.332-0.673-2.686-1.01-4.063c-0.245-0.979-0.481-1.966-0.712-2.961c-0.229-0.994-0.467-1.981-0.711-2.96
	c-0.092-0.397-0.184-0.781-0.275-1.148s-0.184-0.75-0.275-1.147c0.184-0.276,0.459-0.459,0.826-0.551l0.964-0.413
	c0.795-0.276,1.576-0.528,2.341-0.758c0.765-0.229,1.545-0.451,2.34-0.665c0.796-0.214,1.585-0.414,2.365-0.598
	c0.78-0.184,1.568-0.351,2.364-0.504c0.305-0.062,0.604-0.107,0.896-0.138c0.29-0.03,0.589-0.046,0.895-0.046
	c0.122,0.062,0.214,0.092,0.275,0.092c0.122,0.428,0.229,0.842,0.321,1.239c0.092,0.398,0.184,0.812,0.276,1.24
	c0.244,0.98,0.497,1.974,0.757,2.984c0.26,1.01,0.512,2.02,0.757,3.03c0.336,1.377,0.666,2.731,0.987,4.062
	c0.321,1.332,0.649,2.686,0.987,4.063c0.061,0.153,0.099,0.298,0.115,0.436c0.015,0.138,0.053,0.283,0.115,0.436
	c0.244-0.979,0.505-1.974,0.78-2.984c0.276-1.01,0.535-2.019,0.78-3.029c0.275-0.979,0.543-1.958,0.804-2.938
	c0.26-0.979,0.512-1.958,0.758-2.938c0.092-0.368,0.19-0.742,0.298-1.125c0.106-0.383,0.207-0.757,0.298-1.125
	c0.183-0.275,0.459-0.458,0.826-0.55c0.152-0.062,0.321-0.13,0.505-0.207c0.184-0.075,0.351-0.145,0.505-0.207
	c0.765-0.275,1.529-0.528,2.295-0.757c0.765-0.23,1.545-0.451,2.341-0.665c0.795-0.214,1.591-0.414,2.387-0.597
	c0.796-0.184,1.591-0.352,2.388-0.505c0.306-0.062,0.604-0.107,0.895-0.138c0.291-0.03,0.589-0.046,0.896-0.046
	c0.122,0.062,0.214,0.092,0.276,0.092v0.046c0.092,0.429,0.19,0.857,0.298,1.286c0.107,0.429,0.222,0.857,0.345,1.285
	c0.244,1.01,0.489,2.02,0.733,3.03c0.245,1.01,0.489,2.035,0.735,3.076c0.336,1.377,0.673,2.739,1.01,4.085
	c0.336,1.348,0.672,2.709,1.01,4.086c0.03,0.153,0.061,0.298,0.092,0.436c0.03,0.137,0.061,0.283,0.092,0.436
	c0.245-0.979,0.497-1.951,0.758-2.915c0.259-0.964,0.528-1.935,0.803-2.916c0.245-0.979,0.498-1.958,0.758-2.938
	c0.259-0.979,0.512-1.959,0.757-2.938c0.122-0.367,0.229-0.742,0.321-1.124c0.093-0.383,0.2-0.757,0.322-1.125
	c0.184-0.276,0.458-0.459,0.825-0.551c0.153-0.062,0.314-0.13,0.483-0.207c0.168-0.076,0.344-0.145,0.527-0.207
	c0.765-0.276,1.53-0.528,2.295-0.758c0.766-0.229,1.546-0.451,2.342-0.665c0.795-0.214,1.584-0.414,2.364-0.598
	C66.764,15.036,67.552,14.869,68.348,14.715z"/>
<path fill="#E20613" d="M97.948,51.667c0.104,0.312,0.201,0.623,0.292,0.935s0.201,0.623,0.331,0.934
	c-0.208,0.26-0.441,0.402-0.701,0.43c-0.155,0.051-0.305,0.109-0.448,0.174c-0.142,0.064-0.278,0.123-0.408,0.176
	c-0.675,0.233-1.337,0.447-1.985,0.643c-0.649,0.194-1.311,0.383-1.985,0.564c-1.35,0.389-2.686,0.7-4.009,0.934
	c-0.442,0.104-0.947,0.155-1.518,0.155c-0.053,0-0.13-0.025-0.234-0.077c-0.026-0.026-0.039-0.064-0.039-0.117
	c-0.156-0.441-0.312-0.889-0.467-1.342c-0.156-0.455-0.312-0.915-0.467-1.383c-0.287-0.908-0.584-1.797-0.896-2.666
	c-0.312-0.87-0.61-1.76-0.896-2.666c-0.052-0.131-0.091-0.241-0.117-0.332c-0.026-0.091-0.053-0.201-0.078-0.331h-7.786
	c-0.233,0.675-0.461,1.337-0.681,1.985c-0.221,0.648-0.435,1.311-0.642,1.985c-0.131,0.312-0.24,0.623-0.33,0.935
	c-0.092,0.312-0.189,0.623-0.293,0.934c-0.208,0.26-0.441,0.402-0.701,0.43c-0.156,0.051-0.305,0.109-0.447,0.174
	c-0.143,0.064-0.279,0.123-0.409,0.176c-0.676,0.233-1.337,0.447-1.986,0.643c-0.648,0.194-1.31,0.383-1.984,0.564
	c-1.35,0.389-2.687,0.7-4.01,0.934c-0.363,0.052-0.661,0.091-0.895,0.117c-0.234,0.025-0.442,0.038-0.623,0.038
	c-0.182,0-0.26-0.025-0.234-0.077c0-0.026,0.007-0.045,0.02-0.059c0.013-0.014,0.02-0.033,0.02-0.059
	c0.156-0.441,0.312-0.889,0.468-1.342c0.155-0.455,0.298-0.915,0.428-1.383c0.312-0.908,0.616-1.797,0.915-2.666
	c0.298-0.87,0.604-1.76,0.915-2.666c0.363-1.168,0.739-2.323,1.129-3.465c0.389-1.143,0.778-2.297,1.168-3.465
	c0.414-1.22,0.823-2.434,1.226-3.64c0.401-1.207,0.811-2.433,1.227-3.679c0.363-1.115,0.732-2.219,1.108-3.309
	s0.76-2.193,1.149-3.309c0.259-0.804,0.519-1.602,0.778-2.394c0.259-0.791,0.531-1.589,0.817-2.394
	c0.103-0.311,0.207-0.623,0.311-0.934s0.208-0.609,0.312-0.896c0.156-0.259,0.39-0.415,0.701-0.467
	c0.129-0.052,0.266-0.11,0.408-0.175c0.143-0.065,0.292-0.123,0.448-0.175c0.649-0.233,1.298-0.448,1.946-0.642
	c0.648-0.195,1.31-0.383,1.985-0.564c1.298-0.39,2.647-0.701,4.049-0.934c0.441-0.104,0.934-0.156,1.479-0.156
	c0.077,0,0.168,0.026,0.272,0.078c0,0.052,0.013,0.091,0.039,0.117c0.156,0.442,0.304,0.896,0.448,1.362
	c0.143,0.467,0.291,0.922,0.448,1.363c0.285,0.909,0.584,1.804,0.895,2.686c0.311,0.883,0.61,1.765,0.896,2.647
	c0.389,1.167,0.778,2.322,1.167,3.464c0.39,1.143,0.779,2.297,1.168,3.464c0.415,1.246,0.823,2.466,1.225,3.659
	c0.403,1.194,0.812,2.413,1.228,3.659c0.362,1.116,0.732,2.219,1.109,3.309c0.376,1.09,0.745,2.193,1.109,3.309L97.948,51.667z
	 M83.234,44.505c-0.182-0.519-0.357-1.032-0.526-1.538s-0.344-1.018-0.525-1.537c-0.286-0.882-0.578-1.765-0.876-2.647
	c-0.299-0.881-0.59-1.764-0.876-2.646c-0.233,0.675-0.467,1.362-0.7,2.063s-0.468,1.389-0.7,2.063
	c-0.234,0.701-0.468,1.408-0.702,2.121c-0.232,0.715-0.479,1.422-0.739,2.122H83.234z"/>
<path fill="#E20613" d="M136.2,20.785c-0.022,0,0.046-0.011,0.203-0.034c0.158-0.022,0.334-0.045,0.526-0.068
	c0.192-0.022,0.373-0.034,0.543-0.034s0.255,0.023,0.255,0.068v31.09c-0.136,0.203-0.34,0.338-0.611,0.406
	c-0.135,0.045-0.267,0.097-0.39,0.152c-0.125,0.057-0.244,0.107-0.357,0.153c-0.564,0.203-1.137,0.39-1.713,0.561
	c-0.578,0.169-1.161,0.333-1.748,0.491c-0.589,0.158-1.171,0.306-1.749,0.441c-0.576,0.137-1.159,0.26-1.747,0.373
	c0.022,0-0.046,0.012-0.204,0.034s-0.334,0.046-0.526,0.067c-0.191,0.023-0.372,0.04-0.542,0.051
	c-0.17,0.012-0.254-0.016-0.254-0.084V43.559l-1.121,2.646l-1.73,3.972c-0.114,0.249-0.221,0.503-0.322,0.764
	c-0.103,0.26-0.21,0.514-0.323,0.764c-0.136,0.204-0.339,0.339-0.61,0.407c-0.227,0.068-0.476,0.158-0.747,0.271
	c-0.565,0.203-1.137,0.391-1.714,0.561c-0.577,0.169-1.16,0.344-1.748,0.525c-0.589,0.158-1.171,0.3-1.747,0.424
	c-0.578,0.125-1.16,0.243-1.749,0.357c-0.385,0.09-0.826,0.135-1.323,0.135c-0.046,0-0.113-0.021-0.204-0.067
	c-0.023-0.046-0.045-0.097-0.067-0.152c-0.023-0.058-0.046-0.108-0.068-0.153c-0.204-0.453-0.402-0.91-0.595-1.375
	c-0.192-0.463-0.39-0.922-0.594-1.374c-0.339-0.792-0.678-1.589-1.017-2.393s-0.691-1.602-1.053-2.394
	c-0.046-0.135-0.079-0.226-0.102-0.271v5.602c-0.135,0.203-0.338,0.338-0.611,0.406c-0.113,0.045-0.238,0.097-0.373,0.152
	c-0.136,0.057-0.261,0.107-0.373,0.153c-0.566,0.203-1.132,0.39-1.697,0.561c-0.566,0.169-1.143,0.333-1.731,0.491
	c-0.588,0.158-1.176,0.306-1.765,0.441c-0.588,0.137-1.177,0.26-1.765,0.373c0.022,0-0.046,0.012-0.204,0.034
	c-0.159,0.022-0.334,0.046-0.526,0.067c-0.193,0.023-0.374,0.04-0.544,0.051c-0.168,0.012-0.254-0.016-0.254-0.084V23.364
	c0.136-0.204,0.34-0.339,0.612-0.408c0.113-0.045,0.237-0.096,0.373-0.152s0.26-0.107,0.374-0.153
	c0.565-0.204,1.136-0.39,1.713-0.56c0.577-0.169,1.16-0.333,1.748-0.492c0.588-0.158,1.171-0.305,1.748-0.441
	c0.577-0.136,1.16-0.26,1.748-0.374c0.226-0.045,0.447-0.079,0.663-0.102c0.214-0.022,0.435-0.034,0.662-0.034
	c0.09,0.045,0.158,0.068,0.203,0.068c0.023,0.068,0.046,0.13,0.068,0.187c0.022,0.056,0.046,0.107,0.068,0.153
	c0.204,0.453,0.401,0.911,0.594,1.374c0.192,0.464,0.391,0.922,0.594,1.375c0.339,0.792,0.678,1.59,1.018,2.393
	c0.339,0.803,0.689,1.601,1.053,2.393c0.429,0.996,0.853,1.98,1.272,2.953c0.418,0.973,0.843,1.968,1.273,2.986
	c0.452,1.018,0.893,2.043,1.323,3.072c0.431,1.03,0.871,2.053,1.324,3.072l0.407,0.916c0.067-0.182,0.141-0.356,0.221-0.525
	c0.079-0.17,0.152-0.346,0.221-0.527c0.452-1.04,0.893-2.07,1.323-3.088c0.429-1.018,0.87-2.047,1.324-3.088
	c0.407-0.928,0.809-1.844,1.204-2.75c0.396-0.904,0.786-1.821,1.172-2.749l1.73-3.971c0.113-0.249,0.221-0.503,0.322-0.764
	c0.102-0.26,0.209-0.514,0.323-0.763c0.135-0.204,0.338-0.339,0.61-0.408c0.112-0.045,0.237-0.096,0.373-0.152
	c0.135-0.057,0.26-0.107,0.373-0.153c0.564-0.204,1.131-0.39,1.697-0.56c0.565-0.169,1.143-0.333,1.73-0.492
	c0.588-0.158,1.177-0.305,1.766-0.441C135.023,21.022,135.611,20.898,136.2,20.785z"/>
<path fill="#E20613" d="M166.803,49.189c0.138,0,0.196,0.025,0.177,0.074s-0.073,0.099-0.162,0.148
	c-0.089,0.049-0.177,0.093-0.266,0.133c-0.089,0.039-0.123,0.059-0.104,0.059c-0.63,0.275-1.278,0.521-1.948,0.738
	c-0.669,0.216-1.338,0.422-2.007,0.619c-0.944,0.275-1.885,0.531-2.819,0.768s-1.884,0.433-2.849,0.591
	c-0.728,0.099-1.455,0.177-2.184,0.236c-0.728,0.059-1.456,0.048-2.185-0.03c-1.594-0.158-3.104-0.581-4.531-1.27
	c-1.426-0.688-2.68-1.623-3.763-2.803c-1.043-1.123-1.874-2.383-2.494-3.779s-1.009-2.863-1.165-4.398
	c-0.158-1.534-0.05-3.054,0.324-4.56c0.373-1.505,0.974-2.907,1.801-4.206c0.413-0.649,0.88-1.269,1.4-1.859
	c0.521-0.59,1.088-1.122,1.699-1.594c0.885-0.689,1.824-1.26,2.818-1.712c0.993-0.453,2.021-0.846,3.084-1.181
	c1.299-0.395,2.602-0.757,3.91-1.093c1.31-0.334,2.643-0.6,4-0.796c0.453-0.059,0.91-0.104,1.373-0.133
	c0.462-0.029,0.92-0.034,1.373-0.015c0.826,0.02,1.628,0.119,2.404,0.295c0.777,0.177,1.54,0.423,2.288,0.738
	c-0.118,0.177-0.294,0.295-0.531,0.354c-0.099,0.04-0.201,0.084-0.31,0.133c-0.108,0.05-0.222,0.093-0.34,0.133
	c-0.492,0.177-0.984,0.339-1.476,0.487c-0.492,0.148-0.994,0.291-1.505,0.429c-0.513,0.137-1.02,0.266-1.521,0.384
	c-0.502,0.118-1.009,0.226-1.521,0.324c-0.196,0.04-0.389,0.069-0.575,0.089c-0.187,0.02-0.379,0.029-0.575,0.029
	c-0.079-0.039-0.138-0.059-0.178-0.059c-0.138-0.059-0.271-0.113-0.398-0.163c-0.128-0.049-0.251-0.093-0.369-0.133
	c-1.003-0.334-2.007-0.531-3.011-0.59c-0.826,0.571-1.584,1.239-2.272,2.007c-0.905,1.063-1.639,2.224-2.199,3.483
	c-0.561,1.259-0.93,2.568-1.107,3.926c-0.196,1.535-0.133,3.055,0.192,4.56c0.325,1.506,0.882,2.928,1.668,4.266
	c0.394,0.649,0.831,1.265,1.313,1.844c0.481,0.582,1.008,1.107,1.579,1.58c1.181,1.004,2.509,1.761,3.985,2.272
	c0.688,0.216,1.382,0.384,2.081,0.501c0.697,0.119,1.401,0.168,2.109,0.148c0.453-0.138,0.91-0.26,1.372-0.369
	c0.463-0.107,0.931-0.211,1.402-0.31c0.492-0.118,1.014-0.206,1.565-0.266C166.458,49.199,166.605,49.189,166.803,49.189z"/>
<path fill="#E20613" d="M186.054,48.009c0.071,0.215,0.139,0.431,0.202,0.645c0.063,0.216,0.139,0.431,0.228,0.646
	c-0.143,0.179-0.305,0.277-0.483,0.295c-0.107,0.036-0.211,0.076-0.309,0.121c-0.1,0.045-0.192,0.085-0.283,0.121
	c-0.466,0.162-0.922,0.309-1.37,0.443c-0.447,0.135-0.904,0.264-1.37,0.39c-0.932,0.269-1.854,0.483-2.768,0.646
	c-0.305,0.07-0.654,0.107-1.048,0.107c-0.036,0-0.09-0.02-0.161-0.055c-0.019-0.018-0.027-0.045-0.027-0.08
	c-0.107-0.305-0.214-0.613-0.322-0.928c-0.107-0.313-0.215-0.631-0.322-0.953c-0.197-0.627-0.403-1.24-0.617-1.841
	c-0.216-0.601-0.422-1.214-0.619-1.841c-0.035-0.09-0.063-0.166-0.08-0.229s-0.036-0.139-0.054-0.229h-5.374
	c-0.161,0.466-0.318,0.922-0.471,1.371c-0.152,0.447-0.3,0.904-0.442,1.37c-0.091,0.215-0.166,0.431-0.229,0.645
	c-0.063,0.216-0.13,0.431-0.201,0.646c-0.144,0.179-0.305,0.277-0.484,0.295c-0.106,0.036-0.21,0.076-0.309,0.121
	s-0.192,0.085-0.282,0.121c-0.466,0.162-0.923,0.309-1.37,0.443s-0.904,0.264-1.37,0.39c-0.932,0.269-1.854,0.483-2.768,0.646
	c-0.251,0.035-0.457,0.063-0.618,0.08s-0.305,0.027-0.43,0.027c-0.126,0-0.179-0.02-0.161-0.055c0-0.018,0.003-0.031,0.014-0.04
	c0.009-0.009,0.013-0.022,0.013-0.04c0.107-0.305,0.215-0.613,0.323-0.928c0.107-0.313,0.205-0.631,0.295-0.953
	c0.215-0.627,0.426-1.24,0.632-1.841s0.416-1.214,0.631-1.841c0.251-0.807,0.512-1.603,0.779-2.391
	c0.27-0.789,0.537-1.586,0.807-2.393c0.286-0.841,0.568-1.679,0.846-2.512c0.277-0.833,0.561-1.679,0.848-2.539
	c0.25-0.77,0.505-1.531,0.765-2.284c0.26-0.752,0.524-1.513,0.793-2.284c0.179-0.555,0.358-1.105,0.538-1.652
	c0.178-0.546,0.366-1.097,0.563-1.653c0.071-0.214,0.144-0.43,0.215-0.645c0.071-0.214,0.144-0.42,0.216-0.618
	c0.106-0.179,0.269-0.287,0.483-0.322c0.089-0.036,0.183-0.076,0.282-0.121c0.098-0.044,0.201-0.084,0.309-0.121
	c0.447-0.161,0.896-0.309,1.344-0.443c0.447-0.135,0.904-0.264,1.37-0.39c0.896-0.269,1.827-0.483,2.794-0.645
	c0.305-0.071,0.646-0.107,1.021-0.107c0.054,0,0.117,0.018,0.188,0.054c0,0.036,0.009,0.063,0.027,0.081
	c0.107,0.305,0.211,0.618,0.309,0.94c0.1,0.323,0.202,0.636,0.31,0.94c0.197,0.627,0.403,1.245,0.618,1.854
	c0.215,0.609,0.42,1.218,0.618,1.827c0.269,0.806,0.537,1.603,0.806,2.392c0.27,0.788,0.538,1.585,0.807,2.391
	c0.286,0.86,0.567,1.702,0.847,2.525c0.277,0.824,0.56,1.666,0.846,2.526c0.25,0.771,0.506,1.532,0.766,2.284
	s0.515,1.514,0.766,2.284L186.054,48.009z M175.896,43.064c-0.126-0.357-0.246-0.712-0.362-1.062
	c-0.116-0.349-0.238-0.702-0.362-1.062c-0.198-0.608-0.398-1.217-0.604-1.826c-0.207-0.61-0.407-1.219-0.604-1.828
	c-0.162,0.466-0.322,0.941-0.484,1.425c-0.16,0.483-0.322,0.958-0.483,1.424c-0.161,0.483-0.322,0.972-0.483,1.464
	c-0.162,0.494-0.332,0.981-0.511,1.465H175.896z"/>
<path fill="#E20613" d="M210.068,48.428c0.016,0.031-0.02,0.071-0.106,0.118c-0.087,0.048-0.188,0.095-0.308,0.142
	c-0.117,0.047-0.231,0.095-0.342,0.143c-0.11,0.047-0.173,0.07-0.188,0.07c-0.394,0.142-0.787,0.271-1.181,0.39
	s-0.795,0.239-1.203,0.366c-0.41,0.109-0.819,0.208-1.229,0.295c-0.409,0.086-0.818,0.169-1.228,0.248
	c-0.268,0.063-0.575,0.094-0.921,0.094c-0.031,0-0.079-0.016-0.142-0.047l-0.425-0.496l-2.763-3.188
	c-0.22-0.235-0.429-0.468-0.626-0.696c-0.196-0.228-0.397-0.46-0.602-0.696c-0.315,0.078-0.63,0.146-0.944,0.201
	c-0.315,0.055-0.63,0.113-0.944,0.177c-0.173,0.032-0.343,0.059-0.508,0.083c-0.166,0.023-0.334,0.051-0.507,0.082v2.738
	c-0.096,0.143-0.237,0.236-0.426,0.283c-0.079,0.032-0.165,0.067-0.259,0.107c-0.096,0.039-0.182,0.074-0.261,0.105
	c-0.394,0.143-0.787,0.271-1.18,0.39c-0.394,0.118-0.796,0.232-1.204,0.343c-0.41,0.109-0.819,0.213-1.229,0.307
	c-0.409,0.095-0.818,0.181-1.228,0.26c0.015,0-0.031,0.008-0.142,0.023s-0.232,0.031-0.365,0.047
	c-0.135,0.016-0.26,0.023-0.379,0.023c-0.117,0-0.177-0.015-0.177-0.047V29.965c0-0.031,0.032-0.066,0.095-0.105
	c0.063-0.04,0.11-0.068,0.141-0.083c0.143-0.095,0.275-0.173,0.402-0.236c0.504-0.268,1.023-0.512,1.559-0.732
	c0.535-0.221,1.078-0.417,1.629-0.591c1.055-0.314,2.113-0.609,3.176-0.885c1.062-0.275,2.137-0.476,3.222-0.602
	c0.708-0.094,1.413-0.126,2.114-0.094c0.699,0.031,1.389,0.142,2.064,0.331c1.165,0.33,2.239,0.862,3.224,1.593
	c0.983,0.732,1.774,1.633,2.372,2.704c0.331,0.598,0.583,1.22,0.756,1.865c0.174,0.646,0.271,1.298,0.295,1.959
	s-0.04,1.323-0.188,1.983c-0.15,0.662-0.374,1.292-0.673,1.889c-0.283,0.582-0.635,1.129-1.051,1.641
	c-0.418,0.512-0.878,0.973-1.382,1.382c-0.235,0.188-0.476,0.361-0.72,0.519c-0.244,0.158-0.499,0.307-0.767,0.449
	c0.03,0.031,0.055,0.063,0.071,0.094c0.015,0.031,0.038,0.063,0.07,0.095c0.456,0.519,0.917,1.043,1.381,1.57
	c0.465,0.526,0.925,1.058,1.381,1.593L210.068,48.428z M195.95,42.502c0.299,0.174,0.602,0.335,0.909,0.484
	c0.307,0.149,0.625,0.279,0.955,0.389c0.299,0.111,0.6,0.197,0.897,0.26c0.299,0.063,0.606,0.119,0.921,0.166
	c0.078-0.031,0.153-0.055,0.224-0.07c0.071-0.016,0.146-0.039,0.226-0.072c0.424-0.346,0.803-0.707,1.133-1.086
	c0.172-0.203,0.343-0.416,0.508-0.637s0.311-0.449,0.436-0.685c0.662-1.117,1.032-2.354,1.111-3.707
	c0.031-0.692-0.021-1.38-0.154-2.066c-0.134-0.685-0.358-1.333-0.673-1.947c-0.519-1.071-1.231-1.991-2.136-2.763
	c-0.906-0.771-1.917-1.354-3.034-1.747c-0.221-0.079-0.446-0.145-0.674-0.201c-0.228-0.055-0.46-0.098-0.695-0.13v13.788
	C195.935,42.479,195.95,42.486,195.95,42.502z"/>
<g>
	<rect x="218.097" y="22.757" fill="#7B858E" width="1" height="31.45"/>
	<g>
		<path fill="#7B858E" d="M227.786,36.334v-10.54h2.185c1.576,0,2.72,0.126,3.432,0.38c1.022,0.358,1.821,0.979,2.396,1.863
			s0.863,1.937,0.863,3.16c0,1.056-0.228,1.984-0.684,2.787c-0.457,0.802-1.048,1.395-1.777,1.777
			c-0.729,0.382-1.75,0.573-3.063,0.573H227.786z M228.796,35.338h1.218c1.457,0,2.467-0.091,3.031-0.272
			c0.793-0.257,1.416-0.721,1.87-1.392c0.454-0.67,0.681-1.49,0.681-2.459c0-1.017-0.246-1.885-0.738-2.605
			c-0.492-0.721-1.177-1.215-2.056-1.482c-0.659-0.201-1.746-0.301-3.26-0.301h-0.745V35.338z"/>
		<path fill="#7B858E" d="M238.712,25.795h6.04v1.032h-4.986v3.303h4.943v1.031h-4.943v4.142h4.943v1.032h-5.997V25.795z
			 M242.28,22.757h1.541l-2.114,2.207h-0.989L242.28,22.757z"/>
		<path fill="#7B858E" d="M246.579,36.334v-10.54h0.229l7.015,8.079v-8.079h1.039v10.54h-0.236l-6.957-7.98v7.98H246.579z"/>
		<path fill="#7B858E" d="M257.275,25.795h1.053v10.54h-1.053V25.795z"/>
		<path fill="#7B858E" d="M270.559,27.751l-0.83,0.638c-0.459-0.597-1.01-1.05-1.652-1.358s-1.348-0.462-2.117-0.462
			c-0.84,0-1.619,0.202-2.336,0.605c-0.717,0.403-1.271,0.946-1.666,1.626c-0.393,0.681-0.59,1.446-0.59,2.296
			c0,1.285,0.439,2.357,1.32,3.217c0.883,0.86,1.994,1.29,3.336,1.29c1.477,0,2.711-0.578,3.705-1.734l0.83,0.63
			c-0.525,0.669-1.182,1.186-1.967,1.551s-1.662,0.548-2.633,0.548c-1.844,0-3.299-0.614-4.363-1.842
			c-0.893-1.036-1.34-2.288-1.34-3.754c0-1.543,0.541-2.841,1.623-3.894s2.438-1.58,4.066-1.58c0.984,0,1.871,0.195,2.664,0.584
			S270.053,27.049,270.559,27.751z"/>
		<path fill="#7B858E" d="M272.658,25.795h1.053v4.421h5.367v-4.421h1.053v10.54h-1.053v-5.087h-5.367v5.087h-1.053V25.795z"/>
		<path fill="#7B858E" d="M282.703,25.795h6.039v1.032h-4.986v3.303h4.943v1.031h-4.943v4.142h4.943v1.032h-5.996V25.795z"/>
		<path fill="#7B858E" d="M290.598,25.795h1.055v6.362c0,0.755,0.014,1.225,0.043,1.412c0.053,0.416,0.174,0.763,0.365,1.042
			c0.191,0.279,0.484,0.513,0.881,0.702c0.396,0.188,0.795,0.283,1.197,0.283c0.348,0,0.682-0.074,1.002-0.222
			c0.32-0.148,0.588-0.354,0.803-0.616s0.373-0.58,0.473-0.953c0.072-0.268,0.107-0.817,0.107-1.648v-6.362h1.053v6.362
			c0,0.941-0.092,1.702-0.275,2.282c-0.184,0.58-0.551,1.085-1.104,1.515c-0.551,0.43-1.219,0.645-2.002,0.645
			c-0.85,0-1.578-0.203-2.186-0.609c-0.605-0.406-1.012-0.943-1.219-1.612c-0.129-0.411-0.193-1.151-0.193-2.221V25.795z"/>
		<path fill="#7B858E" d="M300.229,25.795h2.1c1.17,0,1.963,0.048,2.377,0.144c0.627,0.144,1.135,0.451,1.527,0.922
			c0.391,0.471,0.588,1.051,0.588,1.74c0,0.574-0.137,1.078-0.406,1.513c-0.27,0.436-0.654,0.765-1.156,0.986
			c-0.502,0.223-1.195,0.336-2.078,0.341l3.791,4.894h-1.303l-3.791-4.894h-0.596v4.894h-1.053V25.795z M301.281,26.827v3.583
			l1.814,0.014c0.703,0,1.225-0.067,1.563-0.201c0.336-0.134,0.6-0.347,0.789-0.641s0.283-0.622,0.283-0.985
			c0-0.353-0.096-0.674-0.287-0.963s-0.443-0.496-0.754-0.62c-0.311-0.125-0.828-0.187-1.549-0.187H301.281z"/>
		<path fill="#7B858E" d="M313.139,36.334v-10.54h2.186c1.576,0,2.721,0.126,3.432,0.38c1.021,0.358,1.82,0.979,2.396,1.863
			s0.863,1.937,0.863,3.16c0,1.056-0.229,1.984-0.684,2.787c-0.457,0.802-1.049,1.395-1.777,1.777
			c-0.729,0.382-1.75,0.573-3.063,0.573H313.139z M314.148,35.338h1.219c1.457,0,2.467-0.091,3.031-0.272
			c0.793-0.257,1.416-0.721,1.869-1.392c0.453-0.67,0.68-1.49,0.68-2.459c0-1.017-0.244-1.885-0.736-2.605
			c-0.492-0.721-1.178-1.215-2.057-1.482c-0.66-0.201-1.746-0.301-3.26-0.301h-0.746V35.338z"/>
		<path fill="#7B858E" d="M324.064,25.795h6.041v1.032h-4.988v3.303h4.945v1.031h-4.945v4.142h4.945v1.032h-5.998V25.795z"/>
		<path fill="#7B858E" d="M237.601,45.359l-0.831,0.638c-0.458-0.597-1.009-1.05-1.651-1.358s-1.348-0.462-2.117-0.462
			c-0.841,0-1.619,0.202-2.336,0.605c-0.716,0.403-1.271,0.945-1.666,1.626s-0.591,1.446-0.591,2.296
			c0,1.285,0.441,2.357,1.322,3.217c0.881,0.859,1.993,1.29,3.335,1.29c1.476,0,2.71-0.578,3.704-1.734l0.831,0.63
			c-0.525,0.669-1.181,1.186-1.967,1.551c-0.786,0.365-1.663,0.548-2.633,0.548c-1.844,0-3.298-0.614-4.363-1.841
			c-0.893-1.036-1.34-2.288-1.34-3.754c0-1.543,0.541-2.841,1.623-3.894c1.082-1.053,2.437-1.58,4.066-1.58
			c0.984,0,1.872,0.195,2.665,0.584S237.095,44.657,237.601,45.359z"/>
		<path fill="#7B858E" d="M244.734,43.138c1.596,0,2.931,0.533,4.007,1.598c1.076,1.065,1.613,2.376,1.613,3.934
			c0,1.543-0.536,2.852-1.61,3.926c-1.073,1.075-2.381,1.612-3.925,1.612c-1.563,0-2.883-0.535-3.958-1.604
			c-1.076-1.07-1.613-2.365-1.613-3.883c0-1.013,0.245-1.951,0.734-2.816c0.491-0.865,1.158-1.542,2.004-2.031
			C242.834,43.382,243.749,43.138,244.734,43.138z M244.78,44.162c-0.78,0-1.519,0.203-2.217,0.61
			c-0.699,0.407-1.245,0.954-1.636,1.642c-0.393,0.688-0.589,1.456-0.589,2.301c0,1.253,0.435,2.31,1.303,3.173
			c0.868,0.863,1.914,1.294,3.139,1.294c0.818,0,1.575-0.198,2.271-0.595c0.696-0.396,1.24-0.939,1.629-1.627
			c0.391-0.688,0.585-1.453,0.585-2.294c0-0.836-0.194-1.593-0.585-2.27c-0.389-0.677-0.938-1.217-1.646-1.624
			C246.325,44.365,245.574,44.162,244.78,44.162z"/>
		<path fill="#7B858E" d="M252.475,53.942v-10.54h0.229l7.014,8.079v-8.079h1.039v10.54h-0.236l-6.958-7.981v7.981H252.475z"/>
		<path fill="#7B858E" d="M262.234,51.979l0.895-0.538c0.631,1.161,1.359,1.741,2.186,1.741c0.354,0,0.686-0.083,0.996-0.247
			c0.311-0.165,0.547-0.386,0.709-0.663c0.162-0.277,0.244-0.571,0.244-0.881c0-0.354-0.119-0.7-0.359-1.039
			c-0.328-0.468-0.932-1.032-1.805-1.691c-0.879-0.664-1.426-1.144-1.641-1.44c-0.373-0.497-0.559-1.034-0.559-1.612
			c0-0.458,0.109-0.876,0.328-1.253c0.221-0.377,0.529-0.675,0.928-0.892c0.4-0.217,0.834-0.326,1.301-0.326
			c0.498,0,0.961,0.123,1.395,0.369c0.432,0.246,0.889,0.698,1.371,1.357l-0.859,0.652c-0.396-0.525-0.734-0.872-1.014-1.039
			s-0.584-0.251-0.914-0.251c-0.424,0-0.771,0.129-1.041,0.387c-0.271,0.258-0.406,0.576-0.406,0.953
			c0,0.229,0.049,0.452,0.145,0.667s0.27,0.449,0.521,0.702c0.139,0.134,0.594,0.485,1.361,1.053
			c0.914,0.673,1.539,1.273,1.879,1.798c0.338,0.525,0.508,1.053,0.508,1.583c0,0.764-0.291,1.428-0.871,1.992
			s-1.285,0.845-2.117,0.845c-0.639,0-1.221-0.17-1.74-0.512C263.152,53.354,262.674,52.781,262.234,51.979z"/>
		<path fill="#7B858E" d="M270.637,43.403h6.041v1.032h-4.986v3.303h4.943v1.032h-4.943v4.142h4.943v1.032h-5.998V43.403z"/>
		<path fill="#7B858E" d="M278.348,43.403h1.053v10.54h-1.053V43.403z"/>
		<path fill="#7B858E" d="M281.814,43.403h1.053v9.522h4.057v1.018h-5.109V43.403z"/>
		<path fill="#7B858E" d="M288.592,43.403h1.055v9.522h4.055v1.018h-5.109V43.403z"/>
		<path fill="#7B858E" d="M295.377,43.403h6.041v1.032h-4.988v3.303h4.945v1.032h-4.945v4.142h4.945v1.032h-5.998V43.403z"/>
		<path fill="#7B858E" d="M303.295,43.403h2.1c1.17,0,1.963,0.048,2.377,0.143c0.627,0.144,1.135,0.451,1.527,0.922
			c0.391,0.471,0.588,1.052,0.588,1.74c0,0.574-0.135,1.078-0.406,1.513c-0.27,0.436-0.654,0.765-1.156,0.986
			c-0.502,0.223-1.193,0.336-2.078,0.341l3.791,4.894h-1.303l-3.791-4.894h-0.596v4.894h-1.053V43.403z M304.348,44.435v3.583
			l1.814,0.014c0.703,0,1.225-0.067,1.563-0.201c0.336-0.134,0.6-0.347,0.789-0.641s0.283-0.622,0.283-0.985
			c0-0.354-0.096-0.674-0.287-0.963s-0.443-0.496-0.754-0.62c-0.311-0.125-0.828-0.187-1.549-0.187H304.348z"/>
		<path fill="#7B858E" d="M311.055,51.979l0.895-0.538c0.631,1.161,1.359,1.741,2.186,1.741c0.354,0,0.686-0.083,0.996-0.247
			c0.311-0.165,0.547-0.386,0.709-0.663c0.162-0.277,0.244-0.571,0.244-0.881c0-0.354-0.119-0.7-0.359-1.039
			c-0.328-0.468-0.932-1.032-1.805-1.691c-0.879-0.664-1.426-1.144-1.641-1.44c-0.373-0.497-0.559-1.034-0.559-1.612
			c0-0.458,0.109-0.876,0.328-1.253c0.221-0.377,0.529-0.675,0.928-0.892c0.4-0.217,0.834-0.326,1.301-0.326
			c0.498,0,0.961,0.123,1.395,0.369c0.432,0.246,0.889,0.698,1.371,1.357l-0.859,0.652c-0.396-0.525-0.734-0.872-1.014-1.039
			s-0.584-0.251-0.914-0.251c-0.424,0-0.771,0.129-1.041,0.387c-0.271,0.258-0.406,0.576-0.406,0.953
			c0,0.229,0.049,0.452,0.145,0.667s0.27,0.449,0.521,0.702c0.139,0.134,0.594,0.485,1.361,1.053
			c0.914,0.673,1.539,1.273,1.879,1.798c0.338,0.525,0.508,1.053,0.508,1.583c0,0.764-0.291,1.428-0.871,1.992
			s-1.285,0.845-2.117,0.845c-0.639,0-1.221-0.17-1.74-0.512C311.973,53.354,311.494,52.781,311.055,51.979z"/>
		<path fill="#7B858E" d="M327.818,43.403l4.916,10.54h-1.139l-1.656-3.468h-4.541l-1.643,3.468h-1.174l4.979-10.54H327.818z
			 M327.688,45.642l-1.807,3.815h3.604L327.688,45.642z"/>
		<path fill="#7B858E" d="M334.404,43.403h1.053v6.362c0,0.755,0.014,1.225,0.043,1.412c0.053,0.416,0.174,0.763,0.365,1.042
			c0.191,0.279,0.484,0.513,0.881,0.702c0.396,0.188,0.795,0.283,1.197,0.283c0.348,0,0.682-0.074,1.002-0.222
			s0.588-0.354,0.803-0.616s0.373-0.58,0.473-0.953c0.072-0.268,0.107-0.817,0.107-1.648v-6.362h1.055v6.362
			c0,0.941-0.094,1.702-0.277,2.282c-0.184,0.581-0.551,1.085-1.104,1.516c-0.551,0.43-1.219,0.645-2.002,0.645
			c-0.85,0-1.578-0.203-2.186-0.609c-0.605-0.406-1.012-0.943-1.217-1.612c-0.129-0.411-0.193-1.151-0.193-2.221V43.403z"/>
		<path fill="#7B858E" d="M342.93,44.435v-1.032h5.775v1.032h-2.352v9.508h-1.074v-9.508H342.93z"/>
		<path fill="#7B858E" d="M355.242,43.138c1.596,0,2.932,0.533,4.008,1.598c1.076,1.065,1.613,2.376,1.613,3.934
			c0,1.543-0.537,2.852-1.609,3.926c-1.074,1.075-2.381,1.612-3.926,1.612c-1.563,0-2.883-0.535-3.957-1.604
			c-1.076-1.07-1.613-2.365-1.613-3.883c0-1.013,0.244-1.951,0.734-2.816s1.158-1.542,2.004-2.031S354.258,43.138,355.242,43.138z
			 M355.289,44.162c-0.779,0-1.52,0.203-2.219,0.61c-0.697,0.407-1.244,0.954-1.635,1.642c-0.393,0.688-0.59,1.456-0.59,2.301
			c0,1.253,0.436,2.31,1.303,3.173c0.869,0.863,1.916,1.294,3.141,1.294c0.818,0,1.574-0.198,2.271-0.595
			c0.695-0.396,1.238-0.939,1.629-1.627s0.584-1.453,0.584-2.294c0-0.836-0.193-1.593-0.584-2.27
			c-0.391-0.677-0.939-1.217-1.648-1.624C356.834,44.365,356.082,44.162,355.289,44.162z"/>
	</g>
</g>
</svg>
