<?xml version="1.0" encoding="UTF-8" standalone="no"?>
<!-- Generator: Adobe Illustrator 16.0.0, SVG Export Plug-In . SVG Version: 6.00 Build 0)  -->

<svg
   xmlns:dc="http://purl.org/dc/elements/1.1/"
   xmlns:cc="http://creativecommons.org/ns#"
   xmlns:rdf="http://www.w3.org/1999/02/22-rdf-syntax-ns#"
   xmlns:svg="http://www.w3.org/2000/svg"
   xmlns="http://www.w3.org/2000/svg"
   xmlns:sodipodi="http://sodipodi.sourceforge.net/DTD/sodipodi-0.dtd"
   xmlns:inkscape="http://www.inkscape.org/namespaces/inkscape"
   version="1.1"
   id="Calque_1"
   x="0px"
   y="0px"
   width="365"
   height="50"
   viewBox="0 0 365 50.000001"
   enable-background="new 0 0 697.841 110.072"
   xml:space="preserve"
   inkscape:version="0.91 r13725"
   sodipodi:docname="wamcar denicheur de conseiller auto gris.svg"><metadata
     id="metadata89"><rdf:RDF><cc:Work
         rdf:about=""><dc:format>image/svg+xml</dc:format><dc:type
           rdf:resource="http://purl.org/dc/dcmitype/StillImage" /><dc:title></dc:title></cc:Work></rdf:RDF></metadata><defs
     id="defs87" /><sodipodi:namedview
     pagecolor="#ffffff"
     bordercolor="#666666"
     borderopacity="1"
     objecttolerance="10"
     gridtolerance="10"
     guidetolerance="10"
     inkscape:pageopacity="0"
     inkscape:pageshadow="2"
     inkscape:window-width="1633"
     inkscape:window-height="1026"
     id="namedview85"
     showgrid="false"
     inkscape:zoom="1.7998369"
     inkscape:cx="198.16037"
     inkscape:cy="100.22288"
     inkscape:window-x="1967"
     inkscape:window-y="38"
     inkscape:window-maximized="1"
     inkscape:current-layer="Calque_1" /><path
     d="m 57.704607,1.5692621 c 0.477595,-0.064543 0.851926,-0.1118738 1.12353,-0.1436011 0.269992,-0.031735 0.517394,-0.047874 0.740595,-0.047874 0.223199,0 0.318396,0.032265 0.287202,0.095735 -0.128542,0.4458625 -0.23826,0.892263 -0.333994,1.3375876 -0.09681,0.4480131 -0.208678,0.8938756 -0.336144,1.3397381 -0.286665,1.0525372 -0.573867,2.1039973 -0.861069,3.1565345 -0.286664,1.051998 -0.558269,2.103996 -0.812663,3.1565338 -0.382937,1.433857 -0.764797,2.852657 -1.147733,4.255322 -0.382398,1.402665 -0.750276,2.820927 -1.099866,4.255862 l -2.439066,9.180785 c -0.382398,1.403203 -0.757267,2.797801 -1.124068,4.183792 -0.366264,1.387606 -0.740594,2.781665 -1.123531,4.185943 -0.254932,1.018653 -0.517931,2.037306 -0.788461,3.059186 -0.271604,1.020805 -0.550201,2.039458 -0.837403,3.059186 -0.09574,0.415206 -0.191469,0.814277 -0.287202,1.197214 -0.09574,0.382398 -0.207065,0.780393 -0.335069,1.196137 -0.19093,0.28505 -0.477595,0.477057 -0.86053,0.573328 -0.159737,0.06293 -0.32754,0.12639 -0.502873,0.190393 -0.174258,0.06293 -0.357658,0.126928 -0.549665,0.191467 -0.796528,0.286127 -1.593594,0.549127 -2.390661,0.788999 -0.79599,0.238797 -1.609729,0.485124 -2.437452,0.742208 -0.829874,0.221049 -1.658673,0.419509 -2.487471,0.596456 -0.829336,0.175332 -1.658135,0.341523 -2.485858,0.501259 -0.51094,0.128542 -1.116001,0.192543 -1.817333,0.192543 -0.09573,0 -0.208141,-0.03281 -0.335607,-0.09627 -0.09412,-0.446939 -0.197921,-0.894414 -0.309791,-1.339739 -0.112405,-0.446938 -0.214595,-0.891725 -0.310329,-1.338125 -0.25547,-1.084806 -0.519544,-2.151327 -0.788999,-3.203325 -0.272143,-1.053074 -0.534066,-2.104535 -0.789536,-3.156533 -0.351204,-1.434397 -0.694341,-2.859651 -1.028335,-4.280064 -0.335068,-1.417186 -0.678205,-2.844053 -1.028872,-4.279526 -0.064,-0.126928 -0.103261,-0.254932 -0.1194,-0.38186 -0.01614,-0.128004 -0.03926,-0.254933 -0.071,-0.384012 -0.28774,1.021342 -0.566337,2.050214 -0.836329,3.084464 -0.272143,1.036939 -0.550739,2.08087 -0.837403,3.131793 -0.256008,1.021342 -0.519008,2.033004 -0.788999,3.03821 -0.271605,1.003056 -0.534605,2.01418 -0.788999,3.034447 -0.126928,0.415205 -0.238797,0.814276 -0.334532,1.197213 -0.09573,0.382398 -0.191467,0.780393 -0.286664,1.196137 -0.254932,0.28505 -0.54321,0.477057 -0.861067,0.573328 -0.191469,0.06293 -0.375407,0.126391 -0.550203,0.190393 -0.175871,0.06293 -0.343136,0.126928 -0.501797,0.191467 -0.797066,0.286127 -1.6022,0.549127 -2.413787,0.789 -0.814277,0.238798 -1.635547,0.485123 -2.463807,0.742207 -0.829337,0.221049 -1.648992,0.419509 -2.463807,0.596456 -0.811587,0.175332 -1.633395,0.341523 -2.461655,0.501259 -0.542134,0.128542 -1.163329,0.192543 -1.865199,0.192543 -0.06454,0 -0.159199,-0.03281 -0.287203,-0.09627 -0.09574,-0.446934 -0.199535,-0.869131 -0.309791,-1.267127 -0.111874,-0.399071 -0.215133,-0.82073 -0.310867,-1.266593 C 11.398379,45.130943 11.143447,44.086474 10.888515,43.05061 10.633045,42.014208 10.37865,40.971891 10.12318,39.920431 9.7725141,38.48442 9.4218473,37.066696 9.0722564,35.663493 8.7205149,34.26029 8.370924,32.842567 8.0197204,31.407632 7.6373225,29.876964 7.2624536,28.348447 6.8956529,26.815626 6.5293938,25.28656 6.1550629,23.740832 5.772665,22.177893 5.4214614,20.775766 5.0707946,19.38063 4.7195911,17.994101 4.3683863,16.606495 4.0182586,15.196839 3.6675918,13.761366 3.4121219,12.742176 3.1657949,11.713305 2.9259222,10.677441 2.6882013,9.6415764 2.4397225,8.6137805 2.1858664,7.5935136 2.0901328,7.1793834 1.9949359,6.7803124 1.8992022,6.3979145 1.8034685,6.0155166 1.7077337,5.6169836 1.612,5.2028533 1.8029306,4.9151132 2.0901328,4.7247206 2.4725307,4.6289869 L 3.4772004,4.1992595 C 4.3059988,3.9115194 5.1181241,3.6485192 5.9162661,3.4097224 6.7122575,3.1703877 7.5254587,2.9396578 8.3537191,2.7169949 9.1825174,2.4937953 10.004324,2.2861916 10.817525,2.0941864 c 0.812664,-0.1909306 1.633932,-0.3657261 2.463269,-0.5254611 0.31732,-0.064543 0.628725,-0.1118737 0.9326,-0.1436011 0.302261,-0.031735 0.613666,-0.047874 0.932062,-0.047874 0.126928,0.064 0.222662,0.095735 0.286664,0.095735 0.126928,0.4458625 0.238797,0.8761279 0.335069,1.2897201 0.09573,0.4152061 0.19093,0.8460094 0.28774,1.291872 0.254395,1.0213428 0.516856,2.0561297 0.788461,3.1086669 0.269991,1.0514601 0.532453,2.1034593 0.788461,3.1559958 0.350129,1.434397 0.693266,2.844591 1.028334,4.23112 0.334532,1.388144 0.676593,2.797801 1.028334,4.232735 0.06347,0.159736 0.103261,0.310867 0.119931,0.454467 0.0156,0.143601 0.0554,0.295271 0.1194,0.454469 0.254394,-1.020267 0.526537,-2.056669 0.813201,-3.108667 0.287739,-1.051461 0.557194,-2.102921 0.812664,-3.155458 0.286664,-1.019728 0.565798,-2.039457 0.836865,-3.060261 0.27053,-1.0197291 0.532991,-2.039996 0.789537,-3.059725 0.09574,-0.3829358 0.197922,-0.7734007 0.31033,-1.171397 0.110788,-0.399071 0.215132,-0.7889991 0.310866,-1.1724729 0.190393,-0.2872022 0.478131,-0.4775936 0.861069,-0.5733285 0.15866,-0.064 0.33453,-0.1355329 0.525999,-0.2156694 0.19093,-0.078523 0.365724,-0.1505934 0.525999,-0.2151327 0.796528,-0.2866642 1.593057,-0.5496643 2.391199,-0.7889991 0.796528,-0.239336 1.610267,-0.4695279 2.439066,-0.6927275 0.827723,-0.2226616 1.657596,-0.4313413 2.486396,-0.6222706 0.829336,-0.1909306 1.657059,-0.366264 2.487471,-0.5260002 0.317857,-0.064 0.628725,-0.1118738 0.931524,-0.1436011 0.302798,-0.031735 0.613128,-0.047861 0.932599,-0.047861 0.127466,0.064543 0.223201,0.095735 0.28774,0.095735 l 0,0.047331 c 0.09519,0.4474764 0.19846,0.892801 0.31033,1.3392014 0.111331,0.4474752 0.230729,0.8927998 0.359271,1.3386623 0.253857,1.0519992 0.508789,2.1039972 0.763721,3.1565344 0.254932,1.051998 0.509327,2.1195944 0.765871,3.2038619 0.350129,1.434397 0.700796,2.853196 1.052,4.255323 0.349591,1.403741 0.699718,2.822003 1.051998,4.256938 0.03173,0.159735 0.06293,0.310866 0.09574,0.454467 0.03173,0.143063 0.06346,0.294732 0.09573,0.454468 0.254932,-1.020267 0.517394,-2.031928 0.789537,-3.036598 0.269454,-1.004668 0.549664,-2.015792 0.83579,-3.036596 0.254933,-1.019729 0.517932,-2.039996 0.790075,-3.059725 0.269991,-1.0197271 0.533529,-2.0410699 0.788461,-3.0613368 0.12639,-0.381322 0.238797,-0.7723261 0.333994,-1.1708591 0.09628,-0.399071 0.207602,-0.7884611 0.335606,-1.171397 0.190931,-0.2877402 0.477595,-0.4781328 0.859455,-0.5738664 0.159198,-0.064 0.327539,-0.135533 0.503411,-0.2151327 0.175333,-0.078523 0.358196,-0.1511301 0.549664,-0.2145947 0.79707,-0.287739 1.594136,-0.5507378 2.390665,-0.7895346 0.797604,-0.239336 1.610268,-0.4700659 2.439066,-0.6927275 0.828798,-0.2232009 1.650068,-0.4308033 2.463269,-0.6228086 0.810511,-0.1920065 1.631243,-0.366802 2.460579,-0.5265382 z"
     id="path3"
     inkscape:connector-curvature="0"
     style="fill:#e20717" /><path
     d="m 88.537954,40.059717 c 0.108098,0.324313 0.209754,0.649701 0.304413,0.974013 0.09412,0.324851 0.208678,0.649163 0.344211,0.9724 -0.216207,0.271067 -0.459307,0.419508 -0.729837,0.447476 -0.161888,0.05378 -0.317858,0.115094 -0.467376,0.181249 -0.147365,0.06776 -0.288814,0.128542 -0.424887,0.183938 -0.703483,0.242563 -1.392984,0.465224 -2.067424,0.668526 -0.676592,0.202762 -1.365554,0.399071 -2.067963,0.588387 -1.405891,0.404988 -2.797799,0.729299 -4.176262,0.9724 -0.460921,0.108098 -0.986382,0.162425 -1.581224,0.162425 -0.0554,0 -0.136071,-0.02636 -0.243638,-0.08014 -0.02743,-0.02743 -0.04088,-0.06723 -0.04088,-0.12209 -0.162426,-0.459848 -0.324313,-0.926148 -0.4862,-1.398363 -0.162426,-0.47383 -0.324851,-0.953038 -0.4862,-1.439775 -0.299035,-0.946584 -0.608288,-1.871654 -0.9326,-2.7779 -0.324851,-0.906246 -0.635717,-1.833468 -0.933138,-2.777363 -0.05378,-0.135533 -0.09466,-0.25063 -0.121547,-0.345287 -0.02743,-0.09573 -0.0554,-0.209755 -0.08121,-0.345827 l -8.109963,0 c -0.243099,0.704022 -0.479745,1.393522 -0.709399,2.069039 -0.230192,0.674978 -0.452855,1.364479 -0.668526,2.067424 -0.136608,0.324313 -0.250629,0.649701 -0.344211,0.974013 -0.09574,0.32485 -0.197385,0.649163 -0.305489,0.9724 -0.216207,0.271067 -0.459308,0.419509 -0.729837,0.447476 -0.162425,0.05378 -0.317859,0.115094 -0.465762,0.181249 -0.14898,0.06776 -0.290429,0.128542 -0.425425,0.183938 -0.704021,0.242563 -1.392446,0.465224 -2.069038,0.668526 -0.674979,0.202762 -1.365017,0.399071 -2.066887,0.588387 -1.406429,0.404988 -2.798875,0.729299 -4.177338,0.9724 -0.378633,0.05486 -0.688424,0.09466 -0.931524,0.12262 -0.243638,0.02636 -0.460384,0.03981 -0.649163,0.03981 -0.189855,0 -0.270529,-0.02636 -0.244175,-0.08014 0,-0.02743 0.007,-0.04679 0.02043,-0.06131 0.01345,-0.01345 0.02043,-0.03388 0.02043,-0.06024 0.162963,-0.459845 0.32485,-0.926145 0.487276,-1.398361 0.161349,-0.47383 0.310328,-0.953037 0.445861,-1.439775 0.324313,-0.946584 0.641634,-1.871655 0.9525,-2.7779 0.310868,-0.906246 0.628725,-1.833468 0.953576,-2.777363 0.378095,-1.216037 0.769637,-2.419166 1.175699,-3.60885 0.405526,-1.190221 0.810513,-2.391736 1.216576,-3.60885 0.43134,-1.270895 0.857303,-2.535337 1.27735,-3.791174 0.417358,-1.25745 0.844395,-2.534263 1.27735,-3.832588 0.378096,-1.161178 0.763182,-2.311063 1.154186,-3.446963 0.392079,-1.135362 0.791688,-2.28417 1.197751,-3.445887 0.268915,-0.837942 0.539984,-1.668892 0.810513,-2.493925 0.269991,-0.823958 0.553429,-1.655984 0.851386,-2.4939249 0.107568,-0.3243129 0.215671,-0.6486246 0.323775,-0.9734754 0.108099,-0.3248496 0.217285,-0.6346413 0.324851,-0.9326002 0.162425,-0.2705291 0.405524,-0.431878 0.730375,-0.4861998 0.134458,-0.053784 0.276984,-0.1145635 0.425425,-0.1828624 0.14898,-0.067233 0.30495,-0.1280039 0.4663,-0.1823244 0.676055,-0.2431005 1.351571,-0.4668381 2.027625,-0.6690634 0.675517,-0.202762 1.363941,-0.398533 2.067963,-0.5873118 1.352107,-0.4060632 2.756924,-0.7298369 4.217137,-0.9729374 0.459308,-0.1081105 0.973474,-0.1624248 1.540888,-0.1624248 0.08067,0 0.175332,0.026355 0.283436,0.080669 0,0.054327 0.01291,0.095192 0.04033,0.12209 0.162426,0.4598459 0.316783,0.9326003 0.466838,1.4188 0.148442,0.4867377 0.302799,0.9605668 0.4663,1.4198746 0.296345,0.9465836 0.60775,1.8791838 0.931524,2.7972619 0.324313,0.919154 0.63518,1.838309 0.933139,2.757464 0.404987,1.216036 0.810511,2.418628 1.216036,3.608849 0.406602,1.190221 0.811051,2.392275 1.216575,3.608312 0.432417,1.297788 0.857842,2.568684 1.276275,3.811075 0.420046,1.244542 0.846009,2.513825 1.278425,3.811612 0.377559,1.16333 0.762645,2.311601 1.155263,3.446963 0.392079,1.134824 0.776091,2.28417 1.1558,3.446962 l 1.703312,4.985161 z M 73.21083,32.599456 c -0.189855,-0.539446 -0.37218,-1.074588 -0.54805,-1.602201 -0.17641,-0.526537 -0.358734,-1.060066 -0.548051,-1.601124 -0.297421,-0.918617 -0.601834,-1.838308 -0.911625,-2.758 -0.311404,-0.917541 -0.615279,-1.837771 -0.9127,-2.756388 -0.243099,0.704023 -0.4862,1.419338 -0.729299,2.149713 -0.243639,0.7293 -0.487276,1.446768 -0.728762,2.1481 -0.244714,0.730913 -0.487814,1.467205 -0.731989,2.210488 -0.242025,0.744358 -0.499645,1.480113 -0.7691,2.209412 l 5.879576,0 z"
     id="path5"
     inkscape:connector-curvature="0"
     style="fill:#e20717" /><path
     d="m 128.38321,7.8914725 c -0.0231,0 0.0474,-0.011228 0.21137,-0.034955 0.16511,-0.023665 0.34797,-0.047331 0.54858,-0.070996 0.20062,-0.022592 0.38885,-0.035498 0.56527,-0.035498 0.17748,0 0.26569,0.023665 0.26569,0.070453 l 0,32.3844535 c -0.14145,0.21298 -0.35444,0.352279 -0.6368,0.423273 -0.14037,0.04679 -0.27806,0.101114 -0.40606,0.159198 -0.13016,0.05862 -0.2544,0.111331 -0.37218,0.159736 -0.58732,0.211368 -1.18377,0.405525 -1.784,0.584085 -0.60236,0.175334 -1.20957,0.346902 -1.82055,0.511478 -0.61313,0.165115 -1.2198,0.318397 -1.82164,0.459308 -0.60021,0.141987 -1.20797,0.270529 -1.82001,0.388314 0.0231,0 -0.0474,0.01185 -0.21245,0.0355 -0.16458,0.02367 -0.34798,0.0484 -0.54859,0.07045 -0.19953,0.02421 -0.38778,0.04195 -0.56419,0.05271 -0.17747,0.01238 -0.26461,-0.0156 -0.26461,-0.08713 l 0,-11.348245 -1.16763,2.756386 -1.80281,4.137539 c -0.11882,0.259234 -0.22965,0.523309 -0.33614,0.794914 -0.10649,0.271067 -0.21837,0.535681 -0.33616,0.795453 -0.14198,0.212981 -0.35335,0.352818 -0.6357,0.423811 -0.23611,0.07207 -0.49535,0.165115 -0.77825,0.282362 -0.58946,0.212443 -1.1843,0.407676 -1.78559,0.584085 -0.60131,0.176408 -1.20852,0.359272 -1.82111,0.548051 -0.61366,0.165113 -1.2198,0.311942 -1.81948,0.441022 -0.60237,0.130154 -1.20851,0.253318 -1.82218,0.372717 -0.40068,0.09305 -0.86053,0.139835 -1.37846,0.139835 -0.0473,0 -0.11778,-0.02205 -0.2119,-0.06992 -0.0237,-0.04787 -0.0473,-0.100572 -0.0705,-0.158661 -0.0231,-0.06024 -0.0473,-0.112947 -0.0699,-0.159736 -0.21298,-0.471678 -0.41951,-0.948734 -0.61958,-1.432245 -0.19954,-0.481897 -0.40606,-0.960029 -0.61905,-1.431169 -0.35281,-0.825572 -0.70671,-1.655447 -1.05899,-2.49285 -0.35335,-0.836866 -0.72015,-1.667815 -1.09663,-2.493387 -0.0479,-0.140375 -0.0823,-0.234495 -0.1065,-0.282362 l 0,5.834935 c -0.14091,0.212981 -0.35228,0.352279 -0.63625,0.423273 -0.11833,0.04679 -0.24741,0.101114 -0.38885,0.159198 -0.14145,0.05862 -0.27107,0.111331 -0.38886,0.159736 -0.59,0.211369 -1.178924,0.405526 -1.768388,0.584086 -0.588925,0.175333 -1.19022,0.346901 -1.803348,0.511477 -0.612591,0.165115 -1.225181,0.318397 -1.837771,0.459308 -0.612591,0.141989 -1.225718,0.270529 -1.83777,0.388314 0.02259,0 -0.04786,0.01184 -0.212444,0.0355 -0.165115,0.02367 -0.347439,0.04841 -0.548051,0.07045 -0.200611,0.02421 -0.388852,0.04195 -0.566336,0.05271 -0.175333,0.01238 -0.264613,-0.0156 -0.264613,-0.08714 l 0,-32.383376 c 0.14145,-0.212444 0.35443,-0.353355 0.63733,-0.424887 0.117241,-0.04679 0.246865,-0.0995 0.388314,-0.1586602 0.141451,-0.05862 0.270529,-0.1118737 0.389928,-0.1591983 0.588926,-0.2119061 1.18323,-0.4055253 1.783987,-0.5830093 0.600759,-0.1764093 1.208508,-0.3463643 1.821099,-0.5125537 0.612052,-0.1640386 1.219801,-0.3178585 1.82056,-0.459309 0.600758,-0.1414493 1.207969,-0.2705291 1.820563,-0.3888522 0.23557,-0.047331 0.46576,-0.082286 0.69057,-0.1059513 0.2232,-0.022592 0.45232,-0.035498 0.68896,-0.035498 0.0941,0.047331 0.16458,0.070453 0.21191,0.070453 0.0237,0.070453 0.0473,0.1355341 0.0705,0.1946951 0.0231,0.05862 0.0473,0.1118737 0.071,0.1591982 0.21244,0.4716785 0.41789,0.9487354 0.61904,1.4311706 0.20008,0.4840481 0.4066,0.9611051 0.61905,1.4317071 0.35335,0.825572 0.70617,1.657059 1.06006,2.493387 0.35336,0.836328 0.71801,1.667278 1.09664,2.491774 0.44694,1.037477 0.8885,2.062584 1.32468,3.076397 0.43618,1.012737 0.87828,2.050214 1.32576,3.110818 0.47114,1.060604 0.92991,2.128199 1.37846,3.200098 0.44855,1.072435 0.90786,2.138956 1.37953,3.19956 l 0.42382,0.954651 c 0.0705,-0.189855 0.14683,-0.371104 0.22966,-0.548051 0.0828,-0.176408 0.15866,-0.35981 0.23019,-0.549126 0.4706,-1.083193 0.92938,-2.156704 1.37846,-3.216232 0.4464,-1.060605 0.90679,-2.13304 1.37954,-3.216772 0.42435,-0.966483 0.84224,-1.921135 1.25423,-2.86449 0.41304,-0.941743 0.81857,-1.896395 1.22087,-2.863416 l 1.80227,-4.136462 c 0.11783,-0.258697 0.22966,-0.523848 0.33561,-0.795453 0.10599,-0.269991 0.21782,-0.535142 0.33668,-0.794914 0.14038,-0.212445 0.35228,-0.353356 0.63572,-0.424887 0.11672,-0.04679 0.24686,-0.0995 0.38885,-0.1586609 0.14038,-0.05862 0.27054,-0.1118738 0.38832,-0.1591983 0.58839,-0.2119062 1.17838,-0.4055253 1.76784,-0.5830093 0.58947,-0.1764094 1.19023,-0.3463644 1.80282,-0.5125537 0.61259,-0.1640387 1.22572,-0.3178586 1.83885,-0.4593091 0.61205,-0.1425252 1.2241,-0.2716038 1.83777,-0.3899269 z"
     id="path7"
     inkscape:connector-curvature="0"
     style="fill:#e20717" /><path
     d="m 160.26048,37.479739 c 0.14361,0 0.20438,0.02635 0.18394,0.07745 -0.0205,0.05055 -0.0764,0.101645 -0.16887,0.15382 -0.0925,0.05164 -0.18448,0.09681 -0.27645,0.138761 -0.0925,0.04033 -0.12854,0.06131 -0.10808,0.06131 -0.65616,0.286664 -1.33167,0.54321 -2.02977,0.769099 -0.6965,0.224276 -1.39353,0.438871 -2.09056,0.64486 -0.98315,0.286127 -1.96255,0.552353 -2.93655,0.79868 -0.97348,0.246865 -1.96202,0.450703 -2.96723,0.615818 -0.75834,0.102731 -1.51561,0.185013 -2.27502,0.246326 -0.75727,0.06131 -1.51615,0.05002 -2.27503,-0.03173 -1.66029,-0.165653 -3.23345,-0.604523 -4.72055,-1.322528 -1.48495,-0.717468 -2.79134,-1.690943 -3.91972,-2.919351 -1.08642,-1.169783 -1.95178,-2.482092 -2.59826,-3.936926 -0.6454,-1.454297 -1.05038,-2.982277 -1.21335,-4.581249 -0.16457,-1.598436 -0.0516,-3.181275 0.33775,-4.750129 0.38887,-1.567779 1.0149,-3.027454 1.87597,-4.381176 0.43026,-0.676054 0.91646,-1.321452 1.45806,-1.936732 0.54321,-0.614742 1.13321,-1.169246 1.77054,-1.660286 0.9213,-0.717467 1.90016,-1.312309 2.93549,-1.782911 1.03478,-0.471679 2.10614,-0.881507 3.21246,-1.230022 1.35319,-0.410903 2.7096,-0.788999 4.073,-1.13859 1.36448,-0.348515 2.75262,-0.624959 4.16658,-0.829336 0.47168,-0.06131 0.9482,-0.108098 1.43009,-0.138759 0.48137,-0.03066 0.95843,-0.0355 1.4301,-0.01505 0.86107,0.02097 1.69632,0.123163 2.50414,0.307638 0.80998,0.184476 1.60436,0.441022 2.38367,0.768562 -0.12314,0.184476 -0.30602,0.307102 -0.55343,0.36949 -0.10266,0.04141 -0.20974,0.08821 -0.32269,0.137685 -0.1129,0.05217 -0.23073,0.09735 -0.3539,0.138223 -0.51255,0.184476 -1.02564,0.353355 -1.53712,0.507175 -0.51256,0.15382 -1.03586,0.302799 -1.56778,0.4464 -0.53353,0.143064 -1.06221,0.276984 -1.58338,0.399609 -0.52277,0.123164 -1.05092,0.235571 -1.58391,0.337759 -0.20438,0.04141 -0.40499,0.07153 -0.59914,0.0925 -0.19416,0.02043 -0.39477,0.03066 -0.59915,0.03066 -0.0823,-0.04088 -0.1436,-0.06185 -0.18556,-0.06185 -0.14305,-0.06131 -0.28128,-0.117784 -0.41466,-0.168879 -0.13338,-0.05109 -0.26139,-0.09681 -0.38455,-0.138761 -1.04446,-0.347977 -2.09001,-0.553429 -3.1361,-0.614203 -0.86107,0.594304 -1.65006,1.291333 -2.36699,2.090551 -0.94282,1.106857 -1.70654,2.31644 -2.29063,3.628212 -0.58354,1.31177 -0.96864,2.675174 -1.15418,4.089133 -0.20438,1.598436 -0.13769,3.181274 0.20061,4.750667 0.33883,1.568316 0.91862,3.049505 1.7372,4.443565 0.40982,0.676054 0.86537,1.316611 1.36824,1.919519 0.50126,0.606675 1.04984,1.154188 1.64468,1.646304 1.23057,1.045543 2.61334,1.834005 4.15153,2.366996 0.71692,0.224277 1.43924,0.399071 2.168,0.521696 0.72661,0.12424 1.45968,0.175334 2.19704,0.154896 0.47168,-0.143601 0.9482,-0.271067 1.42902,-0.38455 0.48189,-0.111873 0.96971,-0.219973 1.46075,-0.322161 0.5131,-0.123701 1.05577,-0.214594 1.63071,-0.278058 0.10377,-0.0199 0.25762,-0.03012 0.46307,-0.03012 z"
     id="path9"
     inkscape:connector-curvature="0"
     style="fill:#e20717" /><path
     d="m 180.31353,36.250257 c 0.0748,0.223737 0.14468,0.448013 0.2103,0.671213 0.065,0.224276 0.14468,0.448014 0.23718,0.671752 -0.1479,0.18609 -0.31785,0.288816 -0.50341,0.307639 -0.11191,0.03712 -0.21997,0.07852 -0.32162,0.125316 -0.10377,0.04679 -0.20008,0.08874 -0.29473,0.125852 -0.48513,0.168341 -0.96057,0.322161 -1.42687,0.461997 -0.4663,0.140374 -0.94175,0.273756 -1.42687,0.405526 -0.97078,0.28021 -1.93082,0.503947 -2.88278,0.672288 -0.31785,0.07369 -0.68196,0.111874 -1.09126,0.111874 -0.0381,0 -0.0941,-0.0199 -0.16834,-0.05647 -0.0194,-0.01774 -0.028,-0.04679 -0.028,-0.08336 -0.11241,-0.316782 -0.22321,-0.638943 -0.33615,-0.967021 -0.1113,-0.325389 -0.22374,-0.656693 -0.33507,-0.9923 -0.20599,-0.653465 -0.42058,-1.291871 -0.64325,-1.917369 -0.2248,-0.625499 -0.43941,-1.26498 -0.64486,-1.916831 -0.036,-0.09412 -0.0656,-0.172645 -0.0834,-0.237723 -0.0183,-0.06562 -0.0371,-0.145215 -0.0559,-0.238258 l -5.59776,0 c -0.1678,0.485123 -0.33184,0.959491 -0.49049,1.428479 -0.15867,0.465226 -0.31195,0.941207 -0.46039,1.427406 -0.0946,0.223738 -0.17319,0.448013 -0.2388,0.671213 -0.0656,0.224277 -0.13553,0.448014 -0.20976,0.671752 -0.14952,0.18609 -0.31678,0.288816 -0.50449,0.30764 -0.11129,0.03711 -0.21889,0.07852 -0.32161,0.125315 -0.10278,0.04679 -0.20061,0.08874 -0.29366,0.125852 -0.48513,0.168341 -0.96164,0.322161 -1.42741,0.461998 -0.4663,0.140373 -0.94227,0.273756 -1.4274,0.405525 -0.97079,0.28021 -1.93188,0.503948 -2.88278,0.672289 -0.26085,0.03711 -0.47597,0.06507 -0.64378,0.08336 -0.16834,0.01883 -0.31732,0.0285 -0.44801,0.0285 -0.13123,0 -0.18609,-0.0199 -0.16781,-0.05647 0,-0.01774 0.002,-0.03281 0.014,-0.04195 0.01,-0.0096 0.0129,-0.02259 0.0129,-0.04141 0.11191,-0.316782 0.22374,-0.638943 0.33669,-0.967021 0.11191,-0.325389 0.21351,-0.656693 0.3071,-0.9923 0.22374,-0.653465 0.44371,-1.291871 0.6583,-1.917369 0.21514,-0.625499 0.43349,-1.26498 0.65724,-1.916831 0.26138,-0.840631 0.53299,-1.66943 0.81212,-2.490699 0.28076,-0.821806 0.55935,-1.651143 0.8401,-2.491774 0.29849,-0.87559 0.59215,-1.74849 0.88096,-2.616551 0.28882,-0.867521 0.58355,-1.749028 0.88312,-2.645055 0.25978,-0.800831 0.52601,-1.595208 0.796,-2.378291 0.27052,-0.783083 0.54644,-1.576384 0.8261,-2.379367 0.18609,-0.578706 0.37325,-1.151498 0.56042,-1.721061 0.18502,-0.569564 0.38132,-1.142892 0.58677,-1.722137 0.0743,-0.223738 0.14952,-0.448013 0.22375,-0.671752 0.0743,-0.223738 0.14952,-0.438333 0.22481,-0.643784 0.1108,-0.186089 0.27968,-0.298496 0.50341,-0.335607 0.0925,-0.03764 0.1904,-0.0796 0.29366,-0.125853 0.10216,-0.04679 0.20975,-0.08821 0.32162,-0.125852 0.46576,-0.167803 0.93314,-0.322161 1.39998,-0.46146 0.46575,-0.140911 0.94174,-0.275369 1.42687,-0.4066 0.93312,-0.279673 1.90338,-0.503411 2.91019,-0.671214 0.31733,-0.07422 0.67229,-0.111874 1.06438,-0.111874 0.0554,0 0.12153,0.01883 0.19523,0.05593 0,0.03712 0.009,0.06562 0.0285,0.0839 0.1113,0.317859 0.21944,0.643247 0.32109,0.979391 0.10377,0.336144 0.21137,0.662608 0.32323,0.979392 0.20492,0.652927 0.42006,1.297249 0.64379,1.93189 0.22428,0.634641 0.43725,1.268207 0.64379,1.902848 0.27913,0.840093 0.55987,1.669967 0.83955,2.492311 0.28021,0.819656 0.56042,1.650606 0.83956,2.490161 0.29849,0.896028 0.5916,1.773231 0.88257,2.631072 0.28882,0.857841 0.58301,1.735583 0.88098,2.631072 0.2603,0.802445 0.52653,1.596284 0.79707,2.379905 0.27106,0.783083 0.53675,1.576922 0.7976,2.378829 l 1.17569,3.442123 z m -10.58022,-5.150814 c -0.13176,-0.372179 -0.25654,-0.741669 -0.37756,-1.105243 -0.12153,-0.364113 -0.24794,-0.731989 -0.37756,-1.10632 -0.20652,-0.634103 -0.4152,-1.267131 -0.62979,-1.90231 -0.21567,-0.634641 -0.42435,-1.269283 -0.62927,-1.904462 -0.16834,0.485662 -0.33561,0.980467 -0.50449,1.484415 -0.16672,0.503411 -0.33559,0.99714 -0.5034,1.482802 -0.1678,0.503411 -0.33561,1.012198 -0.50341,1.524752 -0.16835,0.515244 -0.34637,1.021881 -0.53192,1.526366 l 4.0574,0 z"
     id="path11"
     inkscape:connector-curvature="0"
     style="fill:#e20717" /><path
     d="m 205.32809,36.685901 c 0.0162,0.03281 -0.0205,0.07422 -0.11081,0.123163 -0.0909,0.04948 -0.1963,0.09842 -0.32054,0.147367 -0.12264,0.04948 -0.24095,0.09895 -0.35604,0.147903 -0.11561,0.0484 -0.18018,0.07369 -0.19631,0.07369 -0.41036,0.146829 -0.81966,0.282362 -1.22948,0.405526 -0.41037,0.123701 -0.82827,0.249553 -1.25316,0.381861 -0.42811,0.11402 -0.85407,0.216207 -1.28004,0.307102 -0.42649,0.08981 -0.85246,0.176408 -1.27895,0.25762 -0.27861,0.06507 -0.59861,0.09842 -0.95895,0.09842 -0.0328,0 -0.0823,-0.01667 -0.14738,-0.04948 l -0.44209,-0.516318 -2.87847,-3.320035 c -0.22913,-0.246327 -0.44587,-0.487276 -0.65186,-0.72661 -0.20438,-0.236109 -0.41413,-0.47867 -0.62658,-0.724459 -0.32807,0.08067 -0.65615,0.152206 -0.98315,0.208678 -0.32861,0.05755 -0.65669,0.119401 -0.98369,0.185015 -0.18018,0.03388 -0.35712,0.06131 -0.52924,0.08605 -0.17264,0.02474 -0.34742,0.05324 -0.5276,0.08552 l 0,2.852659 c -0.10007,0.147904 -0.2474,0.246327 -0.44318,0.295807 -0.0823,0.03335 -0.17157,0.06938 -0.26998,0.111331 -0.10007,0.04033 -0.18932,0.07745 -0.27161,0.109715 -0.40982,0.148441 -0.81966,0.282362 -1.22894,0.405525 -0.40983,0.123164 -0.82881,0.242561 -1.25423,0.357658 -0.42704,0.113478 -0.85353,0.221587 -1.2795,0.319471 -0.42651,0.09842 -0.85247,0.188242 -1.27842,0.269993 0.0151,0 -0.0328,0.0091 -0.14792,0.02528 -0.1145,0.01614 -0.24202,0.03281 -0.38078,0.0484 -0.13983,0.01614 -0.27052,0.02474 -0.39423,0.02474 -0.12215,0 -0.18447,-0.0156 -0.18447,-0.04895 l 0,-21.174429 c 0,-0.03281 0.0339,-0.06884 0.0985,-0.110257 0.0656,-0.04088 0.11561,-0.06992 0.14683,-0.08605 0.14843,-0.09896 0.28666,-0.180173 0.41897,-0.245251 0.52492,-0.279134 1.06545,-0.532991 1.6237,-0.762645 0.55774,-0.229654 1.12354,-0.434568 1.69687,-0.615817 1.09825,-0.32754 2.20134,-0.634642 3.30767,-0.921843 1.10578,-0.286127 2.22608,-0.495344 3.35606,-0.627112 0.73737,-0.09843 1.47151,-0.13123 2.20188,-0.09843 0.72823,0.03227 1.44677,0.147367 2.15079,0.344213 1.21335,0.344212 2.33204,0.898179 3.35768,1.659748 1.02403,0.762646 1.84853,1.701161 2.4708,2.816087 0.3453,0.623346 0.60775,1.270357 0.78793,1.942647 0.18071,0.672828 0.28236,1.352647 0.30709,2.041071 0.0237,0.688425 -0.0419,1.377386 -0.1963,2.065273 -0.15705,0.6895 -0.38993,1.346193 -0.70133,1.968464 -0.29473,0.606136 -0.661,1.1757 -1.09395,1.709228 -0.43619,0.532454 -0.91485,1.012738 -1.44031,1.4387 -0.24471,0.195233 -0.4948,0.375407 -0.74974,0.539983 -0.25386,0.165115 -0.51954,0.319472 -0.79815,0.467913 0.0317,0.03281 0.057,0.06454 0.0743,0.09735 0.0151,0.03281 0.0399,0.06723 0.0732,0.0995 0.47544,0.539983 0.95572,1.086959 1.43923,1.635546 0.48351,0.548588 0.96326,1.102017 1.43817,1.659748 l 1.91791,2.213716 z m -14.70594,-6.172693 c 0.31141,0.181248 0.62658,0.349589 0.94712,0.505023 0.31948,0.155434 0.65132,0.289891 0.99499,0.403911 0.3114,0.116711 0.62442,0.206528 0.93529,0.271067 0.31087,0.06562 0.63088,0.123702 0.95842,0.172644 0.0817,-0.03281 0.16027,-0.05593 0.23341,-0.07261 0.0748,-0.01721 0.15221,-0.04141 0.23558,-0.07638 0.44102,-0.359808 0.83632,-0.736291 1.18,-1.13106 0.17856,-0.212443 0.35659,-0.43403 0.52868,-0.663146 0.17104,-0.230192 0.32325,-0.467914 0.4534,-0.713165 0.69004,-1.164404 1.07513,-2.451974 1.15687,-3.861092 0.0333,-0.721232 -0.0205,-1.438161 -0.16081,-2.151865 -0.1393,-0.713165 -0.37271,-1.389219 -0.70025,-2.028701 -0.54052,-1.114924 -1.28273,-2.073877 -2.22501,-2.877399 -0.94443,-0.802982 -1.99697,-1.410194 -3.16084,-1.820021 -0.23019,-0.08176 -0.46414,-0.150594 -0.70187,-0.208679 -0.23664,-0.05702 -0.4792,-0.102188 -0.72446,-0.135534 l 0,14.362255 c 0.0328,0 0.0495,0.0086 0.0495,0.02474 z"
     id="path13"
     inkscape:connector-curvature="0"
     style="fill:#e20717" /><g
     id="g15"
     transform="matrix(0.53783158,0,0,0.53783158,-4.6333003,-4.3700117)"><rect
       x="405.93399"
       y="26.618"
       width="1.938"
       height="60.91"
       id="rect17"
       style="fill:#706f6f" /><g
       id="g19"><path
         d="m 424.699,52.915 0,-20.414 4.231,0 c 3.054,0 5.271,0.245 6.647,0.735 1.979,0.695 3.527,1.896 4.642,3.608 1.116,1.712 1.672,3.751 1.672,6.12 0,2.044 -0.44,3.844 -1.324,5.397 -0.887,1.555 -2.031,2.701 -3.443,3.442 -1.41,0.739 -3.386,1.111 -5.93,1.111 l -6.495,0 z m 1.957,-1.93 2.358,0 c 2.821,0 4.777,-0.176 5.871,-0.528 1.536,-0.499 2.743,-1.396 3.62,-2.696 0.879,-1.298 1.319,-2.886 1.319,-4.762 0,-1.969 -0.476,-3.651 -1.429,-5.047 -0.954,-1.396 -2.281,-2.353 -3.983,-2.87 -1.277,-0.389 -3.381,-0.583 -6.314,-0.583 l -1.442,0 0,16.486 z"
         id="path21"
         inkscape:connector-curvature="0"
         style="fill:#706f6f" /><path
         d="m 445.861,32.501 11.698,0 0,1.999 -9.657,0 0,6.398 9.573,0 0,1.997 -9.573,0 0,8.022 9.573,0 0,1.999 -11.614,0 0,-20.415 z m 6.909,-5.883 2.984,0 -4.093,4.274 -1.917,0 3.026,-4.274 z"
         id="path23"
         inkscape:connector-curvature="0"
         style="fill:#706f6f" /><path
         d="m 461.095,52.915 0,-20.414 0.445,0 13.586,15.647 0,-15.647 2.013,0 0,20.414 -0.458,0 -13.475,-15.458 0,15.458 -2.111,0 z"
         id="path25"
         inkscape:connector-curvature="0"
         style="fill:#706f6f" /><path
         d="m 481.814,32.501 2.038,0 0,20.414 -2.038,0 0,-20.414 z"
         id="path27"
         inkscape:connector-curvature="0"
         style="fill:#706f6f" /><path
         d="m 507.54,36.29 -1.606,1.235 c -0.89,-1.156 -1.957,-2.033 -3.2,-2.63 -1.244,-0.596 -2.61,-0.894 -4.102,-0.894 -1.626,0 -3.135,0.39 -4.523,1.171 -1.388,0.782 -2.464,1.833 -3.227,3.15 -0.76,1.318 -1.143,2.801 -1.143,4.447 0,2.489 0.851,4.565 2.557,6.231 1.71,1.664 3.862,2.496 6.462,2.496 2.859,0 5.25,-1.119 7.176,-3.357 l 1.606,1.221 c -1.018,1.296 -2.288,2.297 -3.808,3.005 -1.522,0.707 -3.22,1.061 -5.101,1.061 -3.569,0 -6.389,-1.189 -8.449,-3.567 -1.729,-2.006 -2.597,-4.43 -2.597,-7.271 0,-2.988 1.048,-5.501 3.145,-7.542 2.096,-2.039 4.72,-3.06 7.876,-3.06 1.906,0 3.623,0.377 5.159,1.131 1.536,0.756 2.795,1.813 3.775,3.173 z"
         id="path29"
         inkscape:connector-curvature="0"
         style="fill:#706f6f" /><path
         d="m 511.607,32.501 2.039,0 0,8.563 10.395,0 0,-8.563 2.039,0 0,20.414 -2.039,0 0,-9.854 -10.395,0 0,9.854 -2.039,0 0,-20.414 z"
         id="path31"
         inkscape:connector-curvature="0"
         style="fill:#706f6f" /><path
         d="m 531.062,32.501 11.695,0 0,1.999 -9.656,0 0,6.398 9.572,0 0,1.997 -9.572,0 0,8.022 9.572,0 0,1.999 -11.611,0 0,-20.415 z"
         id="path33"
         inkscape:connector-curvature="0"
         style="fill:#706f6f" /><path
         d="m 546.351,32.501 2.043,0 0,12.322 c 0,1.462 0.026,2.374 0.084,2.733 0.101,0.805 0.335,1.477 0.707,2.02 0.369,0.54 0.938,0.994 1.705,1.359 0.769,0.366 1.54,0.548 2.318,0.548 0.675,0 1.32,-0.144 1.941,-0.43 0.62,-0.287 1.139,-0.686 1.555,-1.194 0.416,-0.509 0.723,-1.123 0.915,-1.846 0.14,-0.518 0.208,-1.582 0.208,-3.191 l 0,-12.321 2.039,0 0,12.322 c 0,1.822 -0.178,3.296 -0.533,4.421 -0.355,1.123 -1.066,2.101 -2.139,2.935 -1.064,0.832 -2.359,1.248 -3.876,1.248 -1.646,0 -3.056,-0.393 -4.232,-1.179 -1.174,-0.786 -1.959,-1.827 -2.36,-3.123 -0.25,-0.795 -0.375,-2.229 -0.375,-4.301 l 0,-12.323 z"
         id="path35"
         inkscape:connector-curvature="0"
         style="fill:#706f6f" /><path
         d="m 565.003,32.501 4.066,0 c 2.266,0 3.802,0.092 4.604,0.278 1.214,0.278 2.196,0.873 2.957,1.786 0.757,0.911 1.139,2.035 1.139,3.369 0,1.112 -0.265,2.089 -0.785,2.931 -0.523,0.843 -1.268,1.48 -2.241,1.911 -0.972,0.432 -2.314,0.651 -4.023,0.661 l 7.343,9.479 -2.524,0 -7.342,-9.479 -1.154,0 0,9.479 -2.039,0 0,-20.415 z m 2.039,1.999 0,6.938 3.514,0.027 c 1.363,0 2.372,-0.129 3.027,-0.389 0.65,-0.258 1.16,-0.672 1.527,-1.241 0.367,-0.569 0.549,-1.205 0.549,-1.908 0,-0.684 -0.186,-1.306 -0.556,-1.866 -0.37,-0.56 -0.858,-0.959 -1.46,-1.2 C 573.04,34.62 572.039,34.5 570.642,34.5 l -3.6,0 z"
         id="path37"
         inkscape:connector-curvature="0"
         style="fill:#706f6f" /><path
         d="m 590.006,52.915 0,-20.414 4.233,0 c 3.055,0 5.27,0.245 6.646,0.735 1.981,0.695 3.527,1.896 4.644,3.608 1.115,1.712 1.671,3.751 1.671,6.12 0,2.044 -0.441,3.844 -1.323,5.397 -0.886,1.555 -2.032,2.701 -3.442,3.442 -1.411,0.739 -3.39,1.111 -5.931,1.111 l -6.498,0 z m 1.957,-1.93 2.359,0 c 2.823,0 4.778,-0.176 5.873,-0.528 1.534,-0.499 2.741,-1.396 3.618,-2.696 0.879,-1.298 1.316,-2.886 1.316,-4.762 0,-1.969 -0.472,-3.651 -1.426,-5.047 -0.952,-1.396 -2.28,-2.353 -3.983,-2.87 -1.278,-0.389 -3.382,-0.583 -6.313,-0.583 l -1.444,0 0,16.486 z"
         id="path39"
         inkscape:connector-curvature="0"
         style="fill:#706f6f" /><path
         d="m 611.167,32.501 11.701,0 0,1.999 -9.661,0 0,6.398 9.578,0 0,1.997 -9.578,0 0,8.022 9.578,0 0,1.999 -11.618,0 0,-20.415 z"
         id="path41"
         inkscape:connector-curvature="0"
         style="fill:#706f6f" /><path
         d="m 443.71,70.393 -1.611,1.233 c -0.888,-1.155 -1.951,-2.031 -3.196,-2.63 -1.245,-0.597 -2.612,-0.894 -4.101,-0.894 -1.63,0 -3.136,0.392 -4.524,1.172 -1.389,0.781 -2.463,1.831 -3.226,3.149 -0.766,1.318 -1.146,2.801 -1.146,4.448 0,2.489 0.854,4.565 2.56,6.229 1.706,1.665 3.86,2.498 6.461,2.498 2.858,0 5.248,-1.12 7.173,-3.357 l 1.611,1.221 c -1.018,1.297 -2.289,2.298 -3.809,3.004 -1.523,0.709 -3.225,1.061 -5.1,1.061 -3.571,0 -6.389,-1.188 -8.45,-3.565 -1.731,-2.006 -2.597,-4.43 -2.597,-7.271 0,-2.986 1.049,-5.499 3.145,-7.539 2.094,-2.043 4.719,-3.063 7.875,-3.063 1.902,0 3.625,0.379 5.159,1.133 1.536,0.754 2.795,1.81 3.776,3.171 z"
         id="path43"
         inkscape:connector-curvature="0"
         style="fill:#706f6f" /><path
         d="m 457.524,66.089 c 3.091,0 5.678,1.032 7.761,3.095 2.084,2.063 3.125,4.602 3.125,7.62 0,2.987 -1.038,5.521 -3.119,7.604 -2.076,2.08 -4.611,3.119 -7.6,3.119 -3.03,0 -5.583,-1.035 -7.665,-3.105 -2.083,-2.074 -3.124,-4.579 -3.124,-7.521 0,-1.96 0.474,-3.78 1.42,-5.454 0.953,-1.673 2.244,-2.986 3.883,-3.935 1.639,-0.947 3.41,-1.423 5.319,-1.423 z m 0.09,1.986 c -1.513,0 -2.941,0.393 -4.295,1.18 -1.354,0.79 -2.41,1.848 -3.169,3.182 -0.762,1.331 -1.141,2.818 -1.141,4.456 0,2.429 0.844,4.475 2.524,6.147 1.682,1.672 3.705,2.505 6.08,2.505 1.583,0 3.052,-0.383 4.397,-1.151 1.351,-0.768 2.402,-1.82 3.154,-3.153 0.758,-1.334 1.136,-2.813 1.136,-4.442 0,-1.621 -0.378,-3.087 -1.136,-4.396 -0.752,-1.313 -1.815,-2.357 -3.188,-3.147 -1.371,-0.789 -2.824,-1.181 -4.362,-1.181 z"
         id="path45"
         inkscape:connector-curvature="0"
         style="fill:#706f6f" /><path
         d="m 472.516,87.016 0,-20.413 0.446,0 13.584,15.647 0,-15.647 2.013,0 0,20.413 -0.458,0 -13.475,-15.457 0,15.457 -2.11,0 z"
         id="path47"
         inkscape:connector-curvature="0"
         style="fill:#706f6f" /><path
         d="m 491.418,83.211 1.732,-1.039 c 1.222,2.25 2.634,3.372 4.232,3.372 0.684,0 1.327,-0.159 1.93,-0.478 0.602,-0.32 1.059,-0.748 1.373,-1.283 0.314,-0.537 0.473,-1.106 0.473,-1.707 0,-0.687 -0.229,-1.356 -0.694,-2.014 -0.638,-0.905 -1.807,-1.998 -3.497,-3.274 -1.702,-1.284 -2.762,-2.215 -3.178,-2.788 -0.723,-0.964 -1.081,-2.003 -1.081,-3.123 0,-0.889 0.212,-1.699 0.635,-2.429 0.428,-0.73 1.025,-1.305 1.798,-1.727 0.775,-0.422 1.615,-0.633 2.519,-0.633 0.966,0 1.86,0.24 2.701,0.717 0.836,0.477 1.721,1.352 2.655,2.628 l -1.665,1.264 c -0.767,-1.019 -1.421,-1.689 -1.963,-2.013 -0.54,-0.323 -1.13,-0.486 -1.77,-0.486 -0.821,0 -1.495,0.25 -2.017,0.749 -0.526,0.5 -0.787,1.116 -0.787,1.847 0,0.444 0.095,0.873 0.279,1.29 0.187,0.416 0.523,0.869 1.011,1.362 0.268,0.258 1.15,0.937 2.637,2.038 1.771,1.304 2.98,2.467 3.64,3.484 0.653,1.016 0.983,2.039 0.983,3.064 0,1.482 -0.564,2.769 -1.688,3.858 -1.123,1.092 -2.489,1.636 -4.101,1.636 -1.236,0 -2.364,-0.328 -3.371,-0.99 -1.007,-0.661 -1.934,-1.769 -2.786,-3.325 z"
         id="path49"
         inkscape:connector-curvature="0"
         style="fill:#706f6f" /><path
         d="m 507.692,66.603 11.699,0 0,1.999 -9.657,0 0,6.396 9.574,0 0,2 -9.574,0 0,8.021 9.574,0 0,1.998 -11.616,0 0,-20.414 z"
         id="path51"
         inkscape:connector-curvature="0"
         style="fill:#706f6f" /><path
         d="m 522.626,66.603 2.039,0 0,20.413 -2.039,0 0,-20.413 z"
         id="path53"
         inkscape:connector-curvature="0"
         style="fill:#706f6f" /><path
         d="m 529.34,66.603 2.038,0 0,18.441 7.857,0 0,1.972 -9.896,0 0,-20.413 z"
         id="path55"
         inkscape:connector-curvature="0"
         style="fill:#706f6f" /><path
         d="m 542.466,66.603 2.044,0 0,18.441 7.852,0 0,1.972 -9.896,0 0,-20.413 z"
         id="path57"
         inkscape:connector-curvature="0"
         style="fill:#706f6f" /><path
         d="m 555.608,66.603 11.699,0 0,1.999 -9.661,0 0,6.396 9.577,0 0,2 -9.577,0 0,8.021 9.577,0 0,1.998 -11.615,0 0,-20.414 z"
         id="path59"
         inkscape:connector-curvature="0"
         style="fill:#706f6f" /><path
         d="m 570.943,66.603 4.065,0 c 2.267,0 3.803,0.095 4.604,0.277 1.214,0.277 2.197,0.875 2.958,1.786 0.758,0.914 1.139,2.036 1.139,3.37 0,1.109 -0.261,2.088 -0.786,2.93 -0.522,0.844 -1.268,1.483 -2.24,1.91 -0.972,0.434 -2.311,0.652 -4.024,0.663 l 7.341,9.477 -2.521,0 -7.343,-9.477 -1.154,0 0,9.477 -2.038,0 0,-20.413 z m 2.038,1.999 0,6.938 3.515,0.027 c 1.362,0 2.372,-0.129 3.027,-0.39 0.65,-0.256 1.16,-0.671 1.526,-1.241 0.367,-0.568 0.55,-1.203 0.55,-1.908 0,-0.685 -0.187,-1.308 -0.556,-1.867 -0.372,-0.559 -0.86,-0.959 -1.461,-1.197 -0.602,-0.244 -1.604,-0.362 -3,-0.362 l -3.601,0 z"
         id="path61"
         inkscape:connector-curvature="0"
         style="fill:#706f6f" /><path
         d="m 585.972,83.211 1.731,-1.039 c 1.222,2.25 2.634,3.372 4.232,3.372 0.687,0 1.33,-0.159 1.93,-0.478 0.602,-0.32 1.06,-0.748 1.374,-1.283 0.313,-0.537 0.472,-1.106 0.472,-1.707 0,-0.687 -0.23,-1.356 -0.694,-2.014 -0.636,-0.905 -1.806,-1.998 -3.497,-3.274 -1.702,-1.284 -2.762,-2.215 -3.178,-2.788 -0.722,-0.964 -1.081,-2.003 -1.081,-3.123 0,-0.889 0.212,-1.699 0.635,-2.429 0.428,-0.73 1.025,-1.305 1.798,-1.727 0.775,-0.422 1.615,-0.633 2.519,-0.633 0.966,0 1.861,0.24 2.701,0.717 0.837,0.477 1.721,1.352 2.655,2.628 l -1.664,1.264 c -0.768,-1.019 -1.423,-1.689 -1.963,-2.013 -0.541,-0.323 -1.131,-0.486 -1.771,-0.486 -0.821,0 -1.493,0.25 -2.017,0.749 -0.525,0.5 -0.787,1.116 -0.787,1.847 0,0.444 0.095,0.873 0.281,1.29 0.186,0.416 0.521,0.869 1.009,1.362 0.27,0.258 1.15,0.937 2.639,2.038 1.769,1.304 2.979,2.467 3.638,3.484 0.654,1.016 0.983,2.039 0.983,3.064 0,1.482 -0.563,2.769 -1.688,3.858 -1.123,1.092 -2.487,1.636 -4.101,1.636 -1.236,0 -2.364,-0.328 -3.371,-0.99 -1.007,-0.661 -1.934,-1.769 -2.785,-3.325 z"
         id="path63"
         inkscape:connector-curvature="0"
         style="fill:#706f6f" /><path
         d="m 618.439,66.603 9.521,20.413 -2.206,0 -3.208,-6.716 -8.795,0 -3.181,6.716 -2.274,0 9.643,-20.413 0.5,0 z m -0.254,4.336 -3.498,7.391 6.979,0 -3.481,-7.391 z"
         id="path65"
         inkscape:connector-curvature="0"
         style="fill:#706f6f" /><path
         d="m 631.193,66.603 2.04,0 0,12.324 c 0,1.46 0.026,2.371 0.083,2.732 0.103,0.804 0.337,1.478 0.707,2.019 0.371,0.54 0.938,0.995 1.706,1.361 0.769,0.364 1.54,0.547 2.319,0.547 0.674,0 1.321,-0.144 1.941,-0.429 0.62,-0.288 1.139,-0.686 1.553,-1.195 0.418,-0.507 0.724,-1.125 0.917,-1.844 0.141,-0.52 0.208,-1.584 0.208,-3.191 l 0,-12.324 2.043,0 0,12.324 c 0,1.821 -0.183,3.294 -0.538,4.418 -0.354,1.124 -1.065,2.103 -2.137,2.935 -1.067,0.832 -2.359,1.248 -3.878,1.248 -1.646,0 -3.057,-0.392 -4.232,-1.179 -1.172,-0.785 -1.959,-1.826 -2.357,-3.121 -0.249,-0.797 -0.375,-2.229 -0.375,-4.301 l 0,-12.324 z"
         id="path67"
         inkscape:connector-curvature="0"
         style="fill:#706f6f" /><path
         d="m 647.706,68.602 0,-1.999 11.186,0 0,1.999 -4.554,0 0,18.414 -2.08,0 0,-18.414 -4.552,0 z"
         id="path69"
         inkscape:connector-curvature="0"
         style="fill:#706f6f" /><path
         d="m 671.552,66.089 c 3.09,0 5.678,1.032 7.762,3.095 2.085,2.063 3.125,4.602 3.125,7.62 0,2.987 -1.04,5.521 -3.117,7.604 -2.08,2.08 -4.611,3.119 -7.604,3.119 -3.026,0 -5.583,-1.035 -7.663,-3.105 -2.084,-2.074 -3.125,-4.579 -3.125,-7.521 0,-1.96 0.474,-3.78 1.423,-5.454 0.95,-1.673 2.242,-2.986 3.881,-3.935 1.637,-0.947 3.413,-1.423 5.318,-1.423 z m 0.091,1.986 c -1.51,0 -2.942,0.393 -4.298,1.18 -1.35,0.79 -2.408,1.848 -3.166,3.182 -0.761,1.331 -1.142,2.818 -1.142,4.456 0,2.429 0.844,4.475 2.523,6.147 1.683,1.672 3.71,2.505 6.082,2.505 1.585,0 3.048,-0.383 4.399,-1.151 1.348,-0.768 2.398,-1.82 3.153,-3.153 0.758,-1.334 1.133,-2.813 1.133,-4.442 0,-1.621 -0.375,-3.087 -1.133,-4.396 -0.755,-1.313 -1.817,-2.357 -3.191,-3.147 -1.368,-0.789 -2.825,-1.181 -4.36,-1.181 z"
         id="path71"
         inkscape:connector-curvature="0"
         style="fill:#706f6f" /></g></g><g
     id="g73"
     transform="matrix(0.53783158,0,0,0.53783158,-4.6333003,-4.3700117)" /><g
     id="g75"
     transform="matrix(0.53783158,0,0,0.53783158,-4.6333003,-4.3700117)" /><g
     id="g77"
     transform="matrix(0.53783158,0,0,0.53783158,-4.6333003,-4.3700117)" /><g
     id="g79"
     transform="matrix(0.53783158,0,0,0.53783158,-4.6333003,-4.3700117)" /><g
     id="g81"
     transform="matrix(0.53783158,0,0,0.53783158,-4.6333003,-4.3700117)" /><g
     id="g83"
     transform="matrix(0.53783158,0,0,0.53783158,-4.6333003,-4.3700117)" /></svg>