<?xml version="1.0" encoding="UTF-8" standalone="no"?>
<!-- Generator: Adobe Illustrator 16.0.0, SVG Export Plug-In . SVG Version: 6.00 Build 0)  -->

<svg
   xmlns:dc="http://purl.org/dc/elements/1.1/"
   xmlns:cc="http://creativecommons.org/ns#"
   xmlns:rdf="http://www.w3.org/1999/02/22-rdf-syntax-ns#"
   xmlns:svg="http://www.w3.org/2000/svg"
   xmlns="http://www.w3.org/2000/svg"
   xmlns:sodipodi="http://sodipodi.sourceforge.net/DTD/sodipodi-0.dtd"
   xmlns:inkscape="http://www.inkscape.org/namespaces/inkscape"
   version="1.1"
   id="Calque_1"
   x="0px"
   y="0px"
   width="350.362"
   height="49.77"
   viewBox="0 0 350.362 49.769999"
   enable-background="new 0 0 370 66"
   xml:space="preserve"
   inkscape:version="0.91 r13725"
   sodipodi:docname="wamcar_denicheur.svg"><metadata
     id="metadata77"><rdf:RDF><cc:Work
         rdf:about=""><dc:format>image/svg+xml</dc:format><dc:type
           rdf:resource="http://purl.org/dc/dcmitype/StillImage" /><dc:title></dc:title></cc:Work></rdf:RDF></metadata><defs
     id="defs75" /><sodipodi:namedview
     pagecolor="#ffffff"
     bordercolor="#666666"
     borderopacity="1"
     objecttolerance="10"
     gridtolerance="10"
     guidetolerance="10"
     inkscape:pageopacity="0"
     inkscape:pageshadow="2"
     inkscape:window-width="1633"
     inkscape:window-height="1026"
     id="namedview73"
     showgrid="false"
     fit-margin-left="2"
     fit-margin-right="2"
     fit-margin-top="2"
     fit-margin-bottom="2"
     inkscape:zoom="0.84864865"
     inkscape:cx="24.616834"
     inkscape:cy="29.079374"
     inkscape:window-x="1967"
     inkscape:window-y="38"
     inkscape:window-maximized="1"
     inkscape:current-layer="Calque_1" /><path
     d="m 55.847,2.41 c 0.459,-0.062 0.818,-0.107 1.079,-0.138 0.259,-0.03 0.497,-0.046 0.711,-0.046 0.214,0 0.306,0.031 0.276,0.092 -0.124,0.428 -0.229,0.857 -0.321,1.285 -0.093,0.43 -0.2,0.858 -0.322,1.286 -0.275,1.01 -0.551,2.021 -0.826,3.03 -0.275,1.009 -0.536,2.02 -0.78,3.03 -0.368,1.376 -0.734,2.739 -1.102,4.085 -0.367,1.347 -0.72,2.708 -1.057,4.086 l -2.341,8.814 c -0.367,1.347 -0.728,2.686 -1.079,4.017 -0.352,1.332 -0.711,2.67 -1.079,4.018 -0.245,0.979 -0.497,1.957 -0.757,2.938 -0.261,0.979 -0.528,1.958 -0.804,2.938 -0.092,0.398 -0.184,0.781 -0.275,1.148 -0.091,0.367 -0.199,0.75 -0.322,1.148 -0.183,0.273 -0.458,0.458 -0.826,0.551 -0.153,0.061 -0.314,0.121 -0.482,0.183 -0.168,0.061 -0.344,0.122 -0.528,0.184 -0.765,0.275 -1.53,0.528 -2.295,0.758 -0.765,0.229 -1.545,0.466 -2.34,0.712 -0.797,0.213 -1.592,0.404 -2.388,0.573 -0.796,0.168 -1.592,0.328 -2.387,0.481 -0.49,0.123 -1.071,0.185 -1.745,0.185 -0.092,0 -0.2,-0.031 -0.322,-0.092 C 33.444,47.247 33.345,46.818 33.237,46.39 33.129,45.961 33.031,45.534 32.939,45.105 32.694,44.064 32.44,43.04 32.181,42.03 31.92,41.019 31.668,40.009 31.424,39 c -0.337,-1.377 -0.667,-2.746 -0.987,-4.109 -0.322,-1.36 -0.651,-2.73 -0.987,-4.107 -0.062,-0.122 -0.099,-0.245 -0.115,-0.367 -0.016,-0.123 -0.038,-0.245 -0.068,-0.368 -0.276,0.98 -0.544,1.968 -0.803,2.961 -0.261,0.995 -0.529,1.997 -0.804,3.007 -0.246,0.98 -0.499,1.951 -0.757,2.916 -0.261,0.964 -0.513,1.935 -0.758,2.914 -0.122,0.398 -0.229,0.781 -0.321,1.148 -0.092,0.367 -0.184,0.75 -0.275,1.148 -0.245,0.273 -0.521,0.458 -0.827,0.551 -0.184,0.061 -0.36,0.121 -0.528,0.183 -0.169,0.061 -0.329,0.122 -0.482,0.184 -0.765,0.275 -1.538,0.528 -2.317,0.758 -0.782,0.229 -1.57,0.466 -2.365,0.712 -0.796,0.213 -1.583,0.404 -2.365,0.573 -0.779,0.168 -1.568,0.328 -2.363,0.481 -0.521,0.123 -1.117,0.185 -1.791,0.185 -0.062,0 -0.153,-0.031 -0.276,-0.092 -0.092,-0.429 -0.191,-0.835 -0.298,-1.217 -0.107,-0.383 -0.206,-0.788 -0.298,-1.217 -0.245,-1.01 -0.49,-2.013 -0.734,-3.007 C 10.659,41.242 10.415,40.241 10.17,39.231 9.833,37.852 9.497,36.492 9.161,35.144 8.824,33.797 8.488,32.436 8.151,31.059 7.784,29.589 7.424,28.121 7.072,26.651 6.72,25.182 6.361,23.698 5.994,22.198 5.657,20.852 5.32,19.512 4.983,18.181 4.646,16.849 4.31,15.495 3.973,14.118 3.728,13.139 3.492,12.152 3.261,11.157 3.032,10.163 2.794,9.176 2.55,8.197 2.458,7.8 2.366,7.416 2.275,7.049 2.184,6.682 2.091,6.299 2,5.902 2.184,5.626 2.459,5.443 2.826,5.351 L 3.79,4.938 C 4.585,4.662 5.366,4.41 6.131,4.18 6.896,3.951 7.676,3.729 8.471,3.515 9.267,3.301 10.056,3.101 10.836,2.917 11.616,2.733 12.404,2.566 13.2,2.413 c 0.305,-0.062 0.604,-0.107 0.896,-0.138 0.29,-0.03 0.589,-0.046 0.895,-0.046 0.122,0.062 0.214,0.092 0.275,0.092 0.122,0.428 0.229,0.842 0.321,1.239 0.092,0.398 0.184,0.812 0.276,1.24 0.244,0.98 0.497,1.974 0.757,2.984 0.26,1.01 0.512,2.02 0.757,3.03 0.336,1.377 0.666,2.731 0.987,4.062 0.321,1.332 0.649,2.686 0.987,4.063 0.061,0.153 0.099,0.298 0.115,0.436 0.015,0.138 0.053,0.283 0.115,0.436 0.244,-0.979 0.505,-1.974 0.78,-2.984 0.276,-1.01 0.535,-2.019 0.78,-3.029 0.275,-0.979 0.543,-1.958 0.804,-2.938 0.26,-0.979 0.512,-1.958 0.758,-2.938 C 22.795,7.554 22.893,7.18 23.001,6.797 23.107,6.414 23.208,6.04 23.299,5.672 23.482,5.397 23.758,5.214 24.125,5.122 24.277,5.06 24.446,4.992 24.63,4.915 24.814,4.84 24.981,4.77 25.135,4.708 25.9,4.433 26.664,4.18 27.43,3.951 28.195,3.721 28.975,3.5 29.771,3.286 30.566,3.072 31.362,2.872 32.158,2.689 32.954,2.505 33.749,2.337 34.546,2.184 34.852,2.122 35.15,2.077 35.441,2.046 35.732,2.016 36.03,2 36.337,2 c 0.122,0.062 0.214,0.092 0.276,0.092 l 0,0.046 c 0.092,0.429 0.19,0.857 0.298,1.286 0.107,0.429 0.222,0.857 0.345,1.285 0.244,1.01 0.489,2.02 0.733,3.03 0.245,1.01 0.489,2.035 0.735,3.076 0.336,1.377 0.673,2.739 1.01,4.085 0.336,1.348 0.672,2.709 1.01,4.086 0.03,0.153 0.061,0.298 0.092,0.436 0.03,0.137 0.061,0.283 0.092,0.436 0.245,-0.979 0.497,-1.951 0.758,-2.915 0.259,-0.964 0.528,-1.935 0.803,-2.916 0.245,-0.979 0.498,-1.958 0.758,-2.938 0.259,-0.979 0.512,-1.959 0.757,-2.938 0.122,-0.367 0.229,-0.742 0.321,-1.124 0.093,-0.383 0.2,-0.757 0.322,-1.125 0.184,-0.276 0.458,-0.459 0.825,-0.551 0.153,-0.062 0.314,-0.13 0.483,-0.207 0.168,-0.076 0.344,-0.145 0.527,-0.207 0.765,-0.276 1.53,-0.528 2.295,-0.758 C 49.543,3.95 50.323,3.728 51.119,3.514 51.914,3.3 52.703,3.1 53.483,2.916 54.263,2.731 55.051,2.564 55.847,2.41 Z"
     id="path3"
     inkscape:connector-curvature="0"
     style="fill:#e20613" /><path
     d="m 85.447,39.362 c 0.104,0.312 0.201,0.623 0.292,0.935 0.091,0.312 0.201,0.623 0.331,0.934 -0.208,0.26 -0.441,0.402 -0.701,0.43 -0.155,0.051 -0.305,0.109 -0.448,0.174 -0.142,0.064 -0.278,0.123 -0.408,0.176 -0.675,0.233 -1.337,0.447 -1.985,0.643 -0.649,0.194 -1.311,0.383 -1.985,0.564 -1.35,0.389 -2.686,0.7 -4.009,0.934 -0.442,0.104 -0.947,0.155 -1.518,0.155 -0.053,0 -0.13,-0.025 -0.234,-0.077 -0.026,-0.026 -0.039,-0.064 -0.039,-0.117 -0.156,-0.441 -0.312,-0.889 -0.467,-1.342 -0.156,-0.455 -0.312,-0.915 -0.467,-1.383 -0.287,-0.908 -0.584,-1.797 -0.896,-2.666 -0.312,-0.87 -0.61,-1.76 -0.896,-2.666 -0.052,-0.131 -0.091,-0.241 -0.117,-0.332 -0.026,-0.091 -0.053,-0.201 -0.078,-0.331 l -7.786,0 c -0.233,0.675 -0.461,1.337 -0.681,1.985 -0.221,0.648 -0.435,1.311 -0.642,1.985 -0.131,0.312 -0.24,0.623 -0.33,0.935 -0.092,0.312 -0.189,0.623 -0.293,0.934 -0.208,0.26 -0.441,0.402 -0.701,0.43 -0.156,0.051 -0.305,0.109 -0.447,0.174 -0.143,0.064 -0.279,0.123 -0.409,0.176 -0.676,0.233 -1.337,0.447 -1.986,0.643 -0.648,0.194 -1.31,0.383 -1.984,0.564 -1.35,0.389 -2.687,0.7 -4.01,0.934 -0.363,0.052 -0.661,0.091 -0.895,0.117 -0.234,0.025 -0.442,0.038 -0.623,0.038 -0.182,0 -0.26,-0.025 -0.234,-0.077 0,-0.026 0.007,-0.045 0.02,-0.059 0.013,-0.014 0.02,-0.033 0.02,-0.059 0.156,-0.441 0.312,-0.889 0.468,-1.342 0.155,-0.455 0.298,-0.915 0.428,-1.383 0.312,-0.908 0.616,-1.797 0.915,-2.666 0.298,-0.87 0.604,-1.76 0.915,-2.666 0.363,-1.168 0.739,-2.323 1.129,-3.465 0.389,-1.143 0.778,-2.297 1.168,-3.465 0.414,-1.22 0.823,-2.434 1.226,-3.64 0.401,-1.207 0.811,-2.433 1.227,-3.679 0.363,-1.115 0.732,-2.219 1.108,-3.309 0.376,-1.09 0.76,-2.193 1.149,-3.309 0.259,-0.804 0.519,-1.602 0.778,-2.394 0.259,-0.791 0.531,-1.589 0.817,-2.394 0.103,-0.311 0.207,-0.623 0.311,-0.934 0.104,-0.311 0.208,-0.609 0.312,-0.896 0.156,-0.259 0.39,-0.415 0.701,-0.467 0.129,-0.052 0.266,-0.11 0.408,-0.175 0.143,-0.065 0.292,-0.123 0.448,-0.175 0.649,-0.233 1.298,-0.448 1.946,-0.642 0.648,-0.195 1.31,-0.383 1.985,-0.564 1.298,-0.39 2.647,-0.701 4.049,-0.934 0.441,-0.104 0.934,-0.156 1.479,-0.156 0.077,0 0.168,0.026 0.272,0.078 0,0.052 0.013,0.091 0.039,0.117 0.156,0.442 0.304,0.896 0.448,1.362 0.143,0.467 0.291,0.922 0.448,1.363 0.285,0.909 0.584,1.804 0.895,2.686 0.311,0.883 0.61,1.765 0.896,2.647 0.389,1.167 0.778,2.322 1.167,3.464 0.39,1.143 0.779,2.297 1.168,3.464 0.415,1.246 0.823,2.466 1.225,3.659 0.403,1.194 0.812,2.413 1.228,3.659 0.362,1.116 0.732,2.219 1.109,3.309 0.376,1.09 0.745,2.193 1.109,3.309 l 1.635,4.787 z M 70.733,32.2 c -0.182,-0.519 -0.357,-1.032 -0.526,-1.538 -0.169,-0.506 -0.344,-1.018 -0.525,-1.537 -0.286,-0.882 -0.578,-1.765 -0.876,-2.647 -0.299,-0.881 -0.59,-1.764 -0.876,-2.646 -0.233,0.675 -0.467,1.362 -0.7,2.063 -0.233,0.701 -0.468,1.389 -0.7,2.063 -0.234,0.701 -0.468,1.408 -0.702,2.121 -0.232,0.715 -0.479,1.422 -0.739,2.122 l 5.644,0 z"
     id="path5"
     inkscape:connector-curvature="0"
     style="fill:#e20613" /><path
     d="m 123.699,8.48 c -0.022,0 0.046,-0.011 0.203,-0.034 0.158,-0.022 0.334,-0.045 0.526,-0.068 0.192,-0.022 0.373,-0.034 0.543,-0.034 0.17,0 0.255,0.023 0.255,0.068 l 0,31.09 c -0.136,0.203 -0.34,0.338 -0.611,0.406 -0.135,0.045 -0.267,0.097 -0.39,0.152 -0.125,0.057 -0.244,0.107 -0.357,0.153 -0.564,0.203 -1.137,0.39 -1.713,0.561 -0.578,0.169 -1.161,0.333 -1.748,0.491 -0.589,0.158 -1.171,0.306 -1.749,0.441 -0.576,0.137 -1.159,0.26 -1.747,0.373 0.022,0 -0.046,0.012 -0.204,0.034 -0.158,0.022 -0.334,0.046 -0.526,0.067 -0.191,0.023 -0.372,0.04 -0.542,0.051 -0.17,0.012 -0.254,-0.016 -0.254,-0.084 l 0,-10.893 -1.121,2.646 -1.73,3.972 c -0.114,0.249 -0.221,0.503 -0.322,0.764 -0.103,0.26 -0.21,0.514 -0.323,0.764 -0.136,0.204 -0.339,0.339 -0.61,0.407 -0.227,0.068 -0.476,0.158 -0.747,0.271 -0.565,0.203 -1.137,0.391 -1.714,0.561 -0.577,0.169 -1.16,0.344 -1.748,0.525 -0.589,0.158 -1.171,0.3 -1.747,0.424 -0.578,0.125 -1.16,0.243 -1.749,0.357 -0.385,0.09 -0.826,0.135 -1.323,0.135 -0.046,0 -0.113,-0.021 -0.204,-0.067 -0.023,-0.046 -0.045,-0.097 -0.067,-0.152 -0.023,-0.058 -0.046,-0.108 -0.068,-0.153 -0.204,-0.453 -0.402,-0.91 -0.595,-1.375 -0.192,-0.463 -0.39,-0.922 -0.594,-1.374 -0.339,-0.792 -0.678,-1.589 -1.017,-2.393 -0.339,-0.804 -0.691,-1.602 -1.053,-2.394 -0.046,-0.135 -0.079,-0.226 -0.102,-0.271 l 0,5.602 c -0.135,0.203 -0.338,0.338 -0.611,0.406 -0.113,0.045 -0.238,0.097 -0.373,0.152 -0.136,0.057 -0.261,0.107 -0.373,0.153 -0.566,0.203 -1.132,0.39 -1.697,0.561 -0.566,0.169 -1.143,0.333 -1.731,0.491 -0.588,0.158 -1.176,0.306 -1.765,0.441 -0.588,0.137 -1.177,0.26 -1.765,0.373 0.022,0 -0.046,0.012 -0.204,0.034 -0.159,0.022 -0.334,0.046 -0.526,0.067 -0.193,0.023 -0.374,0.04 -0.544,0.051 -0.168,0.012 -0.254,-0.016 -0.254,-0.084 l 0,-31.089 c 0.136,-0.204 0.34,-0.339 0.612,-0.408 0.113,-0.045 0.237,-0.096 0.373,-0.152 0.136,-0.056 0.26,-0.107 0.374,-0.153 0.565,-0.204 1.136,-0.39 1.713,-0.56 0.577,-0.169 1.16,-0.333 1.748,-0.492 0.588,-0.158 1.171,-0.305 1.748,-0.441 0.577,-0.136 1.16,-0.26 1.748,-0.374 0.226,-0.045 0.447,-0.079 0.663,-0.102 0.214,-0.022 0.435,-0.034 0.662,-0.034 0.09,0.045 0.158,0.068 0.203,0.068 0.023,0.068 0.046,0.13 0.068,0.187 0.022,0.056 0.046,0.107 0.068,0.153 0.204,0.453 0.401,0.911 0.594,1.374 0.192,0.464 0.391,0.922 0.594,1.375 0.339,0.792 0.678,1.59 1.018,2.393 0.339,0.803 0.689,1.601 1.053,2.393 0.429,0.996 0.853,1.98 1.272,2.953 0.418,0.973 0.843,1.968 1.273,2.986 0.452,1.018 0.893,2.043 1.323,3.072 0.431,1.03 0.871,2.053 1.324,3.072 l 0.407,0.916 c 0.067,-0.182 0.141,-0.356 0.221,-0.525 0.079,-0.17 0.152,-0.346 0.221,-0.527 0.452,-1.04 0.893,-2.07 1.323,-3.088 0.429,-1.018 0.87,-2.047 1.324,-3.088 0.407,-0.928 0.809,-1.844 1.204,-2.75 0.396,-0.904 0.786,-1.821 1.172,-2.749 l 1.73,-3.971 c 0.113,-0.249 0.221,-0.503 0.322,-0.764 0.102,-0.26 0.209,-0.514 0.323,-0.763 0.135,-0.204 0.338,-0.339 0.61,-0.408 0.112,-0.045 0.237,-0.096 0.373,-0.152 0.135,-0.057 0.26,-0.107 0.373,-0.153 0.564,-0.204 1.131,-0.39 1.697,-0.56 0.565,-0.169 1.143,-0.333 1.73,-0.492 0.588,-0.158 1.177,-0.305 1.766,-0.441 0.587,-0.137 1.175,-0.261 1.764,-0.374 z"
     id="path7"
     inkscape:connector-curvature="0"
     style="fill:#e20613" /><path
     d="m 154.302,36.884 c 0.138,0 0.196,0.025 0.177,0.074 -0.019,0.049 -0.073,0.099 -0.162,0.148 -0.089,0.049 -0.177,0.093 -0.266,0.133 -0.089,0.039 -0.123,0.059 -0.104,0.059 -0.63,0.275 -1.278,0.521 -1.948,0.738 -0.669,0.216 -1.338,0.422 -2.007,0.619 -0.944,0.275 -1.885,0.531 -2.819,0.768 -0.934,0.237 -1.884,0.433 -2.849,0.591 -0.728,0.099 -1.455,0.177 -2.184,0.236 -0.728,0.059 -1.456,0.048 -2.185,-0.03 -1.594,-0.158 -3.104,-0.581 -4.531,-1.27 -1.426,-0.688 -2.68,-1.623 -3.763,-2.803 -1.043,-1.123 -1.874,-2.383 -2.494,-3.779 -0.62,-1.396 -1.009,-2.863 -1.165,-4.398 -0.158,-1.534 -0.05,-3.054 0.324,-4.56 0.373,-1.505 0.974,-2.907 1.801,-4.206 0.413,-0.649 0.88,-1.269 1.4,-1.859 0.521,-0.59 1.088,-1.122 1.699,-1.594 0.885,-0.689 1.824,-1.26 2.818,-1.712 0.993,-0.453 2.021,-0.846 3.084,-1.181 1.299,-0.395 2.602,-0.757 3.91,-1.093 1.31,-0.334 2.643,-0.6 4,-0.796 0.453,-0.059 0.91,-0.104 1.373,-0.133 0.462,-0.029 0.92,-0.034 1.373,-0.015 0.826,0.02 1.628,0.119 2.404,0.295 0.777,0.177 1.54,0.423 2.288,0.738 -0.118,0.177 -0.294,0.295 -0.531,0.354 -0.099,0.04 -0.201,0.084 -0.31,0.133 -0.108,0.05 -0.222,0.093 -0.34,0.133 -0.492,0.177 -0.984,0.339 -1.476,0.487 -0.492,0.148 -0.994,0.291 -1.505,0.429 -0.513,0.137 -1.02,0.266 -1.521,0.384 -0.502,0.118 -1.009,0.226 -1.521,0.324 -0.196,0.04 -0.389,0.069 -0.575,0.089 -0.187,0.02 -0.379,0.029 -0.575,0.029 -0.079,-0.039 -0.138,-0.059 -0.178,-0.059 -0.138,-0.059 -0.271,-0.113 -0.398,-0.163 -0.128,-0.049 -0.251,-0.093 -0.369,-0.133 -1.003,-0.334 -2.007,-0.531 -3.011,-0.59 -0.826,0.571 -1.584,1.239 -2.272,2.007 -0.905,1.063 -1.639,2.224 -2.199,3.483 -0.561,1.259 -0.93,2.568 -1.107,3.926 -0.196,1.535 -0.133,3.055 0.192,4.56 0.325,1.506 0.882,2.928 1.668,4.266 0.394,0.649 0.831,1.265 1.313,1.844 0.481,0.582 1.008,1.107 1.579,1.58 1.181,1.004 2.509,1.761 3.985,2.272 0.688,0.216 1.382,0.384 2.081,0.501 0.697,0.119 1.401,0.168 2.109,0.148 0.453,-0.138 0.91,-0.26 1.372,-0.369 0.463,-0.107 0.931,-0.211 1.402,-0.31 0.492,-0.118 1.014,-0.206 1.565,-0.266 0.103,-0.019 0.25,-0.029 0.448,-0.029 z"
     id="path9"
     inkscape:connector-curvature="0"
     style="fill:#e20613" /><path
     d="m 173.553,35.704 c 0.071,0.215 0.139,0.431 0.202,0.645 0.063,0.216 0.139,0.431 0.228,0.646 -0.143,0.179 -0.305,0.277 -0.483,0.295 -0.107,0.036 -0.211,0.076 -0.309,0.121 -0.1,0.045 -0.192,0.085 -0.283,0.121 -0.466,0.162 -0.922,0.309 -1.37,0.443 -0.447,0.135 -0.904,0.264 -1.37,0.39 -0.932,0.269 -1.854,0.483 -2.768,0.646 -0.305,0.07 -0.654,0.107 -1.048,0.107 -0.036,0 -0.09,-0.02 -0.161,-0.055 -0.019,-0.018 -0.027,-0.045 -0.027,-0.08 -0.107,-0.305 -0.214,-0.613 -0.322,-0.928 -0.107,-0.313 -0.215,-0.631 -0.322,-0.953 -0.197,-0.627 -0.403,-1.24 -0.617,-1.841 -0.216,-0.601 -0.422,-1.214 -0.619,-1.841 -0.035,-0.09 -0.063,-0.166 -0.08,-0.229 -0.017,-0.063 -0.036,-0.139 -0.054,-0.229 l -5.374,0 c -0.161,0.466 -0.318,0.922 -0.471,1.371 -0.152,0.447 -0.3,0.904 -0.442,1.37 -0.091,0.215 -0.166,0.431 -0.229,0.645 -0.063,0.216 -0.13,0.431 -0.201,0.646 -0.144,0.179 -0.305,0.277 -0.484,0.295 -0.106,0.036 -0.21,0.076 -0.309,0.121 -0.099,0.045 -0.192,0.085 -0.282,0.121 -0.466,0.162 -0.923,0.309 -1.37,0.443 -0.447,0.134 -0.904,0.264 -1.37,0.39 -0.932,0.269 -1.854,0.483 -2.768,0.646 -0.251,0.035 -0.457,0.063 -0.618,0.08 -0.161,0.017 -0.305,0.027 -0.43,0.027 -0.126,0 -0.179,-0.02 -0.161,-0.055 0,-0.018 0.003,-0.031 0.014,-0.04 0.009,-0.009 0.013,-0.022 0.013,-0.04 0.107,-0.305 0.215,-0.613 0.323,-0.928 0.107,-0.313 0.205,-0.631 0.295,-0.953 0.215,-0.627 0.426,-1.24 0.632,-1.841 0.206,-0.601 0.416,-1.214 0.631,-1.841 0.251,-0.807 0.512,-1.603 0.779,-2.391 0.27,-0.789 0.537,-1.586 0.807,-2.393 0.286,-0.841 0.568,-1.679 0.846,-2.512 0.277,-0.833 0.561,-1.679 0.848,-2.539 0.25,-0.77 0.505,-1.531 0.765,-2.284 0.26,-0.752 0.524,-1.513 0.793,-2.284 0.179,-0.555 0.358,-1.105 0.538,-1.652 0.178,-0.546 0.366,-1.097 0.563,-1.653 0.071,-0.214 0.144,-0.43 0.215,-0.645 0.071,-0.214 0.144,-0.42 0.216,-0.618 0.106,-0.179 0.269,-0.287 0.483,-0.322 0.089,-0.036 0.183,-0.076 0.282,-0.121 0.098,-0.044 0.201,-0.084 0.309,-0.121 0.447,-0.161 0.896,-0.309 1.344,-0.443 0.447,-0.135 0.904,-0.264 1.37,-0.39 0.896,-0.269 1.827,-0.483 2.794,-0.645 0.305,-0.071 0.646,-0.107 1.021,-0.107 0.054,0 0.117,0.018 0.188,0.054 0,0.036 0.009,0.063 0.027,0.081 0.107,0.305 0.211,0.618 0.309,0.94 0.1,0.323 0.202,0.636 0.31,0.94 0.197,0.627 0.403,1.245 0.618,1.854 0.215,0.609 0.42,1.218 0.618,1.827 0.269,0.806 0.537,1.603 0.806,2.392 0.27,0.788 0.538,1.585 0.807,2.391 0.286,0.86 0.567,1.702 0.847,2.525 0.277,0.824 0.56,1.666 0.846,2.526 0.25,0.771 0.506,1.532 0.766,2.284 0.26,0.752 0.515,1.514 0.766,2.284 l 1.123,3.307 z m -10.158,-4.945 c -0.126,-0.357 -0.246,-0.712 -0.362,-1.062 -0.116,-0.349 -0.238,-0.702 -0.362,-1.062 -0.198,-0.608 -0.398,-1.217 -0.604,-1.826 -0.207,-0.61 -0.407,-1.219 -0.604,-1.828 -0.162,0.466 -0.322,0.941 -0.484,1.425 -0.16,0.483 -0.322,0.958 -0.483,1.424 -0.161,0.483 -0.322,0.972 -0.483,1.464 -0.162,0.494 -0.332,0.981 -0.511,1.465 l 3.893,0 z"
     id="path11"
     inkscape:connector-curvature="0"
     style="fill:#e20613" /><path
     d="m 197.567,36.123 c 0.016,0.031 -0.02,0.071 -0.106,0.118 -0.087,0.048 -0.188,0.095 -0.308,0.142 -0.117,0.047 -0.231,0.095 -0.342,0.143 -0.11,0.047 -0.173,0.07 -0.188,0.07 -0.394,0.142 -0.787,0.271 -1.181,0.39 -0.394,0.119 -0.795,0.239 -1.203,0.366 -0.41,0.109 -0.819,0.208 -1.229,0.295 -0.409,0.086 -0.818,0.169 -1.228,0.248 -0.268,0.063 -0.575,0.094 -0.921,0.094 -0.031,0 -0.079,-0.016 -0.142,-0.047 l -0.425,-0.496 -2.763,-3.188 c -0.22,-0.235 -0.429,-0.468 -0.626,-0.696 -0.196,-0.228 -0.397,-0.46 -0.602,-0.696 -0.315,0.078 -0.63,0.146 -0.944,0.201 -0.315,0.055 -0.63,0.113 -0.944,0.177 -0.173,0.032 -0.343,0.059 -0.508,0.083 -0.166,0.023 -0.334,0.051 -0.507,0.082 l 0,2.738 c -0.096,0.143 -0.237,0.236 -0.426,0.283 -0.079,0.032 -0.165,0.067 -0.259,0.107 -0.096,0.039 -0.182,0.074 -0.261,0.105 -0.394,0.143 -0.787,0.271 -1.18,0.39 -0.394,0.118 -0.796,0.232 -1.204,0.343 -0.41,0.109 -0.819,0.213 -1.229,0.307 -0.409,0.095 -0.818,0.181 -1.228,0.26 0.015,0 -0.031,0.008 -0.142,0.023 -0.111,0.015 -0.232,0.031 -0.365,0.047 -0.135,0.016 -0.26,0.023 -0.379,0.023 -0.117,0 -0.177,-0.015 -0.177,-0.047 l 0,-20.328 c 0,-0.031 0.032,-0.066 0.095,-0.105 0.063,-0.04 0.11,-0.068 0.141,-0.083 0.143,-0.095 0.275,-0.173 0.402,-0.236 0.504,-0.268 1.023,-0.512 1.559,-0.732 0.535,-0.221 1.078,-0.417 1.629,-0.591 1.055,-0.314 2.113,-0.609 3.176,-0.885 1.062,-0.275 2.137,-0.476 3.222,-0.602 0.708,-0.094 1.413,-0.126 2.114,-0.094 0.699,0.031 1.389,0.142 2.064,0.331 1.165,0.33 2.239,0.862 3.224,1.593 0.983,0.732 1.774,1.633 2.372,2.704 0.331,0.598 0.583,1.22 0.756,1.865 0.174,0.646 0.271,1.298 0.295,1.959 0.024,0.661 -0.04,1.323 -0.188,1.983 -0.15,0.662 -0.374,1.292 -0.673,1.889 -0.283,0.582 -0.635,1.129 -1.051,1.641 -0.418,0.512 -0.878,0.973 -1.382,1.382 -0.235,0.188 -0.476,0.361 -0.72,0.519 -0.244,0.158 -0.499,0.307 -0.767,0.449 0.03,0.031 0.055,0.063 0.071,0.094 0.015,0.031 0.038,0.063 0.07,0.095 0.456,0.519 0.917,1.043 1.381,1.57 0.465,0.526 0.925,1.058 1.381,1.593 l 1.846,2.124 z m -14.118,-5.926 c 0.299,0.174 0.602,0.335 0.909,0.484 0.307,0.149 0.625,0.279 0.955,0.389 0.299,0.111 0.6,0.197 0.897,0.26 0.299,0.063 0.606,0.119 0.921,0.166 0.078,-0.031 0.153,-0.055 0.224,-0.07 0.071,-0.016 0.146,-0.039 0.226,-0.072 0.424,-0.346 0.803,-0.707 1.133,-1.086 0.172,-0.203 0.343,-0.416 0.508,-0.637 0.165,-0.221 0.311,-0.449 0.436,-0.685 0.662,-1.117 1.032,-2.354 1.111,-3.707 0.031,-0.692 -0.021,-1.38 -0.154,-2.066 -0.134,-0.685 -0.358,-1.333 -0.673,-1.947 -0.519,-1.071 -1.231,-1.991 -2.136,-2.763 -0.906,-0.771 -1.917,-1.354 -3.034,-1.747 -0.221,-0.079 -0.446,-0.145 -0.674,-0.201 -0.228,-0.055 -0.46,-0.098 -0.695,-0.13 l 0,13.788 c 0.031,0.001 0.046,0.008 0.046,0.024 z"
     id="path13"
     inkscape:connector-curvature="0"
     style="fill:#e20613" /><g
     id="g15"
     transform="translate(-12.501,-12.305)"><rect
       x="218.097"
       y="22.757"
       width="1"
       height="31.450001"
       id="rect17"
       style="fill:#7b858e" /><g
       id="g19"><path
         d="m 227.786,36.334 0,-10.54 2.185,0 c 1.576,0 2.72,0.126 3.432,0.38 1.022,0.358 1.821,0.979 2.396,1.863 0.575,0.884 0.863,1.937 0.863,3.16 0,1.056 -0.228,1.984 -0.684,2.787 -0.457,0.802 -1.048,1.395 -1.777,1.777 -0.729,0.382 -1.75,0.573 -3.063,0.573 l -3.352,0 z m 1.01,-0.996 1.218,0 c 1.457,0 2.467,-0.091 3.031,-0.272 0.793,-0.257 1.416,-0.721 1.87,-1.392 0.454,-0.67 0.681,-1.49 0.681,-2.459 0,-1.017 -0.246,-1.885 -0.738,-2.605 -0.492,-0.721 -1.177,-1.215 -2.056,-1.482 -0.659,-0.201 -1.746,-0.301 -3.26,-0.301 l -0.745,0 0,8.511 z"
         id="path21"
         inkscape:connector-curvature="0"
         style="fill:#7b858e" /><path
         d="m 238.712,25.795 6.04,0 0,1.032 -4.986,0 0,3.303 4.943,0 0,1.031 -4.943,0 0,4.142 4.943,0 0,1.032 -5.997,0 0,-10.54 z m 3.568,-3.038 1.541,0 -2.114,2.207 -0.989,0 1.562,-2.207 z"
         id="path23"
         inkscape:connector-curvature="0"
         style="fill:#7b858e" /><path
         d="m 246.579,36.334 0,-10.54 0.229,0 7.015,8.079 0,-8.079 1.039,0 0,10.54 -0.236,0 -6.957,-7.98 0,7.98 -1.09,0 z"
         id="path25"
         inkscape:connector-curvature="0"
         style="fill:#7b858e" /><path
         d="m 257.275,25.795 1.053,0 0,10.54 -1.053,0 0,-10.54 z"
         id="path27"
         inkscape:connector-curvature="0"
         style="fill:#7b858e" /><path
         d="m 270.559,27.751 -0.83,0.638 c -0.459,-0.597 -1.01,-1.05 -1.652,-1.358 -0.642,-0.308 -1.348,-0.462 -2.117,-0.462 -0.84,0 -1.619,0.202 -2.336,0.605 -0.717,0.403 -1.271,0.946 -1.666,1.626 -0.393,0.681 -0.59,1.446 -0.59,2.296 0,1.285 0.439,2.357 1.32,3.217 0.883,0.86 1.994,1.29 3.336,1.29 1.477,0 2.711,-0.578 3.705,-1.734 l 0.83,0.63 c -0.525,0.669 -1.182,1.186 -1.967,1.551 -0.785,0.365 -1.662,0.548 -2.633,0.548 -1.844,0 -3.299,-0.614 -4.363,-1.842 -0.893,-1.036 -1.34,-2.288 -1.34,-3.754 0,-1.543 0.541,-2.841 1.623,-3.894 1.082,-1.053 2.438,-1.58 4.066,-1.58 0.984,0 1.871,0.195 2.664,0.584 0.793,0.389 1.444,0.937 1.95,1.639 z"
         id="path29"
         inkscape:connector-curvature="0"
         style="fill:#7b858e" /><path
         d="m 272.658,25.795 1.053,0 0,4.421 5.367,0 0,-4.421 1.053,0 0,10.54 -1.053,0 0,-5.087 -5.367,0 0,5.087 -1.053,0 0,-10.54 z"
         id="path31"
         inkscape:connector-curvature="0"
         style="fill:#7b858e" /><path
         d="m 282.703,25.795 6.039,0 0,1.032 -4.986,0 0,3.303 4.943,0 0,1.031 -4.943,0 0,4.142 4.943,0 0,1.032 -5.996,0 0,-10.54 z"
         id="path33"
         inkscape:connector-curvature="0"
         style="fill:#7b858e" /><path
         d="m 290.598,25.795 1.055,0 0,6.362 c 0,0.755 0.014,1.225 0.043,1.412 0.053,0.416 0.174,0.763 0.365,1.042 0.191,0.279 0.484,0.513 0.881,0.702 0.396,0.188 0.795,0.283 1.197,0.283 0.348,0 0.682,-0.074 1.002,-0.222 0.32,-0.148 0.588,-0.354 0.803,-0.616 0.215,-0.262 0.373,-0.58 0.473,-0.953 0.072,-0.268 0.107,-0.817 0.107,-1.648 l 0,-6.362 1.053,0 0,6.362 c 0,0.941 -0.092,1.702 -0.275,2.282 -0.184,0.58 -0.551,1.085 -1.104,1.515 -0.551,0.43 -1.219,0.645 -2.002,0.645 -0.85,0 -1.578,-0.203 -2.186,-0.609 -0.605,-0.406 -1.012,-0.943 -1.219,-1.612 -0.129,-0.411 -0.193,-1.151 -0.193,-2.221 l 0,-6.362 z"
         id="path35"
         inkscape:connector-curvature="0"
         style="fill:#7b858e" /><path
         d="m 300.229,25.795 2.1,0 c 1.17,0 1.963,0.048 2.377,0.144 0.627,0.144 1.135,0.451 1.527,0.922 0.391,0.471 0.588,1.051 0.588,1.74 0,0.574 -0.137,1.078 -0.406,1.513 -0.27,0.436 -0.654,0.765 -1.156,0.986 -0.502,0.223 -1.195,0.336 -2.078,0.341 l 3.791,4.894 -1.303,0 -3.791,-4.894 -0.596,0 0,4.894 -1.053,0 0,-10.54 z m 1.052,1.032 0,3.583 1.814,0.014 c 0.703,0 1.225,-0.067 1.563,-0.201 0.336,-0.134 0.6,-0.347 0.789,-0.641 0.189,-0.294 0.283,-0.622 0.283,-0.985 0,-0.353 -0.096,-0.674 -0.287,-0.963 -0.191,-0.289 -0.443,-0.496 -0.754,-0.62 -0.311,-0.125 -0.828,-0.187 -1.549,-0.187 l -1.859,0 z"
         id="path37"
         inkscape:connector-curvature="0"
         style="fill:#7b858e" /><path
         d="m 313.139,36.334 0,-10.54 2.186,0 c 1.576,0 2.721,0.126 3.432,0.38 1.021,0.358 1.82,0.979 2.396,1.863 0.576,0.884 0.863,1.937 0.863,3.16 0,1.056 -0.229,1.984 -0.684,2.787 -0.457,0.802 -1.049,1.395 -1.777,1.777 -0.729,0.382 -1.75,0.573 -3.063,0.573 l -3.353,0 z m 1.009,-0.996 1.219,0 c 1.457,0 2.467,-0.091 3.031,-0.272 0.793,-0.257 1.416,-0.721 1.869,-1.392 0.453,-0.67 0.68,-1.49 0.68,-2.459 0,-1.017 -0.244,-1.885 -0.736,-2.605 -0.492,-0.721 -1.178,-1.215 -2.057,-1.482 -0.66,-0.201 -1.746,-0.301 -3.26,-0.301 l -0.746,0 0,8.511 z"
         id="path39"
         inkscape:connector-curvature="0"
         style="fill:#7b858e" /><path
         d="m 324.064,25.795 6.041,0 0,1.032 -4.988,0 0,3.303 4.945,0 0,1.031 -4.945,0 0,4.142 4.945,0 0,1.032 -5.998,0 0,-10.54 z"
         id="path41"
         inkscape:connector-curvature="0"
         style="fill:#7b858e" /><path
         d="m 237.601,45.359 -0.831,0.638 c -0.458,-0.597 -1.009,-1.05 -1.651,-1.358 -0.642,-0.308 -1.348,-0.462 -2.117,-0.462 -0.841,0 -1.619,0.202 -2.336,0.605 -0.716,0.403 -1.271,0.945 -1.666,1.626 -0.395,0.681 -0.591,1.446 -0.591,2.296 0,1.285 0.441,2.357 1.322,3.217 0.881,0.859 1.993,1.29 3.335,1.29 1.476,0 2.71,-0.578 3.704,-1.734 l 0.831,0.63 c -0.525,0.669 -1.181,1.186 -1.967,1.551 -0.786,0.365 -1.663,0.548 -2.633,0.548 -1.844,0 -3.298,-0.614 -4.363,-1.841 -0.893,-1.036 -1.34,-2.288 -1.34,-3.754 0,-1.543 0.541,-2.841 1.623,-3.894 1.082,-1.053 2.437,-1.58 4.066,-1.58 0.984,0 1.872,0.195 2.665,0.584 0.793,0.389 1.443,0.936 1.949,1.638 z"
         id="path43"
         inkscape:connector-curvature="0"
         style="fill:#7b858e" /><path
         d="m 244.734,43.138 c 1.596,0 2.931,0.533 4.007,1.598 1.076,1.065 1.613,2.376 1.613,3.934 0,1.543 -0.536,2.852 -1.61,3.926 -1.073,1.075 -2.381,1.612 -3.925,1.612 -1.563,0 -2.883,-0.535 -3.958,-1.604 -1.076,-1.07 -1.613,-2.365 -1.613,-3.883 0,-1.013 0.245,-1.951 0.734,-2.816 0.491,-0.865 1.158,-1.542 2.004,-2.031 0.848,-0.492 1.763,-0.736 2.748,-0.736 z m 0.046,1.024 c -0.78,0 -1.519,0.203 -2.217,0.61 -0.699,0.407 -1.245,0.954 -1.636,1.642 -0.393,0.688 -0.589,1.456 -0.589,2.301 0,1.253 0.435,2.31 1.303,3.173 0.868,0.863 1.914,1.294 3.139,1.294 0.818,0 1.575,-0.198 2.271,-0.595 0.696,-0.396 1.24,-0.939 1.629,-1.627 0.391,-0.688 0.585,-1.453 0.585,-2.294 0,-0.836 -0.194,-1.593 -0.585,-2.27 -0.389,-0.677 -0.938,-1.217 -1.646,-1.624 -0.709,-0.407 -1.46,-0.61 -2.254,-0.61 z"
         id="path45"
         inkscape:connector-curvature="0"
         style="fill:#7b858e" /><path
         d="m 252.475,53.942 0,-10.54 0.229,0 7.014,8.079 0,-8.079 1.039,0 0,10.54 -0.236,0 -6.958,-7.981 0,7.981 -1.088,0 z"
         id="path47"
         inkscape:connector-curvature="0"
         style="fill:#7b858e" /><path
         d="m 262.234,51.979 0.895,-0.538 c 0.631,1.161 1.359,1.741 2.186,1.741 0.354,0 0.686,-0.083 0.996,-0.247 0.311,-0.165 0.547,-0.386 0.709,-0.663 0.162,-0.277 0.244,-0.571 0.244,-0.881 0,-0.354 -0.119,-0.7 -0.359,-1.039 -0.328,-0.468 -0.932,-1.032 -1.805,-1.691 -0.879,-0.664 -1.426,-1.144 -1.641,-1.44 -0.373,-0.497 -0.559,-1.034 -0.559,-1.612 0,-0.458 0.109,-0.876 0.328,-1.253 0.221,-0.377 0.529,-0.675 0.928,-0.892 0.4,-0.217 0.834,-0.326 1.301,-0.326 0.498,0 0.961,0.123 1.395,0.369 0.432,0.246 0.889,0.698 1.371,1.357 l -0.859,0.652 c -0.396,-0.525 -0.734,-0.872 -1.014,-1.039 -0.28,-0.167 -0.584,-0.251 -0.914,-0.251 -0.424,0 -0.771,0.129 -1.041,0.387 -0.271,0.258 -0.406,0.576 -0.406,0.953 0,0.229 0.049,0.452 0.145,0.667 0.096,0.215 0.27,0.449 0.521,0.702 0.139,0.134 0.594,0.485 1.361,1.053 0.914,0.673 1.539,1.273 1.879,1.798 0.338,0.525 0.508,1.053 0.508,1.583 0,0.764 -0.291,1.428 -0.871,1.992 -0.58,0.564 -1.285,0.845 -2.117,0.845 -0.639,0 -1.221,-0.17 -1.74,-0.512 -0.523,-0.34 -1.001,-0.913 -1.441,-1.715 z"
         id="path49"
         inkscape:connector-curvature="0"
         style="fill:#7b858e" /><path
         d="m 270.637,43.403 6.041,0 0,1.032 -4.986,0 0,3.303 4.943,0 0,1.032 -4.943,0 0,4.142 4.943,0 0,1.032 -5.998,0 0,-10.541 z"
         id="path51"
         inkscape:connector-curvature="0"
         style="fill:#7b858e" /><path
         d="m 278.348,43.403 1.053,0 0,10.54 -1.053,0 0,-10.54 z"
         id="path53"
         inkscape:connector-curvature="0"
         style="fill:#7b858e" /><path
         d="m 281.814,43.403 1.053,0 0,9.522 4.057,0 0,1.018 -5.109,0 0,-10.54 z"
         id="path55"
         inkscape:connector-curvature="0"
         style="fill:#7b858e" /><path
         d="m 288.592,43.403 1.055,0 0,9.522 4.055,0 0,1.018 -5.109,0 0,-10.54 z"
         id="path57"
         inkscape:connector-curvature="0"
         style="fill:#7b858e" /><path
         d="m 295.377,43.403 6.041,0 0,1.032 -4.988,0 0,3.303 4.945,0 0,1.032 -4.945,0 0,4.142 4.945,0 0,1.032 -5.998,0 0,-10.541 z"
         id="path59"
         inkscape:connector-curvature="0"
         style="fill:#7b858e" /><path
         d="m 303.295,43.403 2.1,0 c 1.17,0 1.963,0.048 2.377,0.143 0.627,0.144 1.135,0.451 1.527,0.922 0.391,0.471 0.588,1.052 0.588,1.74 0,0.574 -0.135,1.078 -0.406,1.513 -0.27,0.436 -0.654,0.765 -1.156,0.986 -0.502,0.223 -1.193,0.336 -2.078,0.341 l 3.791,4.894 -1.303,0 -3.791,-4.894 -0.596,0 0,4.894 -1.053,0 0,-10.539 z m 1.053,1.032 0,3.583 1.814,0.014 c 0.703,0 1.225,-0.067 1.563,-0.201 0.336,-0.134 0.6,-0.347 0.789,-0.641 0.189,-0.294 0.283,-0.622 0.283,-0.985 0,-0.354 -0.096,-0.674 -0.287,-0.963 -0.191,-0.289 -0.443,-0.496 -0.754,-0.62 -0.311,-0.125 -0.828,-0.187 -1.549,-0.187 l -1.859,0 z"
         id="path61"
         inkscape:connector-curvature="0"
         style="fill:#7b858e" /><path
         d="m 311.055,51.979 0.895,-0.538 c 0.631,1.161 1.359,1.741 2.186,1.741 0.354,0 0.686,-0.083 0.996,-0.247 0.311,-0.165 0.547,-0.386 0.709,-0.663 0.162,-0.277 0.244,-0.571 0.244,-0.881 0,-0.354 -0.119,-0.7 -0.359,-1.039 -0.328,-0.468 -0.932,-1.032 -1.805,-1.691 -0.879,-0.664 -1.426,-1.144 -1.641,-1.44 -0.373,-0.497 -0.559,-1.034 -0.559,-1.612 0,-0.458 0.109,-0.876 0.328,-1.253 0.221,-0.377 0.529,-0.675 0.928,-0.892 0.4,-0.217 0.834,-0.326 1.301,-0.326 0.498,0 0.961,0.123 1.395,0.369 0.432,0.246 0.889,0.698 1.371,1.357 l -0.859,0.652 c -0.396,-0.525 -0.734,-0.872 -1.014,-1.039 -0.28,-0.167 -0.584,-0.251 -0.914,-0.251 -0.424,0 -0.771,0.129 -1.041,0.387 -0.271,0.258 -0.406,0.576 -0.406,0.953 0,0.229 0.049,0.452 0.145,0.667 0.096,0.215 0.27,0.449 0.521,0.702 0.139,0.134 0.594,0.485 1.361,1.053 0.914,0.673 1.539,1.273 1.879,1.798 0.338,0.525 0.508,1.053 0.508,1.583 0,0.764 -0.291,1.428 -0.871,1.992 -0.58,0.564 -1.285,0.845 -2.117,0.845 -0.639,0 -1.221,-0.17 -1.74,-0.512 -0.523,-0.34 -1.002,-0.913 -1.441,-1.715 z"
         id="path63"
         inkscape:connector-curvature="0"
         style="fill:#7b858e" /><path
         d="m 327.818,43.403 4.916,10.54 -1.139,0 -1.656,-3.468 -4.541,0 -1.643,3.468 -1.174,0 4.979,-10.54 0.258,0 z m -0.13,2.239 -1.807,3.815 3.604,0 -1.797,-3.815 z"
         id="path65"
         inkscape:connector-curvature="0"
         style="fill:#7b858e" /><path
         d="m 334.404,43.403 1.053,0 0,6.362 c 0,0.755 0.014,1.225 0.043,1.412 0.053,0.416 0.174,0.763 0.365,1.042 0.191,0.279 0.484,0.513 0.881,0.702 0.396,0.188 0.795,0.283 1.197,0.283 0.348,0 0.682,-0.074 1.002,-0.222 0.32,-0.148 0.588,-0.354 0.803,-0.616 0.215,-0.262 0.373,-0.58 0.473,-0.953 0.072,-0.268 0.107,-0.817 0.107,-1.648 l 0,-6.362 1.055,0 0,6.362 c 0,0.941 -0.094,1.702 -0.277,2.282 -0.184,0.581 -0.551,1.085 -1.104,1.516 -0.551,0.43 -1.219,0.645 -2.002,0.645 -0.85,0 -1.578,-0.203 -2.186,-0.609 -0.605,-0.406 -1.012,-0.943 -1.217,-1.612 -0.129,-0.411 -0.193,-1.151 -0.193,-2.221 l 0,-6.363 z"
         id="path67"
         inkscape:connector-curvature="0"
         style="fill:#7b858e" /><path
         d="m 342.93,44.435 0,-1.032 5.775,0 0,1.032 -2.352,0 0,9.508 -1.074,0 0,-9.508 -2.349,0 z"
         id="path69"
         inkscape:connector-curvature="0"
         style="fill:#7b858e" /><path
         d="m 355.242,43.138 c 1.596,0 2.932,0.533 4.008,1.598 1.076,1.065 1.613,2.376 1.613,3.934 0,1.543 -0.537,2.852 -1.609,3.926 -1.074,1.075 -2.381,1.612 -3.926,1.612 -1.563,0 -2.883,-0.535 -3.957,-1.604 -1.076,-1.07 -1.613,-2.365 -1.613,-3.883 0,-1.013 0.244,-1.951 0.734,-2.816 0.49,-0.865 1.158,-1.542 2.004,-2.031 0.846,-0.489 1.762,-0.736 2.746,-0.736 z m 0.047,1.024 c -0.779,0 -1.52,0.203 -2.219,0.61 -0.697,0.407 -1.244,0.954 -1.635,1.642 -0.393,0.688 -0.59,1.456 -0.59,2.301 0,1.253 0.436,2.31 1.303,3.173 0.869,0.863 1.916,1.294 3.141,1.294 0.818,0 1.574,-0.198 2.271,-0.595 0.695,-0.396 1.238,-0.939 1.629,-1.627 0.391,-0.688 0.584,-1.453 0.584,-2.294 0,-0.836 -0.193,-1.593 -0.584,-2.27 -0.391,-0.677 -0.939,-1.217 -1.648,-1.624 -0.707,-0.407 -1.459,-0.61 -2.252,-0.61 z"
         id="path71"
         inkscape:connector-curvature="0"
         style="fill:#7b858e" /></g></g></svg>