<svg xmlns="http://www.w3.org/2000/svg" xmlns:xlink="http://www.w3.org/1999/xlink" width="287" height="272" viewBox="0 0 287 272"><defs><path id="a" d="M1683.36 622.04l2.91-5.96-20.88-9.08-7.39 24.96 8.1 8.96z"/><path id="b" d="M1663.14 615L1615 767.19l19.21 66.71 49.45-213.2-10.97-3.05-8.02 15.37 4.93-15.4z"/><path id="c" d="M1630.25 529.2a2.24 2.24 0 0 0 .94 3.01c1.1.57 2.44.15 3.02-.95a2.22 2.22 0 0 0-.95-3 2.22 2.22 0 0 0-3.01.94"/><path id="d" d="M1584.99 508.48c23.45-39.82 55.92 3.88 60.91 12.99 9.76 17.83 19.15 53 6.3 50.18-8.79-1.92-10.25-8.54-10.29-12.54a134.1 134.1 0 0 1-.52 4.51c-.13.99-20.15-11.31-20.32-10.21-.09.57 19.68 14.5 19.58 15.09-1.9 11.04-5.98 25.39-14.4 25.39-4.6 0-10.67-4.75-16.54-11.37v.01c-23.79 64.94-29.3 87.03-29.3 87.03s-83.65 22.81-106.41-34.89c48.24 1.15 87.54-86.37 110.99-126.19"/><path id="e" d="M1619.72 727c-5.85 33.24 10.02 58.54 15.32 66.56 5.31 8.01-2.99 93.76-2.99 93.76s-52.12-110.81-61.02-128.85c-8.9-18.05 42.99-19.56 42.99-19.56z"/><path id="f" d="M1580.1 669.22l8.69-28.29-15.93 8.16-39.78-55.09-21.96 15.92-30.77 10.06-20.24 59.19-5.11 5.75 36.55 192.04 89.28-128.29 3.94-31.67z"/><path id="g" d="M1557.99 672.94l-23.91 132.46-38.93 56.06-1.15-55.55 59.85-135.14 7.8-14.89 12.03-6.88-2.14 14.17z"/><path id="h" d="M1656.29 547.87l-.29-.87c.46.46.29.87.29.87"/><path id="i" d="M1643.6 537.32c-9.94.98-16.71-5.7-14.07-9.7 2.64-4.01 12.25 5.01 14.07 9.7zm-4.64-16.58c-4.25-5.02-11.31-2.95-14.59 4.66-3.28 7.62-.48 13.09 6.37 17.65 6.85 4.57 14.44 2.25 18.86 2.22 4.17-.03 5.74.62 6.33 1.19l-3.24-9.45c-5.04-1.75-9.47-11.25-13.73-16.27z"/><path id="j" d="M1622.11 511.7c-16.55 2.28-18.34 8.29-18.71 17.65-.36 9.36.56-19.78-9.03-13.9-9.59 5.89-16.9 24.04-22.37 17.44 0 0 4.08-7.41 9.9-17.87 9.09-16.34 7.34-36 21.84-28.29 14.5 7.7 18.37 24.97 18.37 24.97"/><path id="k" d="M1622.79 509.16c3.32 12.81 40.9-6.62 27.56 20.91 0 0 13.2-16.95 11.37-30.05-1.82-13.11-25.61-3.43-57.72-15.02 0 0 15.36 10.94 18.79 24.16"/><path id="l" d="M1511.97 610c-26.91 9.11-67.68 27.95-103.06 47.93 0 0-2.63 198.29-17.68 220.99-15.04 22.7-36.95 32.32-46.71 40.91-9.78 8.6-18.52 29.33-18.52 29.33s33.51 23.75 59.86 42.75c14.6 10.52 54.41-46.39 65.72-55.05 0 0-30.31 63.22-31.1 77.56-.52 9.31 11.23 9.02 20.99 8.75 5.27-.15 9.96-.31 11.84 1.04 5.36 3.87 21.26-82.7 31.55-99.45 10.3-16.75 114.66-155.19 140.61-178.77 8.1-7.35-44.74-57.64-42.12-85.15-8.73 27.06-24.21 108.8-88.17 200.79 0 0-4.33-122.64 16.79-251.63"/><path id="m" d="M1486.8 621l-22.8 43.55s8.58-35.24 1.08-36.61"/><path id="n" d="M1593.94 690l-2.94 21.27 6.65-10.53z"/><path id="o" d="M1654 578.92l15.15 15.44 40.68-39.93-15.15-15.43z"/><path id="p" d="M1701 545.67l7.04 7.17 2.72-2.67-7.04-7.17z"/><path id="q" d="M1680 583.97l21.14 21.53 20.34-19.97-21.14-21.53z"/><path id="r" d="M1680 583.59l21.14 21.53 2.64-2.58-21.14-21.54z"/><path id="s" d="M1683 580.58l21.14 21.54 2.64-2.59-21.14-21.53z"/><path id="t" d="M1687 576.59l21.14 21.54 2.64-2.59-21.14-21.54z"/><path id="u" d="M1690 573.59l21.14 21.53 2.64-2.58-21.14-21.54z"/><path id="v" d="M1694 569.59l21.14 21.53 2.64-2.58-21.14-21.54z"/><path id="w" d="M1697 566.59l21.14 21.53 2.64-2.59-21.14-21.53z"/><path id="x" d="M1688.11 602.95l20.85-15.54-8.76-25.23 9.69-12.58c3.18-4.47-2.3-9.09-6.5-5.04l-13.76 17.39c-6.64 10.66-8.11-5.65-5.45-9.29 4.85-6.65.89-10.36-3.99-5.22-8.4 8.84-4.18 36.4-8.19 45.44"/><path id="y" d="M1680.55 610.42l5.71-3.37-12.34-19.05-19.92 16.72 1.79 11.93z"/><path id="z" d="M1667.1 593L1540 742.77l10.44 54.59 130.49-188.35-7.39-8.56-2.54-1.72z"/><path id="A" d="M1455.66 650c12.09 31.51 75.53 89.21 84.2 93.36 8.68 4.14 4.5 58.03 4.5 58.03s-101.75-68.15-118.68-79.04c-16.92-10.89 29.98-72.35 29.98-72.35"/></defs><g transform="translate(-993 -448)"><use fill="#fefefe" xlink:href="#a"/></g><g transform="translate(-993 -448)"><use fill="#22333d" xlink:href="#b"/></g><g transform="translate(-993 -448)"><use fill="#432918" xlink:href="#c"/></g><g transform="translate(-993 -448)"><use fill="#f5ab83" xlink:href="#d"/></g><g transform="translate(-993 -448)"><use fill="#22333d" xlink:href="#e"/></g><g transform="translate(-993 -448)"><use fill="#fefefe" xlink:href="#f"/></g><g transform="translate(-993 -448)"><use fill="#e20714" xlink:href="#g"/></g><g transform="translate(-993 -448)"><use fill="#e20714" xlink:href="#h"/></g><g transform="translate(-993 -448)"><use fill="#e20714" xlink:href="#i"/></g><g transform="translate(-993 -448)"><use fill="#432918" xlink:href="#j"/></g><g transform="translate(-993 -448)"><use fill="#432918" xlink:href="#k"/></g><g transform="translate(-993 -448)"><use fill="#22333d" xlink:href="#l"/></g><g transform="translate(-993 -448)"><use fill="#e20714" xlink:href="#m"/></g><g transform="translate(-993 -448)"><use fill="#e20714" xlink:href="#n"/></g><g transform="translate(-993 -448)"><use fill="#22333d" xlink:href="#o"/></g><g transform="translate(-993 -448)"><use fill="#192229" xlink:href="#p"/></g><g transform="translate(-993 -448)"><use fill="#22333d" xlink:href="#q"/></g><g transform="translate(-993 -448)"><use fill="#192229" xlink:href="#r"/></g><g transform="translate(-993 -448)"><use fill="#192229" xlink:href="#s"/></g><g transform="translate(-993 -448)"><use fill="#192229" xlink:href="#t"/></g><g transform="translate(-993 -448)"><use fill="#192229" xlink:href="#u"/></g><g transform="translate(-993 -448)"><use fill="#192229" xlink:href="#v"/></g><g transform="translate(-993 -448)"><use fill="#192229" xlink:href="#w"/></g><g transform="translate(-993 -448)"><use fill="#ea9570" xlink:href="#x"/></g><g transform="translate(-993 -448)"><use fill="#fefefe" xlink:href="#y"/></g><g transform="translate(-993 -448)"><use fill="#22333d" xlink:href="#z"/></g><g transform="translate(-993 -448)"><use fill="#22333d" xlink:href="#A"/></g></svg>