<?xml version="1.0" standalone="no"?>
<!DOCTYPE svg PUBLIC "-//W3C//DTD SVG 20010904//EN"
 "http://www.w3.org/TR/2001/REC-SVG-20010904/DTD/svg10.dtd">
<svg version="1.0" xmlns="http://www.w3.org/2000/svg"
 width="1120.000000pt" height="1120.000000pt" viewBox="0 0 1120.000000 1120.000000"
 preserveAspectRatio="xMidYMid meet">
<metadata>
Created by potrace 1.11, written by Peter Selinger 2001-2013
</metadata>
<g transform="translate(0.000000,1120.000000) scale(0.100000,-0.100000)"
fill="#000000" stroke="none">
<path d="M6660 10064 c-151 -21 -289 -46 -380 -69 -9 -2 -85 -17 -110 -21 -14
-3 -41 -9 -60 -14 -19 -5 -46 -11 -60 -13 -14 -3 -44 -10 -68 -16 -23 -7 -47
-9 -52 -6 -6 3 -10 1 -10 -4 0 -6 -3 -10 -7 -10 -5 1 -11 0 -15 -1 -5 -1 -17
-4 -28 -5 -11 -1 -21 -3 -22 -5 -4 -2 -22 -6 -67 -15 -19 -3 -38 -8 -43 -11
-4 -3 -17 -7 -28 -10 -11 -2 -30 -6 -42 -10 -13 -3 -34 -7 -48 -10 -14 -2 -32
-7 -40 -11 -8 -3 -19 -7 -25 -8 -5 -2 -37 -10 -70 -19 -33 -9 -67 -18 -75 -20
-8 -2 -40 -11 -70 -19 -249 -69 -318 -89 -340 -97 -14 -6 -34 -12 -45 -15 -27
-6 -105 -32 -185 -61 -36 -13 -78 -26 -95 -30 -28 -7 -92 -32 -140 -55 -11 -5
-50 -20 -86 -32 -97 -34 -151 -69 -177 -115 -12 -22 -22 -48 -22 -58 0 -11 -7
-39 -16 -64 -9 -25 -17 -54 -19 -65 -2 -11 -15 -59 -28 -108 -14 -48 -26 -90
-26 -92 -1 -3 -1 -6 -2 -7 0 -2 -2 -10 -4 -18 -2 -8 -14 -51 -26 -95 -11 -44
-22 -84 -23 -90 -1 -5 -5 -19 -9 -30 -3 -11 -8 -31 -11 -45 -3 -14 -15 -59
-26 -100 -11 -41 -23 -86 -26 -100 -3 -14 -8 -34 -11 -45 -4 -11 -8 -23 -9
-27 -1 -5 -2 -9 -4 -10 -1 -3 -3 -8 -13 -58 -3 -14 -11 -41 -17 -60 -6 -19
-13 -42 -15 -50 -2 -8 -29 -105 -60 -215 -31 -110 -58 -207 -60 -215 -10 -32
-36 -136 -41 -160 -9 -39 -10 -42 -23 -90 -7 -25 -15 -55 -17 -67 -2 -12 -9
-34 -14 -48 -5 -14 -7 -25 -4 -25 4 0 2 -6 -4 -12 -6 -7 -11 -16 -11 -21 -1
-15 -13 -63 -32 -127 -10 -36 -20 -76 -23 -90 -2 -14 -5 -26 -7 -27 -1 -2 -3
-7 -4 -13 -1 -5 -3 -11 -5 -12 -1 -2 -3 -12 -5 -23 -2 -11 -24 -96 -50 -190
-72 -263 -76 -279 -77 -293 -3 -35 -26 36 -54 168 -3 14 -8 32 -11 40 -3 8 -7
20 -8 26 -2 6 -13 51 -25 100 -25 100 -24 98 -34 139 -4 17 -12 48 -17 69 -6
22 -12 46 -15 55 -2 9 -11 45 -19 81 -9 36 -18 72 -20 80 -2 8 -15 62 -30 120
-15 58 -28 112 -30 120 -2 8 -8 35 -14 60 -16 62 -16 64 -41 160 -30 117 -30
121 -37 155 -3 17 -9 38 -14 48 -5 9 -8 17 -5 17 2 0 -4 27 -14 59 -10 33 -16
62 -13 65 2 2 0 13 -5 23 -6 10 -13 32 -16 48 -3 17 -10 48 -16 70 -6 22 -13
51 -16 63 -2 13 -12 49 -20 80 -9 32 -17 64 -18 72 -2 8 -9 35 -15 60 -7 25
-15 52 -16 60 -2 8 -8 30 -14 48 -5 17 -8 32 -6 32 3 0 0 12 -6 28 -6 15 -12
34 -14 42 -2 8 -9 35 -15 60 -6 25 -15 61 -20 80 -4 19 -27 107 -50 195 -50
190 -51 196 -55 215 -1 8 -5 22 -8 30 -3 8 -9 29 -13 45 -4 17 -8 35 -10 40
-6 25 -38 159 -58 245 -20 86 -33 139 -62 246 -22 84 -29 86 -238 70 -44 -4
-89 -8 -100 -11 -12 -2 -34 -6 -51 -9 -16 -2 -51 -9 -78 -15 -26 -6 -64 -14
-85 -17 -20 -3 -53 -9 -72 -14 -19 -5 -51 -11 -70 -14 -19 -3 -50 -10 -68 -15
-17 -5 -32 -8 -32 -6 0 3 -10 1 -23 -4 -13 -5 -39 -12 -58 -15 -19 -3 -49 -10
-66 -15 -18 -5 -33 -8 -33 -5 0 3 -9 0 -19 -6 -11 -5 -37 -13 -58 -16 -21 -3
-47 -11 -58 -17 -11 -6 -20 -9 -20 -8 0 2 -18 -1 -40 -5 -50 -10 -43 -8 -90
-22 -22 -6 -51 -13 -65 -16 -14 -3 -68 -17 -120 -31 -52 -15 -103 -28 -113
-30 -9 -2 -21 -6 -25 -9 -5 -3 -19 -7 -33 -9 -13 -3 -66 -17 -118 -32 -51 -15
-98 -28 -105 -30 -6 -1 -18 -4 -26 -8 -8 -3 -55 -17 -105 -32 -49 -15 -110
-34 -135 -42 -25 -8 -49 -16 -55 -17 -27 -5 -155 -50 -192 -67 -24 -10 -45
-19 -47 -19 -2 0 -25 -10 -52 -22 -27 -12 -58 -23 -69 -25 -11 -2 -24 -8 -29
-13 -6 -6 -18 -10 -28 -10 -9 0 -22 -8 -27 -17 -6 -10 -11 -14 -11 -9 0 4 -14
-7 -30 -25 -17 -17 -29 -37 -27 -43 3 -6 10 -38 17 -71 7 -33 16 -65 21 -71 5
-6 7 -13 4 -16 -3 -2 0 -20 6 -39 5 -19 14 -52 19 -74 4 -22 16 -69 25 -105 9
-36 27 -109 41 -163 14 -53 22 -101 19 -106 -3 -5 -1 -11 5 -13 5 -1 12 -16
14 -33 3 -16 12 -57 21 -90 8 -33 17 -69 19 -80 2 -11 9 -40 16 -65 6 -25 13
-54 15 -65 2 -11 4 -20 5 -20 2 0 6 -16 13 -55 3 -14 6 -25 8 -25 1 0 3 -9 4
-20 2 -11 10 -48 20 -82 9 -35 18 -71 20 -80 2 -10 20 -83 40 -163 20 -80 38
-152 40 -160 2 -8 10 -42 19 -75 9 -33 19 -71 22 -85 3 -14 10 -43 16 -65 5
-22 12 -48 13 -57 2 -9 13 -51 25 -94 12 -42 24 -89 26 -103 3 -14 8 -35 11
-46 4 -11 8 -24 9 -30 1 -5 7 -28 12 -50 6 -22 18 -69 27 -105 9 -36 21 -83
28 -105 6 -22 12 -44 13 -50 0 -5 2 -12 3 -15 2 -3 4 -12 6 -20 1 -8 15 -62
30 -120 15 -58 29 -112 30 -120 2 -8 4 -16 5 -17 2 -2 3 -11 5 -20 1 -10 4
-25 7 -33 16 -42 25 -77 22 -92 -1 -10 3 -18 9 -18 5 0 8 -3 4 -6 -3 -3 -2
-17 3 -30 6 -14 12 -35 14 -47 3 -12 15 -58 26 -102 11 -44 23 -89 25 -100 3
-11 12 -47 20 -80 9 -33 18 -71 21 -85 3 -14 7 -29 8 -35 2 -5 6 -23 10 -40 4
-16 11 -43 16 -60 5 -16 11 -41 14 -55 12 -56 26 -111 56 -230 17 -69 33 -132
35 -140 2 -8 16 -62 30 -120 15 -58 36 -141 46 -185 24 -100 22 -90 53 -210
15 -55 28 -109 30 -120 2 -11 6 -30 10 -42 4 -12 9 -31 11 -42 3 -12 7 -30 10
-41 3 -11 7 -29 10 -40 3 -11 7 -29 10 -40 3 -11 8 -30 11 -43 3 -12 7 -31 9
-42 2 -11 4 -20 5 -20 1 0 3 -7 5 -15 2 -8 6 -24 9 -35 7 -27 37 -148 40 -160
22 -96 41 -171 46 -175 3 -3 6 -9 7 -15 7 -49 13 -73 38 -168 8 -28 16 -60 21
-86 3 -14 14 -57 25 -97 11 -40 22 -82 24 -94 16 -72 57 -235 62 -250 3 -8 8
-24 10 -35 8 -38 11 -50 13 -50 1 0 3 -9 5 -20 2 -11 29 -119 60 -240 31 -121
58 -231 61 -243 3 -13 12 -49 20 -80 9 -32 20 -73 24 -92 11 -44 28 -113 31
-120 3 -8 6 -21 18 -80 7 -30 16 -66 21 -80 5 -14 12 -41 15 -60 6 -35 12 -61
16 -70 1 -3 3 -9 4 -15 2 -5 4 -12 5 -15 1 -3 3 -12 5 -20 1 -8 8 -35 15 -60
7 -25 13 -52 15 -60 2 -8 9 -35 15 -60 6 -25 15 -61 20 -80 4 -19 11 -45 14
-58 3 -12 8 -30 10 -40 2 -9 9 -37 15 -62 7 -25 14 -56 17 -70 3 -14 9 -38 14
-55 9 -32 25 -91 36 -140 4 -16 8 -34 10 -40 3 -11 11 -44 18 -72 10 -43 27
-109 30 -118 2 -5 7 -24 11 -42 6 -27 13 -33 44 -38 68 -11 286 8 391 35 19 5
55 12 79 15 23 3 53 10 66 15 13 5 25 7 28 4 2 -2 15 0 28 5 13 4 42 11 64 15
22 3 51 8 65 11 14 3 36 8 50 10 14 2 55 10 92 19 36 8 77 17 89 20 13 3 35 8
49 11 14 3 41 8 60 11 19 3 40 9 45 12 6 4 15 7 20 8 37 6 77 16 125 29 30 8
66 18 80 21 36 7 40 9 95 26 41 13 121 37 145 43 62 17 105 30 148 46 28 10
54 19 57 19 3 0 6 0 8 1 1 0 9 2 17 4 19 4 190 55 210 62 8 3 20 7 25 9 22 5
255 84 281 95 16 7 31 13 34 14 39 9 154 53 182 69 70 40 95 71 109 133 15 68
13 63 33 133 39 140 184 679 191 705 10 43 18 72 22 85 7 18 6 11 22 80 7 30
26 102 42 160 16 58 32 118 35 134 3 16 7 33 10 38 3 4 7 17 10 28 7 36 12 54
29 115 9 33 27 103 41 155 14 52 29 106 35 120 5 14 12 39 15 55 4 27 17 72
44 160 5 17 11 41 14 55 4 20 22 84 60 215 2 6 6 24 11 40 4 17 18 68 32 115
13 47 26 92 28 100 13 58 49 178 56 190 6 11 8 6 9 -17 0 -18 9 -59 19 -90 17
-51 23 -74 38 -133 2 -8 5 -24 7 -35 2 -11 6 -27 9 -35 4 -8 8 -27 11 -42 3
-15 7 -31 10 -36 3 -5 8 -24 11 -43 3 -19 17 -77 30 -129 13 -52 27 -108 31
-125 4 -16 9 -36 11 -42 1 -7 4 -19 6 -25 17 -75 61 -256 65 -268 3 -8 6 -24
8 -35 2 -11 8 -36 13 -55 11 -39 24 -90 27 -105 1 -5 3 -12 4 -15 1 -3 3 -12
5 -20 2 -8 8 -35 14 -60 7 -25 14 -56 17 -70 2 -14 7 -32 10 -40 4 -8 8 -24
10 -35 5 -32 12 -60 15 -60 1 0 3 -9 4 -20 2 -11 17 -76 35 -145 18 -69 33
-129 34 -135 1 -5 5 -16 9 -22 5 -7 6 -13 3 -13 -2 0 0 -15 5 -32 6 -18 13
-46 16 -63 3 -16 9 -38 14 -47 5 -9 9 -27 9 -41 0 -13 3 -27 7 -31 4 -3 8 -14
9 -24 1 -9 5 -26 8 -37 25 -97 129 -504 131 -520 2 -11 11 -47 20 -80 9 -33
18 -69 20 -79 2 -10 9 -33 14 -50 10 -31 19 -72 25 -112 2 -11 6 -26 10 -33 4
-6 9 -24 11 -39 3 -15 7 -38 11 -52 3 -14 7 -34 9 -45 2 -11 4 -20 5 -20 1 0
3 -9 5 -19 2 -11 7 -31 11 -45 4 -14 8 -28 8 -31 41 -185 39 -179 73 -191 32
-10 205 -6 263 6 14 3 48 8 75 11 28 4 58 10 68 16 9 5 17 7 17 4 0 -2 19 1
43 6 41 10 60 13 114 23 15 2 49 9 77 15 28 5 62 12 76 14 14 3 25 5 25 6 0 2
18 6 70 15 22 3 45 8 50 9 13 3 125 27 145 31 8 2 15 4 15 5 0 1 9 3 20 5 11
2 35 7 52 10 18 3 34 5 35 5 2 -1 17 4 33 10 17 7 42 14 56 16 26 5 172 46
294 84 39 11 77 23 85 25 55 13 76 18 85 24 6 3 16 6 23 7 17 3 160 48 342
107 85 28 157 52 160 52 3 1 12 4 20 7 28 11 225 80 235 82 31 8 95 39 95 47
0 5 5 9 11 9 18 0 51 49 65 95 33 113 81 292 89 335 3 14 21 81 41 150 19 69
38 136 40 149 3 14 7 28 10 33 3 4 7 17 9 28 7 38 57 215 71 253 8 20 12 37 9
37 -2 0 0 12 6 27 6 16 13 39 15 51 3 13 12 49 20 80 8 32 17 64 19 72 2 8 4
15 5 15 1 0 3 7 5 15 1 8 8 35 15 60 7 25 14 52 16 60 4 18 33 128 39 152 3
10 7 27 10 39 2 11 7 29 10 39 3 10 8 27 10 37 2 10 11 43 20 73 9 30 23 80
31 110 8 30 21 78 29 105 17 56 104 372 110 395 2 8 24 92 50 185 25 94 69
253 96 355 28 102 53 192 56 200 3 8 7 20 7 25 1 6 8 30 15 55 7 25 14 50 15
55 2 6 8 30 15 55 8 25 14 50 15 55 2 6 8 30 15 55 7 25 15 52 17 60 9 37 35
131 54 200 11 41 22 82 24 90 2 8 10 35 17 60 17 61 17 62 23 88 8 34 66 245
73 262 3 8 7 20 7 25 1 13 36 145 44 165 7 19 7 19 16 60 4 19 16 64 27 99 10
34 21 73 24 85 7 31 30 120 54 206 12 41 30 113 42 160 11 47 23 92 26 100 3
8 7 20 9 25 33 134 74 292 119 455 2 8 11 40 20 70 8 30 17 64 19 75 3 11 18
70 36 130 17 61 33 119 35 130 2 11 7 31 13 45 5 14 10 27 10 30 0 3 8 31 17
64 9 32 18 64 19 70 2 6 8 31 15 56 7 25 15 52 17 60 2 8 10 40 19 70 16 55
21 73 30 110 7 29 12 46 35 130 11 41 22 86 25 100 2 14 27 108 55 210 29 102
53 194 56 205 4 24 90 327 105 373 6 18 13 44 15 59 3 15 9 32 15 39 5 6 7 13
4 16 -3 3 2 24 10 48 8 24 17 52 20 64 2 12 6 31 9 44 4 12 8 30 10 40 2 9 14
55 26 102 12 47 24 93 26 103 2 9 6 25 8 35 2 9 13 53 25 97 11 43 18 82 15
85 -6 6 -149 2 -202 -6 -21 -2 -55 -7 -77 -9 -22 -3 -62 -8 -90 -11 -27 -4
-57 -8 -65 -8 -9 -1 -21 -5 -28 -10 -6 -4 -12 -5 -12 -3 0 3 -17 1 -37 -4 -21
-5 -54 -12 -73 -15 -19 -3 -64 -12 -100 -20 -36 -9 -76 -17 -90 -19 -21 -4
-195 -45 -252 -60 -10 -3 -26 -7 -35 -9 -10 -2 -83 -21 -163 -41 -80 -20 -156
-38 -169 -41 -14 -3 -28 -7 -33 -10 -5 -3 -18 -7 -31 -10 -12 -2 -62 -15 -112
-30 -49 -14 -98 -26 -107 -27 -10 -1 -18 -4 -18 -7 0 -4 -7 -7 -15 -7 -15 0
-56 -11 -150 -42 -27 -8 -54 -16 -60 -17 -5 0 -17 -3 -25 -7 -8 -3 -80 -26
-160 -52 -134 -44 -289 -100 -350 -127 -14 -6 -30 -12 -36 -14 -30 -6 -104
-44 -104 -53 0 -6 -6 -11 -14 -11 -13 0 -46 -41 -51 -64 -1 -6 -5 -18 -8 -26
-7 -16 -66 -231 -72 -259 -2 -9 -14 -52 -28 -96 -14 -44 -35 -116 -46 -160
-11 -44 -33 -123 -47 -175 -14 -52 -27 -104 -28 -115 -1 -12 -5 -26 -9 -31 -3
-6 -9 -24 -11 -40 -3 -16 -20 -78 -36 -139 -37 -130 -34 -121 -44 -165 -4 -19
-14 -54 -22 -78 -8 -24 -12 -48 -9 -53 4 -5 2 -9 -2 -9 -5 0 -10 -8 -11 -17
-3 -30 -7 -48 -13 -58 -6 -9 -20 -78 -20 -90 1 -3 -6 -22 -14 -42 -8 -21 -17
-49 -19 -63 -3 -14 -5 -27 -6 -30 -2 -3 -2 -8 -1 -12 0 -5 -4 -8 -10 -8 -5 0
-7 -4 -4 -10 3 -5 -1 -31 -10 -57 -9 -27 -18 -55 -20 -63 -2 -8 -20 -73 -40
-145 -20 -71 -38 -137 -41 -145 -2 -8 -22 -82 -45 -165 -22 -82 -44 -166 -49
-185 -4 -19 -10 -42 -13 -50 -4 -8 -9 -26 -11 -40 -3 -14 -12 -50 -21 -80 -9
-30 -18 -63 -20 -74 -6 -27 -15 -32 -16 -10 -2 25 -6 55 -13 79 -2 11 -12 49
-21 85 -9 36 -18 76 -21 90 -3 14 -8 34 -11 45 -4 11 -8 25 -9 30 -1 6 -10 39
-19 75 -8 36 -17 72 -19 80 -2 8 -9 35 -16 60 -7 25 -13 52 -15 60 -2 8 -11
44 -20 80 -9 36 -19 72 -21 80 -15 60 -26 107 -29 120 -2 8 -17 68 -34 132
-17 65 -33 130 -36 145 -8 38 -13 57 -15 61 -3 2 -4 7 -14 47 -8 33 -29 118
-52 210 -9 33 -17 68 -19 78 -2 9 -6 21 -10 26 -3 5 -7 22 -9 38 -3 15 -14 66
-26 113 -30 115 -31 122 -35 145 -2 11 -4 21 -5 23 -2 1 -4 7 -5 12 -1 6 -3
11 -5 13 -1 1 -3 11 -5 22 -7 40 -16 81 -30 128 -8 26 -11 47 -8 47 3 0 1 6
-4 13 -6 6 -11 19 -11 27 0 8 -3 24 -6 35 -9 32 -42 168 -50 203 -2 9 -9 37
-16 62 -12 45 -17 65 -26 108 -3 13 -12 49 -20 80 -9 32 -17 66 -19 77 -2 11
-20 81 -40 155 -19 74 -38 146 -41 160 -2 14 -8 34 -11 45 -8 25 -11 34 -17
60 -2 11 -5 21 -6 23 -2 1 -4 7 -5 12 -1 6 -4 12 -5 15 -4 7 -5 15 -14 70 -4
28 -12 55 -16 60 -5 6 -8 13 -9 18 -3 103 -30 128 -138 125 -37 -1 -106 -7
-153 -14z"/>
</g>
</svg>
